<?xml version="1.0" standalone="no"?>
<!DOCTYPE svg PUBLIC "-//W3C//DTD SVG 1.1//EN" "http://www.w3.org/Graphics/SVG/1.1/DTD/svg11.dtd" >
<svg xmlns="http://www.w3.org/2000/svg">
<metadata></metadata>
<defs>
<font id="migrena_grotesquebold" horiz-adv-x="1217" >
<font-face units-per-em="2048" ascent="1638" descent="-410" />
<missing-glyph horiz-adv-x="342" />
<glyph horiz-adv-x="0" />
<glyph horiz-adv-x="682" />
<glyph unicode=" "  horiz-adv-x="342" />
<glyph unicode="&#x09;" horiz-adv-x="342" />
<glyph unicode="&#xa0;" horiz-adv-x="342" />
<glyph unicode="!" horiz-adv-x="546" d="M81 1211q-1 18 9.5 28t29.5 10h307q41 0 38 -38l-44 -738q-3 -39 -39 -39h-218q-35 0 -38 39zM274 -20q-80 0 -136 56t-56 136t56 136t136 56t136 -56t56 -136t-56 -136t-136 -56z" />
<glyph unicode="&#x22;" horiz-adv-x="870" d="M69 1247q-3 38 38 38h244q41 0 38 -38l-36 -427q-3 -39 -38 -39h-174q-35 0 -38 39zM483 1247q-3 38 38 38h244q41 0 38 -38l-36 -427q-3 -39 -37 -39h-174q-36 0 -39 39z" />
<glyph unicode="#" horiz-adv-x="1438" d="M1321 939q45 0 42 -46l-14 -165q-5 -47 -51 -47h-120l-21 -205h120q45 0 42 -46l-14 -166q-5 -46 -51 -46h-123l-18 -180q-5 -38 -41 -38h-270q-40 0 -35 38l18 180h-203l-18 -180q-5 -38 -42 -38h-270q-39 0 -34 38l18 180h-119q-22 0 -33 12t-9 34l15 166q5 46 49 46 h122l21 205h-121q-22 0 -33 12.5t-9 34.5l15 165q1 22 14.5 34t35.5 12h123l18 180q5 38 42 38h269q40 0 35 -38l-18 -180h204l18 180q5 38 42 38h269q40 0 35 -38l-18 -180h118zM810 476l21 205h-203l-21 -205h203z" />
<glyph unicode="$" horiz-adv-x="1192" d="M1130 402q0 -160 -100.5 -260t-267.5 -139v-221q0 -16 -11.5 -27t-27.5 -11h-198q-16 0 -27 11t-11 27v200q-219 14 -401 110q-36 22 -18 63l88 195q18 40 56 22q73 -33 107.5 -47t95.5 -28t125 -14q163 0 163 75q0 31 -33.5 54t-86.5 40.5t-118 36t-129.5 48.5 t-117.5 70.5t-86.5 108.5t-33.5 156q0 157 102.5 261.5t286.5 133.5v200q0 16 11 27t27 11h198q16 0 27.5 -11t11.5 -27v-199q181 -23 307 -94q38 -21 20 -61l-81 -177q-19 -43 -65 -21t-76.5 35t-92.5 29t-118 16q-80 0 -118 -23t-38 -56q0 -21 21.5 -38.5t58 -30.5t84 -26 t99.5 -30t104 -37.5t99.5 -52.5t84 -71.5t58 -98t21.5 -129.5z" />
<glyph unicode="%" horiz-adv-x="1916" d="M1337 1288q14 -7 20 -22.5t-1 -29.5l-618 -1298q-7 -14 -22 -19.5t-28 0.5l-111 52q-14 7 -20 22t1 29l618 1299q7 14 22 19.5t29 -1.5zM795 877q0 -183 -104.5 -292t-261.5 -109q-158 0 -262.5 109t-104.5 292t104.5 291.5t262.5 108.5q157 0 261.5 -108.5t104.5 -291.5 zM429 707q43 0 66 46.5t23 123.5q0 78 -23 124t-66 46t-67 -46.5t-24 -123.5t24 -123.5t67 -46.5zM1488 774q157 0 261.5 -109t104.5 -292t-104.5 -292t-261.5 -109q-158 0 -262.5 109t-104.5 292t104.5 292t262.5 109zM1488 203q43 0 66.5 46.5t23.5 123.5q0 78 -23.5 124 t-66.5 46t-66.5 -46.5t-23.5 -123.5t23.5 -123.5t66.5 -46.5z" />
<glyph unicode="&#x26;" horiz-adv-x="1360" d="M1312 88q25 -27 11.5 -57.5t-51.5 -30.5h-276q-26 0 -49 24l-51 53q-166 -97 -376 -97q-130 0 -235 43t-169 130t-64 204q0 229 231 395q-55 94 -55 188q0 86 35.5 152.5t96.5 106t137.5 59t164.5 19.5q171 0 325 -76q30 -15 18 -47l-66 -175q-7 -19 -23.5 -24.5 t-34.5 3.5q-87 46 -160 46q-57 0 -88.5 -23t-31.5 -67q0 -26 24 -64.5t41 -57.5t63 -69l177 -193q41 80 61 171q4 17 15.5 25.5t27.5 6.5l234 -31q17 -2 26.5 -14.5t6.5 -29.5q-37 -209 -150 -369zM550 266q66 0 136 34l-230 243q-53 -66 -53 -134q0 -64 37.5 -103.5 t109.5 -39.5z" />
<glyph unicode="'" horiz-adv-x="470" d="M75 1247q-3 38 38 38h244q41 0 38 -38l-36 -427q-3 -39 -37 -39h-175q-35 0 -38 39z" />
<glyph unicode="(" horiz-adv-x="520" d="M288 487q0 -421 197 -762q10 -18 4.5 -35t-24.5 -24l-83 -30q-24 -9 -40 12q-267 379 -267 839q0 455 267 840q16 22 40 12l83 -30q19 -7 24.5 -24t-4.5 -34q-197 -341 -197 -764z" />
<glyph unicode=")" horiz-adv-x="520" d="M178 1327q267 -385 267 -840q0 -460 -267 -839q-16 -21 -40 -12l-83 30q-19 7 -24.5 24t4.5 35q197 341 197 762q0 423 -197 764q-10 17 -4.5 34t24.5 24l83 30q24 10 40 -12z" />
<glyph unicode="*" horiz-adv-x="903" d="M834 1206q5 -15 -2.5 -28.5t-22.5 -18.5l-191 -62l118 -163q21 -30 -8 -52l-105 -77q-14 -10 -28.5 -7.5t-24.5 16.5l-118 162l-118 -162q-10 -14 -25 -16.5t-28 7.5l-105 77q-30 22 -8 52l118 163l-191 62q-16 5 -22.5 18.5t-1.5 28.5l40 124q5 16 18.5 22.5t29.5 1.5 l190 -62v201q0 17 10.5 27.5t27.5 10.5h130q17 0 27.5 -10.5t10.5 -27.5v-201l190 62q15 5 29 -1.5t19 -22.5z" />
<glyph unicode="+" horiz-adv-x="1123" d="M990 695q46 0 46 -45v-168q0 -46 -46 -46h-299v-299q0 -46 -45 -46h-168q-46 0 -46 46v299h-299q-46 0 -46 46v168q0 45 46 45h299v299q0 46 46 46h168q45 0 45 -46v-299h299z" />
<glyph unicode="," horiz-adv-x="528" d="M255 377q79 0 139 -55t60 -158q0 -124 -87.5 -257.5t-209.5 -199.5q-26 -13 -43 8l-30 33q-22 25 3 53l16.5 16.5t17.5 18t15.5 17.5t15 20.5t10.5 20t8.5 23.5t2.5 25q0 21 -8.5 38.5t-17.5 27t-27 24.5q-64 56 -64 143q0 86 58 144t141 58z" />
<glyph unicode="-" horiz-adv-x="1058" d="M133 329q-46 0 -46 46v204q0 45 46 45h793q46 0 46 -45v-204q0 -46 -46 -46h-793z" />
<glyph unicode="." horiz-adv-x="546" d="M273 -20q-83 0 -140.5 58t-57.5 140q0 83 58 141t140 58q83 0 141 -58.5t58 -140.5t-58 -140t-141 -58z" />
<glyph unicode="/" horiz-adv-x="826" d="M634 1363q7 14 22.5 20t29.5 -1l111 -52q14 -7 19.5 -22.5t-1.5 -29.5l-625 -1340q-7 -14 -22.5 -19.5t-28.5 0.5l-111 52q-14 7 -20 22t1 29z" />
<glyph unicode="0" horiz-adv-x="1309" d="M654 1277q124 0 232.5 -45t188.5 -127.5t126 -206.5t46 -273t-46 -273t-126 -206.5t-188.5 -128t-232.5 -45.5t-232.5 45.5t-188 128t-125.5 206.5t-46 273t46 273t125.5 206.5t188 127.5t232.5 45zM654 297q83 0 128 89.5t45 238.5t-45 238t-128 89q-82 0 -127.5 -89.5 t-45.5 -237.5t45.5 -238t127.5 -90z" />
<glyph unicode="1" horiz-adv-x="1043" d="M803 1249q15 0 26.5 -11t11.5 -27v-1173q0 -16 -11.5 -27t-26.5 -11h-325q-16 0 -27 11t-11 27v859l-181 -83q-15 -7 -30 -1.5t-22 20.5l-97 209q-7 16 -1.5 31t21.5 22l322 143q25 11 54 11h297z" />
<glyph unicode="2" horiz-adv-x="1141" d="M1075 288q16 0 27 -11.5t11 -27.5v-211q0 -16 -11 -27t-27 -11h-961q-46 0 -46 46v80q0 42 20 57q182 132 305 238t184 182t84.5 129t23.5 101q0 138 -150 138q-54 0 -108.5 -20.5t-88.5 -43.5t-83 -62q-12 -12 -25 -9t-21 9.5t-19 20.5l-114 136q-12 14 -13 26.5t4.5 22 t19.5 21.5q216 205 529 205q225 0 348 -108t123 -292q0 -157 -101 -301t-315 -288h404z" />
<glyph unicode="3" horiz-adv-x="1211" d="M918 646q231 -96 231 -304q0 -171 -148.5 -270.5t-390.5 -99.5q-326 0 -534 205q-14 15 -19 22.5t-4 20t13 27.5l115 139q11 14 19 20.5t21 9.5t25 -9q58 -44 91.5 -65.5t93.5 -42t126 -20.5q82 0 132.5 27.5t50.5 78.5q0 54 -68 91.5t-188 41.5q-17 1 -28 11.5t-11 27.5 v144q0 16 10.5 26t28.5 12q114 6 170.5 42.5t56.5 91.5q0 46 -39 72t-110 26q-57 0 -114.5 -19t-91 -38.5t-82.5 -53.5q-22 -11 -34.5 -6t-30.5 26l-107 129q-12 15 -13 27.5t5 21t19 21.5q96 92 234 145t301 53q216 0 337.5 -92t121.5 -246q0 -192 -189 -293z" />
<glyph unicode="4" horiz-adv-x="1270" d="M1196 508q46 0 46 -45v-166q0 -46 -46 -46h-140v-213q0 -16 -11 -27t-27 -11h-287q-16 0 -27.5 11t-11.5 27v213h-615q-46 0 -46 46v117q0 12 7 20l624 789q20 26 54 26h302q16 0 27 -11t11 -27v-703h140zM423 508h269v340z" />
<glyph unicode="5" horiz-adv-x="1220" d="M688 795q102 -1 187 -26.5t149 -74t99.5 -126.5t35.5 -179q0 -186 -147 -301.5t-385 -115.5q-338 0 -540 191q-21 20 -24.5 32.5t13.5 37.5l116 139q11 14 19 20t21 9t25 -8q82 -59 149 -86.5t160 -27.5q81 0 132.5 35.5t51.5 95.5q0 57 -43 92t-135 35q-108 0 -192 -32 q-14 -5 -25 2l-190 115q-21 12 -18 34l63 547q5 46 45 46h766q16 0 27 -11t11 -27v-222q0 -16 -11 -27.5t-27 -11.5h-494l-22 -183q69 28 183 28z" />
<glyph unicode="6" horiz-adv-x="1207" d="M760 794q91 0 165.5 -32t121.5 -86t72.5 -121.5t25.5 -141.5q0 -133 -69.5 -234.5t-186 -154t-260.5 -52.5q-118 0 -220.5 36.5t-180 104.5t-122 172t-44.5 231q0 122 30 229.5t99.5 205t173 168t259.5 113t351 45.5q18 0 29.5 -11t11.5 -28v-209q0 -17 -11 -27.5 t-28 -11.5q-220 -4 -343 -80.5t-171 -230.5q102 115 297 115zM625 245q68 0 107 45.5t39 107.5q0 64 -39 108.5t-107 44.5q-71 0 -109 -44t-38 -109q0 -63 38.5 -108t108.5 -45z" />
<glyph unicode="7" horiz-adv-x="1188" d="M233 0q-28 0 -41 20.5t-1 45.5l411 858h-535q-16 0 -27 11t-11 27v249q0 16 11 27t27 11h1011q46 0 46 -46v-68q0 -28 -18 -69l-486 -1046q-9 -20 -31 -20h-356z" />
<glyph unicode="8" horiz-adv-x="1260" d="M967 663q108 -38 169.5 -123.5t61.5 -193.5q0 -162 -146 -268t-422 -106t-422 106t-146 268q0 108 61.5 193.5t169.5 123.5q-83 36 -135.5 108.5t-52.5 168.5q0 149 136.5 243t388.5 94t388.5 -94t136.5 -243q0 -96 -52.5 -168.5t-135.5 -108.5zM630 1023 q-61 0 -99.5 -32t-38.5 -85t38.5 -85.5t99.5 -32.5t99.5 32.5t38.5 85.5t-38.5 85t-99.5 32zM630 255q73 0 116 39.5t43 98.5q0 60 -42.5 99t-116.5 39t-116.5 -39t-42.5 -99q0 -59 43 -98.5t116 -39.5z" />
<glyph unicode="9" horiz-adv-x="1207" d="M579 1277q158 0 285 -62t204 -187t77 -294q0 -121 -30 -227.5t-99.5 -200.5t-173 -161t-259.5 -106t-351 -39q-18 0 -29.5 11t-11.5 28v209q0 16 11 27t28 12q219 5 340.5 71.5t170.5 208.5q-101 -112 -294 -112q-91 0 -165.5 32t-121.5 85.5t-72.5 121.5t-25.5 142 q0 133 70 234.5t186.5 154t260.5 52.5zM582 698q71 0 109.5 44.5t38.5 108.5q0 63 -39 108.5t-109 45.5q-68 0 -107 -45.5t-39 -108.5q0 -64 39 -108.5t107 -44.5z" />
<glyph unicode=":" horiz-adv-x="546" d="M273 585q-83 0 -140.5 57.5t-57.5 140.5t58 141t140 58q83 0 141 -58t58 -141q0 -82 -58 -140t-141 -58zM273 -20q-83 0 -140.5 58t-57.5 140q0 83 58 141t140 58q83 0 141 -58.5t58 -140.5t-58 -140t-141 -58z" />
<glyph unicode=";" horiz-adv-x="528" d="M255 585q-83 0 -141 58t-58 140q0 83 58 141t141 58t141 -58t58 -141q0 -82 -58 -140t-141 -58zM255 377q79 0 139 -55t60 -158q0 -124 -87.5 -257.5t-209.5 -199.5q-26 -13 -43 8l-30 33q-22 25 3 53l16.5 16.5t17.5 18t15.5 17.5t15 20.5t10.5 20t8.5 23.5t2.5 25 q0 21 -8.5 38.5t-17.5 27t-27 24.5q-64 56 -64 143q0 86 58 144t141 58z" />
<glyph unicode="&#x3c;" horiz-adv-x="1123" d="M1036 815q0 -14 -7 -23t-14.5 -13t-24.5 -10l-571 -227l571 -226q17 -6 24.5 -10t14.5 -13t7 -23v-196q0 -23 -13.5 -37t-32.5 -6l-857 358q-46 19 -46 55v197q0 35 46 54l857 359q19 8 32.5 -6t13.5 -37v-196z" />
<glyph unicode="=" horiz-adv-x="1123" d="M133 649q-46 0 -46 46v168q0 46 46 46h857q46 0 46 -46v-168q0 -46 -46 -46h-857zM133 221q-46 0 -46 46v168q0 45 46 45h857q46 0 46 -45v-168q0 -46 -46 -46h-857z" />
<glyph unicode="&#x3e;" horiz-adv-x="1123" d="M87 815v196q0 23 13.5 37t32.5 6l857 -359q46 -19 46 -54v-197q0 -36 -46 -55l-857 -358q-19 -8 -32.5 6t-13.5 37v196q0 14 7 23t14.5 13t24.5 10l572 226l-572 227q-17 6 -24.5 10t-14.5 13t-7 23z" />
<glyph unicode="?" horiz-adv-x="990" d="M592 875q0 107 -136 107q-48 0 -93.5 -16.5t-64 -29t-56.5 -41.5q-16 -12 -30.5 -8.5t-34.5 28.5l-106 132q-7 9 -8.5 17.5t3 16t10 13t15.5 13.5q200 170 463 170q191 0 310 -81t119 -238q0 -72 -28.5 -129t-71 -96t-85.5 -75t-77.5 -83.5t-41.5 -103.5q-2 -11 -4 -17.5 t-10.5 -12.5t-21.5 -6h-217q-19 0 -26.5 11.5t-7.5 37.5q0 50 20.5 97t50 84t59 71t50 70t20.5 69zM536 -20q-80 0 -136 56t-56 136q0 79 56 135t136 56t136 -56t56 -135q0 -80 -56 -136t-136 -56z" />
<glyph unicode="@" horiz-adv-x="1711" d="M1155 -197q-2 -26 -28 -31q-161 -34 -328 -34q-178 0 -320 49t-235.5 138t-142.5 212t-49 272q0 186 76 346t204 268t298.5 169.5t357.5 61.5q199 0 349 -69t236.5 -208.5t86.5 -332.5q0 -143 -52 -271t-150 -209t-219 -81q-201 0 -244 136q-94 -136 -242 -136 q-120 0 -202.5 83.5t-82.5 244.5q0 221 137 365t351 144q117 0 268 -43q29 -9 26 -39l-43 -489q-4 -45 13 -69t50 -24q40 0 71 38t48.5 97.5t26.5 123t9 123.5q0 428 -453 428q-302 0 -493 -180.5t-191 -466.5q0 -108 30.5 -196.5t93 -157t167.5 -106.5t246 -38 q137 0 286 31q24 5 39.5 -9t13.5 -38zM814 253q67 0 120 68.5t64 197.5l19 218q-49 16 -95 16q-68 0 -118.5 -46t-75.5 -119.5t-25 -163.5q0 -86 31 -128.5t80 -42.5z" />
<glyph unicode="A" horiz-adv-x="1435" d="M1422 54q10 -25 0.5 -39.5t-34.5 -14.5h-342q-38 0 -52 36l-64 170h-452l-64 -170q-14 -36 -53 -36h-315q-25 0 -35.5 15t-0.5 39l500 1166q13 34 53 34h317q40 0 53 -34zM574 461h259l-130 340z" />
<glyph unicode="B" horiz-adv-x="1341" d="M984 635q125 -16 210.5 -93.5t85.5 -203.5q0 -158 -127.5 -248t-368.5 -90h-383h-288q-16 0 -27 11t-11 27v1173q0 16 11 27t27 11h325h293q240 0 365 -87.5t125 -239.5q0 -119 -65.5 -192.5t-171.5 -94.5zM817 863q0 42 -34 74t-124 32h-182v-214h174q92 0 129 31.5 t37 76.5zM713 280q86 0 120.5 32.5t34.5 76.5q0 46 -36.5 77t-124.5 31h-230v-217h236z" />
<glyph unicode="C" horiz-adv-x="1392" d="M1314 347q43 -20 20 -62q-82 -155 -235 -234t-332 -79q-195 0 -354 77t-255 227.5t-96 348.5t96 348t255 227t354 77q179 0 332 -78.5t235 -233.5q23 -43 -20 -63l-244 -116q-38 -18 -63 21q-41 69 -103 107t-137 38q-129 0 -207.5 -90.5t-78.5 -236.5t78.5 -237 t207.5 -91q75 0 137 38t103 107q25 39 63 21z" />
<glyph unicode="D" horiz-adv-x="1425" d="M665 1249q145 0 272 -42t222 -120t149.5 -197t54.5 -265q0 -117 -35.5 -218t-99 -175t-150.5 -126.5t-192 -79t-221 -26.5h-399h-153q-16 0 -27 11t-11 27v1173q0 16 11 27t27 11h325h227zM645 310q134 0 216.5 85.5t82.5 229.5t-82 229t-217 85h-168v-629h168z" />
<glyph unicode="E" horiz-adv-x="1189" d="M1097 310q39 0 39 -38v-234q0 -38 -39 -38h-769h-215q-16 0 -27 11t-11 27v1173q0 16 11 27t27 11h325h639q38 0 38 -38v-234q0 -38 -38 -38h-600v-166h518q38 0 38 -39v-204q0 -37 -38 -37h-518v-183h620z" />
<glyph unicode="F" horiz-adv-x="1138" d="M1056 1249q39 0 39 -38v-234q0 -38 -39 -38h-579v-228h538q39 0 39 -38v-219q0 -38 -39 -38h-538v-378q0 -16 -11.5 -27t-27.5 -11h-325q-16 0 -27 11t-11 27v1173q0 16 11 27t27 11h325h618z" />
<glyph unicode="G" horiz-adv-x="1424" d="M1300 575q50 0 50 -45v-388q-105 -75 -255.5 -122.5t-327.5 -47.5q-195 0 -354 77t-255 227.5t-96 348.5t96 348t255 227t354 77q85 0 165 -17t154 -51t137 -91.5t107 -134.5q24 -42 -21 -63l-244 -116q-37 -17 -63 21q-88 127 -235 127q-129 0 -207.5 -90.5 t-78.5 -236.5t78.5 -237t207.5 -91q121 0 217 34v199q0 45 46 45h270z" />
<glyph unicode="H" horiz-adv-x="1447" d="M1335 1249q16 0 27 -11t11 -27v-1173q0 -16 -11 -27t-27 -11h-325q-16 0 -27.5 11t-11.5 27v439h-494v-439q0 -16 -11.5 -27t-27.5 -11h-325q-16 0 -27 11t-11 27v1173q0 16 11 27t27 11h325q16 0 27.5 -11t11.5 -27v-424h494v424q0 16 11.5 27t27.5 11h325z" />
<glyph unicode="I" horiz-adv-x="551" d="M75 1211q0 16 11 27t27 11h325q16 0 27.5 -11t11.5 -27v-1173q0 -16 -11.5 -27t-27.5 -11h-325q-16 0 -27 11t-11 27v1173z" />
<glyph unicode="J" horiz-adv-x="1080" d="M960 1249q46 0 46 -46v-778q0 -107 -42.5 -194.5t-114.5 -143t-165 -85.5t-196 -30q-90 0 -171 23t-136.5 59t-93 73.5t-54.5 72.5q-21 43 21 62l226 105q21 9 34 5t28 -25q26 -34 54.5 -53t76.5 -19q64 0 101 39t37 116v773q0 46 46 46h303z" />
<glyph unicode="K" horiz-adv-x="1425" d="M438 1249q16 0 27.5 -11t11.5 -27v-1173q0 -16 -11.5 -27t-27.5 -11h-325q-16 0 -27 11t-11 27v1173q0 16 11 27t27 11h325zM1401 55q16 -24 7.5 -39.5t-36.5 -15.5h-356q-35 0 -54 29l-431 606l433 586q18 28 55 28h333q28 0 36.5 -16t-8.5 -39l-411 -541z" />
<glyph unicode="L" horiz-adv-x="1102" d="M1039 326q38 0 38 -39v-249q0 -38 -38 -38h-713h-213q-16 0 -27 11t-11 27v1173q0 16 11 27t27 11h325q16 0 27.5 -11t11.5 -27v-885h562z" />
<glyph unicode="M" horiz-adv-x="1637" d="M1300 1230q20 24 58 24h159q46 0 46 -45v-1163q0 -46 -46 -46h-310q-46 0 -46 46v484l-310 -372q-14 -16 -32.5 -16t-32.5 16l-309 372v-484q0 -46 -46 -46h-310q-46 0 -46 46v1163q0 45 46 45h145q35 0 57 -25l496 -583z" />
<glyph unicode="N" horiz-adv-x="1453" d="M1333 1249q45 0 45 -46v-1163q0 -45 -45 -45h-106q-35 0 -57 18l-693 579v-546q0 -46 -46 -46h-310q-46 0 -46 46v1163q0 45 46 45h105q35 0 57 -18l694 -582v549q0 46 45 46h311z" />
<glyph unicode="O" horiz-adv-x="1534" d="M767 1277q196 0 355.5 -77t255.5 -227t96 -348q0 -149 -56 -273t-152 -206.5t-224.5 -128t-274.5 -45.5q-195 0 -354 77t-255 227.5t-96 348.5t96 348t255 227t354 77zM767 297q129 0 208 91t79 237q0 145 -79 236t-208 91t-207.5 -90.5t-78.5 -236.5t78.5 -237 t207.5 -91z" />
<glyph unicode="P" horiz-adv-x="1246" d="M698 1249q124 0 224 -34.5t164.5 -94.5t99 -139.5t34.5 -171.5q0 -191 -138.5 -315t-383.5 -124h-221v-332q0 -16 -11.5 -27t-27.5 -11h-325q-16 0 -27 11t-11 27v1173q0 16 11 27t27 11h325h260zM627 665q93 0 137 41.5t44 102.5t-44 103t-137 42h-150v-289h150z" />
<glyph unicode="Q" horiz-adv-x="1534" d="M1332 -54q35 -2 35 -37v-217q0 -38 -42 -38q-156 0 -275 88t-164 238q-61 -8 -119 -8q-195 0 -354 77t-255 227.5t-96 348.5t96 348t255 227t354 77q196 0 355.5 -77t255.5 -227t96 -348q0 -195 -91.5 -341.5t-248.5 -227.5q32 -53 85.5 -80.5t112.5 -29.5zM481 625 q0 -146 78.5 -237t207.5 -91t208 91t79 237q0 145 -79 236t-208 91t-207.5 -90.5t-78.5 -236.5z" />
<glyph unicode="R" horiz-adv-x="1276" d="M1221 84q17 -32 1.5 -58t-51.5 -26h-312q-25 0 -37 23l-189 361h-156v-346q0 -16 -11.5 -27t-27.5 -11h-325q-16 0 -27 11t-11 27v1173q0 16 11 27t27 11h325h247q247 0 384.5 -121t137.5 -311q0 -113 -50.5 -205.5t-146.5 -149.5zM477 954v-275h129q189 0 189 138 q0 137 -189 137h-129z" />
<glyph unicode="S" horiz-adv-x="1192" d="M500 916q0 -21 21.5 -38.5t58 -30.5t84 -26t99.5 -30t104 -37.5t99.5 -52.5t84 -71.5t58 -98t21.5 -129.5q0 -86 -31.5 -157t-85.5 -119.5t-128 -81.5t-157.5 -48.5t-175.5 -15.5q-253 0 -466 112q-36 22 -18 63l88 195q18 40 56 22q73 -33 107.5 -47t95.5 -28t125 -14 q163 0 163 75q0 31 -33.5 54t-86.5 40.5t-118 36t-129.5 48.5t-117.5 70.5t-86.5 108.5t-33.5 156q0 185 140.5 295t386.5 110q141 0 258.5 -32t185.5 -71q38 -21 20 -61l-81 -177q-19 -43 -65 -21t-76.5 35t-92.5 29t-118 16q-80 0 -118 -23t-38 -56z" />
<glyph unicode="T" horiz-adv-x="1285" d="M1203 1249q16 0 27 -11t11 -27v-249q0 -16 -11 -27t-27 -11h-360v-886q0 -16 -11 -27t-27 -11h-325q-16 0 -27.5 11t-11.5 27v886h-359q-16 0 -27 11t-11 27v249q0 16 11 27t27 11h723h398z" />
<glyph unicode="U" horiz-adv-x="1427" d="M1314 1249q16 0 27.5 -11t11.5 -27v-679q0 -139 -48.5 -245.5t-135.5 -173t-202 -100t-253 -33.5t-253 33.5t-202 100t-135.5 173t-48.5 245.5v679q0 16 11 27t27 11h325q16 0 27.5 -11t11.5 -27v-592q0 -314 237 -314t237 314v592q0 16 11 27t27 11h325z" />
<glyph unicode="V" horiz-adv-x="1418" d="M1370 1249q25 0 35.5 -14t-0.5 -39l-525 -1167q-16 -34 -53 -34h-224q-37 0 -53 34l-539 1167q-11 25 -0.5 39t35.5 14h340q38 0 52 -36l293 -704l274 704q13 36 53 36h312z" />
<glyph unicode="W" horiz-adv-x="1902" d="M1855 1249q52 0 35 -53l-387 -1167q-10 -34 -53 -34h-223q-41 0 -53 34l-224 655l-224 -655q-12 -34 -53 -34h-224q-43 0 -53 34l-386 1167q-17 53 35 53h331q42 0 52 -36l177 -629l191 547q11 36 52 36h212q41 0 53 -36l184 -547l190 629q11 36 52 36h316z" />
<glyph unicode="X" horiz-adv-x="1444" d="M1393 55q17 -23 8.5 -39t-36.5 -16h-364q-33 0 -55 28l-246 325l-214 -325q-18 -28 -54 -28h-336q-29 0 -37 16.5t9 39.5l413 587l-416 551q-17 23 -9.5 39t36.5 16h364q33 0 54 -27l236 -312l222 312q19 27 54 27h337q28 0 36 -16.5t-9 -39.5l-425 -567z" />
<glyph unicode="Y" horiz-adv-x="1379" d="M1330 1249q26 0 37 -15.5t-1 -37.5l-473 -798v-360q0 -16 -11 -27t-26 -11h-326q-16 0 -27 11t-11 27v359l-480 799q-13 22 -2 37.5t37 15.5h347q32 0 51 -36l264 -477l249 477q16 36 53 36h319z" />
<glyph unicode="Z" horiz-adv-x="1328" d="M75 0q-46 0 -46 46v80q0 32 20 57l599 741h-530q-16 0 -27 11t-11 27v249q0 16 11 27t27 11h1097q46 0 46 -46v-80q0 -34 -18 -57l-594 -740h589q16 0 27 -11.5t11 -27.5v-249q0 -16 -11 -27t-27 -11h-1163z" />
<glyph unicode="[" horiz-adv-x="578" d="M503 1178h-229v-1381h229q46 0 46 -45v-80q0 -46 -46 -46h-358h-32q-16 0 -27 11.5t-11 27.5v1645q0 16 11 27.5t27 11.5h123h267q46 0 46 -46v-79q0 -46 -46 -46z" />
<glyph unicode="\" horiz-adv-x="826" d="M189 1363l626 -1341q7 -14 1 -29t-20 -22l-111 -52q-13 -6 -28.5 -0.5t-22.5 19.5l-625 1340q-7 14 -1.5 29.5t19.5 22.5l111 52q14 7 29 1t22 -20z" />
<glyph unicode="]" horiz-adv-x="578" d="M465 1349q16 0 27 -11.5t11 -27.5v-1645q0 -16 -11 -27.5t-27 -11.5h-122h-268q-46 0 -46 46v80q0 45 46 45h229v1381h-229q-46 0 -46 46v79q0 46 46 46h358h32z" />
<glyph unicode="^" horiz-adv-x="902" d="M884 973q19 -27 5 -52t-46 -25h-168q-19 0 -28 16l-197 316l-197 -316q-9 -16 -28 -16h-169q-32 0 -45.5 25t4.5 52l303 446q9 15 28 15h208q19 0 28 -15z" />
<glyph unicode="_" horiz-adv-x="884" d="M46 -260q-46 0 -46 46v168q0 46 46 46h793q46 0 46 -46v-168q0 -46 -46 -46h-793z" />
<glyph unicode="`" horiz-adv-x="560" d="M464 1056l-413 166q-19 7 -24.5 25t3.5 37l73 149q8 18 26 24t36 -3l381 -226q17 -10 24 -28t-1 -36l-42 -87q-19 -37 -63 -21z" />
<glyph unicode="a" horiz-adv-x="1065" d="M1028 89q16 -47 -30 -60l-221 -58q-36 -10 -58 13q-48 48 -78 114q-111 -126 -287 -126q-147 0 -230 85t-83 201q0 76 34.5 140t106 111t179.5 62t255 -7v5q0 74 -36 103.5t-124 29.5q-98 0 -217 -43q-43 -14 -60 24l-73 154q-18 40 22 61q76 40 190.5 66t228.5 26 q438 0 438 -403v-257q0 -54 6 -98t13.5 -70t23.5 -73zM473 219q57 0 100 43t43 104v10q-82 21 -134 14t-76 -29.5t-24 -58.5q0 -37 25.5 -60t65.5 -23z" />
<glyph unicode="b" d="M720 990q204 0 325 -141.5t121 -367.5t-121 -367.5t-325 -141.5q-170 0 -261 132v-66q0 -38 -38 -38h-308q-38 0 -38 38v1234q0 39 38 39h308q38 0 38 -39v-415q91 133 261 133zM609 275q71 0 117 54t46 152t-46 152t-117 54q-72 0 -117.5 -54.5t-45.5 -151.5 t45.5 -151.5t117.5 -54.5z" />
<glyph unicode="c" horiz-adv-x="1092" d="M1018 262q41 -20 21 -62q-17 -35 -51.5 -71.5t-88 -73t-134 -60t-172.5 -23.5q-108 0 -205 33.5t-172 96.5t-119.5 161t-44.5 218t44.5 218t119.5 161t172 96.5t205 33.5q92 0 172 -23t134 -60t88.5 -73.5t51.5 -71.5q20 -42 -21 -62l-214 -106q-15 -10 -28 -6.5t-19.5 9 t-15.5 18.5q-24 35 -51.5 53.5t-74.5 18.5q-80 0 -124.5 -53t-44.5 -153t44.5 -153t124.5 -53q47 0 74.5 18.5t51.5 53.5q14 20 24.5 24.5t38.5 -4.5z" />
<glyph unicode="d" d="M1104 1311q39 0 39 -39v-1234q0 -38 -39 -38h-307q-38 0 -38 38v66q-91 -132 -262 -132q-204 0 -324.5 141.5t-120.5 367.5t120.5 367.5t324.5 141.5q171 0 262 -133v415q0 39 38 39h307zM609 275q72 0 117.5 54.5t45.5 151.5t-45.5 151.5t-117.5 54.5q-71 0 -117 -54 t-46 -152t46 -152t117 -54z" />
<glyph unicode="e" horiz-adv-x="1161" d="M1019 249q41 -21 20 -63q-44 -88 -168 -151t-280 -63q-113 0 -211 33.5t-171 96.5t-115 160.5t-42 218.5t43 218.5t117.5 160.5t173.5 96.5t212 33.5q85 0 159.5 -20t139.5 -63.5t112 -107t74 -157t27 -207.5h-697q14 -93 67.5 -138t120.5 -45q111 0 158 73 q15 21 26.5 26t35.5 -5zM592 742q-59 0 -103 -34t-65 -99h318q-34 133 -150 133z" />
<glyph unicode="f" horiz-adv-x="863" d="M661 1112q-54 0 -80.5 -35.5t-26.5 -114.5h240q45 0 45 -46v-204q0 -45 -45 -45h-240v-621q0 -46 -46 -46h-292q-46 0 -46 46v621h-92q-46 0 -46 45v204q0 46 46 46h92v49q0 178 110.5 278.5t282.5 100.5q94 0 175.5 -28t133.5 -64q17 -13 21 -23.5t-5 -39.5l-64 -130 q-18 -40 -63 -20q-54 27 -100 27z" />
<glyph unicode="g" horiz-adv-x="1171" d="M1117 1056q31 0 31 -29v-225q0 -27 -26 -27q-56 0 -95 -31q10 -33 10 -70q0 -136 -126.5 -225.5t-334.5 -89.5h-137q-77 0 -77 -49t77 -49h248q210 0 325 -80t115 -220q0 -54 -16.5 -101t-55 -89t-96.5 -72t-145.5 -47.5t-197.5 -17.5q-251 0 -381 74.5t-130 201.5 q0 92 76 156q-57 31 -89.5 81t-32.5 112q0 69 41 124.5t116 86.5q-100 85 -100 204q0 136 126.5 226t333.5 90q169 0 288 -62q93 128 253 128zM576 579q55 0 91 26t36 69t-36 69.5t-91 26.5t-90.5 -26t-35.5 -70q0 -43 35.5 -69t90.5 -26zM792 -70q0 80 -176 80 q-175 0 -175 -80q0 -81 175 -81q176 0 176 81z" />
<glyph unicode="h" horiz-adv-x="1191" d="M793 982q324 0 324 -350v-594q0 -38 -38 -38h-308q-38 0 -38 38v469q0 88 -29.5 126.5t-89.5 38.5q-69 0 -112 -50t-43 -141v-443q0 -38 -39 -38h-307q-38 0 -38 38v1234q0 39 38 39h307q39 0 39 -39v-454q48 76 133 120t201 44z" />
<glyph unicode="i" horiz-adv-x="533" d="M267 1043q-82 0 -140 58t-58 141t58 141t140 58q83 0 141 -58.5t58 -140.5t-58 -140.5t-141 -58.5zM75 924q0 38 38 38h307q39 0 39 -38v-886q0 -38 -39 -38h-307q-38 0 -38 38v886z" />
<glyph unicode="j" horiz-adv-x="534" d="M267 1043q-82 0 -140 58t-58 141t58 141t140 58q83 0 141 -58.5t58 -140.5t-58 -140.5t-141 -58.5zM421 962q39 0 39 -38v-838q0 -435 -476 -435q-18 0 -29.5 11t-11.5 29v197q0 29 34 38q23 6 36.5 12.5t30 24t24.5 51t8 84.5v826q0 38 38 38h307z" />
<glyph unicode="k" horiz-adv-x="1188" d="M75 1272q0 39 38 39h307q39 0 39 -39v-1234q0 -38 -39 -38h-307q-38 0 -38 38v1234zM794 0q-40 0 -55 31l-255 476l234 425q15 30 56 30h312q27 0 34.5 -16.5t-5.5 -38.5l-237 -390l269 -462q13 -25 5 -40t-35 -15h-323z" />
<glyph unicode="l" horiz-adv-x="533" d="M75 1272q0 39 38 39h307q39 0 39 -39v-1234q0 -38 -39 -38h-307q-38 0 -38 38v1234z" />
<glyph unicode="m" horiz-adv-x="1798" d="M1410 982q313 0 313 -365v-571q0 -46 -46 -46h-292q-46 0 -46 46v461q0 165 -108 165q-60 0 -100 -51t-40 -147v-428q0 -46 -46 -46h-292q-46 0 -46 46v461q0 165 -108 165q-59 0 -99.5 -51t-40.5 -147v-436q0 -38 -39 -38h-307q-38 0 -38 38v886q0 38 38 38h307 q39 0 39 -38v-106q119 164 318 164q229 0 292 -196q122 196 341 196z" />
<glyph unicode="n" horiz-adv-x="1191" d="M793 982q324 0 324 -350v-594q0 -38 -38 -38h-308q-38 0 -38 38v469q0 88 -29.5 126.5t-89.5 38.5q-69 0 -112 -50t-43 -141v-443q0 -38 -39 -38h-307q-38 0 -38 38v886q0 38 38 38h307q39 0 39 -38v-106q48 76 133 120t201 44z" />
<glyph unicode="o" d="M609 990q114 0 214 -33.5t177 -96.5t121.5 -161t44.5 -218t-44.5 -218t-121.5 -161t-177 -96.5t-214 -33.5t-214 33.5t-177 96.5t-121.5 161t-44.5 218t44.5 218t121.5 161t177 96.5t214 33.5zM609 275q71 0 117 54t46 152t-46 152t-117 54t-117 -54t-46 -152t46 -152 t117 -54z" />
<glyph unicode="p" d="M720 990q204 0 325 -141.5t121 -367.5t-121 -367.5t-325 -141.5q-170 0 -261 132v-415q0 -38 -38 -38h-308q-38 0 -38 38v1234q0 39 38 39h308q38 0 38 -39v-66q91 133 261 133zM609 275q71 0 117 54t46 152t-46 152t-117 54q-72 0 -117.5 -54.5t-45.5 -151.5 t45.5 -151.5t117.5 -54.5z" />
<glyph unicode="q" d="M1104 961q39 0 39 -38v-1234q0 -39 -39 -39h-307q-38 0 -38 39v415q-91 -133 -262 -133q-204 0 -324.5 141.5t-120.5 367.5t120.5 367.5t324.5 141.5q171 0 262 -132v66q0 38 38 38h307zM609 274q72 0 117.5 54.5t45.5 151.5t-45.5 151.5t-117.5 54.5q-71 0 -117 -54 t-46 -152t46 -152t117 -54z" />
<glyph unicode="r" horiz-adv-x="763" d="M688 978q43 0 43 -37v-320q0 -18 -9 -25t-27 -12q-34 -7 -59.5 -14.5t-61.5 -26.5t-58.5 -44t-39.5 -68t-17 -98v-295q0 -38 -39 -38h-307q-38 0 -38 38v886q0 38 38 38h307q39 0 39 -38v-147q33 93 101 147t128 54z" />
<glyph unicode="s" horiz-adv-x="1015" d="M470 698q0 -19 21 -34.5t56 -26t79.5 -24.5t90.5 -28.5t90.5 -39.5t79.5 -56.5t56 -81t21 -110.5q0 -107 -64 -181.5t-169 -109t-242 -34.5q-122 0 -235.5 26t-174.5 65q-38 24 -22 61l72 152q20 45 61 25q79 -38 135.5 -55.5t126.5 -17.5q102 0 102 46q0 21 -26.5 37.5 t-68 29.5t-92.5 28t-102 38.5t-92.5 55.5t-68 84.5t-26.5 120.5q0 149 119 235.5t320 86.5q113 0 217.5 -26.5t166.5 -65.5q39 -25 22 -61l-63 -136q-20 -44 -60 -23q-119 67 -233 67q-97 0 -97 -47z" />
<glyph unicode="t" horiz-adv-x="946" d="M913 126q16 -39 -19 -61q-79 -46 -158.5 -69.5t-182.5 -23.5q-168 0 -270 94t-102 254v347h-103q-46 0 -46 45v204q0 46 46 46h103v125q0 39 46 54l286 83q24 7 38 -1.5t14 -29.5v-231h254q46 0 46 -46v-204q0 -45 -46 -45h-254v-251q0 -74 23.5 -111.5t79.5 -37.5 q47 0 110 34q43 24 63 -20z" />
<glyph unicode="u" horiz-adv-x="1191" d="M1078 962q39 0 39 -38v-886q0 -38 -39 -38h-307q-38 0 -38 38v105q-48 -76 -132.5 -119.5t-201.5 -43.5q-324 0 -324 350v593q0 39 38 39h307q39 0 39 -39v-468q0 -88 29 -126.5t89 -38.5q70 0 113 50t43 141v443q0 38 38 38h307z" />
<glyph unicode="v" horiz-adv-x="1189" d="M1129 962q32 0 48.5 -25t2.5 -53l-422 -858q-15 -31 -48 -31h-230q-33 0 -48 31l-423 858q-14 29 2 53.5t49 24.5h331q28 0 39 -27l175 -448l174 448q10 27 38 27h312z" />
<glyph unicode="w" horiz-adv-x="1620" d="M1563 962q31 0 46 -24t4 -53l-323 -858q-13 -32 -46 -32h-184q-35 0 -48 31l-202 452l-201 -452q-13 -31 -48 -31h-184q-34 0 -46 32l-324 858q-11 29 4.5 53t46.5 24h306q31 0 38 -28l128 -407l137 338q12 32 50 32h187q38 0 50 -32l137 -338l129 407q7 28 37 28h306z " />
<glyph unicode="x" horiz-adv-x="1190" d="M810 487l330 -430q17 -23 8.5 -40t-36.5 -17h-354q-34 0 -55 28l-136 183l-127 -182q-20 -29 -55 -29h-312q-28 0 -36.5 17t9.5 39l324 418l-323 433q-17 23 -9.5 39t36.5 16h339q33 0 55 -28l138 -180l127 179q20 29 55 29h327q28 0 36.5 -17t-9.5 -40z" />
<glyph unicode="y" horiz-adv-x="1158" d="M1099 962q32 0 48.5 -24t2.5 -54l-364 -760q-66 -138 -124 -223t-135 -144t-172 -82.5t-230 -23.5q-18 0 -29.5 11t-11.5 29v197q0 34 35 38q91 11 148.5 55t124.5 159l-383 744q-15 29 1.5 53.5t49.5 24.5h323q25 0 39 -27l171 -374l164 374q12 27 39 27h303z" />
<glyph unicode="z" horiz-adv-x="1102" d="M75 0q-46 0 -46 45v21q0 31 18 56l399 537h-313q-15 0 -26.5 11t-11.5 27v227q0 15 11.5 26.5t26.5 11.5h856q46 0 46 -44v-22q0 -29 -18 -56l-417 -552h392q16 0 27 -11.5t11 -27.5v-211q0 -16 -11 -27t-27 -11h-917z" />
<glyph unicode="{" horiz-adv-x="493" d="M433 1191q-50 -11 -69.5 -44t-19.5 -86q0 -36 22.5 -159t22.5 -176q0 -197 -157 -239q157 -42 157 -238q0 -53 -22.5 -176t-22.5 -159q0 -53 19.5 -86t69.5 -44q31 -8 31 -35v-84q0 -17 -11 -28t-28 -10q-145 6 -218.5 66.5t-73.5 205.5q0 55 22.5 174.5t22.5 161.5 q0 85 -31 127t-90 57q-28 7 -28 34v69q0 27 28 35q59 14 90 56t31 127q0 42 -22.5 161.5t-22.5 174.5q0 145 73.5 206.5t218.5 65.5q16 1 27.5 -10t11.5 -28v-84q0 -28 -31 -35z" />
<glyph unicode="|" horiz-adv-x="348" d="M75 1467q0 16 11 27t27 11h123q16 0 27 -11t11 -27v-1685q0 -16 -11 -27t-27 -11h-123q-16 0 -27 11t-11 27v1685z" />
<glyph unicode="}" horiz-adv-x="493" d="M436 557q28 -8 28 -35v-69q0 -27 -28 -34q-59 -15 -90 -57t-31 -127q0 -42 22.5 -161.5t22.5 -174.5q0 -145 -73.5 -205.5t-218.5 -66.5q-17 -1 -28 10t-11 28v84q0 27 31 35q50 11 69.5 44t19.5 86q0 36 -22.5 159t-22.5 176q0 196 157 238q-157 42 -157 239 q0 53 22.5 176t22.5 159q0 53 -19.5 86t-69.5 44q-31 7 -31 35v84q0 17 11.5 28t27.5 10q145 -4 218.5 -65.5t73.5 -206.5q0 -55 -22.5 -174.5t-22.5 -161.5q0 -85 31 -127t90 -56z" />
<glyph unicode="~" horiz-adv-x="1185" d="M1080 688q25 -13 17 -41q-40 -131 -123 -197.5t-176 -66.5q-69 0 -130 18t-98 39t-86 39t-96 18q-94 0 -155 -87q-22 -29 -51 -13l-77 43q-24 14 -16 42q39 131 122 197t177 66q69 0 130 -17.5t98 -39t86 -39t96 -17.5q91 0 154 87q10 13 24 17t28 -4z" />
<glyph unicode="&#xa1;" horiz-adv-x="546" d="M274 990q80 0 136 -56t56 -136t-56 -136t-136 -56t-136 56t-56 136t56 136t136 56zM81 -242l45 739q3 38 38 38h218q36 0 39 -38l44 -739q3 -38 -38 -38h-307q-19 0 -29.5 10t-9.5 28z" />
<glyph unicode="&#xa2;" horiz-adv-x="1092" d="M1018 262q41 -20 21 -62q-30 -64 -114 -128t-207 -88v-202q0 -16 -11 -27t-27 -11h-198q-16 0 -27.5 11t-11.5 27v207q-173 41 -282 169t-109 323t109 323t282 169v211q0 16 11.5 27.5t27.5 11.5h198q16 0 27 -11.5t11 -27.5v-207q123 -24 206.5 -88t114.5 -127 q20 -42 -21 -62l-214 -106q-15 -10 -28 -6.5t-19.5 9t-15.5 18.5q-24 35 -51.5 53.5t-74.5 18.5q-80 0 -124.5 -53t-44.5 -153t44.5 -153t124.5 -53q47 0 74.5 18.5t51.5 53.5q14 20 24.5 24.5t38.5 -4.5z" />
<glyph unicode="&#xa3;" horiz-adv-x="1189" d="M1089 273q23 6 40 -6t17 -36v-202q0 -13 -9.5 -23.5t-24.5 -13.5q-118 -24 -212.5 -20.5t-195 15.5t-183 25t-175.5 9t-173 -32q-15 -6 -30 -0.5t-20 20.5l-52 142q-7 17 3 31q72 109 96.5 186t17.5 144h-120q-17 0 -28 11t-11 28v121q0 17 11 28t28 11h72 q-19 81 -19 165q0 182 128.5 291.5t354.5 109.5q314 0 530 -205q13 -13 19 -21.5t5 -21.5t-13 -27l-115 -136q-11 -14 -19 -20.5t-21 -9.5t-25 9q-51 40 -84 62t-87 43t-108 21q-77 0 -120 -35.5t-43 -104.5q0 -52 11 -120h238q17 0 28.5 -11t11.5 -28v-121q0 -17 -11.5 -28 t-28.5 -11h-210q-5 -126 -136 -243q85 25 175.5 23.5t157.5 -16.5t157 -19.5t173 16.5z" />
<glyph unicode="&#xa4;" horiz-adv-x="1546" d="M1452 92q17 -11 18 -30.5t-13 -33.5l-126 -126q-14 -14 -33 -12.5t-31 17.5l-135 192q-157 -119 -359 -119t-359 119l-135 -192q-12 -16 -30.5 -17.5t-32.5 12.5l-127 126q-14 14 -12.5 33.5t18.5 30.5l194 136q-107 149 -107 335t107 335l-194 136q-17 11 -18.5 30 t12.5 33l127 127q14 14 32.5 12.5t30.5 -17.5l135 -192q157 119 359 119t359 -119l135 192q12 16 31 17.5t33 -12.5l126 -127q14 -14 13 -33t-18 -30l-195 -136q107 -149 107 -335t-107 -335zM773 264q122 0 203.5 83.5t81.5 215.5t-81 215t-204 83t-204 -83t-81 -215 t81.5 -215.5t203.5 -83.5z" />
<glyph unicode="&#xa5;" horiz-adv-x="1379" d="M1330 1249q26 0 37 -15.5t-1 -37.5l-341 -577h90q46 0 46 -46v-93q0 -46 -46 -46h-200l-22 -36v-35h222q46 0 46 -46v-93q0 -46 -46 -46h-222v-140q0 -16 -11 -27t-26 -11h-326q-16 0 -27 11t-11 27v140h-230q-46 0 -46 46v93q0 46 46 46h230v34l-22 37h-208 q-46 0 -46 46v93q0 46 46 46h97l-347 577q-13 22 -2 37.5t37 15.5h347q32 0 51 -36l264 -477l249 477q16 36 53 36h319z" />
<glyph unicode="&#xa6;" horiz-adv-x="348" d="M75 1467q0 16 11 27t27 11h123q16 0 27 -11t11 -27v-545q0 -16 -11 -27t-27 -11h-123q-16 0 -27 11t-11 27v545zM75 327q0 16 11 27.5t27 11.5h123q16 0 27 -11.5t11 -27.5v-545q0 -16 -11 -27t-27 -11h-123q-16 0 -27 11t-11 27v545z" />
<glyph unicode="&#xa7;" horiz-adv-x="1254" d="M1116 152q76 -82 76 -207q0 -129 -74 -225t-202.5 -146t-292.5 -50q-236 0 -381 103.5t-180 299.5q-4 19 8 32.5t32 13.5h240q28 0 36 -29q44 -166 245 -166q99 0 167.5 40t68.5 108q0 29 -18.5 53t-62 46.5t-79 36.5t-104.5 38q-63 22 -97 34.5t-95.5 39.5t-94.5 48.5 t-80.5 58.5t-69.5 73.5t-43.5 89t-20.5 110t16.5 131.5t51.5 157q-78 83 -78 206q0 184 150.5 295t396.5 111q230 0 374 -101t180 -287q4 -19 -8 -33t-32 -14h-239q-27 0 -36 29q-46 151 -239 151q-96 0 -155 -39.5t-59 -108.5q0 -29 18 -51.5t63 -43.5t78.5 -33t105.5 -35 q64 -20 98 -31.5t96.5 -36.5t96.5 -45.5t81.5 -56.5t70 -72t44 -88.5t20 -110.5t-18 -133.5t-54.5 -161.5zM393 707q-14 -81 8 -140.5t88 -103t117.5 -66t155.5 -59.5q88 -31 130 -48q6 51 -2.5 94.5t-26 75.5t-51 61t-65 48t-81 39.5t-87 33.5t-94.5 32.5t-92 32.5z" />
<glyph unicode="&#xa8;" horiz-adv-x="898" d="M221 1074q-71 0 -120.5 50t-49.5 120t49.5 120t120.5 50t120.5 -50t49.5 -120t-49.5 -120t-120.5 -50zM678 1074q-70 0 -120 50t-50 120t50 120t120 50q71 0 121 -50t50 -120t-50 -120t-121 -50z" />
<glyph unicode="&#xa9;" horiz-adv-x="1393" d="M697 1260q173 0 319 -85t231 -231t85 -319t-85 -319t-231 -231t-319 -85t-319 85t-231 231t-85 319t85 319t231 231t319 85zM697 101q142 0 262 70t190 191t70 263t-70 263t-190 191t-262 70t-262 -70t-190 -191t-70 -263t70 -263t190 -191t262 -70zM712 805 q-71 0 -114.5 -50.5t-43.5 -130.5t43.5 -130.5t114.5 -50.5q86 0 133 80q14 22 34 12l135 -64q23 -11 11 -35q-44 -86 -129 -129t-184 -43q-166 0 -277.5 98t-111.5 262t111.5 262.5t277.5 98.5q99 0 184 -43.5t129 -129.5q12 -22 -11 -34l-135 -65q-20 -10 -34 12 q-47 80 -133 80z" />
<glyph unicode="&#xab;" horiz-adv-x="1083" d="M456 836q27 20 52.5 7.5t25.5 -46.5v-119q0 -14 -15 -27l-200 -171l200 -171q15 -13 15 -27v-119q0 -33 -25.5 -46.5t-52.5 6.5l-356 264q-13 10 -13 26v134q0 15 13 25zM997 678q0 -14 -15 -27l-200 -171l200 -171q15 -13 15 -27v-119q0 -33 -25.5 -46.5t-52.5 6.5 l-356 264q-13 10 -13 26v134q0 15 13 25l356 264q27 20 52.5 7.5t25.5 -46.5v-119z" />
<glyph unicode="&#xac;" horiz-adv-x="1123" d="M990 695q46 0 46 -45v-168v-225q0 -39 -38 -39h-187q-38 0 -38 39v179h-640q-46 0 -46 46v168q0 45 46 45h857z" />
<glyph unicode="&#xad;" horiz-adv-x="1058" d="M133 329q-46 0 -46 46v204q0 45 46 45h793q46 0 46 -45v-204q0 -46 -46 -46h-793z" />
<glyph unicode="&#xae;" horiz-adv-x="1393" d="M697 1260q173 0 319 -85t231 -231t85 -319t-85 -319t-231 -231t-319 -85t-319 85t-231 231t-85 319t85 319t231 231t319 85zM697 101q142 0 262 70t190 191t70 263t-70 263t-190 191t-262 70t-262 -70t-190 -191t-70 -263t70 -263t190 -191t262 -70zM921 535l116 -209 q10 -18 1.5 -32.5t-28.5 -14.5h-172q-14 0 -21 13l-104 199h-87v-191q0 -8 -6 -14.5t-15 -6.5h-180q-9 0 -15 6.5t-6 14.5v648q0 8 6 14.5t15 6.5h180h136q136 0 212.5 -67t76.5 -172q0 -131 -109 -195zM626 806v-152h72q104 0 104 76t-104 76h-72z" />
<glyph unicode="&#xaf;" horiz-adv-x="694" d="M-5 1279q0 20 13 33t32 13h614q19 0 32.5 -13.5t13.5 -32.5v-125q0 -19 -13.5 -32.5t-32.5 -13.5h-614q-19 0 -32 13t-13 33v125z" />
<glyph unicode="&#xb0;" horiz-adv-x="587" d="M292 786q-117 0 -201.5 80.5t-84.5 194.5q0 115 85 196.5t201 81.5t202 -81.5t86 -196.5q0 -114 -85.5 -194.5t-202.5 -80.5zM292 983q33 0 55.5 23t22.5 55q0 34 -22.5 58t-55.5 24t-54.5 -24t-21.5 -58q0 -32 21.5 -55t54.5 -23z" />
<glyph unicode="&#xb1;" horiz-adv-x="1123" d="M990 915q46 0 46 -46v-168q0 -46 -46 -46h-299v-298q0 -46 -45 -46h-168q-46 0 -46 46v298h-299q-46 0 -46 46v168q0 46 46 46h299v299q0 46 46 46h168q45 0 45 -46v-299h299zM990 260q46 0 46 -46v-168q0 -46 -46 -46h-857q-46 0 -46 46v168q0 46 46 46h857z" />
<glyph unicode="&#xb4;" horiz-adv-x="560" d="M96 1056q-44 -16 -63 21l-42 87q-8 18 -1 36t24 28l382 226q18 9 35.5 3t25.5 -24l74 -149q9 -19 3 -37t-25 -25z" />
<glyph unicode="&#xb6;" horiz-adv-x="1139" d="M1027 1249q16 0 27 -11t11 -27v-1429q0 -16 -11 -27t-27 -11h-31q-16 0 -27.5 11t-11.5 27v1361h-442v-1361q0 -16 -11 -27t-27 -11h-31q-16 0 -27 11t-11 27v701q-146 14 -246 123.5t-100 258.5q0 159 112.5 271.5t271.5 112.5h550h31z" />
<glyph unicode="&#xb7;" horiz-adv-x="546" d="M273 285q-83 0 -140.5 57.5t-57.5 140.5t58 141t140 58q83 0 141 -58t58 -141q0 -82 -58 -140t-141 -58z" />
<glyph unicode="&#xb8;" horiz-adv-x="1228" d="M176 -451q-92 0 -159 39q-35 22 -21 61l10 28q15 43 61 25q45 -20 76 -20q37 0 61 18.5t24 52.5q0 35 -26 50t-62 12.5t-73 -5.5q-32 -3 -43.5 7.5t-0.5 36.5l69 166h166l-43 -92q108 14 174 -31t66 -137q0 -102 -78.5 -156.5t-200.5 -54.5z" />
<glyph unicode="&#xbb;" horiz-adv-x="1083" d="M521 572q13 -10 13 -25v-134q0 -16 -13 -26l-356 -264q-27 -20 -52.5 -6.5t-25.5 46.5v119q0 14 15 27l200 171l-200 171q-15 13 -15 27v119q0 34 25.5 46.5t52.5 -7.5zM984 572q13 -10 13 -25v-134q0 -16 -13 -26l-356 -264q-27 -20 -52.5 -6.5t-25.5 46.5v119 q0 14 15 27l199 171l-199 171q-15 13 -15 27v119q0 34 25.5 46.5t52.5 -7.5z" />
<glyph unicode="&#xbc;" horiz-adv-x="1993" d="M1184 1325q7 14 22 19.5t29 -1.5l100 -47q14 -7 19.5 -21.5t-1.5 -28.5l-625 -1342q-7 -14 -22.5 -19.5t-28.5 1.5l-100 46q-15 7 -20.5 22.5t1.5 29.5zM565 1227q10 0 17 -7.5t7 -17.5v-771q0 -10 -7 -17.5t-17 -7.5h-215q-10 0 -17 7t-7 18v565l-120 -55 q-23 -10 -33 12l-64 139q-12 24 12 34l212 94q17 7 36 7h196zM1935 334q30 0 30 -30v-109q0 -30 -30 -30h-92v-140q0 -11 -7.5 -18t-17.5 -7h-189q-11 0 -18 7t-7 18v140h-404q-31 0 -31 30v77q0 6 5 13l410 519q14 17 35 17h199q10 0 17.5 -7.5t7.5 -17.5v-462h92z M1427 334h177v224z" />
<glyph unicode="&#xbd;" horiz-adv-x="2009" d="M1335 1296q14 -7 19.5 -21.5t-1.5 -28.5l-625 -1342q-7 -14 -22.5 -19.5t-28.5 1.5l-100 46q-15 7 -20.5 22.5t1.5 29.5l626 1341q7 14 22 19.5t29 -1.5zM589 431q0 -10 -7 -17.5t-17 -7.5h-215q-10 0 -17 7t-7 18v565l-120 -55q-23 -10 -33 12l-64 139q-12 24 12 34 l212 94q17 7 36 7h196q10 0 17 -7.5t7 -17.5v-771zM1955 186q10 0 17.5 -7.5t7.5 -18.5v-138q0 -11 -7.5 -18.5t-17.5 -7.5h-632q-30 0 -30 31v52q0 29 13 38q228 165 310.5 262.5t82.5 164.5q0 91 -100 91q-35 0 -71.5 -14.5t-56 -28t-55.5 -40.5q-19 -15 -42 14l-76 89 q-19 22 7 46q142 135 349 135q148 0 228.5 -71t80.5 -192q0 -205 -273 -387h265z" />
<glyph unicode="&#xbe;" horiz-adv-x="2142" d="M1299 1325q7 14 22.5 19.5t29.5 -1.5l100 -47q14 -7 19.5 -21.5t-1.5 -28.5l-625 -1342q-7 -14 -22.5 -19.5t-28.5 1.5l-100 46q-15 7 -20.5 22.5t1.5 29.5zM621 830q152 -62 152 -199q0 -113 -98 -178t-257 -65q-214 0 -351 134q-13 14 -15.5 22t8.5 25l77 91 q22 27 42 13q39 -29 60.5 -43t61 -27.5t82.5 -13.5q54 0 87.5 18.5t33.5 51.5q0 36 -45 60t-124 27q-25 2 -25 26v95q0 23 25 25q75 4 112.5 28t37.5 60q0 31 -25.5 47.5t-72.5 16.5q-38 0 -76 -13t-58.5 -25t-54.5 -35q-19 -13 -43 14l-70 84q-19 22 7 46q63 61 154 96 t197 35q142 0 222 -61t80 -162q0 -128 -124 -193zM2051 334q30 0 30 -30v-109q0 -30 -30 -30h-92v-140q0 -11 -7.5 -18t-17.5 -7h-189q-11 0 -18 7t-7 18v140h-405q-30 0 -30 30v77q0 6 5 13l409 519q14 17 36 17h199q10 0 17.5 -7.5t7.5 -17.5v-462h92zM1543 334h177v224z " />
<glyph unicode="&#xbf;" horiz-adv-x="933" d="M453 990q79 0 135 -56t56 -136t-56 -136t-135 -56t-135.5 56t-56.5 136t56.5 136t135.5 56zM396 94q0 -107 136 -107q48 0 93.5 16.5t64 29t56.5 41.5q16 12 31 8.5t35 -28.5l106 -131q7 -9 8.5 -17.5t-3.5 -16.5t-10.5 -13.5t-15.5 -13.5q-200 -170 -463 -170 q-191 0 -309.5 81t-118.5 238q0 72 28.5 129t70.5 96t85 75t77.5 83.5t41.5 103.5q2 11 4.5 17.5t11 13t21.5 6.5h216q34 0 34 -50t-20.5 -97t-50 -84t-59 -71t-50 -70t-20.5 -69z" />
<glyph unicode="&#xc0;" horiz-adv-x="1435" d="M384 1509q-19 7 -25 25t3 37l74 149q8 18 26 24t36 -3l381 -225q17 -10 24 -28t-1 -36l-42 -87q-19 -37 -63 -21zM1422 54q10 -25 0.5 -39.5t-34.5 -14.5h-342q-38 0 -52 36l-64 170h-452l-64 -170q-14 -36 -53 -36h-315q-25 0 -35.5 15t-0.5 39l500 1166q13 34 53 34 h317q40 0 53 -34zM574 461h259l-130 340z" />
<glyph unicode="&#xc1;" horiz-adv-x="1435" d="M553 1365l-42 87q-8 18 -0.5 36t24.5 28l381 225q18 9 35.5 3t25.5 -24l74 -149q9 -19 3.5 -37t-24.5 -25l-414 -165q-44 -16 -63 21zM1422 54q10 -25 0.5 -39.5t-34.5 -14.5h-342q-38 0 -52 36l-64 170h-452l-64 -170q-14 -36 -53 -36h-315q-25 0 -35.5 15t-0.5 39 l500 1166q13 34 53 34h317q40 0 53 -34zM574 461h259l-130 340z" />
<glyph unicode="&#xc2;" horiz-adv-x="1435" d="M415 1357q-30 0 -37.5 17.5t13.5 39.5l216 236q24 24 57 24h123q33 0 57 -24l216 -236q21 -22 13.5 -39.5t-37.5 -17.5h-184q-35 0 -55 31l-71 108l-72 -108q-20 -31 -55 -31h-184zM1422 54q10 -25 0.5 -39.5t-34.5 -14.5h-342q-38 0 -52 36l-64 170h-452l-64 -170 q-14 -36 -53 -36h-315q-25 0 -35.5 15t-0.5 39l500 1166q13 34 53 34h317q40 0 53 -34zM574 461h259l-130 340z" />
<glyph unicode="&#xc3;" horiz-adv-x="1435" d="M393 1359q-22 0 -34 12.5t-11 35.5q11 132 78.5 204t163.5 72q43 0 78 -11t58 -26.5t43.5 -31.5t43.5 -27t48 -11q71 0 92 66q15 41 49 41h56q23 0 35.5 -19t8.5 -54q-17 -124 -82.5 -187.5t-158.5 -63.5q-52 0 -94.5 17t-64.5 37t-52 37t-60 17q-35 0 -58.5 -19 t-32.5 -47q-8 -22 -19 -32t-31 -10h-56zM1422 54q10 -25 0.5 -39.5t-34.5 -14.5h-342q-38 0 -52 36l-64 170h-452l-64 -170q-14 -36 -53 -36h-315q-25 0 -35.5 15t-0.5 39l500 1166q13 34 53 34h317q40 0 53 -34zM574 461h259l-130 340z" />
<glyph unicode="&#xc4;" horiz-adv-x="1435" d="M497 1361q-71 0 -120.5 49.5t-49.5 120.5t49.5 120.5t120.5 49.5t121 -50t50 -120t-50 -120t-121 -50zM955 1361q-71 0 -120.5 49.5t-49.5 120.5t49.5 120.5t120.5 49.5t120.5 -49.5t49.5 -120.5t-49.5 -120.5t-120.5 -49.5zM1422 54q10 -25 0.5 -39.5t-34.5 -14.5h-342 q-38 0 -52 36l-64 170h-452l-64 -170q-14 -36 -53 -36h-315q-25 0 -35.5 15t-0.5 39l500 1166q13 34 53 34h317q40 0 53 -34zM574 461h259l-130 340z" />
<glyph unicode="&#xc5;" horiz-adv-x="1421" d="M1422 54q10 -25 0.5 -39.5t-34.5 -14.5h-342q-38 0 -52 36l-64 170h-452l-64 -170q-14 -36 -53 -36h-315q-25 0 -35.5 15t-0.5 39l487 1136q-79 79 -79 188q0 115 85.5 196.5t201.5 81.5t201.5 -81.5t85.5 -196.5q0 -88 -57 -163zM705 1475q-40 0 -66 -29t-26 -68 q0 -38 26 -65.5t66 -27.5q39 0 65.5 27.5t26.5 65.5q0 39 -26.5 68t-65.5 29zM574 461h259l-130 340z" />
<glyph unicode="&#xc6;" horiz-adv-x="1938" d="M1826 310q38 0 38 -38v-234q0 -38 -38 -38h-770h-214q-16 0 -27.5 11t-11.5 27v168h-316l-85 -171q-17 -35 -58 -35h-317q-25 0 -33 15t5 40l616 1161q18 33 58 33h178h316h638q39 0 39 -38v-234q0 -38 -39 -38h-600v-166h518q39 0 39 -39v-204q0 -37 -39 -37h-518v-183 h621zM614 461h189v380z" />
<glyph unicode="&#xc7;" horiz-adv-x="1392" d="M1314 347q43 -20 20 -62q-72 -137 -200.5 -214.5t-283.5 -94.5l-22 -48q108 14 174 -31t66 -137q0 -102 -78.5 -156.5t-200.5 -54.5q-92 0 -159 39q-35 22 -21 61l9 28q15 43 62 25q45 -20 76 -20q37 0 61 18.5t24 52.5q0 35 -26 50t-62 12.5t-73 -5.5q-32 -3 -43.5 7.5 t-0.5 36.5l51 121q-132 12 -245.5 62.5t-198 132.5t-133 199.5t-48.5 255.5q0 198 96 348t255 227t354 77q179 0 332 -78.5t235 -233.5q23 -43 -20 -63l-244 -116q-38 -18 -63 21q-41 69 -103 107t-137 38q-129 0 -207.5 -90.5t-78.5 -236.5t78.5 -237t207.5 -91 q75 0 137 38t103 107q25 39 63 21z" />
<glyph unicode="&#xc8;" horiz-adv-x="1189" d="M276 1509q-19 7 -24.5 25t3.5 37l74 149q8 18 25.5 24t35.5 -3l382 -225q17 -10 24 -28t-1 -36l-42 -87q-19 -37 -63 -21zM1097 310q39 0 39 -38v-234q0 -38 -39 -38h-769h-215q-16 0 -27 11t-11 27v1173q0 16 11 27t27 11h325h639q38 0 38 -38v-234q0 -38 -38 -38h-600 v-166h518q38 0 38 -39v-204q0 -37 -38 -37h-518v-183h620z" />
<glyph unicode="&#xc9;" horiz-adv-x="1189" d="M446 1365l-42 87q-8 18 -1 36t24 28l381 225q18 9 36 3t26 -24l74 -149q9 -19 3 -37t-25 -25l-413 -165q-44 -16 -63 21zM1097 310q39 0 39 -38v-234q0 -38 -39 -38h-769h-215q-16 0 -27 11t-11 27v1173q0 16 11 27t27 11h325h639q38 0 38 -38v-234q0 -38 -38 -38h-600 v-166h518q38 0 38 -39v-204q0 -37 -38 -37h-518v-183h620z" />
<glyph unicode="&#xca;" horiz-adv-x="1189" d="M308 1357q-30 0 -37.5 17.5t13.5 39.5l216 236q24 24 57 24h122q33 0 57 -24l216 -236q21 -22 13.5 -39.5t-37.5 -17.5h-184q-35 0 -55 31l-71 108l-71 -108q-20 -31 -55 -31h-184zM1097 310q39 0 39 -38v-234q0 -38 -39 -38h-769h-215q-16 0 -27 11t-11 27v1173 q0 16 11 27t27 11h325h639q38 0 38 -38v-234q0 -38 -38 -38h-600v-166h518q38 0 38 -39v-204q0 -37 -38 -37h-518v-183h620z" />
<glyph unicode="&#xcb;" horiz-adv-x="1189" d="M390 1361q-70 0 -120 49.5t-50 120.5t50 120.5t120 49.5t120 -49.5t50 -120.5t-50 -120.5t-120 -49.5zM847 1361q-71 0 -120.5 49.5t-49.5 120.5t49.5 120.5t120.5 49.5t121 -50t50 -120t-50 -120t-121 -50zM1097 310q39 0 39 -38v-234q0 -38 -39 -38h-769h-215 q-16 0 -27 11t-11 27v1173q0 16 11 27t27 11h325h639q38 0 38 -38v-234q0 -38 -38 -38h-600v-166h518q38 0 38 -39v-204q0 -37 -38 -37h-518v-183h620z" />
<glyph unicode="&#xcc;" horiz-adv-x="551" d="M347 1344l-413 165q-19 7 -25 25t3 37l74 149q8 18 26 24t36 -3l381 -225q17 -10 24 -28t-1 -36l-42 -87q-19 -37 -63 -21zM75 1211q0 16 11 27t27 11h325q16 0 27.5 -11t11.5 -27v-1173q0 -16 -11.5 -27t-27.5 -11h-325q-16 0 -27 11t-11 27v1173z" />
<glyph unicode="&#xcd;" horiz-adv-x="551" d="M166 1344q-44 -16 -63 21l-42 87q-8 18 -1 36t24 28l382 225q18 9 35.5 3t25.5 -24l74 -149q9 -19 3.5 -37t-24.5 -25zM75 1211q0 16 11 27t27 11h325q16 0 27.5 -11t11.5 -27v-1173q0 -16 -11.5 -27t-27.5 -11h-325q-16 0 -27 11t-11 27v1173z" />
<glyph unicode="&#xce;" horiz-adv-x="551" d="M347 1388l-72 108l-71 -108q-20 -31 -55 -31h-184q-30 0 -37.5 17.5t13.5 39.5l216 236q24 24 57 24h123q33 0 57 -24l216 -236q21 -22 13.5 -39.5t-37.5 -17.5h-184q-35 0 -55 31zM75 1211q0 16 11 27t27 11h325q16 0 27.5 -11t11.5 -27v-1173q0 -16 -11.5 -27 t-27.5 -11h-325q-16 0 -27 11t-11 27v1173z" />
<glyph unicode="&#xcf;" horiz-adv-x="551" d="M47 1361q-71 0 -120.5 49.5t-49.5 120.5t49.5 120.5t120.5 49.5t121 -50t50 -120t-50 -120t-121 -50zM505 1361q-71 0 -120.5 49.5t-49.5 120.5t49.5 120.5t120.5 49.5t120.5 -49.5t49.5 -120.5t-49.5 -120.5t-120.5 -49.5zM75 1211q0 16 11 27t27 11h325q16 0 27.5 -11 t11.5 -27v-1173q0 -16 -11.5 -27t-27.5 -11h-325q-16 0 -27 11t-11 27v1173z" />
<glyph unicode="&#xd0;" horiz-adv-x="1425" d="M665 1249q145 0 272 -42t222 -120t149.5 -197t54.5 -265q0 -117 -35.5 -218t-99 -175t-150.5 -126.5t-192 -79t-221 -26.5h-399h-153q-16 0 -27 11t-11 27v464h-102q-46 0 -46 45v138q0 46 46 46h102v480q0 16 11 27t27 11h325h227zM645 310q134 0 216.5 85.5t82.5 229.5 t-82 229t-217 85h-168v-208h198q46 0 46 -46v-138q0 -45 -46 -45h-198v-192h168z" />
<glyph unicode="&#xd1;" horiz-adv-x="1453" d="M415 1359q-22 0 -34 12.5t-11 35.5q11 132 78.5 204t163.5 72q52 0 94 -16.5t64.5 -37t52 -37t59.5 -16.5q71 0 92 66q15 41 49 41h56q23 0 35.5 -19t8.5 -54q-17 -124 -82.5 -187.5t-158.5 -63.5q-52 0 -94 17t-64.5 37t-52 37t-59.5 17q-35 0 -59 -19t-33 -47 q-8 -22 -18.5 -32t-30.5 -10h-56zM1333 1249q45 0 45 -46v-1163q0 -45 -45 -45h-106q-35 0 -57 18l-693 579v-546q0 -46 -46 -46h-310q-46 0 -46 46v1163q0 45 46 45h105q35 0 57 -18l694 -582v549q0 46 45 46h311z" />
<glyph unicode="&#xd2;" horiz-adv-x="1534" d="M839 1344l-413 165q-19 7 -25 25t3 37l74 149q8 18 26 24t36 -3l381 -225q17 -10 24 -28t-1 -36l-42 -87q-19 -37 -63 -21zM767 1277q196 0 355.5 -77t255.5 -227t96 -348q0 -149 -56 -273t-152 -206.5t-224.5 -128t-274.5 -45.5q-195 0 -354 77t-255 227.5t-96 348.5 t96 348t255 227t354 77zM767 297q129 0 208 91t79 237q0 145 -79 236t-208 91t-207.5 -90.5t-78.5 -236.5t78.5 -237t207.5 -91z" />
<glyph unicode="&#xd3;" horiz-adv-x="1534" d="M658 1344q-44 -16 -63 21l-42 87q-8 18 -0.5 36t24.5 28l381 225q18 9 35.5 3t25.5 -24l74 -149q9 -19 3.5 -37t-24.5 -25zM767 1277q196 0 355.5 -77t255.5 -227t96 -348q0 -149 -56 -273t-152 -206.5t-224.5 -128t-274.5 -45.5q-195 0 -354 77t-255 227.5t-96 348.5 t96 348t255 227t354 77zM767 297q129 0 208 91t79 237q0 145 -79 236t-208 91t-207.5 -90.5t-78.5 -236.5t78.5 -237t207.5 -91z" />
<glyph unicode="&#xd4;" horiz-adv-x="1534" d="M839 1388l-72 108l-71 -108q-20 -31 -55 -31h-184q-30 0 -37.5 17.5t13.5 39.5l216 236q24 24 57 24h123q33 0 57 -24l216 -236q21 -22 13.5 -39.5t-37.5 -17.5h-184q-35 0 -55 31zM767 1277q196 0 355.5 -77t255.5 -227t96 -348q0 -149 -56 -273t-152 -206.5 t-224.5 -128t-274.5 -45.5q-195 0 -354 77t-255 227.5t-96 348.5t96 348t255 227t354 77zM767 297q129 0 208 91t79 237q0 145 -79 236t-208 91t-207.5 -90.5t-78.5 -236.5t78.5 -237t207.5 -91z" />
<glyph unicode="&#xd5;" horiz-adv-x="1534" d="M435 1359q-22 0 -34 12.5t-11 35.5q11 132 78.5 204t163.5 72q43 0 78 -11t58 -26.5t43.5 -31.5t43.5 -27t48 -11q71 0 92 66q15 41 49 41h56q23 0 35.5 -19t8.5 -54q-17 -124 -82.5 -187.5t-158.5 -63.5q-52 0 -94.5 17t-64.5 37t-52 37t-60 17q-35 0 -58.5 -19 t-32.5 -47q-8 -22 -19 -32t-31 -10h-56zM767 1277q196 0 355.5 -77t255.5 -227t96 -348q0 -149 -56 -273t-152 -206.5t-224.5 -128t-274.5 -45.5q-195 0 -354 77t-255 227.5t-96 348.5t96 348t255 227t354 77zM767 297q129 0 208 91t79 237q0 145 -79 236t-208 91 t-207.5 -90.5t-78.5 -236.5t78.5 -237t207.5 -91z" />
<glyph unicode="&#xd6;" horiz-adv-x="1534" d="M539 1361q-71 0 -120.5 49.5t-49.5 120.5t49.5 120.5t120.5 49.5t121 -50t50 -120t-50 -120t-121 -50zM997 1361q-71 0 -120.5 49.5t-49.5 120.5t49.5 120.5t120.5 49.5t120.5 -49.5t49.5 -120.5t-49.5 -120.5t-120.5 -49.5zM767 1277q196 0 355.5 -77t255.5 -227 t96 -348q0 -149 -56 -273t-152 -206.5t-224.5 -128t-274.5 -45.5q-195 0 -354 77t-255 227.5t-96 348.5t96 348t255 227t354 77zM767 297q129 0 208 91t79 237q0 145 -79 236t-208 91t-207.5 -90.5t-78.5 -236.5t78.5 -237t207.5 -91z" />
<glyph unicode="&#xd7;" horiz-adv-x="1140" d="M754 540l283 -283q32 -32 0 -66l-118 -118q-33 -33 -65 0l-284 284l-284 -284q-32 -32 -64 0l-119 118q-33 35 0 66l284 283l-284 284q-33 31 0 64l119 120q32 32 64 0l284 -284l284 284q32 32 65 0l118 -120q32 -32 0 -64z" />
<glyph unicode="&#xd8;" horiz-adv-x="1534" d="M1323 1047q151 -173 151 -422q0 -149 -56 -273t-152 -206.5t-224.5 -128t-274.5 -45.5q-232 0 -410 109l-93 -93q-32 -32 -64 -1l-66 66q-32 32 0 65l82 81q-154 173 -154 426q0 198 96 348t255 227t354 77q238 0 416 -111l101 101q32 32 64 0l66 -66q33 -33 0 -64z M481 625q0 -74 22 -138l420 420q-67 45 -156 45q-129 0 -207.5 -90.5t-78.5 -236.5zM767 297q129 0 208 91t79 237q0 69 -21 132l-417 -418q65 -42 151 -42z" />
<glyph unicode="&#xd9;" horiz-adv-x="1427" d="M372 1509q-19 7 -24.5 25t3.5 37l73 149q8 18 26 24t36 -3l381 -225q17 -10 24 -28t-1 -36l-42 -87q-19 -37 -63 -21zM1314 1249q16 0 27.5 -11t11.5 -27v-679q0 -139 -48.5 -245.5t-135.5 -173t-202 -100t-253 -33.5t-253 33.5t-202 100t-135.5 173t-48.5 245.5v679 q0 16 11 27t27 11h325q16 0 27.5 -11t11.5 -27v-592q0 -314 237 -314t237 314v592q0 16 11 27t27 11h325z" />
<glyph unicode="&#xda;" horiz-adv-x="1427" d="M542 1365l-42 87q-8 18 -1 36t24 28l381 225q18 9 36 3t26 -24l73 -149q9 -19 3.5 -37t-24.5 -25l-413 -165q-44 -16 -63 21zM1314 1249q16 0 27.5 -11t11.5 -27v-679q0 -139 -48.5 -245.5t-135.5 -173t-202 -100t-253 -33.5t-253 33.5t-202 100t-135.5 173t-48.5 245.5 v679q0 16 11 27t27 11h325q16 0 27.5 -11t11.5 -27v-592q0 -314 237 -314t237 314v592q0 16 11 27t27 11h325z" />
<glyph unicode="&#xdb;" horiz-adv-x="1427" d="M403 1357q-30 0 -37.5 17.5t13.5 39.5l216 236q24 24 57 24h123q33 0 57 -24l216 -236q21 -22 13.5 -39.5t-37.5 -17.5h-184q-35 0 -55 31l-71 108l-71 -108q-20 -31 -56 -31h-184zM1314 1249q16 0 27.5 -11t11.5 -27v-679q0 -139 -48.5 -245.5t-135.5 -173t-202 -100 t-253 -33.5t-253 33.5t-202 100t-135.5 173t-48.5 245.5v679q0 16 11 27t27 11h325q16 0 27.5 -11t11.5 -27v-592q0 -314 237 -314t237 314v592q0 16 11 27t27 11h325z" />
<glyph unicode="&#xdc;" horiz-adv-x="1427" d="M485 1361q-71 0 -120.5 49.5t-49.5 120.5t49.5 120.5t120.5 49.5t121 -50t50 -120t-50 -120t-121 -50zM943 1361q-71 0 -120.5 49.5t-49.5 120.5t49.5 120.5t120.5 49.5t121 -50t50 -120t-50 -120t-121 -50zM1314 1249q16 0 27.5 -11t11.5 -27v-679q0 -139 -48.5 -245.5 t-135.5 -173t-202 -100t-253 -33.5t-253 33.5t-202 100t-135.5 173t-48.5 245.5v679q0 16 11 27t27 11h325q16 0 27.5 -11t11.5 -27v-592q0 -314 237 -314t237 314v592q0 16 11 27t27 11h325z" />
<glyph unicode="&#xdd;" horiz-adv-x="1379" d="M522 1365l-42 87q-8 18 -1 36t24 28l382 225q18 9 35.5 3t25.5 -24l74 -149q9 -19 3 -37t-25 -25l-413 -165q-44 -16 -63 21zM1330 1249q26 0 37 -15.5t-1 -37.5l-473 -798v-360q0 -16 -11 -27t-26 -11h-326q-16 0 -27 11t-11 27v359l-480 799q-13 22 -2 37.5t37 15.5 h347q32 0 51 -36l264 -477l249 477q16 36 53 36h319z" />
<glyph unicode="&#xde;" horiz-adv-x="1246" d="M698 1064q245 0 383.5 -124t138.5 -315t-138.5 -315.5t-383.5 -124.5h-221v-147q0 -16 -11.5 -27t-27.5 -11h-325q-16 0 -27 11t-11 27v1173q0 16 11 27t27 11h325q16 0 27.5 -11t11.5 -27v-147h221zM627 480q93 0 137 41.5t44 103.5q0 61 -44 102.5t-137 41.5h-150v-289 h150z" />
<glyph unicode="&#xdf;" horiz-adv-x="1331" d="M980 736q0 -35 24.5 -63.5t61.5 -48t79.5 -47.5t79.5 -60t61.5 -89t24.5 -131q0 -85 -31.5 -149.5t-87.5 -102t-123.5 -55.5t-147.5 -18q-107 0 -206 30t-150 69q-33 25 -19 61l59 152q17 45 53 24q53 -30 76.5 -42t64 -25t77.5 -13q39 0 62 14t23 39q0 21 -19 39.5 t-49.5 34.5t-67.5 34t-74 43t-67.5 56t-49.5 78t-19 104q0 60 22.5 110t45 95.5t22.5 93.5q0 66 -34 104.5t-88 38.5t-89 -39.5t-35 -111.5v-923q0 -38 -39 -38h-307q-38 0 -38 38v935q0 194 139 305.5t369 111.5q223 0 349 -103t126 -272q0 -64 -19.5 -117.5t-39 -93 t-19.5 -68.5z" />
<glyph unicode="&#xe0;" horiz-adv-x="1065" d="M195 1222q-19 7 -25 25t3 37l74 149q8 18 25.5 24t35.5 -3l382 -226q17 -10 24 -28t-1 -36l-42 -87q-19 -37 -63 -21zM1028 89q16 -47 -30 -60l-221 -58q-36 -10 -58 13q-48 48 -78 114q-111 -126 -287 -126q-147 0 -230 85t-83 201q0 76 34.5 140t106 111t179.5 62 t255 -7v5q0 74 -36 103.5t-124 29.5q-98 0 -217 -43q-43 -14 -60 24l-73 154q-18 40 22 61q76 40 190.5 66t228.5 26q438 0 438 -403v-257q0 -54 6 -98t13.5 -70t23.5 -73zM473 219q57 0 100 43t43 104v10q-82 21 -134 14t-76 -29.5t-24 -58.5q0 -37 25.5 -60t65.5 -23z" />
<glyph unicode="&#xe1;" horiz-adv-x="1065" d="M364 1077l-42 87q-8 18 -1 36t24 28l382 226q18 9 35.5 3t25.5 -24l74 -149q9 -19 3 -37t-25 -25l-413 -166q-44 -16 -63 21zM1028 89q16 -47 -30 -60l-221 -58q-36 -10 -58 13q-48 48 -78 114q-111 -126 -287 -126q-147 0 -230 85t-83 201q0 76 34.5 140t106 111 t179.5 62t255 -7v5q0 74 -36 103.5t-124 29.5q-98 0 -217 -43q-43 -14 -60 24l-73 154q-18 40 22 61q76 40 190.5 66t228.5 26q438 0 438 -403v-257q0 -54 6 -98t13.5 -70t23.5 -73zM473 219q57 0 100 43t43 104v10q-82 21 -134 14t-76 -29.5t-24 -58.5q0 -37 25.5 -60 t65.5 -23z" />
<glyph unicode="&#xe2;" horiz-adv-x="1065" d="M226 1070q-30 0 -37.5 17t13.5 39l216 236q24 24 57 24h123q32 0 56 -24l216 -236q21 -22 13.5 -39t-37.5 -17h-183q-37 0 -56 30l-71 108l-71 -108q-19 -30 -55 -30h-184zM1028 89q16 -47 -30 -60l-221 -58q-36 -10 -58 13q-48 48 -78 114q-111 -126 -287 -126 q-147 0 -230 85t-83 201q0 76 34.5 140t106 111t179.5 62t255 -7v5q0 74 -36 103.5t-124 29.5q-98 0 -217 -43q-43 -14 -60 24l-73 154q-18 40 22 61q76 40 190.5 66t228.5 26q438 0 438 -403v-257q0 -54 6 -98t13.5 -70t23.5 -73zM473 219q57 0 100 43t43 104v10 q-82 21 -134 14t-76 -29.5t-24 -58.5q0 -37 25.5 -60t65.5 -23z" />
<glyph unicode="&#xe3;" horiz-adv-x="1065" d="M204 1072q-22 0 -34 12.5t-11 35.5q11 132 78.5 204t163.5 72q52 0 94 -16.5t64.5 -37t52 -37t59.5 -16.5q71 0 92 65q16 42 50 42h55q23 0 35.5 -19.5t8.5 -54.5q-17 -124 -82.5 -187t-158.5 -63q-52 0 -94 16.5t-64.5 37t-52 37t-59.5 16.5q-35 0 -59 -19t-33 -47 q-8 -22 -18.5 -31.5t-30.5 -9.5h-56zM1028 89q16 -47 -30 -60l-221 -58q-36 -10 -58 13q-48 48 -78 114q-111 -126 -287 -126q-147 0 -230 85t-83 201q0 76 34.5 140t106 111t179.5 62t255 -7v5q0 74 -36 103.5t-124 29.5q-98 0 -217 -43q-43 -14 -60 24l-73 154 q-18 40 22 61q76 40 190.5 66t228.5 26q438 0 438 -403v-257q0 -54 6 -98t13.5 -70t23.5 -73zM473 219q57 0 100 43t43 104v10q-82 21 -134 14t-76 -29.5t-24 -58.5q0 -37 25.5 -60t65.5 -23z" />
<glyph unicode="&#xe4;" horiz-adv-x="1065" d="M308 1074q-70 0 -120 50t-50 120t50 120t120 50t120 -50t50 -120t-50 -120t-120 -50zM765 1074q-71 0 -120.5 50t-49.5 120t49.5 120t120.5 50t121 -50t50 -120t-50 -120t-121 -50zM1028 89q16 -47 -30 -60l-221 -58q-36 -10 -58 13q-48 48 -78 114q-111 -126 -287 -126 q-147 0 -230 85t-83 201q0 76 34.5 140t106 111t179.5 62t255 -7v5q0 74 -36 103.5t-124 29.5q-98 0 -217 -43q-43 -14 -60 24l-73 154q-18 40 22 61q76 40 190.5 66t228.5 26q438 0 438 -403v-257q0 -54 6 -98t13.5 -70t23.5 -73zM473 219q57 0 100 43t43 104v10 q-82 21 -134 14t-76 -29.5t-24 -58.5q0 -37 25.5 -60t65.5 -23z" />
<glyph unicode="&#xe5;" horiz-adv-x="1065" d="M1028 89q16 -47 -30 -60l-221 -58q-36 -10 -58 13q-48 48 -78 114q-111 -126 -287 -126q-147 0 -230 85t-83 201q0 76 34.5 140t106 111t179.5 62t255 -7v5q0 74 -36 103.5t-124 29.5q-98 0 -217 -43q-43 -14 -60 24l-73 154q-18 40 22 61q138 73 347 89q-96 21 -161 96 t-65 173q0 115 85.5 196.5t201.5 81.5t201.5 -81.5t85.5 -196.5q0 -97 -63 -171.5t-158 -96.5q383 -25 383 -401v-257q0 -54 6 -98t13.5 -70t23.5 -73zM444 1256q0 -38 26 -66t66 -28q39 0 65.5 28t26.5 66q0 39 -26.5 67.5t-65.5 28.5q-40 0 -66 -28.5t-26 -67.5zM473 219 q57 0 100 43t43 104v10q-82 21 -134 14t-76 -29.5t-24 -58.5q0 -37 25.5 -60t65.5 -23z" />
<glyph unicode="&#xe6;" horiz-adv-x="1725" d="M1584 249q41 -21 20 -63q-44 -88 -168 -151t-280 -63q-136 0 -248.5 47.5t-185.5 137.5q-58 -84 -154 -134.5t-217 -50.5q-146 0 -222.5 84t-76.5 202q0 77 33 140.5t102.5 110.5t176 61.5t253.5 -6.5v5q0 73 -38 103t-126 30q-93 0 -212 -43q-43 -14 -61 24l-72 154 q-19 40 22 61q76 40 190 66t228 26q183 0 276 -96q142 96 339 96q106 0 196.5 -32.5t162 -97.5t112 -174t40.5 -251h-697q14 -93 68 -138t121 -45q111 0 158 73q15 21 26.5 26t35.5 -5zM1157 742q-59 0 -103 -34t-65 -99h318q-34 133 -150 133zM475 219q57 0 99.5 43 t42.5 104v10q-82 21 -133.5 14t-75 -29.5t-23.5 -58.5q0 -37 25 -60t65 -23z" />
<glyph unicode="&#xe7;" horiz-adv-x="1092" d="M1018 262q41 -20 21 -62q-21 -42 -63 -85t-122 -84t-176 -54l-23 -49q108 14 174 -31t66 -137q0 -102 -78.5 -156.5t-200.5 -54.5q-92 0 -159 39q-35 22 -21 61l9 28q15 43 62 25q45 -20 76 -20q37 0 61 18.5t24 52.5q0 35 -26 50t-62 12.5t-73 -5.5q-32 -3 -43.5 7.5 t-0.5 36.5l51 122q-199 24 -330.5 157t-131.5 348q0 120 44.5 218t119.5 161t172 96.5t205 33.5q92 0 172 -23t134 -60t88.5 -73.5t51.5 -71.5q20 -42 -21 -62l-214 -106q-15 -10 -28 -6.5t-19.5 9t-15.5 18.5q-24 35 -51.5 53.5t-74.5 18.5q-80 0 -124.5 -53t-44.5 -153 t44.5 -153t124.5 -53q47 0 74.5 18.5t51.5 53.5q14 20 24.5 24.5t38.5 -4.5z" />
<glyph unicode="&#xe8;" horiz-adv-x="1161" d="M235 1222q-19 7 -24.5 25t3.5 37l73 149q8 18 26 24t36 -3l381 -226q17 -10 24 -28t-1 -36l-42 -87q-19 -37 -63 -21zM1019 249q41 -21 20 -63q-44 -88 -168 -151t-280 -63q-113 0 -211 33.5t-171 96.5t-115 160.5t-42 218.5t43 218.5t117.5 160.5t173.5 96.5t212 33.5 q85 0 159.5 -20t139.5 -63.5t112 -107t74 -157t27 -207.5h-697q14 -93 67.5 -138t120.5 -45q111 0 158 73q15 21 26.5 26t35.5 -5zM592 742q-59 0 -103 -34t-65 -99h318q-34 133 -150 133z" />
<glyph unicode="&#xe9;" horiz-adv-x="1161" d="M404 1077l-42 87q-8 18 -0.5 36t24.5 28l381 226q18 9 35.5 3t25.5 -24l74 -149q9 -19 3.5 -37t-24.5 -25l-414 -166q-44 -16 -63 21zM1019 249q41 -21 20 -63q-44 -88 -168 -151t-280 -63q-113 0 -211 33.5t-171 96.5t-115 160.5t-42 218.5t43 218.5t117.5 160.5 t173.5 96.5t212 33.5q85 0 159.5 -20t139.5 -63.5t112 -107t74 -157t27 -207.5h-697q14 -93 67.5 -138t120.5 -45q111 0 158 73q15 21 26.5 26t35.5 -5zM592 742q-59 0 -103 -34t-65 -99h318q-34 133 -150 133z" />
<glyph unicode="&#xea;" horiz-adv-x="1161" d="M266 1070q-30 0 -37.5 17t13.5 39l216 236q24 24 57 24h123q33 0 57 -24l216 -236q21 -22 13.5 -39t-37.5 -17h-184q-35 0 -55 30l-71 108l-72 -108q-19 -30 -55 -30h-184zM1019 249q41 -21 20 -63q-44 -88 -168 -151t-280 -63q-113 0 -211 33.5t-171 96.5t-115 160.5 t-42 218.5t43 218.5t117.5 160.5t173.5 96.5t212 33.5q85 0 159.5 -20t139.5 -63.5t112 -107t74 -157t27 -207.5h-697q14 -93 67.5 -138t120.5 -45q111 0 158 73q15 21 26.5 26t35.5 -5zM592 742q-59 0 -103 -34t-65 -99h318q-34 133 -150 133z" />
<glyph unicode="&#xeb;" horiz-adv-x="1161" d="M348 1074q-70 0 -120 50t-50 120t50 120t120 50q71 0 121 -50t50 -120t-50 -120t-121 -50zM806 1074q-70 0 -120 50t-50 120t50 120t120 50t120 -50t50 -120t-50 -120t-120 -50zM1019 249q41 -21 20 -63q-44 -88 -168 -151t-280 -63q-113 0 -211 33.5t-171 96.5 t-115 160.5t-42 218.5t43 218.5t117.5 160.5t173.5 96.5t212 33.5q85 0 159.5 -20t139.5 -63.5t112 -107t74 -157t27 -207.5h-697q14 -93 67.5 -138t120.5 -45q111 0 158 73q15 21 26.5 26t35.5 -5zM592 742q-59 0 -103 -34t-65 -99h318q-34 133 -150 133z" />
<glyph unicode="&#xec;" horiz-adv-x="533" d="M339 1056l-413 166q-19 7 -25 25t3 37l74 149q8 18 25.5 24t35.5 -3l382 -226q17 -10 24 -28t-1 -36l-42 -87q-19 -37 -63 -21zM75 924q0 38 38 38h307q39 0 39 -38v-886q0 -38 -39 -38h-307q-38 0 -38 38v886z" />
<glyph unicode="&#xed;" horiz-adv-x="533" d="M158 1056q-44 -16 -63 21l-42 87q-8 18 -1 36t24 28l382 226q18 9 35.5 3t25.5 -24l74 -149q9 -19 3 -37t-25 -25zM75 924q0 38 38 38h307q39 0 39 -38v-886q0 -38 -39 -38h-307q-38 0 -38 38v886z" />
<glyph unicode="&#xee;" horiz-adv-x="533" d="M338 1100l-71 108l-71 -108q-20 -30 -55 -30h-184q-30 0 -37.5 17t13.5 39l216 236q24 24 57 24h123q33 0 57 -24l216 -236q21 -22 13.5 -39t-37.5 -17h-184q-36 0 -56 30zM75 924q0 38 38 38h307q39 0 39 -38v-886q0 -38 -39 -38h-307q-38 0 -38 38v886z" />
<glyph unicode="&#xef;" horiz-adv-x="533" d="M39 1074q-71 0 -120.5 50t-49.5 120t49.5 120t120.5 50t120.5 -50t49.5 -120t-49.5 -120t-120.5 -50zM497 1074q-71 0 -120.5 50t-49.5 120t49.5 120t120.5 50t120.5 -50t49.5 -120t-49.5 -120t-120.5 -50zM75 924q0 38 38 38h307q39 0 39 -38v-886q0 -38 -39 -38h-307 q-38 0 -38 38v886z" />
<glyph unicode="&#xf0;" horiz-adv-x="1156" d="M611 1285q90 -42 164.5 -99t125 -116t88.5 -127.5t60 -130t35.5 -127t18 -114t4.5 -96.5q0 -236 -146.5 -369.5t-372.5 -133.5q-238 0 -387 125t-149 333q0 206 140.5 332t351.5 126q71 0 137 -26q-66 115 -195 196l-56 -102q-19 -33 -53 -14l-47 27q-33 20 -15 52l54 97 q-30 13 -83 31q-20 7 -27.5 24t1.5 35l65 139q14 26 47 18q59 -13 116 -32l51 92q19 33 52 14l47 -28q33 -18 14 -52zM588 275q62 0 102.5 45.5t40.5 109.5t-40.5 109.5t-102.5 45.5t-102 -45t-40 -110t40 -110t102 -45z" />
<glyph unicode="&#xf1;" horiz-adv-x="1191" d="M299 1072q-22 0 -34 12.5t-11 35.5q11 132 78.5 204t163.5 72q52 0 94 -16.5t64.5 -37t52 -37t59.5 -16.5q72 0 93 65q8 22 19 32t30 10h56q23 0 35.5 -19.5t8.5 -54.5q-17 -124 -83 -187t-159 -63q-52 0 -94 16.5t-64.5 37t-52 37t-59.5 16.5q-35 0 -59 -19t-33 -47 q-8 -22 -18.5 -31.5t-30.5 -9.5h-56zM793 982q324 0 324 -350v-594q0 -38 -38 -38h-308q-38 0 -38 38v469q0 88 -29.5 126.5t-89.5 38.5q-69 0 -112 -50t-43 -141v-443q0 -38 -39 -38h-307q-38 0 -38 38v886q0 38 38 38h307q39 0 39 -38v-106q48 76 133 120t201 44z" />
<glyph unicode="&#xf2;" d="M680 1056l-413 166q-19 7 -24.5 25t3.5 37l73 149q8 18 26 24t36 -3l381 -226q17 -10 24 -28t-1 -36l-42 -87q-19 -37 -63 -21zM609 990q114 0 214 -33.5t177 -96.5t121.5 -161t44.5 -218t-44.5 -218t-121.5 -161t-177 -96.5t-214 -33.5t-214 33.5t-177 96.5t-121.5 161 t-44.5 218t44.5 218t121.5 161t177 96.5t214 33.5zM609 275q71 0 117 54t46 152t-46 152t-117 54t-117 -54t-46 -152t46 -152t117 -54z" />
<glyph unicode="&#xf3;" d="M500 1056q-44 -16 -63 21l-42 87q-8 18 -1 36t24 28l381 226q18 9 36 3t26 -24l73 -149q9 -19 3.5 -37t-24.5 -25zM609 990q114 0 214 -33.5t177 -96.5t121.5 -161t44.5 -218t-44.5 -218t-121.5 -161t-177 -96.5t-214 -33.5t-214 33.5t-177 96.5t-121.5 161t-44.5 218 t44.5 218t121.5 161t177 96.5t214 33.5zM609 275q71 0 117 54t46 152t-46 152t-117 54t-117 -54t-46 -152t46 -152t117 -54z" />
<glyph unicode="&#xf4;" d="M680 1100l-71 108l-71 -108q-20 -30 -56 -30h-184q-30 0 -37.5 17t13.5 39l216 236q24 24 57 24h123q33 0 57 -24l216 -236q21 -22 13.5 -39t-37.5 -17h-184q-36 0 -55 30zM609 990q114 0 214 -33.5t177 -96.5t121.5 -161t44.5 -218t-44.5 -218t-121.5 -161t-177 -96.5 t-214 -33.5t-214 33.5t-177 96.5t-121.5 161t-44.5 218t44.5 218t121.5 161t177 96.5t214 33.5zM609 275q71 0 117 54t46 152t-46 152t-117 54t-117 -54t-46 -152t46 -152t117 -54z" />
<glyph unicode="&#xf5;" d="M276 1072q-22 0 -34 12.5t-11 35.5q11 132 78.5 204t164.5 72q52 0 94 -16.5t64.5 -37t52 -37t59.5 -16.5q71 0 92 65q8 22 19 32t30 10h56q23 0 35.5 -19.5t8.5 -54.5q-17 -124 -82.5 -187t-158.5 -63q-52 0 -94 16.5t-64.5 37t-52 37t-59.5 16.5q-35 0 -59 -19t-33 -47 q-15 -41 -50 -41h-56zM609 990q114 0 214 -33.5t177 -96.5t121.5 -161t44.5 -218t-44.5 -218t-121.5 -161t-177 -96.5t-214 -33.5t-214 33.5t-177 96.5t-121.5 161t-44.5 218t44.5 218t121.5 161t177 96.5t214 33.5zM609 275q71 0 117 54t46 152t-46 152t-117 54t-117 -54 t-46 -152t46 -152t117 -54z" />
<glyph unicode="&#xf6;" d="M380 1074q-70 0 -120 50t-50 120t50 120t120 50q71 0 121 -50t50 -120t-50 -120t-121 -50zM838 1074q-70 0 -120 50t-50 120t50 120t120 50q71 0 121 -50t50 -120t-50 -120t-121 -50zM609 990q114 0 214 -33.5t177 -96.5t121.5 -161t44.5 -218t-44.5 -218t-121.5 -161 t-177 -96.5t-214 -33.5t-214 33.5t-177 96.5t-121.5 161t-44.5 218t44.5 218t121.5 161t177 96.5t214 33.5zM609 275q71 0 117 54t46 152t-46 152t-117 54t-117 -54t-46 -152t46 -152t117 -54z" />
<glyph unicode="&#xf7;" horiz-adv-x="1123" d="M990 695q46 0 46 -45v-168q0 -46 -46 -46h-287q15 -33 15 -66q0 -64 -45 -109t-109 -45q-65 0 -110 45t-45 109q0 35 14 66h-290q-46 0 -46 46v168q0 45 46 45h293q-17 32 -17 70q0 65 45.5 110t109.5 45t109 -45t45 -110q0 -38 -17 -70h289z" />
<glyph unicode="&#xf8;" horiz-adv-x="1224" d="M1058 805q111 -130 111 -324q0 -120 -44.5 -218t-121.5 -161t-177 -96.5t-214 -33.5q-174 0 -311 76l-104 -103q-32 -33 -64 -1l-66 66q-31 32 1 64l91 92q-104 130 -104 315q0 120 44.5 218t121.5 161t177 96.5t214 33.5q167 0 301 -70l77 77q33 32 65 0l66 -66 q31 -31 -1 -64zM412 481q0 -35 4 -59l284 285q-41 18 -88 18q-88 0 -144 -60.5t-56 -183.5zM612 237q88 0 144.5 60.5t56.5 183.5q0 40 -6 73l-293 -293q43 -24 98 -24z" />
<glyph unicode="&#xf9;" horiz-adv-x="1191" d="M254 1222q-19 7 -24.5 25t3.5 37l74 149q8 18 25.5 24t35.5 -3l382 -226q17 -10 24 -28t-1 -36l-42 -87q-19 -37 -63 -21zM1078 962q39 0 39 -38v-886q0 -38 -39 -38h-307q-38 0 -38 38v105q-48 -76 -132.5 -119.5t-201.5 -43.5q-324 0 -324 350v593q0 39 38 39h307 q39 0 39 -39v-468q0 -88 29 -126.5t89 -38.5q70 0 113 50t43 141v443q0 38 38 38h307z" />
<glyph unicode="&#xfa;" horiz-adv-x="1191" d="M424 1077l-42 87q-8 18 -1 36t24 28l381 226q18 9 36 3t26 -24l74 -149q9 -19 3 -37t-25 -25l-413 -166q-44 -16 -63 21zM1078 962q39 0 39 -38v-886q0 -38 -39 -38h-307q-38 0 -38 38v105q-48 -76 -132.5 -119.5t-201.5 -43.5q-324 0 -324 350v593q0 39 38 39h307 q39 0 39 -39v-468q0 -88 29 -126.5t89 -38.5q70 0 113 50t43 141v443q0 38 38 38h307z" />
<glyph unicode="&#xfb;" horiz-adv-x="1191" d="M286 1070q-30 0 -37.5 17t13.5 39l216 236q24 24 57 24h122q33 0 57 -24l216 -236q21 -22 13.5 -39t-37.5 -17h-184q-36 0 -55 30l-71 108l-71 -108q-19 -30 -55 -30h-184zM1078 962q39 0 39 -38v-886q0 -38 -39 -38h-307q-38 0 -38 38v105q-48 -76 -132.5 -119.5 t-201.5 -43.5q-324 0 -324 350v593q0 39 38 39h307q39 0 39 -39v-468q0 -88 29 -126.5t89 -38.5q70 0 113 50t43 141v443q0 38 38 38h307z" />
<glyph unicode="&#xfc;" horiz-adv-x="1191" d="M368 1074q-70 0 -120 50t-50 120t50 120t120 50t120 -50t50 -120t-50 -120t-120 -50zM825 1074q-71 0 -120.5 50t-49.5 120t49.5 120t120.5 50t121 -50t50 -120t-50 -120t-121 -50zM1078 962q39 0 39 -38v-886q0 -38 -39 -38h-307q-38 0 -38 38v105 q-48 -76 -132.5 -119.5t-201.5 -43.5q-324 0 -324 350v593q0 39 38 39h307q39 0 39 -39v-468q0 -88 29 -126.5t89 -38.5q70 0 113 50t43 141v443q0 38 38 38h307z" />
<glyph unicode="&#xfd;" horiz-adv-x="1158" d="M393 1077l-42 87q-8 18 -1 36t24 28l381 226q18 9 36 3t26 -24l73 -149q9 -19 3.5 -37t-24.5 -25l-413 -166q-44 -16 -63 21zM1099 962q32 0 48.5 -24t2.5 -54l-364 -760q-66 -138 -124 -223t-135 -144t-172 -82.5t-230 -23.5q-18 0 -29.5 11t-11.5 29v197q0 34 35 38 q91 11 148.5 55t124.5 159l-383 744q-15 29 1.5 53.5t49.5 24.5h323q25 0 39 -27l171 -374l164 374q12 27 39 27h303z" />
<glyph unicode="&#xfe;" d="M720 990q204 0 325 -141.5t121 -367.5t-121 -367.5t-325 -141.5q-170 0 -261 132v-415q0 -38 -38 -38h-308q-38 0 -38 38v1234v349q0 39 38 39h307q39 0 39 -39v-415q91 133 261 133zM609 275q71 0 117 54t46 152t-46 152t-117 54q-72 0 -117.5 -54.5t-45.5 -151.5 t45.5 -151.5t117.5 -54.5z" />
<glyph unicode="&#xff;" horiz-adv-x="1158" d="M336 1074q-70 0 -120 50t-50 120t50 120t120 50q71 0 121 -50t50 -120t-50 -120t-121 -50zM794 1074q-70 0 -120 50t-50 120t50 120t120 50q71 0 121 -50t50 -120t-50 -120t-121 -50zM1099 962q32 0 48.5 -24t2.5 -54l-364 -760q-66 -138 -124 -223t-135 -144t-172 -82.5 t-230 -23.5q-18 0 -29.5 11t-11.5 29v197q0 34 35 38q91 11 148.5 55t124.5 159l-383 744q-15 29 1.5 53.5t49.5 24.5h323q25 0 39 -27l171 -374l164 374q12 27 39 27h303z" />
<glyph unicode="&#x152;" horiz-adv-x="1975" d="M1908 310q39 0 39 -38v-234q0 -38 -39 -38h-934q-96 -26 -207 -26q-195 0 -354 77t-255 227.5t-96 348.5t96 348t255 227t354 77q120 0 221 -30h900q38 0 38 -38v-234q0 -38 -38 -38h-539q34 -75 49 -166h408q38 0 38 -39v-204q0 -37 -38 -37h-406q-15 -99 -53 -183h561z M481 627q0 -146 78.5 -236.5t207.5 -90.5t208 91t79 236t-79 236t-208 91t-207.5 -90.5t-78.5 -236.5z" />
<glyph unicode="&#x153;" horiz-adv-x="1920" d="M1778 249q41 -21 20 -63q-44 -88 -168 -151t-280 -63q-220 0 -366 117q-152 -117 -375 -117q-114 0 -214 33.5t-177 96.5t-121.5 161t-44.5 218t44.5 218t121.5 161t177 96.5t214 33.5q223 0 376 -119q150 119 372 119q106 0 196.5 -32.5t162 -97.5t112 -174t40.5 -251 h-697q14 -93 68 -138t121 -45q111 0 158 73q15 21 26.5 26t35.5 -5zM1351 742q-59 0 -103 -34t-65 -99h318q-34 133 -150 133zM609 275q71 0 117 54t46 152t-46 152t-117 54t-117 -54t-46 -152t46 -152t117 -54z" />
<glyph unicode="&#x178;" horiz-adv-x="1379" d="M466 1361q-70 0 -120 49.5t-50 120.5t50 120.5t120 49.5t120 -49.5t50 -120.5t-50 -120.5t-120 -49.5zM924 1361q-70 0 -120 49.5t-50 120.5t50 120.5t120 49.5t120 -49.5t50 -120.5t-50 -120.5t-120 -49.5zM1330 1249q26 0 37 -15.5t-1 -37.5l-473 -798v-360 q0 -16 -11 -27t-26 -11h-326q-16 0 -27 11t-11 27v359l-480 799q-13 22 -2 37.5t37 15.5h347q32 0 51 -36l264 -477l249 477q16 36 53 36h319z" />
<glyph unicode="&#x2c6;" horiz-adv-x="701" d="M422 1100l-71 108l-71 -108q-20 -30 -56 -30h-184q-30 0 -37.5 17t13.5 39l216 236q24 24 57 24h123q33 0 57 -24l216 -236q21 -22 13.5 -39t-37.5 -17h-184q-35 0 -55 30z" />
<glyph unicode="&#x2dc;" horiz-adv-x="1228" d="M741 1396q23 0 35.5 -19.5t8.5 -54.5q-17 -124 -82.5 -187t-158.5 -63q-52 0 -94 16.5t-64.5 37t-52 37t-59.5 16.5q-35 0 -59 -19t-33 -47q-8 -22 -18.5 -31.5t-30.5 -9.5h-56q-22 0 -34 12.5t-11 35.5q11 132 78.5 204t163.5 72q52 0 94 -16.5t64.5 -37t52 -37 t59.5 -16.5q71 0 92 65q16 42 50 42h55z" />
<glyph unicode="&#x2000;" horiz-adv-x="873" />
<glyph unicode="&#x2001;" horiz-adv-x="1746" />
<glyph unicode="&#x2002;" horiz-adv-x="873" />
<glyph unicode="&#x2003;" horiz-adv-x="1746" />
<glyph unicode="&#x2004;" horiz-adv-x="582" />
<glyph unicode="&#x2005;" horiz-adv-x="436" />
<glyph unicode="&#x2006;" horiz-adv-x="291" />
<glyph unicode="&#x2007;" horiz-adv-x="291" />
<glyph unicode="&#x2008;" horiz-adv-x="218" />
<glyph unicode="&#x2009;" horiz-adv-x="349" />
<glyph unicode="&#x200a;" horiz-adv-x="97" />
<glyph unicode="&#x2010;" horiz-adv-x="1058" d="M133 329q-46 0 -46 46v204q0 45 46 45h793q46 0 46 -45v-204q0 -46 -46 -46h-793z" />
<glyph unicode="&#x2011;" horiz-adv-x="1058" d="M133 329q-46 0 -46 46v204q0 45 46 45h793q46 0 46 -45v-204q0 -46 -46 -46h-793z" />
<glyph unicode="&#x2012;" horiz-adv-x="1058" d="M133 329q-46 0 -46 46v204q0 45 46 45h793q46 0 46 -45v-204q0 -46 -46 -46h-793z" />
<glyph unicode="&#x2013;" horiz-adv-x="1110" d="M56 347q-45 0 -45 46v168q0 45 45 45h998q46 0 46 -45v-168q0 -46 -46 -46h-998z" />
<glyph unicode="&#x2014;" horiz-adv-x="1724" d="M56 347q-45 0 -45 46v168q0 45 45 45h1613q45 0 45 -45v-168q0 -46 -45 -46h-1613z" />
<glyph unicode="&#x2018;" horiz-adv-x="528" d="M273 703q-79 0 -138.5 55t-59.5 158q0 124 87.5 257.5t209.5 199.5q26 13 43 -8l29 -33q22 -25 -3 -53l-16.5 -16.5t-17.5 -18t-15 -17t-14.5 -20t-10.5 -20t-8.5 -23.5t-2.5 -25q0 -21 8.5 -38.5t17.5 -27.5t27 -25q63 -55 63 -142q0 -86 -58 -144.5t-141 -58.5z" />
<glyph unicode="&#x2019;" horiz-adv-x="528" d="M255 1338q79 0 139 -55t60 -158q0 -124 -87.5 -257t-209.5 -199q-26 -13 -43 8l-30 33q-22 25 3 53l19 19t21 21.5t16.5 20.5t16 24.5t9 24.5t4.5 30q0 21 -8.5 38.5t-17.5 27.5t-27 25q-64 56 -64 142t58 144t141 58z" />
<glyph unicode="&#x201a;" horiz-adv-x="528" d="M255 377q79 0 139 -55t60 -158q0 -124 -87.5 -257.5t-209.5 -199.5q-26 -13 -43 8l-30 33q-22 25 3 53l16.5 16.5t17.5 18t15.5 17.5t15 20.5t10.5 20t8.5 23.5t2.5 25q0 21 -8.5 38.5t-17.5 27t-27 24.5q-64 56 -64 143q0 86 58 144t141 58z" />
<glyph unicode="&#x201c;" horiz-adv-x="987" d="M273 703q-79 0 -138.5 55t-59.5 158q0 124 87.5 257.5t209.5 199.5q26 13 43 -8l29 -33q22 -25 -3 -53l-16.5 -16.5t-17.5 -18t-15 -17t-14.5 -20t-10.5 -20t-8.5 -23.5t-2.5 -25q0 -21 8.5 -38.5t17.5 -27.5t27 -25q63 -55 63 -142q0 -86 -58 -144.5t-141 -58.5z M732 703q-79 0 -138.5 55t-59.5 158q0 125 87 258t209 199q26 13 43 -8l30 -33q22 -25 -3 -53l-16.5 -16.5t-17.5 -18t-15 -17t-14.5 -20t-10.5 -20t-8.5 -23.5t-2.5 -25q0 -30 13 -49.5t39 -41.5q64 -56 64 -142t-58 -144.5t-141 -58.5z" />
<glyph unicode="&#x201d;" horiz-adv-x="987" d="M255 1338q79 0 139 -55t60 -158q0 -124 -87.5 -257t-209.5 -199q-26 -13 -43 8l-30 33q-22 25 3 53l19 19t21 21.5t16.5 20.5t16 24.5t9 24.5t4.5 30q0 21 -8.5 38.5t-17.5 27.5t-27 25q-64 56 -64 142t58 144t141 58zM714 1338q79 0 138.5 -55t59.5 -158 q0 -124 -87.5 -257t-209.5 -199q-26 -13 -43 8l-29 33q-22 25 3 53l16.5 16.5t17.5 18t15 17t14.5 20t10.5 20t8.5 23.5t2.5 25q0 30 -13 49.5t-39 41.5q-64 56 -64 142t58 144t141 58z" />
<glyph unicode="&#x201e;" horiz-adv-x="987" d="M255 377q79 0 139 -55t60 -158q0 -124 -87.5 -257.5t-209.5 -199.5q-26 -13 -43 8l-30 33q-22 25 3 53l16.5 16.5t17.5 18t15.5 17.5t15 20.5t10.5 20t8.5 23.5t2.5 25q0 21 -8.5 38.5t-17.5 27t-27 24.5q-64 56 -64 143q0 86 58 144t141 58zM714 377q79 0 138.5 -55 t59.5 -158q0 -124 -87.5 -257.5t-209.5 -199.5q-26 -13 -43 8l-29 33q-22 25 3 53l16 16t18 18.5t15 17.5t15 20.5t10.5 19.5t8.5 24t2 25q0 21 -8 38.5t-17 27t-27 24.5q-64 56 -64 143q0 86 58 144t141 58z" />
<glyph unicode="&#x2022;" horiz-adv-x="713" d="M358 202q-119 0 -202 83t-83 201t83.5 201.5t201.5 83.5t201.5 -83.5t83.5 -201.5t-83 -201t-202 -83z" />
<glyph unicode="&#x2026;" horiz-adv-x="1512" d="M273 -20q-83 0 -140.5 58t-57.5 140q0 83 58 141t140 58q83 0 141 -58.5t58 -140.5t-58 -140t-141 -58zM756 -20q-82 0 -140 58t-58 140q0 83 58 141t140 58t140.5 -58.5t58.5 -140.5t-58 -140t-141 -58zM1239 -20q-83 0 -141 58t-58 140t58 140.5t141 58.5t141 -58.5 t58 -140.5t-58 -140t-141 -58z" />
<glyph unicode="&#x202f;" horiz-adv-x="349" />
<glyph unicode="&#x2039;" horiz-adv-x="621" d="M534 678q0 -14 -15 -27l-200 -171l200 -171q15 -13 15 -27v-119q0 -33 -25.5 -46.5t-52.5 6.5l-356 264q-13 10 -13 26v134q0 15 13 25l356 264q27 20 52.5 7.5t25.5 -46.5v-119z" />
<glyph unicode="&#x203a;" horiz-adv-x="621" d="M521 572q14 -11 14 -25v-134q0 -15 -14 -26l-356 -264q-27 -20 -52 -6.5t-25 46.5v119q0 15 14 27l200 171l-200 171q-14 12 -14 27v119q0 34 25 46.5t52 -7.5z" />
<glyph unicode="&#x205f;" horiz-adv-x="436" />
<glyph unicode="&#x20ac;" horiz-adv-x="1477" d="M1399 347q43 -20 20 -62q-82 -155 -235 -234t-332 -79q-245 0 -429.5 121.5t-247.5 334.5h-131v146h104q-1 16 -1 51q0 33 1 49h-104v147h130q62 213 247.5 334.5t430.5 121.5q179 0 332 -78.5t235 -233.5q23 -43 -20 -63l-244 -116q-38 -18 -63 21q-41 69 -103 107 t-137 38q-77 0 -138 -34.5t-98 -96.5h341l-86 -147h-302q-3 -24 -3 -49q0 -27 3 -51h335l-84 -146h-204q37 -62 98 -96.5t138 -34.5q75 0 137 38t103 107q25 39 63 21z" />
<glyph unicode="&#x2122;" horiz-adv-x="1869" d="M1767 1253q28 0 28 -28v-722q0 -28 -28 -28h-193q-28 0 -28 28v301l-192 -232q-9 -10 -21 -10t-20 10l-192 232v-301q0 -28 -29 -28h-192q-29 0 -29 28v722q0 28 29 28h90q21 0 35 -15l308 -362l299 362q14 15 36 15h99zM754 1250q10 0 17 -7t7 -17v-154q0 -10 -7 -17 t-17 -7h-223v-549q0 -10 -7 -17t-17 -7h-202q-10 0 -17 7t-7 17v549h-223q-10 0 -17 7t-7 17v154q0 10 7 17t17 7h449h247z" />
<glyph unicode="&#x25fc;" horiz-adv-x="962" d="M0 963h963v-963h-963v963z" />
</font>
</defs>
</svg>
