<?xml version="1.0" standalone="no"?>
<!DOCTYPE svg PUBLIC "-//W3C//DTD SVG 1.1//EN" "http://www.w3.org/Graphics/SVG/1.1/DTD/svg11.dtd" >
<svg xmlns="http://www.w3.org/2000/svg">
<metadata></metadata>
<defs>
<font id="migrena_grotesqueextralight" horiz-adv-x="1437" >
<font-face units-per-em="2048" ascent="1638" descent="-410" />
<missing-glyph horiz-adv-x="384" />
<glyph horiz-adv-x="0" />
<glyph horiz-adv-x="682" />
<glyph unicode=" "  horiz-adv-x="384" />
<glyph unicode="&#x09;" horiz-adv-x="384" />
<glyph unicode="&#xa0;" horiz-adv-x="384" />
<glyph unicode="!" horiz-adv-x="321" d="M143 1243q0 6 7 6h22q6 0 6 -6l-4 -949q0 -6 -7 -6h-13q-7 0 -7 6zM160 -11q-15 0 -26.5 11.5t-11.5 26.5q0 16 11.5 27.5t26.5 11.5q16 0 27.5 -11.5t11.5 -27.5q0 -15 -11.5 -26.5t-27.5 -11.5z" />
<glyph unicode="&#x22;" horiz-adv-x="493" d="M101 1279q-1 2 1.5 4t5.5 2h19q7 0 7 -6l-4 -359q0 -7 -7 -7h-12q-6 0 -6 7zM359 1279q-1 2 1.5 4t5.5 2h20q6 0 6 -6l-4 -359q0 -7 -7 -7h-12q-6 0 -6 7z" />
<glyph unicode="#" horiz-adv-x="1262" d="M1129 805q7 0 7 -6l-2 -19q0 -6 -7 -6h-231l-39 -391h222q6 0 6 -6l-2 -19q-2 -6 -6 -6h-223l-34 -346q0 -6 -7 -6h-22q-6 0 -6 6l34 346h-421l-34 -346q0 -6 -7 -6h-22q-6 0 -6 6l35 346h-231q-2 0 -4.5 2t-1.5 4l2 19q0 6 7 6h231l38 391h-222q-6 0 -6 6l2 19q0 6 6 6 h223l34 346q2 6 8 6h22q6 0 6 -6l-35 -346h421l34 346q2 6 7 6h23q5 0 5 -6l-34 -346h230zM822 383l39 391h-421l-39 -391h421z" />
<glyph unicode="$" horiz-adv-x="1105" d="M995 314q0 -81 -33 -143t-90.5 -99.5t-127 -57.5t-151.5 -24v-204q0 -7 -7 -7h-16q-6 0 -6 7v203h-9q-235 0 -437 141q-10 6 -6 13l8 14q5 8 12 2q52 -33 83.5 -51t86.5 -42t117 -35t135 -11q81 0 151 15.5t128 48.5t91.5 91t33.5 135q0 89 -45 149t-116.5 90.5 t-158 51.5t-173.5 42t-158.5 52t-116.5 92t-45 151q0 147 110.5 234.5t308.5 88.5v180q0 5 6 5h17q6 0 6 -5v-181q188 -7 362 -112q7 -4 3 -12l-8 -15q-4 -8 -12 -2q-174 110 -368 110q-187 0 -288 -77.5t-101 -209.5q0 -67 28 -116t75 -78t108 -50t128.5 -36t135 -31 t128.5 -40t108 -57.5t75 -89t28 -130.5z" />
<glyph unicode="%" horiz-adv-x="1593" d="M1108 1278q6 -2 4 -8l-594 -1305q-4 -6 -9 -3l-16 8q-6 4 -4 8l594 1305q4 6 8 3zM659 870q0 -179 -74.5 -284.5t-198.5 -105.5q-125 0 -200 105.5t-75 284.5q0 178 75.5 284.5t199.5 106.5t198.5 -106t74.5 -285zM386 509q112 0 176.5 96.5t64.5 264.5q0 167 -64.5 264 t-176.5 97q-113 0 -177.5 -97t-64.5 -264q0 -168 64.5 -264.5t177.5 -96.5zM1209 770q124 0 199 -106.5t75 -284.5q0 -179 -75 -284.5t-199 -105.5t-199.5 105.5t-75.5 284.5q0 178 75.5 284.5t199.5 106.5zM1209 18q112 0 176.5 96.5t64.5 264.5t-64.5 264.5t-176.5 96.5 q-113 0 -177.5 -96.5t-64.5 -264.5t64.5 -264.5t177.5 -96.5z" />
<glyph unicode="&#x26;" horiz-adv-x="1142" d="M1079 15q5 -5 3 -10t-8 -5h-20q-4 0 -7 4l-189 196q-156 -220 -400 -220q-158 0 -257.5 86.5t-99.5 228.5q0 231 288 392q-137 152 -137 300q0 132 85.5 203t222.5 71q75 0 138 -23.5t131 -76.5q6 -3 2 -9l-11 -16q-4 -6 -9 -1q-116 95 -252 95q-124 0 -197.5 -62 t-73.5 -179q0 -151 155 -311l412 -429q84 134 134 335q2 7 8 5l17 -4q7 -2 5 -7q-53 -215 -143 -352zM459 11q231 0 378 211l-426 442q-138 -77 -206 -164t-68 -201q0 -131 88.5 -209.5t233.5 -78.5z" />
<glyph unicode="'" horiz-adv-x="286" d="M127 1279q-2 6 6 6h20q7 0 7 -6l-4 -359q0 -7 -7 -7h-12q-6 0 -6 7z" />
<glyph unicode="(" horiz-adv-x="484" d="M159 500q0 -462 243 -792q4 -6 -2 -9l-12 -7q-5 -3 -8 1q-253 340 -253 807q0 436 253 806q3 5 8 2l12 -8q6 -3 2 -9q-243 -363 -243 -791z" />
<glyph unicode=")" horiz-adv-x="484" d="M104 1306q253 -370 253 -806q0 -467 -253 -807q-3 -4 -8 -1l-12 7q-6 3 -2 9q243 330 243 792q0 428 -243 791q-4 6 2 9l12 8q5 3 8 -2z" />
<glyph unicode="*" horiz-adv-x="787" d="M686 1296q3 -5 -4 -7l-264 -86l164 -225q3 -3 -2 -8l-15 -11q-4 -4 -8 2l-163 224l-163 -224q-4 -6 -8 -2l-16 11q-5 4 -1 8l163 225l-264 86q-6 2 -4 7l6 18q2 6 7 4l264 -86v277q0 7 7 7h18q6 0 6 -7v-277l264 86q5 2 7 -4z" />
<glyph unicode="+" horiz-adv-x="1043" d="M916 550q7 0 7 -6v-17q0 -6 -7 -6h-379v-380q0 -6 -6 -6h-17q-7 0 -7 6v380h-380q-6 0 -6 6v17q0 6 6 6h380v380q0 6 7 6h17q6 0 6 -6v-380h379z" />
<glyph unicode="," horiz-adv-x="328" d="M168 66q16 0 27.5 -13t11.5 -36q0 -50 -20 -113t-69 -111q-4 -5 -10 1l-5 4q-4 4 1 9q29 30 47 72.5t18 85.5q0 12 -3.5 17t-14.5 11q-21 11 -21 34q0 16 11 27.5t27 11.5z" />
<glyph unicode="-" horiz-adv-x="847" d="M127 468q-6 0 -6 7v19q0 6 6 6h593q7 0 7 -6v-19q0 -7 -7 -7h-593z" />
<glyph unicode="." horiz-adv-x="321" d="M160 -11q-15 0 -26.5 11.5t-11.5 26.5q0 16 11.5 27.5t26.5 11.5q16 0 27.5 -11.5t11.5 -27.5q0 -15 -11.5 -26.5t-27.5 -11.5z" />
<glyph unicode="/" horiz-adv-x="750" d="M672 1335q2 5 8 3l18 -8q5 -2 3 -8l-633 -1357q-4 -6 -9 -3l-17 8q-7 2 -3 8z" />
<glyph unicode="0" horiz-adv-x="1112" d="M557 1261q202 0 323.5 -172.5t121.5 -463.5t-121.5 -463.5t-323.5 -172.5t-324 172.5t-122 463.5t122 463.5t324 172.5zM557 20q186 0 297 165t111 440t-111 439.5t-297 164.5t-298 -164.5t-112 -439.5t112 -440t298 -165z" />
<glyph unicode="1" horiz-adv-x="732" d="M472 1249q6 0 6 -6v-1237q0 -6 -6 -6h-24q-6 0 -6 6v1206l-266 -140q-6 -3 -10 3l-8 17q-3 4 3 8l282 147q4 2 12 2h17z" />
<glyph unicode="2" horiz-adv-x="1018" d="M932 31q6 0 6 -6v-19q0 -6 -6 -6h-815q-6 0 -6 6v10q0 7 3 9q385 306 563 520t178 392q0 135 -80.5 213.5t-238.5 78.5q-212 0 -373 -189q-6 -6 -11 1l-12 12q-3 5 3 11q172 197 400 197q169 0 258 -88.5t89 -234.5q0 -97 -44 -196.5t-138.5 -212t-221.5 -230 t-314 -268.5h760z" />
<glyph unicode="3" horiz-adv-x="1059" d="M587 645q362 -43 362 -330q0 -154 -110.5 -240t-299.5 -86q-263 0 -434 196q-6 7 -3 11l11 13q7 7 12 1q72 -84 176.5 -137t232.5 -53q177 0 278 76.5t101 218.5q0 311 -461 314q-7 0 -7 6v14q0 6 7 6q200 1 308.5 86.5t108.5 216.5t-80 201t-241 70q-215 0 -372 -178 q-5 -5 -12 2l-10 11q-4 4 3 12q164 185 399 185q172 0 260 -79.5t88 -221.5q0 -119 -82 -203.5t-235 -111.5z" />
<glyph unicode="4" horiz-adv-x="1104" d="M1018 360q6 0 6 -6v-19q0 -6 -6 -6h-222v-323q0 -6 -6 -6h-24q-6 0 -6 6v323h-689q-6 0 -6 6v17q0 4 1 5l694 889q2 3 12 3h18q6 0 6 -6v-883h222zM112 360h648v831z" />
<glyph unicode="5" horiz-adv-x="1070" d="M528 735q119 -1 215 -42t156 -128.5t60 -207.5q0 -175 -122 -271.5t-307 -96.5q-139 0 -237.5 48.5t-176.5 137.5q-6 7 -3 11l11 13q6 7 12 1q155 -180 389 -180q112 0 200.5 36t143 113.5t54.5 187.5t-54.5 190t-143.5 119t-200 39q-173 0 -320 -90q-3 -1 -5 0l-21 9 q-4 3 -4 6l69 613q0 6 7 6h637q6 0 6 -6v-19q0 -6 -6 -6h-610l-66 -568q150 85 316 85z" />
<glyph unicode="6" horiz-adv-x="1050" d="M538 776q177 0 289 -109.5t112 -281.5t-117.5 -284t-297.5 -112q-181 0 -297 113t-116 291q0 401 174.5 627.5t517.5 240.5q6 0 6 -7v-19q0 -6 -6 -6q-298 -13 -462 -196t-191 -513q44 113 148.5 184.5t239.5 71.5zM524 20q162 0 270 104.5t108 260.5q0 158 -101.5 258.5 t-266.5 100.5q-161 0 -274 -108.5t-113 -250.5q0 -156 107.5 -260.5t269.5 -104.5z" />
<glyph unicode="7" horiz-adv-x="1038" d="M323 0q-5 0 -7 3.5t0 7.5l563 1207h-792q-6 0 -6 6v19q0 6 6 6h829q7 0 7 -6v-10q0 -5 -3 -11l-568 -1219q-2 -3 -5 -3h-24z" />
<glyph unicode="8" horiz-adv-x="1061" d="M633 654q61 -10 114.5 -33.5t100.5 -62t74.5 -98t27.5 -133.5q0 -156 -114.5 -247t-305.5 -91q-190 0 -304.5 91t-114.5 247q0 74 27.5 133.5t74.5 98t100.5 62t114.5 33.5q-52 10 -99.5 31.5t-90 56t-67.5 87.5t-25 117q0 135 105.5 225t278.5 90t279 -90t106 -225 q0 -64 -25 -117t-67.5 -87.5t-90 -56t-99.5 -31.5zM182 945q0 -122 99 -198.5t249 -76.5t250 76.5t100 198.5t-97 203.5t-253 81.5q-155 0 -251.5 -81.5t-96.5 -203.5zM530 20q173 0 278.5 85.5t105.5 223.5t-105.5 223t-278.5 85q-172 0 -277.5 -85t-105.5 -223 t105.5 -223.5t277.5 -85.5z" />
<glyph unicode="9" horiz-adv-x="1021" d="M511 1261q173 0 286.5 -113.5t113.5 -291.5q0 -146 -24 -272.5t-76.5 -235t-131 -185t-192 -120t-254.5 -43.5q-6 0 -6 6v19q0 6 6 6q151 0 268 52t193 147t120 218.5t57 276.5q-43 -111 -144 -181.5t-229 -70.5q-170 0 -278.5 110t-108.5 281q0 172 113.5 284.5 t286.5 112.5zM502 504q102 0 188.5 51.5t135 134t48.5 174.5q0 156 -104 260.5t-259 104.5t-259.5 -104.5t-104.5 -260.5q0 -158 98.5 -259t256.5 -101z" />
<glyph unicode=":" horiz-adv-x="321" d="M160 760q-15 0 -26.5 12t-11.5 27q0 16 11.5 27t26.5 11q16 0 27.5 -11t11.5 -27q0 -15 -11.5 -27t-27.5 -12zM160 -11q-15 0 -26.5 11.5t-11.5 26.5q0 16 11.5 27.5t26.5 11.5q16 0 27.5 -11.5t11.5 -27.5q0 -15 -11.5 -26.5t-27.5 -11.5z" />
<glyph unicode=";" horiz-adv-x="331" d="M170 760q-15 0 -26.5 12t-11.5 27q0 16 11.5 27t26.5 11q16 0 27.5 -11t11.5 -27q0 -15 -11.5 -27t-27.5 -12zM168 66q16 0 27.5 -13t11.5 -36q0 -50 -20 -113t-69 -111q-4 -5 -10 1l-5 4q-4 4 1 9q29 30 47 72.5t18 85.5q0 12 -3.5 17t-14.5 11q-21 11 -21 34 q0 16 11 27.5t27 11.5z" />
<glyph unicode="&#x3c;" horiz-adv-x="1043" d="M923 881q0 -3 -7 -7l-759 -343l759 -344q7 -3 7 -7v-22q0 -8 -7 -5l-789 358q-6 4 -6 8v24q0 3 6 7l789 359q7 3 7 -6v-22z" />
<glyph unicode="=" horiz-adv-x="1043" d="M127 701q-6 0 -6 7v17q0 6 6 6h789q7 0 7 -6v-17q0 -7 -7 -7h-789zM127 340q-6 0 -6 6v18q0 6 6 6h789q7 0 7 -6v-18q0 -6 -7 -6h-789z" />
<glyph unicode="&#x3e;" horiz-adv-x="1043" d="M121 881v22q0 3 1.5 5t4.5 1l789 -359q7 -5 7 -7v-24q0 -3 -7 -8l-789 -358q-6 -3 -6 5v22q0 4 6 7l760 344l-760 343q-6 3 -6 7z" />
<glyph unicode="?" horiz-adv-x="858" d="M774 970q0 259 -299 259q-106 0 -186.5 -38t-154.5 -107q-6 -6 -12 2l-10 13q-4 6 3 12q80 71 166.5 110.5t200.5 39.5q160 0 244 -73t84 -217q0 -59 -19.5 -111t-51 -91.5t-69.5 -77.5t-75.5 -78t-69 -84t-51 -104.5t-19.5 -130.5q0 -6 -5 -6h-19q-7 0 -7 7 q0 71 19.5 133t50 107t68 85.5t75 78.5t68 76.5t50 88.5t19.5 106zM440 -11q-15 0 -27 11.5t-12 26.5q0 16 12 27.5t27 11.5q16 0 27 -11.5t11 -27.5q0 -15 -11 -26.5t-27 -11.5z" />
<glyph unicode="@" horiz-adv-x="1637" d="M1028 -272q-2 -6 -5 -6q-164 -38 -297 -38q-128 0 -233 34t-177 92.5t-121 139t-71.5 171t-22.5 190.5q0 170 64.5 317t174.5 249t260 159.5t318 57.5q281 -1 450 -146.5t169 -425.5q0 -94 -20.5 -185t-58 -167t-98.5 -123t-135 -47q-57 0 -95.5 22.5t-55.5 60t-23 87 t1 103.5q-8 -38 -35 -83t-67.5 -88.5t-99 -72.5t-121.5 -29q-118 0 -191 73t-73 232q0 213 120 356.5t308 142.5q77 -1 229 -40q4 -1 4 -6l-45 -463q-13 -131 19 -199t127 -68q67 0 121.5 44.5t88 117t51 158t17.5 173.5q0 138 -43 243.5t-122 170.5t-185.5 97.5 t-238.5 32.5q-160 0 -303.5 -55.5t-249.5 -153.5t-168 -239.5t-62 -304.5q0 -95 21 -181.5t67.5 -163t114.5 -132.5t168 -89t223 -34t293 38q9 2 9 -7zM733 29q123 0 218 108t111 274l32 330q-119 36 -203 36q-173 0 -283 -135t-110 -336q0 -147 65 -212t170 -65z" />
<glyph unicode="A" horiz-adv-x="1228" d="M1179 7q3 -7 -6 -7h-26q-6 0 -8 6l-200 462h-657l-204 -462q-4 -6 -8 -6h-24q-10 0 -7 7l562 1257q4 6 8 6h12q4 0 8 -6zM296 498h630l-312 721z" />
<glyph unicode="B" horiz-adv-x="1152" d="M691 644q152 -3 251 -87.5t99 -227.5q0 -148 -107.5 -238.5t-323.5 -90.5h-463h-14q-6 0 -6 6v1237q0 6 6 6h24h413q218 0 323.5 -81.5t105.5 -226.5q0 -137 -88 -214.5t-220 -82.5zM963 938q0 280 -397 280h-403v-560h438q182 0 272 73.5t90 206.5zM606 31q205 0 302 81 t97 218t-99 218t-301 81h-442v-598h443z" />
<glyph unicode="C" horiz-adv-x="1322" d="M111 625q0 143 48.5 263.5t131.5 201.5t193.5 126t233.5 45v-32q-116 0 -220 -43.5t-181.5 -120.5t-123.5 -191.5t-46 -248.5t46 -248.5t123.5 -192t182 -121t219.5 -43.5v-31q-123 0 -233.5 45t-193.5 126t-131.5 201.5t-48.5 263.5zM1192 922q-154 307 -473 307v32 q340 0 502 -325q3 -6 -3 -9l-17 -8q-6 -3 -9 3zM1218 323q6 -3 3 -10q-161 -324 -502 -324v31q319 0 473 308q3 6 9 3z" />
<glyph unicode="D" horiz-adv-x="1254" d="M518 1249q131 0 244.5 -42t198.5 -120t134 -197t49 -265t-49 -265.5t-134 -197.5t-198.5 -120t-244.5 -42h-372h-13q-6 0 -6 6v1237q0 6 6 6h24h361zM516 31q166 0 299 69t212.5 205.5t79.5 319.5q0 138 -46 251t-126 187t-187.5 114.5t-231.5 40.5h-353v-1187h353z" />
<glyph unicode="E" horiz-adv-x="1065" d="M953 31q6 0 6 -6v-19q0 -6 -6 -6h-803h-17q-6 0 -6 6v1237q0 6 6 6h24h776q6 0 6 -6v-19q0 -6 -6 -6h-770v-547h688q6 0 6 -6v-19q0 -7 -6 -7h-688v-608h790z" />
<glyph unicode="F" horiz-adv-x="1014" d="M912 1249q7 0 7 -6v-19q0 -6 -7 -6h-749v-609h708q7 0 7 -6v-19q0 -6 -7 -6h-708v-572q0 -6 -6 -6h-24q-6 0 -6 6v1237q0 6 6 6h24h755z" />
<glyph unicode="G" horiz-adv-x="1346" d="M1213 544q7 0 7 -7v-397q-123 -82 -239 -116.5t-263 -34.5q-123 0 -233.5 45t-193.5 126t-131.5 201.5t-48.5 263.5t48.5 263.5t131.5 201.5t193.5 126t233.5 45q169 0 285.5 -70t209.5 -219q4 -5 -3 -9l-18 -9q-4 -4 -9 4q-88 141 -198 206t-267 65q-116 0 -220 -43.5 t-181.5 -120.5t-123.5 -191.5t-46 -248.5t46 -248.5t123.5 -192t182 -121t219.5 -43.5q133 0 241 30t226 103v384q0 7 7 7h21z" />
<glyph unicode="H" horiz-adv-x="1250" d="M1117 1249q6 0 6 -6v-1237q0 -6 -6 -6h-23q-7 0 -7 6v633h-924v-633q0 -6 -6 -6h-24q-6 0 -6 6v1237q0 6 6 6h24q6 0 6 -6v-572h924v572q0 6 7 6h23z" />
<glyph unicode="I" horiz-adv-x="289" d="M127 1243q0 6 6 6h23q7 0 7 -6v-1237q0 -6 -7 -6h-23q-6 0 -6 6v1237z" />
<glyph unicode="J" horiz-adv-x="887" d="M755 1249q6 0 6 -6v-871q0 -189 -92 -286t-266 -97q-232 0 -346 228q-4 7 2 10l19 8q7 3 10 -4q106 -211 313 -211q324 0 324 354v869q0 6 6 6h24z" />
<glyph unicode="K" horiz-adv-x="1114" d="M157 1249q6 0 6 -6v-1237q0 -6 -6 -6h-24q-6 0 -6 6v1237q0 6 6 6h24zM1023 9q9 -9 -3 -9h-29q-8 0 -12 5l-628 630l627 609q4 5 13 5h27q8 0 1 -8l-622 -605z" />
<glyph unicode="L" horiz-adv-x="966" d="M905 31q6 0 6 -6v-19q0 -6 -6 -6h-755h-17q-6 0 -6 6v1237q0 6 6 6h24q6 0 6 -6v-1212h742z" />
<glyph unicode="M" horiz-adv-x="1455" d="M1306 1263q5 7 10 7h6q6 0 6 -6v-1258q0 -6 -6 -6h-23q-7 0 -7 6v1175l-559 -908q-6 -9 -11 0l-559 908v-1175q0 -6 -7 -6h-23q-6 0 -6 6v1258q0 6 6 6h6q6 0 11 -7l578 -936z" />
<glyph unicode="N" horiz-adv-x="1270" d="M1138 1249q6 0 6 -6v-1257q0 -6 -6 -6h-3q-7 0 -10 4l-962 1209v-1187q0 -6 -7 -6h-23q-6 0 -6 6v1258q0 6 6 6h3q5 0 9 -5l963 -1209v1187q0 6 7 6h23z" />
<glyph unicode="O" d="M718 1261q165 0 302.5 -76.5t221.5 -223.5t84 -336t-84 -336t-221.5 -223.5t-302.5 -76.5q-123 0 -233.5 45t-193.5 126t-131.5 201.5t-48.5 263.5t48.5 263.5t131.5 201.5t193.5 126t233.5 45zM718 20q115 0 219.5 43.5t182 121t123.5 192t46 248.5t-46 248.5 t-123.5 191.5t-181.5 120.5t-220 43.5q-115 0 -219 -43.5t-182 -120.5t-124 -191.5t-46 -248.5t46 -248.5t124 -192t182 -121t219 -43.5z" />
<glyph unicode="P" horiz-adv-x="1075" d="M547 1249q117 0 206.5 -30.5t142 -84t78.5 -118t26 -139.5q0 -74 -26 -139t-78.5 -118t-142 -84t-206.5 -31h-384v-499q0 -6 -6 -6h-24q-6 0 -6 6v1237q0 6 6 6h24h390zM543 537q111 0 194.5 28t131.5 77t71.5 108t23.5 127t-23.5 127.5t-71.5 108.5t-131.5 77t-194.5 28 h-380v-681h380z" />
<glyph unicode="Q" d="M1177 -217q6 0 6 -6v-21q0 -6 -6 -6q-103 0 -195 67t-120 188q-67 -16 -144 -16q-123 0 -233.5 45t-193.5 126t-131.5 201.5t-48.5 263.5t48.5 263.5t131.5 201.5t193.5 126t233.5 45q165 0 302.5 -76.5t221.5 -223.5t84 -336q0 -232 -121.5 -395.5t-314.5 -217.5 q14 -57 45 -102t71 -72t83.5 -41t87.5 -14zM147 625q0 -134 46 -248.5t124 -192t182 -121t219 -43.5t219.5 43.5t182 121t123.5 192t46 248.5t-46 248.5t-123.5 191.5t-181.5 120.5t-220 43.5q-115 0 -219 -43.5t-182 -120.5t-124 -191.5t-46 -248.5z" />
<glyph unicode="R" horiz-adv-x="1085" d="M983 13q3 -4 1 -8.5t-8 -4.5h-22q-4 0 -9 7l-345 522q-36 -3 -74 -3h-363v-520q0 -6 -6 -6h-24q-6 0 -6 6v1237q0 6 6 6h24h369q117 0 206.5 -29t142.5 -80t79 -115t26 -138q0 -135 -85 -231.5t-257 -121.5zM523 557q111 0 194.5 26.5t131.5 73.5t71.5 104.5t23.5 125.5 t-23.5 126t-71.5 105t-131.5 73.5t-194.5 26.5h-360v-661h360z" />
<glyph unicode="S" horiz-adv-x="1105" d="M181 942q0 -67 28 -116t75 -78t108 -50t128.5 -36t135 -31t128.5 -40t108 -57.5t75 -89t28 -130.5q0 -86 -37 -150.5t-100.5 -101.5t-139.5 -55t-163 -18q-235 0 -437 141q-10 6 -6 13l8 14q5 8 12 2q52 -33 83.5 -51t86.5 -42t117 -35t135 -11q81 0 151 15.5t128 48.5 t91.5 91t33.5 135q0 89 -45 149t-116.5 90.5t-158 51.5t-173.5 42t-158.5 52t-116.5 92t-45 151q0 147 110.5 235t309.5 88q122 0 213.5 -30.5t176.5 -82.5q7 -4 3 -12l-8 -15q-4 -8 -12 -2q-174 110 -368 110q-187 0 -288 -77.5t-101 -209.5z" />
<glyph unicode="T" horiz-adv-x="1204" d="M1102 1249q6 0 6 -6v-19q0 -6 -6 -6h-482v-1212q0 -6 -6 -6h-24q-6 0 -6 6v1212h-482q-6 0 -6 6v19q0 6 6 6h512h488z" />
<glyph unicode="U" horiz-adv-x="1229" d="M1097 1249q6 0 6 -6v-729q0 -255 -128 -394.5t-360 -139.5t-360 139.5t-128 394.5v729q0 6 6 6h23q7 0 7 -6v-726q0 -243 116.5 -374.5t335.5 -131.5t335.5 131.5t116.5 374.5v726q0 6 7 6h23z" />
<glyph unicode="V" horiz-adv-x="1187" d="M1132 1249q10 0 6 -7l-531 -1257q-2 -5 -8 -5h-11q-6 0 -9 5l-540 1258q-3 6 6 6h26q6 0 9 -5l514 -1213l505 1213q3 5 9 5h24z" />
<glyph unicode="W" horiz-adv-x="1641" d="M1586 1249q8 0 6 -6l-389 -1258q-2 -5 -8 -5h-11q-5 0 -7 5l-361 1133l-359 -1133q-2 -5 -8 -5h-11q-6 0 -8 5l-391 1257q-3 7 6 7h23q6 0 8 -5l368 -1203l358 1140q2 5 8 5h11q6 0 8 -5l360 -1140l366 1203q3 5 8 5h23z" />
<glyph unicode="X" horiz-adv-x="1159" d="M1093 9q7 -9 -3 -9h-25q-9 0 -13 5l-476 597l-476 -598q-4 -4 -9 -4h-21q-13 0 -4 11l491 615l-489 613q-8 10 5 10h21q9 0 15 -7l469 -589l468 591q5 5 12 5h23q10 0 3 -8l-486 -612z" />
<glyph unicode="Y" horiz-adv-x="1146" d="M1091 1249q10 0 6 -6l-506 -787v-450q0 -6 -6 -6h-23q-7 0 -7 6v449l-515 788q-4 6 6 6h25q6 0 9 -5l493 -756l485 756q3 5 10 5h23z" />
<glyph unicode="Z" horiz-adv-x="1157" d="M87 0q-6 0 -6 6v10q0 7 2 9l911 1193h-875q-6 0 -6 6v19q0 6 6 6h920q6 0 6 -6v-10q0 -6 -3 -9l-910 -1193h919q6 0 6 -6v-19q0 -6 -6 -6h-964z" />
<glyph unicode="[" horiz-adv-x="414" d="M327 1283h-169v-1567h169q6 0 6 -6v-15q0 -6 -6 -6h-185h-9q-6 0 -6 6v1610q0 6 6 6h19h175q6 0 6 -6v-16q0 -6 -6 -6z" />
<glyph unicode="\" horiz-adv-x="750" d="M68 1335l632 -1357q4 -6 -3 -8l-17 -8q-4 -3 -8 3l-633 1357q-2 6 3 8l17 8q6 2 9 -3z" />
<glyph unicode="]" horiz-adv-x="414" d="M281 1311q6 0 6 -6v-1610q0 -6 -6 -6h-19h-175q-7 0 -7 6v15q0 6 7 6h168v1567h-168q-7 0 -7 6v16q0 6 7 6h185h9z" />
<glyph unicode="^" horiz-adv-x="825" d="M774 950q4 -4 1 -8.5t-8 -4.5h-18q-3 0 -5 3l-336 470l-337 -470q-1 -3 -5 -3h-18q-5 0 -8 4.5t0 8.5l349 481q3 3 4 3h29q1 0 4 -3z" />
<glyph unicode="_" horiz-adv-x="699" d="M6 -30q-6 0 -6 6v18q0 6 6 6h687q6 0 6 -6v-18q0 -6 -6 -6h-687z" />
<glyph unicode="`" horiz-adv-x="336" d="M313 957l-283 234q-6 4 -1 9l10 15q5 5 10 0l281 -237q4 -4 1 -9l-9 -11q-5 -5 -9 -1z" />
<glyph unicode="a" horiz-adv-x="855" d="M788 11q3 -7 -3 -10l-12 -6q-6 -3 -9 2q-58 112 -69 240q-37 -105 -132 -176.5t-214 -71.5q-116 0 -187 67t-71 168q0 97 68.5 164.5t202.5 89.5t330 -27v81q0 135 -52 204.5t-191 69.5q-79 0 -143.5 -21.5t-144.5 -66.5q-6 -3 -9 4l-8 16q-3 5 4 9q85 47 153 68.5 t151 21.5q81 0 136 -21.5t85 -64t42.5 -94.5t12.5 -123v-227q0 -99 14 -159.5t46 -136.5zM353 19q95 0 174.5 49.5t122 123t42.5 149.5v82q-187 48 -313 30t-189.5 -79t-63.5 -151t62 -147t165 -57z" />
<glyph unicode="b" horiz-adv-x="1056" d="M542 837q172 0 292.5 -118t120.5 -306t-120.5 -306t-292.5 -118q-133 0 -235 74.5t-145 197.5v-255q0 -6 -6 -6h-23q-6 0 -6 6v1299q0 6 6 6h23q6 0 6 -6v-740q43 123 145 197.5t235 74.5zM540 20q159 0 269.5 109t110.5 284t-110.5 284t-269.5 109q-160 0 -270 -116 t-110 -277t110 -277t270 -116z" />
<glyph unicode="c" horiz-adv-x="961" d="M861 227q6 -2 3 -9q-100 -229 -345 -229q-115 0 -210 51.5t-151.5 149.5t-56.5 223t56.5 223t151.5 149.5t210 51.5q245 0 345 -229q3 -7 -3 -9l-18 -8q-6 -3 -9 3q-95 212 -313 212q-163 0 -273.5 -108.5t-110.5 -284.5t110.5 -284.5t273.5 -108.5q223 0 313 212 q3 6 9 3z" />
<glyph unicode="d" horiz-adv-x="1056" d="M923 1311q6 0 6 -6v-1299q0 -6 -6 -6h-22q-7 0 -7 6v255q-43 -123 -144.5 -197.5t-234.5 -74.5q-172 0 -293 118t-121 306t121 306t293 118q133 0 234.5 -74.5t144.5 -197.5v740q0 6 7 6h22zM517 20q160 0 269.5 116t109.5 277t-109.5 277t-269.5 116q-159 0 -269.5 -109 t-110.5 -284t110.5 -284t269.5 -109z" />
<glyph unicode="e" horiz-adv-x="972" d="M858 226q6 -3 3 -9q-101 -228 -345 -228q-174 0 -294.5 118t-120.5 306q0 189 116.5 306.5t288.5 117.5q164 0 265 -106.5t101 -284.5h-734q-1 -11 -1 -33q0 -175 110.5 -284t268.5 -109q229 0 314 211q3 6 10 3zM506 806q-142 0 -244.5 -90.5t-121.5 -240.5h694 q-7 151 -96.5 241t-231.5 90z" />
<glyph unicode="f" horiz-adv-x="697" d="M673 1251q7 -7 3 -12l-9 -13q-5 -5 -14 1q-77 66 -176 66q-112 0 -162 -69.5t-50 -184.5v-213h375q7 0 7 -6v-19q0 -6 -7 -6h-375v-789q0 -6 -6 -6h-22q-7 0 -7 6v789h-173q-6 0 -6 6v19q0 6 6 6h173v215q0 126 61 204.5t183 78.5q57 0 109.5 -20.5t89.5 -52.5z" />
<glyph unicode="g" horiz-adv-x="908" d="M862 858q7 0 7 -7v-19q0 -6 -6 -6q-54 0 -95 -27.5t-54 -75.5q65 -78 65 -174q0 -118 -92 -203t-229 -86h-98q-109 0 -162 -35.5t-53 -90.5q0 -56 47 -88t168 -32h127q180 0 277.5 -67t97.5 -183q0 -115 -98 -182.5t-277 -67.5q-178 0 -276.5 67t-98.5 180q0 78 60 137 t157 88q-121 4 -169 42.5t-48 104.5q0 61 52.5 102.5t157.5 49.5q-86 34 -137 106t-51 158q0 119 92 203.5t230 84.5q144 0 237 -91q20 51 66 81.5t103 30.5zM456 290q123 0 205.5 76t82.5 183q0 106 -82.5 182t-205.5 76t-205.5 -76t-82.5 -182q0 -107 82.5 -183t205.5 -76 zM828 -237q0 102 -89 161.5t-252 59.5q-137 0 -239.5 -62.5t-102.5 -158.5q0 -102 89 -161.5t253 -59.5t252.5 59.5t88.5 161.5z" />
<glyph unicode="h" horiz-adv-x="987" d="M550 846q157 0 233.5 -93t76.5 -255v-492q0 -6 -6 -6h-23q-6 0 -6 6v486q0 154 -68 238.5t-212 84.5q-140 0 -250.5 -91.5t-132.5 -218.5v-499q0 -6 -6 -6h-23q-6 0 -6 6v1299q0 6 6 6h23q6 0 6 -6v-712q17 41 49.5 83t80.5 81.5t115.5 64t142.5 24.5z" />
<glyph unicode="i" horiz-adv-x="279" d="M140 1037q-15 0 -27 12t-12 27t12 26.5t27 11.5q16 0 27 -11t11 -27q0 -15 -11.5 -27t-26.5 -12zM122 820q0 6 7 6h22q6 0 6 -6v-814q0 -6 -6 -6h-22q-7 0 -7 6v814z" />
<glyph unicode="j" horiz-adv-x="302" d="M163 1114q16 0 27 -11t11 -27q0 -15 -11.5 -27t-26.5 -12t-27 12t-12 27t12 26.5t27 11.5zM175 826q6 0 6 -6v-1009q0 -143 -47.5 -219.5t-160.5 -76.5q-7 0 -7 7v17q0 5 6 6q94 1 134 66t40 200v1009q0 6 7 6h22z" />
<glyph unicode="k" horiz-adv-x="836" d="M127 1305q0 6 6 6h23q6 0 6 -6v-1299q0 -6 -6 -6h-23q-6 0 -6 6v1299zM742 0q-7 0 -12 5l-447 449l425 369q4 3 9 3h31q9 0 4 -7l-422 -364l444 -446q8 -9 -3 -9h-29z" />
<glyph unicode="l" horiz-adv-x="288" d="M127 1305q0 6 6 6h23q6 0 6 -6v-1299q0 -6 -6 -6h-23q-6 0 -6 6v1299z" />
<glyph unicode="m" horiz-adv-x="1575" d="M1150 846q154 0 226 -93t72 -257v-490q0 -6 -6 -6h-22q-6 0 -6 6v484q0 325 -269 325q-91 0 -170.5 -51.5t-124.5 -135t-45 -175.5v-447q0 -6 -6 -6h-22q-7 0 -7 6v484q0 325 -269 325q-91 0 -170 -51.5t-124 -135t-45 -175.5v-447q0 -6 -6 -6h-23q-6 0 -6 6v814q0 6 6 6 h23q6 0 6 -6v-239q15 43 42 85.5t68 84.5t102.5 68.5t131.5 26.5q136 0 208.5 -73t86.5 -203q15 48 44.5 95t72 88.5t103.5 67t129 25.5z" />
<glyph unicode="n" horiz-adv-x="991" d="M555 846q157 0 233.5 -93t76.5 -255v-492q0 -6 -6 -6h-23q-6 0 -6 6v486q0 154 -68 238.5t-212 84.5q-156 0 -272 -110.5t-116 -251.5v-447q0 -6 -6 -6h-23q-6 0 -6 6v814q0 6 6 6h23q6 0 6 -6v-239q15 41 47 85t80.5 85.5t118.5 68t147 26.5z" />
<glyph unicode="o" horiz-adv-x="1032" d="M516 837q174 0 295 -118t121 -306t-121 -306t-295 -118q-173 0 -294 118t-121 306t121 306t294 118zM516 20q159 0 269.5 109t110.5 284t-110.5 284t-269.5 109q-158 0 -268.5 -109t-110.5 -284t110.5 -284t268.5 -109z" />
<glyph unicode="p" horiz-adv-x="1056" d="M542 837q172 0 292.5 -118t120.5 -306t-120.5 -306t-292.5 -118q-133 0 -235 74.5t-145 197.5v-740q0 -6 -6 -6h-23q-6 0 -6 6v1299q0 6 6 6h23q6 0 6 -6v-255q43 123 145 197.5t235 74.5zM540 20q159 0 269.5 109t110.5 284t-110.5 283.5t-269.5 108.5 q-160 0 -270 -115.5t-110 -276.5t110 -277t270 -116z" />
<glyph unicode="q" horiz-adv-x="1056" d="M923 826q6 0 6 -6v-1299q0 -6 -6 -6h-22q-7 0 -7 6v740q-43 -123 -144.5 -197.5t-234.5 -74.5q-172 0 -293 118t-121 306t121 306t293 118q133 0 234.5 -74.5t144.5 -197.5v255q0 6 7 6h22zM517 20q160 0 269.5 116t109.5 277t-109.5 276.5t-269.5 115.5 q-159 0 -269.5 -108.5t-110.5 -283.5t110.5 -284t269.5 -109z" />
<glyph unicode="r" horiz-adv-x="539" d="M473 846q6 0 6 -6v-22q0 -5 -6 -6q-50 -1 -106 -31.5t-101 -78t-74.5 -111t-29.5 -124.5v-461q0 -6 -6 -6h-23q-6 0 -6 6v814q0 6 6 6h23q6 0 6 -6v-248q21 94 119 184t192 90z" />
<glyph unicode="s" horiz-adv-x="812" d="M161 625q0 -53 30.5 -89.5t79 -55t107 -32.5t117 -29.5t107 -38.5t79 -67t30.5 -107q0 -61 -27 -105.5t-72.5 -67.5t-95 -33.5t-104.5 -10.5q-162 0 -308 93q-6 3 -3 9l9 15q3 6 9 3q144 -90 293 -90q47 0 89 8t83.5 26.5t66 57t24.5 92.5q0 58 -30.5 97.5t-78.5 60 t-107 35.5t-117.5 29.5t-106.5 35.5t-78.5 61.5t-30.5 99.5q0 100 78 157.5t205 57.5q140 0 280 -91q6 -3 3 -10l-7 -15q-3 -6 -9 -3q-136 88 -267 88q-112 0 -180 -48.5t-68 -132.5z" />
<glyph unicode="t" horiz-adv-x="739" d="M658 79q3 -6 -4 -13q-93 -77 -200 -77q-220 0 -220 282v524h-177q-6 0 -6 6v19q0 6 6 6h177v212q0 6 6 8l22 6q7 2 7 -5v-221h375q6 0 6 -6v-19q0 -6 -6 -6h-375v-522q0 -50 8.5 -92t28.5 -80t58 -59.5t92 -21.5q105 0 183 73q6 5 11 -1z" />
<glyph unicode="u" horiz-adv-x="991" d="M859 826q6 0 6 -6v-814q0 -6 -6 -6h-23q-6 0 -6 6v239q-15 -41 -47 -85t-80.5 -85.5t-118.5 -68t-147 -26.5q-157 0 -233.5 93t-76.5 255v492q0 6 6 6h23q6 0 6 -6v-486q0 -154 68 -238.5t212 -84.5q156 0 272 110.5t116 251.5v447q0 6 6 6h23z" />
<glyph unicode="v" horiz-adv-x="822" d="M787 826q11 0 5 -12l-371 -830q-2 -4 -7 -4h-5q-6 0 -8 4l-370 830q-6 12 4 12h22q5 0 10 -7l345 -782l345 782q3 7 9 7h21z" />
<glyph unicode="w" horiz-adv-x="1334" d="M1299 826q11 0 5 -12l-307 -830q-2 -4 -7 -4h-5q-5 0 -7 4l-311 682l-311 -682q-2 -4 -7 -4h-5q-5 0 -7 4l-306 830q-6 12 4 12h22q6 0 10 -7l282 -780l306 674q3 8 10 8h5q6 0 9 -8l306 -674l283 780q3 7 10 7h21z" />
<glyph unicode="x" horiz-adv-x="854" d="M793 9q8 -9 -2 -9h-28q-5 0 -9 4l-332 391l-322 -390q-5 -5 -12 -5h-22q-2 0 -4 1t-2.5 3.5t3.5 6.5l338 408l-338 398q-8 9 2 9h28q7 0 12 -5l318 -376l314 376q5 5 11 5h27q9 0 1 -9l-332 -396z" />
<glyph unicode="y" horiz-adv-x="822" d="M787 826q11 0 5 -12l-359 -820q-54 -130 -95.5 -212.5t-88.5 -146.5t-96.5 -92t-109.5 -28q-7 0 -7 7v17q0 6 6 6q96 1 176 105.5t183 351.5l-370 812q-6 12 4 12h22q7 0 10 -7l350 -780l340 780q4 7 9 7h21z" />
<glyph unicode="z" horiz-adv-x="915" d="M87 0q-6 0 -6 6v6q0 6 2 8l651 775h-615q-6 0 -6 6v19q0 6 6 6h664q6 0 6 -6v-6q0 -4 -3 -9l-650 -774h657q6 0 6 -6v-19q0 -6 -6 -6h-706z" />
<glyph unicode="{" horiz-adv-x="479" d="M393 1282q-88 -4 -136 -52.5t-48 -157.5q0 -43 16.5 -176.5t16.5 -170.5q-1 -93 -28.5 -146.5t-84.5 -78.5q112 -50 113 -226q0 -37 -16.5 -170t-16.5 -177q0 -109 48 -157.5t136 -52.5q6 -1 6 -6v-11q0 -6 -6 -6q-100 1 -158 57.5t-58 174.5q0 46 16.5 179t16.5 169 q0 181 -124 211q-5 2 -5 7v16q0 4 5 6q124 30 124 211q0 37 -16.5 170t-16.5 178q0 119 57.5 175.5t158.5 57.5q6 0 6 -7v-11q0 -6 -6 -6z" />
<glyph unicode="|" horiz-adv-x="285" d="M127 1499q0 6 6 6h19q6 0 6 -6v-1702q0 -6 -6 -6h-19q-6 0 -6 6v1702z" />
<glyph unicode="}" horiz-adv-x="479" d="M393 514q5 -2 5 -6v-16q0 -5 -5 -7q-124 -30 -124 -211q0 -36 16.5 -169t16.5 -179q0 -118 -57.5 -174.5t-157.5 -57.5q-7 0 -7 6v11q0 5 6 6q88 4 136 52.5t48 157.5q0 44 -16.5 177t-16.5 170q1 176 114 226q-113 50 -114 225q0 37 16.5 170.5t16.5 176.5 q0 109 -48 157.5t-136 52.5q-6 0 -6 6v11q0 7 7 7q100 -1 157.5 -57.5t57.5 -175.5q0 -45 -16.5 -178t-16.5 -170q0 -181 124 -211z" />
<glyph unicode="~" horiz-adv-x="1108" d="M985 602q3 -3 2 -7q-23 -66 -85.5 -116t-142.5 -50q-49 0 -94 16.5t-81 40.5t-71 47.5t-77.5 40t-86.5 16.5q-68 0 -125.5 -43.5t-78.5 -100.5q-4 -7 -10 -4l-11 6q-4 3 -3 7q22 66 85.5 116t142.5 50q49 0 94 -16.5t81 -40.5t71 -48t77.5 -40.5t86.5 -16.5q68 0 126 44 t78 101q3 6 10 3z" />
<glyph unicode="&#xa1;" horiz-adv-x="321" d="M160 837q16 0 27.5 -11.5t11.5 -26.5q0 -16 -11.5 -27.5t-27.5 -11.5q-15 0 -26.5 11.5t-11.5 27.5q0 15 11.5 26.5t26.5 11.5zM143 -417l4 948q0 7 7 7h13q7 0 7 -7l4 -948q0 -6 -6 -6h-22q-7 0 -7 6z" />
<glyph unicode="&#xa2;" horiz-adv-x="961" d="M861 227q6 -2 3 -9q-98 -225 -336 -229v-203q0 -7 -7 -7h-16q-7 0 -7 7v203q-170 8 -283.5 124.5t-113.5 299.5t114 300t284 124v180q0 5 5 5h18q6 0 6 -5v-180q238 -4 336 -229q3 -7 -3 -9l-18 -8q-6 -3 -9 3q-95 212 -313 212q-163 0 -273.5 -108.5t-110.5 -284.5 t110.5 -284.5t273.5 -108.5q223 0 313 212q3 6 9 3z" />
<glyph unicode="&#xa3;" horiz-adv-x="1091" d="M1001 47q10 4 10 -7v-17q0 -4 -5 -6q-82 -32 -168.5 -36.5t-162.5 8.5t-150.5 27t-160 12.5t-164.5 -28.5q-5 -2 -7 2l-13 16q-2 4 0 7q48 102 77 188.5t38.5 156t8 122.5t-11.5 107h-205q-6 0 -6 6v17q0 6 6 6h199q-6 27 -24 92t-27 114.5t-9 103.5q0 145 96 234t268 89 q227 0 399 -197q7 -7 3 -11l-11 -12q-6 -8 -12 -1q-163 189 -373 189q-160 0 -247 -79.5t-87 -213.5q0 -52 9 -101.5t27 -113t25 -93.5h451q6 0 6 -6v-17q0 -6 -6 -6h-445q11 -71 10.5 -145.5t-31.5 -184t-94 -239.5q75 27 159 28.5t159 -12.5t150.5 -26.5t159 -8.5 t159.5 36z" />
<glyph unicode="&#xa4;" horiz-adv-x="1406" d="M338 867q71 72 165.5 112t199.5 40v-32q-96 0 -185 -38.5t-154 -103.5t-103.5 -154.5t-38.5 -186.5q0 -130 65 -241t176 -176t240 -65v-33q-105 0 -199.5 40t-165.5 112l-199 -200q-4 -6 -9 -1l-14 14q-5 5 0 10l203 197q-131 145 -131 343q0 199 131 344l-203 196 q-5 5 0 10l14 15q5 5 9 -1zM1087 161l203 -197q6 -6 1 -10l-14 -14q-5 -5 -10 1l-198 200q-71 -72 -166 -112t-200 -40v33q129 0 240 65t176.5 176t65.5 241t-65.5 241.5t-176.5 176.5t-240 65v32q105 0 200 -40t166 -112l198 201q5 6 10 1l14 -15q5 -4 -1 -10l-203 -196 q132 -146 132 -344q0 -197 -132 -343z" />
<glyph unicode="&#xa5;" horiz-adv-x="1146" d="M1091 1249q10 0 6 -6l-485 -754h225q6 0 6 -6v-15q0 -7 -6 -7h-243l-3 -5v-176h246q6 0 6 -7v-14q0 -7 -6 -7h-246v-246q0 -6 -6 -6h-23q-7 0 -7 6v246h-255q-6 0 -6 7v14q0 7 6 7h255v175l-4 6h-251q-6 0 -6 7v15q0 6 6 6h233l-493 754q-4 6 6 6h25q6 0 9 -5l493 -755h1 l484 755q3 5 10 5h23z" />
<glyph unicode="&#xa6;" horiz-adv-x="285" d="M127 1499q0 6 6 6h19q6 0 6 -6v-571q0 -6 -6 -6h-19q-6 0 -6 6v571zM127 368q0 7 6 7h19q6 0 6 -7v-571q0 -6 -6 -6h-19q-6 0 -6 6v571z" />
<glyph unicode="&#xa7;" horiz-adv-x="1127" d="M920 110q96 -85 96 -221q0 -176 -120 -278.5t-332 -102.5q-197 0 -312.5 99.5t-140.5 282.5q-2 8 7 8h22q4 0 6 -6q24 -171 129 -262t289 -91q198 0 307 93.5t109 256.5q0 63 -24 114t-57 83t-93 62t-105 45.5t-120 39.5q-59 18 -89 28t-83 31t-79.5 38t-64.5 46.5 t-53 59.5t-30.5 74t-12.5 93t17.5 113.5t45.5 138.5q-92 82 -92 219q0 175 117 277.5t316 102.5q381 0 433 -381q0 -8 -7 -8h-22q-4 0 -6 5q-50 353 -398 353q-186 0 -291.5 -93.5t-105.5 -255.5q0 -81 36.5 -140.5t95 -95.5t133.5 -64t152.5 -51.5t150.5 -51.5t128 -72.5 t85.5 -105.5t22.5 -158.5t-60 -224.5zM257 835q-43 -107 -51 -191.5t13 -139.5t65.5 -99t101.5 -69.5t127.5 -51t135.5 -44t133 -47.5t114 -63q42 108 49.5 192.5t-13.5 139.5t-66 98.5t-102 69t-127 50.5t-135 43.5t-132.5 48t-112.5 63.5z" />
<glyph unicode="&#xa8;" horiz-adv-x="411" d="M39 1037q-15 0 -26.5 12t-11.5 27q0 16 11.5 27t26.5 11q16 0 27 -11t11 -27q0 -15 -11.5 -27t-26.5 -12zM372 1037q-15 0 -26.5 12t-11.5 27q0 16 11.5 27t26.5 11q16 0 27 -11t11 -27q0 -15 -11.5 -27t-26.5 -12z" />
<glyph unicode="&#xa9;" horiz-adv-x="1491" d="M746 1260q173 0 319 -85t231 -231t85 -319t-85 -319t-231 -231t-319 -85t-319 85t-231 231t-85 319t85 319t231 231t319 85zM746 6q167 0 309 83t224.5 225.5t82.5 310.5t-82.5 310.5t-224.5 225.5t-309 83t-309 -83t-224.5 -225.5t-82.5 -310.5t82.5 -310.5 t224.5 -225.5t309 -83zM761 1000q-148 0 -251.5 -104.5t-103.5 -271.5t103.5 -271.5t251.5 -104.5q198 0 294 191q1 2 6 2l11 -5q3 -3 1 -5q-101 -203 -312 -203q-158 0 -268.5 109.5t-110.5 286.5t110.5 286t268.5 109q212 0 312 -201q3 -6 -1 -6l-11 -5q-3 -3 -6 2 q-96 191 -294 191z" />
<glyph unicode="&#xab;" horiz-adv-x="903" d="M464 183q2 -1 2 -5v-14q0 -4 -4 -5.5t-8 1.5l-330 252q-3 2 -3 4v18q0 2 3 4l330 252q4 3 8 1.5t4 -5.5v-14q0 -4 -2 -5l-317 -242zM782 672q0 -4 -2 -5l-317 -242l317 -242q2 -1 2 -5v-14q0 -4 -4 -5.5t-8 1.5l-330 252q-3 2 -3 4v18q0 2 3 4l330 252q4 3 8 1.5t4 -5.5 v-14z" />
<glyph unicode="&#xac;" horiz-adv-x="1043" d="M916 550q7 0 7 -6v-17v-218q0 -6 -7 -6h-19q-7 0 -7 6v212h-763q-6 0 -6 6v17q0 6 6 6h789z" />
<glyph unicode="&#xad;" horiz-adv-x="847" d="M127 468q-6 0 -6 7v19q0 6 6 6h593q7 0 7 -6v-19q0 -7 -7 -7h-593z" />
<glyph unicode="&#xae;" horiz-adv-x="1491" d="M746 1260q173 0 319 -85t231 -231t85 -319t-85 -319t-231 -231t-319 -85t-319 85t-231 231t-85 319t85 319t231 231t319 85zM746 6q167 0 309 83t224.5 225.5t82.5 310.5t-82.5 310.5t-224.5 225.5t-309 83t-309 -83t-224.5 -225.5t-82.5 -310.5t82.5 -310.5 t224.5 -225.5t309 -83zM840 567l215 -323q4 -8 -4 -8h-14q-3 0 -6 4l-214 325q-15 -2 -46 -2h-226v-324q0 -3 -4 -3h-15q-4 0 -4 3v770q0 4 4 4h15h230q142 0 212 -64.5t70 -161.5q0 -84 -53 -144t-160 -76zM769 582q134 0 197.5 57.5t63.5 147.5t-63.5 148t-197.5 58h-224 v-411h224z" />
<glyph unicode="&#xaf;" horiz-adv-x="498" d="M-2 1080q0 6 7 6h489q6 0 6 -6v-17q0 -6 -6 -6h-489q-7 0 -7 6v17z" />
<glyph unicode="&#xb0;" horiz-adv-x="465" d="M228 890q-78 0 -133.5 54.5t-55.5 132.5t55.5 133.5t133.5 55.5q77 0 132.5 -55.5t55.5 -133.5t-55 -132.5t-133 -54.5zM228 918q67 0 113 46.5t46 112.5q0 68 -46 114.5t-113 46.5t-113 -46.5t-46 -114.5q0 -66 46 -112.5t113 -46.5z" />
<glyph unicode="&#xb1;" horiz-adv-x="1043" d="M916 557q7 0 7 -7v-17q0 -6 -7 -6h-379v-380q0 -6 -6 -6h-17q-7 0 -7 6v380h-380q-6 0 -6 6v17q0 7 6 7h380v379q0 7 7 7h17q6 0 6 -7v-379h379zM916 30q7 0 7 -6v-18q0 -6 -7 -6h-789q-6 0 -6 6v18q0 6 6 6h789z" />
<glyph unicode="&#xb4;" horiz-adv-x="336" d="M24 957q-4 -4 -9 1l-9 11q-3 5 1 9l281 237q4 5 9 0l11 -15q5 -5 -1 -9z" />
<glyph unicode="&#xb6;" horiz-adv-x="1106" d="M974 1249q6 0 6 -6v-1446q0 -6 -6 -6h-14q-6 0 -6 6v1428h-439v-1428q0 -6 -6 -6h-14q-7 0 -7 6v684q-157 3 -267 115t-110 269q0 159 112.5 271.5t271.5 112.5h465h14z" />
<glyph unicode="&#xb7;" horiz-adv-x="321" d="M160 394q-15 0 -26.5 12t-11.5 27q0 16 11.5 27t26.5 11q16 0 27.5 -11t11.5 -27q0 -15 -11.5 -27t-27.5 -12z" />
<glyph unicode="&#xb8;" horiz-adv-x="432" d="M170 -413q-88 0 -165 43q-6 3 -3 9l5 10q3 6 9 3q82 -40 153 -40q58 0 92.5 32.5t34.5 84.5q0 77 -68 103.5t-171 -7.5q-10 -3 -6 9l62 173h28l-54 -152q94 28 167 -5.5t73 -120.5q0 -64 -44 -103t-113 -39z" />
<glyph unicode="&#xbb;" horiz-adv-x="903" d="M466 416q0 -3 -2 -4l-330 -252q-4 -3 -8.5 -1.5t-4.5 5.5v14q0 3 3 5l316 242l-316 242q-3 2 -3 5v14q0 4 4.5 5.5t8.5 -1.5l330 -252q2 -1 2 -4v-18zM780 438q2 -1 2 -4v-18q0 -3 -2 -4l-330 -252q-4 -3 -8.5 -1.5t-4.5 5.5v14q0 3 3 5l316 242l-316 242q-3 2 -3 5v14 q0 4 4.5 5.5t8.5 -1.5z" />
<glyph unicode="&#xbc;" horiz-adv-x="1789" d="M364 1227q4 0 4 -4v-813q0 -4 -4 -4h-16q-4 0 -4 4v793l-175 -92q-4 -1 -6 2l-5 11q-2 3 2 5l185 97q1 1 8 1h11zM1121 1207q4 6 9 3l11 -5q5 -4 4 -8l-633 -1357q-4 -6 -8 -3l-12 5q-6 4 -3 8zM1705 237q4 0 4 -4v-12q0 -4 -4 -4h-146v-213q0 -4 -4 -4h-15q-5 0 -5 4 v213h-453q-4 0 -4 4v10q0 2 1 3l456 585q2 2 9 2h11q4 0 4 -4v-580h146zM1109 237h426v546z" />
<glyph unicode="&#xbd;" horiz-adv-x="1800" d="M364 1227q4 0 4 -4v-813q0 -4 -4 -4h-16q-4 0 -4 4v793l-175 -92q-4 -1 -6 2l-5 11q-2 3 2 5l185 97q1 1 8 1h11zM1141 1205q5 -4 4 -8l-633 -1357q-4 -6 -8 -3l-12 5q-6 4 -3 8l632 1357q4 6 9 3zM1716 17q4 0 4 -4v-12q0 -5 -4 -5h-536q-4 0 -4 5v6q0 5 2 6 q253 201 370 341.5t117 257.5q0 89 -53 140.5t-157 51.5q-141 0 -245 -124q-3 -3 -7 1l-8 8q-2 3 2 7q112 129 263 129q112 0 170 -57.5t58 -154.5q0 -123 -112.5 -259.5t-360.5 -336.5h501z" />
<glyph unicode="&#xbe;" horiz-adv-x="1926" d="M420 830q238 -27 238 -217q0 -101 -72.5 -157.5t-196.5 -56.5q-175 0 -286 128q-4 4 -2 8l8 8q4 4 7 1q47 -55 116 -90t153 -35q116 0 182.5 50.5t66.5 143.5q0 206 -302 207q-5 0 -5 4v9q0 4 4 4q132 1 203.5 57t71.5 142q0 178 -211 178q-142 0 -245 -117q-4 -3 -8 1 l-6 8q-2 2 2 7q106 122 261 122q114 0 172 -52.5t58 -145.5q0 -78 -54.5 -133.5t-154.5 -73.5zM1228 1207q4 6 8 3l12 -5q5 -3 3 -8l-633 -1357q-4 -6 -8 -3l-11 5q-6 4 -4 8zM1811 237q5 0 5 -4v-12q0 -4 -5 -4h-145v-213q0 -4 -5 -4h-15q-4 0 -4 4v213h-453q-4 0 -4 4v10 q0 2 1 3l456 585q2 2 8 2h11q5 0 5 -4v-580h145zM1215 237h427v546z" />
<glyph unicode="&#xbf;" horiz-adv-x="786" d="M409 837q15 0 26.5 -11.5t11.5 -26.5q0 -16 -11.5 -27.5t-26.5 -11.5q-16 0 -27.5 11.5t-11.5 27.5q0 15 11.5 26.5t27.5 11.5zM74 -144q0 -259 299 -259q106 0 187 37.5t154 106.5q6 6 12 -1l10 -13q4 -6 -3 -12q-80 -72 -166 -111t-200 -39q-160 0 -244.5 73.5 t-84.5 216.5q0 59 19.5 111t51 91.5t69.5 77.5t75.5 78t69 84t51 104.5t19.5 130.5q0 6 6 6h19q6 0 6 -7q0 -71 -19.5 -133t-50 -107t-68 -85.5t-75 -78.5t-68 -76.5t-50 -88.5t-19.5 -106z" />
<glyph unicode="&#xc0;" horiz-adv-x="1228" d="M357 1615q-6 4 -1 9l11 14q5 5 9 1l281 -237q4 -4 1 -9l-9 -12q-5 -5 -9 -1zM1179 7q3 -7 -6 -7h-26q-6 0 -8 6l-200 462h-657l-204 -462q-4 -6 -8 -6h-24q-10 0 -7 7l562 1257q4 6 8 6h12q4 0 8 -6zM296 498h630l-312 721z" />
<glyph unicode="&#xc1;" horiz-adv-x="1228" d="M582 1381l-10 12q-3 5 1 9l282 237q4 4 9 -1l11 -14q5 -5 -1 -9l-283 -235q-4 -4 -9 1zM1179 7q3 -7 -6 -7h-26q-6 0 -8 6l-200 462h-657l-204 -462q-4 -6 -8 -6h-24q-10 0 -7 7l562 1257q4 6 8 6h12q4 0 8 -6zM296 498h630l-312 721z" />
<glyph unicode="&#xc2;" horiz-adv-x="1228" d="M379 1372q-11 0 -4 7l219 241q3 3 11 3h16q7 0 10 -3l219 -241q7 -7 -3 -7h-22q-7 0 -11 4l-201 222l-202 -222q-4 -4 -9 -4h-23zM1179 7q3 -7 -6 -7h-26q-6 0 -8 6l-200 462h-657l-204 -462q-4 -6 -8 -6h-24q-10 0 -7 7l562 1257q4 6 8 6h12q4 0 8 -6zM296 498h630 l-312 721z" />
<glyph unicode="&#xc3;" horiz-adv-x="1228" d="M353 1400q-6 0 -6 6q1 92 40.5 138t103.5 46q42 0 76 -25.5t53.5 -55.5t50.5 -55.5t67 -25.5q55 0 86.5 39t32.5 116q0 7 7 7h12q6 0 6 -10q-1 -90 -41 -135t-103 -45q-34 0 -62.5 16.5t-48 40t-38 47.5t-43.5 40.5t-55 16.5q-55 0 -86.5 -39t-32.5 -116q0 -6 -7 -6h-12z M1179 7q3 -7 -6 -7h-26q-6 0 -8 6l-200 462h-657l-204 -462q-4 -6 -8 -6h-24q-10 0 -7 7l562 1257q4 6 8 6h12q4 0 8 -6zM296 498h630l-312 721z" />
<glyph unicode="&#xc4;" horiz-adv-x="1228" d="M448 1461q-15 0 -26.5 11.5t-11.5 26.5q0 16 11.5 27t26.5 11q16 0 27 -11t11 -27q0 -15 -11 -26.5t-27 -11.5zM781 1461q-15 0 -27 11.5t-12 26.5t12 26.5t27 11.5q16 0 27 -11t11 -27q0 -15 -11 -26.5t-27 -11.5zM1179 7q3 -7 -6 -7h-26q-6 0 -8 6l-200 462h-657 l-204 -462q-4 -6 -8 -6h-24q-10 0 -7 7l562 1257q4 6 8 6h12q4 0 8 -6zM296 498h630l-312 721z" />
<glyph unicode="&#xc5;" horiz-adv-x="1228" d="M1179 7q3 -7 -6 -7h-26q-6 0 -8 6l-200 462h-657l-204 -462q-4 -6 -8 -6h-24q-10 0 -7 7l558 1249q-72 7 -121.5 60t-49.5 126q0 77 56 132.5t133 55.5q78 0 133.5 -55.5t55.5 -132.5q0 -73 -49.5 -126t-121.5 -60zM451 1442q0 -69 47.5 -117t116.5 -48t116.5 48 t47.5 117q0 70 -47 118t-117 48t-117 -48t-47 -118zM296 498h630l-312 721z" />
<glyph unicode="&#xc6;" horiz-adv-x="1710" d="M1619 31q7 0 7 -6v-19q0 -6 -7 -6h-803h-17q-6 0 -6 6v462h-435l-277 -463q-3 -5 -8 -5h-27q-11 0 -6 8l742 1237q2 4 9 4h10h22h776q6 0 6 -6v-19q0 -6 -6 -6h-770v-547h688q6 0 6 -6v-19q0 -7 -6 -7h-688v-608h790zM376 498h417v699z" />
<glyph unicode="&#xc7;" horiz-adv-x="1322" d="M1218 323q6 -3 3 -10q-160 -319 -494 -324l-48 -134q94 29 167.5 -5t73.5 -121q0 -64 -44.5 -103t-113.5 -39q-87 0 -164 43q-7 4 -4 9l6 10q3 6 9 3q82 -40 153 -40q58 0 92.5 32.5t34.5 84.5q0 77 -68.5 103.5t-171.5 -7.5q-10 -3 -6 9l56 155q-120 3 -226.5 50 t-187 127.5t-127.5 199.5t-47 259q0 143 48.5 263.5t131.5 201.5t193.5 126t233.5 45v-32q-116 0 -220 -43.5t-181.5 -120.5t-123.5 -191.5t-46 -248.5t46 -248.5t123.5 -192t182 -121t219.5 -43.5v-13h1v13q319 0 473 308q3 6 9 3zM1192 922q-154 307 -473 307v32 q340 0 502 -325q3 -6 -3 -9l-17 -8q-6 -3 -9 3z" />
<glyph unicode="&#xc8;" horiz-adv-x="1065" d="M288 1615q-6 4 -1 9l10 14q5 6 10 1l281 -237q4 -4 1 -9l-9 -12q-5 -5 -9 -1zM953 31q6 0 6 -6v-19q0 -6 -6 -6h-803h-17q-6 0 -6 6v1237q0 6 6 6h24h776q6 0 6 -6v-19q0 -6 -6 -6h-770v-547h688q6 0 6 -6v-19q0 -7 -6 -7h-688v-608h790z" />
<glyph unicode="&#xc9;" horiz-adv-x="1065" d="M513 1381l-10 12q-3 5 1 9l282 237q4 4 9 -1l11 -14q5 -5 -1 -9l-283 -235q-4 -4 -9 1zM953 31q6 0 6 -6v-19q0 -6 -6 -6h-803h-17q-6 0 -6 6v1237q0 6 6 6h24h776q6 0 6 -6v-19q0 -6 -6 -6h-770v-547h688q6 0 6 -6v-19q0 -7 -6 -7h-688v-608h790z" />
<glyph unicode="&#xca;" horiz-adv-x="1065" d="M310 1372q-11 0 -4 7l219 241q3 3 11 3h15q8 0 11 -3l219 -241q7 -7 -3 -7h-22q-7 0 -11 4l-201 222l-202 -222q-4 -4 -9 -4h-23zM953 31q6 0 6 -6v-19q0 -6 -6 -6h-803h-17q-6 0 -6 6v1237q0 6 6 6h24h776q6 0 6 -6v-19q0 -6 -6 -6h-770v-547h688q6 0 6 -6v-19 q0 -7 -6 -7h-688v-608h790z" />
<glyph unicode="&#xcb;" horiz-adv-x="1065" d="M379 1461q-15 0 -27 11.5t-12 26.5t12 26.5t27 11.5q16 0 27 -11t11 -27q0 -15 -11 -26.5t-27 -11.5zM712 1461q-15 0 -27 11.5t-12 26.5t12 26.5t27 11.5q16 0 27 -11t11 -27q0 -15 -11 -26.5t-27 -11.5zM953 31q6 0 6 -6v-19q0 -6 -6 -6h-803h-17q-6 0 -6 6v1237 q0 6 6 6h24h776q6 0 6 -6v-19q0 -6 -6 -6h-770v-547h688q6 0 6 -6v-19q0 -7 -6 -7h-688v-608h790z" />
<glyph unicode="&#xcc;" horiz-adv-x="289" d="M170 1380l-283 235q-6 4 -1 9l11 14q5 5 9 1l282 -237q4 -4 1 -9l-9 -12q-6 -5 -10 -1zM127 1243q0 6 6 6h23q7 0 7 -6v-1237q0 -6 -7 -6h-23q-6 0 -6 6v1237z" />
<glyph unicode="&#xcd;" horiz-adv-x="289" d="M121 1380q-4 -4 -9 1l-9 12q-3 5 1 9l282 237q4 4 9 -1l11 -14q4 -4 -2 -9zM127 1243q0 6 6 6h23q7 0 7 -6v-1237q0 -6 -7 -6h-23q-6 0 -6 6v1237z" />
<glyph unicode="&#xce;" horiz-adv-x="289" d="M345 1376l-202 222l-201 -222q-4 -4 -9 -4h-24q-10 0 -3 7l218 241q3 3 11 3h16q8 0 11 -3l218 -241q7 -7 -3 -7h-22q-6 0 -10 4zM127 1243q0 6 6 6h23q7 0 7 -6v-1237q0 -6 -7 -6h-23q-6 0 -6 6v1237z" />
<glyph unicode="&#xcf;" horiz-adv-x="289" d="M-22 1461q-15 0 -26.5 11.5t-11.5 26.5q0 16 11.5 27t26.5 11q16 0 27 -11t11 -27q0 -15 -11 -26.5t-27 -11.5zM311 1461q-15 0 -26.5 11.5t-11.5 26.5q0 16 11.5 27t26.5 11q16 0 27 -11t11 -27q0 -15 -11 -26.5t-27 -11.5zM127 1243q0 6 6 6h23q7 0 7 -6v-1237 q0 -6 -7 -6h-23q-6 0 -6 6v1237z" />
<glyph unicode="&#xd0;" horiz-adv-x="1254" d="M518 1249q131 0 244.5 -42t198.5 -120t134 -197t49 -265t-49 -265.5t-134 -197.5t-198.5 -120t-244.5 -42h-372h-13q-6 0 -6 6v604h-162q-6 0 -6 6v17q0 7 6 7h162v603q0 6 6 6h24h361zM516 31q166 0 299 69t212.5 205.5t79.5 319.5q0 138 -46 251t-126 187t-187.5 114.5 t-231.5 40.5h-353v-578h338q6 0 6 -7v-17q0 -6 -6 -6h-338v-579h353z" />
<glyph unicode="&#xd1;" horiz-adv-x="1270" d="M395 1400q-6 0 -6 6q1 93 40 138.5t103 45.5q42 0 76 -25.5t53.5 -55.5t50.5 -55.5t67 -25.5q56 0 87.5 39t32.5 116q0 7 6 7h12q6 0 6 -10q-1 -90 -41 -135t-103 -45q-34 0 -62.5 16.5t-48 40t-38 47.5t-43.5 40.5t-55 16.5q-55 0 -86.5 -39t-32.5 -116q0 -6 -6 -6h-12z M1138 1249q6 0 6 -6v-1257q0 -6 -6 -6h-3q-7 0 -10 4l-962 1209v-1187q0 -6 -7 -6h-23q-6 0 -6 6v1258q0 6 6 6h3q5 0 9 -5l963 -1209v1187q0 6 7 6h23z" />
<glyph unicode="&#xd2;" d="M744 1380l-283 235q-6 4 -1 9l11 14q5 5 9 1l281 -237q4 -4 1 -9l-9 -12q-5 -5 -9 -1zM718 1261q165 0 302.5 -76.5t221.5 -223.5t84 -336t-84 -336t-221.5 -223.5t-302.5 -76.5q-123 0 -233.5 45t-193.5 126t-131.5 201.5t-48.5 263.5t48.5 263.5t131.5 201.5t193.5 126 t233.5 45zM718 20q115 0 219.5 43.5t182 121t123.5 192t46 248.5t-46 248.5t-123.5 191.5t-181.5 120.5t-220 43.5q-115 0 -219 -43.5t-182 -120.5t-124 -191.5t-46 -248.5t46 -248.5t124 -192t182 -121t219 -43.5z" />
<glyph unicode="&#xd3;" d="M695 1380q-4 -4 -9 1l-10 12q-3 5 1 9l282 237q4 4 9 -1l11 -14q5 -5 -1 -9zM718 1261q165 0 302.5 -76.5t221.5 -223.5t84 -336t-84 -336t-221.5 -223.5t-302.5 -76.5q-123 0 -233.5 45t-193.5 126t-131.5 201.5t-48.5 263.5t48.5 263.5t131.5 201.5t193.5 126t233.5 45 zM718 20q115 0 219.5 43.5t182 121t123.5 192t46 248.5t-46 248.5t-123.5 191.5t-181.5 120.5t-220 43.5q-115 0 -219 -43.5t-182 -120.5t-124 -191.5t-46 -248.5t46 -248.5t124 -192t182 -121t219 -43.5z" />
<glyph unicode="&#xd4;" d="M918 1376l-201 222l-202 -222q-4 -4 -9 -4h-23q-11 0 -4 7l219 241q3 3 11 3h15q8 0 11 -3l219 -241q7 -7 -3 -7h-22q-7 0 -11 4zM718 1261q165 0 302.5 -76.5t221.5 -223.5t84 -336t-84 -336t-221.5 -223.5t-302.5 -76.5q-123 0 -233.5 45t-193.5 126t-131.5 201.5 t-48.5 263.5t48.5 263.5t131.5 201.5t193.5 126t233.5 45zM718 20q115 0 219.5 43.5t182 121t123.5 192t46 248.5t-46 248.5t-123.5 191.5t-181.5 120.5t-220 43.5q-115 0 -219 -43.5t-182 -120.5t-124 -191.5t-46 -248.5t46 -248.5t124 -192t182 -121t219 -43.5z" />
<glyph unicode="&#xd5;" d="M457 1400q-6 0 -6 6q1 92 40.5 138t103.5 46q42 0 76 -25.5t53.5 -55.5t50.5 -55.5t67 -25.5q55 0 86.5 39t32.5 116q0 7 7 7h11q7 0 7 -10q-1 -90 -41 -135t-103 -45q-34 0 -62.5 16.5t-48 40t-38 47.5t-43.5 40.5t-55 16.5q-55 0 -86.5 -39t-32.5 -116q0 -6 -7 -6h-12z M718 1261q165 0 302.5 -76.5t221.5 -223.5t84 -336t-84 -336t-221.5 -223.5t-302.5 -76.5q-123 0 -233.5 45t-193.5 126t-131.5 201.5t-48.5 263.5t48.5 263.5t131.5 201.5t193.5 126t233.5 45zM718 20q115 0 219.5 43.5t182 121t123.5 192t46 248.5t-46 248.5t-123.5 191.5 t-181.5 120.5t-220 43.5q-115 0 -219 -43.5t-182 -120.5t-124 -191.5t-46 -248.5t46 -248.5t124 -192t182 -121t219 -43.5z" />
<glyph unicode="&#xd6;" d="M552 1461q-15 0 -26.5 11.5t-11.5 26.5q0 16 11.5 27t26.5 11q16 0 27 -11t11 -27q0 -15 -11 -26.5t-27 -11.5zM885 1461q-15 0 -27 11.5t-12 26.5t12 26.5t27 11.5q16 0 27 -11t11 -27q0 -15 -11 -26.5t-27 -11.5zM718 1261q165 0 302.5 -76.5t221.5 -223.5t84 -336 t-84 -336t-221.5 -223.5t-302.5 -76.5q-123 0 -233.5 45t-193.5 126t-131.5 201.5t-48.5 263.5t48.5 263.5t131.5 201.5t193.5 126t233.5 45zM718 20q115 0 219.5 43.5t182 121t123.5 192t46 248.5t-46 248.5t-123.5 191.5t-181.5 120.5t-220 43.5q-115 0 -219 -43.5 t-182 -120.5t-124 -191.5t-46 -248.5t46 -248.5t124 -192t182 -121t219 -43.5z" />
<glyph unicode="&#xd7;" horiz-adv-x="970" d="M506 510l341 -341q5 -5 0 -9l-12 -12q-5 -4 -9 0l-341 341l-341 -341q-4 -4 -8 0l-13 12q-1 2 -1 5t1 4l341 341l-341 341q-1 1 -1 4t1 5l13 12q4 4 8 0l341 -341l341 341q4 4 9 0l12 -12q5 -4 0 -9z" />
<glyph unicode="&#xd8;" d="M1172 1060q154 -177 154 -435q0 -189 -84 -336t-221.5 -223.5t-302.5 -76.5q-126 0 -238.5 47t-196.5 134l-110 -110q-5 -4 -9 0l-12 13q-4 5 0 9l110 110q-151 173 -151 433q0 143 48.5 263.5t131.5 201.5t193.5 126t233.5 45q125 0 237.5 -46.5t196.5 -132.5l101 101 q5 4 9 0l12 -13q4 -4 0 -8zM147 625q0 -240 141 -407l839 839q-79 83 -185 127.5t-224 44.5q-115 0 -219 -43.5t-182 -120.5t-124 -191.5t-46 -248.5zM718 20q115 0 219.5 43.5t182 121t123.5 192t46 248.5q0 243 -142 409l-839 -839q79 -84 185 -129.5t225 -45.5z" />
<glyph unicode="&#xd9;" horiz-adv-x="1229" d="M357 1615q-6 4 -1 9l11 14q5 5 9 1l282 -237q4 -4 1 -9l-9 -12q-5 -5 -9 -1zM1097 1249q6 0 6 -6v-729q0 -255 -128 -394.5t-360 -139.5t-360 139.5t-128 394.5v729q0 6 6 6h23q7 0 7 -6v-726q0 -243 116.5 -374.5t335.5 -131.5t335.5 131.5t116.5 374.5v726q0 6 7 6h23z " />
<glyph unicode="&#xda;" horiz-adv-x="1229" d="M582 1381l-9 12q-3 5 1 9l282 237q4 4 9 -1l11 -14q4 -4 -2 -9l-283 -235q-4 -4 -9 1zM1097 1249q6 0 6 -6v-729q0 -255 -128 -394.5t-360 -139.5t-360 139.5t-128 394.5v729q0 6 6 6h23q7 0 7 -6v-726q0 -243 116.5 -374.5t335.5 -131.5t335.5 131.5t116.5 374.5v726 q0 6 7 6h23z" />
<glyph unicode="&#xdb;" horiz-adv-x="1229" d="M379 1372q-10 0 -3 7l218 241q3 3 11 3h16q8 0 11 -3l218 -241q7 -7 -3 -7h-22q-6 0 -10 4l-202 222l-201 -222q-4 -4 -9 -4h-24zM1097 1249q6 0 6 -6v-729q0 -255 -128 -394.5t-360 -139.5t-360 139.5t-128 394.5v729q0 6 6 6h23q7 0 7 -6v-726q0 -243 116.5 -374.5 t335.5 -131.5t335.5 131.5t116.5 374.5v726q0 6 7 6h23z" />
<glyph unicode="&#xdc;" horiz-adv-x="1229" d="M449 1461q-15 0 -27 11.5t-12 26.5t12 26.5t27 11.5q16 0 26.5 -11t10.5 -27q0 -15 -11 -26.5t-26 -11.5zM781 1461q-15 0 -26.5 11.5t-11.5 26.5q0 16 11.5 27t26.5 11q16 0 27 -11t11 -27q0 -15 -11 -26.5t-27 -11.5zM1097 1249q6 0 6 -6v-729q0 -255 -128 -394.5 t-360 -139.5t-360 139.5t-128 394.5v729q0 6 6 6h23q7 0 7 -6v-726q0 -243 116.5 -374.5t335.5 -131.5t335.5 131.5t116.5 374.5v726q0 6 7 6h23z" />
<glyph unicode="&#xdd;" horiz-adv-x="1146" d="M541 1381l-10 12q-3 5 1 9l282 237q4 4 9 -1l11 -14q5 -5 -1 -9l-283 -235q-4 -4 -9 1zM1091 1249q10 0 6 -6l-506 -787v-450q0 -6 -6 -6h-23q-7 0 -7 6v449l-515 788q-4 6 6 6h25q6 0 9 -5l493 -756l485 756q3 5 10 5h23z" />
<glyph unicode="&#xde;" horiz-adv-x="1075" d="M547 1006q117 0 206.5 -30.5t142 -84t78.5 -118t26 -139.5q0 -74 -26 -139t-78.5 -118t-142 -84t-206.5 -31h-384v-256q0 -6 -6 -6h-24q-6 0 -6 6v1237q0 6 6 6h24q6 0 6 -6v-237h384zM543 293q111 0 194.5 28.5t131.5 77.5t71.5 108t23.5 127t-23.5 127.5t-71.5 108.5 t-131.5 77t-194.5 28h-380v-682h380z" />
<glyph unicode="&#xdf;" horiz-adv-x="963" d="M554 671q0 -55 18.5 -96t48.5 -64.5t66.5 -42.5t72.5 -38t66 -43t48.5 -64.5t18.5 -95.5q0 -67 -27 -116.5t-70.5 -74.5t-88.5 -36t-92 -11q-134 0 -256 93q-7 5 -4 10l8 14q4 7 9 3q121 -90 242 -90q32 0 62.5 5t64.5 19t59.5 35.5t42 59t16.5 85.5q0 52 -19 90 t-48.5 60t-66 39.5t-73 37t-66 44.5t-48.5 69t-19 104q0 48 12 86.5t29 66t34 56t29 68.5t12 90q0 116 -61 187.5t-175 71.5t-175.5 -71.5t-61.5 -182.5v-1033q0 -6 -6 -6h-23q-6 0 -6 6v1035q0 123 72.5 203t198.5 80t199.5 -80t72.5 -203q0 -53 -12 -96t-29 -72.5t-34 -57 t-29 -64t-12 -80.5z" />
<glyph unicode="&#xe0;" horiz-adv-x="855" d="M197 1191q-6 4 -1 9l10 15q5 5 10 0l281 -237q4 -4 1 -9l-9 -11q-5 -5 -9 -1zM788 11q3 -7 -3 -10l-12 -6q-6 -3 -9 2q-58 112 -69 240q-37 -105 -132 -176.5t-214 -71.5q-116 0 -187 67t-71 168q0 97 68.5 164.5t202.5 89.5t330 -27v81q0 135 -52 204.5t-191 69.5 q-79 0 -143.5 -21.5t-144.5 -66.5q-6 -3 -9 4l-8 16q-3 5 4 9q85 47 153 68.5t151 21.5q81 0 136 -21.5t85 -64t42.5 -94.5t12.5 -123v-227q0 -99 14 -159.5t46 -136.5zM353 19q95 0 174.5 49.5t122 123t42.5 149.5v82q-187 48 -313 30t-189.5 -79t-63.5 -151t62 -147 t165 -57z" />
<glyph unicode="&#xe1;" horiz-adv-x="855" d="M421 958l-9 11q-3 5 1 9l282 237q5 5 9 0l11 -15q5 -5 -1 -9l-283 -234q-5 -5 -10 1zM788 11q3 -7 -3 -10l-12 -6q-6 -3 -9 2q-58 112 -69 240q-37 -105 -132 -176.5t-214 -71.5q-116 0 -187 67t-71 168q0 97 68.5 164.5t202.5 89.5t330 -27v81q0 135 -52 204.5 t-191 69.5q-79 0 -143.5 -21.5t-144.5 -66.5q-6 -3 -9 4l-8 16q-3 5 4 9q85 47 153 68.5t151 21.5q81 0 136 -21.5t85 -64t42.5 -94.5t12.5 -123v-227q0 -99 14 -159.5t46 -136.5zM353 19q95 0 174.5 49.5t122 123t42.5 149.5v82q-187 48 -313 30t-189.5 -79t-63.5 -151 t62 -147t165 -57z" />
<glyph unicode="&#xe2;" horiz-adv-x="855" d="M219 949q-10 0 -4 6l219 242q3 3 10 3h16q8 0 11 -3l219 -242q6 -6 -3 -6h-22q-8 0 -11 3l-201 223l-202 -223q-3 -3 -9 -3h-23zM788 11q3 -7 -3 -10l-12 -6q-6 -3 -9 2q-58 112 -69 240q-37 -105 -132 -176.5t-214 -71.5q-116 0 -187 67t-71 168q0 97 68.5 164.5 t202.5 89.5t330 -27v81q0 135 -52 204.5t-191 69.5q-79 0 -143.5 -21.5t-144.5 -66.5q-6 -3 -9 4l-8 16q-3 5 4 9q85 47 153 68.5t151 21.5q81 0 136 -21.5t85 -64t42.5 -94.5t12.5 -123v-227q0 -99 14 -159.5t46 -136.5zM353 19q95 0 174.5 49.5t122 123t42.5 149.5v82 q-187 48 -313 30t-189.5 -79t-63.5 -151t62 -147t165 -57z" />
<glyph unicode="&#xe3;" horiz-adv-x="855" d="M193 976q-6 0 -6 7q1 92 40 137.5t104 45.5q34 0 62.5 -16.5t48 -40t38 -47.5t43.5 -40.5t55 -16.5q55 0 86.5 39t32.5 116q0 6 6 6h12q6 0 6 -10q-1 -90 -40.5 -135t-102.5 -45q-42 0 -76 25.5t-53.5 55.5t-50.5 55.5t-67 25.5q-56 0 -87.5 -39t-32.5 -116q0 -7 -6 -7 h-12zM788 11q3 -7 -3 -10l-12 -6q-6 -3 -9 2q-58 112 -69 240q-37 -105 -132 -176.5t-214 -71.5q-116 0 -187 67t-71 168q0 97 68.5 164.5t202.5 89.5t330 -27v81q0 135 -52 204.5t-191 69.5q-79 0 -143.5 -21.5t-144.5 -66.5q-6 -3 -9 4l-8 16q-3 5 4 9q85 47 153 68.5 t151 21.5q81 0 136 -21.5t85 -64t42.5 -94.5t12.5 -123v-227q0 -99 14 -159.5t46 -136.5zM353 19q95 0 174.5 49.5t122 123t42.5 149.5v82q-187 48 -313 30t-189.5 -79t-63.5 -151t62 -147t165 -57z" />
<glyph unicode="&#xe4;" horiz-adv-x="855" d="M288 1037q-15 0 -27 12t-12 27t12 26.5t27 11.5q16 0 27 -11t11 -27q0 -15 -11.5 -27t-26.5 -12zM621 1037q-15 0 -27 12t-12 27t12 26.5t27 11.5q16 0 26.5 -11t10.5 -27q0 -15 -11 -27t-26 -12zM788 11q3 -7 -3 -10l-12 -6q-6 -3 -9 2q-58 112 -69 240 q-37 -105 -132 -176.5t-214 -71.5q-116 0 -187 67t-71 168q0 97 68.5 164.5t202.5 89.5t330 -27v81q0 135 -52 204.5t-191 69.5q-79 0 -143.5 -21.5t-144.5 -66.5q-6 -3 -9 4l-8 16q-3 5 4 9q85 47 153 68.5t151 21.5q81 0 136 -21.5t85 -64t42.5 -94.5t12.5 -123v-227 q0 -99 14 -159.5t46 -136.5zM353 19q95 0 174.5 49.5t122 123t42.5 149.5v82q-187 48 -313 30t-189.5 -79t-63.5 -151t62 -147t165 -57z" />
<glyph unicode="&#xe5;" horiz-adv-x="855" d="M454 916q-78 0 -133 54.5t-55 132.5q0 77 55.5 133t132.5 56q78 0 133.5 -56t55.5 -133q0 -78 -55.5 -132.5t-133.5 -54.5zM454 1269q-70 0 -117 -48t-47 -118q0 -69 47.5 -116.5t116.5 -47.5t116.5 47.5t47.5 116.5q0 70 -47 118t-117 48zM788 11q3 -7 -3 -10l-12 -6 q-6 -3 -9 2q-58 112 -69 240q-37 -105 -132 -176.5t-214 -71.5q-116 0 -187 67t-71 168q0 97 68.5 164.5t202.5 89.5t330 -27v81q0 135 -52 204.5t-191 69.5q-79 0 -143.5 -21.5t-144.5 -66.5q-6 -3 -9 4l-8 16q-3 5 4 9q85 47 153 68.5t151 21.5q81 0 136 -21.5t85 -64 t42.5 -94.5t12.5 -123v-227q0 -99 14 -159.5t46 -136.5zM353 19q95 0 174.5 49.5t122 123t42.5 149.5v82q-187 48 -313 30t-189.5 -79t-63.5 -151t62 -147t165 -57z" />
<glyph unicode="&#xe6;" horiz-adv-x="1574" d="M1460 226q6 -3 3 -9q-101 -228 -346 -228q-138 0 -246.5 77.5t-148.5 209.5q-26 -118 -129 -202.5t-234 -84.5q-116 0 -187 67t-71 168q0 97 68.5 164.5t202 89.5t330.5 -27v81q0 135 -52 204.5t-191 69.5q-78 0 -142 -21.5t-145 -66.5q-6 -3 -10 4l-8 16q-3 5 4 9 q85 47 153 68.5t150 21.5q141 0 202 -66t69 -189q45 119 145.5 187t229.5 68q164 0 265.5 -107t101.5 -284h-735q-1 -11 -1 -33q0 -175 111 -284t269 -109q229 0 314 211q3 6 9 3zM1107 806q-142 0 -244 -90.5t-121 -240.5h694q-7 151 -97 241t-232 90zM363 19 q95 0 174.5 49.5t122 123t42.5 149.5v82q-188 48 -313.5 30t-188.5 -79t-63 -151t61.5 -147t164.5 -57z" />
<glyph unicode="&#xe7;" horiz-adv-x="961" d="M861 227q6 -2 3 -9q-100 -229 -345 -229h-9l-48 -134q94 29 167.5 -5t73.5 -121q0 -64 -44 -103t-113 -39q-88 0 -165 43q-6 3 -3 9l5 10q3 6 9 3q82 -40 153 -40q58 0 92.5 32.5t34.5 84.5q0 77 -68 103.5t-171 -7.5q-11 -3 -7 9l56 156q-164 12 -272.5 128.5 t-108.5 294.5q0 125 56.5 223t151.5 149.5t210 51.5q245 0 345 -229q3 -7 -3 -9l-18 -8q-6 -3 -9 3q-95 212 -313 212q-163 0 -273.5 -108.5t-110.5 -284.5t110.5 -284.5t273.5 -108.5q223 0 313 212q3 6 9 3z" />
<glyph unicode="&#xe8;" horiz-adv-x="972" d="M225 1191q-6 4 -1 9l10 15q5 5 10 0l281 -237q4 -4 1 -9l-9 -11q-5 -5 -9 -1zM858 226q6 -3 3 -9q-101 -228 -345 -228q-174 0 -294.5 118t-120.5 306q0 189 116.5 306.5t288.5 117.5q164 0 265 -106.5t101 -284.5h-734q-1 -11 -1 -33q0 -175 110.5 -284t268.5 -109 q229 0 314 211q3 6 10 3zM506 806q-142 0 -244.5 -90.5t-121.5 -240.5h694q-7 151 -96.5 241t-231.5 90z" />
<glyph unicode="&#xe9;" horiz-adv-x="972" d="M450 958l-10 11q-3 5 1 9l282 237q5 5 9 0l11 -15q5 -5 -1 -9l-283 -234q-4 -4 -9 1zM858 226q6 -3 3 -9q-101 -228 -345 -228q-174 0 -294.5 118t-120.5 306q0 189 116.5 306.5t288.5 117.5q164 0 265 -106.5t101 -284.5h-734q-1 -11 -1 -33q0 -175 110.5 -284 t268.5 -109q229 0 314 211q3 6 10 3zM506 806q-142 0 -244.5 -90.5t-121.5 -240.5h694q-7 151 -96.5 241t-231.5 90z" />
<glyph unicode="&#xea;" horiz-adv-x="972" d="M247 949q-10 0 -4 6l219 242q3 3 11 3h15q8 0 11 -3l219 -242q6 -6 -3 -6h-22q-8 0 -11 3l-201 223l-202 -223q-3 -3 -9 -3h-23zM858 226q6 -3 3 -9q-101 -228 -345 -228q-174 0 -294.5 118t-120.5 306q0 189 116.5 306.5t288.5 117.5q164 0 265 -106.5t101 -284.5h-734 q-1 -11 -1 -33q0 -175 110.5 -284t268.5 -109q229 0 314 211q3 6 10 3zM506 806q-142 0 -244.5 -90.5t-121.5 -240.5h694q-7 151 -96.5 241t-231.5 90z" />
<glyph unicode="&#xeb;" horiz-adv-x="972" d="M316 1037q-15 0 -26.5 12t-11.5 27q0 16 11.5 27t26.5 11q16 0 27 -11t11 -27q0 -15 -11.5 -27t-26.5 -12zM649 1037q-15 0 -27 12t-12 27t12 26.5t27 11.5q16 0 27 -11t11 -27q0 -15 -11.5 -27t-26.5 -12zM858 226q6 -3 3 -9q-101 -228 -345 -228q-174 0 -294.5 118 t-120.5 306q0 189 116.5 306.5t288.5 117.5q164 0 265 -106.5t101 -284.5h-734q-1 -11 -1 -33q0 -175 110.5 -284t268.5 -109q229 0 314 211q3 6 10 3zM506 806q-142 0 -244.5 -90.5t-121.5 -240.5h694q-7 151 -96.5 241t-231.5 90z" />
<glyph unicode="&#xec;" horiz-adv-x="279" d="M165 957l-283 234q-6 4 -1 9l11 15q4 5 9 0l282 -237q4 -4 1 -9l-9 -11q-5 -6 -10 -1zM122 820q0 6 7 6h22q6 0 6 -6v-814q0 -6 -6 -6h-22q-7 0 -7 6v814z" />
<glyph unicode="&#xed;" horiz-adv-x="279" d="M116 957q-4 -4 -9 1l-9 11q-3 5 1 9l281 237q5 5 10 0l10 -15q5 -5 -1 -9zM122 820q0 6 7 6h22q6 0 6 -6v-814q0 -6 -6 -6h-22q-7 0 -7 6v814z" />
<glyph unicode="&#xee;" horiz-adv-x="279" d="M339 952l-201 223l-201 -223q-3 -3 -9 -3h-24q-9 0 -3 6l218 242q3 3 11 3h16q8 0 11 -3l218 -242q6 -6 -3 -6h-22q-8 0 -11 3zM122 820q0 6 7 6h22q6 0 6 -6v-814q0 -6 -6 -6h-22q-7 0 -7 6v814z" />
<glyph unicode="&#xef;" horiz-adv-x="279" d="M-27 1037q-15 0 -26.5 12t-11.5 27q0 16 11.5 27t26.5 11q16 0 27 -11t11 -27q0 -15 -11.5 -27t-26.5 -12zM306 1037q-15 0 -26.5 12t-11.5 27q0 16 11.5 27t26.5 11q16 0 27 -11t11 -27q0 -15 -11.5 -27t-26.5 -12zM122 820q0 6 7 6h22q6 0 6 -6v-814q0 -6 -6 -6h-22 q-7 0 -7 6v814z" />
<glyph unicode="&#xf0;" horiz-adv-x="1025" d="M534 1234q93 -52 165 -133t114 -167t69 -185t36.5 -179t9.5 -157q0 -188 -120.5 -306t-292.5 -118t-293 118t-121 304q0 124 56.5 221.5t150 149.5t205.5 52q120 0 218 -61.5t147 -168.5q-13 88 -37.5 169t-65.5 163.5t-106.5 153.5t-148.5 119l-100 -172q-4 -6 -9 -3 l-10 6q-6 4 -2 9l99 172q-90 47 -193 65q-9 3 -5 11l5 10q4 5 9 4q110 -19 199 -65l86 149q3 5 8 2l10 -6q6 -4 3 -9zM515 20q158 0 267.5 108.5t109.5 282.5t-109.5 282.5t-267.5 108.5t-268 -108.5t-110 -282.5q0 -173 110 -282t268 -109z" />
<glyph unicode="&#xf1;" horiz-adv-x="991" d="M256 976q-6 0 -6 7q1 92 40 137.5t104 45.5q34 0 62.5 -16.5t48 -40t38 -47.5t43.5 -40.5t55 -16.5q55 0 86.5 39t32.5 116q0 6 6 6h12q6 0 6 -10q-1 -90 -40.5 -135t-102.5 -45q-42 0 -76 25.5t-53.5 55.5t-50.5 55.5t-67 25.5q-56 0 -87.5 -39t-32.5 -116q0 -7 -6 -7 h-12zM555 846q157 0 233.5 -93t76.5 -255v-492q0 -6 -6 -6h-23q-6 0 -6 6v486q0 154 -68 238.5t-212 84.5q-156 0 -272 -110.5t-116 -251.5v-447q0 -6 -6 -6h-23q-6 0 -6 6v814q0 6 6 6h23q6 0 6 -6v-239q15 41 47 85t80.5 85.5t118.5 68t147 26.5z" />
<glyph unicode="&#xf2;" horiz-adv-x="1032" d="M542 957l-283 234q-6 4 -1 9l10 15q5 5 10 0l281 -237q4 -4 1 -9l-9 -11q-5 -5 -9 -1zM516 837q174 0 295 -118t121 -306t-121 -306t-295 -118q-173 0 -294 118t-121 306t121 306t294 118zM516 20q159 0 269.5 109t110.5 284t-110.5 284t-269.5 109q-158 0 -268.5 -109 t-110.5 -284t110.5 -284t268.5 -109z" />
<glyph unicode="&#xf3;" horiz-adv-x="1032" d="M493 957q-5 -5 -10 1l-9 11q-3 5 1 9l282 237q5 5 9 0l11 -15q5 -5 -1 -9zM516 837q174 0 295 -118t121 -306t-121 -306t-295 -118q-173 0 -294 118t-121 306t121 306t294 118zM516 20q159 0 269.5 109t110.5 284t-110.5 284t-269.5 109q-158 0 -268.5 -109t-110.5 -284 t110.5 -284t268.5 -109z" />
<glyph unicode="&#xf4;" horiz-adv-x="1032" d="M716 952l-201 223l-202 -223q-3 -3 -9 -3h-23q-10 0 -4 6l219 242q3 3 10 3h16q8 0 11 -3l219 -242q6 -6 -3 -6h-22q-8 0 -11 3zM516 837q174 0 295 -118t121 -306t-121 -306t-295 -118q-173 0 -294 118t-121 306t121 306t294 118zM516 20q159 0 269.5 109t110.5 284 t-110.5 284t-269.5 109q-158 0 -268.5 -109t-110.5 -284t110.5 -284t268.5 -109z" />
<glyph unicode="&#xf5;" horiz-adv-x="1032" d="M255 976q-6 0 -6 7q1 92 40 137.5t104 45.5q34 0 62.5 -16.5t47.5 -40t37.5 -47.5t43.5 -40.5t55 -16.5q56 0 87.5 39t32.5 116q0 6 6 6h12q6 0 6 -10q-1 -90 -41 -135t-103 -45q-34 0 -62.5 16.5t-47.5 40.5t-37.5 48t-43.5 40.5t-55 16.5q-56 0 -87.5 -39t-32.5 -116 q0 -7 -6 -7h-12zM516 837q174 0 295 -118t121 -306t-121 -306t-295 -118q-173 0 -294 118t-121 306t121 306t294 118zM516 20q159 0 269.5 109t110.5 284t-110.5 284t-269.5 109q-158 0 -268.5 -109t-110.5 -284t110.5 -284t268.5 -109z" />
<glyph unicode="&#xf6;" horiz-adv-x="1032" d="M350 1037q-15 0 -27 12t-12 27t12 26.5t27 11.5q16 0 27 -11t11 -27q0 -15 -11.5 -27t-26.5 -12zM682 1037q-15 0 -26.5 12t-11.5 27q0 16 11.5 27t26.5 11q16 0 27 -11t11 -27q0 -15 -11.5 -27t-26.5 -12zM516 837q174 0 295 -118t121 -306t-121 -306t-295 -118 q-173 0 -294 118t-121 306t121 306t294 118zM516 20q159 0 269.5 109t110.5 284t-110.5 284t-269.5 109q-158 0 -268.5 -109t-110.5 -284t110.5 -284t268.5 -109z" />
<glyph unicode="&#xf7;" horiz-adv-x="1043" d="M515 746q-15 0 -26.5 11.5t-11.5 26.5q0 16 11.5 27.5t26.5 11.5q16 0 27 -11.5t11 -27.5q0 -15 -11 -26.5t-27 -11.5zM127 521q-6 0 -6 6v17q0 6 6 6h789q7 0 7 -6v-17q0 -6 -7 -6h-789zM515 250q-15 0 -26.5 11.5t-11.5 26.5q0 16 11.5 27t26.5 11q16 0 27 -11t11 -27 q0 -15 -11 -26.5t-27 -11.5z" />
<glyph unicode="&#xf8;" horiz-adv-x="1034" d="M828 701q104 -115 104 -288q0 -188 -120.5 -306t-294.5 -118q-171 0 -288 112l-93 -92q-4 -5 -9 0l-12 11q-5 5 0 10l93 92q-107 118 -107 291q0 188 121.5 306t294.5 118t291 -115l89 88q4 4 8 0l12 -11q5 -5 0 -9zM137 413q0 -159 95 -267l552 552q-108 108 -267 108 q-158 0 -269 -109t-111 -284zM517 20q159 0 269.5 109t110.5 284q0 155 -93 264l-552 -552q108 -105 265 -105z" />
<glyph unicode="&#xf9;" horiz-adv-x="991" d="M239 1191q-6 4 -1 9l11 15q5 5 9 0l282 -237q4 -4 1 -9l-10 -11q-5 -5 -9 -1zM859 826q6 0 6 -6v-814q0 -6 -6 -6h-23q-6 0 -6 6v239q-15 -41 -47 -85t-80.5 -85.5t-118.5 -68t-147 -26.5q-157 0 -233.5 93t-76.5 255v492q0 6 6 6h23q6 0 6 -6v-486q0 -154 68 -238.5 t212 -84.5q156 0 272 110.5t116 251.5v447q0 6 6 6h23z" />
<glyph unicode="&#xfa;" horiz-adv-x="991" d="M464 958l-9 11q-3 5 1 9l281 237q5 5 9 0l11 -15q5 -5 -1 -9l-283 -234q-4 -4 -9 1zM859 826q6 0 6 -6v-814q0 -6 -6 -6h-23q-6 0 -6 6v239q-15 -41 -47 -85t-80.5 -85.5t-118.5 -68t-147 -26.5q-157 0 -233.5 93t-76.5 255v492q0 6 6 6h23q6 0 6 -6v-486 q0 -154 68 -238.5t212 -84.5q156 0 272 110.5t116 251.5v447q0 6 6 6h23z" />
<glyph unicode="&#xfb;" horiz-adv-x="991" d="M261 949q-9 0 -3 6l218 242q3 3 11 3h16q8 0 11 -3l218 -242q6 -6 -3 -6h-22q-8 0 -11 3l-201 223l-202 -223q-3 -3 -8 -3h-24zM859 826q6 0 6 -6v-814q0 -6 -6 -6h-23q-6 0 -6 6v239q-15 -41 -47 -85t-80.5 -85.5t-118.5 -68t-147 -26.5q-157 0 -233.5 93t-76.5 255v492 q0 6 6 6h23q6 0 6 -6v-486q0 -154 68 -238.5t212 -84.5q156 0 272 110.5t116 251.5v447q0 6 6 6h23z" />
<glyph unicode="&#xfc;" horiz-adv-x="991" d="M330 1037q-15 0 -26.5 12t-11.5 27q0 16 11.5 27t26.5 11q16 0 27 -11t11 -27q0 -15 -11.5 -27t-26.5 -12zM663 1037q-15 0 -26.5 12t-11.5 27q0 16 11.5 27t26.5 11q16 0 27 -11t11 -27q0 -15 -11.5 -27t-26.5 -12zM859 826q6 0 6 -6v-814q0 -6 -6 -6h-23q-6 0 -6 6v239 q-15 -41 -47 -85t-80.5 -85.5t-118.5 -68t-147 -26.5q-157 0 -233.5 93t-76.5 255v492q0 6 6 6h23q6 0 6 -6v-486q0 -154 68 -238.5t212 -84.5q156 0 272 110.5t116 251.5v447q0 6 6 6h23z" />
<glyph unicode="&#xfd;" horiz-adv-x="822" d="M378 958l-9 11q-3 5 1 9l282 237q4 5 9 0l11 -15q5 -5 -1 -9l-283 -234q-4 -5 -10 1zM787 826q11 0 5 -12l-359 -820q-54 -130 -95.5 -212.5t-88.5 -146.5t-96.5 -92t-109.5 -28q-7 0 -7 7v17q0 6 6 6q96 1 176 105.5t183 351.5l-370 812q-6 12 4 12h22q7 0 10 -7 l350 -780l340 780q4 7 9 7h21z" />
<glyph unicode="&#xfe;" horiz-adv-x="1056" d="M542 837q172 0 292.5 -118t120.5 -306t-120.5 -306t-292.5 -118q-133 0 -235 74.5t-145 197.5v-740q0 -6 -6 -6h-23q-6 0 -6 6v1299v485q0 6 6 6h23q6 0 6 -6v-700v-40q43 123 145 197.5t235 74.5zM540 20q159 0 269.5 109t110.5 284t-110.5 283.5t-269.5 108.5 q-160 0 -270 -115.5t-110 -276.5t110 -277t270 -116z" />
<glyph unicode="&#xff;" horiz-adv-x="822" d="M245 1037q-15 0 -27 12t-12 27t12 26.5t27 11.5q16 0 27 -11t11 -27q0 -15 -11.5 -27t-26.5 -12zM578 1037q-15 0 -27 12t-12 27t12 26.5t27 11.5q16 0 26.5 -11t10.5 -27q0 -15 -11 -27t-26 -12zM787 826q11 0 5 -12l-359 -820q-54 -130 -95.5 -212.5t-88.5 -146.5 t-96.5 -92t-109.5 -28q-7 0 -7 7v17q0 6 6 6q96 1 176 105.5t183 351.5l-370 812q-6 12 4 12h22q7 0 10 -7l350 -780l340 780q4 7 9 7h21z" />
<glyph unicode="&#x152;" horiz-adv-x="1946" d="M1859 31q6 0 6 -6v-19q0 -6 -6 -6h-1032q-52 -9 -109 -9q-123 0 -233.5 45t-193.5 126t-131.5 201.5t-48.5 263.5t48.5 263.5t131.5 201.5t193.5 126t233.5 45q65 0 130 -14h991q6 0 6 -6v-19q0 -6 -6 -6h-888q159 -64 260 -207t112 -340h434q6 0 6 -6v-19q0 -7 -6 -7 h-433v-12q0 -216 -105.5 -373t-277.5 -223h918zM147 627q0 -134 46 -248.5t123.5 -191.5t181.5 -120.5t220 -43.5t220 43.5t181.5 120.5t123.5 191.5t46 248.5t-46 248.5t-123.5 191.5t-181.5 120.5t-220 43.5t-220 -43.5t-181.5 -120.5t-123.5 -191.5t-46 -248.5z" />
<glyph unicode="&#x153;" horiz-adv-x="1772" d="M1657 226q5 -3 3 -9q-101 -228 -345 -228q-141 0 -251.5 82t-147.5 219q-37 -137 -148 -219t-252 -82q-173 0 -294 118t-121 306t121 306t294 118q141 0 251 -81t148 -218q36 138 142.5 218.5t247.5 80.5q164 0 265 -106.5t101 -284.5h-734q-1 -11 -1 -33 q0 -175 110.5 -284t268.5 -109q230 0 315 211q3 6 9 3zM1305 806q-142 0 -244 -90.5t-121 -240.5h693q-7 151 -96.5 241t-231.5 90zM516 20q159 0 269.5 109t110.5 284t-110.5 284t-269.5 109q-158 0 -268.5 -109t-110.5 -284t110.5 -284t268.5 -109z" />
<glyph unicode="&#x178;" horiz-adv-x="1146" d="M407 1461q-15 0 -26.5 11.5t-11.5 26.5q0 16 11.5 27t26.5 11q16 0 27 -11t11 -27q0 -15 -11 -26.5t-27 -11.5zM740 1461q-15 0 -27 11.5t-12 26.5t12 26.5t27 11.5q16 0 27 -11t11 -27q0 -15 -11 -26.5t-27 -11.5zM1091 1249q10 0 6 -6l-506 -787v-450q0 -6 -6 -6h-23 q-7 0 -7 6v449l-515 788q-4 6 6 6h25q6 0 9 -5l493 -756l485 756q3 5 10 5h23z" />
<glyph unicode="&#x2c6;" horiz-adv-x="479" d="M441 952l-201 223l-202 -223q-3 -3 -8 -3h-24q-9 0 -3 6l218 242q3 3 11 3h16q8 0 11 -3l218 -242q6 -6 -3 -6h-22q-8 0 -11 3z" />
<glyph unicode="&#x2dc;" horiz-adv-x="583" d="M533 1166q6 0 6 -10q-1 -90 -41 -135t-103 -45q-42 0 -76 25.5t-53.5 55.5t-50.5 55.5t-67 25.5q-55 0 -86.5 -39t-32.5 -116q0 -7 -6 -7h-12q-6 0 -6 7q1 92 40 137.5t103 45.5q34 0 62.5 -16.5t48 -40t38 -47.5t43.5 -40.5t55 -16.5q56 0 87.5 39t32.5 116q0 6 6 6h12z " />
<glyph unicode="&#x2000;" horiz-adv-x="820" />
<glyph unicode="&#x2001;" horiz-adv-x="1641" />
<glyph unicode="&#x2002;" horiz-adv-x="820" />
<glyph unicode="&#x2003;" horiz-adv-x="1641" />
<glyph unicode="&#x2004;" horiz-adv-x="547" />
<glyph unicode="&#x2005;" horiz-adv-x="410" />
<glyph unicode="&#x2006;" horiz-adv-x="273" />
<glyph unicode="&#x2007;" horiz-adv-x="273" />
<glyph unicode="&#x2008;" horiz-adv-x="205" />
<glyph unicode="&#x2009;" horiz-adv-x="328" />
<glyph unicode="&#x200a;" horiz-adv-x="91" />
<glyph unicode="&#x2010;" horiz-adv-x="847" d="M127 468q-6 0 -6 7v19q0 6 6 6h593q7 0 7 -6v-19q0 -7 -7 -7h-593z" />
<glyph unicode="&#x2011;" horiz-adv-x="847" d="M127 468q-6 0 -6 7v19q0 6 6 6h593q7 0 7 -6v-19q0 -7 -7 -7h-593z" />
<glyph unicode="&#x2012;" horiz-adv-x="847" d="M127 468q-6 0 -6 7v19q0 6 6 6h593q7 0 7 -6v-19q0 -7 -7 -7h-593z" />
<glyph unicode="&#x2013;" horiz-adv-x="910" d="M10 470q-6 0 -6 6v17q0 6 6 6h891q7 0 7 -6v-17q0 -6 -7 -6h-891z" />
<glyph unicode="&#x2014;" horiz-adv-x="1525" d="M10 470q-6 0 -6 6v17q0 6 6 6h1506q6 0 6 -6v-17q0 -6 -6 -6h-1506z" />
<glyph unicode="&#x2018;" horiz-adv-x="328" d="M160 1068q-16 0 -27 12.5t-11 36.5q0 51 19.5 113t68.5 110q6 6 11 0l4 -5q5 -5 0 -9q-65 -67 -65 -157q0 -12 3.5 -17.5t14.5 -11.5q21 -11 21 -34q0 -16 -11.5 -27t-27.5 -11z" />
<glyph unicode="&#x2019;" horiz-adv-x="328" d="M168 1321q16 0 27.5 -12.5t11.5 -35.5q0 -50 -20 -113t-69 -111q-4 -5 -10 1l-5 4q-4 4 1 9q29 30 47 72.5t18 85.5q0 12 -3.5 17t-14.5 11q-21 11 -21 34q0 16 11 27t27 11z" />
<glyph unicode="&#x201a;" horiz-adv-x="328" d="M168 66q16 0 27.5 -13t11.5 -36q0 -50 -20 -113t-69 -111q-4 -5 -10 1l-5 4q-4 4 1 9q29 30 47 72.5t18 85.5q0 12 -3.5 17t-14.5 11q-21 11 -21 34q0 16 11 27.5t27 11.5z" />
<glyph unicode="&#x201c;" horiz-adv-x="498" d="M160 1068q-16 0 -27 12.5t-11 36.5q0 51 19.5 113t68.5 110q6 6 11 0l4 -5q5 -5 0 -9q-65 -67 -65 -157q0 -12 3.5 -17.5t14.5 -11.5q21 -11 21 -34q0 -16 -11.5 -27t-27.5 -11zM330 1068q-16 0 -27 12.5t-11 36.5q0 51 19.5 113t68.5 110q6 6 11 0l4 -5q5 -5 0 -9 q-65 -67 -65 -157q0 -12 3.5 -17.5t14.5 -11.5q21 -11 21 -34q0 -16 -11.5 -27t-27.5 -11z" />
<glyph unicode="&#x201d;" horiz-adv-x="498" d="M168 1321q16 0 27.5 -12.5t11.5 -35.5q0 -50 -20 -113t-69 -111q-4 -5 -10 1l-5 4q-4 4 1 9q29 30 47 72.5t18 85.5q0 12 -3.5 17t-14.5 11q-21 11 -21 34q0 16 11 27t27 11zM338 1321q16 0 27.5 -12.5t11.5 -35.5q0 -50 -20 -113t-69 -111q-4 -5 -10 1l-5 4q-4 4 1 9 q29 30 47 72.5t18 85.5q0 12 -3.5 17t-14.5 11q-21 11 -21 34q0 16 11 27t27 11z" />
<glyph unicode="&#x201e;" horiz-adv-x="498" d="M168 66q16 0 27.5 -13t11.5 -36q0 -50 -20 -113t-69 -111q-4 -5 -10 1l-5 4q-4 4 1 9q29 30 47 72.5t18 85.5q0 12 -3.5 17t-14.5 11q-21 11 -21 34q0 16 11 27.5t27 11.5zM338 66q16 0 27.5 -13t11.5 -36q0 -50 -20 -113t-69 -111q-4 -5 -10 1l-5 4q-4 4 1 9 q29 30 47 72.5t18 85.5q0 12 -3.5 17t-14.5 11q-21 11 -21 34q0 16 11 27.5t27 11.5z" />
<glyph unicode="&#x2022;" horiz-adv-x="436" d="M226 334q-42 0 -73.5 32t-31.5 74q0 43 31.5 74t73.5 31q43 0 74 -31t31 -74q0 -42 -31.5 -74t-73.5 -32z" />
<glyph unicode="&#x2026;" horiz-adv-x="838" d="M160 -11q-15 0 -26.5 11.5t-11.5 26.5q0 16 11.5 27.5t26.5 11.5q16 0 27.5 -11.5t11.5 -27.5q0 -15 -11.5 -26.5t-27.5 -11.5zM419 -11q-15 0 -27 11.5t-12 26.5q0 16 12 27.5t27 11.5q16 0 27 -11.5t11 -27.5q0 -15 -11 -26.5t-27 -11.5zM677 -11q-15 0 -26.5 11.5 t-11.5 26.5q0 16 11.5 27.5t26.5 11.5q16 0 27.5 -11.5t11.5 -27.5q0 -15 -11.5 -26.5t-27.5 -11.5z" />
<glyph unicode="&#x202f;" horiz-adv-x="328" />
<glyph unicode="&#x2039;" horiz-adv-x="587" d="M466 672q0 -4 -2 -5l-317 -242l317 -242q2 -1 2 -5v-14q0 -4 -4 -5.5t-8 1.5l-330 252q-3 2 -3 4v18q0 2 3 4l330 252q4 3 8 1.5t4 -5.5v-14z" />
<glyph unicode="&#x203a;" horiz-adv-x="587" d="M464 438q2 -1 2 -4v-18q0 -3 -2 -4l-330 -252q-4 -3 -8.5 -1.5t-4.5 5.5v14q0 3 3 5l316 242l-316 242q-3 2 -3 5v14q0 4 4.5 5.5t8.5 -1.5z" />
<glyph unicode="&#x205f;" horiz-adv-x="410" />
<glyph unicode="&#x20ac;" horiz-adv-x="1487" d="M1383 323q6 -3 3 -10q-161 -324 -502 -324q-215 0 -379.5 129t-212.5 348h-196v28h191q-11 64 -11 131q0 70 12 133h-192v29h197q49 218 213 346t378 128q340 0 502 -325q3 -6 -3 -9l-17 -8q-6 -3 -9 3q-153 307 -473 307q-199 0 -352 -120t-201 -322h735l-26 -29h-715 q-12 -63 -12 -133q0 -69 12 -131h687l-25 -28h-657q47 -204 201 -325t353 -121q319 0 473 308q3 6 9 3z" />
<glyph unicode="&#x2122;" horiz-adv-x="1716" d="M1586 1263q4 0 4 -4v-781q0 -3 -4 -3h-15q-4 0 -4 3v730l-347 -564q-3 -6 -7 0l-347 564v-730q0 -3 -4 -3h-15q-3 0 -3 3v781q0 4 3 4h4q3 0 7 -5l359 -580l358 580q4 5 7 5h4zM711 1250q4 0 4 -3v-12q0 -4 -4 -4h-299v-753q0 -3 -4 -3h-15q-4 0 -4 3v753h-299q-3 0 -3 4 v12q0 3 3 3h318h303z" />
<glyph unicode="&#x25fc;" horiz-adv-x="826" d="M0 827h827v-827h-827v827z" />
</font>
</defs>
</svg>
