<?xml version="1.0" standalone="no"?>
<!DOCTYPE svg PUBLIC "-//W3C//DTD SVG 1.1//EN" "http://www.w3.org/Graphics/SVG/1.1/DTD/svg11.dtd" >
<svg xmlns="http://www.w3.org/2000/svg">
<metadata></metadata>
<defs>
<font id="migrena_grotesqueultraLtIt" horiz-adv-x="1450" >
<font-face units-per-em="2048" ascent="1638" descent="-410" />
<missing-glyph horiz-adv-x="384" />
<glyph horiz-adv-x="0" />
<glyph horiz-adv-x="682" />
<glyph unicode=" "  horiz-adv-x="384" />
<glyph unicode="&#x09;" horiz-adv-x="384" />
<glyph unicode="&#xa0;" horiz-adv-x="384" />
<glyph unicode="!" horiz-adv-x="348" d="M256 1239q2 10 12 10h42q11 0 9 -10l-138 -928q-2 -10 -12 -10h-26q-11 0 -9 10zM113 -13q-19 0 -32.5 14t-13.5 34q0 24 19 41.5t43 17.5q19 0 32.5 -13.5t13.5 -33.5q0 -24 -19 -42t-43 -18z" />
<glyph unicode="&#x22;" horiz-adv-x="567" d="M244 1274q2 11 13 11h35q5 0 8 -3.5t2 -7.5l-59 -367q-3 -10 -13 -10h-23q-10 0 -8 10zM506 1274q2 11 13 11h35q5 0 8 -3.5t2 -7.5l-59 -367q-3 -10 -12 -10h-23q-11 0 -9 10z" />
<glyph unicode="#" horiz-adv-x="1287" d="M1210 822q11 0 9 -10l-9 -36q-2 -11 -13 -11h-221l-90 -373h212q5 0 7 -3.5t1 -7.5l-7 -36q-3 -10 -14 -10h-212l-78 -324q-4 -11 -13 -11h-43q-11 0 -7 11l77 324h-402l-78 -324q-2 -11 -13 -11h-43q-11 0 -7 11l78 324h-222q-10 0 -8 10l8 36q4 11 13 11h222l89 373 h-213q-10 0 -8 11l8 36q3 10 14 10h213l78 324q4 11 13 11h42q5 0 7 -3.5t1 -7.5l-78 -324h403l78 324q4 11 13 11h42q5 0 7 -3.5t1 -7.5l-78 -324h221zM823 392l89 373h-402l-90 -373h403z" />
<glyph unicode="$" horiz-adv-x="1115" d="M1068 1149q9 -6 2 -16l-20 -34q-7 -11 -19 -2q-154 109 -346 109q-193 0 -300 -80.5t-107 -213.5q0 -59 31 -102t81.5 -67t115 -45.5t131.5 -36t131.5 -39.5t115 -55.5t81.5 -84.5t31 -126q0 -91 -39 -162t-106 -114t-148 -65.5t-174 -26.5l-29 -204q-2 -11 -13 -11h-29 q-5 0 -8 3.5t-2 7.5l29 203q-242 6 -403 139q-10 8 -4 18l20 32q8 11 18 3q81 -65 172 -100t224 -35q85 0 158.5 17.5t133.5 52t94.5 94t34.5 136.5q0 74 -39.5 125.5t-102.5 79t-139 48.5t-152.5 42.5t-139.5 51t-102.5 83.5t-39.5 132q0 154 118.5 251t327.5 105l26 185 q2 10 12 10h30q12 0 10 -10l-26 -185q118 -3 202.5 -33.5t157.5 -79.5z" />
<glyph unicode="%" horiz-adv-x="1632" d="M1258 1278q9 -4 3 -14l-781 -1303q-6 -9 -15 -6l-27 14q-8 5 -3 14l781 1303q6 10 15 5zM735 871q-25 -179 -118 -285.5t-219 -106.5t-189 106.5t-38 285.5q24 178 117.5 284.5t219.5 106.5t189 -106.5t38 -284.5zM405 531q105 0 177 91t95 249q22 157 -24 248t-152 91 q-105 0 -177.5 -91.5t-94.5 -247.5q-23 -157 24 -248.5t152 -91.5zM1292 770q127 0 190 -106.5t38 -284.5q-24 -179 -117.5 -285.5t-219.5 -106.5q-127 0 -190 106.5t-38 285.5q25 178 118 284.5t219 106.5zM1190 39q106 0 178 91.5t94 248.5t-24.5 248t-152.5 91 q-105 0 -177.5 -91.5t-94.5 -247.5q-22 -157 25 -248.5t152 -91.5z" />
<glyph unicode="&#x26;" horiz-adv-x="1156" d="M1059 597q9 -3 6 -13q-79 -210 -191 -353l166 -206q6 -8 1.5 -16.5t-14.5 -8.5h-39q-8 0 -12 6l-143 176q-184 -202 -426 -202q-149 0 -238.5 77t-89.5 204q0 137 88 241t252 191q-91 129 -91 250q0 151 104 235t259 84q73 0 132.5 -22.5t123.5 -71.5q8 -5 1 -14l-21 -31 q-7 -11 -16 -4q-101 89 -229 89q-130 0 -208.5 -67.5t-78.5 -188.5q0 -128 112 -267l331 -410q98 128 173 321q3 11 15 9zM417 37q212 0 381 188l-347 426q-157 -84 -229.5 -172t-72.5 -207q0 -107 71.5 -171t196.5 -64z" />
<glyph unicode="'" horiz-adv-x="305" d="M244 1274q2 11 13 11h35q5 0 8 -3.5t2 -7.5l-59 -367q-3 -10 -13 -10h-23q-10 0 -8 10z" />
<glyph unicode="(" horiz-adv-x="523" d="M179 313q0 -159 36 -316t103 -286q5 -8 -5 -14l-23 -12q-9 -4 -12 2q-75 128 -114.5 295.5t-39.5 339.5q0 517 380 982q7 7 14 2l20 -12q8 -5 1 -13q-180 -228 -270 -464.5t-90 -503.5z" />
<glyph unicode=")" horiz-adv-x="524" d="M268 1304q73 -136 112 -305.5t39 -341.5q0 -266 -94 -514.5t-284 -455.5q-6 -6 -13 -2l-20 12q-9 5 -2 14q359 423 359 955q0 164 -35.5 324t-102.5 291q-5 8 5 13l23 12q8 5 13 -2z" />
<glyph unicode="*" horiz-adv-x="851" d="M849 1285q2 -8 -8 -12l-266 -83l127 -216q5 -6 -4 -13l-28 -19q-9 -6 -14 2l-126 216l-187 -216q-6 -8 -14 -2l-23 19q-8 6 -1 13l188 216l-243 83q-9 4 -4 12l14 30q4 10 13 6l242 -82l38 267q2 10 11 10h32q10 0 8 -10l-38 -267l-30 -36l31 36l266 82q9 4 11 -6z" />
<glyph unicode="+" horiz-adv-x="1047" d="M940 566q11 0 9 -11l-4 -31q-2 -10 -13 -10h-369l-52 -370q-2 -10 -12 -10h-31q-11 0 -9 10l52 370h-369q-11 0 -9 10l4 31q2 11 12 11h370l51 369q2 11 12 11h31q11 0 9 -11l-52 -369h370z" />
<glyph unicode="," horiz-adv-x="353" d="M133 94q19 0 32 -13t13 -40q0 -56 -40 -132.5t-105 -127.5q-8 -7 -15 2l-5 5q-4 7 4 15q40 35 65.5 80.5t25.5 84.5q0 18 -17 28q-20 13 -20 37t19 42.5t43 18.5z" />
<glyph unicode="-" horiz-adv-x="868" d="M135 460q-5 0 -8 3.5t-2 7.5l5 35q2 11 13 11h611q10 0 8 -11l-4 -35q-2 -11 -12 -11h-611z" />
<glyph unicode="." horiz-adv-x="348" d="M113 -13q-19 0 -32.5 14t-13.5 34q0 24 19 41.5t43 17.5q19 0 32.5 -13.5t13.5 -33.5q0 -24 -19 -42t-43 -18z" />
<glyph unicode="/" horiz-adv-x="754" d="M799 1339q5 10 15 6l27 -14q9 -4 3 -14l-823 -1356q-5 -10 -15 -6l-27 14q-10 4 -4 14z" />
<glyph unicode="0" horiz-adv-x="1126" d="M681 1262q205 0 306.5 -172.5t60.5 -464.5t-191 -465t-355 -173t-306 173t-60 465t190.5 464.5t354.5 172.5zM510 44q179 0 305 158t164 423q37 265 -45 422.5t-261 157.5q-178 0 -304 -157.5t-164 -422.5q-37 -265 45 -423t260 -158z" />
<glyph unicode="1" horiz-adv-x="760" d="M614 1249q11 0 9 -10l-172 -1228q-2 -11 -13 -11h-44q-11 0 -9 11l164 1171l-275 -134q-10 -7 -14 5l-11 31q-3 8 8 14l304 148q6 3 17 3h36z" />
<glyph unicode="2" horiz-adv-x="1054" d="M977 933q-13 -97 -68.5 -194t-161 -206t-241 -220t-334.5 -256h716q5 0 8 -3.5t2 -7.5l-5 -35q-2 -11 -12 -11h-823q-10 0 -8 11l2 14q2 11 6 13q428 306 628 512.5t224 377.5q19 129 -47 203t-215 74q-199 0 -390 -183q-10 -10 -18 3l-19 26q-5 6 7 16q204 195 437 195 q177 0 255 -90t57 -239z" />
<glyph unicode="3" horiz-adv-x="1067" d="M656 645q152 -22 227 -94t75 -187q0 -174 -129.5 -275.5t-343.5 -101.5q-266 0 -414 195q-9 10 -2 17l28 28q11 11 18 2q140 -185 374 -185q183 0 293 82.5t110 230.5q0 120 -97.5 189.5t-310.5 70.5q-11 0 -9 11l4 26q2 11 12 11q217 1 333 93.5t116 231.5 q0 104 -68.5 159.5t-205.5 55.5q-201 0 -386 -169q-10 -8 -18 3l-18 25q-5 7 7 17q197 181 433 181q161 0 241.5 -70.5t80.5 -190.5q0 -132 -91 -226.5t-259 -129.5z" />
<glyph unicode="4" horiz-adv-x="1117" d="M1022 375q5 0 8 -3.5t2 -7.5l-5 -35q-2 -11 -13 -11h-210l-44 -307q-2 -11 -12 -11h-45q-11 0 -9 11l44 307h-680q-11 0 -9 11l4 32q0 3 3 7l813 875q6 6 17 6h38q11 0 9 -10l-122 -864h211zM138 375h607l109 773z" />
<glyph unicode="5" horiz-adv-x="1086" d="M1016 1249q11 0 9 -10l-5 -36q-2 -11 -12 -11h-601l-135 -526q153 78 316 78q110 -1 195.5 -37.5t137.5 -112t52 -181.5q0 -133 -68 -231t-179 -146.5t-248 -48.5q-142 0 -235.5 48t-162.5 137q-9 10 -3 16l28 29q11 11 19 2q134 -175 359 -175q180 0 302 95t122 266 q0 133 -93 209.5t-242 76.5q-161 0 -326 -87q-4 -3 -7 -1l-34 15q-5 3 -4 10l154 611q2 10 13 10h648z" />
<glyph unicode="6" horiz-adv-x="1064" d="M604 782q178 0 275 -112t73 -283q-24 -172 -160 -286t-320 -114q-186 0 -289 118.5t-77 306.5q56 399 269.5 624.5t555.5 225.5q12 0 10 -11l-5 -35q-2 -11 -12 -11q-284 -1 -468 -170t-261 -485q64 104 172.5 168t236.5 64zM479 44q155 0 270 98.5t135 244.5 q21 148 -61.5 243t-239.5 95q-154 0 -273 -102t-138 -236q-20 -146 66 -244.5t241 -98.5z" />
<glyph unicode="7" horiz-adv-x="1058" d="M265 0q-8 0 -10 6t2 13l714 1173h-774q-11 0 -9 11l5 36q2 10 12 10h845q11 0 9 -10l-2 -14q-1 -9 -6 -14l-733 -1206q-3 -5 -9 -5h-44z" />
<glyph unicode="8" horiz-adv-x="1077" d="M698 656q111 -24 186 -96.5t75 -190.5q0 -171 -133.5 -276.5t-347.5 -105.5q-178 0 -281.5 81.5t-103.5 219.5q0 80 31 146t83.5 109.5t112 71t126.5 41.5q-96 22 -163 87t-67 169q0 147 123.5 248.5t317.5 101.5q163 0 258 -80t95 -202q0 -69 -28 -127t-75 -96.5 t-99.5 -63.5t-109.5 -37zM280 914q0 -103 82.5 -166.5t213.5 -63.5q154 0 261 80.5t107 205.5q0 103 -80 170.5t-214 67.5q-160 0 -265 -85.5t-105 -208.5zM486 44q179 0 293 91t114 234q0 116 -88 186.5t-238 70.5q-179 0 -293 -91t-114 -234q0 -116 88 -186.5t238 -70.5z " />
<glyph unicode="9" horiz-adv-x="1041" d="M639 1262q181 0 280 -118.5t73 -306.5q-26 -184 -89.5 -335.5t-163 -264t-242.5 -175t-316 -62.5q-11 0 -9 11l4 35q2 11 12 11q281 1 460.5 169.5t254.5 467.5q-63 -102 -168.5 -164.5t-227.5 -62.5q-172 0 -266.5 112t-70.5 284t157 285.5t312 113.5zM528 524 q148 0 264 102.5t135 236.5q20 146 -63.5 244t-232.5 98q-150 0 -261 -98t-131 -244q-21 -148 58.5 -243.5t230.5 -95.5z" />
<glyph unicode=":" horiz-adv-x="348" d="M220 745q-19 0 -32.5 14t-13.5 34q0 24 18.5 41.5t42.5 17.5q19 0 33 -14t14 -34q0 -24 -19 -41.5t-43 -17.5zM113 -13q-19 0 -32.5 14t-13.5 34q0 24 19 41.5t43 17.5q19 0 32.5 -13.5t13.5 -33.5q0 -24 -19 -42t-43 -18z" />
<glyph unicode=";" horiz-adv-x="353" d="M224 745q-19 0 -32.5 14t-13.5 34q0 24 18.5 41.5t42.5 17.5q19 0 33 -14t14 -34q0 -24 -19 -41.5t-43 -17.5zM133 94q19 0 32 -13t13 -40q0 -56 -40 -132.5t-105 -127.5q-8 -7 -15 2l-5 5q-4 7 4 15q40 35 65.5 80.5t25.5 84.5q0 18 -17 28q-20 13 -20 37t19 42.5 t43 18.5z" />
<glyph unicode="&#x3c;" horiz-adv-x="1047" d="M994 874q-1 -4 -13 -10l-785 -333l691 -332q11 -5 10 -11l-6 -42q-2 -13 -11 -8l-741 359q-9 5 -8 12l6 44q1 8 11 13l842 358q4 2 7 -0.5t2 -7.5z" />
<glyph unicode="=" horiz-adv-x="1105" d="M180 697q-5 0 -8 3.5t-2 7.5l5 30q2 11 12 11h790q5 0 8 -3.5t2 -7.5l-5 -30q-2 -11 -12 -11h-790zM128 329q-5 0 -8 3.5t-2 7.5l5 31q2 10 12 10h791q10 0 8 -10l-3 -31q-2 -11 -12 -11h-791z" />
<glyph unicode="&#x3e;" horiz-adv-x="1048" d="M182 874l6 42q1 5 4.5 7.5t7.5 0.5l740 -358q10 -5 9 -13l-6 -44q-1 -6 -13 -12l-840 -359q-4 -2 -8 0.5t-3 7.5l7 42q1 6 12 11l786 332l-693 333q-10 6 -9 10z" />
<glyph unicode="?" horiz-adv-x="867" d="M841 991q0 103 -63.5 158.5t-187.5 55.5q-186 0 -351 -141q-11 -8 -18 3l-17 26q-5 7 7 17q91 72 184 112t209 40q145 0 225 -71t80 -194q0 -69 -20.5 -126.5t-55 -98.5t-76.5 -78.5t-87.5 -75.5t-86 -79.5t-74.5 -100t-50 -128.5q-1 -9 -10 -9h-32q-10 0 -8 10 q14 70 46 130.5t71 104t83 83.5t84.5 77.5t74 77.5t53.5 92.5t20 114.5zM397 -13q-19 0 -32.5 14t-13.5 34q0 24 19 41.5t43 17.5q19 0 32.5 -13.5t13.5 -33.5q0 -24 -19 -42t-43 -18z" />
<glyph unicode="@" horiz-adv-x="1633" d="M1033 -279q-1 -7 -9 -9q-164 -36 -290 -36q-132 0 -240.5 35t-182 94.5t-124 141.5t-73.5 174t-23 194q0 228 111.5 410.5t300 281.5t415.5 99q286 0 455.5 -149t169.5 -430q0 -96 -21.5 -188.5t-60.5 -168.5t-102.5 -123t-139.5 -47q-197 0 -182 250 q-12 -38 -39.5 -79.5t-67 -80.5t-94.5 -64.5t-113 -25.5q-118 0 -193 75t-75 234q0 214 123 357.5t315 142.5q94 -1 233 -38q9 -2 7 -11l-45 -473q-11 -119 19.5 -179.5t116.5 -60.5q65 0 117 43t83 113.5t47.5 153t16.5 167.5q0 266 -152 400t-421 134q-158 0 -299 -54.5 t-245 -150.5t-164.5 -235.5t-60.5 -300.5q0 -94 20 -179t65.5 -161t113 -131t168 -87.5t225.5 -33.5q123 -1 282 34q6 2 10.5 -1.5t3.5 -9.5zM732 45q118 0 209.5 102.5t106.5 264.5l31 320q-103 33 -191 33q-111 0 -198 -62t-133 -165t-46 -227q0 -140 61 -203t160 -63z " />
<glyph unicode="A" horiz-adv-x="1236" d="M1142 12q4 -12 -10 -12h-52q-9 0 -12 9l-125 428h-638l-251 -428q-5 -9 -14 -9h-52q-15 0 -8 12l739 1249q5 9 14 9h21q9 0 12 -9zM336 492h591l-197 674z" />
<glyph unicode="B" horiz-adv-x="1164" d="M761 643q131 -5 213.5 -77.5t82.5 -195.5q0 -160 -125.5 -265t-360.5 -105h-466h-29q-11 0 -9 11l172 1228q2 10 12 10h45h413q196 0 292.5 -73t96.5 -199q0 -100 -48.5 -175.5t-123 -113.5t-165.5 -45zM298 1192l-73 -523h416q196 0 292 80.5t96 218.5q0 224 -338 224 h-393zM569 57q216 0 318 88t102 227q0 112 -85 177t-261 65h-425l-78 -557h429z" />
<glyph unicode="C" horiz-adv-x="1331" d="M1214 327q10 -5 4 -15q-207 -325 -553 -325q-149 0 -269.5 66.5t-192 193t-71.5 291.5q0 159 60.5 297t160.5 230.5t228 144.5t263 52q343 0 461 -325q4 -10 -7 -15l-36 -16q-11 -6 -15 5q-106 294 -411 294q-123 0 -238 -48.5t-203 -134t-140.5 -210.5t-52.5 -268 q0 -224 133 -362t338 -138q303 0 494 294q7 11 16 6z" />
<glyph unicode="D" horiz-adv-x="1279" d="M655 1249q118 0 218.5 -36t174.5 -103t115.5 -169t41.5 -227q0 -132 -38.5 -247t-106.5 -199.5t-159 -145.5t-198.5 -91.5t-223.5 -30.5h-376h-27q-11 0 -9 11l172 1228q2 10 12 10h45h359zM482 57q133 0 251.5 45.5t208 127.5t142 205.5t52.5 271.5q0 225 -137 355 t-357 130h-344l-158 -1135h342z" />
<glyph unicode="E" horiz-adv-x="1087" d="M1069 1249q11 0 9 -10l-4 -36q-4 -11 -13 -11h-763l-71 -511h680q11 0 9 -11l-4 -36q-3 -10 -12 -10h-681l-79 -567h782q11 0 9 -11l-4 -35q-4 -11 -13 -11h-810h-28q-11 0 -9 11l172 1228q2 10 12 10h45h773z" />
<glyph unicode="F" horiz-adv-x="1036" d="M1049 1249q11 0 9 -10l-5 -36q-4 -11 -12 -11h-743l-79 -572h700q11 0 9 -11l-4 -36q-3 -10 -13 -10h-701l-77 -552q-2 -11 -13 -11h-44q-11 0 -9 11l172 1228q2 10 12 10h45h753z" />
<glyph unicode="G" horiz-adv-x="1357" d="M1240 545q11 0 9 -10l-56 -393q-133 -82 -256 -118.5t-272 -36.5t-269.5 66.5t-192 193t-71.5 291.5q0 159 60.5 297t160.5 230.5t228 144.5t263 52q169 0 277.5 -69t182.5 -219q5 -9 -7 -15l-37 -16q-9 -4 -14 6q-65 134 -162.5 195t-247.5 61q-123 0 -238 -48.5 t-203 -134t-140.5 -210.5t-52.5 -268q0 -224 133 -362t338 -138q129 0 236.5 28t226.5 96l52 367q2 10 12 10h40z" />
<glyph unicode="H" horiz-adv-x="1271" d="M1253 1249q12 0 10 -10l-172 -1228q-2 -11 -13 -11h-45q-10 0 -8 11l86 613h-892l-86 -613q-2 -11 -13 -11h-44q-11 0 -9 11l172 1228q2 10 12 10h45q11 0 9 -10l-78 -558h891l79 558q2 10 12 10h44z" />
<glyph unicode="I" horiz-adv-x="314" d="M239 1239q2 10 12 10h45q11 0 9 -10l-172 -1228q-2 -11 -13 -11h-44q-11 0 -9 11z" />
<glyph unicode="J" horiz-adv-x="907" d="M889 1249q12 0 10 -10l-121 -860q-27 -191 -138.5 -291.5t-290.5 -100.5q-239 0 -323 227q-5 11 6 16l39 17q11 5 15 -6q72 -197 269 -197q310 0 357 340l121 855q2 10 12 10h44z" />
<glyph unicode="K" horiz-adv-x="1145" d="M297 1249q11 0 9 -10l-173 -1228q-2 -11 -12 -11h-45q-4 0 -7 3.5t-2 7.5l173 1228q2 10 12 10h45zM1003 14q4 -6 2 -10t-10 -4h-57q-9 0 -15 7l-524 629l696 606q8 7 18 7h53q4 0 6 -2t1 -5t-5 -7l-686 -599z" />
<glyph unicode="L" horiz-adv-x="984" d="M870 57q5 0 7.5 -3.5t1.5 -7.5l-5 -35q-2 -11 -11 -11h-787q-4 0 -7 3.5t-2 7.5l173 1228q2 10 12 10h45q11 0 9 -10l-167 -1182h731z" />
<glyph unicode="M" horiz-adv-x="1477" d="M1428 1260q9 10 17 10h16q11 0 9 -11l-175 -1248q-2 -11 -12 -11h-45q-11 0 -9 11l155 1104l-660 -857q-10 -12 -17 0l-419 857l-155 -1104q-2 -11 -13 -11h-44q-11 0 -9 11l175 1248q2 11 12 11h13q9 0 15 -10l448 -904z" />
<glyph unicode="N" horiz-adv-x="1292" d="M1274 1249q11 0 9 -10l-175 -1249q-2 -10 -12 -10h-4q-9 0 -14 6l-788 1146l-157 -1121q-2 -11 -13 -11h-44q-11 0 -9 11l175 1248q2 11 12 11h4q9 0 14 -6l787 -1147l158 1122q2 10 12 10h45z" />
<glyph unicode="O" d="M844 1262q111 0 208.5 -39t169 -109.5t113 -174.5t41.5 -228q0 -160 -60.5 -297.5t-160 -230t-227.5 -144.5t-263 -52q-149 0 -269.5 66.5t-192 193t-71.5 291.5q0 159 60.5 297t160.5 230.5t228 144.5t263 52zM673 44q123 0 238 48.5t203 134t140.5 210.5t52.5 268 q0 224 -133 362t-338 138q-123 0 -238 -48.5t-203 -134t-140.5 -210.5t-52.5 -268q0 -224 133 -362t338 -138z" />
<glyph unicode="P" horiz-adv-x="1098" d="M680 1249q106 0 187 -26.5t129.5 -73t72.5 -105t24 -126.5q0 -83 -31.5 -158t-93 -135.5t-163.5 -96.5t-231 -36h-373l-68 -481q-2 -11 -13 -11h-44q-11 0 -9 11l172 1228q2 10 12 10h45h384zM572 549q119 0 209 31t141 83.5t76 115t25 133.5q0 122 -87 201t-273 79h-365 l-90 -643h364z" />
<glyph unicode="Q" d="M1376 711q0 -131 -41 -248.5t-112.5 -205t-165 -150t-200.5 -93.5q16 -102 86 -156t162 -54q11 0 9 -10l-6 -42q-1 -11 -13 -11q-107 0 -191 68t-99 193q-77 -15 -140 -15q-149 0 -269.5 66.5t-192 193t-71.5 291.5q0 159 60.5 297t160.5 230.5t228 144.5t263 52 q111 0 208.5 -39t169 -109.5t113 -174.5t41.5 -228zM673 44q123 0 238 48.5t203 134t140.5 210.5t52.5 268q0 224 -133 362t-338 138q-123 0 -238 -48.5t-203 -134t-140.5 -210.5t-52.5 -268q0 -224 133 -362t338 -138z" />
<glyph unicode="R" horiz-adv-x="1170" d="M1074 927q0 -150 -98 -262.5t-289 -142.5l262 -500q4 -8 -0.5 -15t-14.5 -7h-44q-6 0 -10 8l-265 506q-19 -2 -58 -2h-354l-70 -501q-2 -11 -13 -11h-44q-11 0 -9 11l172 1228q2 10 12 10h45h364q208 0 311 -90t103 -232zM554 569q119 0 208.5 29t141 80t76 112t24.5 132 q0 120 -87.5 195t-274.5 75h-344l-87 -623h343z" />
<glyph unicode="S" horiz-adv-x="1116" d="M278 912q0 -59 31 -102t81.5 -67t115 -45.5t131.5 -36t131.5 -39.5t115 -55.5t81.5 -84.5t31 -126q0 -77 -28.5 -140t-76 -105t-112.5 -70.5t-136 -41t-148 -12.5q-255 0 -421 139q-10 8 -4 18l20 32q8 11 18 3q81 -65 172 -100t224 -35q85 0 158.5 17.5t133.5 52 t94.5 94t34.5 136.5q0 74 -39.5 125.5t-102.5 79t-139 48.5t-152.5 42.5t-139.5 51t-102.5 83.5t-39.5 132q0 161 128.5 258.5t352.5 97.5q211 0 377 -113q9 -6 2 -16l-20 -34q-7 -11 -19 -2q-154 109 -346 109q-193 0 -300 -80.5t-107 -213.5z" />
<glyph unicode="T" horiz-adv-x="1216" d="M1228 1249q12 0 10 -10l-6 -36q-2 -11 -12 -11h-471l-165 -1181q-2 -11 -13 -11h-45q-10 0 -8 11l165 1181h-471q-10 0 -8 11l4 36q2 10 13 10h525h482z" />
<glyph unicode="U" horiz-adv-x="1251" d="M1233 1249q11 0 9 -10l-101 -722q-36 -258 -189 -397.5t-388 -139.5t-348.5 139.5t-77.5 397.5l101 722q2 10 12 10h45q11 0 9 -10l-100 -712q-33 -235 60 -363t306 -128t342.5 128t162.5 363l100 712q2 10 12 10h45z" />
<glyph unicode="V" horiz-adv-x="1193" d="M1264 1249q15 0 8 -13l-706 -1248q-5 -8 -15 -8h-21q-9 0 -11 8l-366 1249q-4 12 10 12h53q10 0 12 -8l327 -1157l645 1157q5 8 14 8h50z" />
<glyph unicode="W" horiz-adv-x="1657" d="M1729 1249q13 0 7 -12l-573 -1249q-5 -8 -15 -8h-15q-10 0 -12 8l-202 1070l-499 -1070q-5 -8 -14 -8h-18q-10 0 -12 8l-224 1248q-3 13 10 13h48q11 0 12 -8l195 -1140l496 1073q5 9 14 9h17q8 0 11 -9l201 -1073l512 1140q4 8 13 8h48z" />
<glyph unicode="X" horiz-adv-x="1345" d="M1276 1249q18 0 4 -14l-566 -604l404 -617q9 -14 -8 -14h-54q-10 0 -16 8l-374 572l-535 -574q-6 -6 -14 -6h-48q-18 0 -4 15l570 611l-397 608q-10 15 9 15h51q12 0 17 -9l369 -563l525 565q7 7 18 7h49z" />
<glyph unicode="Y" horiz-adv-x="1154" d="M1224 1249q6 0 8.5 -3t-1.5 -9l-613 -786l-62 -440q-2 -11 -12 -11h-44q-5 0 -8 3.5t-2 7.5l61 440l-398 786q-3 6 0.5 9t9.5 3h51q9 0 12 -8l367 -730l567 730q7 8 15 8h49z" />
<glyph unicode="Z" horiz-adv-x="1204" d="M55 0q-10 0 -8 11l1 14q1 7 6 13l1048 1154h-843q-5 0 -8 3.5t-2 7.5l5 36q2 10 13 10h930q11 0 9 -10l-1 -14q-2 -9 -7 -14l-1047 -1154h894q11 0 9 -11l-4 -35q-2 -11 -13 -11h-982z" />
<glyph unicode="[" horiz-adv-x="472" d="M477 1264h-181l-216 -1537h181q11 0 9 -11l-4 -25q-2 -11 -12 -11h-223q-11 0 -9 11l226 1609q2 11 12 11h223q11 0 9 -11l-3 -26q-2 -10 -12 -10z" />
<glyph unicode="\" horiz-adv-x="1132" d="M210 1339l823 -1356q6 -10 -3 -14l-27 -14q-10 -4 -15 6l-824 1356q-6 10 4 14l27 14q10 4 15 -6z" />
<glyph unicode="]" horiz-adv-x="472" d="M463 1311q11 0 9 -11l-226 -1609q-2 -11 -12 -11h-223q-5 0 -8 3.5t-2 7.5l4 25q2 11 12 11h181l216 1537h-181q-11 0 -9 10l3 26q2 11 13 11h223z" />
<glyph unicode="^" horiz-adv-x="837" d="M872 950q4 -7 -0.5 -15t-13.5 -8h-29q-5 0 -8 4l-265 463l-397 -463q-3 -4 -8 -4h-29q-10 0 -13 7.5t4 15.5l417 479q3 5 8 5h46q4 0 7 -5z" />
<glyph unicode="_" horiz-adv-x="715" d="M10 -52q-11 0 -9 11l4 30q2 11 12 11h688q11 0 9 -11l-3 -30q-2 -11 -13 -11h-688z" />
<glyph unicode="`" horiz-adv-x="333" d="M295 966l-268 228q-9 6 -2 15l25 31q7 9 15 2l262 -236q8 -6 1 -15l-17 -22q-9 -9 -16 -3z" />
<glyph unicode="a" horiz-adv-x="1060" d="M994 829l-73 -522q-11 -60 -9 -118.5t7.5 -89.5t18.5 -81q3 -11 -8 -16l-29 -10q-7 -3 -11 2q-48 110 -43 228q-62 -108 -166.5 -171.5t-229.5 -63.5q-157 0 -262 104.5t-105 271.5q0 106 41.5 199t109.5 155.5t156 98.5t181 36q124 0 210 -67t117 -180l31 224 q2 11 13 11h42q11 0 9 -11zM464 44q170 0 294 123.5t124 298.5q0 144 -87 236.5t-225 92.5q-81 0 -156.5 -31t-134 -85t-93.5 -135t-35 -175q0 -147 89 -236t224 -89z" />
<glyph unicode="b" horiz-adv-x="1070" d="M610 852q157 0 261.5 -104t104.5 -272q0 -141 -71 -255t-182 -174t-235 -60q-123 0 -208.5 67t-117.5 180l-31 -223q-2 -11 -13 -11h-42q-11 0 -9 11l181 1289q2 11 12 11h42q11 0 9 -11l-95 -678q63 106 167 168t227 62zM492 44q108 0 203 52t155 151t60 224 q0 146 -89 235t-225 89q-111 0 -206.5 -55.5t-153 -153t-57.5 -212.5q0 -144 87 -237t226 -93z" />
<glyph unicode="c" horiz-adv-x="978" d="M853 230q9 -5 3 -15q-62 -107 -160.5 -167.5t-227.5 -60.5q-163 0 -268.5 103.5t-105.5 271.5q0 142 70 255.5t183 174t243 60.5q129 0 210 -60.5t113 -167.5q4 -8 -7 -14l-38 -17q-9 -4 -14 5q-28 94 -96 145.5t-174 51.5q-113 0 -209 -52t-155 -151t-59 -225 q0 -147 88.5 -235t229.5 -88q205 0 325 198q7 9 15 5z" />
<glyph unicode="d" horiz-adv-x="1071" d="M1061 1311q5 0 8 -3.5t2 -7.5l-182 -1289q-2 -11 -12 -11h-42q-5 0 -8 3.5t-2 7.5l30 207q-63 -106 -167 -168.5t-227 -62.5q-157 0 -261.5 104.5t-104.5 271.5q0 106 41.5 199t109.5 155.5t156 98.5t181 36q123 0 208.5 -66.5t117.5 -180.5l98 695q2 11 12 11h42z M474 44q170 0 294 123.5t124 298.5q0 144 -87 236.5t-225 92.5q-81 0 -156.5 -31t-134 -85t-93.5 -135t-35 -175q0 -147 89 -236t224 -89z" />
<glyph unicode="e" horiz-adv-x="994" d="M901 441h-734q-6 -36 -6 -72q0 -147 89 -236t224 -89q211 0 326 195q6 10 16 5l33 -17q9 -5 3 -15q-65 -110 -164.5 -167.5t-224.5 -57.5q-159 0 -263.5 103.5t-104.5 271.5q0 141 67.5 254.5t177 174.5t237.5 61q171 0 261 -109.5t63 -301.5zM569 798 q-136 0 -245.5 -84.5t-146.5 -223.5h659q13 144 -61 226t-206 82z" />
<glyph unicode="f" horiz-adv-x="696" d="M800 1257q11 -8 3 -18l-19 -25q-8 -9 -19 -2q-67 62 -160 62q-106 0 -163.5 -66.5t-72.5 -178.5l-26 -189h358q5 0 8 -3.5t2 -7.5l-5 -36q-2 -11 -13 -11h-359l-108 -771q-2 -11 -12 -11h-42q-11 0 -9 11l108 771h-158q-11 0 -9 11l5 36q2 11 12 11h159l27 194 q19 132 96.5 213.5t203.5 81.5q57 0 108.5 -20.5t84.5 -51.5z" />
<glyph unicode="g" horiz-adv-x="952" d="M950 873q9 0 8 -10l-5 -39q-2 -8 -10 -8q-51 0 -93.5 -26t-62.5 -71q36 -55 36 -128q0 -131 -109.5 -226.5t-265.5 -95.5h-106q-106 0 -159.5 -37t-53.5 -94q0 -98 181 -98h135q172 0 264 -61.5t92 -167.5q0 -128 -112 -207.5t-315 -79.5q-173 0 -265 61t-92 163 q0 87 67 151.5t174 97.5q-188 10 -188 129q0 71 58 119.5t171 58.5q-69 30 -108 90.5t-39 134.5q0 131 110.5 227t266.5 96q147 0 232 -91q29 51 80 81.5t109 30.5zM454 321q125 0 215 78.5t90 186.5q0 93 -66.5 153.5t-171.5 60.5q-124 0 -214.5 -79.5t-90.5 -185.5 q0 -91 65.5 -152.5t172.5 -61.5zM739 -197q0 85 -77 135.5t-224 50.5q-94 0 -176 -28.5t-132.5 -82t-50.5 -120.5q0 -86 76.5 -135.5t223.5 -49.5q172 0 266 62.5t94 167.5z" />
<glyph unicode="h" horiz-adv-x="1005" d="M628 860q159 0 223.5 -93.5t41.5 -255.5l-70 -500q-2 -11 -11 -11h-43q-5 0 -8 3.5t-2 7.5l68 481q43 311 -222 311q-137 0 -253.5 -90.5t-152.5 -219.5l-68 -482q-2 -11 -12 -11h-43q-11 0 -9 11l181 1289q2 11 13 11h42q11 0 9 -11l-95 -676q56 91 166 163.5t245 72.5z " />
<glyph unicode="i" horiz-adv-x="355" d="M265 1036q-20 0 -33.5 13.5t-13.5 33.5q0 24 19 42t43 18q20 0 33 -14t13 -34q0 -24 -18.5 -41.5t-42.5 -17.5zM204 829q2 11 12 11h42q11 0 9 -11l-115 -818q-2 -11 -12 -11h-42q-11 0 -9 11z" />
<glyph unicode="j" horiz-adv-x="350" d="M259 1036q-20 0 -33.5 13.5t-13.5 33.5q0 24 19 42t43 18q20 0 33.5 -14t13.5 -34q0 -24 -19 -41.5t-43 -17.5zM-153 -471q-11 0 -10 10l4 32q2 10 12 11q89 3 138 64.5t68 195.5l139 987q2 11 12 11h43q11 0 9 -11l-139 -988q-21 -147 -88.5 -229.5t-187.5 -82.5z" />
<glyph unicode="k" horiz-adv-x="857" d="M248 1300q2 11 12 11h42q11 0 9 -11l-180 -1289q-2 -11 -13 -11h-42q-11 0 -9 11zM686 0q-8 0 -15 8l-371 453l463 373q7 6 15 6h55q6 0 7.5 -4t-3.5 -9l-460 -369l363 -444q4 -6 1.5 -10t-9.5 -4h-46z" />
<glyph unicode="l" horiz-adv-x="312" d="M248 1300q2 11 13 11h42q11 0 9 -11l-181 -1289q-2 -11 -13 -11h-42q-11 0 -9 11z" />
<glyph unicode="m" horiz-adv-x="1592" d="M1228 860q155 0 215.5 -93.5t37.5 -256.5l-70 -499q-2 -11 -12 -11h-42q-11 0 -9 11l67 479q45 313 -210 313q-132 0 -242 -105t-130 -245l-62 -442q-2 -11 -12 -11h-42q-5 0 -8 3.5t-2 7.5l68 479q45 313 -210 313q-132 0 -242 -105t-130 -245l-62 -442q-2 -11 -12 -11 h-43q-11 0 -9 11l115 818q2 11 13 11h42q11 0 9 -11l-31 -216q24 42 57 82t79.5 79t108.5 62.5t128 23.5q132 0 195 -70t62 -195q24 49 61 94t85 84.5t110 63t127 23.5z" />
<glyph unicode="n" horiz-adv-x="1008" d="M632 860q159 0 224 -93.5t42 -255.5l-71 -500q-2 -11 -12 -11h-42q-5 0 -8 3.5t-2 7.5l68 481q43 311 -223 311q-149 0 -272 -105t-143 -246l-62 -441q-2 -11 -12 -11h-43q-11 0 -9 11l115 818q2 11 13 11h42q11 0 9 -11l-31 -216q23 41 61.5 82t91 79t122 62t142.5 24z " />
<glyph unicode="o" horiz-adv-x="1053" d="M588 852q160 0 265.5 -104t105.5 -272q0 -106 -41.5 -199t-110 -155.5t-157.5 -98.5t-184 -36q-160 0 -265.5 104.5t-105.5 272.5q0 106 41.5 199t110 155.5t157.5 98t184 35.5zM474 44q107 0 202 52t156 151.5t61 223.5q0 147 -88.5 235.5t-224.5 88.5q-79 0 -154.5 -31 t-134 -85t-94.5 -135t-36 -175q0 -147 89 -236t224 -89z" />
<glyph unicode="p" horiz-adv-x="1071" d="M610 852q157 0 261.5 -104t104.5 -272q0 -106 -41.5 -199t-109.5 -155.5t-156 -98.5t-181 -36q-123 0 -208.5 67t-117.5 181l-98 -696q-2 -10 -12 -10h-42q-11 0 -9 10l181 1290q2 11 12 11h42q11 0 9 -11l-29 -208q62 107 166.5 169t227.5 62zM491 44q108 0 203.5 52 t155.5 151t60 224q0 147 -89 235.5t-224 88.5q-170 0 -294 -123t-124 -298q0 -144 87 -237t225 -93z" />
<glyph unicode="q" horiz-adv-x="1071" d="M995 839q11 0 9 -11l-181 -1290q-2 -10 -13 -10h-41q-12 0 -10 10l96 679q-63 -106 -167 -168.5t-227 -62.5q-157 0 -261.5 104.5t-104.5 271.5q0 106 41.5 199t109.5 155.5t156 98.5t181 36q123 0 209 -67t117 -181l32 225q2 11 12 11h42zM474 43q170 0 294 123.5 t124 298.5q0 144 -86.5 236.5t-225.5 92.5q-81 0 -156.5 -31t-134 -85t-93.5 -135t-35 -175q0 -147 89 -236t224 -89z" />
<glyph unicode="r" horiz-adv-x="562" d="M556 860q13 0 10 -11l-6 -46q-1 -9 -13 -10q-68 -3 -145 -48.5t-137 -124.5t-72 -165l-62 -444q-2 -11 -12 -11h-43q-11 0 -9 11l115 818q2 11 13 11h42q11 0 9 -11l-32 -231q41 95 147.5 178.5t194.5 83.5z" />
<glyph unicode="s" horiz-adv-x="829" d="M214 613q0 -43 27 -73t70.5 -47t96 -30t104.5 -28.5t95.5 -37t70.5 -60.5t27 -94q0 -56 -20.5 -101t-53.5 -73.5t-78 -47.5t-91.5 -26.5t-96.5 -7.5q-162 0 -309 94q-8 6 -3 15l19 30q8 12 16 6q135 -91 282 -91q49 0 92.5 8.5t85 28t66 58.5t24.5 93q0 46 -27 79 t-70 51.5t-95.5 33t-104.5 30t-95 36t-70 57.5t-27 89q0 115 92 181t238 66q147 0 272 -88q8 -6 3 -15l-19 -31q-6 -9 -15 -4q-118 84 -247 84q-115 0 -187 -50.5t-72 -134.5z" />
<glyph unicode="t" horiz-adv-x="756" d="M711 840q5 0 8 -3.5t2 -7.5l-5 -36q-2 -11 -13 -11h-358l-70 -495q-34 -243 144 -243q96 0 183 67q11 6 16 -3l11 -28q4 -9 -8 -18q-105 -75 -218 -75q-234 0 -192 295l71 500h-169q-11 0 -9 11l5 36q2 11 12 11h168l29 202q2 9 12 12l42 11q8 2 10 -0.5t1 -7.5l-30 -217 h358z" />
<glyph unicode="u" horiz-adv-x="1008" d="M932 840q5 0 8 -3.5t2 -7.5l-115 -818q-2 -11 -12 -11h-42q-5 0 -8 3.5t-2 7.5l31 216q-23 -41 -61.5 -82t-91 -79t-122 -62t-142.5 -24q-159 0 -223.5 93t-41.5 255l70 501q2 11 12 11h42q11 0 9 -11l-67 -481q-43 -312 222 -312q149 0 273 106t144 246l62 441 q2 11 11 11h42z" />
<glyph unicode="v" horiz-adv-x="815" d="M852 840q7 0 9.5 -6t-2.5 -14l-499 -835q-3 -5 -9 -5h-9q-6 0 -8 5l-265 835q-3 7 0.5 13.5t11.5 6.5h45q7 0 11 -9l225 -742l432 742q6 9 14 9h44z" />
<glyph unicode="w" horiz-adv-x="1310" d="M1348 840q16 0 7 -19l-428 -836q-3 -5 -9 -5h-10q-6 0 -8 5l-214 652l-398 -652q-3 -5 -9 -5h-9q-5 0 -7 5l-194 836q-2 7 1.5 13t10.5 6h43q8 0 11 -10l164 -734l386 637q5 9 11 9h9q6 0 9 -9l207 -637l370 734q7 10 14 10h43z" />
<glyph unicode="x" horiz-adv-x="879" d="M859 840q16 0 2 -14l-386 -398l287 -414q9 -14 -6 -14h-55q-8 0 -12 6l-259 374l-354 -372q-7 -8 -19 -8h-50q-17 0 -3 15l394 410l-278 401q-9 14 6 14h53q9 0 15 -8l249 -359l345 359q7 8 16 8h55z" />
<glyph unicode="y" horiz-adv-x="819" d="M857 840q7 0 9 -6t-3 -14l-482 -824q-74 -126 -128.5 -206.5t-112.5 -143t-114 -90t-119 -27.5q-11 0 -10 10l4 32q2 10 12 11q94 3 184.5 102t234.5 345l-263 791q-3 8 1 14t12 6h44q7 0 11 -9l234 -735l428 735q5 9 16 9h42z" />
<glyph unicode="z" horiz-adv-x="934" d="M30 0q-12 0 -10 10l2 5q2 10 6 14l729 753h-581q-5 0 -8 3.5t-2 7.5l6 36q2 11 12 11h675q11 0 9 -10l-1 -6q-2 -10 -6 -14l-729 -753h627q11 0 9 -11l-5 -35q-2 -11 -12 -11h-721z" />
<glyph unicode="{" horiz-adv-x="509" d="M516 1265q-83 -5 -133 -52.5t-62 -157.5q-5 -40 -6.5 -156t-5.5 -148q-10 -107 -47 -168t-106 -87q91 -39 91 -177q0 -59 -45.5 -225.5t-45.5 -215.5q0 -144 143 -152q9 -2 8 -9l-3 -23q-2 -9 -12 -9q-91 1 -141 47.5t-50 140.5q0 52 46 218.5t46 222.5q0 135 -99 161 q-8 2 -7 9l3 23q1 7 10 9q136 26 154 240q4 32 6 147.5t7 154.5q12 126 79 186.5t175 61.5q4 1 6.5 -2t1.5 -7l-3 -23q-1 -7 -10 -9z" />
<glyph unicode="|" horiz-adv-x="302" d="M275 1495q2 10 12 10h32q4 0 7.5 -3t2.5 -7l-239 -1702q-2 -11 -13 -11h-32q-11 0 -9 11z" />
<glyph unicode="}" horiz-adv-x="509" d="M437 516q8 -2 7 -9l-3 -23q-1 -7 -10 -9q-136 -28 -155 -240q-4 -32 -5.5 -148t-6.5 -155q-13 -126 -79.5 -185.5t-174.5 -61.5q-10 0 -8 9l3 23q1 7 10 9q83 5 133 52t62 157q5 40 6.5 157t5.5 149q10 107 47 168t106 87q-92 40 -92 176q0 59 46 225.5t46 215.5 q0 144 -143 152q-9 2 -8 9l3 23q2 10 11 9q192 -2 192 -188q0 -52 -46 -218.5t-46 -222.5q0 -141 99 -161z" />
<glyph unicode="~" horiz-adv-x="1117" d="M1021 613q7 -5 3 -11q-36 -74 -108 -125.5t-152 -51.5q-50 0 -94 16t-76.5 38.5t-64 45t-70.5 38.5t-83 16q-65 0 -125 -41t-90 -96q-7 -12 -17 -5l-18 9q-6 5 -2 12q36 74 108 125.5t152 51.5q50 0 94 -16t76.5 -38.5t64 -45t70.5 -38.5t83 -16q65 0 125.5 40t89.5 96 q6 11 17 6z" />
<glyph unicode="&#xa1;" horiz-adv-x="348" d="M235 852q19 0 32.5 -13.5t13.5 -33.5q0 -24 -18.5 -42t-42.5 -18q-19 0 -33 14t-14 34q0 24 19 41.5t43 17.5zM92 -399q-2 -11 -12 -11h-42q-11 0 -9 11l138 927q2 11 12 11h26q5 0 8 -3.5t2 -7.5z" />
<glyph unicode="&#xa2;" horiz-adv-x="978" d="M913 624q4 -8 -7 -14l-38 -17q-9 -4 -14 5q-28 94 -96 145.5t-174 51.5q-113 0 -209 -52t-155 -151t-59 -225q0 -147 88.5 -235t229.5 -88q205 0 325 198q7 9 15 5l34 -17q9 -5 3 -15q-60 -103 -154 -163t-216 -64l-28 -204q-2 -11 -13 -11h-30q-11 0 -9 11l29 204 q-151 11 -246 112.5t-95 261.5q0 102 37.5 191.5t101 152.5t148 101t176.5 44l25 183q2 11 11 11h31q11 0 9 -11l-25 -182q121 -4 197.5 -64.5t107.5 -163.5z" />
<glyph unicode="&#xa3;" horiz-adv-x="1154" d="M1119 1067q8 -11 2 -16l-26 -26q-12 -12 -19 -3q-136 183 -339 183q-151 0 -244.5 -75.5t-111.5 -202.5q-6 -39 -5.5 -81.5t3 -69.5t9 -73.5t8.5 -67.5h433q5 0 8 -3.5t2 -7.5l-4 -30q-2 -11 -13 -11h-422q5 -109 -36 -232.5t-160 -296.5q77 26 160 27.5t155.5 -11 t146 -25t157 -9t162.5 32.5q7 2 11.5 -1.5t2.5 -10.5l-4 -34q-1 -7 -11 -10q-90 -31 -180.5 -34.5t-165.5 9.5t-149 26t-158.5 12t-166.5 -28q-8 -3 -12 4l-13 32q-1 4 2 9q120 183 159 307t33 233h-195q-5 0 -8 3.5t-2 7.5l5 30q2 11 12 11h183q-2 16 -8.5 65.5t-8.5 75 t-2 70t6 86.5q21 147 132.5 238.5t289.5 91.5q234 0 382 -195z" />
<glyph unicode="&#xa4;" horiz-adv-x="1406" d="M1385 1057q7 -9 -3 -17l-226 -185q53 -70 74.5 -159t7.5 -187q-27 -195 -179 -344l173 -187q8 -7 -1 -16l-29 -26q-9 -9 -16 1l-160 198q-174 -148 -383 -148q-104 0 -192 38.5t-150 108.5l-216 -197q-9 -11 -17 -1l-21 26q-7 7 3 16l225 187q-108 146 -81 344 q28 198 179 345l-174 186q-8 8 2 17l28 26q11 9 17 -1l160 -198q82 70 181.5 109t202.5 39q104 0 192 -38.5t150 -108.5l215 197q8 10 17 1zM1177 509q18 127 -29 234.5t-144.5 169.5t-222.5 62t-239.5 -62t-191.5 -169.5t-95 -234.5t29 -234.5t144 -169.5t222 -62t240 62 t192 169.5t95 234.5z" />
<glyph unicode="&#xa5;" horiz-adv-x="1154" d="M1224 1249q6 0 8.5 -3t-1.5 -9l-572 -733h215q11 0 9 -10l-3 -25q-2 -10 -12 -10h-244l-6 -8l-23 -164h249q11 0 9 -11l-4 -24q-2 -11 -12 -11h-249l-32 -230q-2 -11 -12 -11h-44q-5 0 -8 3.5t-2 7.5l32 230h-250q-11 0 -9 11l4 24q2 11 12 11h250l22 164l-4 8h-244 q-11 0 -9 10l3 25q2 10 12 10h215l-371 733q-3 6 0.5 9t9.5 3h51q9 0 12 -8l367 -730l567 730q7 8 15 8h49z" />
<glyph unicode="&#xa6;" horiz-adv-x="302" d="M275 1495q2 10 12 10h32q4 0 7.5 -3t2.5 -7l-79 -563q-2 -10 -12 -10h-33q-10 0 -8 10zM115 355q2 11 12 11h32q5 0 8 -3.5t2 -7.5l-79 -562q-2 -11 -13 -11h-32q-11 0 -9 11z" />
<glyph unicode="&#xa7;" horiz-adv-x="1128" d="M1104 1082q2 -17 -13 -17h-41q-9 0 -10 10q-6 325 -329 325q-175 0 -287 -88.5t-133 -240.5q-8 -58 8.5 -105.5t42.5 -78t81 -60.5t94 -45t110 -40q72 -25 108.5 -39t95.5 -45t84 -59t51.5 -76.5t22 -103t-29.5 -133t-79 -171.5q86 -86 67 -224q-25 -178 -161.5 -280.5 t-347.5 -102.5q-197 0 -300.5 97t-105.5 276q-1 7 3 12t10 5h42q9 0 9 -11q3 -157 89 -241t260 -84q185 0 300 88t136 241q8 58 -8 105.5t-43.5 78t-80 59.5t-94.5 45.5t-110 39.5q-73 25 -109.5 39t-95.5 44.5t-84.5 59t-52 77t-22 104t29 134t78.5 173.5q-83 85 -64 221 q25 177 159 280t335 103q191 0 287 -96t98 -276zM843 146q52 99 70 177.5t5.5 131.5t-48.5 95t-85 68t-112 51.5t-121.5 44t-121 46t-103.5 58.5q-53 -98 -71 -177t-6 -131.5t48 -95t85 -68.5t112 -51.5t122 -44t121.5 -46.5t104.5 -58z" />
<glyph unicode="&#xa8;" horiz-adv-x="455" d="M49 1036q-19 0 -32 13.5t-13 32.5q0 23 18 40.5t41 17.5q19 0 32.5 -13t13.5 -33q0 -23 -18.5 -40.5t-41.5 -17.5zM392 1036q-19 0 -32 13.5t-13 32.5q0 23 18.5 40.5t41.5 17.5q19 0 32 -13t13 -33q0 -23 -18.5 -40.5t-41.5 -17.5z" />
<glyph unicode="&#xa9;" horiz-adv-x="1489" d="M863 1260q157 0 284 -75t197.5 -203.5t70.5 -283.5q0 -141 -61 -272.5t-161 -226.5t-234 -152t-275 -57q-157 0 -284 74.5t-197.5 202.5t-70.5 284q0 141 61 272.5t161 227t234 152.5t275 57zM688 16q134 0 262 54.5t224 145.5t154 217.5t58 261.5q0 227 -150 383 t-377 156q-134 0 -262 -55t-224 -146t-154 -217.5t-58 -261.5q0 -227 150 -382.5t377 -155.5zM1079 440q6 -3 2 -9q-128 -200 -341 -200q-141 0 -235 93t-94 246q0 99 37 184t98.5 141.5t140.5 89t163 32.5q212 0 285 -200q3 -8 -4 -10l-23 -10q-7 -2 -9 4q-65 181 -254 181 q-102 0 -191 -50.5t-144.5 -145t-55.5 -212.5q0 -138 82 -223t209 -85q187 0 305 181q4 6 10 4z" />
<glyph unicode="&#xab;" horiz-adv-x="928" d="M443 196q4 -2 2 -7l-3 -26q-1 -8 -8 -10.5t-13 2.5l-300 255q-4 3 -4 6l5 33q0 5 5 7l373 255q8 5 14 2t4 -11l-3 -26q-2 -5 -6 -7l-340 -236zM832 711q8 5 14 2t4 -11l-3 -26q0 -4 -5 -7l-340 -236l274 -237q2 -1 2 -7l-3 -26q-1 -8 -8 -10.5t-14 2.5l-300 255 q-4 3 -3 6l3 17l2 16q2 5 5 7z" />
<glyph unicode="&#xac;" horiz-adv-x="1053" d="M946 566q10 0 8 -11l-32 -236q-2 -10 -13 -10h-36q-11 0 -9 10l27 195h-749q-11 0 -9 10l4 31q2 11 12 11h797z" />
<glyph unicode="&#xad;" horiz-adv-x="868" d="M135 460q-5 0 -8 3.5t-2 7.5l5 35q2 11 13 11h611q10 0 8 -11l-4 -35q-2 -11 -12 -11h-611z" />
<glyph unicode="&#xae;" horiz-adv-x="1489" d="M863 1260q157 0 284 -75t197.5 -203.5t70.5 -283.5q0 -141 -61 -272.5t-161 -226.5t-234 -152t-275 -57q-157 0 -284 74.5t-197.5 202.5t-70.5 284q0 141 61 272.5t161 227t234 152.5t275 57zM688 16q134 0 262 54.5t224 145.5t154 217.5t58 261.5q0 227 -150 383 t-377 156q-134 0 -262 -55t-224 -146t-154 -217.5t-58 -261.5q0 -227 150 -382.5t377 -155.5zM837 1010q129 0 192 -56t63 -144q0 -93 -60.5 -161.5t-178.5 -87.5l162 -309q2 -5 -0.5 -9t-8.5 -4h-28q-4 0 -6 4l-163 313q-24 -2 -36 -2h-218l-44 -309q-1 -6 -7 -6h-28 q-6 0 -5 6l106 758q2 7 8 7h27h225zM772 590q143 0 210 62t67 155q0 74 -54 120.5t-169 46.5h-212l-54 -384h212z" />
<glyph unicode="&#xaf;" horiz-adv-x="516" d="M-1 1100q2 11 13 11h500q11 0 9 -11l-3 -27q-2 -11 -13 -11h-500q-4 0 -7 3.5t-2 7.5z" />
<glyph unicode="&#xb0;" horiz-adv-x="460" d="M296 892q-72 0 -120 49t-48 121q0 87 67.5 151t155.5 64q72 0 120 -49.5t48 -122.5q0 -86 -67.5 -149.5t-155.5 -63.5zM303 939q67 0 117 48.5t50 114.5q0 55 -35 91.5t-91 36.5q-68 0 -117 -48.5t-49 -115.5q0 -54 35 -90.5t90 -36.5z" />
<glyph unicode="&#xb1;" horiz-adv-x="1048" d="M943 584q10 0 8 -11l-4 -30q-2 -11 -12 -11h-369l-52 -369q-2 -10 -12 -10h-30q-12 0 -10 10l52 369h-369q-5 0 -8 3.5t-2 7.5l5 30q2 11 12 11h370l51 369q2 11 13 11h30q11 0 9 -11l-52 -369h370zM868 52q11 0 9 -11l-4 -30q-2 -11 -12 -11h-791q-5 0 -8 3.5t-2 7.5 l5 30q2 11 12 11h791z" />
<glyph unicode="&#xb4;" horiz-adv-x="392" d="M30 966q-8 -7 -14 3l-12 22q-3 9 6 15l328 236q10 7 15 -2l16 -31q5 -8 -5 -15z" />
<glyph unicode="&#xb6;" horiz-adv-x="1082" d="M1064 1249q11 0 9 -10l-203 -1446q-2 -11 -12 -11h-17q-11 0 -9 11l199 1421h-435l-200 -1421q-2 -11 -11 -11h-17q-5 0 -8 3.5t-2 7.5l97 688q-140 4 -231.5 101.5t-91.5 238.5q0 114 62 213t164 157t215 58h474h17z" />
<glyph unicode="&#xb7;" horiz-adv-x="348" d="M169 384q-19 0 -32.5 14t-13.5 34q0 24 18.5 41.5t42.5 17.5q19 0 33 -14t14 -34q0 -24 -19 -41.5t-43 -17.5z" />
<glyph unicode="&#xb8;" horiz-adv-x="591" d="M163 -420q-87 0 -158 43q-7 7 -2 16l8 13q6 10 17 5q67 -37 138 -37q61 0 100.5 35t39.5 91q0 65 -64.5 84t-158.5 -10q-8 -2 -10.5 1.5t2.5 11.5l87 176h43l-72 -147q93 25 159 -4t66 -106q0 -76 -56.5 -124t-138.5 -48z" />
<glyph unicode="&#xbb;" horiz-adv-x="928" d="M478 416q-1 -4 -5 -6l-372 -255q-8 -5 -14 -2.5t-5 10.5l4 26q0 4 4 7l341 237l-274 236q-3 2 -3 7l4 26q2 8 8.5 11t12.5 -2l301 -255q4 -2 2 -7l-2 -16zM812 456q3 -2 3 -7l-5 -33q0 -4 -5 -6l-372 -255q-8 -5 -14 -2.5t-5 10.5l4 26q2 5 5 7l340 237l-274 236 q-4 2 -2 7l3 26q1 8 8 11t13 -2z" />
<glyph unicode="&#xbc;" horiz-adv-x="1803" d="M1241 1227q6 10 14 5l21 -10q8 -5 3 -14l-823 -1356q-7 -11 -15 -6l-20 11q-9 5 -4 14zM494 1227q8 0 6 -7l-113 -807q-2 -7 -9 -7h-29q-8 0 -6 7l108 770l-181 -88q-6 -3 -9 3l-7 21q-1 6 5 9l200 97q4 2 11 2h24zM1694 246q8 0 6 -7l-3 -23q-2 -7 -8 -7h-139l-29 -202 q0 -7 -8 -7h-29q-8 0 -6 7l28 202h-447q-8 0 -6 7l3 22l2 4l535 575q4 4 11 4h25q8 0 6 -7l-81 -568h140zM1112 246h399l72 509z" />
<glyph unicode="&#xbd;" horiz-adv-x="1837" d="M1276 1222q8 -5 3 -14l-823 -1356q-7 -11 -15 -6l-20 11q-9 5 -4 14l824 1356q6 10 14 5zM494 1227q8 0 6 -7l-113 -807q-2 -7 -9 -7h-29q-8 0 -6 7l108 770l-181 -88q-6 -3 -9 3l-7 21q-1 6 5 9l200 97q4 2 11 2h24zM1730 610q-17 -123 -141.5 -253.5t-388.5 -322.5h472 q6 0 6 -7l-3 -23q-2 -8 -8 -8h-541q-8 0 -6 8l1 9q3 8 4 9q283 202 414.5 337.5t146.5 247.5q12 85 -31 133.5t-142 48.5q-130 0 -256 -120q-7 -6 -12 1l-12 17q-4 4 5 11q134 128 286 128q116 0 167.5 -59t38.5 -157z" />
<glyph unicode="&#xbe;" horiz-adv-x="1937" d="M502 830q198 -29 198 -185q0 -115 -85 -181t-226 -66q-174 0 -272 128q-6 7 -2 11l19 18q8 8 12 2q92 -122 246 -122q121 0 192.5 54.5t71.5 151.5q0 168 -267 171q-9 0 -7 7l3 17q0 7 8 7q143 1 219 62t76 152q0 68 -45 105t-135 37q-131 0 -254 -112q-6 -4 -11 2 l-13 17q-2 3 6 11q130 119 284 119q106 0 158.5 -46.5t52.5 -125.5q0 -87 -59 -149t-170 -85zM1356 1227q6 10 15 5l20 -10q9 -5 4 -14l-824 -1356q-6 -11 -14 -6l-21 11q-9 5 -4 14zM1809 246q8 0 6 -7l-3 -23q-2 -7 -8 -7h-139l-29 -202q0 -7 -7 -7h-30q-8 0 -6 7l29 202 h-447q-9 0 -7 7l3 22l1 2q2 1 2 2l534 575q4 4 11 4h25q8 0 6 -7l-80 -568h139zM1227 246h400l71 509z" />
<glyph unicode="&#xbf;" horiz-adv-x="796" d="M471 852q19 0 32.5 -13.5t13.5 -33.5q0 -24 -18.5 -42t-42.5 -18q-19 0 -33 14t-14 34q0 24 19 41.5t43 17.5zM27 -152q0 -103 64 -158.5t188 -55.5q185 0 350 141q11 9 18 -2l18 -26q4 -6 -8 -17q-91 -72 -184 -112t-209 -40q-145 0 -224.5 70.5t-79.5 193.5 q0 69 20.5 126.5t54.5 99t76 78.5t87.5 75.5t86 79.5t74.5 100t50 129q1 9 11 9h32q9 0 7 -10q-14 -70 -46 -130.5t-71 -104t-83 -83.5t-84.5 -78t-74 -78t-53.5 -92.5t-20 -114.5z" />
<glyph unicode="&#xc0;" horiz-adv-x="1236" d="M518 1604q-8 5 -1 14l24 31q8 10 16 3l262 -236q8 -7 1 -16l-17 -21q-9 -9 -16 -3zM1142 12q4 -12 -10 -12h-52q-9 0 -12 9l-125 428h-638l-251 -428q-5 -9 -14 -9h-52q-15 0 -8 12l739 1249q5 9 14 9h21q9 0 12 -9zM336 492h591l-197 674z" />
<glyph unicode="&#xc1;" horiz-adv-x="1236" d="M710 1379l-12 21q-4 9 6 16l329 236q9 6 15 -3l15 -31q5 -8 -5 -14l-334 -228q-8 -7 -14 3zM1142 12q4 -12 -10 -12h-52q-9 0 -12 9l-125 428h-638l-251 -428q-5 -9 -14 -9h-52q-15 0 -8 12l739 1249q5 9 14 9h21q9 0 12 -9zM336 492h591l-197 674z" />
<glyph unicode="&#xc2;" horiz-adv-x="1236" d="M515 1372q-7 0 -9 3t4 9l252 240q5 5 16 5h31q10 0 15 -5l184 -240q9 -12 -8 -12h-44q-10 0 -14 6l-155 205l-212 -205q-7 -6 -15 -6h-45zM1142 12q4 -12 -10 -12h-52q-9 0 -12 9l-125 428h-638l-251 -428q-5 -9 -14 -9h-52q-15 0 -8 12l739 1249q5 9 14 9h21q9 0 12 -9z M336 492h591l-197 674z" />
<glyph unicode="&#xc3;" horiz-adv-x="1236" d="M496 1397q-11 0 -9 11q6 89 56 139t123 50q36 0 62.5 -15.5t43.5 -37.5t32.5 -44.5t37.5 -38t51 -15.5q103 0 133 141q3 10 12 10h19q10 0 7 -16q-7 -87 -56.5 -135.5t-120.5 -48.5q-36 0 -63 15.5t-43.5 38t-32.5 45t-38 38t-51 15.5q-103 0 -132 -142q-3 -10 -12 -10 h-19zM1142 12q4 -12 -10 -12h-52q-9 0 -12 9l-125 428h-638l-251 -428q-5 -9 -14 -9h-52q-15 0 -8 12l739 1249q5 9 14 9h21q9 0 12 -9zM336 492h591l-197 674z" />
<glyph unicode="&#xc4;" horiz-adv-x="1236" d="M598 1446q-19 0 -32.5 13.5t-13.5 32.5q0 23 18.5 40.5t41.5 17.5q19 0 32 -13.5t13 -33.5q0 -23 -18 -40t-41 -17zM941 1446q-19 0 -32.5 13.5t-13.5 32.5q0 23 18.5 40.5t41.5 17.5q19 0 32 -13.5t13 -33.5q0 -23 -18 -40t-41 -17zM1142 12q4 -12 -10 -12h-52 q-9 0 -12 9l-125 428h-638l-251 -428q-5 -9 -14 -9h-52q-15 0 -8 12l739 1249q5 9 14 9h21q9 0 12 -9zM336 492h591l-197 674z" />
<glyph unicode="&#xc5;" horiz-adv-x="1236" d="M1142 12q4 -12 -10 -12h-52q-9 0 -12 9l-125 428h-638l-251 -428q-5 -9 -14 -9h-52q-15 0 -8 12l732 1237q-59 11 -96 57.5t-37 109.5q0 86 67.5 150.5t155.5 64.5q72 0 120 -50t48 -122q0 -80 -59 -141.5t-140 -70.5zM621 1419q0 -57 37 -95.5t95 -38.5q71 0 123 50.5 t52 120.5q0 58 -37 97t-95 39q-71 0 -123 -51.5t-52 -121.5zM336 492h591l-197 674z" />
<glyph unicode="&#xc6;" horiz-adv-x="1756" d="M1738 1249q11 0 9 -10l-5 -36q-4 -11 -12 -11h-763l-72 -511h681q11 0 9 -11l-4 -36q-3 -10 -13 -10h-680l-80 -567h783q11 0 9 -11l-5 -35q-4 -11 -12 -11h-810h-29q-10 0 -8 11l60 426h-428l-315 -430q-5 -7 -15 -7h-49q-6 0 -9 3.5t1 10.5l904 1229q4 6 15 6h19h1h45 h773zM408 492h395l94 666z" />
<glyph unicode="&#xc7;" horiz-adv-x="1331" d="M1305 937q4 -10 -7 -15l-36 -16q-11 -6 -15 5q-106 294 -411 294q-123 0 -238 -48.5t-203 -134t-140.5 -210.5t-52.5 -268q0 -224 133 -362t338 -138q303 0 494 294q7 11 16 6l31 -17q10 -5 4 -15q-203 -317 -537 -325l-62 -125q93 25 159 -4t66 -106q0 -76 -56.5 -124 t-138.5 -48q-86 0 -157 43q-8 8 -3 16l9 13q6 10 16 5q67 -37 139 -37q61 0 100.5 35t39.5 91q0 65 -65 84t-159 -10q-8 -2 -10.5 1.5t2.5 11.5l77 155q-107 4 -199.5 45t-160.5 111t-107 172t-39 222q0 159 60.5 297t160.5 230.5t228 144.5t263 52q343 0 461 -325z" />
<glyph unicode="&#xc8;" horiz-adv-x="1087" d="M449 1604q-9 6 -2 14l25 31q7 9 15 3l263 -236q8 -7 1 -16l-17 -21q-9 -9 -16 -3zM1069 1249q11 0 9 -10l-4 -36q-4 -11 -13 -11h-763l-71 -511h680q11 0 9 -11l-4 -36q-3 -10 -12 -10h-681l-79 -567h782q11 0 9 -11l-4 -35q-4 -11 -13 -11h-810h-28q-11 0 -9 11 l172 1228q2 10 12 10h45h773z" />
<glyph unicode="&#xc9;" horiz-adv-x="1087" d="M641 1379l-12 21q-4 9 6 16l329 236q9 6 14 -3l16 -31q5 -8 -5 -14l-334 -228q-8 -7 -14 3zM1069 1249q11 0 9 -10l-4 -36q-4 -11 -13 -11h-763l-71 -511h680q11 0 9 -11l-4 -36q-3 -10 -12 -10h-681l-79 -567h782q11 0 9 -11l-4 -35q-4 -11 -13 -11h-810h-28 q-11 0 -9 11l172 1228q2 10 12 10h45h773z" />
<glyph unicode="&#xca;" horiz-adv-x="1087" d="M445 1372q-17 0 -4 12l252 240q5 5 16 5h31q10 0 15 -5l183 -240q9 -12 -7 -12h-44q-11 0 -15 6l-154 205l-212 -205q-7 -6 -15 -6h-46zM1069 1249q11 0 9 -10l-4 -36q-4 -11 -13 -11h-763l-71 -511h680q11 0 9 -11l-4 -36q-3 -10 -12 -10h-681l-79 -567h782q11 0 9 -11 l-4 -35q-4 -11 -13 -11h-810h-28q-11 0 -9 11l172 1228q2 10 12 10h45h773z" />
<glyph unicode="&#xcb;" horiz-adv-x="1087" d="M528 1446q-19 0 -32 13.5t-13 32.5q0 23 18.5 40.5t41.5 17.5q19 0 32 -13.5t13 -33.5q0 -23 -18 -40t-42 -17zM871 1446q-19 0 -32 13.5t-13 32.5q0 23 18.5 40.5t41.5 17.5q19 0 32 -13.5t13 -33.5q0 -23 -18 -40t-42 -17zM1069 1249q11 0 9 -10l-4 -36q-4 -11 -13 -11 h-763l-71 -511h680q11 0 9 -11l-4 -36q-3 -10 -12 -10h-681l-79 -567h782q11 0 9 -11l-4 -35q-4 -11 -13 -11h-810h-28q-11 0 -9 11l172 1228q2 10 12 10h45h773z" />
<glyph unicode="&#xcc;" horiz-adv-x="314" d="M319 1376l-268 228q-9 6 -2 14l25 31q7 9 15 3l262 -236q8 -7 1 -16l-17 -21q-9 -9 -16 -3zM239 1239q2 10 12 10h45q11 0 9 -10l-172 -1228q-2 -11 -13 -11h-44q-11 0 -9 11z" />
<glyph unicode="&#xcd;" horiz-adv-x="314" d="M257 1376q-8 -7 -14 3l-12 21q-4 9 6 16l328 236q9 6 15 -3l16 -31q5 -8 -5 -14zM239 1239q2 10 12 10h45q11 0 9 -10l-172 -1228q-2 -11 -13 -11h-44q-11 0 -9 11z" />
<glyph unicode="&#xce;" horiz-adv-x="314" d="M474 1378l-155 205l-211 -205q-7 -6 -15 -6h-46q-7 0 -8.5 3t4.5 9l251 240q5 5 17 5h31q9 0 14 -5l184 -240q9 -12 -7 -12h-44q-11 0 -15 6zM239 1239q2 10 12 10h45q11 0 9 -10l-172 -1228q-2 -11 -13 -11h-44q-11 0 -9 11z" />
<glyph unicode="&#xcf;" horiz-adv-x="314" d="M130 1446q-19 0 -32.5 13.5t-13.5 32.5q0 23 18.5 40.5t41.5 17.5q19 0 32 -13.5t13 -33.5q0 -23 -18 -40t-41 -17zM473 1446q-19 0 -32 13.5t-13 32.5q0 23 18.5 40.5t41.5 17.5q19 0 32 -13.5t13 -33.5q0 -23 -18 -40t-42 -17zM239 1239q2 10 12 10h45q11 0 9 -10 l-172 -1228q-2 -11 -13 -11h-44q-11 0 -9 11z" />
<glyph unicode="&#xd0;" horiz-adv-x="1279" d="M655 1249q118 0 218.5 -36t174.5 -103t115.5 -169t41.5 -227q0 -132 -38.5 -247t-106.5 -199.5t-159 -145.5t-198.5 -91.5t-223.5 -30.5h-376h-27q-11 0 -9 11l83 588h-160q-11 0 -9 10l4 30q2 11 12 11h160l82 589q2 10 12 10h45h359zM482 57q133 0 251.5 45.5 t208 127.5t142 205.5t52.5 271.5q0 225 -137 355t-357 130h-344l-75 -542h339q11 0 9 -11l-4 -30q-2 -10 -12 -10h-339l-76 -542h342z" />
<glyph unicode="&#xd1;" horiz-adv-x="1292" d="M538 1397q-11 0 -9 11q6 89 56 139t123 50q36 0 62.5 -15.5t43.5 -37.5t32.5 -44.5t37.5 -38t51 -15.5q103 0 133 141q3 10 12 10h19q10 0 7 -16q-7 -87 -56.5 -135.5t-120.5 -48.5q-36 0 -63 15.5t-43.5 38t-32.5 45t-38 38t-51 15.5q-103 0 -132 -142q-3 -10 -12 -10 h-19zM1274 1249q11 0 9 -10l-175 -1249q-2 -10 -12 -10h-4q-9 0 -14 6l-788 1146l-157 -1121q-2 -11 -13 -11h-44q-11 0 -9 11l175 1248q2 11 12 11h4q9 0 14 -6l787 -1147l158 1122q2 10 12 10h45z" />
<glyph unicode="&#xd2;" d="M888 1376l-269 228q-9 6 -2 14l25 31q7 9 15 3l263 -236q8 -7 1 -16l-17 -21q-9 -9 -16 -3zM844 1262q111 0 208.5 -39t169 -109.5t113 -174.5t41.5 -228q0 -160 -60.5 -297.5t-160 -230t-227.5 -144.5t-263 -52q-149 0 -269.5 66.5t-192 193t-71.5 291.5q0 159 60.5 297 t160.5 230.5t228 144.5t263 52zM673 44q123 0 238 48.5t203 134t140.5 210.5t52.5 268q0 224 -133 362t-338 138q-123 0 -238 -48.5t-203 -134t-140.5 -210.5t-52.5 -268q0 -224 133 -362t338 -138z" />
<glyph unicode="&#xd3;" d="M825 1376q-8 -7 -14 3l-12 21q-4 9 6 16l329 236q9 6 14 -3l16 -31q5 -8 -5 -14zM844 1262q111 0 208.5 -39t169 -109.5t113 -174.5t41.5 -228q0 -160 -60.5 -297.5t-160 -230t-227.5 -144.5t-263 -52q-149 0 -269.5 66.5t-192 193t-71.5 291.5q0 159 60.5 297 t160.5 230.5t228 144.5t263 52zM673 44q123 0 238 48.5t203 134t140.5 210.5t52.5 268q0 224 -133 362t-338 138q-123 0 -238 -48.5t-203 -134t-140.5 -210.5t-52.5 -268q0 -224 133 -362t338 -138z" />
<glyph unicode="&#xd4;" d="M1042 1378l-154 205l-212 -205q-8 -6 -15 -6h-46q-17 0 -4 12l252 240q5 5 16 5h31q10 0 15 -5l183 -240q9 -12 -7 -12h-44q-11 0 -15 6zM844 1262q111 0 208.5 -39t169 -109.5t113 -174.5t41.5 -228q0 -160 -60.5 -297.5t-160 -230t-227.5 -144.5t-263 -52 q-149 0 -269.5 66.5t-192 193t-71.5 291.5q0 159 60.5 297t160.5 230.5t228 144.5t263 52zM673 44q123 0 238 48.5t203 134t140.5 210.5t52.5 268q0 224 -133 362t-338 138q-123 0 -238 -48.5t-203 -134t-140.5 -210.5t-52.5 -268q0 -224 133 -362t338 -138z" />
<glyph unicode="&#xd5;" d="M596 1397q-10 0 -8 11q6 89 56 139t123 50q36 0 62.5 -15.5t43.5 -37.5t32.5 -44.5t37.5 -38t51 -15.5q102 0 132 141q3 10 13 10h19q10 0 7 -16q-7 -87 -56.5 -135.5t-120.5 -48.5q-36 0 -63 15.5t-43.5 38t-32.5 45t-38 38t-51 15.5q-103 0 -132 -142q-3 -10 -13 -10 h-19zM844 1262q111 0 208.5 -39t169 -109.5t113 -174.5t41.5 -228q0 -160 -60.5 -297.5t-160 -230t-227.5 -144.5t-263 -52q-149 0 -269.5 66.5t-192 193t-71.5 291.5q0 159 60.5 297t160.5 230.5t228 144.5t263 52zM673 44q123 0 238 48.5t203 134t140.5 210.5t52.5 268 q0 224 -133 362t-338 138q-123 0 -238 -48.5t-203 -134t-140.5 -210.5t-52.5 -268q0 -224 133 -362t338 -138z" />
<glyph unicode="&#xd6;" d="M698 1446q-19 0 -32 13.5t-13 32.5q0 23 18.5 40.5t41.5 17.5q19 0 32 -13.5t13 -33.5q0 -23 -18 -40t-42 -17zM1041 1446q-19 0 -32 13.5t-13 32.5q0 23 18.5 40.5t41.5 17.5q19 0 32 -13.5t13 -33.5q0 -23 -18 -40t-42 -17zM844 1262q111 0 208.5 -39t169 -109.5 t113 -174.5t41.5 -228q0 -160 -60.5 -297.5t-160 -230t-227.5 -144.5t-263 -52q-149 0 -269.5 66.5t-192 193t-71.5 291.5q0 159 60.5 297t160.5 230.5t228 144.5t263 52zM673 44q123 0 238 48.5t203 134t140.5 210.5t52.5 268q0 224 -133 362t-338 138q-123 0 -238 -48.5 t-203 -134t-140.5 -210.5t-52.5 -268q0 -224 133 -362t338 -138z" />
<glyph unicode="&#xd7;" horiz-adv-x="982" d="M924 862q6 -7 -2 -15l-380 -333l286 -333q7 -9 -2 -16l-25 -22q-9 -7 -15 0l-286 334l-381 -334q-9 -7 -15 0l-18 22q-7 7 2 16l380 333l-287 333q-7 7 2 15l25 22q9 7 15 0l287 -333l380 333q8 8 15 0z" />
<glyph unicode="&#xd8;" d="M1394 1171q7 -7 -2 -14l-119 -104q103 -143 103 -342q0 -160 -60.5 -297.5t-160 -230t-227.5 -144.5t-263 -52q-122 0 -226.5 46t-177.5 131l-126 -110q-8 -7 -15 0l-19 22q-7 9 2 16l127 111q-98 141 -98 335q0 159 60.5 297t160.5 230.5t228 144.5t263 52 q120 0 223 -44t176 -127l117 102q8 7 15 0zM202 544q0 -171 80 -296l910 799q-133 158 -356 158q-123 0 -238 -48.5t-203 -134t-140.5 -210.5t-52.5 -268zM1307 705q0 175 -85 303l-911 -799q64 -79 157.5 -122t204.5 -43q123 0 238 48.5t203 134t140.5 210.5t52.5 268z" />
<glyph unicode="&#xd9;" horiz-adv-x="1251" d="M788 1376l-269 228q-8 5 -1 14l24 31q8 10 16 3l262 -236q8 -7 1 -16l-17 -21q-9 -9 -16 -3zM1233 1249q11 0 9 -10l-101 -722q-36 -258 -189 -397.5t-388 -139.5t-348.5 139.5t-77.5 397.5l101 722q2 10 12 10h45q11 0 9 -10l-100 -712q-33 -235 60 -363t306 -128 t342.5 128t162.5 363l100 712q2 10 12 10h45z" />
<glyph unicode="&#xda;" horiz-adv-x="1251" d="M726 1376q-9 -7 -15 3l-12 21q-4 9 6 16l329 236q9 6 15 -3l15 -31q5 -8 -5 -14zM1233 1249q11 0 9 -10l-101 -722q-36 -258 -189 -397.5t-388 -139.5t-348.5 139.5t-77.5 397.5l101 722q2 10 12 10h45q11 0 9 -10l-100 -712q-33 -235 60 -363t306 -128t342.5 128 t162.5 363l100 712q2 10 12 10h45z" />
<glyph unicode="&#xdb;" horiz-adv-x="1251" d="M943 1378l-155 205l-212 -205q-7 -6 -15 -6h-45q-7 0 -9 3t4 9l252 240q5 5 16 5h31q10 0 15 -5l184 -240q9 -12 -8 -12h-44q-9 0 -14 6zM1233 1249q11 0 9 -10l-101 -722q-36 -258 -189 -397.5t-388 -139.5t-348.5 139.5t-77.5 397.5l101 722q2 10 12 10h45q11 0 9 -10 l-100 -712q-33 -235 60 -363t306 -128t342.5 128t162.5 363l100 712q2 10 12 10h45z" />
<glyph unicode="&#xdc;" horiz-adv-x="1251" d="M599 1446q-19 0 -32.5 13.5t-13.5 32.5q0 23 18.5 40.5t41.5 17.5q19 0 32 -13.5t13 -33.5q0 -23 -18 -40t-41 -17zM942 1446q-19 0 -32 13.5t-13 32.5q0 23 18 40.5t41 17.5q19 0 32 -13.5t13 -33.5q0 -23 -18 -40t-41 -17zM1233 1249q11 0 9 -10l-101 -722 q-36 -258 -189 -397.5t-388 -139.5t-348.5 139.5t-77.5 397.5l101 722q2 10 12 10h45q11 0 9 -10l-100 -712q-33 -235 60 -363t306 -128t342.5 128t162.5 363l100 712q2 10 12 10h45z" />
<glyph unicode="&#xdd;" horiz-adv-x="1154" d="M668 1379l-12 21q-4 9 6 16l328 236q9 6 15 -3l16 -31q5 -8 -5 -14l-334 -228q-8 -7 -14 3zM1224 1249q6 0 8.5 -3t-1.5 -9l-613 -786l-62 -440q-2 -11 -12 -11h-44q-5 0 -8 3.5t-2 7.5l61 440l-398 786q-3 6 0.5 9t9.5 3h51q9 0 12 -8l367 -730l567 730q7 8 15 8h49z " />
<glyph unicode="&#xde;" horiz-adv-x="1099" d="M648 1011q106 0 187 -26.5t129 -73.5t71.5 -105.5t23.5 -126.5q0 -83 -31.5 -158t-92.5 -135.5t-163 -96.5t-231 -36h-374l-34 -242q-2 -11 -12 -11h-45q-4 0 -7 3.5t-2 7.5l173 1228q2 10 12 10h45q11 0 9 -10l-32 -228h374zM539 310q119 0 209 31t141.5 84t76.5 115.5 t25 133.5q0 122 -87.5 201t-273.5 79h-364l-90 -644h363z" />
<glyph unicode="&#xdf;" horiz-adv-x="1000" d="M625 650q0 -46 15.5 -80t40.5 -54.5t55.5 -37t61 -34t55.5 -39t40.5 -59t15.5 -87.5q0 -73 -31.5 -128t-82 -85t-104.5 -44.5t-109 -14.5q-153 0 -255 94q-8 8 -3 16l18 29q7 11 15 6q112 -91 229 -91q44 0 87 10.5t83 33t65 65t25 99.5q0 50 -21.5 85.5t-53.5 53 t-69 38.5t-69 42t-53.5 64t-21.5 104q0 55 18 99t43 75t50.5 63t43.5 79t18 107q0 101 -50 158t-146 57q-109 0 -177.5 -68.5t-84.5 -176.5l-142 -1018q-2 -11 -12 -11h-43q-11 0 -9 11l144 1023q18 131 108.5 213t221.5 82q120 0 187 -71t67 -193q0 -61 -17.5 -110 t-42.5 -81.5t-50 -63t-42.5 -71t-17.5 -89.5z" />
<glyph unicode="&#xe0;" horiz-adv-x="1060" d="M366 1194q-8 6 -1 15l24 31q7 9 15 2l263 -236q8 -6 1 -15l-17 -22q-9 -9 -16 -3zM994 829l-73 -522q-11 -60 -9 -118.5t7.5 -89.5t18.5 -81q3 -11 -8 -16l-29 -10q-7 -3 -11 2q-48 110 -43 228q-62 -108 -166.5 -171.5t-229.5 -63.5q-157 0 -262 104.5t-105 271.5 q0 106 41.5 199t109.5 155.5t156 98.5t181 36q124 0 210 -67t117 -180l31 224q2 11 13 11h42q11 0 9 -11zM464 44q170 0 294 123.5t124 298.5q0 144 -87 236.5t-225 92.5q-81 0 -156.5 -31t-134 -85t-93.5 -135t-35 -175q0 -147 89 -236t224 -89z" />
<glyph unicode="&#xe1;" horiz-adv-x="1060" d="M558 969l-12 22q-3 9 6 15l329 236q9 6 14 -2l16 -31q5 -8 -5 -15l-334 -228q-8 -7 -14 3zM994 829l-73 -522q-11 -60 -9 -118.5t7.5 -89.5t18.5 -81q3 -11 -8 -16l-29 -10q-7 -3 -11 2q-48 110 -43 228q-62 -108 -166.5 -171.5t-229.5 -63.5q-157 0 -262 104.5 t-105 271.5q0 106 41.5 199t109.5 155.5t156 98.5t181 36q124 0 210 -67t117 -180l31 224q2 11 13 11h42q11 0 9 -11zM464 44q170 0 294 123.5t124 298.5q0 144 -87 236.5t-225 92.5q-81 0 -156.5 -31t-134 -85t-93.5 -135t-35 -175q0 -147 89 -236t224 -89z" />
<glyph unicode="&#xe2;" horiz-adv-x="1060" d="M362 963q-7 0 -8.5 3t4.5 9l252 239q6 6 16 6h31q9 0 15 -6l184 -239q9 -12 -8 -12h-44q-10 0 -14 5l-155 205l-212 -205q-6 -5 -15 -5h-46zM994 829l-73 -522q-11 -60 -9 -118.5t7.5 -89.5t18.5 -81q3 -11 -8 -16l-29 -10q-7 -3 -11 2q-48 110 -43 228 q-62 -108 -166.5 -171.5t-229.5 -63.5q-157 0 -262 104.5t-105 271.5q0 106 41.5 199t109.5 155.5t156 98.5t181 36q124 0 210 -67t117 -180l31 224q2 11 13 11h42q11 0 9 -11zM464 44q170 0 294 123.5t124 298.5q0 144 -87 236.5t-225 92.5q-81 0 -156.5 -31t-134 -85 t-93.5 -135t-35 -175q0 -147 89 -236t224 -89z" />
<glyph unicode="&#xe3;" horiz-adv-x="1060" d="M344 988q-11 0 -9 10q6 89 56 139.5t123 50.5q36 0 62.5 -15.5t43.5 -38t32.5 -45t37.5 -38t51 -15.5q102 0 132 141q3 11 13 11h19q10 0 7 -17q-7 -87 -56.5 -135t-120.5 -48q-43 0 -75 24t-48 52t-43 52t-62 24q-103 0 -132 -142q-3 -10 -13 -10h-18zM994 829l-73 -522 q-11 -60 -9 -118.5t7.5 -89.5t18.5 -81q3 -11 -8 -16l-29 -10q-7 -3 -11 2q-48 110 -43 228q-62 -108 -166.5 -171.5t-229.5 -63.5q-157 0 -262 104.5t-105 271.5q0 106 41.5 199t109.5 155.5t156 98.5t181 36q124 0 210 -67t117 -180l31 224q2 11 13 11h42q11 0 9 -11z M464 44q170 0 294 123.5t124 298.5q0 144 -87 236.5t-225 92.5q-81 0 -156.5 -31t-134 -85t-93.5 -135t-35 -175q0 -147 89 -236t224 -89z" />
<glyph unicode="&#xe4;" horiz-adv-x="1060" d="M445 1036q-19 0 -32 13.5t-13 32.5q0 23 18.5 40.5t41.5 17.5q19 0 32 -13t13 -33q0 -23 -18.5 -40.5t-41.5 -17.5zM788 1036q-19 0 -32 13.5t-13 32.5q0 23 18.5 40.5t41.5 17.5q19 0 32 -13t13 -33q0 -23 -18.5 -40.5t-41.5 -17.5zM994 829l-73 -522q-11 -60 -9 -118.5 t7.5 -89.5t18.5 -81q3 -11 -8 -16l-29 -10q-7 -3 -11 2q-48 110 -43 228q-62 -108 -166.5 -171.5t-229.5 -63.5q-157 0 -262 104.5t-105 271.5q0 106 41.5 199t109.5 155.5t156 98.5t181 36q124 0 210 -67t117 -180l31 224q2 11 13 11h42q11 0 9 -11zM464 44 q170 0 294 123.5t124 298.5q0 144 -87 236.5t-225 92.5q-81 0 -156.5 -31t-134 -85t-93.5 -135t-35 -175q0 -147 89 -236t224 -89z" />
<glyph unicode="&#xe5;" horiz-adv-x="1060" d="M602 930q-72 0 -120 49t-48 121q0 86 67 150.5t155 64.5q72 0 120 -49.5t48 -121.5q0 -87 -67 -150.5t-155 -63.5zM651 1277q-71 0 -123.5 -51.5t-52.5 -121.5q0 -57 37.5 -96t95.5 -39q71 0 123 51t52 121q0 58 -37 97t-95 39zM994 829l-73 -522q-11 -60 -9 -118.5 t7.5 -89.5t18.5 -81q3 -11 -8 -16l-29 -10q-7 -3 -11 2q-48 110 -43 228q-62 -108 -166.5 -171.5t-229.5 -63.5q-157 0 -262 104.5t-105 271.5q0 106 41.5 199t109.5 155.5t156 98.5t181 36q124 0 210 -67t117 -180l31 224q2 11 13 11h42q11 0 9 -11zM464 44 q170 0 294 123.5t124 298.5q0 144 -87 236.5t-225 92.5q-81 0 -156.5 -31t-134 -85t-93.5 -135t-35 -175q0 -147 89 -236t224 -89z" />
<glyph unicode="&#xe6;" horiz-adv-x="1585" d="M1491 441h-734q-5 -30 -5 -72q0 -147 88.5 -236t223.5 -89q211 0 326 195q6 10 16 5l33 -17q9 -5 3 -15q-133 -225 -388 -225q-133 0 -230 74t-127 199q-48 -114 -161 -193.5t-242 -79.5q-108 0 -171.5 60t-63.5 153q0 107 76 184t216.5 103.5t339.5 -22.5l10 70 q19 130 -22.5 195t-173.5 65q-75 0 -139 -19.5t-151 -61.5q-11 -6 -15 5l-10 31q-4 10 8 15q92 45 165 66t156 21q132 0 188 -55.5t58 -159.5q66 100 173 157.5t229 57.5q171 0 261 -109.5t63 -301.5zM1160 798q-136 0 -246 -84.5t-147 -223.5h659q13 144 -60.5 226 t-205.5 82zM314 41q133 0 238.5 94.5t121.5 207.5l11 75q-184 48 -308.5 26.5t-188 -84.5t-63.5 -153q0 -74 51 -120t138 -46z" />
<glyph unicode="&#xe7;" horiz-adv-x="978" d="M913 624q4 -8 -7 -14l-38 -17q-9 -4 -14 5q-28 94 -96 145.5t-174 51.5q-113 0 -209 -52t-155 -151t-59 -225q0 -147 88.5 -235t229.5 -88q205 0 325 198q7 9 15 5l34 -17q9 -5 3 -15q-62 -106 -159.5 -166.5t-225.5 -61.5l-62 -125q93 25 159 -4t66 -106 q0 -76 -56.5 -124t-138.5 -48q-87 0 -158 43q-7 7 -2 16l8 13q6 10 17 5q67 -37 138 -37q61 0 100.5 35t39.5 91q0 65 -64.5 84t-158.5 -10q-8 -2 -10.5 1.5t2.5 11.5l78 156q-149 13 -242 114.5t-93 258.5q0 142 70 255.5t183 174t243 60.5q129 0 210 -60.5t113 -167.5z " />
<glyph unicode="&#xe8;" horiz-adv-x="994" d="M330 1194q-8 6 -1 15l24 31q7 9 16 2l262 -236q8 -6 1 -15l-17 -22q-9 -9 -16 -3zM901 441h-734q-6 -36 -6 -72q0 -147 89 -236t224 -89q211 0 326 195q6 10 16 5l33 -17q9 -5 3 -15q-65 -110 -164.5 -167.5t-224.5 -57.5q-159 0 -263.5 103.5t-104.5 271.5 q0 141 67.5 254.5t177 174.5t237.5 61q171 0 261 -109.5t63 -301.5zM569 798q-136 0 -245.5 -84.5t-146.5 -223.5h659q13 144 -61 226t-206 82z" />
<glyph unicode="&#xe9;" horiz-adv-x="994" d="M522 969l-12 22q-3 9 6 15l329 236q10 7 15 -2l16 -31q5 -8 -6 -15l-333 -228q-9 -7 -15 3zM901 441h-734q-6 -36 -6 -72q0 -147 89 -236t224 -89q211 0 326 195q6 10 16 5l33 -17q9 -5 3 -15q-65 -110 -164.5 -167.5t-224.5 -57.5q-159 0 -263.5 103.5t-104.5 271.5 q0 141 67.5 254.5t177 174.5t237.5 61q171 0 261 -109.5t63 -301.5zM569 798q-136 0 -245.5 -84.5t-146.5 -223.5h659q13 144 -61 226t-206 82z" />
<glyph unicode="&#xea;" horiz-adv-x="994" d="M327 963q-7 0 -8.5 3t4.5 9l251 239q6 6 16 6h31q9 0 15 -6l184 -239q9 -12 -7 -12h-44q-11 0 -15 5l-155 205l-212 -205q-6 -5 -15 -5h-45zM901 441h-734q-6 -36 -6 -72q0 -147 89 -236t224 -89q211 0 326 195q6 10 16 5l33 -17q9 -5 3 -15q-65 -110 -164.5 -167.5 t-224.5 -57.5q-159 0 -263.5 103.5t-104.5 271.5q0 141 67.5 254.5t177 174.5t237.5 61q171 0 261 -109.5t63 -301.5zM569 798q-136 0 -245.5 -84.5t-146.5 -223.5h659q13 144 -61 226t-206 82z" />
<glyph unicode="&#xeb;" horiz-adv-x="994" d="M410 1036q-19 0 -32.5 13.5t-13.5 32.5q0 23 18.5 40.5t41.5 17.5q19 0 32 -13t13 -33q0 -23 -18 -40.5t-41 -17.5zM753 1036q-19 0 -32 13.5t-13 32.5q0 23 18 40.5t41 17.5q19 0 32.5 -13t13.5 -33q0 -23 -18.5 -40.5t-41.5 -17.5zM901 441h-734q-6 -36 -6 -72 q0 -147 89 -236t224 -89q211 0 326 195q6 10 16 5l33 -17q9 -5 3 -15q-65 -110 -164.5 -167.5t-224.5 -57.5q-159 0 -263.5 103.5t-104.5 271.5q0 141 67.5 254.5t177 174.5t237.5 61q171 0 261 -109.5t63 -301.5zM569 798q-136 0 -245.5 -84.5t-146.5 -223.5h659 q13 144 -61 226t-206 82z" />
<glyph unicode="&#xec;" horiz-adv-x="312" d="M261 966l-269 228q-8 6 -1 15l24 31q7 9 16 2l262 -236q8 -6 1 -15l-17 -22q-9 -9 -16 -3zM182 829q2 11 12 11h43q11 0 9 -11l-115 -818q-2 -11 -13 -11h-42q-11 0 -9 11z" />
<glyph unicode="&#xed;" horiz-adv-x="312" d="M199 966q-9 -7 -15 3l-11 22q-4 9 5 15l329 236q10 7 15 -2l16 -31q5 -8 -6 -15zM182 829q2 11 12 11h43q11 0 9 -11l-115 -818q-2 -11 -13 -11h-42q-11 0 -9 11z" />
<glyph unicode="&#xee;" horiz-adv-x="312" d="M416 968l-155 205l-212 -205q-6 -5 -15 -5h-45q-17 0 -4 12l251 239q6 6 16 6h31q9 0 15 -6l184 -239q9 -12 -7 -12h-44q-11 0 -15 5zM182 829q2 11 12 11h43q11 0 9 -11l-115 -818q-2 -11 -13 -11h-42q-11 0 -9 11z" />
<glyph unicode="&#xef;" horiz-adv-x="312" d="M72 1036q-19 0 -32.5 13.5t-13.5 32.5q0 23 18.5 40.5t41.5 17.5q19 0 32 -13t13 -33q0 -23 -18 -40.5t-41 -17.5zM415 1036q-19 0 -32 13.5t-13 32.5q0 23 18.5 40.5t41.5 17.5q19 0 32 -13t13 -33q0 -23 -18.5 -40.5t-41.5 -17.5zM182 829q2 11 12 11h43q11 0 9 -11 l-115 -818q-2 -11 -13 -11h-42q-11 0 -9 11z" />
<glyph unicode="&#xf0;" horiz-adv-x="1053" d="M658 1236q87 -52 148.5 -133.5t92 -166.5t43.5 -183.5t11 -177t-13 -154.5q-18 -128 -90 -228.5t-174.5 -153t-216.5 -52.5q-174 0 -281 120t-81 308q18 125 88.5 223.5t172 151t214.5 52.5q111 0 194 -51.5t122 -144.5q-14 391 -262 546l-115 -160q-7 -9 -14 -4l-13 8 q-9 6 -2 15l114 158q-76 40 -169 59q-14 5 -6 18l13 22q4 7 13 6q100 -19 181 -61l100 141q6 9 15 4l13 -8q9 -5 2 -15zM467 44q149 0 267 103t141 268t-65.5 267.5t-238.5 102.5t-267.5 -102.5t-140.5 -267.5t65.5 -268t238.5 -103z" />
<glyph unicode="&#xf1;" horiz-adv-x="1008" d="M901 1188q10 0 7 -17q-7 -87 -56.5 -135t-120.5 -48q-43 0 -75 24t-48 52t-43 52t-62 24q-103 0 -132 -142q-3 -10 -13 -10h-19q-10 0 -8 10q6 89 56 139.5t123 50.5q36 0 62.5 -15.5t43.5 -38t32.5 -45t37.5 -38t51 -15.5q102 0 132 141q3 11 13 11h19zM632 860 q159 0 224 -93.5t42 -255.5l-71 -500q-2 -11 -12 -11h-42q-5 0 -8 3.5t-2 7.5l68 481q43 311 -223 311q-149 0 -272 -105t-143 -246l-62 -441q-2 -11 -12 -11h-43q-11 0 -9 11l115 818q2 11 13 11h42q11 0 9 -11l-31 -216q23 41 61.5 82t91 79t122 62t142.5 24z" />
<glyph unicode="&#xf2;" horiz-adv-x="1053" d="M631 966l-269 228q-8 6 -1 15l25 31q7 9 15 2l262 -236q8 -6 1 -15l-17 -22q-9 -9 -16 -3zM588 852q160 0 265.5 -104t105.5 -272q0 -106 -41.5 -199t-110 -155.5t-157.5 -98.5t-184 -36q-160 0 -265.5 104.5t-105.5 272.5q0 106 41.5 199t110 155.5t157.5 98t184 35.5z M474 44q107 0 202 52t156 151.5t61 223.5q0 147 -88.5 235.5t-224.5 88.5q-79 0 -154.5 -31t-134 -85t-94.5 -135t-36 -175q0 -147 89 -236t224 -89z" />
<glyph unicode="&#xf3;" horiz-adv-x="1053" d="M569 966q-9 -7 -15 3l-11 22q-4 9 5 15l329 236q10 7 15 -2l16 -31q5 -8 -5 -15zM588 852q160 0 265.5 -104t105.5 -272q0 -106 -41.5 -199t-110 -155.5t-157.5 -98.5t-184 -36q-160 0 -265.5 104.5t-105.5 272.5q0 106 41.5 199t110 155.5t157.5 98t184 35.5zM474 44 q107 0 202 52t156 151.5t61 223.5q0 147 -88.5 235.5t-224.5 88.5q-79 0 -154.5 -31t-134 -85t-94.5 -135t-36 -175q0 -147 89 -236t224 -89z" />
<glyph unicode="&#xf4;" horiz-adv-x="1053" d="M786 968l-155 205l-212 -205q-6 -5 -15 -5h-45q-7 0 -8.5 3t4.5 9l251 239q6 6 17 6h30q9 0 15 -6l184 -239q9 -12 -7 -12h-44q-11 0 -15 5zM588 852q160 0 265.5 -104t105.5 -272q0 -106 -41.5 -199t-110 -155.5t-157.5 -98.5t-184 -36q-160 0 -265.5 104.5 t-105.5 272.5q0 106 41.5 199t110 155.5t157.5 98t184 35.5zM474 44q107 0 202 52t156 151.5t61 223.5q0 147 -88.5 235.5t-224.5 88.5q-79 0 -154.5 -31t-134 -85t-94.5 -135t-36 -175q0 -147 89 -236t224 -89z" />
<glyph unicode="&#xf5;" horiz-adv-x="1053" d="M340 988q-11 0 -9 10q6 89 56 139.5t123 50.5q43 0 75 -24t48 -52t43 -52t62 -24q102 0 132 141q3 11 13 11h19q10 0 7 -17q-7 -87 -57 -135t-121 -48q-43 0 -75 24t-48 52t-43 52t-62 24q-103 0 -132 -142q-3 -10 -12 -10h-19zM588 852q160 0 265.5 -104t105.5 -272 q0 -106 -41.5 -199t-110 -155.5t-157.5 -98.5t-184 -36q-160 0 -265.5 104.5t-105.5 272.5q0 106 41.5 199t110 155.5t157.5 98t184 35.5zM474 44q107 0 202 52t156 151.5t61 223.5q0 147 -88.5 235.5t-224.5 88.5q-79 0 -154.5 -31t-134 -85t-94.5 -135t-36 -175 q0 -147 89 -236t224 -89z" />
<glyph unicode="&#xf6;" horiz-adv-x="1053" d="M442 1036q-19 0 -32.5 13.5t-13.5 32.5q0 23 18.5 40.5t41.5 17.5q19 0 32 -13t13 -33q0 -23 -18 -40.5t-41 -17.5zM785 1036q-19 0 -32 13.5t-13 32.5q0 23 18.5 40.5t41.5 17.5q19 0 32 -13t13 -33q0 -23 -18.5 -40.5t-41.5 -17.5zM588 852q160 0 265.5 -104 t105.5 -272q0 -106 -41.5 -199t-110 -155.5t-157.5 -98.5t-184 -36q-160 0 -265.5 104.5t-105.5 272.5q0 106 41.5 199t110 155.5t157.5 98t184 35.5zM474 44q107 0 202 52t156 151.5t61 223.5q0 147 -88.5 235.5t-224.5 88.5q-79 0 -154.5 -31t-134 -85t-94.5 -135 t-36 -175q0 -147 89 -236t224 -89z" />
<glyph unicode="&#xf7;" horiz-adv-x="1047" d="M505 745q-16 0 -27 11t-11 28q0 23 20.5 41.5t44.5 18.5q17 0 27.5 -11t10.5 -28q0 -23 -20.5 -41.5t-44.5 -18.5zM142 514q-11 0 -9 10l4 31q2 11 12 11h791q11 0 9 -11l-4 -31q-2 -10 -13 -10h-790zM433 236q-16 0 -26.5 10.5t-10.5 27.5q0 23 20.5 41.5t44.5 18.5 q16 0 26.5 -11t10.5 -28q0 -23 -20.5 -41t-44.5 -18z" />
<glyph unicode="&#xf8;" horiz-adv-x="1057" d="M999 812q7 -7 -3 -15l-105 -92q69 -96 69 -229q0 -106 -41.5 -199t-110 -155.5t-157.5 -98.5t-184 -36q-164 0 -270 109l-106 -93q-8 -7 -15 0l-19 21q-7 9 2 15l107 94q-70 95 -70 231q0 106 41.5 199t110 155.5t157.5 98t184 35.5q168 0 272 -110l104 92q8 6 14 0z M162 369q0 -110 54 -193l596 523q-88 96 -231 96q-81 0 -156.5 -31t-134 -85t-93.5 -135t-35 -175zM894 471q0 108 -53 190l-595 -523q88 -94 229 -94q108 0 203.5 52t155.5 151t60 224z" />
<glyph unicode="&#xf9;" horiz-adv-x="1008" d="M610 966l-269 228q-9 6 -2 15l25 31q7 9 15 2l263 -236q8 -6 1 -15l-17 -22q-9 -9 -16 -3zM932 840q5 0 8 -3.5t2 -7.5l-115 -818q-2 -11 -12 -11h-42q-5 0 -8 3.5t-2 7.5l31 216q-23 -41 -61.5 -82t-91 -79t-122 -62t-142.5 -24q-159 0 -223.5 93t-41.5 255l70 501 q2 11 12 11h42q11 0 9 -11l-67 -481q-43 -312 222 -312q149 0 273 106t144 246l62 441q2 11 11 11h42z" />
<glyph unicode="&#xfa;" horiz-adv-x="1008" d="M547 966q-8 -7 -14 3l-12 22q-3 9 6 15l329 236q9 6 14 -2l16 -31q5 -8 -5 -15zM932 840q5 0 8 -3.5t2 -7.5l-115 -818q-2 -11 -12 -11h-42q-5 0 -8 3.5t-2 7.5l31 216q-23 -41 -61.5 -82t-91 -79t-122 -62t-142.5 -24q-159 0 -223.5 93t-41.5 255l70 501q2 11 12 11h42 q11 0 9 -11l-67 -481q-43 -312 222 -312q149 0 273 106t144 246l62 441q2 11 11 11h42z" />
<glyph unicode="&#xfb;" horiz-adv-x="1008" d="M764 968l-154 205l-212 -205q-6 -5 -15 -5h-46q-17 0 -4 12l252 239q6 6 16 6h31q9 0 15 -6l183 -239q9 -12 -7 -12h-44q-11 0 -15 5zM932 840q5 0 8 -3.5t2 -7.5l-115 -818q-2 -11 -12 -11h-42q-5 0 -8 3.5t-2 7.5l31 216q-23 -41 -61.5 -82t-91 -79t-122 -62 t-142.5 -24q-159 0 -223.5 93t-41.5 255l70 501q2 11 12 11h42q11 0 9 -11l-67 -481q-43 -312 222 -312q149 0 273 106t144 246l62 441q2 11 11 11h42z" />
<glyph unicode="&#xfc;" horiz-adv-x="1008" d="M420 1036q-19 0 -32 13.5t-13 32.5q0 23 18.5 40.5t41.5 17.5q19 0 32 -13t13 -33q0 -23 -18.5 -40.5t-41.5 -17.5zM763 1036q-19 0 -32 13.5t-13 32.5q0 23 18.5 40.5t41.5 17.5q19 0 32 -13t13 -33q0 -23 -18.5 -40.5t-41.5 -17.5zM932 840q5 0 8 -3.5t2 -7.5 l-115 -818q-2 -11 -12 -11h-42q-5 0 -8 3.5t-2 7.5l31 216q-23 -41 -61.5 -82t-91 -79t-122 -62t-142.5 -24q-159 0 -223.5 93t-41.5 255l70 501q2 11 12 11h42q11 0 9 -11l-67 -481q-43 -312 222 -312q149 0 273 106t144 246l62 441q2 11 11 11h42z" />
<glyph unicode="&#xfd;" horiz-adv-x="819" d="M436 969l-12 22q-3 9 6 15l328 236q10 7 15 -2l16 -31q5 -8 -5 -15l-334 -228q-8 -7 -14 3zM857 840q7 0 9 -6t-3 -14l-482 -824q-74 -126 -128.5 -206.5t-112.5 -143t-114 -90t-119 -27.5q-11 0 -10 10l4 32q2 10 12 11q94 3 184.5 102t234.5 345l-263 791q-3 8 1 14 t12 6h44q7 0 11 -9l234 -735l428 735q5 9 16 9h42z" />
<glyph unicode="&#xfe;" horiz-adv-x="1071" d="M610 852q157 0 261.5 -104t104.5 -272q0 -106 -41.5 -199t-109.5 -155.5t-156 -98.5t-181 -36q-123 0 -208.5 67.5t-117.5 181.5l-97 -697q-2 -10 -13 -10h-42q-11 0 -9 10l247 1761q2 11 12 11h43q11 0 9 -11l-96 -679q62 107 166.5 169t227.5 62zM492 44q108 0 203 52 t155 151t60 224q0 147 -89 235.5t-224 88.5q-111 0 -207 -55.5t-153.5 -153t-57.5 -212.5q0 -144 87 -237t226 -93z" />
<glyph unicode="&#xff;" horiz-adv-x="819" d="M323 1036q-19 0 -32 13.5t-13 32.5q0 23 18 40.5t41 17.5q19 0 32 -13t13 -33q0 -23 -18 -40.5t-41 -17.5zM666 1036q-19 0 -32 13.5t-13 32.5q0 23 18.5 40.5t41.5 17.5q19 0 32 -13t13 -33q0 -23 -18.5 -40.5t-41.5 -17.5zM857 840q7 0 9 -6t-3 -14l-482 -824 q-74 -126 -128.5 -206.5t-112.5 -143t-114 -90t-119 -27.5q-11 0 -10 10l4 32q2 10 12 11q94 3 184.5 102t234.5 345l-263 791q-3 8 1 14t12 6h44q7 0 11 -9l234 -735l428 735q5 9 16 9h42z" />
<glyph unicode="&#x152;" horiz-adv-x="1972" d="M1954 1249q12 0 10 -10l-6 -36q-2 -11 -12 -11h-824q124 -72 189 -204t53 -307h429q11 0 9 -11l-5 -36q-2 -10 -12 -10h-427q-28 -196 -136.5 -343.5t-267.5 -223.5h853q5 0 8 -3.5t2 -7.5l-6 -35q-2 -11 -12 -11h-1019q-61 -11 -118 -11q-123 0 -228 45t-178 126 t-106 202.5t-13 264.5t87 264t163 202t213.5 126t240.5 45q71 0 135 -15h978zM1297 627q18 129 -10 238.5t-91.5 183.5t-157 116t-205.5 42t-217.5 -42t-190 -116t-143.5 -183.5t-77 -238.5t10 -238.5t92 -184t157.5 -116.5t205.5 -42q150 0 283.5 71t226.5 205t117 305z " />
<glyph unicode="&#x153;" horiz-adv-x="1790" d="M1697 441h-734q-6 -36 -6 -72q0 -147 89 -236t224 -89q210 0 325 195q7 10 16 5l34 -17q9 -5 3 -15q-65 -110 -164.5 -167.5t-224.5 -57.5q-130 0 -225.5 70.5t-128.5 191.5q-63 -121 -182.5 -191.5t-256.5 -70.5q-160 0 -265.5 104.5t-105.5 272.5q0 106 41.5 199 t110 155.5t157.5 98t184 35.5q130 0 226 -70t130 -190q61 120 177 190t252 70q171 0 261 -109.5t63 -301.5zM1365 798q-136 0 -246 -84.5t-147 -223.5h660q13 144 -61 226t-206 82zM474 44q107 0 202 52t156 151.5t61 223.5q0 147 -88.5 235.5t-224.5 88.5q-79 0 -154.5 -31 t-134 -85t-94.5 -135t-36 -175q0 -147 89 -236t224 -89z" />
<glyph unicode="&#x178;" horiz-adv-x="1154" d="M555 1446q-19 0 -32.5 13.5t-13.5 32.5q0 23 18.5 40.5t41.5 17.5q19 0 32 -13.5t13 -33.5q0 -23 -18 -40t-41 -17zM898 1446q-19 0 -32 13.5t-13 32.5q0 23 18.5 40.5t41.5 17.5q19 0 32 -13.5t13 -33.5q0 -23 -18 -40t-42 -17zM1224 1249q6 0 8.5 -3t-1.5 -9l-613 -786 l-62 -440q-2 -11 -12 -11h-44q-5 0 -8 3.5t-2 7.5l61 440l-398 786q-3 6 0.5 9t9.5 3h51q9 0 12 -8l367 -730l567 730q7 8 15 8h49z" />
<glyph unicode="&#x2c6;" horiz-adv-x="504" d="M436 968l-154 205l-212 -205q-6 -5 -15 -5h-46q-17 0 -4 12l252 239q6 6 16 6h31q8 0 14 -6l184 -239q9 -12 -7 -12h-44q-11 0 -15 5z" />
<glyph unicode="&#x2dc;" horiz-adv-x="724" d="M585 1188q10 0 7 -17q-7 -87 -56.5 -135t-120.5 -48q-43 0 -75 24t-48 52t-43 52t-62 24q-103 0 -132 -142q-3 -10 -13 -10h-18q-11 0 -9 10q6 89 56 139.5t123 50.5q36 0 62.5 -15.5t43.5 -38t32.5 -45t37.5 -38t51 -15.5q102 0 132 141q3 11 13 11h19z" />
<glyph unicode="&#x2000;" horiz-adv-x="827" />
<glyph unicode="&#x2001;" horiz-adv-x="1654" />
<glyph unicode="&#x2002;" horiz-adv-x="827" />
<glyph unicode="&#x2003;" horiz-adv-x="1654" />
<glyph unicode="&#x2004;" horiz-adv-x="551" />
<glyph unicode="&#x2005;" horiz-adv-x="413" />
<glyph unicode="&#x2006;" horiz-adv-x="275" />
<glyph unicode="&#x2007;" horiz-adv-x="275" />
<glyph unicode="&#x2008;" horiz-adv-x="206" />
<glyph unicode="&#x2009;" horiz-adv-x="330" />
<glyph unicode="&#x200a;" horiz-adv-x="91" />
<glyph unicode="&#x2010;" horiz-adv-x="868" d="M135 460q-5 0 -8 3.5t-2 7.5l5 35q2 11 13 11h611q10 0 8 -11l-4 -35q-2 -11 -12 -11h-611z" />
<glyph unicode="&#x2011;" horiz-adv-x="868" d="M135 460q-5 0 -8 3.5t-2 7.5l5 35q2 11 13 11h611q10 0 8 -11l-4 -35q-2 -11 -12 -11h-611z" />
<glyph unicode="&#x2012;" horiz-adv-x="868" d="M135 460q-5 0 -8 3.5t-2 7.5l5 35q2 11 13 11h611q10 0 8 -11l-4 -35q-2 -11 -12 -11h-611z" />
<glyph unicode="&#x2013;" horiz-adv-x="940" d="M20 462q-11 0 -9 11l4 31q2 11 13 11h893q10 0 8 -11l-4 -31q-2 -11 -12 -11h-893z" />
<glyph unicode="&#x2014;" horiz-adv-x="1554" d="M20 462q-11 0 -9 11l4 31q2 11 13 11h1507q11 0 9 -11l-4 -31q-2 -11 -12 -11h-1508z" />
<glyph unicode="&#x2018;" horiz-adv-x="353" d="M261 1031q-19 0 -32 12.5t-13 39.5q0 56 39.5 132.5t104.5 127.5q9 7 15 -1l5 -5q4 -7 -4 -15q-40 -35 -65.5 -80.5t-25.5 -84.5q0 -17 18 -28q20 -13 20 -37t-19 -42.5t-43 -18.5z" />
<glyph unicode="&#x2019;" horiz-adv-x="353" d="M306 1324q19 0 32 -13t13 -40q0 -56 -40 -132.5t-105 -127.5q-9 -7 -15 1l-5 5q-4 7 4 15q39 35 65 81t26 85q0 17 -17 27q-20 13 -20 38q0 24 19 42.5t43 18.5z" />
<glyph unicode="&#x201a;" horiz-adv-x="353" d="M133 94q19 0 32 -13t13 -40q0 -56 -40 -132.5t-105 -127.5q-8 -7 -15 2l-5 5q-4 7 4 15q40 35 65.5 80.5t25.5 84.5q0 18 -17 28q-20 13 -20 37t19 42.5t43 18.5z" />
<glyph unicode="&#x201c;" horiz-adv-x="547" d="M261 1031q-19 0 -32 12.5t-13 39.5q0 56 39.5 132.5t104.5 127.5q9 7 15 -1l5 -5q4 -7 -4 -15q-40 -35 -65.5 -80.5t-25.5 -84.5q0 -17 18 -28q20 -13 20 -37t-19 -42.5t-43 -18.5zM455 1031q-19 0 -32 12.5t-13 39.5q0 56 40 132.5t105 127.5q9 7 15 -1l4 -5 q4 -7 -3 -15q-40 -35 -65.5 -80.5t-25.5 -84.5q0 -18 17 -28q20 -13 20 -37t-19 -42.5t-43 -18.5z" />
<glyph unicode="&#x201d;" horiz-adv-x="547" d="M306 1324q19 0 32 -13t13 -40q0 -56 -40 -132.5t-105 -127.5q-9 -7 -15 1l-5 5q-4 7 4 15q39 35 65 81t26 85q0 17 -17 27q-20 13 -20 38q0 24 19 42.5t43 18.5zM500 1324q19 0 32 -13t13 -40q0 -56 -40 -132.5t-105 -127.5q-8 -7 -14 1l-5 5q-4 7 4 15q39 35 65 81 t26 85q0 16 -18 27q-20 13 -20 38q0 24 19 42.5t43 18.5z" />
<glyph unicode="&#x201e;" horiz-adv-x="547" d="M133 94q19 0 32 -13t13 -40q0 -56 -40 -132.5t-105 -127.5q-8 -7 -15 2l-5 5q-4 7 4 15q40 35 65.5 80.5t25.5 84.5q0 18 -17 28q-20 13 -20 37t19 42.5t43 18.5zM327 94q19 0 32 -13t13 -40q0 -56 -40 -132.5t-105 -127.5q-8 -7 -15 2l-4 5q-4 8 3 15q40 35 66 80.5 t26 84.5q0 17 -18 28q-20 13 -20 37t19 42.5t43 18.5z" />
<glyph unicode="&#x2022;" horiz-adv-x="466" d="M238 322q-49 0 -83 35t-34 85q0 59 47.5 104.5t108.5 45.5q49 0 83.5 -35t34.5 -85q0 -59 -48 -104.5t-109 -45.5z" />
<glyph unicode="&#x2026;" horiz-adv-x="915" d="M113 -13q-19 0 -32.5 14t-13.5 34q0 24 19 41.5t43 17.5q19 0 32.5 -13.5t13.5 -33.5q0 -24 -19 -42t-43 -18zM397 -13q-19 0 -32.5 14t-13.5 34q0 24 18.5 41.5t42.5 17.5q20 0 33.5 -14t13.5 -33q0 -24 -19 -42t-43 -18zM680 -13q-19 0 -32.5 14t-13.5 34q0 24 19 41.5 t43 17.5q19 0 32.5 -13.5t13.5 -33.5q0 -24 -19 -42t-43 -18z" />
<glyph unicode="&#x202f;" horiz-adv-x="330" />
<glyph unicode="&#x2039;" horiz-adv-x="596" d="M500 711q8 5 14 2t4 -11l-3 -26q-2 -5 -6 -7l-340 -236l274 -237q4 -2 2 -7l-3 -26q-1 -8 -8 -10.5t-13 2.5l-300 255q-4 3 -4 6l5 33q0 5 5 7z" />
<glyph unicode="&#x203a;" horiz-adv-x="596" d="M480 456q4 -2 2 -7l-2 -16l-2 -17q-1 -4 -5 -6l-372 -255q-8 -5 -14 -2.5t-5 10.5l4 26q0 4 4 7l341 237l-274 236q-3 2 -3 7l4 26q2 8 8.5 11t12.5 -2z" />
<glyph unicode="&#x205f;" horiz-adv-x="413" />
<glyph unicode="&#x20ac;" horiz-adv-x="1529" d="M1503 937q4 -10 -7 -15l-37 -16q-10 -5 -14 5q-111 294 -412 294q-193 0 -355.5 -111.5t-233.5 -299.5h662l-43 -47h-634q-30 -99 -30 -203q0 -28 1 -41h612l-43 -45h-564q26 -189 153.5 -301.5t311.5 -112.5q308 0 494 294q7 11 17 6l32 -17q9 -4 2 -15 q-203 -325 -553 -325q-208 0 -355 128t-172 343h-236l6 45h226q-1 11 -1 35q0 104 29 209h-219l6 47h228q51 142 155 249.5t237 163t275 55.5q344 0 462 -325z" />
<glyph unicode="&#x2122;" horiz-adv-x="1741" d="M1729 1263q8 0 6 -7l-109 -775q-2 -6 -8 -6h-28q-6 0 -5 6l96 686l-410 -533q-5 -6 -10 0l-261 533l-96 -686q-2 -6 -7 -6h-28q-7 0 -6 6l109 775q0 7 8 7h8q4 0 8 -6l279 -561l434 561q5 6 10 6h10zM842 1250q6 0 6 -6l-3 -22q-2 -7 -7 -7h-293l-103 -734q-2 -6 -8 -6 h-27q-7 0 -6 6l103 734h-292q-8 0 -6 7l3 22q0 6 8 6h326h299z" />
<glyph unicode="&#x25fc;" horiz-adv-x="839" d="M0 840h840v-840h-840v840z" />
</font>
</defs>
</svg>
