<?xml version="1.0" standalone="no"?>
<!DOCTYPE svg PUBLIC "-//W3C//DTD SVG 1.1//EN" "http://www.w3.org/Graphics/SVG/1.1/DTD/svg11.dtd" >
<svg xmlns="http://www.w3.org/2000/svg">
<metadata></metadata>
<defs>
<font id="migrena_grotesqueultralight" horiz-adv-x="1443" >
<font-face units-per-em="2048" ascent="1638" descent="-410" />
<missing-glyph horiz-adv-x="384" />
<glyph horiz-adv-x="0" />
<glyph horiz-adv-x="682" />
<glyph unicode=" "  horiz-adv-x="384" />
<glyph unicode="&#x09;" horiz-adv-x="384" />
<glyph unicode="&#xa0;" horiz-adv-x="384" />
<glyph unicode="!" horiz-adv-x="347" d="M142 1239q-1 4 2.5 7t8.5 3h42q11 0 11 -10l-9 -928q0 -10 -10 -10h-26q-10 0 -10 10zM174 -13q-22 0 -38 16t-16 38t16 37.5t38 15.5t37.5 -15.5t15.5 -37.5t-15.5 -38t-37.5 -16z" />
<glyph unicode="&#x22;" horiz-adv-x="516" d="M99 1274q-1 4 2 7.5t8 3.5h36q5 0 8.5 -3.5t2.5 -7.5l-7 -367q-2 -10 -11 -10h-23q-11 0 -11 10zM361 1274q-1 4 2.5 7.5t8.5 3.5h36q5 0 8 -3.5t2 -7.5l-6 -367q-2 -10 -11 -10h-23q-11 0 -11 10z" />
<glyph unicode="#" horiz-adv-x="1287" d="M1154 822q11 0 9 -10l-3 -36q-2 -11 -12 -11h-221l-37 -373h212q5 0 8 -3.5t2 -7.5l-3 -36q-2 -10 -11 -10h-213l-33 -324q-2 -11 -11 -11h-42q-5 0 -8 3.5t-2 7.5l32 324h-402l-32 -324q0 -11 -12 -11h-42q-5 0 -8 3.5t-2 7.5l32 324h-221q-12 0 -10 10l3 36q2 11 12 11 h222l37 373h-213q-11 0 -9 11l3 36q2 10 11 10h213l33 324q2 11 11 11h42q5 0 8 -3.5t2 -7.5l-32 -324h402l33 324q2 11 11 11h42q5 0 8 -3.5t2 -7.5l-32 -324h221zM827 392l37 373h-403l-37 -373h403z" />
<glyph unicode="$" horiz-adv-x="1114" d="M1007 321q0 -80 -32 -143t-88.5 -101.5t-125.5 -60.5t-151 -27v-205q0 -11 -11 -11h-30q-11 0 -11 11v203h-2q-233 0 -440 139q-12 8 -7 18l15 32q6 11 18 3q52 -33 83.5 -50t86 -40.5t115 -34t131.5 -10.5q79 0 145 14.5t120 45t84.5 84t30.5 124.5q0 66 -27 115.5 t-73.5 79.5t-106 51.5t-125.5 37t-132 31.5t-125.5 39.5t-106 55.5t-73.5 85.5t-27 124.5q0 146 109.5 236t306.5 94v185q0 10 11 10h30q11 0 11 -10v-186q111 -5 194.5 -34.5t161.5 -77.5q11 -6 5 -16l-17 -34q-5 -11 -18 -2q-171 109 -360 109q-178 0 -273 -73.5 t-95 -194.5q0 -62 27.5 -108t73.5 -74t106 -48t126.5 -35.5t132.5 -32t126 -41t106 -58.5t73.5 -90t27.5 -130z" />
<glyph unicode="%" horiz-adv-x="1633" d="M1138 1278q9 -4 5 -14l-598 -1303q-5 -10 -14 -6l-29 14q-9 5 -5 14l597 1303q6 10 14 5zM672 871q0 -179 -78 -285.5t-204 -106.5t-204 106.5t-78 285.5q0 178 78 284.5t204 106.5t204 -106.5t78 -284.5zM390 531q106 0 165 91.5t59 248.5t-59 248t-165 91 q-105 0 -165 -91.5t-60 -247.5q0 -157 60 -248.5t165 -91.5zM1244 770q126 0 204 -106.5t78 -284.5q0 -179 -78 -285.5t-204 -106.5t-204 106.5t-78 285.5q0 178 78 284.5t204 106.5zM1244 39q106 0 165 91.5t59 248.5t-59 248t-165 91q-105 0 -165 -91.5t-60 -247.5 q0 -157 60 -248.5t165 -91.5z" />
<glyph unicode="&#x26;" horiz-adv-x="1155" d="M1094 25q7 -8 3.5 -16.5t-13.5 -8.5h-38q-8 0 -14 6l-168 177q-158 -203 -400 -203q-164 0 -265.5 88.5t-101.5 232.5q0 230 281 392q-127 148 -127 289q0 135 89.5 207.5t230.5 72.5q140 0 269 -94q10 -5 4 -14l-17 -31q-5 -11 -15 -4q-114 89 -242 89 q-117 0 -185.5 -58t-68.5 -165q0 -141 152 -300l390 -412q82 133 126 323q3 11 14 9l35 -8q10 -3 7 -13q-52 -215 -142 -352zM468 37q216 0 356 187l-407 427q-128 -75 -189.5 -156t-61.5 -187q0 -123 82 -197t220 -74z" />
<glyph unicode="'" horiz-adv-x="305" d="M124 1274q-1 4 2.5 7.5t8.5 3.5h35q5 0 8.5 -3.5t2.5 -7.5l-6 -367q-2 -10 -11 -10h-23q-11 0 -11 10z" />
<glyph unicode="(" horiz-adv-x="493" d="M180 496q0 -454 234 -785q5 -9 -4 -14l-22 -12q-8 -4 -12 2q-252 343 -252 809q0 435 252 808q5 7 12 2l22 -12q9 -5 4 -13q-234 -361 -234 -785z" />
<glyph unicode=")" horiz-adv-x="493" d="M118 1304q251 -372 251 -808q0 -467 -251 -809q-5 -6 -13 -2l-22 12q-8 5 -3 14q233 329 233 785q0 426 -233 785q-5 8 3 13l22 12q7 6 13 -2z" />
<glyph unicode="*" horiz-adv-x="801" d="M702 1285q3 -8 -6 -12l-254 -83l157 -216q5 -7 -3 -13l-25 -19q-8 -6 -13 2l-157 216l-157 -216q-2 -4 -6.5 -4t-7.5 2l-25 19q-8 6 -2 13l157 216l-255 83q-9 4 -6 12l10 30q4 9 12 6l254 -82v267q0 10 10 10h32q9 0 9 -10v-267l254 82q9 4 13 -6z" />
<glyph unicode="+" horiz-adv-x="1047" d="M919 566q11 0 11 -11v-31q0 -10 -11 -10h-369v-370q0 -10 -11 -10h-31q-10 0 -10 10v370h-369q-11 0 -11 10v31q0 11 11 11h369v369q0 11 10 11h31q11 0 11 -11v-369h369z" />
<glyph unicode="," horiz-adv-x="351" d="M178 94q22 0 37.5 -15.5t15.5 -48.5q0 -56 -27 -128.5t-81 -120.5q-8 -6 -16 2l-5 5q-6 8 1 15q69 69 69 157q0 23 -22 36q-26 16 -26 44q0 22 16 38t38 16z" />
<glyph unicode="-" horiz-adv-x="867" d="M129 460q-11 0 -11 11v35q0 11 11 11h610q11 0 11 -11v-35q0 -11 -11 -11h-610z" />
<glyph unicode="." horiz-adv-x="347" d="M174 -13q-22 0 -38 16t-16 38t16 37.5t38 15.5t37.5 -15.5t15.5 -37.5t-15.5 -38t-37.5 -16z" />
<glyph unicode="/" horiz-adv-x="764" d="M669 1339q5 10 14 6l29 -14q9 -4 5 -14l-632 -1356q-5 -10 -14 -6l-29 14q-11 4 -5 14z" />
<glyph unicode="0" horiz-adv-x="1126" d="M563 1262q205 0 330 -172.5t125 -464.5t-125 -465t-330 -173t-330 173t-125 465t125 464.5t330 172.5zM563 44q179 0 283 158t104 423t-104 422.5t-283 157.5q-178 0 -282.5 -157.5t-104.5 -422.5t104.5 -423t282.5 -158z" />
<glyph unicode="1" horiz-adv-x="760" d="M497 1249q11 0 11 -10v-1228q0 -11 -11 -11h-44q-11 0 -11 11v1171l-256 -134q-10 -7 -16 5l-14 31q-5 9 5 14l284 148q5 3 16 3h36z" />
<glyph unicode="2" horiz-adv-x="1029" d="M940 57q11 0 11 -11v-35q0 -11 -11 -11h-822q-10 0 -10 11v14q0 10 4 13q385 306 556.5 512.5t171.5 377.5q0 129 -76.5 203t-225.5 74q-202 0 -364 -183q-8 -9 -18 3l-23 26q-5 5 5 16q176 195 409 195q177 0 268 -90t91 -239q0 -97 -41.5 -194t-132 -206t-210 -220 t-298.5 -256h716z" />
<glyph unicode="3" horiz-adv-x="1075" d="M625 645q343 -49 343 -326q0 -156 -113.5 -244t-308.5 -88q-264 0 -442 195q-10 10 -5 17l24 28q9 11 18 2q168 -185 401 -185q167 0 263.5 71.5t96.5 203.5q0 294 -445 298q-12 0 -12 11v26q0 11 11 11q199 2 302 82t103 203t-76 189t-229 66q-205 0 -363 -169 q-9 -8 -18 3l-22 25q-5 7 5 17q171 181 407 181q179 0 270 -82.5t91 -222.5q0 -115 -77.5 -198t-223.5 -114z" />
<glyph unicode="4" horiz-adv-x="1117" d="M1029 375q10 0 10 -11v-35q0 -11 -10 -11h-211v-307q0 -11 -11 -11h-45q-10 0 -10 11v307h-680q-11 0 -11 11v32q0 4 2 7l691 875q4 6 16 6h37q11 0 11 -10v-864h211zM144 375h608v773z" />
<glyph unicode="5" horiz-adv-x="1084" d="M543 744q121 -2 217.5 -43.5t156.5 -129t60 -209.5q0 -177 -122.5 -276t-314.5 -99q-142 0 -243 48.5t-182 136.5q-10 10 -5 16l24 29q9 11 18 2q76 -84 168.5 -129.5t215.5 -45.5q164 0 269.5 83t105.5 236q0 151 -106 239.5t-270 88.5q-170 0 -314 -87q-4 -3 -9 -1 l-34 15q-6 3 -6 10l69 611q0 10 10 10h649q10 0 10 -10v-36q0 -11 -10 -11h-602l-60 -526q142 78 305 78z" />
<glyph unicode="6" horiz-adv-x="1064" d="M552 782q178 0 291.5 -112t113.5 -283q0 -172 -120.5 -286t-304.5 -114q-186 0 -305 118.5t-119 306.5q0 396 181 617.5t524 232.5q11 0 11 -11v-35q0 -11 -11 -11q-284 -12 -444 -178t-192 -477q49 104 148.5 168t226.5 64zM532 44q155 0 255.5 98.5t100.5 244.5 q0 148 -96 243t-252 95q-154 0 -259 -102t-105 -236q0 -146 100.5 -244.5t255.5 -98.5z" />
<glyph unicode="7" horiz-adv-x="1058" d="M324 0q-8 0 -11.5 6t0.5 13l549 1173h-773q-4 0 -7.5 3.5t-3.5 7.5v36q0 10 11 10h844q11 0 11 -10v-13q0 -9 -4 -17l-564 -1204q-3 -5 -8 -5h-44z" />
<glyph unicode="8" horiz-adv-x="1074" d="M663 656q59 -13 110.5 -37.5t96.5 -63t71 -97t26 -129.5q0 -156 -117 -249t-313 -93t-312.5 93t-116.5 249q0 71 26 129.5t70.5 97t96 63t110.5 37.5q-51 12 -96 34t-85 56.5t-63.5 86t-23.5 113.5q0 135 108 225.5t286 90.5t286 -90.5t108 -225.5q0 -62 -23.5 -113.5 t-63.5 -86t-85 -56.5t-96 -34zM208 942q0 -114 93.5 -186t235.5 -72t235.5 72t93.5 186t-91 190t-238 76t-238 -76t-91 -190zM537 44q164 0 264 80.5t100 210.5t-100 210.5t-264 80.5t-263.5 -80.5t-99.5 -210.5t99.5 -210.5t263.5 -80.5z" />
<glyph unicode="9" horiz-adv-x="1041" d="M521 1262q181 0 297 -118.5t116 -306.5q0 -184 -42.5 -335.5t-126.5 -264t-218 -175t-307 -62.5q-11 0 -11 11v35q0 11 11 11q143 1 254.5 46t187 129.5t121 200t61.5 262.5q-49 -102 -145.5 -165t-218.5 -63q-172 0 -282 112t-110 284t117 285.5t296 113.5zM513 524 q148 0 250 102.5t102 236.5q0 146 -97.5 244t-246.5 98q-150 0 -247.5 -98t-97.5 -244q0 -148 93 -243.5t244 -95.5z" />
<glyph unicode=":" horiz-adv-x="347" d="M174 745q-22 0 -38 16t-16 38t16 37.5t38 15.5t37.5 -15.5t15.5 -37.5t-15.5 -38t-37.5 -16zM174 -13q-22 0 -38 16t-16 38t16 37.5t38 15.5t37.5 -15.5t15.5 -37.5t-15.5 -38t-37.5 -16z" />
<glyph unicode=";" horiz-adv-x="353" d="M180 745q-22 0 -38 16t-16 38t16 37.5t38 15.5t37.5 -15.5t15.5 -37.5t-15.5 -38t-37.5 -16zM178 94q22 0 37.5 -15.5t15.5 -48.5q0 -56 -27 -128.5t-81 -120.5q-8 -6 -16 2l-5 5q-6 8 1 15q69 69 69 157q0 23 -22 36q-26 16 -26 44q0 22 16 38t38 16z" />
<glyph unicode="&#x3c;" horiz-adv-x="1047" d="M930 874q0 -4 -11 -10l-739 -333l739 -332q11 -5 11 -11v-42q0 -5 -3.5 -7.5t-7.5 -0.5l-790 359q-11 5 -11 12v44q0 7 11 13l790 358q4 2 7.5 -0.5t3.5 -7.5v-42z" />
<glyph unicode="=" horiz-adv-x="1047" d="M129 696q-11 0 -11 11v31q0 11 11 11h790q11 0 11 -11v-31q0 -11 -11 -11h-790zM129 329q-11 0 -11 11v31q0 10 11 10h790q11 0 11 -10v-31q0 -11 -11 -11h-790z" />
<glyph unicode="&#x3e;" horiz-adv-x="1047" d="M118 874v42q0 5 3.5 7.5t7.5 0.5l790 -358q11 -6 11 -13v-44q0 -7 -11 -12l-790 -359q-4 -2 -7.5 0.5t-3.5 7.5v42q0 6 11 11l738 332l-738 333q-11 6 -11 10z" />
<glyph unicode="?" horiz-adv-x="873" d="M762 961q0 244 -282 244q-102 0 -180.5 -37t-150.5 -104q-10 -9 -18 3l-21 26q-5 7 5 17q79 72 168.5 112t205.5 40q165 0 252 -74.5t87 -218.5q0 -60 -19.5 -112t-50.5 -91.5t-68.5 -76.5t-75 -75.5t-68.5 -80.5t-50.5 -99.5t-19.5 -123.5q0 -9 -10 -9h-32q-9 0 -9 12 q0 68 18.5 126.5t48.5 102t66 83t71.5 76.5t65.5 74.5t48.5 85t18.5 100.5zM451 -13q-22 0 -38 16t-16 38t16 37.5t38 15.5t37.5 -15.5t15.5 -37.5t-15.5 -38t-37.5 -16z" />
<glyph unicode="@" horiz-adv-x="1646" d="M1038 -279q0 -7 -8 -9q-164 -36 -290 -36q-132 0 -240.5 35t-182 94.5t-124 141.5t-73.5 174t-23 194q0 228 111.5 410.5t300 281.5t415.5 99q286 0 455.5 -149t169.5 -430q0 -96 -21.5 -188.5t-60.5 -168.5t-102.5 -123t-139.5 -47q-199 0 -182 250q-12 -38 -39.5 -79.5 t-67 -80.5t-94.5 -64.5t-112 -25.5q-118 0 -193.5 75t-75.5 234q0 214 123 357.5t316 142.5q93 -1 232 -38q9 -2 7 -11l-45 -473q-11 -119 19.5 -179.5t116.5 -60.5q65 0 117 43t83 113.5t47.5 153t16.5 167.5q0 266 -152 400t-421 134q-158 0 -299 -54.5t-245 -150.5 t-164.5 -235.5t-60.5 -300.5q0 -94 20 -179t65.5 -161t112.5 -131t168 -87.5t225 -33.5t283 34q6 2 10.5 -1.5t3.5 -9.5zM738 45q118 0 209.5 102.5t106.5 264.5l31 320q-103 33 -191 33q-111 0 -198 -62t-133 -165t-46 -227q0 -140 61 -203t160 -63z" />
<glyph unicode="A" horiz-adv-x="1244" d="M1197 12q5 -12 -9 -12h-51q-9 0 -13 9l-186 428h-640l-192 -428q-5 -9 -13 -9h-47q-14 0 -9 12l565 1249q4 9 13 9h18q9 0 13 -9zM322 492h593l-292 674z" />
<glyph unicode="B" horiz-adv-x="1173" d="M730 643q145 -5 240.5 -88.5t95.5 -224.5q0 -145 -110.5 -237.5t-324.5 -92.5h-466h-30q-11 0 -11 11v1228q0 10 11 10h45h412q215 0 322.5 -84t107.5 -228q0 -132 -83 -208t-209 -86zM954 932q0 260 -372 260h-392v-523h415q177 0 263 69.5t86 193.5zM621 57 q195 0 285.5 75.5t90.5 202.5q0 128 -94 203.5t-288 75.5h-425v-557h431z" />
<glyph unicode="C" horiz-adv-x="1328" d="M1224 327q10 -5 5 -15q-163 -325 -507 -325q-165 0 -304 76.5t-224.5 224t-85.5 337.5q0 143 50 264t134 202t195.5 126t234.5 45q344 0 507 -325q5 -10 -5 -15l-34 -16q-10 -5 -15 5q-147 294 -453 294q-112 0 -211.5 -42t-173.5 -116t-117.5 -183.5t-43.5 -238.5 t43.5 -238.5t117.5 -184t173.5 -116.5t211.5 -42q306 0 453 294q5 11 15 6z" />
<glyph unicode="D" horiz-adv-x="1275" d="M539 1249q176 0 317 -71.5t226.5 -215t85.5 -337.5q0 -146 -49.5 -265.5t-135 -197.5t-199.5 -120t-245 -42h-377h-27q-11 0 -11 11v1228q0 10 11 10h45h359zM534 57q161 0 288 66.5t202.5 196.5t75.5 305q0 174 -75.5 304.5t-202.5 196.5t-288 66h-344v-1135h344z" />
<glyph unicode="E" horiz-adv-x="1087" d="M973 57q11 0 11 -11v-35q0 -11 -11 -11h-810h-28q-11 0 -11 11v1228q0 10 11 10h45h773q11 0 11 -10v-36q0 -11 -11 -11h-763v-511h681q11 0 11 -11v-36q0 -10 -11 -10h-681v-567h783z" />
<glyph unicode="F" horiz-adv-x="1036" d="M932 1249q11 0 11 -10v-36q0 -11 -11 -11h-742v-572h701q11 0 11 -11v-36q0 -10 -11 -10h-701v-552q0 -11 -10 -11h-45q-11 0 -11 11v1228q0 10 11 10h45h752z" />
<glyph unicode="G" horiz-adv-x="1353" d="M1219 545q10 0 10 -10v-393q-121 -82 -239.5 -118.5t-267.5 -36.5q-165 0 -304 76.5t-224.5 224t-85.5 337.5q0 143 50 264t134 202t195.5 126t234.5 45q170 0 289 -69t212 -219q6 -10 -5 -15l-35 -16q-9 -4 -15 6q-84 134 -190 195t-256 61q-112 0 -211.5 -42 t-173.5 -116t-117.5 -183.5t-43.5 -238.5t43.5 -238.5t117.5 -184t173.5 -116.5t211.5 -42q129 0 233 28.5t213 94.5v368q0 10 11 10h40z" />
<glyph unicode="H" horiz-adv-x="1271" d="M1137 1249q11 0 11 -10v-1228q0 -11 -11 -11h-44q-11 0 -11 11v613h-892v-613q0 -11 -10 -11h-45q-11 0 -11 11v1228q0 10 11 10h45q10 0 10 -10v-558h892v558q0 10 11 10h44z" />
<glyph unicode="I" horiz-adv-x="314" d="M124 1239q0 10 11 10h45q10 0 10 -10v-1228q0 -11 -10 -11h-45q-4 0 -7.5 3.5t-3.5 7.5v1228z" />
<glyph unicode="J" horiz-adv-x="908" d="M773 1249q11 0 11 -10v-860q0 -191 -97.5 -291.5t-276.5 -100.5q-242 0 -355 227q-6 11 4 16l37 17q9 4 15 -6q100 -197 297 -197q310 0 310 340v855q0 10 11 10h44z" />
<glyph unicode="K" horiz-adv-x="1144" d="M180 1249q10 0 10 -10v-1228q0 -11 -10 -11h-45q-11 0 -11 11v1228q0 10 11 10h45zM1059 14q5 -6 3.5 -10t-9.5 -4h-56q-10 0 -17 7l-613 628l611 607q7 7 17 7h53q6 0 8 -4t-3 -10l-602 -598z" />
<glyph unicode="L" horiz-adv-x="984" d="M921 57q10 0 10 -11v-35q0 -11 -10 -11h-758h-28q-11 0 -11 11v1228q0 10 11 10h45q10 0 10 -10v-1182h731z" />
<glyph unicode="M" horiz-adv-x="1476" d="M1313 1260q7 10 16 10h13q11 0 11 -11v-1248q0 -11 -11 -11h-45q-10 0 -10 11v1104l-541 -857q-7 -12 -16 0l-540 857v-1104q0 -11 -10 -11h-45q-11 0 -11 11v1248q0 11 11 11h13q9 0 15 -10l575 -902z" />
<glyph unicode="N" horiz-adv-x="1292" d="M1158 1249q10 0 10 -10v-1249q0 -10 -10 -10h-4q-9 0 -15 6l-949 1146v-1121q0 -11 -10 -11h-45q-11 0 -11 11v1248q0 11 11 11h3q10 0 16 -6l948 -1147v1122q0 10 11 10h45z" />
<glyph unicode="O" d="M722 1262q123 0 234.5 -45t195.5 -126t134 -202t50 -264q0 -190 -85.5 -337.5t-224.5 -224t-304 -76.5t-304 76.5t-224.5 224t-85.5 337.5q0 143 50 264t134 202t195.5 126t234.5 45zM722 44q112 0 211.5 42t173.5 116.5t117.5 184t43.5 238.5t-43.5 238.5t-117.5 183.5 t-173.5 116t-211.5 42t-211.5 -42t-173.5 -116t-117.5 -183.5t-43.5 -238.5t43.5 -238.5t117.5 -184t173.5 -116.5t211.5 -42z" />
<glyph unicode="P" horiz-adv-x="1096" d="M564 1249q117 0 208 -31t145 -84.5t81 -120t27 -143.5q0 -61 -16.5 -116t-52.5 -103t-89 -83t-130.5 -55.5t-172.5 -20.5h-374v-481q0 -11 -10 -11h-45q-11 0 -11 11v1228q0 10 11 10h45h384zM554 549q86 0 155 17.5t114.5 47.5t76 71t43.5 87t13 98q0 65 -22 121 t-67.5 102t-125.5 72.5t-187 26.5h-364v-643h364z" />
<glyph unicode="Q" d="M1188 -196q11 0 11 -10v-42q0 -11 -12 -11q-107 0 -200 68.5t-126 193.5q-72 -16 -139 -16q-165 0 -304 76.5t-224.5 224t-85.5 337.5q0 143 50 264t134 202t195.5 126t234.5 45t234.5 -45t195.5 -126t134 -202t50 -264q0 -228 -118.5 -390t-307.5 -220q30 -101 108 -156 t170 -55zM176 625q0 -129 43.5 -238.5t117.5 -184t173.5 -116.5t211.5 -42t211.5 42t173.5 116.5t117.5 184t43.5 238.5t-43.5 238.5t-117.5 183.5t-173.5 116t-211.5 42t-211.5 -42t-173.5 -116t-117.5 -183.5t-43.5 -238.5z" />
<glyph unicode="R" horiz-adv-x="1107" d="M1005 22q5 -8 1 -15t-13 -7h-44q-7 0 -12 8l-334 506q-19 -2 -59 -2h-354v-501q0 -11 -10 -11h-45q-11 0 -11 11v1228q0 10 11 10h45h364q118 0 208 -29t144.5 -80.5t81.5 -116.5t27 -142q0 -135 -83.5 -233t-249.5 -126zM534 569q107 0 186.5 25t125.5 69t68 98.5 t22 119.5t-22 119.5t-68 98.5t-125.5 68.5t-186.5 24.5h-344v-623h344z" />
<glyph unicode="S" horiz-adv-x="1114" d="M208 938q0 -62 27.5 -108t73.5 -74t106 -48t126.5 -35.5t132.5 -32t126 -41t106 -58.5t73.5 -90t27.5 -130q0 -70 -25 -127t-67 -95t-100.5 -63.5t-123 -37t-135.5 -11.5q-233 0 -440 139q-12 8 -7 18l15 32q6 11 18 3q52 -33 83.5 -50t86 -40.5t115 -34t131.5 -10.5 q79 0 145 14.5t120 45t84.5 84t30.5 124.5q0 66 -27 115.5t-73.5 79.5t-106 51.5t-125.5 37t-132 31.5t-125.5 39.5t-106 55.5t-73.5 85.5t-27 124.5q0 149 113.5 239.5t316.5 90.5q124 0 215.5 -30.5t178.5 -82.5q11 -6 5 -16l-17 -34q-5 -11 -18 -2q-171 109 -360 109 q-178 0 -273 -73.5t-95 -194.5z" />
<glyph unicode="T" horiz-adv-x="1216" d="M1112 1249q10 0 10 -10v-36q0 -11 -10 -11h-471v-1181q0 -11 -11 -11h-44q-11 0 -11 11v1181h-471q-10 0 -10 11v36q0 10 10 10h526h482z" />
<glyph unicode="U" horiz-adv-x="1251" d="M1117 1249q10 0 10 -10v-722q0 -258 -133 -397.5t-368 -139.5t-368.5 139.5t-133.5 397.5v722q0 10 11 10h45q10 0 10 -10v-712q0 -235 111.5 -363t324.5 -128t324 128t111 363v712q0 10 11 10h45z" />
<glyph unicode="V" horiz-adv-x="1203" d="M1147 1249q16 0 10 -13l-536 -1248q-3 -8 -13 -8h-16q-10 0 -13 8l-542 1249q-5 12 9 12h53q10 0 13 -8l490 -1157l484 1157q3 8 14 8h47z" />
<glyph unicode="W" horiz-adv-x="1667" d="M1612 1249q14 0 9 -12l-399 -1249q-3 -8 -13 -8h-16q-9 0 -12 8l-353 1070l-350 -1070q-3 -8 -13 -8h-16q-10 0 -12 8l-401 1248q-5 13 10 13h48q10 0 12 -8l355 -1140l347 1073q4 9 13 9h15q8 0 12 -9l352 -1073l351 1140q3 8 13 8h48z" />
<glyph unicode="X" horiz-adv-x="1179" d="M1116 14q11 -14 -6 -14h-54q-10 0 -17 8l-454 572l-454 -574q-5 -6 -14 -6h-48q-18 0 -6 15l485 610l-483 609q-12 15 7 15h51q11 0 18 -9l448 -563l446 565q6 7 17 7h49q18 0 6 -14l-481 -604z" />
<glyph unicode="Y" horiz-adv-x="1163" d="M1106 1249q6 0 9.5 -3.5t0.5 -8.5l-503 -785v-441q0 -11 -10 -11h-45q-11 0 -11 11v439l-510 787q-3 6 0 9t9 3h52q8 0 14 -8l469 -730l465 730q5 8 13 8h47z" />
<glyph unicode="Z" horiz-adv-x="1178" d="M89 0q-11 0 -11 11v14q0 8 5 13l884 1154h-843q-10 0 -10 11v36q0 10 10 10h931q11 0 11 -10v-14q0 -7 -5 -14l-884 -1154h894q10 0 10 -11v-35q0 -11 -10 -11h-982z" />
<glyph unicode="[" horiz-adv-x="446" d="M358 1264h-180v-1537h180q11 0 11 -11v-25q0 -11 -11 -11h-206h-17q-4 0 -7.5 3.5t-3.5 7.5v1609q0 4 3.5 7.5t7.5 3.5h32h191q11 0 11 -11v-26q0 -10 -11 -10z" />
<glyph unicode="\" horiz-adv-x="763" d="M85 1339l632 -1356q6 -10 -5 -14l-29 -14q-9 -4 -14 6l-633 1356q-4 10 5 14l30 14q9 4 14 -6z" />
<glyph unicode="]" horiz-adv-x="446" d="M312 1311q10 0 10 -11v-1609q0 -11 -10 -11h-32h-191q-11 0 -11 11v25q0 11 11 11h180v1537h-180q-11 0 -11 10v26q0 11 11 11h206h17z" />
<glyph unicode="^" horiz-adv-x="846" d="M798 950q5 -8 1 -15.5t-13 -7.5h-29q-4 0 -7 4l-332 463l-331 -463q-3 -4 -8 -4h-29q-9 0 -13 7.5t2 15.5l349 479q3 5 7 5h46q5 0 8 -5z" />
<glyph unicode="_" horiz-adv-x="709" d="M11 -52q-11 0 -11 11v30q0 11 11 11h688q11 0 11 -11v-30q0 -11 -11 -11h-688z" />
<glyph unicode="`" horiz-adv-x="363" d="M328 966l-301 228q-9 6 -3 15l20 31q7 9 15 2l296 -236q8 -6 3 -15l-14 -22q-8 -10 -16 -3z" />
<glyph unicode="a" horiz-adv-x="872" d="M807 18q5 -11 -6 -16l-28 -10q-8 -3 -12 2q-56 97 -71 214q-42 -96 -132 -158.5t-203 -62.5q-120 0 -194 69t-74 173q0 100 69.5 169t202.5 91t326 -24v70q0 131 -50 195.5t-183 64.5q-77 0 -140 -20t-139 -61q-10 -5 -15 5l-14 31q-4 10 6 15q84 45 154.5 66t153.5 21 q84 0 142.5 -22t90 -65.5t45 -97t13.5 -126.5v-234q0 -95 13.5 -154t44.5 -135zM368 41q133 0 225 94.5t92 207.5v75q-178 46 -296.5 28t-177 -74.5t-58.5 -140.5q0 -85 59 -137.5t156 -52.5z" />
<glyph unicode="b" horiz-adv-x="1068" d="M549 852q175 0 298.5 -120.5t123.5 -311.5t-123.5 -312t-298.5 -121q-124 0 -219 65t-142 175v-216q0 -11 -11 -11h-42q-11 0 -11 11v1289q0 11 11 11h42q11 0 11 -11v-687q47 110 142 174.5t219 64.5zM544 44q151 0 256 104t105 272t-105 272t-256 104q-153 0 -257 -110 t-104 -266t104 -266t257 -110z" />
<glyph unicode="c" horiz-adv-x="976" d="M878 230q9 -5 5 -15q-48 -107 -137.5 -167.5t-218.5 -60.5q-182 0 -306 120.5t-124 312.5t124 312t306 120q129 0 218.5 -60.5t137.5 -167.5q5 -9 -5 -14l-36 -17q-9 -4 -15 5q-92 197 -297 197q-157 0 -262 -103t-105 -272t105 -272.5t262 -103.5q211 0 297 198 q6 9 15 5z" />
<glyph unicode="d" horiz-adv-x="1068" d="M934 1311q11 0 11 -11v-1289q0 -11 -11 -11h-43q-10 0 -10 11v216q-47 -110 -142 -175t-219 -65q-175 0 -299 121t-124 312t124 311.5t299 120.5q124 0 219 -64.5t142 -174.5v687q0 11 10 11h43zM525 44q153 0 257 110t104 266t-104 266t-257 110q-152 0 -257 -104 t-105 -272t105 -272t257 -104z" />
<glyph unicode="e" horiz-adv-x="992" d="M873 227q11 -5 6 -15q-49 -110 -140.5 -167.5t-216.5 -57.5q-178 0 -301.5 120.5t-123.5 312.5q0 193 120 312.5t297 119.5q171 0 276 -109.5t105 -301.5h-731q-1 -7 -1 -21q0 -168 105 -272t257 -104q216 0 298 195q5 10 15 5zM514 798q-132 0 -228.5 -84t-117.5 -224 h656q-8 144 -93 226t-217 82z" />
<glyph unicode="f" horiz-adv-x="696" d="M683 1257q11 -8 5 -18l-16 -25q-7 -9 -18 -2q-77 62 -169 62q-106 0 -153.5 -66.5t-47.5 -178.5v-189h359q10 0 10 -11v-36q0 -11 -10 -11h-359v-771q0 -11 -11 -11h-42q-11 0 -11 11v771h-158q-11 0 -11 11v36q0 11 11 11h158v194q0 131 67 213t192 82q57 0 112 -20.5 t92 -51.5z" />
<glyph unicode="g" horiz-adv-x="933" d="M886 873q9 0 9 -10v-39q0 -8 -9 -8q-50 0 -88 -23.5t-55 -66.5q57 -74 57 -165q0 -121 -94.5 -206t-237.5 -86h-106q-98 0 -146.5 -33t-48.5 -84q0 -112 195 -112h136q187 0 288 -68t101 -188q0 -118 -100.5 -189t-288.5 -71q-186 0 -287.5 68.5t-101.5 182.5 q0 75 53 132t142 88q-195 14 -195 152q0 61 48 104t144 55q-77 38 -122 106t-45 149q0 121 94.5 206t238.5 85q148 0 244 -91q24 53 71.5 82.5t103.5 29.5zM467 321q115 0 192 70t77 170t-77 169.5t-192 69.5t-192 -69.5t-77 -169.5t77 -170t192 -70zM826 -219 q0 95 -84.5 151.5t-243.5 56.5q-136 0 -232 -58.5t-96 -149.5q0 -96 84.5 -152t243.5 -56t243.5 56t84.5 152z" />
<glyph unicode="h" horiz-adv-x="1004" d="M565 860q159 0 237 -93.5t78 -255.5v-500q0 -11 -11 -11h-42q-10 0 -10 11v481q0 311 -267 311q-135 0 -238 -87.5t-124 -212.5v-492q0 -11 -11 -11h-42q-11 0 -11 11v1289q0 11 11 11h42q11 0 11 -11v-678q19 41 51.5 80.5t79 76t111 59t135.5 22.5z" />
<glyph unicode="i" horiz-adv-x="304" d="M153 1036q-22 0 -38 16t-16 38t16 37.5t38 15.5t37.5 -15.5t15.5 -37.5t-15.5 -38t-37.5 -16zM120 829q0 11 11 11h42q11 0 11 -11v-818q0 -11 -11 -11h-42q-11 0 -11 11v818z" />
<glyph unicode="j" horiz-adv-x="323" d="M172 1143q22 0 37.5 -15.5t15.5 -37.5t-15.5 -38t-37.5 -16t-38 16t-16 38t16 37.5t38 15.5zM193 840q11 0 11 -11v-988q0 -147 -56 -229.5t-176 -82.5q-12 0 -12 10v32q0 10 10 11q88 3 129 65t41 195v987q0 11 11 11h42z" />
<glyph unicode="k" horiz-adv-x="862" d="M124 1300q0 11 11 11h42q11 0 11 -11v-1289q0 -11 -11 -11h-42q-11 0 -11 11v1289zM744 0q-8 0 -15 8l-435 453l412 373q6 6 14 6h54q6 0 7.5 -4t-2.5 -9l-403 -364l426 -449q5 -6 3.5 -10t-8.5 -4h-53z" />
<glyph unicode="l" horiz-adv-x="311" d="M124 1300q0 11 11 11h42q11 0 11 -11v-1289q0 -11 -11 -11h-42q-11 0 -11 11v1289z" />
<glyph unicode="m" horiz-adv-x="1591" d="M1166 860q155 0 228.5 -93.5t73.5 -256.5v-499q0 -11 -11 -11h-42q-11 0 -11 11v479q0 313 -254 313q-132 0 -227 -104.5t-95 -245.5v-442q0 -11 -11 -11h-42q-11 0 -11 11v479q0 313 -254 313q-132 0 -227 -104.5t-95 -245.5v-442q0 -11 -11 -11h-42q-11 0 -11 11v818 q0 11 11 11h42q11 0 11 -11v-216q17 42 45 82t69 79t99.5 62.5t124.5 23.5q132 0 204.5 -68t91.5 -192q38 105 129 182.5t215 77.5z" />
<glyph unicode="n" horiz-adv-x="1008" d="M569 860q159 0 237 -93.5t78 -255.5v-500q0 -11 -11 -11h-42q-10 0 -10 11v481q0 311 -267 311q-149 0 -257.5 -105.5t-108.5 -245.5v-441q0 -11 -11 -11h-42q-11 0 -11 11v818q0 11 11 11h42q11 0 11 -11v-216q17 41 49.5 82t79 79t113 62t139.5 24z" />
<glyph unicode="o" horiz-adv-x="1049" d="M525 852q116 0 213 -52.5t155.5 -152.5t58.5 -227t-58.5 -227t-155.5 -153t-213 -53t-213 53t-156 153t-59 227t59 227t156 152.5t213 52.5zM525 44q151 0 256 104t105 272t-105 271.5t-256 103.5q-152 0 -257 -103.5t-105 -271.5t105 -272t257 -104z" />
<glyph unicode="p" horiz-adv-x="1068" d="M549 852q175 0 298.5 -120.5t123.5 -311.5t-123.5 -312t-298.5 -121q-124 0 -219 65t-142 175v-687q0 -11 -11 -11h-42q-11 0 -11 11v1289q0 11 11 11h42q11 0 11 -11v-216q47 110 142 174.5t219 64.5zM544 44q151 0 256 104t105 272t-105 272t-256 104q-153 0 -257 -110 t-104 -266t104 -266t257 -110z" />
<glyph unicode="q" horiz-adv-x="1068" d="M934 839q11 0 11 -11v-1289q0 -11 -11 -11h-43q-10 0 -10 11v687q-47 -110 -142 -175t-219 -65q-175 0 -299 121t-124 312t124 311.5t299 120.5q124 0 219 -64.5t142 -174.5v216q0 11 10 11h43zM525 43q153 0 257 110t104 266t-104 266t-257 110q-152 0 -257 -104 t-105 -272t105 -272t257 -104z" />
<glyph unicode="r" horiz-adv-x="561" d="M494 860q11 0 11 -11v-46q0 -9 -10 -10q-107 -5 -207 -107t-100 -231v-444q0 -11 -11 -11h-42q-11 0 -11 11v818q0 11 11 11h42q11 0 11 -11v-231q27 94 122.5 178t183.5 84z" />
<glyph unicode="s" horiz-adv-x="828" d="M186 631q0 -50 30 -84t78.5 -52t106.5 -32t116 -30.5t106.5 -40t78.5 -68.5t30 -109q0 -50 -18.5 -90t-49 -65.5t-72.5 -42t-84.5 -23.5t-88.5 -7q-168 0 -315 94q-9 6 -5 15l14 30q6 12 16 6q148 -91 290 -91q46 0 86 7.5t78 25t60.5 52t22.5 82.5q0 54 -30 91t-78 56.5 t-106 34.5t-116 30.5t-106 38t-78 64.5t-30 102q0 105 82.5 166t216.5 61q139 0 281 -88q9 -6 5 -15l-14 -31q-5 -10 -15 -4q-130 84 -258 84q-106 0 -170 -45t-64 -122z" />
<glyph unicode="t" horiz-adv-x="756" d="M676 80q6 -9 -5 -18q-94 -75 -207 -75q-234 0 -234 295v500h-168q-11 0 -11 11v36q0 11 11 11h168v202q0 9 11 12l41 11q12 4 12 -8v-217h359q11 0 11 -11v-36q0 -11 -11 -11h-359v-495q0 -243 178 -243q98 0 174 67q11 7 17 -3z" />
<glyph unicode="u" horiz-adv-x="1008" d="M873 840q11 0 11 -11v-818q0 -11 -11 -11h-42q-10 0 -10 11v216q-23 -56 -71 -109.5t-131.5 -95.5t-179.5 -42q-159 0 -237 93t-78 255v501q0 11 11 11h42q11 0 11 -11v-481q0 -311 266 -311q149 0 258 105.5t109 245.5v441q0 11 10 11h42z" />
<glyph unicode="v" horiz-adv-x="846" d="M808 840q8 0 11 -6t-1 -14l-382 -835q-3 -5 -8 -5h-8q-6 0 -9 5l-383 835q-4 7 -1 13.5t11 6.5h44q8 0 13 -9l331 -742l329 742q5 9 13 9h40z" />
<glyph unicode="w" horiz-adv-x="1341" d="M1305 840q7 0 9.5 -6t-0.5 -13l-312 -836q-3 -5 -8 -5h-8q-6 0 -9 5l-306 652l-306 -652q-3 -5 -9 -5h-7q-6 0 -9 5l-312 836q-3 7 -0.5 13t9.5 6h44q7 0 12 -10l267 -734l297 637q4 9 10 9h8q7 0 11 -9l296 -637l268 734q5 10 12 10h43z" />
<glyph unicode="x" horiz-adv-x="879" d="M819 14q5 -7 3.5 -10.5t-7.5 -3.5h-55q-9 0 -14 6l-312 374l-304 -372q-5 -8 -17 -8h-47q-7 0 -9 3.5t3 11.5l337 410l-335 401q-5 7 -3 10.5t8 3.5h54q10 0 17 -8l299 -359l296 359q8 8 15 8h51q16 0 5 -14l-330 -397z" />
<glyph unicode="y" horiz-adv-x="846" d="M808 840q8 0 11 -6t-1 -14l-368 -824q-54 -126 -96.5 -207t-90.5 -143t-100 -89.5t-115 -27.5q-12 0 -12 10v32q0 9 11 11q95 3 173 103t183 343l-375 792q-4 8 -1 14t11 6h44q7 0 12 -9l338 -736l324 736q4 9 13 9h39z" />
<glyph unicode="z" horiz-adv-x="933" d="M89 0q-11 0 -11 10v5q0 7 5 14l622 753h-581q-10 0 -10 11v36q0 11 10 11h675q11 0 11 -10v-6q0 -7 -5 -14l-623 -753h627q11 0 11 -11v-35q0 -11 -11 -11h-720z" />
<glyph unicode="{" horiz-adv-x="483" d="M397 1265q-81 -5 -124 -49t-43 -143q0 -42 17.5 -174.5t16.5 -174.5q-1 -180 -119 -228q118 -48 119 -230q1 -41 -16.5 -173.5t-17.5 -173.5q0 -99 43 -143.5t124 -49.5q9 -2 9 -9v-23q0 -9 -10 -9q-104 1 -162 57.5t-58 172.5q0 44 17 177t17 174q0 183 -123 209 q-9 2 -9 9v23q0 7 9 9q123 26 123 210q0 41 -17 173.5t-17 176.5q0 116 58 172.5t162 57.5q10 2 10 -9v-23q0 -7 -9 -9z" />
<glyph unicode="|" horiz-adv-x="301" d="M124 1495q0 10 11 10h32q11 0 11 -10v-1702q0 -11 -11 -11h-32q-4 0 -7.5 3.5t-3.5 7.5v1702z" />
<glyph unicode="}" horiz-adv-x="483" d="M397 516q9 -2 9 -9v-23q0 -7 -9 -9q-123 -26 -123 -209q0 -41 17 -174t17 -177q0 -116 -58 -172.5t-162 -57.5q-10 0 -10 9v23q0 7 9 9q81 5 124 49.5t43 143.5q0 41 -17.5 173.5t-16.5 173.5q1 182 118 230q-117 48 -118 228q-1 42 16.5 174.5t17.5 174.5q0 99 -43 143 t-124 49q-9 2 -9 9v23q0 11 10 9q104 -1 162 -57.5t58 -172.5q0 -44 -17 -176.5t-17 -173.5q0 -184 123 -210z" />
<glyph unicode="~" horiz-adv-x="1116" d="M994 613q7 -4 4 -11q-25 -74 -90 -125.5t-145 -51.5q-50 0 -96 16t-81.5 38.5t-70 45t-76 38.5t-85.5 16q-65 0 -119.5 -41t-76.5 -96q-5 -12 -17 -5l-18 9q-8 5 -5 12q25 74 90.5 125.5t145.5 51.5q50 0 96 -16t81.5 -38.5t70 -45t76 -38.5t85.5 -16q65 0 120 40.5 t76 95.5q5 11 16 6z" />
<glyph unicode="&#xa1;" horiz-adv-x="347" d="M174 852q22 0 37.5 -15.5t15.5 -37.5t-15.5 -38t-37.5 -16t-38 16t-16 38t16 37.5t38 15.5zM142 -399l9 927q0 11 10 11h26q10 0 10 -11l9 -927q0 -11 -11 -11h-42q-5 0 -8.5 3.5t-2.5 7.5z" />
<glyph unicode="&#xa2;" horiz-adv-x="976" d="M878 230q9 -5 5 -15q-45 -103 -129.5 -162.5t-206.5 -64.5v-204q0 -11 -11 -11h-30q-11 0 -11 11v204q-171 12 -284.5 130.5t-113.5 301.5t114 301.5t285 129.5v183q0 11 10 11h31q10 0 10 -11v-182q121 -5 206 -65t130 -163q5 -9 -5 -14l-36 -17q-9 -4 -15 5 q-92 197 -297 197q-157 0 -262 -103t-105 -272t105 -272.5t262 -103.5q211 0 297 198q6 9 15 5z" />
<glyph unicode="&#xa3;" horiz-adv-x="1103" d="M1009 69q7 2 11.5 -1.5t4.5 -10.5v-34q0 -7 -9 -10q-86 -31 -175.5 -34.5t-166.5 9.5t-153 26t-160.5 12t-162.5 -28q-8 -3 -14 4l-17 32q-3 4 1 9q49 96 79 177t40 146t8.5 115t-11.5 102h-195q-11 0 -11 11v30q0 11 11 11h183q-3 12 -17 65t-19.5 76t-11.5 68.5 t-6 87.5q0 147 98.5 238.5t276.5 91.5q233 0 409 -195q10 -11 5 -16l-23 -26q-10 -11 -18 -3q-162 183 -364 183q-151 0 -234.5 -75.5t-83.5 -202.5q0 -39 6 -81.5t13 -69.5t19.5 -73t17.5 -68h434q10 0 10 -11v-30q0 -11 -10 -11h-423q21 -110 -2.5 -233t-118.5 -296 q73 26 155.5 27.5t157.5 -11l150 -25t158 -9t158 32.5z" />
<glyph unicode="&#xa4;" horiz-adv-x="1417" d="M117 1040q-10 8 -1 17l25 26q9 9 17 -1l188 -198q152 147 363 147t363 -147l187 198q8 10 17 1l25 -26q9 -9 -1 -17l-200 -186q131 -149 131 -345h-61q0 193 -135.5 329.5t-325.5 136.5t-326 -136.5t-136 -329.5h-61q0 196 131 345zM1300 -22q9 -8 1 -16l-25 -27 q-8 -8 -17 2l-187 198q-153 -148 -363 -148t-363 148l-188 -198q-9 -10 -17 -2l-25 27q-8 8 1 16l200 186q-131 149 -131 345h61q0 -193 136 -329.5t326 -136.5t325.5 136.5t135.5 329.5h61q0 -196 -131 -345z" />
<glyph unicode="&#xa5;" horiz-adv-x="1163" d="M1106 1249q6 0 9.5 -3.5t0.5 -8.5l-469 -733h212q11 0 11 -10v-25q0 -10 -11 -10h-242l-4 -7v-165h246q11 0 11 -11v-24q0 -11 -11 -11h-246v-230q0 -11 -10 -11h-45q-11 0 -11 11v230h-253q-10 0 -10 11v24q0 11 10 11h253v163l-6 9h-247q-10 0 -10 10v25q0 10 10 10 h218l-475 733q-3 6 0 9t9 3h52q8 0 14 -8l469 -730l465 730q5 8 13 8h47z" />
<glyph unicode="&#xa6;" horiz-adv-x="301" d="M124 1495q0 10 11 10h32q11 0 11 -10v-563q0 -10 -11 -10h-32q-11 0 -11 10v563zM124 355q0 4 3.5 7.5t7.5 3.5h32q11 0 11 -11v-562q0 -11 -11 -11h-32q-4 0 -7.5 3.5t-3.5 7.5v562z" />
<glyph unicode="&#xa7;" horiz-adv-x="1129" d="M924 114q98 -85 98 -223q0 -178 -122 -280.5t-334 -102.5q-197 0 -314 98t-144 278q-2 14 11 14h42q8 0 10 -9q51 -327 395 -327q186 0 288 88t102 241q0 58 -23 105.5t-54.5 78t-88.5 59.5t-100.5 45t-115.5 40q-59 19 -89 29.5t-82.5 32.5t-79 40t-64.5 48t-53.5 60.5 t-30.5 75t-11 93.5t19 113.5t47 138.5q-96 86 -96 221q0 177 119.5 280t320.5 103q193 0 302.5 -97t136.5 -279q2 -13 -12 -13h-42q-8 0 -10 8q-51 327 -375 327q-175 0 -274.5 -88.5t-99.5 -240.5q0 -75 36 -132t94 -91.5t132.5 -63t150.5 -53.5t148 -54.5t125 -75 t82.5 -107.5t19.5 -158.5t-64 -221.5zM272 818q-39 -98 -46 -176.5t12 -131t61 -95t94.5 -68.5t119 -52t128 -44.5t128 -46.5t112.5 -58q39 99 45.5 177.5t-13 131.5t-61.5 95t-94.5 68t-119 51.5t-127.5 44t-127 46t-112 58.5z" />
<glyph unicode="&#xa8;" horiz-adv-x="455" d="M57 1036q-22 0 -37.5 15.5t-15.5 37.5q0 21 15.5 37t37.5 16q21 0 37 -16t16 -37q0 -22 -16 -37.5t-37 -15.5zM400 1036q-22 0 -37.5 15.5t-15.5 37.5q0 21 15.5 37t37.5 16q21 0 37 -16t16 -37q0 -22 -16 -37.5t-37 -15.5z" />
<glyph unicode="&#xa9;" horiz-adv-x="1484" d="M742 1260q173 0 319 -85t231 -231t85 -319t-85 -319t-231 -231t-319 -85q-129 0 -246.5 50t-202.5 135.5t-135 203t-50 246.5t50 246.5t135 203t202.5 135.5t246.5 50zM742 16q165 0 304.5 81.5t221 222t81.5 305.5t-81.5 305.5t-221 222t-304.5 81.5q-123 0 -235 -48.5 t-193.5 -130t-129.5 -194t-48 -236.5t48 -236.5t129.5 -194t193.5 -130t235 -48.5zM757 982q-141 0 -239 -100t-98 -258q0 -159 97.5 -258.5t239.5 -99.5q188 0 279 181q4 7 10 4l20 -11q8 -3 4 -9q-99 -200 -313 -200q-157 0 -268 108.5t-111 284.5t111 284.5t268 108.5 q214 0 313 -200q4 -7 -4 -10l-20 -10q-6 -3 -10 4q-91 181 -279 181z" />
<glyph unicode="&#xab;" horiz-adv-x="928" d="M474 196q4 -3 4 -7v-26q0 -8 -6.5 -10.5t-13.5 2.5l-336 255q-4 3 -4 6v33q0 4 4 7l336 255q7 5 13.5 2t6.5 -11v-26q0 -4 -4 -7l-307 -236zM810 676q0 -4 -4 -7l-306 -236l306 -237q4 -3 4 -7v-26q0 -8 -6 -10.5t-13 2.5l-337 255q-4 3 -4 6v33q0 4 4 7l337 255 q7 5 13 2t6 -11v-26z" />
<glyph unicode="&#xac;" horiz-adv-x="1047" d="M919 566q11 0 11 -11v-31v-219q0 -11 -11 -11h-36q-11 0 -11 11v209h-743q-11 0 -11 10v31q0 11 11 11h790z" />
<glyph unicode="&#xad;" horiz-adv-x="867" d="M129 460q-11 0 -11 11v35q0 11 11 11h610q11 0 11 -11v-35q0 -11 -11 -11h-610z" />
<glyph unicode="&#xae;" horiz-adv-x="1484" d="M742 1260q173 0 319 -85t231 -231t85 -319t-85 -319t-231 -231t-319 -85q-129 0 -246.5 50t-202.5 135.5t-135 203t-50 246.5t50 246.5t135 203t202.5 135.5t246.5 50zM742 16q165 0 304.5 81.5t221 222t81.5 305.5t-81.5 305.5t-221 222t-304.5 81.5q-123 0 -235 -48.5 t-193.5 -130t-129.5 -194t-48 -236.5t48 -236.5t129.5 -194t193.5 -130t235 -48.5zM849 561l206 -309q3 -4 1 -8.5t-8 -4.5h-28q-4 0 -7 4l-207 313q-22 -2 -36 -2h-218v-309q0 -6 -6 -6h-28q-7 0 -7 6v758q0 7 7 7h28h224q142 0 213.5 -64.5t71.5 -163.5q0 -83 -51.5 -143 t-154.5 -78zM764 590q128 0 188 53.5t60 138.5t-60 138.5t-188 53.5h-212v-384h212z" />
<glyph unicode="&#xaf;" horiz-adv-x="512" d="M-5 1100q0 11 11 11h500q11 0 11 -11v-27q0 -11 -11 -11h-500q-11 0 -11 11v27z" />
<glyph unicode="&#xb0;" horiz-adv-x="468" d="M229 892q-80 0 -136.5 56.5t-56.5 135.5q0 80 57 136.5t136 56.5t136 -56.5t57 -136.5q0 -79 -56.5 -135.5t-136.5 -56.5zM229 939q61 0 102.5 42.5t41.5 102.5q0 61 -41.5 103.5t-102.5 42.5t-102.5 -42.5t-41.5 -103.5q0 -60 41.5 -102.5t102.5 -42.5z" />
<glyph unicode="&#xb1;" horiz-adv-x="1047" d="M919 585q11 0 11 -11v-31q0 -11 -11 -11h-369v-369q0 -10 -11 -10h-31q-10 0 -10 10v369h-369q-11 0 -11 11v31q0 11 11 11h369v369q0 11 10 11h31q11 0 11 -11v-369h369zM919 52q11 0 11 -11v-30q0 -11 -11 -11h-790q-11 0 -11 11v30q0 11 11 11h790z" />
<glyph unicode="&#xb4;" horiz-adv-x="363" d="M35 966q-8 -7 -16 3l-14 22q-5 9 3 15l296 236q8 7 15 -2l20 -31q6 -9 -3 -15z" />
<glyph unicode="&#xb6;" horiz-adv-x="1116" d="M982 1249q11 0 11 -10v-1446q0 -11 -11 -11h-17q-11 0 -11 11v1421h-435v-1421q0 -11 -11 -11h-16q-11 0 -11 11v688q-156 5 -264.5 116.5t-108.5 267.5q0 159 112.5 271.5t271.5 112.5h473h17z" />
<glyph unicode="&#xb7;" horiz-adv-x="347" d="M174 384q-22 0 -38 16t-16 38t16 37.5t38 15.5t37.5 -15.5t15.5 -37.5t-15.5 -38t-37.5 -16z" />
<glyph unicode="&#xb8;" horiz-adv-x="574" d="M170 -420q-90 0 -163 43q-9 7 -5 16l7 13q5 9 15 5q74 -37 144 -37q56 0 89.5 29.5t33.5 80.5q0 75 -69 98.5t-166 -8.5q-8 -2 -10.5 1.5t0.5 11.5l63 176h44l-53 -147q96 27 169 -8t73 -122q0 -68 -49 -110t-123 -42z" />
<glyph unicode="&#xbb;" horiz-adv-x="928" d="M478 416q0 -3 -4 -6l-336 -255q-7 -5 -13.5 -2.5t-6.5 10.5v26q0 4 4 7l307 237l-307 236q-4 3 -4 7v26q0 8 6.5 11t13.5 -2l336 -255q4 -3 4 -7v-33zM806 456q4 -3 4 -7v-33q0 -3 -4 -6l-336 -255q-7 -5 -13.5 -2.5t-6.5 10.5v26q0 4 4 7l307 237l-307 236q-4 3 -4 7v26 q0 8 6.5 11t13.5 -2z" />
<glyph unicode="&#xbc;" horiz-adv-x="1802" d="M1120 1227q5 9 15 5l22 -10q9 -5 5 -14l-633 -1356q-6 -10 -14 -6l-21 11q-11 6 -6 14zM380 1227q7 0 7 -7v-807q0 -7 -7 -7h-29q-7 0 -7 7v770l-168 -88q-8 -4 -11 3l-9 21q-3 6 3 9l187 97q4 2 10 2h24zM1718 246q7 0 7 -7v-23q0 -7 -7 -7h-139v-202q0 -7 -7 -7h-29 q-8 0 -8 7v202h-446q-7 0 -7 7v22q0 2 1 4l454 575q3 4 10 4h25q7 0 7 -7v-568h139zM1136 246h399v509z" />
<glyph unicode="&#xbd;" horiz-adv-x="1811" d="M1157 1222q9 -5 5 -14l-633 -1356q-6 -10 -14 -6l-21 11q-11 6 -6 14l632 1356q5 9 15 5zM380 1227q7 0 7 -7v-807q0 -7 -7 -7h-29q-7 0 -7 7v770l-168 -88q-8 -4 -11 3l-9 21q-3 6 3 9l187 97q4 2 10 2h24zM1726 34q8 0 8 -7v-23q0 -8 -8 -8h-540q-7 0 -7 8v9q0 7 3 9 q253 201 365.5 336.5t112.5 248.5q0 85 -50 133.5t-148 48.5q-134 0 -239 -120q-6 -6 -12 1l-15 17q-5 5 3 11q115 128 269 128q116 0 176 -59t60 -157q0 -123 -106 -253.5t-343 -322.5h471z" />
<glyph unicode="&#xbe;" horiz-adv-x="1947" d="M444 830q226 -34 226 -214q0 -103 -75 -160.5t-203 -57.5q-173 0 -290 128q-7 7 -3 11l15 18q7 9 12 2q109 -122 264 -122q110 0 173.5 47.5t63.5 133.5q0 193 -294 196q-7 0 -7 7v17q0 7 7 7q131 1 199 54t68 134t-50.5 124.5t-151.5 43.5q-133 0 -238 -112q-6 -4 -12 2 l-14 17q-3 3 3 11q114 119 268 119q118 0 177.5 -54t59.5 -146q0 -75 -51 -130t-147 -76zM1235 1227q5 9 15 5l22 -10q9 -5 5 -14l-632 -1356q-6 -10 -15 -6l-21 11q-10 6 -5 14zM1833 246q7 0 7 -7v-23q0 -7 -7 -7h-139v-202q0 -7 -7 -7h-29q-7 0 -7 7v202h-447q-7 0 -7 7 v22l2 4l453 575q3 4 10 4h25q7 0 7 -7v-568h139zM1251 246h400v509z" />
<glyph unicode="&#xbf;" horiz-adv-x="802" d="M413 852q22 0 38 -15.5t16 -37.5t-16 -38t-38 -16t-37.5 16t-15.5 38t15.5 37.5t37.5 15.5zM101 -121q0 -245 282 -245q102 0 181 37t151 104q11 9 18 -2l21 -26q5 -7 -5 -17q-79 -72 -168.5 -112t-205.5 -40q-165 0 -252.5 74.5t-87.5 218.5q0 60 19.5 112t50.5 91.5 t69 76.5t75.5 75.5t68.5 80.5t50.5 99.5t19.5 123.5q0 9 9 9h33q9 0 9 -13q0 -68 -18.5 -126.5t-48.5 -102t-66 -83t-72 -76t-66 -74t-48.5 -85t-18.5 -100.5z" />
<glyph unicode="&#xc0;" horiz-adv-x="1244" d="M349 1604q-8 5 -3 14l20 31q7 9 15 3l295 -236q9 -7 3 -16l-14 -21q-7 -9 -15 -3zM1197 12q5 -12 -9 -12h-51q-9 0 -13 9l-186 428h-640l-192 -428q-5 -9 -13 -9h-47q-14 0 -9 12l565 1249q4 9 13 9h18q9 0 13 -9zM322 492h593l-292 674z" />
<glyph unicode="&#xc1;" horiz-adv-x="1244" d="M573 1379l-14 21q-6 9 3 16l296 236q8 6 15 -3l20 -31q5 -9 -3 -14l-301 -228q-8 -7 -16 3zM1197 12q5 -12 -9 -12h-51q-9 0 -13 9l-186 428h-640l-192 -428q-5 -9 -13 -9h-47q-14 0 -9 12l565 1249q4 9 13 9h18q9 0 13 -9zM322 492h593l-292 674z" />
<glyph unicode="&#xc2;" horiz-adv-x="1244" d="M378 1372q-7 0 -9 3.5t3 8.5l218 240q6 5 16 5h30q11 0 16 -5l217 -240q5 -5 3.5 -8.5t-8.5 -3.5h-44q-11 0 -16 6l-183 205l-183 -205q-5 -6 -15 -6h-45zM1197 12q5 -12 -9 -12h-51q-9 0 -13 9l-186 428h-640l-192 -428q-5 -9 -13 -9h-47q-14 0 -9 12l565 1249q4 9 13 9 h18q9 0 13 -9zM322 492h593l-292 674z" />
<glyph unicode="&#xc3;" horiz-adv-x="1244" d="M356 1397q-5 0 -8 3.5t-2 7.5q2 96 43.5 142.5t108.5 46.5q36 0 65 -15.5t49 -37.5t38.5 -44.5t43 -38t53.5 -15.5q53 0 82.5 36t30.5 105q1 10 10 10h19q12 0 11 -16q-3 -93 -45.5 -138.5t-107.5 -45.5q-36 0 -65 15.5t-49 38t-38.5 45t-43 38t-53.5 15.5q-53 0 -82 -36 t-30 -106q-2 -10 -11 -10h-19zM1197 12q5 -12 -9 -12h-51q-9 0 -13 9l-186 428h-640l-192 -428q-5 -9 -13 -9h-47q-14 0 -9 12l565 1249q4 9 13 9h18q9 0 13 -9zM322 492h593l-292 674z" />
<glyph unicode="&#xc4;" horiz-adv-x="1244" d="M452 1445q-22 0 -37.5 16t-15.5 38q0 21 15.5 36.5t37.5 15.5q21 0 37 -15.5t16 -36.5q0 -22 -16 -38t-37 -16zM795 1445q-22 0 -37.5 16t-15.5 38q0 21 15.5 36.5t37.5 15.5q21 0 37 -15.5t16 -36.5q0 -22 -16 -38t-37 -16zM1197 12q5 -12 -9 -12h-51q-9 0 -13 9 l-186 428h-640l-192 -428q-5 -9 -13 -9h-47q-14 0 -9 12l565 1249q4 9 13 9h18q9 0 13 -9zM322 492h593l-292 674z" />
<glyph unicode="&#xc5;" horiz-adv-x="1244" d="M1197 12q5 -12 -9 -12h-51q-9 0 -13 9l-186 428h-640l-192 -428q-5 -9 -13 -9h-47q-14 0 -9 12l558 1236q-70 11 -117 64t-47 125q0 80 57 137t136 57q80 0 137 -57.5t57 -136.5q0 -72 -48 -125.5t-118 -63.5zM472 1437q0 -64 43.5 -108t108.5 -44t108.5 44t43.5 108 q0 66 -43.5 110.5t-108.5 44.5t-108.5 -44.5t-43.5 -110.5zM322 492h593l-292 674z" />
<glyph unicode="&#xc6;" horiz-adv-x="1738" d="M1638 57q11 0 11 -11v-35q0 -11 -11 -11h-810h-28q-11 0 -11 11v426h-423l-256 -430q-4 -7 -13 -7h-50q-6 0 -10 4t0 10l732 1229q3 6 13 6h20h42h773q11 0 11 -10v-36q0 -11 -11 -11h-762v-511h680q11 0 11 -11v-36q0 -10 -11 -10h-680v-567h783zM397 492h392v660z" />
<glyph unicode="&#xc7;" horiz-adv-x="1328" d="M1224 327q10 -5 5 -15q-159 -317 -491 -325l-44 -125q96 27 168.5 -8t72.5 -122q0 -68 -49 -110t-123 -42q-90 0 -163 43q-9 7 -5 16l7 13q5 9 15 5q74 -37 144 -37q56 0 89.5 29.5t33.5 80.5q0 75 -68.5 98.5t-165.5 -8.5q-8 -2 -11 1.5t0 11.5l56 155q-119 5 -225 52 t-186.5 128t-128 199.5t-47.5 257.5q0 143 50 264t134 202t195.5 126t234.5 45q344 0 507 -325q5 -10 -5 -15l-34 -16q-10 -5 -15 5q-147 294 -453 294q-112 0 -211.5 -42t-173.5 -116t-117.5 -183.5t-43.5 -238.5t43.5 -238.5t117.5 -184t173.5 -116.5t211.5 -42 q306 0 453 294q5 11 15 6z" />
<glyph unicode="&#xc8;" horiz-adv-x="1087" d="M282 1604q-8 5 -3 14l19 31q8 10 16 3l295 -236q9 -7 3 -16l-14 -21q-7 -9 -15 -3zM973 57q11 0 11 -11v-35q0 -11 -11 -11h-810h-28q-11 0 -11 11v1228q0 10 11 10h45h773q11 0 11 -10v-36q0 -11 -11 -11h-763v-511h681q11 0 11 -11v-36q0 -10 -11 -10h-681v-567h783z " />
<glyph unicode="&#xc9;" horiz-adv-x="1087" d="M506 1379l-14 21q-6 9 3 16l296 236q8 6 15 -3l20 -31q5 -9 -3 -14l-301 -228q-8 -7 -16 3zM973 57q11 0 11 -11v-35q0 -11 -11 -11h-810h-28q-11 0 -11 11v1228q0 10 11 10h45h773q11 0 11 -10v-36q0 -11 -11 -11h-763v-511h681q11 0 11 -11v-36q0 -10 -11 -10h-681 v-567h783z" />
<glyph unicode="&#xca;" horiz-adv-x="1087" d="M311 1372q-7 0 -9 3.5t3 8.5l218 240q6 5 16 5h30q11 0 16 -5l217 -240q5 -5 3.5 -8.5t-8.5 -3.5h-44q-11 0 -16 6l-183 205l-183 -205q-5 -6 -15 -6h-45zM973 57q11 0 11 -11v-35q0 -11 -11 -11h-810h-28q-11 0 -11 11v1228q0 10 11 10h45h773q11 0 11 -10v-36 q0 -11 -11 -11h-763v-511h681q11 0 11 -11v-36q0 -10 -11 -10h-681v-567h783z" />
<glyph unicode="&#xcb;" horiz-adv-x="1087" d="M385 1445q-22 0 -37.5 16t-15.5 38q0 21 15.5 36.5t37.5 15.5q21 0 37 -15.5t16 -36.5q0 -22 -16 -38t-37 -16zM728 1445q-22 0 -37.5 16t-15.5 38q0 21 15.5 36.5t37.5 15.5q21 0 37 -15.5t16 -36.5q0 -22 -16 -38t-37 -16zM973 57q11 0 11 -11v-35q0 -11 -11 -11h-810 h-28q-11 0 -11 11v1228q0 10 11 10h45h773q11 0 11 -10v-36q0 -11 -11 -11h-763v-511h681q11 0 11 -11v-36q0 -10 -11 -10h-681v-567h783z" />
<glyph unicode="&#xcc;" horiz-adv-x="314" d="M184 1376l-301 228q-8 5 -3 14l20 31q8 10 16 3l295 -236q9 -7 3 -16l-14 -21q-8 -10 -16 -3zM124 1239q0 10 11 10h45q10 0 10 -10v-1228q0 -11 -10 -11h-45q-4 0 -7.5 3.5t-3.5 7.5v1228z" />
<glyph unicode="&#xcd;" horiz-adv-x="314" d="M123 1376q-8 -6 -15 3l-14 21q-6 9 3 16l295 236q8 7 16 -3l20 -31q5 -8 -4 -14zM124 1239q0 10 11 10h45q10 0 10 -10v-1228q0 -11 -10 -11h-45q-4 0 -7.5 3.5t-3.5 7.5v1228z" />
<glyph unicode="&#xce;" horiz-adv-x="314" d="M338 1378l-182 205l-184 -205q-5 -6 -14 -6h-46q-7 0 -8.5 3.5t3.5 8.5l217 240q6 5 16 5h30q11 0 16 -5l218 -240q5 -5 3 -8.5t-9 -3.5h-44q-11 0 -16 6zM124 1239q0 10 11 10h45q10 0 10 -10v-1228q0 -11 -10 -11h-45q-4 0 -7.5 3.5t-3.5 7.5v1228z" />
<glyph unicode="&#xcf;" horiz-adv-x="314" d="M-13 1445q-22 0 -38 16t-16 38q0 21 16 36.5t38 15.5q21 0 36.5 -15.5t15.5 -36.5q0 -22 -15.5 -38t-36.5 -16zM330 1445q-22 0 -38 16t-16 38q0 21 16 36.5t38 15.5q21 0 36.5 -15.5t15.5 -36.5q0 -22 -15.5 -38t-36.5 -16zM124 1239q0 10 11 10h45q10 0 10 -10v-1228 q0 -11 -10 -11h-45q-4 0 -7.5 3.5t-3.5 7.5v1228z" />
<glyph unicode="&#xd0;" horiz-adv-x="1275" d="M539 1249q176 0 317 -71.5t226.5 -215t85.5 -337.5q0 -146 -49.5 -265.5t-135 -197.5t-199.5 -120t-245 -42h-377h-27q-11 0 -11 11v588h-159q-11 0 -11 10v30q0 11 11 11h159v589q0 10 11 10h45h359zM534 57q161 0 288 66.5t202.5 196.5t75.5 305q0 174 -75.5 304.5 t-202.5 196.5t-288 66h-344v-542h339q11 0 11 -11v-30q0 -10 -11 -10h-339v-542h344z" />
<glyph unicode="&#xd1;" horiz-adv-x="1292" d="M400 1397q-5 0 -8 3.5t-2 7.5q2 96 43.5 142.5t108.5 46.5q36 0 65 -15.5t49 -37.5t38.5 -44.5t43 -38t53.5 -15.5q53 0 82.5 36t30.5 105q1 10 10 10h19q12 0 11 -16q-3 -93 -45.5 -138.5t-107.5 -45.5q-36 0 -65 15.5t-49 38t-38.5 45t-43 38t-53.5 15.5q-53 0 -82 -36 t-30 -106q-2 -10 -11 -10h-19zM1158 1249q10 0 10 -10v-1249q0 -10 -10 -10h-4q-9 0 -15 6l-949 1146v-1121q0 -11 -10 -11h-45q-11 0 -11 11v1248q0 11 11 11h3q10 0 16 -6l948 -1147v1122q0 10 11 10h45z" />
<glyph unicode="&#xd2;" d="M749 1376l-301 228q-8 5 -3 14l20 31q7 9 15 3l296 -236q9 -7 3 -16l-15 -21q-7 -9 -15 -3zM722 1262q123 0 234.5 -45t195.5 -126t134 -202t50 -264q0 -190 -85.5 -337.5t-224.5 -224t-304 -76.5t-304 76.5t-224.5 224t-85.5 337.5q0 143 50 264t134 202t195.5 126 t234.5 45zM722 44q112 0 211.5 42t173.5 116.5t117.5 184t43.5 238.5t-43.5 238.5t-117.5 183.5t-173.5 116t-211.5 42t-211.5 -42t-173.5 -116t-117.5 -183.5t-43.5 -238.5t43.5 -238.5t117.5 -184t173.5 -116.5t211.5 -42z" />
<glyph unicode="&#xd3;" d="M688 1376q-8 -6 -15 3l-15 21q-5 9 4 16l295 236q8 6 15 -3l20 -31q5 -9 -3 -14zM722 1262q123 0 234.5 -45t195.5 -126t134 -202t50 -264q0 -190 -85.5 -337.5t-224.5 -224t-304 -76.5t-304 76.5t-224.5 224t-85.5 337.5q0 143 50 264t134 202t195.5 126t234.5 45z M722 44q112 0 211.5 42t173.5 116.5t117.5 184t43.5 238.5t-43.5 238.5t-117.5 183.5t-173.5 116t-211.5 42t-211.5 -42t-173.5 -116t-117.5 -183.5t-43.5 -238.5t43.5 -238.5t117.5 -184t173.5 -116.5t211.5 -42z" />
<glyph unicode="&#xd4;" d="M903 1378l-183 205l-183 -205q-5 -6 -14 -6h-46q-7 0 -8.5 3.5t3.5 8.5l217 240q6 5 16 5h30q11 0 16 -5l218 -240q5 -5 3 -8.5t-9 -3.5h-44q-11 0 -16 6zM722 1262q123 0 234.5 -45t195.5 -126t134 -202t50 -264q0 -190 -85.5 -337.5t-224.5 -224t-304 -76.5t-304 76.5 t-224.5 224t-85.5 337.5q0 143 50 264t134 202t195.5 126t234.5 45zM722 44q112 0 211.5 42t173.5 116.5t117.5 184t43.5 238.5t-43.5 238.5t-117.5 183.5t-173.5 116t-211.5 42t-211.5 -42t-173.5 -116t-117.5 -183.5t-43.5 -238.5t43.5 -238.5t117.5 -184t173.5 -116.5 t211.5 -42z" />
<glyph unicode="&#xd5;" d="M456 1397q-5 0 -8.5 3.5t-2.5 7.5q2 96 44 142.5t109 46.5q36 0 65 -15.5t48.5 -37.5t38.5 -44.5t43 -38t53 -15.5q53 0 82.5 36t30.5 105q1 10 11 10h19q11 0 10 -16q-3 -93 -45.5 -138.5t-107.5 -45.5q-36 0 -65 15.5t-48.5 38t-38.5 45t-43 38t-53 15.5 q-53 0 -82.5 -36.5t-30.5 -105.5q-2 -10 -11 -10h-18zM722 1262q123 0 234.5 -45t195.5 -126t134 -202t50 -264q0 -190 -85.5 -337.5t-224.5 -224t-304 -76.5t-304 76.5t-224.5 224t-85.5 337.5q0 143 50 264t134 202t195.5 126t234.5 45zM722 44q112 0 211.5 42 t173.5 116.5t117.5 184t43.5 238.5t-43.5 238.5t-117.5 183.5t-173.5 116t-211.5 42t-211.5 -42t-173.5 -116t-117.5 -183.5t-43.5 -238.5t43.5 -238.5t117.5 -184t173.5 -116.5t211.5 -42z" />
<glyph unicode="&#xd6;" d="M551 1445q-22 0 -37.5 16t-15.5 38q0 21 15.5 36.5t37.5 15.5q21 0 37 -15.5t16 -36.5q0 -22 -16 -38t-37 -16zM894 1445q-22 0 -37.5 16t-15.5 38q0 21 15.5 36.5t37.5 15.5q21 0 37 -15.5t16 -36.5q0 -22 -16 -38t-37 -16zM722 1262q123 0 234.5 -45t195.5 -126 t134 -202t50 -264q0 -190 -85.5 -337.5t-224.5 -224t-304 -76.5t-304 76.5t-224.5 224t-85.5 337.5q0 143 50 264t134 202t195.5 126t234.5 45zM722 44q112 0 211.5 42t173.5 116.5t117.5 184t43.5 238.5t-43.5 238.5t-117.5 183.5t-173.5 116t-211.5 42t-211.5 -42 t-173.5 -116t-117.5 -183.5t-43.5 -238.5t43.5 -238.5t117.5 -184t173.5 -116.5t211.5 -42z" />
<glyph unicode="&#xd7;" horiz-adv-x="983" d="M528 514l334 -333q8 -8 0 -16l-22 -22q-8 -7 -15 0l-333 334l-334 -334q-8 -7 -15 0l-22 22q-8 8 0 16l334 333l-334 333q-8 7 0 15l22 22q7 8 15 0l334 -333l333 333q7 8 15 0l22 -22q8 -8 0 -15z" />
<glyph unicode="&#xd8;" d="M1186 1054q150 -174 150 -429q0 -190 -85.5 -337.5t-224.5 -224t-304 -76.5q-123 0 -234.5 45t-196.5 128l-105 -106q-9 -7 -16 0l-22 22q-7 7 0 16l107 106q-147 173 -147 427q0 143 50 264t134 202t195.5 126t234.5 45q122 0 232.5 -43.5t195.5 -125.5l101 100 q7 7 15 0l22 -22q7 -7 0 -14zM176 625q0 -222 125 -381l804 804q-75 75 -174 116t-209 41q-112 0 -211.5 -42t-173.5 -116t-117.5 -183.5t-43.5 -238.5zM722 44q112 0 211.5 42t173.5 116.5t117.5 184t43.5 238.5q0 225 -128 384l-804 -805q75 -77 174.5 -118.5t211.5 -41.5 z" />
<glyph unicode="&#xd9;" horiz-adv-x="1251" d="M352 1604q-8 5 -3 14l20 31q7 9 15 3l295 -236q9 -7 3 -16l-14 -21q-7 -9 -15 -3zM1117 1249q10 0 10 -10v-722q0 -258 -133 -397.5t-368 -139.5t-368.5 139.5t-133.5 397.5v722q0 10 11 10h45q10 0 10 -10v-712q0 -235 111.5 -363t324.5 -128t324 128t111 363v712 q0 10 11 10h45z" />
<glyph unicode="&#xda;" horiz-adv-x="1251" d="M577 1379l-15 21q-6 9 3 16l296 236q8 6 15 -3l20 -31q5 -9 -3 -14l-301 -228q-8 -6 -15 3zM1117 1249q10 0 10 -10v-722q0 -258 -133 -397.5t-368 -139.5t-368.5 139.5t-133.5 397.5v722q0 10 11 10h45q10 0 10 -10v-712q0 -235 111.5 -363t324.5 -128t324 128t111 363 v712q0 10 11 10h45z" />
<glyph unicode="&#xdb;" horiz-adv-x="1251" d="M381 1372q-7 0 -9 3.5t3 8.5l218 240q6 5 16 5h30q11 0 16 -5l217 -240q5 -5 3.5 -8.5t-8.5 -3.5h-44q-11 0 -16 6l-183 205l-183 -205q-5 -6 -15 -6h-45zM1117 1249q10 0 10 -10v-722q0 -258 -133 -397.5t-368 -139.5t-368.5 139.5t-133.5 397.5v722q0 10 11 10h45 q10 0 10 -10v-712q0 -235 111.5 -363t324.5 -128t324 128t111 363v712q0 10 11 10h45z" />
<glyph unicode="&#xdc;" horiz-adv-x="1251" d="M455 1445q-22 0 -37.5 16t-15.5 38q0 21 15.5 36.5t37.5 15.5q21 0 37 -15.5t16 -36.5q0 -22 -16 -38t-37 -16zM798 1445q-22 0 -37.5 16t-15.5 38q0 21 15.5 36.5t37.5 15.5q21 0 37 -15.5t16 -36.5q0 -22 -16 -38t-37 -16zM1117 1249q10 0 10 -10v-722 q0 -258 -133 -397.5t-368 -139.5t-368.5 139.5t-133.5 397.5v722q0 10 11 10h45q10 0 10 -10v-712q0 -235 111.5 -363t324.5 -128t324 128t111 363v712q0 10 11 10h45z" />
<glyph unicode="&#xdd;" horiz-adv-x="1163" d="M532 1379l-14 21q-6 9 3 16l296 236q8 6 15 -3l20 -31q5 -9 -3 -14l-301 -228q-8 -7 -16 3zM1106 1249q6 0 9.5 -3.5t0.5 -8.5l-503 -785v-441q0 -11 -10 -11h-45q-11 0 -11 11v439l-510 787q-3 6 0 9t9 3h52q8 0 14 -8l469 -730l465 730q5 8 13 8h47z" />
<glyph unicode="&#xde;" horiz-adv-x="1096" d="M564 1011q117 0 208 -31t145 -84.5t81 -120t27 -143.5t-27 -143.5t-81 -120t-145 -84.5t-208 -31h-374v-242q0 -11 -10 -11h-45q-11 0 -11 11v1228q0 10 11 10h45q10 0 10 -10v-228h374zM554 310q107 0 187 26.5t125.5 72.5t67.5 102t22 121t-22 121t-67.5 102 t-125.5 72.5t-187 26.5h-364v-644h364z" />
<glyph unicode="&#xdf;" horiz-adv-x="997" d="M591 673q0 -52 19 -90.5t48.5 -61t66 -41.5t73 -38.5t66 -43.5t48.5 -65.5t19 -97.5q0 -69 -27 -119.5t-71.5 -77.5t-91.5 -39t-98 -12q-146 0 -269 94q-10 8 -5 16l13 29q6 12 15 6q125 -91 243 -91q40 0 77.5 9t73 29t57 58.5t21.5 91.5q0 49 -19 84.5t-49 56.5 t-66.5 39t-73.5 37.5t-67 45t-49 68.5t-19 102q0 56 18 102.5t39.5 75.5t39.5 77.5t18 107.5q0 112 -58.5 180.5t-167.5 68.5t-168 -68.5t-59 -176.5v-1018q0 -11 -11 -11h-42q-11 0 -11 11v1023q0 127 79.5 211t210.5 84t211 -83.5t80 -212.5q0 -63 -18 -114.5t-39 -80.5 t-39 -72.5t-18 -92.5z" />
<glyph unicode="&#xe0;" horiz-adv-x="872" d="M185 1194q-9 6 -3 15l20 31q7 9 16 2l295 -236q8 -6 3 -15l-14 -22q-8 -10 -16 -3zM807 18q5 -11 -6 -16l-28 -10q-8 -3 -12 2q-56 97 -71 214q-42 -96 -132 -158.5t-203 -62.5q-120 0 -194 69t-74 173q0 100 69.5 169t202.5 91t326 -24v70q0 131 -50 195.5t-183 64.5 q-77 0 -140 -20t-139 -61q-10 -5 -15 5l-14 31q-4 10 6 15q84 45 154.5 66t153.5 21q84 0 142.5 -22t90 -65.5t45 -97t13.5 -126.5v-234q0 -95 13.5 -154t44.5 -135zM368 41q133 0 225 94.5t92 207.5v75q-178 46 -296.5 28t-177 -74.5t-58.5 -140.5q0 -85 59 -137.5 t156 -52.5z" />
<glyph unicode="&#xe1;" horiz-adv-x="872" d="M410 969l-14 22q-5 9 3 15l295 236q9 7 16 -2l20 -31q6 -9 -3 -15l-302 -228q-8 -6 -15 3zM807 18q5 -11 -6 -16l-28 -10q-8 -3 -12 2q-56 97 -71 214q-42 -96 -132 -158.5t-203 -62.5q-120 0 -194 69t-74 173q0 100 69.5 169t202.5 91t326 -24v70q0 131 -50 195.5 t-183 64.5q-77 0 -140 -20t-139 -61q-10 -5 -15 5l-14 31q-4 10 6 15q84 45 154.5 66t153.5 21q84 0 142.5 -22t90 -65.5t45 -97t13.5 -126.5v-234q0 -95 13.5 -154t44.5 -135zM368 41q133 0 225 94.5t92 207.5v75q-178 46 -296.5 28t-177 -74.5t-58.5 -140.5 q0 -85 59 -137.5t156 -52.5z" />
<glyph unicode="&#xe2;" horiz-adv-x="872" d="M215 963q-7 0 -9 3t3 8l217 240q8 6 16 6h31q9 0 15 -6l218 -240q5 -5 3 -8t-9 -3h-44q-10 0 -15 6l-183 204l-184 -204q-5 -6 -14 -6h-45zM807 18q5 -11 -6 -16l-28 -10q-8 -3 -12 2q-56 97 -71 214q-42 -96 -132 -158.5t-203 -62.5q-120 0 -194 69t-74 173 q0 100 69.5 169t202.5 91t326 -24v70q0 131 -50 195.5t-183 64.5q-77 0 -140 -20t-139 -61q-10 -5 -15 5l-14 31q-4 10 6 15q84 45 154.5 66t153.5 21q84 0 142.5 -22t90 -65.5t45 -97t13.5 -126.5v-234q0 -95 13.5 -154t44.5 -135zM368 41q133 0 225 94.5t92 207.5v75 q-178 46 -296.5 28t-177 -74.5t-58.5 -140.5q0 -85 59 -137.5t156 -52.5z" />
<glyph unicode="&#xe3;" horiz-adv-x="872" d="M193 988q-12 0 -10 10q2 96 43.5 143t108.5 47q36 0 65 -15.5t49 -38t38.5 -45t43 -38t53.5 -15.5q53 0 82 36t30 105q2 11 11 11h19q12 0 10 -17q-3 -93 -45 -138t-107 -45q-36 0 -65 15.5t-49 38t-38.5 45t-43 38t-53.5 15.5q-53 0 -82 -36t-30 -106q-2 -10 -12 -10 h-18zM807 18q5 -11 -6 -16l-28 -10q-8 -3 -12 2q-56 97 -71 214q-42 -96 -132 -158.5t-203 -62.5q-120 0 -194 69t-74 173q0 100 69.5 169t202.5 91t326 -24v70q0 131 -50 195.5t-183 64.5q-77 0 -140 -20t-139 -61q-10 -5 -15 5l-14 31q-4 10 6 15q84 45 154.5 66t153.5 21 q84 0 142.5 -22t90 -65.5t45 -97t13.5 -126.5v-234q0 -95 13.5 -154t44.5 -135zM368 41q133 0 225 94.5t92 207.5v75q-178 46 -296.5 28t-177 -74.5t-58.5 -140.5q0 -85 59 -137.5t156 -52.5z" />
<glyph unicode="&#xe4;" horiz-adv-x="872" d="M289 1036q-22 0 -37.5 15.5t-15.5 37.5q0 21 15.5 37t37.5 16q21 0 37 -16t16 -37q0 -22 -16 -37.5t-37 -15.5zM632 1036q-22 0 -37.5 15.5t-15.5 37.5q0 21 15.5 37t37.5 16q21 0 37 -16t16 -37q0 -22 -16 -37.5t-37 -15.5zM807 18q5 -11 -6 -16l-28 -10q-8 -3 -12 2 q-56 97 -71 214q-42 -96 -132 -158.5t-203 -62.5q-120 0 -194 69t-74 173q0 100 69.5 169t202.5 91t326 -24v70q0 131 -50 195.5t-183 64.5q-77 0 -140 -20t-139 -61q-10 -5 -15 5l-14 31q-4 10 6 15q84 45 154.5 66t153.5 21q84 0 142.5 -22t90 -65.5t45 -97t13.5 -126.5 v-234q0 -95 13.5 -154t44.5 -135zM368 41q133 0 225 94.5t92 207.5v75q-178 46 -296.5 28t-177 -74.5t-58.5 -140.5q0 -85 59 -137.5t156 -52.5z" />
<glyph unicode="&#xe5;" horiz-adv-x="872" d="M459 930q-80 0 -136.5 56.5t-56.5 135.5q0 80 57 136.5t136 56.5q80 0 137 -57t57 -136t-57 -135.5t-137 -56.5zM459 1277q-65 0 -108.5 -44.5t-43.5 -110.5q0 -64 43.5 -108.5t108.5 -44.5t108.5 44.5t43.5 108.5q0 66 -43.5 110.5t-108.5 44.5zM807 18q5 -11 -6 -16 l-28 -10q-8 -3 -12 2q-56 97 -71 214q-42 -96 -132 -158.5t-203 -62.5q-120 0 -194 69t-74 173q0 100 69.5 169t202.5 91t326 -24v70q0 131 -50 195.5t-183 64.5q-77 0 -140 -20t-139 -61q-10 -5 -15 5l-14 31q-4 10 6 15q84 45 154.5 66t153.5 21q84 0 142.5 -22t90 -65.5 t45 -97t13.5 -126.5v-234q0 -95 13.5 -154t44.5 -135zM368 41q133 0 225 94.5t92 207.5v75q-178 46 -296.5 28t-177 -74.5t-58.5 -140.5q0 -85 59 -137.5t156 -52.5z" />
<glyph unicode="&#xe6;" horiz-adv-x="1589" d="M1470 227q10 -4 5 -15q-50 -110 -140.5 -167.5t-215.5 -57.5q-133 0 -240 70t-154 191q-36 -110 -136 -185.5t-225 -75.5q-120 0 -193.5 69t-73.5 173q0 100 69 169t202 91t326 -24v70q0 130 -50.5 195t-182.5 65q-77 0 -140 -20t-139 -61q-10 -5 -15 5l-14 31 q-5 10 6 15q85 45 154.5 66t152.5 21q133 0 197.5 -55.5t80.5 -160.5q53 102 150 159t216 57q171 0 276.5 -109.5t105.5 -301.5h-732v-21q0 -168 105 -272t256 -104q217 0 299 195q5 10 15 5zM1110 798q-132 0 -228 -84t-117 -224h655q-8 144 -93 226t-217 82zM377 41 q133 0 225 94.5t92 207.5v75q-178 46 -296 28t-176.5 -74.5t-58.5 -140.5q0 -85 58.5 -137.5t155.5 -52.5z" />
<glyph unicode="&#xe7;" horiz-adv-x="976" d="M878 230q9 -5 5 -15q-47 -106 -136 -166.5t-217 -61.5l-45 -125q96 27 169 -8t73 -122q0 -68 -49 -110t-123 -42q-90 0 -163 43q-9 7 -5 16l7 13q5 9 15 5q74 -37 144 -37q56 0 89.5 29.5t33.5 80.5q0 75 -69 98.5t-166 -8.5q-8 -2 -10.5 1.5t0.5 11.5l56 156 q-168 14 -279 132t-111 299q0 192 124 312t306 120q129 0 218.5 -60.5t137.5 -167.5q5 -9 -5 -14l-36 -17q-9 -4 -15 5q-92 197 -297 197q-157 0 -262 -103t-105 -272t105 -272.5t262 -103.5q211 0 297 198q6 9 15 5z" />
<glyph unicode="&#xe8;" horiz-adv-x="992" d="M219 1194q-9 6 -3 15l20 31q7 9 15 2l295 -236q8 -6 3 -15l-14 -22q-7 -9 -15 -3zM873 227q11 -5 6 -15q-49 -110 -140.5 -167.5t-216.5 -57.5q-178 0 -301.5 120.5t-123.5 312.5q0 193 120 312.5t297 119.5q171 0 276 -109.5t105 -301.5h-731q-1 -7 -1 -21 q0 -168 105 -272t257 -104q216 0 298 195q5 10 15 5zM514 798q-132 0 -228.5 -84t-117.5 -224h656q-8 144 -93 226t-217 82z" />
<glyph unicode="&#xe9;" horiz-adv-x="992" d="M443 969l-14 22q-5 9 3 15l296 236q8 7 15 -2l20 -31q6 -9 -3 -15l-301 -228q-8 -7 -16 3zM873 227q11 -5 6 -15q-49 -110 -140.5 -167.5t-216.5 -57.5q-178 0 -301.5 120.5t-123.5 312.5q0 193 120 312.5t297 119.5q171 0 276 -109.5t105 -301.5h-731q-1 -7 -1 -21 q0 -168 105 -272t257 -104q216 0 298 195q5 10 15 5zM514 798q-132 0 -228.5 -84t-117.5 -224h656q-8 144 -93 226t-217 82z" />
<glyph unicode="&#xea;" horiz-adv-x="992" d="M248 963q-7 0 -9 3t3 8l218 240q8 6 16 6h30q10 0 16 -6l217 -240q5 -5 3.5 -8t-8.5 -3h-44q-11 0 -16 6l-183 204l-183 -204q-5 -6 -15 -6h-45zM873 227q11 -5 6 -15q-49 -110 -140.5 -167.5t-216.5 -57.5q-178 0 -301.5 120.5t-123.5 312.5q0 193 120 312.5t297 119.5 q171 0 276 -109.5t105 -301.5h-731q-1 -7 -1 -21q0 -168 105 -272t257 -104q216 0 298 195q5 10 15 5zM514 798q-132 0 -228.5 -84t-117.5 -224h656q-8 144 -93 226t-217 82z" />
<glyph unicode="&#xeb;" horiz-adv-x="992" d="M322 1036q-22 0 -37.5 15.5t-15.5 37.5q0 21 15.5 37t37.5 16q21 0 37 -16t16 -37q0 -22 -16 -37.5t-37 -15.5zM665 1036q-22 0 -37.5 15.5t-15.5 37.5q0 21 15.5 37t37.5 16q21 0 37 -16t16 -37q0 -22 -16 -37.5t-37 -15.5zM873 227q11 -5 6 -15q-49 -110 -140.5 -167.5 t-216.5 -57.5q-178 0 -301.5 120.5t-123.5 312.5q0 193 120 312.5t297 119.5q171 0 276 -109.5t105 -301.5h-731q-1 -7 -1 -21q0 -168 105 -272t257 -104q216 0 298 195q5 10 15 5zM514 798q-132 0 -228.5 -84t-117.5 -224h656q-8 144 -93 226t-217 82z" />
<glyph unicode="&#xec;" horiz-adv-x="304" d="M180 966l-301 228q-9 6 -3 15l20 31q7 9 15 2l295 -236q8 -6 3 -15l-14 -22q-7 -9 -15 -3zM120 829q0 11 11 11h42q11 0 11 -11v-818q0 -11 -11 -11h-42q-11 0 -11 11v818z" />
<glyph unicode="&#xed;" horiz-adv-x="304" d="M119 966q-8 -7 -16 3l-14 22q-5 9 3 15l296 236q8 7 15 -2l20 -31q6 -9 -3 -15zM120 829q0 11 11 11h42q11 0 11 -11v-818q0 -11 -11 -11h-42q-11 0 -11 11v818z" />
<glyph unicode="&#xee;" horiz-adv-x="304" d="M334 969l-183 204l-183 -204q-5 -6 -15 -6h-45q-7 0 -9 3t3 8l218 240q8 6 16 6h30q10 0 16 -6l217 -240q5 -5 3.5 -8t-8.5 -3h-44q-11 0 -16 6zM120 829q0 11 11 11h42q11 0 11 -11v-818q0 -11 -11 -11h-42q-11 0 -11 11v818z" />
<glyph unicode="&#xef;" horiz-adv-x="304" d="M-18 1036q-22 0 -37.5 15.5t-15.5 37.5q0 21 15.5 37t37.5 16q21 0 37 -16t16 -37q0 -22 -16 -37.5t-37 -15.5zM325 1036q-22 0 -37.5 15.5t-15.5 37.5q0 21 15.5 37t37.5 16q21 0 37 -16t16 -37q0 -22 -16 -37.5t-37 -15.5zM120 829q0 11 11 11h42q11 0 11 -11v-818 q0 -11 -11 -11h-42q-11 0 -11 11v818z" />
<glyph unicode="&#xf0;" horiz-adv-x="1034" d="M544 1236q79 -44 143.5 -107.5t106 -135.5t71.5 -147.5t46 -154t22.5 -143.5t6.5 -127q0 -128 -58 -228.5t-153.5 -153t-208.5 -52.5t-209.5 52.5t-155 151.5t-58.5 224q0 188 121 307.5t295 119.5q111 0 201.5 -52t142.5 -145q-14 81 -38.5 154.5t-64 147.5t-100 137.5 t-136.5 107.5l-93 -160q-5 -9 -14 -4l-14 8q-10 6 -4 15l92 158q-80 40 -177 59q-15 5 -9 18l10 22q4 7 13 6q103 -19 188 -60l81 140q5 10 15 4l14 -8q9 -5 4 -15zM520 44q149 0 252.5 103t103.5 268t-103 267.5t-253 102.5t-253.5 -102.5t-103.5 -267.5t103.5 -268 t253.5 -103z" />
<glyph unicode="&#xf1;" horiz-adv-x="1008" d="M259 988q-12 0 -10 10q2 96 43.5 143t108.5 47q36 0 65 -15.5t49 -38t38.5 -45t43 -38t53.5 -15.5q53 0 82 36t30 105q2 11 11 11h19q12 0 10 -17q-3 -93 -45 -138t-107 -45q-36 0 -65 15.5t-49 38t-38.5 45t-43 38t-53.5 15.5q-53 0 -82 -36t-30 -106q-2 -10 -11 -10 h-19zM569 860q159 0 237 -93.5t78 -255.5v-500q0 -11 -11 -11h-42q-10 0 -10 11v481q0 311 -267 311q-149 0 -257.5 -105.5t-108.5 -245.5v-441q0 -11 -11 -11h-42q-11 0 -11 11v818q0 11 11 11h42q11 0 11 -11v-216q17 41 49.5 82t79 79t113 62t139.5 24z" />
<glyph unicode="&#xf2;" horiz-adv-x="1049" d="M552 966l-301 228q-9 6 -3 15l20 31q7 9 15 2l296 -236q8 -6 3 -15l-15 -22q-7 -9 -15 -3zM525 852q116 0 213 -52.5t155.5 -152.5t58.5 -227t-58.5 -227t-155.5 -153t-213 -53t-213 53t-156 153t-59 227t59 227t156 152.5t213 52.5zM525 44q151 0 256 104t105 272 t-105 271.5t-256 103.5q-152 0 -257 -103.5t-105 -271.5t105 -272t257 -104z" />
<glyph unicode="&#xf3;" horiz-adv-x="1049" d="M491 966q-8 -6 -15 3l-15 22q-5 9 3 15l296 236q8 7 15 -2l20 -31q6 -9 -3 -15zM525 852q116 0 213 -52.5t155.5 -152.5t58.5 -227t-58.5 -227t-155.5 -153t-213 -53t-213 53t-156 153t-59 227t59 227t156 152.5t213 52.5zM525 44q151 0 256 104t105 272t-105 271.5 t-256 103.5q-152 0 -257 -103.5t-105 -271.5t105 -272t257 -104z" />
<glyph unicode="&#xf4;" horiz-adv-x="1049" d="M706 969l-183 204l-183 -204q-5 -6 -14 -6h-46q-7 0 -9 3t3 8l218 240q7 6 16 6h30q10 0 16 -6l218 -240q5 -5 3 -8t-9 -3h-44q-11 0 -16 6zM525 852q116 0 213 -52.5t155.5 -152.5t58.5 -227t-58.5 -227t-155.5 -153t-213 -53t-213 53t-156 153t-59 227t59 227 t156 152.5t213 52.5zM525 44q151 0 256 104t105 272t-105 271.5t-256 103.5q-152 0 -257 -103.5t-105 -271.5t105 -272t257 -104z" />
<glyph unicode="&#xf5;" horiz-adv-x="1049" d="M259 988q-5 0 -8.5 3t-2.5 7q2 96 43.5 143t108.5 47q36 0 65 -15.5t49 -38t38.5 -45t43 -38t53.5 -15.5q53 0 82.5 36t30.5 105q2 11 11 11h19q12 0 10 -17q-3 -92 -45.5 -137.5t-107.5 -45.5q-36 0 -65 15.5t-49 38t-38.5 45t-43 38t-53.5 15.5q-53 0 -82 -36t-30 -106 q-2 -10 -11 -10h-18zM525 852q116 0 213 -52.5t155.5 -152.5t58.5 -227t-58.5 -227t-155.5 -153t-213 -53t-213 53t-156 153t-59 227t59 227t156 152.5t213 52.5zM525 44q151 0 256 104t105 272t-105 271.5t-256 103.5q-152 0 -257 -103.5t-105 -271.5t105 -272t257 -104z " />
<glyph unicode="&#xf6;" horiz-adv-x="1049" d="M354 1036q-22 0 -37.5 15.5t-15.5 37.5q0 21 15.5 37t37.5 16q21 0 37 -16t16 -37q0 -22 -16 -37.5t-37 -15.5zM697 1036q-22 0 -37.5 15.5t-15.5 37.5q0 21 15.5 37t37.5 16q21 0 37 -16t16 -37q0 -22 -16 -37.5t-37 -15.5zM525 852q116 0 213 -52.5t155.5 -152.5 t58.5 -227t-58.5 -227t-155.5 -153t-213 -53t-213 53t-156 153t-59 227t59 227t156 152.5t213 52.5zM525 44q151 0 256 104t105 272t-105 271.5t-256 103.5q-152 0 -257 -103.5t-105 -271.5t105 -272t257 -104z" />
<glyph unicode="&#xf7;" horiz-adv-x="1047" d="M520 745q-22 0 -37 15.5t-15 36.5t15 36t37 15q21 0 36 -15t15 -36t-15 -36.5t-36 -15.5zM129 514q-11 0 -11 10v31q0 11 11 11h790q11 0 11 -11v-31q0 -10 -11 -10h-790zM520 235q-22 0 -37 15.5t-15 36.5t15 36t37 15q21 0 36 -15t15 -36t-15 -36.5t-36 -15.5z" />
<glyph unicode="&#xf8;" horiz-adv-x="1054" d="M852 707q101 -117 101 -287q0 -127 -58.5 -227t-155.5 -153t-213 -53q-167 0 -287 107l-92 -91q-8 -6 -14 0l-22 21q-8 8 0 15l91 91q-103 119 -103 290q0 127 58.5 227t155.5 152.5t213 52.5q169 0 290 -108l89 90q7 6 15 0l22 -22q9 -8 0 -15zM165 420q0 -146 81 -246 l526 527q-102 94 -246 94q-151 0 -256 -103.5t-105 -271.5zM526 44q151 0 256 104t105 272q0 144 -80 243l-525 -526q102 -93 244 -93z" />
<glyph unicode="&#xf9;" horiz-adv-x="1008" d="M231 1194q-9 6 -3 15l20 31q7 9 15 2l296 -236q8 -6 3 -15l-15 -22q-7 -9 -15 -3zM873 840q11 0 11 -11v-818q0 -11 -11 -11h-42q-10 0 -10 11v216q-23 -56 -71 -109.5t-131.5 -95.5t-179.5 -42q-159 0 -237 93t-78 255v501q0 11 11 11h42q11 0 11 -11v-481 q0 -311 266 -311q149 0 258 105.5t109 245.5v441q0 11 10 11h42z" />
<glyph unicode="&#xfa;" horiz-adv-x="1008" d="M456 969l-15 22q-5 9 3 15l296 236q8 7 15 -2l20 -31q6 -9 -3 -15l-301 -228q-8 -6 -15 3zM873 840q11 0 11 -11v-818q0 -11 -11 -11h-42q-10 0 -10 11v216q-23 -56 -71 -109.5t-131.5 -95.5t-179.5 -42q-159 0 -237 93t-78 255v501q0 11 11 11h42q11 0 11 -11v-481 q0 -311 266 -311q149 0 258 105.5t109 245.5v441q0 11 10 11h42z" />
<glyph unicode="&#xfb;" horiz-adv-x="1008" d="M260 963q-7 0 -9 3t3 8l218 240q7 6 16 6h30q10 0 16 -6l218 -240q5 -5 3 -8t-9 -3h-44q-11 0 -16 6l-183 204l-183 -204q-5 -6 -14 -6h-46zM873 840q11 0 11 -11v-818q0 -11 -11 -11h-42q-10 0 -10 11v216q-23 -56 -71 -109.5t-131.5 -95.5t-179.5 -42q-159 0 -237 93 t-78 255v501q0 11 11 11h42q11 0 11 -11v-481q0 -311 266 -311q149 0 258 105.5t109 245.5v441q0 11 10 11h42z" />
<glyph unicode="&#xfc;" horiz-adv-x="1008" d="M334 1036q-22 0 -37.5 15.5t-15.5 37.5q0 21 15.5 37t37.5 16q21 0 37 -16t16 -37q0 -22 -16 -37.5t-37 -15.5zM677 1036q-22 0 -37.5 15.5t-15.5 37.5q0 21 15.5 37t37.5 16q21 0 37 -16t16 -37q0 -22 -16 -37.5t-37 -15.5zM873 840q11 0 11 -11v-818q0 -11 -11 -11h-42 q-10 0 -10 11v216q-23 -56 -71 -109.5t-131.5 -95.5t-179.5 -42q-159 0 -237 93t-78 255v501q0 11 11 11h42q11 0 11 -11v-481q0 -311 266 -311q149 0 258 105.5t109 245.5v441q0 11 10 11h42z" />
<glyph unicode="&#xfd;" horiz-adv-x="846" d="M374 969l-14 22q-5 9 3 15l295 236q9 7 16 -2l20 -31q6 -9 -3 -15l-301 -228q-8 -7 -16 3zM808 840q8 0 11 -6t-1 -14l-368 -824q-54 -126 -96.5 -207t-90.5 -143t-100 -89.5t-115 -27.5q-12 0 -12 10v32q0 9 11 11q95 3 173 103t183 343l-375 792q-4 8 -1 14t11 6h44 q7 0 12 -9l338 -736l324 736q4 9 13 9h39z" />
<glyph unicode="&#xfe;" horiz-adv-x="1068" d="M549 852q175 0 298.5 -120.5t123.5 -311.5t-123.5 -312t-298.5 -121q-124 0 -219 65t-142 175v-687q0 -11 -11 -11h-42q-11 0 -11 11v1289v4v467q0 11 11 11h42q11 0 11 -11v-680v-7q47 110 142 174.5t219 64.5zM544 44q151 0 256 104t105 272t-105 272t-256 104 q-153 0 -257 -110t-104 -266t104 -266t257 -110z" />
<glyph unicode="&#xff;" horiz-adv-x="846" d="M253 1036q-22 0 -37.5 15.5t-15.5 37.5q0 21 15.5 37t37.5 16q21 0 37 -16t16 -37q0 -22 -16 -37.5t-37 -15.5zM596 1036q-22 0 -37.5 15.5t-15.5 37.5q0 21 15.5 37t37.5 16q21 0 37 -16t16 -37q0 -22 -16 -37.5t-37 -15.5zM808 840q8 0 11 -6t-1 -14l-368 -824 q-54 -126 -96.5 -207t-90.5 -143t-100 -89.5t-115 -27.5q-12 0 -12 10v32q0 9 11 11q95 3 173 103t183 343l-375 792q-4 8 -1 14t11 6h44q7 0 12 -9l338 -736l324 736q4 9 13 9h39z" />
<glyph unicode="&#x152;" horiz-adv-x="1946" d="M1858 57q11 0 11 -11v-35q0 -11 -11 -11h-1019q-60 -11 -117 -11q-165 0 -304 76.5t-224.5 224t-85.5 337.5q0 143 50 264t134 202t195.5 126t234.5 45q71 0 137 -15h979q10 0 10 -10v-36q0 -11 -10 -11h-825q135 -72 219 -204t96 -307h428q10 0 10 -11v-36 q0 -10 -10 -10h-426q-1 -196 -89 -343.5t-235 -223.5h852zM176 627q0 -129 43.5 -238.5t117.5 -184t173.5 -116.5t211.5 -42t211.5 42t173.5 116.5t117.5 184t43.5 238.5t-43.5 238.5t-117.5 183.5t-173.5 116t-211.5 42t-211.5 -42t-173.5 -116t-117.5 -183.5t-43.5 -238.5 z" />
<glyph unicode="&#x153;" horiz-adv-x="1785" d="M1666 227q10 -4 5 -15q-50 -110 -140.5 -167.5t-215.5 -57.5q-133 0 -240 70.5t-154 191.5q-48 -121 -155.5 -191.5t-240.5 -70.5q-116 0 -213 53t-156 153t-59 227t59 227t156 152.5t213 52.5q133 0 240 -69.5t155 -190.5q46 121 149.5 190.5t236.5 69.5 q171 0 276.5 -109.5t105.5 -301.5h-732v-21q0 -168 105 -272t256 -104q217 0 299 195q5 10 15 5zM1306 798q-132 0 -228 -84t-117 -224h655q-8 144 -93 226t-217 82zM525 44q151 0 256 104t105 272t-105 271.5t-256 103.5q-152 0 -257 -103.5t-105 -271.5t105 -272t257 -104 z" />
<glyph unicode="&#x178;" horiz-adv-x="1163" d="M411 1445q-22 0 -37.5 16t-15.5 38q0 21 15.5 36.5t37.5 15.5q21 0 37 -15.5t16 -36.5q0 -22 -16 -38t-37 -16zM754 1445q-22 0 -37.5 16t-15.5 38q0 21 15.5 36.5t37.5 15.5q21 0 37 -15.5t16 -36.5q0 -22 -16 -38t-37 -16zM1106 1249q6 0 9.5 -3.5t0.5 -8.5l-503 -785 v-441q0 -11 -10 -11h-45q-11 0 -11 11v439l-510 787q-3 6 0 9t9 3h52q8 0 14 -8l469 -730l465 730q5 8 13 8h47z" />
<glyph unicode="&#x2c6;" horiz-adv-x="505" d="M436 969l-183 204l-183 -204q-5 -6 -15 -6h-45q-7 0 -9 3t3 8l218 240q7 6 16 6h30q10 0 16 -6l217 -240q5 -5 3.5 -8t-8.5 -3h-44q-11 0 -16 6z" />
<glyph unicode="&#x2dc;" horiz-adv-x="698" d="M558 1188q12 0 10 -17q-3 -92 -45.5 -137.5t-107.5 -45.5q-36 0 -65 15.5t-49 38t-38.5 45t-43 38t-53.5 15.5q-53 0 -82 -36t-30 -106q-2 -10 -11 -10h-18q-5 0 -8.5 3t-2.5 7q2 96 43.5 143t108.5 47q36 0 65 -15.5t49 -38t38.5 -45t43 -38t53.5 -15.5q53 0 82.5 36 t30.5 105q2 11 11 11h19z" />
<glyph unicode="&#x2000;" horiz-adv-x="827" />
<glyph unicode="&#x2001;" horiz-adv-x="1654" />
<glyph unicode="&#x2002;" horiz-adv-x="827" />
<glyph unicode="&#x2003;" horiz-adv-x="1654" />
<glyph unicode="&#x2004;" horiz-adv-x="551" />
<glyph unicode="&#x2005;" horiz-adv-x="413" />
<glyph unicode="&#x2006;" horiz-adv-x="275" />
<glyph unicode="&#x2007;" horiz-adv-x="275" />
<glyph unicode="&#x2008;" horiz-adv-x="206" />
<glyph unicode="&#x2009;" horiz-adv-x="330" />
<glyph unicode="&#x200a;" horiz-adv-x="91" />
<glyph unicode="&#x2010;" horiz-adv-x="867" d="M129 460q-11 0 -11 11v35q0 11 11 11h610q11 0 11 -11v-35q0 -11 -11 -11h-610z" />
<glyph unicode="&#x2011;" horiz-adv-x="867" d="M129 460q-11 0 -11 11v35q0 11 11 11h610q11 0 11 -11v-35q0 -11 -11 -11h-610z" />
<glyph unicode="&#x2012;" horiz-adv-x="867" d="M129 460q-11 0 -11 11v35q0 11 11 11h610q11 0 11 -11v-35q0 -11 -11 -11h-610z" />
<glyph unicode="&#x2013;" horiz-adv-x="934" d="M21 462q-11 0 -11 11v31q0 11 11 11h893q10 0 10 -11v-31q0 -11 -10 -11h-893z" />
<glyph unicode="&#x2014;" horiz-adv-x="1548" d="M21 462q-11 0 -11 11v31q0 11 11 11h1507q11 0 11 -11v-31q0 -11 -11 -11h-1507z" />
<glyph unicode="&#x2018;" horiz-adv-x="351" d="M174 1031q-22 0 -38 15.5t-16 48.5q0 55 27.5 128t81.5 121q8 6 16 -2l4 -5q6 -8 -1 -15q-68 -68 -68 -157q0 -23 22 -36q25 -15 25 -45q0 -22 -15.5 -37.5t-37.5 -15.5z" />
<glyph unicode="&#x2019;" horiz-adv-x="351" d="M178 1324q22 0 37.5 -16t15.5 -49q0 -56 -27 -128.5t-81 -120.5q-8 -6 -16 2l-5 5q-6 8 1 15q69 69 69 157q0 23 -22 36q-26 16 -26 45q0 22 16 38t38 16z" />
<glyph unicode="&#x201a;" horiz-adv-x="351" d="M178 94q22 0 37.5 -15.5t15.5 -48.5q0 -56 -27 -128.5t-81 -120.5q-8 -6 -16 2l-5 5q-6 8 1 15q69 69 69 157q0 23 -22 36q-26 16 -26 44q0 22 16 38t38 16z" />
<glyph unicode="&#x201c;" horiz-adv-x="546" d="M174 1031q-22 0 -38 15.5t-16 48.5q0 55 27.5 128t81.5 121q8 6 16 -2l4 -5q6 -8 -1 -15q-68 -68 -68 -157q0 -23 22 -36q25 -15 25 -45q0 -22 -15.5 -37.5t-37.5 -15.5zM368 1031q-22 0 -37.5 15.5t-15.5 48.5q0 56 27 128.5t81 120.5q8 6 16 -2l5 -5q6 -8 -1 -15 q-69 -69 -69 -157q0 -23 22 -36q26 -16 26 -45q0 -22 -16 -37.5t-38 -15.5z" />
<glyph unicode="&#x201d;" horiz-adv-x="546" d="M178 1324q22 0 37.5 -16t15.5 -49q0 -56 -27 -128.5t-81 -120.5q-8 -6 -16 2l-5 5q-6 8 1 15q69 69 69 157q0 23 -22 36q-26 16 -26 45q0 22 16 38t38 16zM373 1324q22 0 37.5 -16t15.5 -49q0 -55 -27.5 -128t-81.5 -121q-8 -5 -15 2l-5 5q-6 8 1 15q69 69 69 157 q0 23 -22 36q-26 16 -26 45q0 22 16 38t38 16z" />
<glyph unicode="&#x201e;" horiz-adv-x="546" d="M178 94q22 0 37.5 -15.5t15.5 -48.5q0 -56 -27 -128.5t-81 -120.5q-8 -6 -16 2l-5 5q-6 8 1 15q69 69 69 157q0 23 -22 36q-26 16 -26 44q0 22 16 38t38 16zM373 94q22 0 37.5 -15.5t15.5 -48.5q0 -55 -27.5 -128t-81.5 -121q-8 -5 -15 2l-5 5q-6 8 1 15q69 69 69 157 q0 23 -22 36q-26 16 -26 44q0 22 16 38t38 16z" />
<glyph unicode="&#x2022;" horiz-adv-x="466" d="M254 322q-56 0 -96 40t-40 96q0 55 40 94.5t96 39.5q55 0 95 -39.5t40 -94.5t-40 -95.5t-95 -40.5z" />
<glyph unicode="&#x2026;" horiz-adv-x="914" d="M174 -13q-22 0 -38 16t-16 38t16 37.5t38 15.5t37.5 -15.5t15.5 -37.5t-15.5 -38t-37.5 -16zM458 -13q-22 0 -38 16t-16 38t16 37.5t38 15.5t37.5 -15.5t15.5 -37.5t-15.5 -38t-37.5 -16zM741 -13q-22 0 -37.5 16t-15.5 38t15.5 37.5t37.5 15.5t38 -15.5t16 -37.5 t-16 -38t-38 -16z" />
<glyph unicode="&#x202f;" horiz-adv-x="330" />
<glyph unicode="&#x2039;" horiz-adv-x="595" d="M478 676q0 -4 -4 -7l-307 -236l307 -237q4 -3 4 -7v-26q0 -8 -6.5 -10.5t-13.5 2.5l-336 255q-4 3 -4 6v33q0 4 4 7l336 255q7 5 13.5 2t6.5 -11v-26z" />
<glyph unicode="&#x203a;" horiz-adv-x="595" d="M474 456q4 -3 4 -7v-33q0 -3 -4 -6l-336 -255q-7 -5 -13.5 -2.5t-6.5 10.5v26q0 4 4 7l307 237l-307 236q-4 3 -4 7v26q0 8 6.5 11t13.5 -2z" />
<glyph unicode="&#x205f;" horiz-adv-x="413" />
<glyph unicode="&#x20ac;" horiz-adv-x="1485" d="M1382 327q10 -5 5 -15q-163 -325 -507 -325q-213 0 -379 127.5t-217 343.5h-190v45h181q-10 56 -10 122q0 57 10 122h-181v47h191q51 215 216.5 341.5t378.5 126.5q344 0 507 -325q5 -10 -5 -15l-34 -16q-10 -5 -15 5q-147 294 -453 294q-188 0 -332.5 -111t-193.5 -300 h699l-37 -47h-671q-11 -61 -11 -122q0 -68 10 -122h656l-36 -45h-610q48 -189 193 -301.5t333 -112.5q306 0 453 294q5 11 15 6z" />
<glyph unicode="&#x2122;" horiz-adv-x="1731" d="M1601 1263q6 0 6 -7v-775q0 -6 -6 -6h-28q-7 0 -7 6v686l-335 -533q-4 -7 -10 0l-335 533v-686q0 -6 -7 -6h-28q-6 0 -6 6v775q0 7 6 7h8q6 0 10 -6l357 -560l357 560q4 6 9 6h9zM716 1250q6 0 6 -6v-22q0 -7 -6 -7h-293v-734q0 -6 -6 -6h-28q-7 0 -7 6v734h-292 q-6 0 -6 7v22q0 6 6 6h327h299z" />
<glyph unicode="&#x25fc;" horiz-adv-x="839" d="M0 840h840v-840h-840v840z" />
</font>
</defs>
</svg>
