<?xml version="1.0" standalone="no"?>
<!DOCTYPE svg PUBLIC "-//W3C//DTD SVG 1.1//EN" "http://www.w3.org/Graphics/SVG/1.1/DTD/svg11.dtd" >
<svg xmlns="http://www.w3.org/2000/svg">
<metadata></metadata>
<defs>
<font id="migrena_grotesquethin_italic" horiz-adv-x="276" >
<font-face units-per-em="2048" ascent="1638" descent="-410" />
<missing-glyph horiz-adv-x="384" />
<glyph horiz-adv-x="0" />
<glyph horiz-adv-x="682" />
<glyph unicode=" "  horiz-adv-x="384" />
<glyph unicode="&#x09;" horiz-adv-x="384" />
<glyph unicode="&#xa0;" horiz-adv-x="384" />
<glyph unicode="!" horiz-adv-x="307" d="M258 1245q2 4 5 4h12q6 0 4 -4l-138 -959q-2 -4 -4 -4h-7q-6 0 -4 4zM95 -10q-11 0 -19 8t-8 19q0 13 10.5 23.5t24.5 10.5q11 0 19 -8t8 -19q0 -13 -10.5 -23.5t-24.5 -10.5z" />
<glyph unicode="&#x22;" horiz-adv-x="532" d="M250 1281q0 4 5 4h12q4 0 4 -4l-52 -355q-2 -4 -5 -4h-8q-5 0 -3 4zM506 1281q0 4 5 4h12q4 0 4 -4l-52 -355q-2 -4 -5 -4h-8q-5 0 -3 4z" />
<glyph unicode="#" horiz-adv-x="1249" d="M1171 797q6 0 4 -4l-3 -11q-2 -4 -5 -4h-235l-96 -399h227q5 0 3 -4l-2 -10q-2 -5 -5 -5h-227l-86 -356q-2 -4 -5 -4h-12q-5 0 -3 4l86 356h-431l-85 -356q-2 -4 -6 -4h-12q-5 0 -3 4l86 356h-236q-5 0 -3 5l2 10q2 4 5 4h236l96 399h-228q-5 0 -3 4l3 11q2 4 5 4h227 l85 356q2 4 6 4h12q5 0 3 -4l-86 -356h430l86 356q2 4 5 4h12q5 0 3 -4l-85 -356h235zM816 379l95 399h-430l-95 -399h430z" />
<glyph unicode="$" horiz-adv-x="1102" d="M1052 1147q5 -3 1 -9l-5 -6q-4 -6 -9 -2q-158 111 -356 111q-208 0 -326 -88.5t-118 -237.5q0 -72 41 -122t106 -77t143.5 -47t157.5 -41.5t144 -51.5t106 -87t41 -138q0 -76 -26.5 -137t-71 -101.5t-105.5 -68t-126.5 -40t-137.5 -14.5l-28 -203q-3 -5 -5 -5h-10 q-6 0 -4 5l29 203q-259 1 -415 142q-6 6 -2 10l4 6q4 6 10 0q78 -68 173 -104t233 -36q89 0 168.5 19t146.5 57.5t106.5 106t39.5 155.5q0 79 -41 134t-106 84t-143.5 49.5t-157.5 41t-144 48.5t-106 81.5t-41 130.5q0 157 121 250t333 95l25 178q1 3 4 3h10q5 0 4 -3 l-25 -178q206 -2 362 -113z" />
<glyph unicode="%" horiz-adv-x="1573" d="M1215 1278q4 -2 2 -5l-776 -1305q-3 -3 -5 -2l-11 5q-3 1 -1 5l775 1306q2 4 6 2zM718 870q-25 -179 -113.5 -284.5t-211.5 -105.5t-182 106t-34 284t113.5 284t211.5 106t182 -105.5t34 -284.5zM395 497q116 0 197 100t106 273q24 173 -29 272.5t-169 99.5t-197.5 -100 t-105.5 -272q-25 -172 28.5 -272.5t169.5 -100.5zM1241 770q123 0 182 -106t34 -284t-113.5 -284t-211.5 -106t-182 105.5t-34 284.5t113.5 284.5t211.5 105.5zM1134 7q116 0 197.5 100t105.5 273t-29 272.5t-169 99.5t-197.5 -100t-105.5 -272q-24 -173 29 -273t169 -100z " />
<glyph unicode="&#x26;" horiz-adv-x="1137" d="M1030 579q4 -2 2 -5q-82 -209 -192 -350l177 -214q2 -3 1 -6.5t-5 -3.5h-10q-3 0 -5 2l-170 206q-187 -228 -432 -228q-142 0 -227 74.5t-85 198.5q0 136 89 240t262 191q-102 128 -102 267q0 147 95.5 228t246.5 81q72 0 130.5 -24.5t124.5 -77.5q4 -4 0 -7l-9 -8 q-3 -3 -6 -1q-104 99 -243 99q-141 0 -229.5 -74.5t-88.5 -211.5q0 -144 114 -281l360 -435q107 138 189 339q1 4 6 3zM398 -2q234 0 418 225l-370 447q-173 -88 -257 -186t-84 -229q0 -118 79.5 -187.5t213.5 -69.5z" />
<glyph unicode="'" d="M250 1281q0 4 5 4h12q4 0 4 -4l-52 -355q-2 -4 -5 -4h-8q-5 0 -3 4z" />
<glyph unicode="(" horiz-adv-x="510" d="M151 322q0 -333 152 -615q2 -5 -2 -7l-8 -5q-4 -2 -6 1q-77 127 -116.5 291.5t-39.5 338.5q0 274 97 514t285 467q3 3 6 1l7 -5q4 -2 0 -6q-188 -229 -281.5 -464t-93.5 -511z" />
<glyph unicode=")" horiz-adv-x="512" d="M250 1307q75 -136 114.5 -303t39.5 -339q0 -571 -380 -969q-3 -3 -7 -1l-7 5q-2 1 -2 3.5t2 3.5q375 421 375 959q0 349 -152 631q-4 4 3 6l8 5q3 2 6 -1z" />
<glyph unicode="*" horiz-adv-x="831" d="M829 1302q1 -2 -4 -5l-281 -88l134 -228q2 -4 -2 -6l-10 -7q-4 -2 -6 1l-134 229l-198 -229q-2 -2 -5 -1l-9 7q-5 2 -1 6l198 228l-256 88q-4 2 -2 5l6 11q2 4 5 3l256 -87l40 282q0 5 5 5h12q4 0 4 -5l-40 -282l-12 -14l12 14l281 87q3 1 5 -3z" />
<glyph unicode="+" horiz-adv-x="1042" d="M934 543q3 0 3 -4l-1 -11q-2 -4 -5 -4h-385l-53 -385q-2 -4 -6 -4h-10q-5 0 -3 4l54 385h-385q-5 0 -3 4l1 11q0 4 4 4h386l54 385q0 4 4 4h11q3 0 3 -4l-54 -385h385z" />
<glyph unicode="," horiz-adv-x="318" d="M113 51q26 0 26 -33q0 -45 -27 -107.5t-82 -111.5q-4 -3 -7 0l-5 4q-3 3 1 7q38 34 62.5 80t24.5 84q0 12 -14 18t-14 23q0 15 10.5 25.5t24.5 10.5z" />
<glyph unicode="-" horiz-adv-x="838" d="M137 473q-4 0 -4 4l1 10q2 5 5 5h584q5 0 3 -5l-1 -10q0 -4 -5 -4h-583z" />
<glyph unicode="." horiz-adv-x="307" d="M95 -10q-11 0 -19 8t-8 19q0 13 10.5 23.5t24.5 10.5q11 0 19 -8t8 -19q0 -13 -10.5 -23.5t-24.5 -10.5z" />
<glyph unicode="/" horiz-adv-x="734" d="M804 1333q2 4 6 2l10 -5q4 -2 2 -5l-824 -1357q-2 -4 -6 -2l-10 5q-3 1 -1 5z" />
<glyph unicode="0" horiz-adv-x="1105" d="M672 1260q200 0 296 -172t55 -463t-185 -463t-344 -172t-296 172t-55 463t185 463t344 172zM497 8q189 0 327.5 168t178.5 449q40 280 -51.5 448t-281.5 168t-328.5 -168t-178.5 -448t52 -448.5t282 -168.5z" />
<glyph unicode="1" horiz-adv-x="718" d="M577 1249q5 0 3 -4l-174 -1241q0 -4 -5 -4h-12q-4 0 -4 4l172 1224l-292 -144q-4 -2 -6 2l-4 10q-1 2 4 5l301 146q3 2 9 2h8z" />
<glyph unicode="2" horiz-adv-x="1039" d="M957 941q-13 -97 -72.5 -198t-173 -215.5t-261 -234.5t-360.5 -275h782q4 0 4 -4l-1 -10q-2 -4 -5 -4h-811q-5 0 -3 4l1 8q0 5 2 6q427 306 639.5 524t237.5 399q20 138 -51 219t-234 81q-214 0 -404 -192q-4 -4 -8 1l-4 4q-3 3 3 9q197 197 421 197q167 0 243 -87 t55 -232z" />
<glyph unicode="3" horiz-adv-x="1043" d="M602 645q167 -18 247.5 -92t80.5 -194q0 -174 -124.5 -271.5t-329.5 -97.5q-139 0 -239.5 54.5t-162.5 141.5q-4 5 0 9l5 5q6 6 9 1q59 -85 157.5 -139t227.5 -54q201 0 318.5 91.5t117.5 257.5q0 278 -428 278q-5 0 -3 4l1 8q0 4 5 4q219 0 344.5 100.5t125.5 255.5 q0 113 -72.5 173.5t-219.5 60.5q-222 0 -402 -182q-5 -5 -9 1l-4 4q-2 4 3 9q187 187 420 187q151 0 228 -65.5t77 -186.5q0 -140 -97.5 -237.5t-275.5 -125.5z" />
<glyph unicode="4" horiz-adv-x="1098" d="M1005 353q3 0 3 -4l-1 -10q-2 -4 -5 -4h-227l-47 -331q-2 -4 -5 -4h-12q-5 0 -3 4l46 331h-694q-5 0 -3 4l1 9q0 2 1 3l823 896q2 2 9 2h8q3 0 3 -4l-125 -892h228zM88 353h668l121 860z" />
<glyph unicode="5" horiz-adv-x="1063" d="M1000 1249q4 0 4 -4l-2 -10q-2 -4 -5 -4h-615l-150 -589q167 89 332 89q167 0 274.5 -86.5t107.5 -241.5q0 -99 -39.5 -179.5t-107 -130.5t-153 -76.5t-180.5 -26.5q-252 0 -383 186q-4 6 -1 9l6 4q5 5 8 1q125 -182 367 -182q94 0 176 25t146.5 72t102 123.5t37.5 172.5 q0 148 -102 229.5t-261 81.5q-163 0 -336 -91q-2 -1 -3 0l-14 6q-2 1 -1 4l156 614q0 4 4 4h632z" />
<glyph unicode="6" horiz-adv-x="1042" d="M582 773q177 0 272.5 -109t71.5 -280q-24 -172 -155.5 -283t-309.5 -111q-177 0 -276.5 111t-75.5 283q28 200 92 359.5t163 275.5t240 178.5t314 62.5q6 0 3 -5l-1 -10q-2 -4 -5 -4q-306 0 -499 -196t-266 -543q57 119 175 195t257 76zM464 8q109 0 205 48.5t159 135 t78 192.5q23 164 -68 267.5t-259 103.5q-165 0 -296.5 -112.5t-152.5 -257.5v-1q-22 -162 73 -269t261 -107z" />
<glyph unicode="7" horiz-adv-x="1029" d="M264 0q-6 0 -2 7l741 1224h-802q-5 0 -3 4l1 10q0 4 5 4h821q4 0 4 -4l-1 -8l-3 -6l-742 -1229q-2 -2 -4 -2h-15z" />
<glyph unicode="8" horiz-adv-x="1058" d="M654 653q118 -19 199.5 -90.5t81.5 -196.5q0 -172 -129.5 -274t-335.5 -102q-171 0 -271 78.5t-100 215.5q0 69 22.5 127.5t59.5 98.5t87 70.5t100.5 47.5t104.5 25q-47 8 -90 27.5t-80 50t-59 77.5t-22 104q0 146 120.5 247t306.5 101q155 0 246.5 -78.5t91.5 -200.5 q0 -74 -30.5 -134t-81.5 -98.5t-106.5 -62t-114.5 -33.5zM243 916q0 -114 90 -183t232 -69q167 0 284 88t117 226q0 114 -86.5 188.5t-233.5 74.5q-175 0 -289 -94.5t-114 -230.5zM473 8q193 0 317.5 99t124.5 255q0 127 -95.5 204t-257.5 77q-193 0 -317.5 -99t-124.5 -255 q0 -127 95.5 -204t257.5 -77z" />
<glyph unicode="9" horiz-adv-x="1011" d="M626 1260q169 0 265 -111.5t72 -283.5q-21 -146 -61.5 -272.5t-107 -237t-154 -188.5t-207.5 -122.5t-261 -44.5q-4 0 -4 4l1 10q2 4 5 4q125 0 233 37t189.5 102t146.5 157t108 198.5t70 231.5q-56 -117 -169.5 -192.5t-245.5 -75.5q-169 0 -261 109t-68 280 q24 172 151.5 283.5t297.5 111.5zM508 495q158 0 286 112.5t149 257.5q22 162 -69 269t-250 107t-282 -107.5t-145 -268.5q-23 -164 63.5 -267t247.5 -103z" />
<glyph unicode=":" horiz-adv-x="307" d="M204 768q-11 0 -18.5 8.5t-7.5 19.5q0 13 10.5 23t24.5 10q11 0 19 -8t8 -19q0 -13 -11 -23.5t-25 -10.5zM95 -10q-11 0 -19 8t-8 19q0 13 10.5 23.5t24.5 10.5q11 0 19 -8t8 -19q0 -13 -10.5 -23.5t-24.5 -10.5z" />
<glyph unicode=";" horiz-adv-x="318" d="M215 768q-11 0 -19 8.5t-8 19.5q0 13 10.5 23t24.5 10q11 0 19 -8t8 -19q0 -13 -10.5 -23.5t-24.5 -10.5zM113 51q26 0 26 -33q0 -45 -27 -107.5t-82 -111.5q-4 -3 -7 0l-5 4q-3 3 1 7q38 34 62.5 80t24.5 84q0 12 -14 18t-14 23q0 15 10.5 25.5t24.5 10.5z" />
<glyph unicode="&#x3c;" horiz-adv-x="1042" d="M986 884q-1 -3 -5 -4l-820 -350l722 -349q4 -2 3 -4l-1 -13q-3 -5 -5 -4l-738 358q-4 2 -3 5l2 15q1 4 4 5l839 358q4 1 4 -4z" />
<glyph unicode="=" horiz-adv-x="1095" d="M177 703q-3 0 -3 5l1 10q2 4 5 4h788q6 0 4 -4l-2 -10q0 -5 -4 -5h-789zM127 345q-4 0 -4 4l1 10q2 5 6 5h788q2 0 3 -2t0 -3l-1 -10q0 -4 -5 -4h-788z" />
<glyph unicode="&#x3e;" horiz-adv-x="1042" d="M190 884l2 13q3 5 5 4l738 -358q4 -2 3 -5l-2 -15q0 -3 -5 -5l-838 -358q-1 -1 -2.5 0.5t-1.5 3.5l2 13q1 3 5 4l819 349l-721 350q-4 2 -4 4z" />
<glyph unicode="?" horiz-adv-x="844" d="M863 1005q0 112 -70 174t-204 62q-198 0 -366 -146q-7 -5 -9 1l-3 6q-2 5 3 9q91 71 181 110t203 39q138 0 211.5 -67t73.5 -188q0 -68 -20 -125t-54 -99.5t-75.5 -81t-87.5 -79.5t-87.5 -86t-77 -109t-54.5 -139q-1 -4 -5 -4h-12q-4 0 -3 3q19 76 54.5 141t77 110.5 t87.5 87.5t87.5 80.5t75.5 80.5t54 98t20 122zM385 -10q-11 0 -19 8t-8 19q0 13 10.5 23.5t24.5 10.5q11 0 19 -8t8 -19q0 -13 -10.5 -23.5t-24.5 -10.5z" />
<glyph unicode="@" horiz-adv-x="1620" d="M1017 -269q0 -3 -3 -3q-173 -41 -301 -41q-126 0 -229.5 33.5t-174.5 92t-119.5 138t-70.5 169.5t-22 189q0 169 64 315t173.5 247t258.5 158.5t316 57.5q135 0 246 -34.5t194.5 -102.5t129.5 -178t46 -252q0 -93 -20 -183.5t-56.5 -166.5t-96.5 -123t-132 -47 q-58 0 -96.5 23.5t-54.5 62.5t-21.5 90.5t2.5 108.5q-6 -38 -32.5 -85t-67.5 -92.5t-101.5 -76.5t-125.5 -31q-117 0 -189 72.5t-72 230.5q0 213 118.5 356t304.5 142q71 -1 227 -40q2 -1 2 -4l-45 -457q-13 -138 19 -210t132 -72q69 0 125 45.5t90 119.5t52 161t18 176 q0 140 -44 246.5t-124.5 172t-188 98t-239.5 32.5q-128 0 -248 -35.5t-218 -103.5t-171.5 -160t-114 -211t-40.5 -250q0 -96 21.5 -182.5t68.5 -163.5t115.5 -133.5t168.5 -89.5t222 -34q126 -1 298 39q6 2 6 -4v-10zM725 20q125 0 221.5 111.5t113.5 279.5l34 334 q-123 37 -209 37q-176 0 -289.5 -136t-113.5 -343q0 -150 67 -216.5t176 -66.5z" />
<glyph unicode="A" horiz-adv-x="1213" d="M1115 4q1 -4 -4 -4h-13q-4 0 -5 4l-140 479h-665l-279 -479q-3 -4 -6 -4h-15q-6 0 -3 4l736 1262q3 4 7 4h10q3 0 5 -4zM298 502h650l-217 743z" />
<glyph unicode="B" horiz-adv-x="1133" d="M703 645q141 -2 229.5 -76t88.5 -201q0 -163 -120 -265.5t-360 -102.5h-461h-6q-5 0 -3 4l174 1241q0 4 5 4h12h414q199 0 294.5 -69t95.5 -195q0 -158 -106.5 -248t-256.5 -92zM264 1231l-81 -578h450q205 0 309 88t104 242q0 248 -373 248h-409zM544 18q232 0 344 96.5 t112 253.5q0 123 -91 196t-278 73h-451l-86 -619h450z" />
<glyph unicode="C" horiz-adv-x="1323" d="M1206 321l1 -7q-207 -324 -545 -324q-226 0 -374.5 150t-148.5 397q0 159 59 296.5t156.5 229.5t224 144.5t261.5 52.5q335 0 454 -325l-2 -6l-10 -4q-4 -2 -6 2q-113 314 -439 314q-129 0 -251 -51t-216.5 -140.5t-152 -222.5t-57.5 -286q0 -239 143.5 -386t360.5 -147 q323 0 527 315l7 2z" />
<glyph unicode="D" horiz-adv-x="1247" d="M625 1249q158 0 280.5 -61.5t193 -184t70.5 -288.5q0 -165 -58 -301.5t-157 -226t-229.5 -138.5t-275.5 -49h-369h-6q-5 0 -3 4l174 1241q0 4 5 4h12h363zM452 18q139 0 264.5 48t222 134.5t153.5 219t57 291.5q0 241 -147.5 380.5t-379.5 139.5h-358l-170 -1213h358z " />
<glyph unicode="E" horiz-adv-x="1054" d="M1040 1249q4 0 4 -4l-2 -10q-2 -4 -4 -4h-774l-80 -565h693q3 0 3 -4l-1 -11q-2 -4 -5 -4h-692l-88 -629h794q3 0 3 -4l-1 -10q-2 -4 -5 -4h-801h-10q-5 0 -3 4l174 1241q0 4 5 4h12h778z" />
<glyph unicode="F" horiz-adv-x="1003" d="M1020 1249q3 0 3 -4l-1 -10q-2 -4 -5 -4h-753l-88 -627h712q4 0 4 -4l-2 -10q-2 -4 -4 -4h-713l-81 -582q-2 -4 -5 -4h-13q-5 0 -3 4l174 1241q0 4 5 4h12h758z" />
<glyph unicode="G" horiz-adv-x="1346" d="M1233 543q3 0 3 -4l-56 -400q-136 -83 -254 -116t-264 -33q-226 0 -374.5 150t-148.5 397q0 159 59 296.5t156.5 229.5t224 144.5t261.5 52.5q167 0 272 -70t179 -219l-3 -6l-10 -4q-3 -2 -5 2q-70 144 -172.5 211t-263.5 67q-129 0 -251 -51t-216.5 -140.5t-152 -222.5 t-57.5 -286q0 -239 143.5 -386t360.5 -147q135 0 249 31t247 107l55 393q0 4 6 4h12z" />
<glyph unicode="H" horiz-adv-x="1239" d="M1225 1249q3 0 3 -4l-174 -1241q-2 -4 -5 -4h-12q-5 0 -3 4l90 643h-942l-90 -643q-2 -4 -5 -4h-13q-5 0 -3 4l174 1241q0 4 5 4h12q4 0 4 -4l-82 -579h942l82 579q0 4 4 4h13z" />
<glyph unicode="I" d="M245 1245q0 4 5 4h12q4 0 4 -4l-174 -1241q-2 -4 -5 -4h-13q-5 0 -3 4z" />
<glyph unicode="J" horiz-adv-x="877" d="M863 1249q5 0 3 -4l-123 -876q-27 -189 -130 -284t-274 -95q-119 0 -192.5 58t-115.5 170q-2 4 2 7l11 4q4 1 6 -3q76 -218 290 -218q332 0 382 361l124 876q0 4 4 4h13z" />
<glyph unicode="K" horiz-adv-x="1099" d="M263 1249q5 0 3 -4l-174 -1241q0 -4 -4 -4h-13q-4 0 -4 4l175 1241q2 4 5 4h12zM948 6q6 -6 -2 -6h-15q-5 0 -9 4l-546 632l720 609q5 4 11 4h14q3 -2 -1 -6l-717 -609z" />
<glyph unicode="L" horiz-adv-x="957" d="M843 18q5 0 3 -4l-1 -10q0 -4 -5 -4h-765q-4 0 -4 4l175 1241q2 4 5 4h12q5 0 3 -4l-172 -1227h749z" />
<glyph unicode="M" horiz-adv-x="1443" d="M1421 1264q5 6 10 6h2q3 0 3 -4l-177 -1262q-2 -4 -5 -4h-12q-5 0 -3 4l170 1210l-701 -933q-6 -7 -9 0l-437 933l-170 -1210q-2 -4 -5 -4h-13q-5 0 -3 4l177 1262q0 4 5 4h2q4 0 7 -6l446 -953z" />
<glyph unicode="N" horiz-adv-x="1259" d="M1245 1249q4 0 4 -4l-177 -1261q-2 -4 -5 -4h-2q-5 0 -7 3l-795 1242l-171 -1221q-2 -4 -5 -4h-13q-5 0 -3 4l177 1262q0 4 5 4h2q4 0 7 -4l795 -1241l171 1220q0 4 5 4h12z" />
<glyph unicode="O" horiz-adv-x="1440" d="M840 1260q226 0 374 -150t148 -397q0 -159 -58.5 -296.5t-156 -229.5t-224 -144.5t-261.5 -52.5q-226 0 -374.5 150t-148.5 397q0 159 59 296.5t156.5 229.5t224 144.5t261.5 52.5zM664 8q129 0 251 51.5t216.5 141t152 222.5t57.5 286q0 239 -143.5 385.5t-360.5 146.5 q-129 0 -251 -51t-216.5 -140.5t-152 -222.5t-57.5 -286q0 -239 143.5 -386t360.5 -147z" />
<glyph unicode="P" horiz-adv-x="1066" d="M655 1249q105 0 185 -26.5t126.5 -72t69 -102t22.5 -121.5q0 -79 -29.5 -151t-88.5 -132.5t-159 -96t-229 -35.5h-389l-71 -508q-2 -4 -5 -4h-13q-5 0 -3 4l174 1241q0 4 5 4h12h393zM554 530q101 0 183.5 23t137.5 61t92.5 89.5t54 107t16.5 114.5q0 62 -21 115t-65 97 t-120.5 69t-178.5 25h-389l-99 -701h389z" />
<glyph unicode="Q" horiz-adv-x="1440" d="M1362 713q0 -135 -42.5 -254.5t-115.5 -208.5t-169.5 -150.5t-207.5 -89.5q10 -114 87 -175.5t171 -61.5q6 0 4 -4l-2 -11q-2 -4 -4 -4q-65 0 -123.5 27t-101.5 86t-49 139q-78 -16 -147 -16q-226 0 -374.5 150t-148.5 397q0 159 59 296.5t156.5 229.5t224 144.5 t261.5 52.5q226 0 374 -150t148 -397zM664 8q129 0 251 51.5t216.5 141t152 222.5t57.5 286q0 239 -143.5 385.5t-360.5 146.5q-129 0 -251 -51t-216.5 -140.5t-152 -222.5t-57.5 -286q0 -239 143.5 -386t360.5 -147z" />
<glyph unicode="R" horiz-adv-x="1140" d="M1039 936q0 -70 -23.5 -134t-70 -119t-125 -93t-181.5 -51l276 -531q3 -8 -5 -8h-10q-5 0 -8 6l-276 530q-52 -4 -82 -4h-368l-74 -528q-2 -4 -5 -4h-13q-5 0 -3 4l174 1241q0 4 5 4h12h373q106 0 186 -25t126.5 -69t69 -99t22.5 -120zM537 551q126 0 221.5 32 t150.5 87.5t82 121.5t27 142q0 130 -94 213.5t-292 83.5h-368l-96 -680h369z" />
<glyph unicode="S" horiz-adv-x="1102" d="M239 915q0 -72 41 -122t106 -77t143.5 -47t157.5 -41.5t144 -51.5t106 -87t41 -138q0 -77 -27.5 -139.5t-74 -103t-109.5 -68t-130.5 -39t-141.5 -11.5q-261 0 -417 142q-6 6 -2 10l4 6q4 6 10 0q78 -68 173 -104t233 -36q89 0 168.5 19t146.5 57.5t106.5 106t39.5 155.5 q0 79 -41 134t-106 84t-143.5 49.5t-157.5 41t-144 48.5t-106 81.5t-41 130.5q0 159 123 252t339 93q211 0 372 -113q5 -3 1 -9l-5 -6q-4 -6 -9 -2q-158 111 -356 111q-208 0 -326 -88.5t-118 -237.5z" />
<glyph unicode="T" horiz-adv-x="1198" d="M1214 1249q4 0 4 -4l-1 -10q-2 -4 -5 -4h-488l-172 -1227q-2 -4 -5 -4h-12q-5 0 -3 4l172 1227h-487q-5 0 -3 4l1 10q0 4 4 4h504h491z" />
<glyph unicode="U" horiz-adv-x="1218" d="M1204 1249q4 0 4 -4l-103 -733q-36 -254 -181.5 -393t-375.5 -139t-336 139t-70 393l103 733q0 4 5 4h12q4 0 4 -4l-103 -733q-35 -247 65.5 -380.5t322.5 -133.5t360 133.5t173 380.5l103 733q0 4 5 4h12z" />
<glyph unicode="V" horiz-adv-x="1170" d="M1243 1249q6 0 4 -4l-704 -1261q-3 -4 -7 -4h-10q-4 0 -5 4l-362 1261q-2 4 5 4h12q4 0 6 -4l352 -1241l690 1241q2 4 7 4h12z" />
<glyph unicode="W" horiz-adv-x="1619" d="M1692 1249q6 0 4 -4l-561 -1261q-2 -4 -6 -4h-9q-4 0 -5 4l-201 1165l-526 -1165q-2 -4 -6 -4h-9q-4 0 -5 4l-209 1261q-1 2 0.5 3t4.5 1h10q4 0 5 -4l202 -1235l527 1174q2 4 6 4h10q3 0 4 -4l200 -1174l548 1236q1 3 5 3h11z" />
<glyph unicode="X" horiz-adv-x="1316" d="M1247 1249q7 0 1 -6l-576 -615l410 -622q4 -6 -3 -6h-10q-7 0 -10 4l-401 609l-574 -611q-2 -2 -6 -2h-8q-8 0 -1 8l580 619l-405 614q-5 8 5 8h6q9 0 12 -6l396 -601l563 603q4 4 10 4h11z" />
<glyph unicode="Y" horiz-adv-x="1129" d="M1202 1249q7 0 4 -4l-619 -788l-64 -453q0 -4 -4 -4h-12q-4 0 -4 4l63 454l-407 787q-2 4 5 4h12q4 0 6 -4l398 -768l603 768q4 4 7 4h12z" />
<glyph unicode="Z" horiz-adv-x="1172" d="M54 0q-5 0 -3 4l1 8q0 4 2 6l1095 1213h-891q-6 0 -4 4l1 10q0 4 5 4h914q3 0 3 -4l-1 -8l-3 -6l-1094 -1213h932q3 0 3 -4l-1 -10q-2 -4 -5 -4h-954z" />
<glyph unicode="[" horiz-adv-x="423" d="M436 1292h-163l-222 -1581h163q5 0 3 -4l-1 -10q0 -4 -5 -4h-179q-4 0 -4 4l226 1610q2 4 5 4h179q5 0 3 -4l-1 -11q0 -4 -4 -4z" />
<glyph unicode="\" horiz-adv-x="1114" d="M188 1333l823 -1357q2 -4 -1 -5l-10 -5q-4 -2 -6 2l-824 1357q-2 3 2 5l10 5q4 2 6 -2z" />
<glyph unicode="]" horiz-adv-x="423" d="M418 1311q5 0 3 -4l-226 -1610q-2 -4 -5 -4h-179q-4 0 -4 4l2 10q2 4 5 4h163l222 1581h-163q-4 0 -4 4l1 11q2 4 6 4h179z" />
<glyph unicode="^" horiz-adv-x="804" d="M839 951q2 -3 0 -6t-6 -3h-13q-1 0 -3 2l-273 473l-407 -473q-2 -2 -3 -2h-13q-4 0 -4.5 3t1.5 6l415 480q1 3 4 3h19q2 0 3 -3z" />
<glyph unicode="_" horiz-adv-x="695" d="M4 -18q-5 0 -3 4l1 10q0 4 4 4h686q4 0 4 -4l-1 -10q-2 -4 -5 -4h-686z" />
<glyph unicode="`" horiz-adv-x="290" d="M272 952l-241 238q-4 4 0 6l7 6q4 4 7 0l240 -237q3 -3 0 -7l-7 -6q-4 -2 -6 0z" />
<glyph unicode="a" horiz-adv-x="1043" d="M899 307q-12 -63 -8.5 -124.5t9 -93t20.5 -82.5q1 -5 -4 -7l-5 -3q-5 -3 -7 2q-48 133 -32 266q-58 -123 -174 -199t-253 -76q-153 0 -254 100.5t-101 263.5q0 137 68 247.5t175.5 169t229.5 58.5q137 0 231.5 -82.5t115.5 -214.5l40 283q2 4 5 4h12q4 0 4 -4zM447 8 q119 0 222.5 60.5t165.5 164.5t62 224q0 154 -93.5 254t-242.5 100q-87 0 -168.5 -33t-144 -91.5t-100.5 -145t-38 -185.5q0 -156 95.5 -252t241.5 -96z" />
<glyph unicode="b" horiz-adv-x="1051" d="M596 829q153 0 254.5 -100.5t101.5 -263.5q0 -137 -68 -247.5t-175.5 -169t-229.5 -58.5q-137 0 -231.5 82.5t-116.5 213.5l-39 -282q-2 -4 -5 -4h-13q-5 0 -3 4l183 1303q2 4 5 4h12q5 0 3 -4l-106 -756q57 124 173.5 201t254.5 77zM481 8q86 0 167.5 33t144 91.5 t100.5 145t38 185.5q0 156 -95.5 252t-241.5 96q-119 0 -222.5 -60.5t-165.5 -164.5t-62 -224q0 -154 94 -254t243 -100z" />
<glyph unicode="c" horiz-adv-x="954" d="M829 225q3 -1 1 -6q-131 -229 -373 -229q-156 0 -257 100t-101 263q0 104 39.5 194t105 151t152 96t179.5 35q122 0 200 -59t109 -170q1 -5 -3 -6l-10 -4q-5 -2 -6 2q-29 107 -103 163t-188 56q-119 0 -222.5 -56t-167.5 -162t-64 -238q0 -156 96 -251.5t245 -95.5 q225 0 353 219q2 3 6 2z" />
<glyph unicode="d" horiz-adv-x="1052" d="M1047 1311q3 0 3 -4l-183 -1303q0 -4 -5 -4h-12q-4 0 -4 4l37 263q-58 -124 -174 -200.5t-254 -76.5q-153 0 -254 100.5t-101 263.5q0 137 68 247.5t175.5 169t229.5 58.5q138 0 232.5 -82.5t115.5 -214.5l109 775q2 4 4 4h13zM458 8q119 0 222.5 60.5t165 164 t61.5 224.5q0 154 -93.5 254t-242.5 100q-87 0 -168.5 -33t-144 -91.5t-100.5 -145t-38 -185.5q0 -156 96 -252t242 -96z" />
<glyph unicode="e" horiz-adv-x="964" d="M870 467l-2 -16v-2h-739q-9 -45 -9 -93q0 -156 96 -252t242 -96q227 0 353 219q2 4 7 2l8 -4q3 -1 1 -6q-131 -229 -372 -229q-153 0 -254 100.5t-101 263.5q0 137 65 247t170.5 169t227.5 59q156 0 240 -100t67 -262zM133 467h716q17 155 -61.5 249.5t-226.5 94.5 q-152 0 -272 -94.5t-156 -249.5z" />
<glyph unicode="f" horiz-adv-x="697" d="M785 1248q5 -6 1 -10l-7 -6q-5 -3 -10 2q-66 69 -171 69q-114 0 -175.5 -71t-77.5 -188l-32 -225h383q4 0 4 -4l-1 -10q-2 -4 -5 -4h-383l-112 -797q-2 -4 -5 -4h-12q-5 0 -3 4l111 797h-180q-5 0 -3 4l1 10q0 4 5 4h180l32 225q18 124 86 200.5t188 76.5q107 0 186 -73z " />
<glyph unicode="g" horiz-adv-x="916" d="M913 850q6 0 4 -5l-2 -9q-2 -5 -4 -5q-56 0 -102 -29t-65 -80q46 -61 46 -149q0 -126 -105.5 -221.5t-252.5 -95.5h-95q-124 0 -184.5 -41.5t-60.5 -105.5q0 -109 210 -109h122q162 0 249.5 -59t87.5 -160q0 -124 -108.5 -198.5t-297.5 -74.5q-161 0 -248.5 59t-87.5 161 q0 91 75 157.5t190 96.5q-117 2 -164.5 34.5t-47.5 88.5q0 70 62.5 117.5t184.5 51.5q-78 27 -123.5 93t-45.5 146q0 127 106 221.5t254 94.5q142 0 222 -91q24 50 73.5 81t107.5 31zM432 274q139 0 238.5 89t99.5 208q0 103 -72 171.5t-190 68.5q-138 0 -238 -90.5 t-100 -206.5q0 -101 71 -170.5t191 -69.5zM740 -221q0 94 -82.5 148.5t-235.5 54.5q-94 0 -180.5 -30t-144.5 -89t-58 -134q0 -94 82.5 -148t236.5 -54q181 0 281.5 68t100.5 184z" />
<glyph unicode="h" horiz-adv-x="978" d="M604 840q155 0 218 -93t40 -255l-68 -488q-2 -4 -5 -4h-12q-4 0 -4 4l68 488q22 155 -35 242t-205 87q-143 0 -270 -93.5t-168 -220.5l-71 -503q0 -4 -4 -4h-13q-4 0 -4 4l183 1303q2 4 6 4h12q5 0 3 -4l-102 -727q22 42 61 85t93.5 83.5t127.5 66t149 25.5z" />
<glyph unicode="i" horiz-adv-x="317" d="M247 1038q-11 0 -18.5 8.5t-7.5 19.5q0 13 11 23.5t24 10.5q11 0 19 -8.5t8 -19.5q0 -13 -11 -23.5t-25 -10.5zM206 815q0 4 4 4h13q3 0 3 -4l-113 -811q-2 -4 -5 -4h-13q-5 0 -3 4z" />
<glyph unicode="j" horiz-adv-x="318" d="M248 1038q-11 0 -19 8.5t-8 19.5q0 13 11 23.5t25 10.5q11 0 18.5 -8.5t7.5 -19.5q0 -13 -11 -23.5t-24 -10.5zM-153 -492q-4 0 -4 5l2 10q2 4 5 4q97 0 145.5 66t67.5 202l144 1020q2 4 5 4h12q5 0 3 -4l-143 -1020q-20 -140 -73.5 -213.5t-163.5 -73.5z" />
<glyph unicode="k" horiz-adv-x="816" d="M254 1307q0 4 5 4h12q3 0 3 -4l-182 -1303q-2 -4 -5 -4h-13q-5 0 -3 4zM682 0q-5 0 -8 4l-392 447l484 366q3 2 6 2h21q2 0 2.5 -1.5t-1.5 -2.5l-484 -366l386 -443q6 -6 -3 -6h-11z" />
<glyph unicode="l" d="M254 1307q0 4 5 4h12q4 0 4 -4l-183 -1303q0 -4 -5 -4h-12q-4 0 -4 4z" />
<glyph unicode="m" horiz-adv-x="1567" d="M1203 840q154 0 212 -93t35 -258l-68 -485q0 -4 -4 -4h-12q-4 0 -4 4l68 485q47 332 -230 332q-143 0 -261.5 -112.5t-138.5 -255.5l-63 -449q0 -4 -4 -4h-13q-3 0 -3 4l68 485q47 332 -230 332q-143 0 -261.5 -112.5t-138.5 -255.5l-63 -449q0 -4 -4 -4h-13q-4 0 -4 4 l114 811q2 4 5 4h13q5 0 3 -4l-36 -250q20 43 53 87t81 88t115 72t139 28q267 0 254 -287q20 49 55.5 97t84 92t114.5 71t137 27z" />
<glyph unicode="n" horiz-adv-x="983" d="M609 840q155 0 218 -93t40 -255l-68 -488q-2 -4 -5 -4h-12q-4 0 -4 4l68 488q22 155 -35 242t-205 87q-159 0 -295 -113t-156 -255l-63 -449q0 -4 -4 -4h-13q-4 0 -4 4l114 811q2 4 5 4h13q5 0 3 -4l-36 -250q19 41 58 86.5t94 89t131 71.5t156 28z" />
<glyph unicode="o" horiz-adv-x="1028" d="M573 829q153 0 254.5 -100.5t101.5 -263.5q0 -137 -68 -247.5t-176 -169t-230 -58.5q-153 0 -254 100.5t-101 263.5q0 137 68 247.5t175.5 169t229.5 58.5zM458 8q85 0 166 33t144 91.5t101.5 145t38.5 185.5q0 156 -95.5 252t-241.5 96q-85 0 -166 -33t-144.5 -91.5 t-102 -145t-38.5 -185.5q0 -156 96 -252t242 -96z" />
<glyph unicode="p" horiz-adv-x="1052" d="M597 829q153 0 254 -100.5t101 -263.5q0 -137 -68 -247.5t-175.5 -169t-229.5 -58.5q-137 0 -231.5 82.5t-115.5 214.5l-109 -774q-3 -5 -5 -5h-12q-4 0 -4 5l183 1302q0 4 5 4h12q4 0 4 -4l-38 -265q57 124 174 201.5t255 77.5zM481 8q87 0 168.5 33t144 91.5t100.5 145 t38 185.5q0 156 -96 252t-242 96q-119 0 -222.5 -60.5t-165 -164t-61.5 -224.5q0 -154 93.5 -254t242.5 -100z" />
<glyph unicode="q" horiz-adv-x="1052" d="M977 819q4 0 4 -4l-183 -1302q0 -5 -5 -5h-12q-2 0 -3.5 2t-0.5 3l106 755q-57 -124 -173.5 -201t-254.5 -77q-153 0 -254 100.5t-101 263.5q0 137 68 247.5t175.5 169t229.5 58.5q137 0 232 -83t116 -215l40 284q0 4 4 4h12zM458 8q119 0 222.5 60.5t165 164t61.5 224.5 q0 154 -93.5 254t-242.5 100q-87 0 -168.5 -33t-144 -91.5t-100.5 -145t-38 -185.5q0 -156 96 -252t242 -96z" />
<glyph unicode="r" horiz-adv-x="527" d="M523 840q5 0 3 -4l-1 -11q0 -4 -5 -4q-68 0 -148.5 -52t-141.5 -134.5t-72 -161.5l-66 -469q-2 -4 -4 -4h-13q-4 0 -4 4l114 811q2 4 5 4h13q5 0 3 -4l-36 -256q31 93 144 187t209 94z" />
<glyph unicode="s" horiz-adv-x="804" d="M176 602q0 -47 27.5 -79.5t71.5 -50t97 -31t106 -28t97 -35t71.5 -58.5t27.5 -92q0 -68 -29.5 -117t-78.5 -74t-101 -36t-110 -11q-153 0 -296 92q-3 2 -1 6l5 8q3 5 8 2q131 -90 286 -90q40 0 77.5 5t78.5 19.5t71 38t49.5 63t19.5 91.5q0 51 -27.5 87t-71.5 55t-97 33 l-106 28t-97 32.5t-71.5 53.5t-27.5 85q0 106 86 168t220 62q141 0 267 -92q3 -3 1 -7l-5 -7q-3 -4 -6 -2q-127 90 -259 90q-126 0 -204.5 -57.5t-78.5 -151.5z" />
<glyph unicode="t" horiz-adv-x="731" d="M696 819q4 0 4 -4l-1 -10q-2 -4 -5 -4h-383l-75 -535q-9 -46 -4.5 -92t18.5 -83t50.5 -60t91.5 -23q106 0 198 75q5 4 8 0l4 -5q3 -4 -4 -10q-102 -78 -209 -78q-211 0 -174 276h1l75 535h-181q-5 0 -3 4l1 10q0 4 5 4h180l31 217q0 4 4 5l13 3q4 1 4 -3l-32 -222h383z " />
<glyph unicode="u" horiz-adv-x="983" d="M909 819q3 0 3 -4l-114 -811q-2 -4 -4 -4h-13q-3 0 -3 4l35 250q-15 -32 -42 -67.5t-68.5 -73t-89.5 -66.5t-111 -48t-127 -19q-155 0 -218 93t-40 255l68 487q0 4 5 4h12q4 0 4 -4l-69 -487q-22 -155 35 -242.5t205 -87.5q159 0 295.5 113.5t156.5 255.5l63 448q2 4 5 4 h12z" />
<glyph unicode="v" horiz-adv-x="768" d="M813 819q7 0 1 -8l-480 -827q-3 -4 -7 -4h-6q-4 0 -6 4l-247 827q-4 8 3 8h10q7 0 8 -6l239 -803l464 803q4 6 9 6h12z" />
<glyph unicode="w" horiz-adv-x="1288" d="M1333 819q7 0 1 -8l-418 -827q-3 -4 -6 -4h-7q-4 0 -6 4l-215 696l-410 -696q-3 -4 -7 -4h-5q-4 0 -6 4l-186 827q-4 8 3 8h10q7 0 8 -6l178 -803l407 692q6 9 10 9h4q5 0 8 -9l214 -692l402 803q4 6 9 6h12z" />
<glyph unicode="x" horiz-adv-x="842" d="M820 819q6 0 -1 -6l-390 -397l293 -410q5 -6 -1 -6h-14q-4 0 -6 2l-286 400l-385 -398q-4 -4 -11 -4h-10q-9 0 -1 8l397 408l-284 397q-5 6 1 6h12q6 0 9 -4l275 -384l377 384q3 4 8 4h17z" />
<glyph unicode="y" horiz-adv-x="771" d="M816 819q6 0 0 -8l-469 -817q-62 -107 -104.5 -176.5t-89.5 -134t-86.5 -99.5t-83 -55.5t-89.5 -20.5q-5 0 -5 5l2 10q2 4 5 4q96 0 187 103.5t237 357.5l-252 823q-4 8 4 8h10q4 0 7 -6l244 -801l461 801q5 6 11 6h11z" />
<glyph unicode="z" horiz-adv-x="906" d="M29 0q-4 0 -4 4l1 6l3 6l775 785h-631q-5 0 -5 4l2 10q2 4 5 4h658q5 0 3 -4l-1 -6q0 -3 -3 -6l-775 -785h673q5 0 3 -4l-1 -10q0 -4 -4 -4h-699z" />
<glyph unicode="{" horiz-adv-x="502" d="M515 1291q-92 -4 -149.5 -54t-73.5 -165q-6 -44 -9 -178t-8 -169q-13 -91 -48 -144t-94 -79q84 -42 84 -172q0 -52 -45 -222t-45 -222q0 -90 43.5 -130t122.5 -43q6 0 4 -4l-1 -6q0 -5 -5 -5q-86 0 -135 46t-49 142q0 55 45 222.5t45 216.5q0 137 -100 166q-3 1 -3 4 l2 13q2 4 4 5q57 13 99.5 63.5t55.5 148.5q5 34 7.5 167.5t8.5 179.5q17 120 82 176.5t164 56.5q6 0 4 -4l-1 -6q0 -4 -5 -4z" />
<glyph unicode="|" d="M282 1501q0 4 4 4h12q4 0 4 -4l-239 -1702q-2 -4 -5 -4h-12q-6 0 -4 4z" />
<glyph unicode="}" horiz-adv-x="503" d="M432 513q3 -1 3 -5l-2 -13q-1 -3 -4 -4q-56 -13 -98.5 -63.5t-56.5 -148.5q-5 -34 -7.5 -168t-8.5 -180q-17 -120 -82 -176.5t-164 -56.5q-6 0 -3 5v6q0 4 5 4q92 4 149.5 53.5t73.5 164.5q6 44 9 178.5t8 169.5q13 91 48 144t94 79q-84 42 -84 172q0 52 44.5 221 t44.5 222q0 90 -43 130.5t-122 43.5q-6 0 -4 4l1 6q0 4 5 4q86 0 135 -46t49 -142q0 -55 -44.5 -222t-44.5 -216q0 -141 99 -166z" />
<glyph unicode="~" horiz-adv-x="1104" d="M1006 595q2 -1 1 -4q-29 -62 -98 -111.5t-149 -49.5q-48 0 -90.5 17t-74.5 41.5t-63.5 49t-72 41.5t-85.5 17q-70 0 -135.5 -45t-93.5 -103q-4 -6 -8 -3l-7 4q-2 1 -1 4q29 62 98.5 111.5t148.5 49.5q48 0 90.5 -17t74.5 -41.5t63.5 -48.5t72 -41t85.5 -17 q70 0 135.5 44.5t93.5 102.5q4 5 7 3z" />
<glyph unicode="&#xa1;" horiz-adv-x="307" d="M213 829q11 0 19 -8t8 -19q0 -13 -11 -23.5t-25 -10.5q-11 0 -18.5 8.5t-7.5 19.5q0 13 10.5 23t24.5 10zM50 -426q-2 -4 -5 -4h-13q-5 0 -3 4l137 960q2 4 5 4h7q6 0 4 -4z" />
<glyph unicode="&#xa2;" horiz-adv-x="954" d="M884 600q1 -5 -3 -6l-10 -4q-5 -2 -6 2q-29 107 -103 163t-188 56q-119 0 -222.5 -56t-167.5 -162t-64 -238q0 -156 96 -251.5t245 -95.5q225 0 353 219q2 3 6 2l9 -4q3 -1 1 -6q-130 -228 -370 -229l-28 -203q-2 -5 -6 -5h-9q-2 0 -3.5 2t-0.5 3l29 203 q-151 5 -247 104.5t-96 258.5q0 135 65 244t169.5 168.5t226.5 63.5l25 179q1 3 4 3h11q4 0 3 -3l-25 -179q120 -1 197.5 -60t108.5 -169z" />
<glyph unicode="&#xa3;" horiz-adv-x="1136" d="M1099 1063q4 -6 1 -9l-5 -4q-6 -6 -9 -1q-132 192 -350 192q-164 0 -265 -82t-120 -218q-6 -76 -4 -109t11 -101.5t11 -105.5h461q4 0 4 -4l-2 -11q-2 -4 -5 -4h-457q4 -116 -36.5 -253.5t-157.5 -334.5q80 28 165 29t158 -13t147 -27t158.5 -8.5t165.5 37.5q3 2 5 0.5 t1 -4.5l-1 -9q-2 -3 -3 -4q-85 -33 -170.5 -38t-158.5 8t-145.5 27t-158 13t-169.5 -28q-2 -1 -5 1l-9 8q-2 3 0 5q118 199 158 336.5t35 254.5h-210q-5 0 -3 4l1 11q0 4 5 4h206q-2 35 -11 104.5t-10.5 101.5t4.5 110q20 143 127 231t275 88q224 0 366 -197z" />
<glyph unicode="&#xa4;" horiz-adv-x="1397" d="M1374 1053q2 -3 -1 -6l-233 -202q111 -146 84 -343q-27 -195 -181 -343l177 -203q2 -2 -1 -6l-9 -8q-3 -3 -6 0l-176 202q-81 -73 -182 -113.5t-207 -40.5q-105 0 -194 40.5t-150 113.5l-233 -202q-3 -3 -6 0l-6 8q-3 3 0 6l233 203q-110 145 -83 343q27 194 179 342 l-175 203q-3 3 0 6l10 8q3 3 6 0l176 -202q81 73 181.5 114t206.5 41q105 0 194 -40.5t150 -113.5l233 201q3 3 7 0zM1203 502q18 131 -32.5 244.5t-154.5 180t-235 66.5q-200 0 -366.5 -145.5t-194.5 -345.5q-18 -131 33 -244.5t155 -180.5t235 -67q200 0 366 146t194 346z " />
<glyph unicode="&#xa5;" horiz-adv-x="1129" d="M1202 1249q7 0 4 -4l-600 -764h235q6 0 4 -4l-2 -10q-2 -4 -4 -4h-248l-4 -6l-26 -181h252q5 0 3 -4l-1 -10q-2 -4 -5 -4h-251l-36 -254q0 -4 -4 -4h-12q-4 0 -4 4l35 254h-250q-6 0 -4 4l2 10q2 4 4 4h251l25 182l-2 5h-248q-5 0 -3 4l1 10q2 4 5 4h235l-395 764 q-2 4 5 4h12q4 0 6 -4l396 -764h5l600 764q4 4 7 4h12z" />
<glyph unicode="&#xa6;" d="M282 1501q0 4 4 4h12q4 0 4 -4l-81 -575q-2 -4 -5 -4h-12q-5 0 -3 4zM123 375q0 4 4 4h13q4 0 4 -4l-81 -576q-2 -4 -5 -4h-12q-6 0 -4 4z" />
<glyph unicode="&#xa7;" horiz-adv-x="1124" d="M719 1454q376 0 376 -379q0 -10 -5 -10h-12q-4 0 -4 6q0 365 -358 365q-191 0 -313.5 -97t-145.5 -264q-11 -81 12 -140.5t84 -99t114 -61.5t145 -51q57 -18 85 -27.5t77.5 -30t73.5 -37t58 -45.5t45 -58.5t20.5 -73t-0.5 -92.5t-33 -113t-63 -138q83 -85 64 -221 q-24 -175 -157.5 -277t-346.5 -102q-195 0 -295.5 99t-100.5 281q0 10 6 10h11q4 0 4 -7q0 -176 95.5 -270.5t282.5 -94.5q205 0 331 96.5t150 264.5q8 55 0.5 100t-37.5 80t-54.5 58t-81.5 47t-86.5 34.5t-98.5 32.5q-57 18 -85.5 28t-79 30.5t-74.5 37t-58 45.5t-45 59 t-20.5 73.5t0.5 93t33 114t64 138.5q-79 82 -60 217q24 174 154 276.5t329 102.5zM862 120q60 112 80.5 200t6.5 145t-54.5 101t-96.5 69.5t-124.5 50.5t-133 43.5t-128 49t-103.5 66.5q-54 -100 -77 -180t-15.5 -136t34 -99t73.5 -72.5t99.5 -51.5t115.5 -42t119 -38.5 t112 -46t92 -59.5z" />
<glyph unicode="&#xa8;" horiz-adv-x="389" d="M27 1038q-11 0 -19 8.5t-8 19.5q0 13 10.5 23.5t24.5 10.5q11 0 19 -8.5t8 -19.5q0 -13 -10.5 -23.5t-24.5 -10.5zM354 1038q-11 0 -18.5 8.5t-7.5 19.5q0 13 10.5 23.5t24.5 10.5q11 0 19 -8.5t8 -19.5q0 -13 -11 -23.5t-25 -10.5z" />
<glyph unicode="&#xa9;" horiz-adv-x="1499" d="M869 1260q157 0 284 -75t197.5 -203.5t70.5 -283.5q0 -188 -102.5 -352.5t-271 -260t-356.5 -95.5q-157 0 -284 74.5t-197.5 202.5t-70.5 284q0 188 102.5 352.5t271 260.5t356.5 96zM692 1q138 0 269 56t229 149.5t158 222.5t60 268q0 153 -69 279t-193 199.5t-278 73.5 q-138 0 -269 -56t-229 -149.5t-158 -223t-60 -268.5q0 -114 40.5 -215.5t111.5 -175.5t172 -117t216 -43zM1085 434l1 -4q-130 -202 -341 -202q-141 0 -233.5 93.5t-92.5 247.5q0 132 63 237t162.5 159.5t212.5 54.5q209 0 284 -202l-2 -4l-6 -2q-3 -2 -4 1 q-71 196 -274 196q-81 0 -157 -32t-135 -88t-95 -139t-36 -179q0 -149 90 -240.5t225 -91.5q202 0 329 196l4 2z" />
<glyph unicode="&#xab;" horiz-adv-x="891" d="M139 421l287 -245q2 -2 2 -3l-2 -8q-2 -8 -9 -3l-291 251q-2 2 -2 3l1 5v4q0 2 3 4l362 250q2 1 4.5 1.5t3.5 -0.5t1 -3l-1 -8l-3 -3zM798 679q7 4 8 -2l-1 -8l-3 -3l-356 -245l288 -245q1 -1 1 -3l-1 -8q-2 -9 -10 -3l-291 251q-2 2 -2 3l1 5l1 4q0 3 2 4z" />
<glyph unicode="&#xac;" horiz-adv-x="1043" d="M935 543q5 0 3 -4l-31 -223q-2 -4 -4 -4h-13q-5 0 -3 4l29 208h-773q-5 0 -3 4l1 11q0 4 4 4h790z" />
<glyph unicode="&#xad;" horiz-adv-x="838" d="M137 473q-4 0 -4 4l1 10q2 5 5 5h584q5 0 3 -5l-1 -10q0 -4 -5 -4h-583z" />
<glyph unicode="&#xae;" horiz-adv-x="1499" d="M869 1260q157 0 284 -75t197.5 -203.5t70.5 -283.5q0 -188 -102.5 -352.5t-271 -260t-356.5 -95.5q-157 0 -284 74.5t-197.5 202.5t-70.5 284q0 188 102.5 352.5t271 260.5t356.5 96zM692 1q138 0 269 56t229 149.5t158 222.5t60 268q0 153 -69 279t-193 199.5t-278 73.5 q-138 0 -269 -56t-229 -149.5t-158 -223t-60 -268.5q0 -114 40.5 -215.5t111.5 -175.5t172 -117t216 -43zM840 1014q128 0 190.5 -55t62.5 -140q0 -93 -63 -163t-187 -86l172 -331q3 -5 -3 -5h-7q-2 0 -4 4l-172 331q-25 -3 -52 -3h-230l-46 -329q-1 -3 -3 -3h-8q-4 0 -2 3 l108 775q0 2 4 2h7h233zM778 578q152 0 226.5 69.5t74.5 170.5q0 81 -58.5 132.5t-182.5 51.5h-230l-60 -424h230z" />
<glyph unicode="&#xaf;" horiz-adv-x="493" d="M2 1069q0 4 4 4h483q4 0 4 -4l-1 -10q-2 -4 -5 -4h-483q-5 0 -3 4z" />
<glyph unicode="&#xb0;" horiz-adv-x="456" d="M295 889q-70 0 -116 47t-46 116q0 83 65.5 145.5t149.5 62.5q70 0 115.5 -48t45.5 -118q0 -83 -65 -144t-149 -61zM298 907q77 0 134 55.5t57 131.5q0 63 -40 105.5t-104 42.5q-78 0 -135 -56t-57 -133q0 -62 40.5 -104t104.5 -42z" />
<glyph unicode="&#xb1;" horiz-adv-x="1042" d="M935 543q5 0 3 -4l-2 -11q0 -4 -4 -4h-385l-54 -385q0 -4 -5 -4h-10q-3 0 -3 4l53 385h-384q-4 0 -4 4l1 11q2 4 5 4h385l54 385q2 4 5 4h11q5 0 3 -4l-54 -385h385zM861 18q5 0 3 -4l-1 -10q0 -4 -4 -4h-789q-4 0 -4 4l2 10q2 4 5 4h788z" />
<glyph unicode="&#xb4;" horiz-adv-x="356" d="M17 952q-3 -3 -6 0l-5 6q-3 3 1 7l307 237q4 3 7 0l5 -6q3 -3 -1 -6z" />
<glyph unicode="&#xb6;" horiz-adv-x="1067" d="M1053 1249q4 0 4 -4l-203 -1446q-2 -4 -5 -4h-12q-6 0 -4 4l201 1432h-440l-201 -1432q-2 -4 -5 -4h-12q-6 0 -4 4l96 682q-142 1 -236 99.5t-94 240.5q0 114 62 213t164 157t216 58h461h12z" />
<glyph unicode="&#xb7;" horiz-adv-x="307" d="M152 399q-11 0 -19 8.5t-8 19.5q0 13 11 23.5t25 10.5q11 0 18.5 -8.5t7.5 -19.5q0 -13 -10.5 -23.5t-24.5 -10.5z" />
<glyph unicode="&#xb8;" horiz-adv-x="375" d="M164 -410q-85 0 -160 43l-1 7l5 8l6 2q75 -41 152 -41q65 0 106 38.5t41 97.5q0 69 -62.5 92t-166.5 -9q-5 -1 -5 0q-1 1 2 6l86 171h20l-77 -155q59 15 109 11.5t82.5 -34t32.5 -81.5q0 -68 -48.5 -112t-121.5 -44z" />
<glyph unicode="&#xbb;" horiz-adv-x="891" d="M462 416q0 -1 -3 -3l-362 -251q-3 -2 -6 -1t-2 4l1 8q0 1 2 3l356 245h1l-288 245q-1 1 -1 3l1 8q2 8 8 2l293 -250q1 -1 1 -4l-1 -4v-5zM769 429q2 -2 2 -4l-1 -4l-1 -5q0 -1 -3 -3l-362 -251q-3 -2 -6 -1t-2 4l1 8q0 1 2 3l356 245h1l-288 245q-1 1 -1 3l1 8q1 3 4 3.5 t5 -1.5z" />
<glyph unicode="&#xbc;" horiz-adv-x="1783" d="M471 1227q3 0 2 -2l-115 -816q0 -3 -3 -3h-8q-2 0 -2 3l113 804l-192 -94q-3 -1 -4 1l-2 6q-1 2 2 4l198 96q2 1 6 1h5zM1232 1197q2 4 6 2l6 -3q3 -1 1 -5l-823 -1357q-3 -3 -6 -2l-6 3q-3 1 -1 5zM1674 232q2 0 2 -3l-1 -6q0 -3 -3 -3h-149l-31 -217q-3 -3 -4 -3h-7 q-1 0 -2 1t0 2l30 217h-456q-1 0 -2 1t0 2v6q0 1 1 2l541 589q1 1 6 1h5q3 0 3 -2l-83 -587h150zM1071 232h439l80 566z" />
<glyph unicode="&#xbd;" horiz-adv-x="1820" d="M471 1227q3 0 2 -2l-115 -816q0 -3 -3 -3h-8q-2 0 -2 3l113 804l-192 -94q-3 -1 -4 1l-2 6q-1 2 2 4l198 96q2 1 6 1h5zM1244 1196q3 -1 1 -5l-823 -1357q-3 -3 -6 -2l-6 3q-3 1 -1 5l823 1357q2 4 6 2zM1709 615q-17 -123 -152.5 -262t-417.5 -344h514q3 0 3 -3l-1 -7 l-3 -3h-533q-1 0 -2 1t0 2v6q0 3 2 4q281 201 420.5 344t156.5 262q12 91 -34.5 144.5t-153.5 53.5q-138 0 -265 -127q-3 -2 -6 1l-3 3q-2 2 2 5q129 129 277 129q110 0 159.5 -56.5t36.5 -152.5z" />
<glyph unicode="&#xbe;" horiz-adv-x="1906" d="M468 830q216 -23 216 -188q0 -114 -82 -178.5t-217 -64.5q-171 0 -264 129q-3 4 0 7l3 2q4 4 6 1q38 -56 103 -91t150 -35q132 0 209.5 60t77.5 169q0 183 -281 183q-4 0 -2 2v5q0 3 3 3q144 0 227 66t83 168q0 154 -193 154q-144 0 -264 -120q-3 -2 -6 1l-3 3q-2 2 3 6 q122 122 276 122q99 0 149.5 -43t50.5 -122q0 -92 -64 -156.5t-181 -82.5zM1334 1197q2 4 6 2l6 -3q4 -2 2 -5l-824 -1357q-3 -3 -6 -2l-5 3q-4 2 -2 5zM1776 232q3 0 3 -3l-1 -6q0 -3 -3 -3h-150l-31 -217l-3 -3h-8q-1 0 -2 1t0 2l30 217h-456q-1 0 -2 1t0 2l1 6q0 1 1 2 l541 589q1 1 6 1h4q3 0 3 -2l-83 -587h150zM1173 232h440l79 566z" />
<glyph unicode="&#xbf;" horiz-adv-x="773" d="M460 829q11 0 19 -8t8 -19q0 -13 -10.5 -23.5t-24.5 -10.5q-11 0 -19 8.5t-8 19.5q0 13 10.5 23t24.5 10zM-18 -185q0 -113 69.5 -175t203.5 -62q198 0 367 147q7 5 9 -1l3 -7q2 -5 -3 -9q-91 -71 -181 -109.5t-203 -38.5q-138 0 -211.5 67t-73.5 188q0 68 20 125 t54 99.5t75.5 81t87.5 79.5t87.5 86t77 109t54.5 139q1 4 4 4h13q5 0 3 -4q-19 -76 -54.5 -141t-77 -110.5t-87.5 -87t-87.5 -80.5t-75.5 -80.5t-54 -97.5t-20 -122z" />
<glyph unicode="&#xc0;" horiz-adv-x="1213" d="M775 1382l-241 238q-3 3 1 6l7 6q3 3 6 0l240 -237q3 -3 0 -6l-7 -7q-4 -2 -6 0zM1115 4q1 -4 -4 -4h-13q-4 0 -5 4l-140 479h-665l-279 -479q-3 -4 -6 -4h-15q-6 0 -3 4l736 1262q3 4 7 4h10q3 0 5 -4zM298 502h650l-217 743z" />
<glyph unicode="&#xc1;" horiz-adv-x="1213" d="M725 1382l-6 7q-3 3 1 6l308 237q4 2 6 0l6 -6q3 -3 -1 -6l-308 -238q-3 -3 -6 0zM1115 4q1 -4 -4 -4h-13q-4 0 -5 4l-140 479h-665l-279 -479q-3 -4 -6 -4h-15q-6 0 -3 4l736 1262q3 4 7 4h10q3 0 5 -4zM298 502h650l-217 743z" />
<glyph unicode="&#xc2;" horiz-adv-x="1213" d="M517 1372q-6 0 -1 4l253 242q2 2 8 2h8q6 0 8 -2l185 -242q3 -4 -2 -4h-10q-6 0 -8 2l-179 232l-243 -232q-3 -2 -7 -2h-12zM1115 4q1 -4 -4 -4h-13q-4 0 -5 4l-140 479h-665l-279 -479q-3 -4 -6 -4h-15q-6 0 -3 4l736 1262q3 4 7 4h10q3 0 5 -4zM298 502h650l-217 743z " />
<glyph unicode="&#xc3;" horiz-adv-x="1213" d="M495 1401q-4 0 -4 3q0 83 46.5 132t118.5 49q34 0 59 -17t41 -41.5t31 -49t38 -41.5t53 -17q111 0 145 162q2 4 6 4h8q3 0 3 -5q0 -82 -47 -130.5t-117 -48.5q-34 0 -59 17t-41 41.5t-31.5 49t-38.5 41.5t-53 17q-112 0 -146 -162q-2 -4 -4 -4h-8zM1115 4q1 -4 -4 -4h-13 q-4 0 -5 4l-140 479h-665l-279 -479q-3 -4 -6 -4h-15q-6 0 -3 4l736 1262q3 4 7 4h10q3 0 5 -4zM298 502h650l-217 743z" />
<glyph unicode="&#xc4;" horiz-adv-x="1213" d="M598 1468q-11 0 -19 8.5t-8 19.5q0 13 11 23.5t25 10.5q11 0 18.5 -8.5t7.5 -19.5q0 -13 -10.5 -23.5t-24.5 -10.5zM926 1468q-11 0 -19 8.5t-8 19.5q0 13 10.5 23.5t24.5 10.5q11 0 19 -8.5t8 -19.5q0 -13 -10.5 -23.5t-24.5 -10.5zM1115 4q1 -4 -4 -4h-13q-4 0 -5 4 l-140 479h-665l-279 -479q-3 -4 -6 -4h-15q-6 0 -3 4l736 1262q3 4 7 4h10q3 0 5 -4zM298 502h650l-217 743z" />
<glyph unicode="&#xc5;" horiz-adv-x="1213" d="M1115 4q1 -4 -4 -4h-13q-4 0 -5 4l-140 479h-665l-279 -479q-3 -4 -6 -4h-15q-6 0 -3 4l733 1257q-61 7 -100.5 53t-39.5 109q0 83 65 145t149 62q70 0 116 -47.5t46 -117.5q0 -81 -63 -142t-146 -63zM594 1423q0 -63 41.5 -106t106.5 -43q79 0 137 56.5t58 134.5 q0 65 -41 108t-106 43q-79 0 -137.5 -57.5t-58.5 -135.5zM298 502h650l-217 743z" />
<glyph unicode="&#xc6;" horiz-adv-x="1725" d="M1712 1249q3 0 3 -4l-1 -10q-2 -4 -5 -4h-774l-79 -565h692q3 0 3 -4l-1 -11q-2 -4 -5 -4h-692l-88 -629h794q4 0 4 -4l-1 -10q-2 -4 -6 -4h-800h-11q-5 0 -3 4l67 479h-444l-355 -479q-3 -4 -7 -4h-14q-8 0 -4 5l922 1241q2 3 7 3h5h2h12h779zM379 502h433l102 726 l-1 -5z" />
<glyph unicode="&#xc7;" horiz-adv-x="1323" d="M1294 935l-2 -6l-10 -4q-4 -2 -6 2q-113 314 -439 314q-129 0 -251 -51t-216.5 -140.5t-152 -222.5t-57.5 -286q0 -239 143.5 -386t360.5 -147q323 0 527 315l7 2l8 -4l1 -7q-206 -321 -541 -324l-69 -140q59 15 109 11.5t82.5 -34t32.5 -81.5q0 -68 -48.5 -112 t-121.5 -44q-86 0 -161 43l-1 7l6 8l6 2q75 -41 152 -41q65 0 106 38.5t41 97.5q0 69 -63 92t-166 -9q-5 -1 -5 0t2 6l78 156q-145 4 -259.5 71t-181 191t-66.5 285q0 159 59 296.5t156.5 229.5t224 144.5t261.5 52.5q335 0 454 -325z" />
<glyph unicode="&#xc8;" horiz-adv-x="1054" d="M701 1382l-241 238q-3 3 1 6l7 6q3 3 6 0l241 -237q3 -3 -1 -6l-7 -7q-4 -2 -6 0zM1040 1249q4 0 4 -4l-2 -10q-2 -4 -4 -4h-774l-80 -565h693q3 0 3 -4l-1 -11q-2 -4 -5 -4h-692l-88 -629h794q3 0 3 -4l-1 -10q-2 -4 -5 -4h-801h-10q-5 0 -3 4l174 1241q0 4 5 4h12h778z " />
<glyph unicode="&#xc9;" horiz-adv-x="1054" d="M651 1382l-5 7q-2 3 1 6l307 237q4 3 7 0l5 -6q3 -3 -1 -6l-308 -238q-3 -3 -6 0zM1040 1249q4 0 4 -4l-2 -10q-2 -4 -4 -4h-774l-80 -565h693q3 0 3 -4l-1 -11q-2 -4 -5 -4h-692l-88 -629h794q3 0 3 -4l-1 -10q-2 -4 -5 -4h-801h-10q-5 0 -3 4l174 1241q0 4 5 4h12h778z " />
<glyph unicode="&#xca;" horiz-adv-x="1054" d="M443 1372q-6 0 -1 4l253 242q2 2 8 2h9q5 0 7 -2l186 -242q3 -4 -3 -4h-10q-6 0 -8 2l-178 232l-244 -232q-3 -2 -6 -2h-13zM1040 1249q4 0 4 -4l-2 -10q-2 -4 -4 -4h-774l-80 -565h693q3 0 3 -4l-1 -11q-2 -4 -5 -4h-692l-88 -629h794q3 0 3 -4l-1 -10q-2 -4 -5 -4h-801 h-10q-5 0 -3 4l174 1241q0 4 5 4h12h778z" />
<glyph unicode="&#xcb;" horiz-adv-x="1054" d="M524 1468q-11 0 -18.5 8.5t-7.5 19.5q0 13 10.5 23.5t24.5 10.5q11 0 19 -8.5t8 -19.5q0 -13 -11 -23.5t-25 -10.5zM852 1468q-11 0 -19 8.5t-8 19.5q0 13 11 23.5t25 10.5q11 0 18.5 -8.5t7.5 -19.5q0 -13 -10.5 -23.5t-24.5 -10.5zM1040 1249q4 0 4 -4l-2 -10 q-2 -4 -4 -4h-774l-80 -565h693q3 0 3 -4l-1 -11q-2 -4 -5 -4h-692l-88 -629h794q3 0 3 -4l-1 -10q-2 -4 -5 -4h-801h-10q-5 0 -3 4l174 1241q0 4 5 4h12h778z" />
<glyph unicode="&#xcc;" d="M300 1382l-241 238q-4 4 0 6l8 6q3 3 6 0l240 -237q3 -3 0 -6l-7 -7q-4 -2 -6 0zM245 1245q0 4 5 4h12q4 0 4 -4l-174 -1241q-2 -4 -5 -4h-13q-5 0 -3 4z" />
<glyph unicode="&#xcd;" d="M255 1382q-3 -2 -5 0l-6 7q-2 3 1 6l308 237q4 2 6 0l6 -6q3 -3 -1 -6zM245 1245q0 4 5 4h12q4 0 4 -4l-174 -1241q-2 -4 -5 -4h-13q-5 0 -3 4z" />
<glyph unicode="&#xce;" d="M483 1374l-179 232l-244 -232q-3 -2 -6 -2h-12q-7 0 -2 4l254 242q2 2 8 2h8q6 0 8 -2l185 -242q3 -4 -2 -4h-11q-5 0 -7 2zM245 1245q0 4 5 4h12q4 0 4 -4l-174 -1241q-2 -4 -5 -4h-13q-5 0 -3 4z" />
<glyph unicode="&#xcf;" d="M123 1468q-11 0 -19 8.5t-8 19.5q0 13 11 23.5t25 10.5q11 0 18.5 -8.5t7.5 -19.5q0 -13 -10.5 -23.5t-24.5 -10.5zM451 1468q-11 0 -19 8.5t-8 19.5q0 13 10.5 23.5t24.5 10.5q11 0 19 -8.5t8 -19.5q0 -13 -10.5 -23.5t-24.5 -10.5zM245 1245q0 4 5 4h12q4 0 4 -4 l-174 -1241q-2 -4 -5 -4h-13q-5 0 -3 4z" />
<glyph unicode="&#xd0;" horiz-adv-x="1247" d="M625 1249q158 0 280.5 -61.5t193 -184t70.5 -288.5q0 -165 -58 -301.5t-157 -226t-229.5 -138.5t-275.5 -49h-369h-6q-5 0 -3 4l86 612h-164q-5 0 -3 5l1 10q0 4 5 4h164l85 610q0 4 5 4h12h363zM452 18q139 0 264.5 48t222 134.5t153.5 219t57 291.5q0 241 -147.5 380.5 t-379.5 139.5h-358l-84 -596h338q4 0 4 -4l-1 -10q-3 -5 -5 -5h-338l-84 -598h358z" />
<glyph unicode="&#xd1;" horiz-adv-x="1259" d="M531 1401q-3 0 -3 3q0 83 46.5 132t118.5 49q34 0 59 -17t41 -41.5t31 -49t38 -41.5t53 -17q111 0 145 162q2 4 5 4h9q3 0 3 -5q0 -82 -47.5 -130.5t-117.5 -48.5q-34 0 -59 17t-41 41.5t-31 49t-38 41.5t-53 17q-112 0 -146 -162q-2 -4 -4 -4h-9zM1245 1249q4 0 4 -4 l-177 -1261q-2 -4 -5 -4h-2q-5 0 -7 3l-795 1242l-171 -1221q-2 -4 -5 -4h-13q-5 0 -3 4l177 1262q0 4 5 4h2q4 0 7 -4l795 -1241l171 1220q0 4 5 4h12z" />
<glyph unicode="&#xd2;" horiz-adv-x="1440" d="M883 1382l-241 238q-4 4 0 6l7 6q3 3 6 0l241 -237q2 -3 -1 -6l-7 -7q-3 -2 -5 0zM840 1260q226 0 374 -150t148 -397q0 -159 -58.5 -296.5t-156 -229.5t-224 -144.5t-261.5 -52.5q-226 0 -374.5 150t-148.5 397q0 159 59 296.5t156.5 229.5t224 144.5t261.5 52.5zM664 8 q129 0 251 51.5t216.5 141t152 222.5t57.5 286q0 239 -143.5 385.5t-360.5 146.5q-129 0 -251 -51t-216.5 -140.5t-152 -222.5t-57.5 -286q0 -239 143.5 -386t360.5 -147z" />
<glyph unicode="&#xd3;" horiz-adv-x="1440" d="M838 1382q-2 -2 -5 0l-6 7q-3 3 1 6l308 237q4 2 6 0l5 -6q3 -3 -1 -6zM840 1260q226 0 374 -150t148 -397q0 -159 -58.5 -296.5t-156 -229.5t-224 -144.5t-261.5 -52.5q-226 0 -374.5 150t-148.5 397q0 159 59 296.5t156.5 229.5t224 144.5t261.5 52.5zM664 8 q129 0 251 51.5t216.5 141t152 222.5t57.5 286q0 239 -143.5 385.5t-360.5 146.5q-129 0 -251 -51t-216.5 -140.5t-152 -222.5t-57.5 -286q0 -239 143.5 -386t360.5 -147z" />
<glyph unicode="&#xd4;" horiz-adv-x="1440" d="M1065 1374l-178 232l-244 -232q-3 -2 -6 -2h-12q-7 0 -2 4l254 242q2 2 8 2h8q6 0 8 -2l185 -242q3 -4 -3 -4h-10q-6 0 -8 2zM840 1260q226 0 374 -150t148 -397q0 -159 -58.5 -296.5t-156 -229.5t-224 -144.5t-261.5 -52.5q-226 0 -374.5 150t-148.5 397q0 159 59 296.5 t156.5 229.5t224 144.5t261.5 52.5zM664 8q129 0 251 51.5t216.5 141t152 222.5t57.5 286q0 239 -143.5 385.5t-360.5 146.5q-129 0 -251 -51t-216.5 -140.5t-152 -222.5t-57.5 -286q0 -239 143.5 -386t360.5 -147z" />
<glyph unicode="&#xd5;" horiz-adv-x="1440" d="M602 1401q-3 0 -3 3q0 83 46 132t118 49q34 0 59 -17t41 -41.5t31.5 -49t38.5 -41.5t53 -17q111 0 145 162q2 4 5 4h8q3 0 3 -5q0 -82 -47 -130.5t-117 -48.5q-34 0 -59 17t-41 41.5t-31.5 49t-38.5 41.5t-53 17q-111 0 -145 -162q-2 -4 -5 -4h-8zM840 1260 q226 0 374 -150t148 -397q0 -159 -58.5 -296.5t-156 -229.5t-224 -144.5t-261.5 -52.5q-226 0 -374.5 150t-148.5 397q0 159 59 296.5t156.5 229.5t224 144.5t261.5 52.5zM664 8q129 0 251 51.5t216.5 141t152 222.5t57.5 286q0 239 -143.5 385.5t-360.5 146.5 q-129 0 -251 -51t-216.5 -140.5t-152 -222.5t-57.5 -286q0 -239 143.5 -386t360.5 -147z" />
<glyph unicode="&#xd6;" horiz-adv-x="1440" d="M706 1468q-11 0 -19 8.5t-8 19.5q0 13 10.5 23.5t24.5 10.5q11 0 19 -8.5t8 -19.5q0 -13 -10.5 -23.5t-24.5 -10.5zM1033 1468q-11 0 -18.5 8.5t-7.5 19.5q0 13 10.5 23.5t24.5 10.5q11 0 19 -8.5t8 -19.5q0 -13 -11 -23.5t-25 -10.5zM840 1260q226 0 374 -150t148 -397 q0 -159 -58.5 -296.5t-156 -229.5t-224 -144.5t-261.5 -52.5q-226 0 -374.5 150t-148.5 397q0 159 59 296.5t156.5 229.5t224 144.5t261.5 52.5zM664 8q129 0 251 51.5t216.5 141t152 222.5t57.5 286q0 239 -143.5 385.5t-360.5 146.5q-129 0 -251 -51t-216.5 -140.5 t-152 -222.5t-57.5 -286q0 -239 143.5 -386t360.5 -147z" />
<glyph unicode="&#xd7;" horiz-adv-x="963" d="M903 858q1 -1 0.5 -3t-1.5 -3l-393 -344l296 -345q1 -3 -1 -5l-8 -8q-4 -2 -6 0l-296 345l-393 -345q-3 -3 -6 0l-6 8q-3 3 0 5l393 345l-296 344q-1 1 -0.5 3t1.5 3l9 8q2 2 5 0l296 -345l393 345q3 3 6 0z" />
<glyph unicode="&#xd8;" horiz-adv-x="1440" d="M1372 1170q2 -2 -1 -6l-116 -102q107 -143 107 -349q0 -159 -58.5 -296.5t-156 -229.5t-224 -144.5t-261.5 -52.5q-127 0 -233.5 50t-178.5 142l-134 -119q-3 -3 -6 0l-7 8q-1 1 -0.5 3t1.5 3l136 119q-101 142 -101 341q0 159 59 296.5t156.5 229.5t224 144.5 t261.5 52.5q124 0 228 -48t176 -136l116 102q3 3 6 0zM160 541q0 -192 97 -330l970 850q-69 86 -170 133t-220 47q-129 0 -251 -51t-216.5 -140.5t-152 -222.5t-57.5 -286zM1341 709q0 201 -103 338l-970 -850q69 -90 171.5 -139.5t224.5 -49.5q129 0 251 51.5t216.5 141 t152 222.5t57.5 286z" />
<glyph unicode="&#xd9;" horiz-adv-x="1218" d="M771 1382l-241 238q-4 4 0 6l8 6q3 3 6 0l240 -237q3 -3 0 -6l-7 -7q-4 -2 -6 0zM1204 1249q4 0 4 -4l-103 -733q-36 -254 -181.5 -393t-375.5 -139t-336 139t-70 393l103 733q0 4 5 4h12q4 0 4 -4l-103 -733q-35 -247 65.5 -380.5t322.5 -133.5t360 133.5t173 380.5 l103 733q0 4 5 4h12z" />
<glyph unicode="&#xda;" horiz-adv-x="1218" d="M727 1382q-3 -3 -6 0l-6 7q-3 3 1 6l308 237q4 2 6 0l6 -6q3 -3 -1 -6zM1204 1249q4 0 4 -4l-103 -733q-36 -254 -181.5 -393t-375.5 -139t-336 139t-70 393l103 733q0 4 5 4h12q4 0 4 -4l-103 -733q-35 -247 65.5 -380.5t322.5 -133.5t360 133.5t173 380.5l103 733 q0 4 5 4h12z" />
<glyph unicode="&#xdb;" horiz-adv-x="1218" d="M954 1374l-179 232l-244 -232q-3 -2 -6 -2h-12q-7 0 -2 4l254 242q2 2 8 2h8q6 0 8 -2l185 -242q3 -4 -2 -4h-10q-6 0 -8 2zM1204 1249q4 0 4 -4l-103 -733q-36 -254 -181.5 -393t-375.5 -139t-336 139t-70 393l103 733q0 4 5 4h12q4 0 4 -4l-103 -733 q-35 -247 65.5 -380.5t322.5 -133.5t360 133.5t173 380.5l103 733q0 4 5 4h12z" />
<glyph unicode="&#xdc;" horiz-adv-x="1218" d="M594 1468q-11 0 -19 8.5t-8 19.5q0 13 11 23.5t25 10.5q11 0 18.5 -8.5t7.5 -19.5q0 -13 -10.5 -23.5t-24.5 -10.5zM922 1468q-11 0 -19 8.5t-8 19.5q0 13 10.5 23.5t24.5 10.5q11 0 19 -8.5t8 -19.5q0 -13 -10.5 -23.5t-24.5 -10.5zM1204 1249q4 0 4 -4l-103 -733 q-36 -254 -181.5 -393t-375.5 -139t-336 139t-70 393l103 733q0 4 5 4h12q4 0 4 -4l-103 -733q-35 -247 65.5 -380.5t322.5 -133.5t360 133.5t173 380.5l103 733q0 4 5 4h12z" />
<glyph unicode="&#xdd;" horiz-adv-x="1129" d="M682 1382l-6 7q-2 3 1 6l308 237q4 2 6 0l6 -6q3 -3 -1 -6l-308 -238q-3 -3 -6 0zM1202 1249q7 0 4 -4l-619 -788l-64 -453q0 -4 -4 -4h-12q-4 0 -4 4l63 454l-407 787q-2 4 5 4h12q4 0 6 -4l398 -768l603 768q4 4 7 4h12z" />
<glyph unicode="&#xde;" horiz-adv-x="1067" d="M622 1004q105 0 185 -26.5t126.5 -72.5t69 -102.5t22.5 -121.5q0 -63 -18 -121.5t-58 -112.5t-97.5 -94t-143.5 -63.5t-190 -23.5h-389l-37 -262q0 -4 -4 -4h-13q-4 0 -4 4l175 1241q2 4 5 4h12q5 0 3 -4l-34 -241h390zM521 285q101 0 183.5 22.5t137.5 60.5t92 89.5 t53.5 107t16.5 114.5q0 62 -21 115t-65 97t-120.5 69t-178.5 25h-389l-98 -700h389z" />
<glyph unicode="&#xdf;" horiz-adv-x="949" d="M569 645q0 -51 15.5 -88t40.5 -59t55 -39t60.5 -33.5t55.5 -37.5t40.5 -57t15.5 -85q0 -71 -31 -124t-80.5 -80t-99.5 -39.5t-100 -12.5q-138 0 -235 92q-4 4 -2 7l6 7q3 3 6 1q106 -89 227 -89q45 0 90 10.5t92 34.5t76.5 73t29.5 116q0 48 -15.5 82.5t-40.5 54.5 t-55 36t-60.5 33t-55.5 39.5t-40.5 62t-15.5 93.5q0 58 18 103t44 76t52.5 62.5t44.5 79.5t18 111q0 108 -52.5 168t-156.5 60q-117 0 -189.5 -73t-88.5 -186l-146 -1040q0 -4 -4 -4h-13q-4 0 -4 4l147 1040q17 120 97.5 198.5t203.5 78.5q111 0 168.5 -66t57.5 -181 q0 -63 -18 -112.5t-44 -81.5t-52 -63t-44 -74t-18 -98z" />
<glyph unicode="&#xe0;" horiz-adv-x="1043" d="M607 952l-241 238q-4 4 0 6l7 6q3 3 6 0l241 -237q4 -3 0 -7l-8 -6q-3 -2 -5 0zM899 307q-12 -63 -8.5 -124.5t9 -93t20.5 -82.5q1 -5 -4 -7l-5 -3q-5 -3 -7 2q-48 133 -32 266q-58 -123 -174 -199t-253 -76q-153 0 -254 100.5t-101 263.5q0 137 68 247.5t175.5 169 t229.5 58.5q137 0 231.5 -82.5t115.5 -214.5l40 283q2 4 5 4h12q4 0 4 -4zM447 8q119 0 222.5 60.5t165.5 164.5t62 224q0 154 -93.5 254t-242.5 100q-87 0 -168.5 -33t-144 -91.5t-100.5 -145t-38 -185.5q0 -156 95.5 -252t241.5 -96z" />
<glyph unicode="&#xe1;" horiz-adv-x="1043" d="M557 952l-6 6q-3 3 1 7l308 237q4 2 6 0l5 -6q3 -3 -1 -6l-308 -238q-2 -2 -5 0zM899 307q-12 -63 -8.5 -124.5t9 -93t20.5 -82.5q1 -5 -4 -7l-5 -3q-5 -3 -7 2q-48 133 -32 266q-58 -123 -174 -199t-253 -76q-153 0 -254 100.5t-101 263.5q0 137 68 247.5t175.5 169 t229.5 58.5q137 0 231.5 -82.5t115.5 -214.5l40 283q2 4 5 4h12q4 0 4 -4zM447 8q119 0 222.5 60.5t165.5 164.5t62 224q0 154 -93.5 254t-242.5 100q-87 0 -168.5 -33t-144 -91.5t-100.5 -145t-38 -185.5q0 -156 95.5 -252t241.5 -96z" />
<glyph unicode="&#xe2;" horiz-adv-x="1043" d="M349 942q-7 0 -2 4l254 242q2 2 8 2h8q6 0 8 -2l185 -242q3 -4 -3 -4h-10q-5 0 -7 2l-179 232l-244 -232q-3 -2 -6 -2h-12zM899 307q-12 -63 -8.5 -124.5t9 -93t20.5 -82.5q1 -5 -4 -7l-5 -3q-5 -3 -7 2q-48 133 -32 266q-58 -123 -174 -199t-253 -76q-153 0 -254 100.5 t-101 263.5q0 137 68 247.5t175.5 169t229.5 58.5q137 0 231.5 -82.5t115.5 -214.5l40 283q2 4 5 4h12q4 0 4 -4zM447 8q119 0 222.5 60.5t165.5 164.5t62 224q0 154 -93.5 254t-242.5 100q-87 0 -168.5 -33t-144 -91.5t-100.5 -145t-38 -185.5q0 -156 95.5 -252t241.5 -96z " />
<glyph unicode="&#xe3;" horiz-adv-x="1043" d="M326 971q-3 0 -3 3q0 83 46 132t118 49q34 0 59 -17t41 -41.5t31.5 -49t38.5 -41.5t53 -17q111 0 145 162q2 4 5 4h8q3 0 3 -5q0 -82 -47 -130.5t-117 -48.5q-34 0 -59 17t-41 41.5t-31.5 49t-38.5 41.5t-53 17q-111 0 -145 -162q-2 -4 -5 -4h-8zM899 307 q-12 -63 -8.5 -124.5t9 -93t20.5 -82.5q1 -5 -4 -7l-5 -3q-5 -3 -7 2q-48 133 -32 266q-58 -123 -174 -199t-253 -76q-153 0 -254 100.5t-101 263.5q0 137 68 247.5t175.5 169t229.5 58.5q137 0 231.5 -82.5t115.5 -214.5l40 283q2 4 5 4h12q4 0 4 -4zM447 8 q119 0 222.5 60.5t165.5 164.5t62 224q0 154 -93.5 254t-242.5 100q-87 0 -168.5 -33t-144 -91.5t-100.5 -145t-38 -185.5q0 -156 95.5 -252t241.5 -96z" />
<glyph unicode="&#xe4;" horiz-adv-x="1043" d="M430 1038q-11 0 -19 8.5t-8 19.5q0 13 10.5 23.5t24.5 10.5q11 0 19 -8.5t8 -19.5q0 -13 -10.5 -23.5t-24.5 -10.5zM757 1038q-11 0 -18.5 8.5t-7.5 19.5q0 13 10.5 23.5t24.5 10.5q11 0 19 -8.5t8 -19.5q0 -13 -11 -23.5t-25 -10.5zM899 307q-12 -63 -8.5 -124.5t9 -93 t20.5 -82.5q1 -5 -4 -7l-5 -3q-5 -3 -7 2q-48 133 -32 266q-58 -123 -174 -199t-253 -76q-153 0 -254 100.5t-101 263.5q0 137 68 247.5t175.5 169t229.5 58.5q137 0 231.5 -82.5t115.5 -214.5l40 283q2 4 5 4h12q4 0 4 -4zM447 8q119 0 222.5 60.5t165.5 164.5t62 224 q0 154 -93.5 254t-242.5 100q-87 0 -168.5 -33t-144 -91.5t-100.5 -145t-38 -185.5q0 -156 95.5 -252t241.5 -96z" />
<glyph unicode="&#xe5;" horiz-adv-x="1043" d="M575 909q-70 0 -116 47t-46 117q0 83 65.5 145t149.5 62q70 0 116 -47.5t46 -117.5q0 -83 -65.5 -144.5t-149.5 -61.5zM626 1266q-79 0 -137.5 -57.5t-58.5 -135.5q0 -63 41.5 -106t106.5 -43q79 0 137 56.5t58 134.5q0 65 -41 108t-106 43zM899 307q-12 -63 -8.5 -124.5 t9 -93t20.5 -82.5q1 -5 -4 -7l-5 -3q-5 -3 -7 2q-48 133 -32 266q-58 -123 -174 -199t-253 -76q-153 0 -254 100.5t-101 263.5q0 137 68 247.5t175.5 169t229.5 58.5q137 0 231.5 -82.5t115.5 -214.5l40 283q2 4 5 4h12q4 0 4 -4zM447 8q119 0 222.5 60.5t165.5 164.5 t62 224q0 154 -93.5 254t-242.5 100q-87 0 -168.5 -33t-144 -91.5t-100.5 -145t-38 -185.5q0 -156 95.5 -252t241.5 -96z" />
<glyph unicode="&#xe6;" horiz-adv-x="1561" d="M1466 467h1l-2 -16q-1 -1 -1 -2h-738q-9 -45 -9 -93q0 -156 95.5 -252t241.5 -96q227 0 353 219q2 4 7 2l9 -4q3 -1 1 -6q-131 -229 -372 -229q-141 0 -239.5 86.5t-113.5 230.5q-32 -126 -152 -221.5t-258 -95.5q-103 0 -163.5 57.5t-60.5 146.5q0 104 74.5 178.5 t216.5 100t346 -28.5l12 86q11 61 6 112.5t-24.5 89t-67.5 58.5t-123 21q-79 0 -145 -21.5t-159 -68.5q-5 -3 -7 2l-3 9q-1 3 4 6q96 48 164.5 69.5t149.5 21.5q76 0 126 -20.5t72 -58t29.5 -89t-2.5 -113.5q54 129 171 205t255 76q156 0 239.5 -100t66.5 -262zM729 467h717 q17 155 -62 249.5t-227 94.5q-152 0 -272 -94.5t-156 -249.5zM291 8q74 0 145 30t122.5 78t86.5 107t43 117l12 86q-197 53 -334 30.5t-209.5 -93t-72.5 -171.5q0 -82 55 -133t152 -51z" />
<glyph unicode="&#xe7;" horiz-adv-x="954" d="M884 600q1 -5 -3 -6l-10 -4q-5 -2 -6 2q-29 107 -103 163t-188 56q-119 0 -222.5 -56t-167.5 -162t-64 -238q0 -156 96 -251.5t245 -95.5q225 0 353 219q2 3 6 2l9 -4q3 -1 1 -6q-131 -229 -373 -229h-14l-69 -140q59 15 109 11.5t82.5 -34t32.5 -81.5q0 -68 -48.5 -112 t-121.5 -44q-86 0 -161 43l-1 7l5 8l7 2q75 -41 152 -41q65 0 106 38.5t41 97.5q0 69 -62.5 92t-166.5 -9q-5 -1 -5 0q-1 1 2 6l78 157q-143 11 -233.5 109.5t-90.5 252.5q0 104 39.5 194t105 151t152 96t179.5 35q122 0 200 -59t109 -170z" />
<glyph unicode="&#xe8;" horiz-adv-x="964" d="M581 952l-241 238q-4 4 0 6l8 6q3 3 6 0l240 -237q4 -3 0 -7l-7 -6q-4 -2 -6 0zM870 467l-2 -16v-2h-739q-9 -45 -9 -93q0 -156 96 -252t242 -96q227 0 353 219q2 4 7 2l8 -4q3 -1 1 -6q-131 -229 -372 -229q-153 0 -254 100.5t-101 263.5q0 137 65 247t170.5 169 t227.5 59q156 0 240 -100t67 -262zM133 467h716q17 155 -61.5 249.5t-226.5 94.5q-152 0 -272 -94.5t-156 -249.5z" />
<glyph unicode="&#xe9;" horiz-adv-x="964" d="M531 952l-6 6q-3 3 1 7l308 237q4 2 6 0l6 -6q3 -3 -1 -6l-308 -238q-3 -3 -6 0zM870 467l-2 -16v-2h-739q-9 -45 -9 -93q0 -156 96 -252t242 -96q227 0 353 219q2 4 7 2l8 -4q3 -1 1 -6q-131 -229 -372 -229q-153 0 -254 100.5t-101 263.5q0 137 65 247t170.5 169 t227.5 59q156 0 240 -100t67 -262zM133 467h716q17 155 -61.5 249.5t-226.5 94.5q-152 0 -272 -94.5t-156 -249.5z" />
<glyph unicode="&#xea;" horiz-adv-x="964" d="M323 942q-6 0 -1 4l253 242q2 2 8 2h8q6 0 8 -2l185 -242q3 -4 -2 -4h-10q-6 0 -8 2l-179 232l-243 -232q-3 -2 -7 -2h-12zM870 467l-2 -16v-2h-739q-9 -45 -9 -93q0 -156 96 -252t242 -96q227 0 353 219q2 4 7 2l8 -4q3 -1 1 -6q-131 -229 -372 -229q-153 0 -254 100.5 t-101 263.5q0 137 65 247t170.5 169t227.5 59q156 0 240 -100t67 -262zM133 467h716q17 155 -61.5 249.5t-226.5 94.5q-152 0 -272 -94.5t-156 -249.5z" />
<glyph unicode="&#xeb;" horiz-adv-x="964" d="M404 1038q-11 0 -19 8.5t-8 19.5q0 13 11 23.5t25 10.5q11 0 18.5 -8.5t7.5 -19.5q0 -13 -10.5 -23.5t-24.5 -10.5zM732 1038q-11 0 -19 8.5t-8 19.5q0 13 10.5 23.5t24.5 10.5q11 0 19 -8.5t8 -19.5q0 -13 -10.5 -23.5t-24.5 -10.5zM870 467l-2 -16v-2h-739 q-9 -45 -9 -93q0 -156 96 -252t242 -96q227 0 353 219q2 4 7 2l8 -4q3 -1 1 -6q-131 -229 -372 -229q-153 0 -254 100.5t-101 263.5q0 137 65 247t170.5 169t227.5 59q156 0 240 -100t67 -262zM133 467h716q17 155 -61.5 249.5t-226.5 94.5q-152 0 -272 -94.5t-156 -249.5z " />
<glyph unicode="&#xec;" d="M240 952l-241 238q-4 4 0 6l8 6q3 3 6 0l240 -237q3 -3 0 -7l-7 -6q-4 -2 -6 0zM185 815q0 4 5 4h12q4 0 4 -4l-114 -811q0 -4 -5 -4h-12q-4 0 -4 4z" />
<glyph unicode="&#xed;" d="M196 952q-3 -3 -6 0l-6 6q-3 3 1 7l308 237q4 2 6 0l6 -6q3 -3 -1 -6zM185 815q0 4 5 4h12q4 0 4 -4l-114 -811q0 -4 -5 -4h-12q-4 0 -4 4z" />
<glyph unicode="&#xee;" d="M423 944l-179 232l-243 -232q-3 -2 -7 -2h-12q-6 0 -1 4l253 242q2 2 8 2h8q6 0 8 -2l185 -242q3 -4 -2 -4h-10q-6 0 -8 2zM185 815q0 4 5 4h12q4 0 4 -4l-114 -811q0 -4 -5 -4h-12q-4 0 -4 4z" />
<glyph unicode="&#xef;" d="M63 1038q-11 0 -19 8.5t-8 19.5q0 13 11 23.5t25 10.5q11 0 18.5 -8.5t7.5 -19.5q0 -13 -10.5 -23.5t-24.5 -10.5zM391 1038q-11 0 -19 8.5t-8 19.5q0 13 10.5 23.5t24.5 10.5q11 0 19 -8.5t8 -19.5q0 -13 -10.5 -23.5t-24.5 -10.5zM185 815q0 4 5 4h12q4 0 4 -4 l-114 -811q0 -4 -5 -4h-12q-4 0 -4 4z" />
<glyph unicode="&#xf0;" horiz-adv-x="1039" d="M645 1233q85 -52 145 -133t90 -167t43.5 -185t11.5 -180t-13 -158q-26 -186 -162 -303t-307 -117q-83 0 -153 30.5t-118.5 84t-70.5 133t-9 172.5q17 123 87.5 220t170.5 148t211 51q126 0 219 -66.5t123 -181.5q1 91 -12 176t-42.5 173t-87 163.5t-137.5 124.5 l-129 -179q-1 -1 -2.5 -2t-2.5 0l-8 5q-3 2 -1 6l129 179q-84 48 -191 67q-8 2 -3 9l3 4q2 4 7 2q108 -19 194 -67l111 153q2 4 5 2l8 -5q5 -2 1 -6zM456 8q163 0 291.5 111.5t153.5 290.5q25 178 -72.5 289.5t-260.5 111.5t-291.5 -111.5t-153.5 -289.5 q-17 -119 23.5 -211.5t122 -141.5t187.5 -49z" />
<glyph unicode="&#xf1;" horiz-adv-x="983" d="M335 971q-4 0 -4 3q0 83 46.5 132t118.5 49q34 0 59 -17t41 -41.5t31 -49t38 -41.5t53 -17q112 0 146 162q2 4 5 4h8q3 0 3 -5q0 -82 -47 -130.5t-117 -48.5q-34 0 -59 17t-41 41.5t-31.5 49t-38.5 41.5t-53 17q-111 0 -145 -162q-2 -4 -5 -4h-8zM609 840q155 0 218 -93 t40 -255l-68 -488q-2 -4 -5 -4h-12q-4 0 -4 4l68 488q22 155 -35 242t-205 87q-159 0 -295 -113t-156 -255l-63 -449q0 -4 -4 -4h-13q-4 0 -4 4l114 811q2 4 5 4h13q5 0 3 -4l-36 -250q19 41 58 86.5t94 89t131 71.5t156 28z" />
<glyph unicode="&#xf2;" horiz-adv-x="1028" d="M616 952l-241 238q-4 4 0 6l7 6q4 4 7 0l240 -237q3 -3 0 -7l-7 -6q-4 -2 -6 0zM573 829q153 0 254.5 -100.5t101.5 -263.5q0 -137 -68 -247.5t-176 -169t-230 -58.5q-153 0 -254 100.5t-101 263.5q0 137 68 247.5t175.5 169t229.5 58.5zM458 8q85 0 166 33t144 91.5 t101.5 145t38.5 185.5q0 156 -95.5 252t-241.5 96q-85 0 -166 -33t-144.5 -91.5t-102 -145t-38.5 -185.5q0 -156 96 -252t242 -96z" />
<glyph unicode="&#xf3;" horiz-adv-x="1028" d="M571 952q-3 -2 -5 0l-6 6q-3 3 1 7l308 237q4 2 6 0l6 -6q3 -3 -1 -6zM573 829q153 0 254.5 -100.5t101.5 -263.5q0 -137 -68 -247.5t-176 -169t-230 -58.5q-153 0 -254 100.5t-101 263.5q0 137 68 247.5t175.5 169t229.5 58.5zM458 8q85 0 166 33t144 91.5t101.5 145 t38.5 185.5q0 156 -95.5 252t-241.5 96q-85 0 -166 -33t-144.5 -91.5t-102 -145t-38.5 -185.5q0 -156 96 -252t242 -96z" />
<glyph unicode="&#xf4;" horiz-adv-x="1028" d="M799 944l-179 232l-244 -232q-3 -2 -6 -2h-12q-7 0 -2 4l254 242q2 2 8 2h8q6 0 8 -2l185 -242q3 -4 -2 -4h-11q-5 0 -7 2zM573 829q153 0 254.5 -100.5t101.5 -263.5q0 -137 -68 -247.5t-176 -169t-230 -58.5q-153 0 -254 100.5t-101 263.5q0 137 68 247.5t175.5 169 t229.5 58.5zM458 8q85 0 166 33t144 91.5t101.5 145t38.5 185.5q0 156 -95.5 252t-241.5 96q-85 0 -166 -33t-144.5 -91.5t-102 -145t-38.5 -185.5q0 -156 96 -252t242 -96z" />
<glyph unicode="&#xf5;" horiz-adv-x="1028" d="M335 971q-3 0 -3 3q0 83 46.5 132t118.5 49q34 0 59 -17t41 -41.5t31 -49t38 -41.5t53 -17q111 0 145 162q2 4 5 4h9q3 0 3 -5q0 -82 -47.5 -130.5t-117.5 -48.5q-34 0 -59 17t-41 41.5t-31 49t-38 41.5t-53 17q-112 0 -146 -162q-2 -4 -4 -4h-9zM573 829 q153 0 254.5 -100.5t101.5 -263.5q0 -137 -68 -247.5t-176 -169t-230 -58.5q-153 0 -254 100.5t-101 263.5q0 137 68 247.5t175.5 169t229.5 58.5zM458 8q85 0 166 33t144 91.5t101.5 145t38.5 185.5q0 156 -95.5 252t-241.5 96q-85 0 -166 -33t-144.5 -91.5t-102 -145 t-38.5 -185.5q0 -156 96 -252t242 -96z" />
<glyph unicode="&#xf6;" horiz-adv-x="1028" d="M439 1038q-11 0 -19 8.5t-8 19.5q0 13 10.5 23.5t24.5 10.5q11 0 19 -8.5t8 -19.5q0 -13 -10.5 -23.5t-24.5 -10.5zM766 1038q-11 0 -18.5 8.5t-7.5 19.5q0 13 10.5 23.5t24.5 10.5q11 0 19 -8.5t8 -19.5q0 -13 -11 -23.5t-25 -10.5zM573 829q153 0 254.5 -100.5 t101.5 -263.5q0 -137 -68 -247.5t-176 -169t-230 -58.5q-153 0 -254 100.5t-101 263.5q0 137 68 247.5t175.5 169t229.5 58.5zM458 8q85 0 166 33t144 91.5t101.5 145t38.5 185.5q0 156 -95.5 252t-241.5 96q-85 0 -166 -33t-144.5 -91.5t-102 -145t-38.5 -185.5 q0 -156 96 -252t242 -96z" />
<glyph unicode="&#xf7;" horiz-adv-x="1042" d="M500 748q-10 0 -16.5 7t-6.5 17q0 14 13 25.5t28 11.5q10 0 16.5 -7.5t6.5 -17.5q0 -14 -13 -25t-28 -11zM143 524q-5 0 -3 4l1 11q0 4 4 4h789q3 0 3 -4l-1 -11q-2 -4 -5 -4h-788zM432 258q-10 0 -16.5 7.5t-6.5 17.5q0 14 12.5 25t27.5 11q10 0 16.5 -7t6.5 -17 q0 -14 -12.5 -25.5t-27.5 -11.5z" />
<glyph unicode="&#xf8;" horiz-adv-x="1028" d="M961 792q2 -3 -1 -6l-103 -90q72 -94 72 -231t-68 -247.5t-176 -169t-230 -58.5q-168 0 -270 118l-109 -96q-3 -3 -5 0l-6 7q-3 3 1 6l109 95q-75 97 -75 234t68 247.5t175.5 169t229.5 58.5q172 0 273 -120l103 90q3 3 5 0zM120 356q0 -130 70 -222l640 561 q-96 116 -259 116q-87 0 -168.5 -33t-144 -91.5t-100.5 -145t-38 -185.5zM908 463q0 130 -67 219l-640 -561q96 -113 257 -113q87 0 168 33t144 91.5t100.5 145t37.5 185.5z" />
<glyph unicode="&#xf9;" horiz-adv-x="983" d="M594 952l-241 238q-3 3 1 6l7 6q3 3 6 0l241 -237q3 -3 -1 -7l-7 -6q-4 -2 -6 0zM909 819q3 0 3 -4l-114 -811q-2 -4 -4 -4h-13q-3 0 -3 4l35 250q-15 -32 -42 -67.5t-68.5 -73t-89.5 -66.5t-111 -48t-127 -19q-155 0 -218 93t-40 255l68 487q0 4 5 4h12q4 0 4 -4 l-69 -487q-22 -155 35 -242.5t205 -87.5q159 0 295.5 113.5t156.5 255.5l63 448q2 4 5 4h12z" />
<glyph unicode="&#xfa;" horiz-adv-x="983" d="M550 952q-3 -3 -6 0l-5 6q-3 3 1 7l307 237q4 3 7 0l5 -6q3 -3 -1 -6zM909 819q3 0 3 -4l-114 -811q-2 -4 -4 -4h-13q-3 0 -3 4l35 250q-15 -32 -42 -67.5t-68.5 -73t-89.5 -66.5t-111 -48t-127 -19q-155 0 -218 93t-40 255l68 487q0 4 5 4h12q4 0 4 -4l-69 -487 q-22 -155 35 -242.5t205 -87.5q159 0 295.5 113.5t156.5 255.5l63 448q2 4 5 4h12z" />
<glyph unicode="&#xfb;" horiz-adv-x="983" d="M777 944l-178 232l-244 -232q-3 -2 -6 -2h-13q-6 0 -1 4l253 242q2 2 8 2h9q5 0 7 -2l186 -242q3 -4 -3 -4h-10q-6 0 -8 2zM909 819q3 0 3 -4l-114 -811q-2 -4 -4 -4h-13q-3 0 -3 4l35 250q-15 -32 -42 -67.5t-68.5 -73t-89.5 -66.5t-111 -48t-127 -19q-155 0 -218 93 t-40 255l68 487q0 4 5 4h12q4 0 4 -4l-69 -487q-22 -155 35 -242.5t205 -87.5q159 0 295.5 113.5t156.5 255.5l63 448q2 4 5 4h12z" />
<glyph unicode="&#xfc;" horiz-adv-x="983" d="M417 1038q-11 0 -18.5 8.5t-7.5 19.5q0 13 10.5 23.5t24.5 10.5q11 0 19 -8.5t8 -19.5q0 -13 -11 -23.5t-25 -10.5zM745 1038q-11 0 -19 8.5t-8 19.5q0 13 11 23.5t25 10.5q11 0 18.5 -8.5t7.5 -19.5q0 -13 -10.5 -23.5t-24.5 -10.5zM909 819q3 0 3 -4l-114 -811 q-2 -4 -4 -4h-13q-3 0 -3 4l35 250q-15 -32 -42 -67.5t-68.5 -73t-89.5 -66.5t-111 -48t-127 -19q-155 0 -218 93t-40 255l68 487q0 4 5 4h12q4 0 4 -4l-69 -487q-22 -155 35 -242.5t205 -87.5q159 0 295.5 113.5t156.5 255.5l63 448q2 4 5 4h12z" />
<glyph unicode="&#xfd;" horiz-adv-x="771" d="M436 952l-5 6q-3 3 1 7l307 237q4 2 6 0l6 -6q3 -3 -1 -6l-308 -238q-3 -3 -6 0zM816 819q6 0 0 -8l-469 -817q-62 -107 -104.5 -176.5t-89.5 -134t-86.5 -99.5t-83 -55.5t-89.5 -20.5q-5 0 -5 5l2 10q2 4 5 4q96 0 187 103.5t237 357.5l-252 823q-4 8 4 8h10q4 0 7 -6 l244 -801l461 801q5 6 11 6h11z" />
<glyph unicode="&#xfe;" horiz-adv-x="1052" d="M597 829q153 0 254 -100.5t101 -263.5q0 -137 -68 -247.5t-175.5 -169t-229.5 -58.5q-137 0 -231.5 82.5t-115.5 214.5l-109 -774q-3 -5 -5 -5h-12q-4 0 -4 5l252 1794q0 4 5 4h12q4 0 4 -4l-107 -757q57 124 174 201.5t255 77.5zM481 8q87 0 168.5 33t144 91.5 t100.5 145t38 185.5q0 156 -96 252t-242 96q-119 0 -222.5 -60.5t-165 -164t-61.5 -224.5q0 -154 93.5 -254t242.5 -100z" />
<glyph unicode="&#xff;" horiz-adv-x="771" d="M309 1038q-11 0 -18.5 8.5t-7.5 19.5q0 13 10.5 23.5t24.5 10.5q11 0 19 -8.5t8 -19.5q0 -13 -11 -23.5t-25 -10.5zM637 1038q-11 0 -19 8.5t-8 19.5q0 13 11 23.5t25 10.5q11 0 18.5 -8.5t7.5 -19.5q0 -13 -10.5 -23.5t-24.5 -10.5zM816 819q6 0 0 -8l-469 -817 q-62 -107 -104.5 -176.5t-89.5 -134t-86.5 -99.5t-83 -55.5t-89.5 -20.5q-5 0 -5 5l2 10q2 4 5 4q96 0 187 103.5t237 357.5l-252 823q-4 8 4 8h10q4 0 7 -6l244 -801l461 801q5 6 11 6h11z" />
<glyph unicode="&#x152;" horiz-adv-x="1971" d="M1957 1249q6 0 4 -4l-2 -10q0 -4 -4 -4h-927q166 -57 257 -206t71 -359h438q3 0 3 -4l-1 -11q-2 -4 -5 -4h-437q0 -3 -1 -10t-1 -10q-32 -229 -172 -390.5t-336 -218.5h961q5 0 3 -4l-1 -10q0 -4 -5 -4h-1040q-45 -8 -104 -8q-123 0 -226.5 45t-174.5 126t-102.5 201.5 t-11.5 262.5q27 189 130.5 335.5t251 223t312.5 76.5q61 0 124 -13h996zM1331 627q19 137 -11.5 254t-99.5 195.5t-169 122.5t-217 44t-229.5 -44t-203 -122.5t-154.5 -195.5t-83 -254t11.5 -254t99.5 -195.5t169 -123t217 -44.5q157 0 300 75t243.5 217.5t126.5 324.5z" />
<glyph unicode="&#x153;" horiz-adv-x="1769" d="M1675 467l-2 -16v-2h-739q-9 -45 -9 -93q0 -156 96 -252t242 -96q227 0 353 219q2 4 7 2l8 -4q3 -1 1 -6q-131 -229 -372 -229q-144 0 -243 90t-111 237q-47 -148 -173.5 -237.5t-277.5 -89.5q-153 0 -254 100.5t-101 263.5q0 137 68 247.5t175.5 169t229.5 58.5 q143 0 242 -89t112 -236q45 147 168 236t273 89q156 0 240 -100t67 -262zM458 8q85 0 166 33t144 91.5t101.5 145t38.5 185.5q0 156 -95.5 252t-241.5 96q-85 0 -166 -33t-144.5 -91.5t-102 -145t-38.5 -185.5q0 -156 96 -252t242 -96zM937 467h717q17 155 -61.5 249.5 t-226.5 94.5q-152 0 -272.5 -94.5t-156.5 -249.5z" />
<glyph unicode="&#x178;" horiz-adv-x="1129" d="M555 1468q-11 0 -19 8.5t-8 19.5q0 13 11 23.5t25 10.5q11 0 18.5 -8.5t7.5 -19.5q0 -13 -10.5 -23.5t-24.5 -10.5zM883 1468q-11 0 -19 8.5t-8 19.5q0 13 10.5 23.5t24.5 10.5q11 0 19 -8.5t8 -19.5q0 -13 -10.5 -23.5t-24.5 -10.5zM1202 1249q7 0 4 -4l-619 -788 l-64 -453q0 -4 -4 -4h-12q-4 0 -4 4l63 454l-407 787q-2 4 5 4h12q4 0 6 -4l398 -768l603 768q4 4 7 4h12z" />
<glyph unicode="&#x2c6;" horiz-adv-x="466" d="M445 944l-179 232l-243 -232q-3 -2 -7 -2h-12q-6 0 -1 4l253 242q2 2 8 2h8q6 0 8 -2l185 -242q3 -4 -2 -4h-10q-6 0 -8 2z" />
<glyph unicode="&#x2dc;" horiz-adv-x="548" d="M546 1155q3 0 3 -5q0 -82 -47 -130.5t-117 -48.5q-34 0 -59 17t-41 41.5t-31.5 49t-38.5 41.5t-53 17q-112 0 -146 -162q-2 -4 -4 -4h-8q-4 0 -4 3q0 83 46.5 132t118.5 49q34 0 59 -17t41 -41.5t31 -49t38 -41.5t53 -17q111 0 145 162q2 4 6 4h8z" />
<glyph unicode="&#x2000;" horiz-adv-x="816" />
<glyph unicode="&#x2001;" horiz-adv-x="1633" />
<glyph unicode="&#x2002;" horiz-adv-x="816" />
<glyph unicode="&#x2003;" horiz-adv-x="1633" />
<glyph unicode="&#x2004;" horiz-adv-x="544" />
<glyph unicode="&#x2005;" horiz-adv-x="408" />
<glyph unicode="&#x2006;" horiz-adv-x="272" />
<glyph unicode="&#x2007;" horiz-adv-x="272" />
<glyph unicode="&#x2008;" horiz-adv-x="204" />
<glyph unicode="&#x2009;" horiz-adv-x="326" />
<glyph unicode="&#x200a;" horiz-adv-x="90" />
<glyph unicode="&#x2010;" horiz-adv-x="838" d="M137 473q-4 0 -4 4l1 10q2 5 5 5h584q5 0 3 -5l-1 -10q0 -4 -5 -4h-583z" />
<glyph unicode="&#x2011;" horiz-adv-x="838" d="M137 473q-4 0 -4 4l1 10q2 5 5 5h584q5 0 3 -5l-1 -10q0 -4 -5 -4h-583z" />
<glyph unicode="&#x2012;" horiz-adv-x="838" d="M137 473q-4 0 -4 4l1 10q2 5 5 5h584q5 0 3 -5l-1 -10q0 -4 -5 -4h-583z" />
<glyph unicode="&#x2013;" horiz-adv-x="901" d="M4 473q-4 0 -4 4l2 10q2 5 5 5h891q2 0 3 -2t0 -3l-1 -10q0 -4 -5 -4h-891z" />
<glyph unicode="&#x2014;" horiz-adv-x="1515" d="M4 473q-4 0 -4 4l2 10q2 5 5 5h1505q2 0 3 -2t0 -3l-1 -10q0 -4 -5 -4h-1505z" />
<glyph unicode="&#x2018;" horiz-adv-x="318" d="M250 1087q-26 0 -26 33q0 45 27 107.5t82 111.5q4 3 7 0l5 -4q3 -3 -1 -6q-38 -33 -62.5 -80t-24.5 -85q0 -12 14 -18t14 -23q0 -15 -10.5 -25.5t-24.5 -10.5z" />
<glyph unicode="&#x2019;" horiz-adv-x="318" d="M292 1321q25 0 25 -33q0 -45 -26.5 -107.5t-81.5 -111.5q-4 -4 -8 0l-4 4q-3 3 1 6q38 33 62.5 80t24.5 85q0 12 -14 18t-14 23q0 15 10.5 25.5t24.5 10.5z" />
<glyph unicode="&#x201a;" horiz-adv-x="318" d="M113 51q26 0 26 -33q0 -45 -27 -107.5t-82 -111.5q-4 -3 -7 0l-5 4q-3 3 1 7q38 34 62.5 80t24.5 84q0 12 -14 18t-14 23q0 15 10.5 25.5t24.5 10.5z" />
<glyph unicode="&#x201c;" horiz-adv-x="476" d="M250 1087q-26 0 -26 33q0 45 27 107.5t82 111.5q4 3 7 0l5 -4q3 -3 -1 -6q-38 -33 -62.5 -80t-24.5 -85q0 -12 14 -18t14 -23q0 -15 -10.5 -25.5t-24.5 -10.5zM408 1087q-26 0 -26 33q0 45 26.5 107.5t81.5 111.5q4 4 8 0l4 -4q2 -3 -1 -6q-38 -33 -62 -80t-24 -85 q0 -12 14 -18t14 -23q0 -15 -10.5 -25.5t-24.5 -10.5z" />
<glyph unicode="&#x201d;" horiz-adv-x="476" d="M292 1321q25 0 25 -33q0 -45 -26.5 -107.5t-81.5 -111.5q-4 -4 -8 0l-4 4q-3 3 1 6q38 33 62.5 80t24.5 85q0 12 -14 18t-14 23q0 15 10.5 25.5t24.5 10.5zM450 1321q25 0 25 -33q0 -45 -26.5 -107.5t-81.5 -111.5q-4 -4 -8 0l-4 4q-3 3 1 6q38 33 62 80t24 85 q0 12 -13 18q-15 7 -15 23q0 15 11 25.5t25 10.5z" />
<glyph unicode="&#x201e;" horiz-adv-x="476" d="M113 51q26 0 26 -33q0 -45 -27 -107.5t-82 -111.5q-4 -3 -7 0l-5 4q-3 3 1 7q38 34 62.5 80t24.5 84q0 12 -14 18t-14 23q0 15 10.5 25.5t24.5 10.5zM271 51q25 0 25 -33q0 -45 -26.5 -107.5t-81.5 -111.5q-4 -4 -8 0l-4 4q-3 3 1 7q38 34 62.5 80t24.5 84q0 12 -14 18 t-14 23q0 15 10.5 25.5t24.5 10.5z" />
<glyph unicode="&#x2022;" horiz-adv-x="421" d="M201 342q-31 0 -53.5 23t-22.5 55q0 38 31 67.5t70 29.5q31 0 53.5 -23.5t22.5 -55.5q0 -38 -31 -67t-70 -29z" />
<glyph unicode="&#x2026;" horiz-adv-x="799" d="M95 -10q-11 0 -19 8t-8 19q0 13 10.5 23.5t24.5 10.5q11 0 19 -8t8 -19q0 -13 -10.5 -23.5t-24.5 -10.5zM340 -10q-11 0 -18.5 8t-7.5 19q0 13 10.5 23.5t24.5 10.5q11 0 19 -8t8 -19q0 -13 -11 -23.5t-25 -10.5zM586 -10q-11 0 -18.5 8t-7.5 19q0 13 10.5 23.5 t24.5 10.5q11 0 19 -8t8 -19q0 -13 -11 -23.5t-25 -10.5z" />
<glyph unicode="&#x202f;" horiz-adv-x="326" />
<glyph unicode="&#x2039;" horiz-adv-x="584" d="M490 679q2 1 4.5 1.5t3.5 -0.5t1 -3l-1 -8l-3 -3l-356 -245l287 -245q2 -2 2 -3l-2 -8q-2 -8 -9 -3l-291 251q-2 2 -2 3l1 5v4q0 2 3 4z" />
<glyph unicode="&#x203a;" horiz-adv-x="584" d="M462 429q1 -1 1 -4l-1 -4v-5q0 -1 -3 -3l-362 -251q-3 -2 -6 -1t-2 4l1 8q0 1 2 3l356 245h1l-288 245q-1 1 -1 3l1 8q2 8 8 2z" />
<glyph unicode="&#x205f;" horiz-adv-x="408" />
<glyph unicode="&#x20ac;" horiz-adv-x="1542" d="M1513 935l-3 -6l-9 -4q-4 -2 -6 2q-61 163 -170 238.5t-269 75.5q-137 0 -264 -55t-226 -160t-147 -243h706l-23 -19h-690q-34 -107 -34 -223q0 -36 2 -53h650l-23 -18h-625q22 -210 161.5 -336t339.5 -126q330 0 527 315l7 2l8 -4l1 -7q-202 -324 -546 -324 q-210 0 -354.5 130.5t-165.5 349.5h-254l3 18h250q-2 32 -2 49q0 119 34 227h-244l3 19h247q74 218 257.5 347.5t403.5 129.5q334 0 455 -325z" />
<glyph unicode="&#x2122;" horiz-adv-x="1718" d="M1708 1263q3 0 3 -2l-110 -784q-1 -2 -4 -2h-7q-3 0 -2 2l105 752l-435 -580q-3 -3 -5 0l-272 580l-105 -752q0 -2 -4 -2h-7q-2 0 -2 2l110 784q0 2 3 2h1q3 0 5 -4l276 -591l443 591q3 4 6 4h1zM836 1250q2 0 2 -2v-6q-2 -3 -3 -3h-303l-107 -762q-1 -2 -3 -2h-8 q-3 0 -2 2l107 762h-302q-3 0 -2 3v6q0 2 3 2h313h305z" />
<glyph unicode="&#x25fc;" horiz-adv-x="819" d="M0 819h819v-819h-819v819z" />
</font>
</defs>
</svg>
