<?xml version="1.0" standalone="no"?>
<!DOCTYPE svg PUBLIC "-//W3C//DTD SVG 1.1//EN" "http://www.w3.org/Graphics/SVG/1.1/DTD/svg11.dtd" >
<svg xmlns="http://www.w3.org/2000/svg">
<metadata></metadata>
<defs>
<font id="migrena_grotesquemedium" horiz-adv-x="1142" >
<font-face units-per-em="2048" ascent="1638" descent="-410" />
<missing-glyph horiz-adv-x="376" />
<glyph horiz-adv-x="0" />
<glyph horiz-adv-x="682" />
<glyph unicode=" "  horiz-adv-x="376" />
<glyph unicode="&#x09;" horiz-adv-x="376" />
<glyph unicode="&#xa0;" horiz-adv-x="376" />
<glyph unicode="!" horiz-adv-x="484" d="M128 1217q-1 14 8.5 23t23.5 9h165q14 0 23 -9t8 -23l-28 -813q-2 -32 -33 -32h-106q-30 0 -32 32zM242 -20q-56 0 -95.5 39.5t-39.5 95.5t39.5 96t95.5 40t96 -40t40 -96t-40 -95.5t-96 -39.5z" />
<glyph unicode="&#x22;" horiz-adv-x="668" d="M84 1253q-1 14 8.5 23t23.5 9h132q15 0 24.5 -9t8.5 -23l-24 -409q-2 -31 -32 -31h-90q-30 0 -32 31zM390 1253q-1 14 8.5 23t23.5 9h132q14 0 23.5 -9t8.5 -23l-23 -409q-2 -31 -32 -31h-90q-30 0 -32 31z" />
<glyph unicode="#" horiz-adv-x="1410" d="M1274 908q15 0 23.5 -9.5t6.5 -24.5l-11 -122q-2 -15 -11.5 -24t-24.5 -9h-167l-28 -281h159q15 0 23.5 -9t7.5 -24l-11 -122q-2 -15 -12 -24.5t-25 -9.5h-161l-21 -217q-2 -14 -11.5 -23t-23.5 -9h-158q-14 0 -22 9t-7 23l22 217h-297l-22 -217q-2 -14 -11.5 -23 t-23.5 -9h-158q-14 0 -22 9t-6 23l21 217h-166q-15 0 -23.5 9.5t-7.5 24.5l11 122q2 15 11.5 24t24.5 9h169l28 281h-161q-15 0 -23 9t-7 24l10 122q2 15 12 24.5t25 9.5h163l21 217q5 32 35 32h158q14 0 22 -9t7 -23l-22 -217h298l21 217q2 14 11 23t24 9h157q14 0 22.5 -9 t6.5 -23l-21 -217h165zM841 438l28 281h-298l-27 -281h297z" />
<glyph unicode="$" horiz-adv-x="1159" d="M1073 358q0 -153 -103 -246t-271 -121v-215q0 -13 -9 -22.5t-22 -9.5h-111q-13 0 -23 9.5t-10 22.5v204q-209 8 -418 128q-28 16 -15 44l56 124q16 31 44 15q119 -64 174 -83q92 -31 200 -31q255 0 255 152q0 45 -24 78.5t-64.5 55.5t-93 40t-110 34t-115.5 34.5 t-110.5 46t-93 63.5t-64.5 91.5t-24 125.5q0 145 106 247t297 122v206q0 13 10 22.5t23 9.5h111q13 0 22 -9.5t9 -22.5v-206q162 -16 326 -107q27 -16 15 -44l-58 -127q-14 -30 -50 -10q-169 103 -320 103q-127 0 -189 -48.5t-62 -114.5q0 -39 24.5 -68.5t65.5 -49 t94.5 -36.5t112.5 -33.5t118 -36t112.5 -48.5t94.5 -66.5t65.5 -94.5t24.5 -128z" />
<glyph unicode="%" horiz-adv-x="1832" d="M1284 1278q12 -6 16.5 -18.5t-1.5 -24.5l-616 -1295q-6 -11 -19 -16t-24 0l-88 41q-12 6 -16.5 18.5t0.5 24.5l617 1296q5 12 18 16t24 -1zM741 874q0 -180 -93.5 -288.5t-233.5 -108.5t-233.5 108.5t-93.5 288.5t93.5 288.5t233.5 108.5t233.5 -108.5t93.5 -288.5z M414 649q69 0 102 60.5t33 164.5q0 105 -33 165.5t-102 60.5q-67 0 -101 -61t-34 -165q0 -103 34 -164t101 -61zM1419 772q140 0 233.5 -108.5t93.5 -288.5t-93.5 -288.5t-233.5 -108.5t-233.5 108.5t-93.5 288.5t93.5 288.5t233.5 108.5zM1419 150q69 0 102 60.5t33 164.5 q0 105 -33 165.5t-102 60.5q-67 0 -101 -61t-34 -165q0 -103 34 -164t101 -61z" />
<glyph unicode="&#x26;" horiz-adv-x="1240" d="M1188 75q21 -24 9.5 -49.5t-43.5 -25.5h-152q-22 0 -40 20l-81 89q-161 -129 -383 -129q-189 0 -305.5 98t-116.5 255q0 224 249 392q-84 115 -84 228q0 102 56 175.5t142.5 108t190.5 34.5q142 0 276 -71q27 -15 15 -42l-49 -111q-6 -14 -19.5 -18.5t-27.5 3.5 q-102 56 -189 56q-81 0 -122 -36.5t-41 -96.5q0 -14 2.5 -28.5t8.5 -29.5t10.5 -26.5t16 -28t17 -25t20.5 -26t20 -23.5t22 -25t20 -23l271 -303q54 103 81 243q3 14 14 22t25 5l139 -27q14 -3 21 -13.5t4 -23.5q-41 -209 -144 -362zM520 176q129 0 229 77l-303 331 q-69 -53 -99.5 -105t-30.5 -119q0 -82 51.5 -133t152.5 -51z" />
<glyph unicode="'" horiz-adv-x="407" d="M106 1253q-1 14 8.5 23t23.5 9h132q14 0 23.5 -9t8.5 -23l-23 -409q-2 -31 -32 -31h-90q-31 0 -33 31z" />
<glyph unicode="(" horiz-adv-x="532" d="M279 478q0 -424 189 -755q15 -27 -12 -41l-68 -33q-21 -11 -34 9q-119 173 -183.5 387t-64.5 433q0 214 65.5 426.5t182.5 393.5q13 20 34 9l68 -32q12 -6 15.5 -18t-3.5 -24q-189 -331 -189 -755z" />
<glyph unicode=")" horiz-adv-x="532" d="M179 1298q117 -181 182.5 -393.5t65.5 -426.5q0 -219 -64.5 -433t-183.5 -387q-13 -20 -34 -9l-68 33q-27 14 -12 41q189 331 189 755t-189 755q-7 12 -3.5 24t15.5 18l68 32q21 11 34 -9z" />
<glyph unicode="*" horiz-adv-x="871" d="M787 1228q4 -11 -1.5 -21.5t-16.5 -14.5l-207 -67l128 -176q16 -24 -6 -39l-80 -58q-10 -7 -21 -5t-19 12l-127 175l-128 -175q-8 -10 -19 -12t-21 5l-80 58q-23 16 -6 39l128 176l-207 67q-11 4 -16.5 14.5t-1.5 21.5l31 93q9 26 35 18l207 -67v218q0 12 8.5 20t20.5 8 h97q12 0 20.5 -8t8.5 -20v-218l207 67q27 8 36 -18z" />
<glyph unicode="+" horiz-adv-x="1073" d="M941 646q15 0 24 -9.5t9 -24.5v-106q0 -15 -9 -24t-24 -9h-318v-317q0 -15 -9 -24.5t-24 -9.5h-106q-15 0 -24 9.5t-9 24.5v317h-318q-15 0 -24 9t-9 24v106q0 15 9 24.5t24 9.5h318v317q0 15 9 24t24 9h106q15 0 24 -9t9 -24v-317h318z" />
<glyph unicode="," horiz-adv-x="470" d="M228 252q52 0 94.5 -36.5t42.5 -114.5q0 -97 -67 -210.5t-153 -168.5q-23 -12 -40 9l-10 12q-16 23 4 43q84 82 84 153q0 25 -9 39t-32 34q-50 43 -50 102q0 58 39.5 98t96.5 40z" />
<glyph unicode="-" horiz-adv-x="977" d="M133 403q-15 0 -24 9.5t-9 24.5v129q0 15 9 24.5t24 9.5h712q15 0 24.5 -9.5t9.5 -24.5v-129q0 -15 -9.5 -24.5t-24.5 -9.5h-712z" />
<glyph unicode="." horiz-adv-x="484" d="M242 -20q-56 0 -96 40t-40 96t40 96t96 40t96.5 -40t40.5 -96t-40.5 -96t-96.5 -40z" />
<glyph unicode="/" horiz-adv-x="827" d="M652 1361q5 11 18 15.5t24 -0.5l89 -41q11 -6 15.5 -18.5t-0.5 -24.5l-631 -1352q-5 -11 -18 -16t-24 0l-89 41q-12 6 -16.5 18.5t1.5 24.5z" />
<glyph unicode="0" horiz-adv-x="1209" d="M605 1271q226 0 372 -175.5t146 -470.5t-146 -471t-372 -176t-372 176t-146 471t146 470.5t372 175.5zM605 179q135 0 200.5 119.5t65.5 326.5t-65.5 326t-200.5 119q-133 0 -200 -120t-67 -325t67 -325.5t200 -120.5z" />
<glyph unicode="1" horiz-adv-x="915" d="M649 1249q13 0 22.5 -9.5t9.5 -22.5v-1185q0 -13 -9.5 -22.5t-22.5 -9.5h-175q-13 0 -23 9.5t-10 22.5v982l-202 -100q-13 -6 -26 -1.5t-19 17.5l-54 117q-6 12 -1.5 24.5t16.5 18.5l300 150q17 9 40 9h154z" />
<glyph unicode="2" horiz-adv-x="1087" d="M996 195q13 0 22.5 -10t9.5 -23v-130q0 -13 -9.5 -22.5t-22.5 -9.5h-874q-15 0 -24.5 9t-9.5 24v40q0 31 14 41q197 154 327.5 271.5t200.5 207t97.5 155t27.5 131.5q0 96 -53 145t-155 49q-94 0 -167.5 -38.5t-151.5 -109.5q-11 -9 -20.5 -9t-15 4.5t-13.5 14.5l-85 98 q-16 18 14 46q95 90 205.5 141t263.5 51q208 0 313 -102t105 -266q0 -93 -29.5 -177.5t-95 -171t-152.5 -170t-219 -189.5h497z" />
<glyph unicode="3" horiz-adv-x="1160" d="M818 644q255 -83 255 -306q0 -164 -132 -262t-358 -98q-88 0 -162 14.5t-132.5 43.5t-102 60t-89.5 74q-10 10 -13.5 15t-6.5 15t6 17l90 107q14 16 22.5 18.5t26.5 -9.5q43 -36 58.5 -48.5t55.5 -40t69 -38t74.5 -20.5t95.5 -10q114 0 185.5 45t71.5 125 q0 35 -15.5 67.5t-52 64.5t-110 52.5t-175.5 23.5q-14 1 -24 10.5t-10 22.5v93q0 13 9.5 22t23.5 10q93 3 160 21t102 47t50.5 60.5t15.5 67.5q0 77 -57.5 121t-164.5 44q-92 0 -159.5 -30.5t-155.5 -94.5q-18 -11 -27 -8.5t-22 18.5l-80 97q-16 20 14 46q198 170 462 170 q108 0 192 -27.5t133 -74.5t74 -104.5t25 -121.5q0 -96 -56 -173.5t-166 -125.5z" />
<glyph unicode="4" horiz-adv-x="1192" d="M1100 453q15 0 24 -9.5t9 -24.5v-122q0 -15 -9 -24t-24 -9h-157v-232q0 -13 -9.5 -22.5t-22.5 -9.5h-169q-13 0 -22.5 9.5t-9.5 22.5v232h-633q-15 0 -24 9t-9 24v106q0 9 6 17l661 809q16 20 40 20h160q13 0 22.5 -9.5t9.5 -22.5v-764h157zM316 453h394v481z" />
<glyph unicode="5" horiz-adv-x="1165" d="M628 787q95 -3 175 -28t142.5 -72t98 -123.5t35.5 -175.5q0 -185 -131.5 -297.5t-357.5 -112.5q-161 0 -273 47t-210 135q-30 26 -13 46l89 106q14 17 22.5 19.5t26.5 -8.5q46 -37 76 -58t74.5 -44.5t93 -34t105.5 -10.5q114 0 185.5 58t71.5 159q0 90 -68 153t-192 63 q-153 0 -268 -65q-11 -7 -24 -2l-115 54q-20 9 -17 31l67 589q0 15 9 24t24 9h711q13 0 22.5 -9.5t9.5 -22.5v-132q0 -13 -9.5 -22.5t-22.5 -9.5h-548l-35 -308q96 42 246 42z" />
<glyph unicode="6" horiz-adv-x="1144" d="M645 806q182 0 297.5 -119.5t115.5 -288.5q0 -176 -135 -298t-344 -122q-220 0 -356 141.5t-136 380.5q0 364 214 566.5t579 204.5q14 0 23.5 -9.5t9.5 -23.5v-128q0 -13 -9 -22.5t-23 -10.5q-226 -6 -364 -102t-187 -310q118 141 315 141zM579 170q111 0 173.5 66 t62.5 159t-62.5 159t-173.5 66t-176.5 -66.5t-65.5 -158.5t65.5 -158.5t176.5 -66.5z" />
<glyph unicode="7" horiz-adv-x="1154" d="M313 0q-24 0 -35 17.5t0 39.5l475 991h-661q-13 0 -22.5 9.5t-9.5 22.5v137q0 13 9.5 22.5t22.5 9.5h933q15 0 24.5 -9t9.5 -24v-35q0 -16 -13 -45l-536 -1120q-8 -16 -25 -16h-172z" />
<glyph unicode="8" horiz-adv-x="1156" d="M830 665q107 -44 173.5 -128.5t66.5 -197.5q0 -157 -131.5 -259t-360.5 -102t-360 102t-131 259q0 113 66.5 197.5t172.5 128.5q-90 37 -146 108t-56 171q0 138 121.5 232.5t332.5 94.5t332.5 -94.5t121.5 -232.5q0 -100 -56 -171t-146 -108zM578 1093q-97 0 -159 -48.5 t-62 -121.5t62 -121.5t159 -48.5t159 48.5t62 121.5t-62 121.5t-159 48.5zM578 172q116 0 183 55t67 142q0 88 -67 142.5t-183 54.5t-183 -54.5t-67 -142.5q0 -87 67 -142t183 -55z" />
<glyph unicode="9" horiz-adv-x="1144" d="M566 1271q220 0 356 -141.5t136 -380.5q0 -362 -212.5 -555.5t-580.5 -193.5q-14 0 -23.5 9.5t-9.5 23.5v128q0 14 9 23t23 10q228 6 364.5 95t185.5 295q-117 -142 -313 -142q-182 0 -298 119.5t-116 289.5q0 175 135 297.5t344 122.5zM567 629q111 0 175.5 66.5 t64.5 158.5t-64.5 158.5t-175.5 66.5t-174 -66.5t-63 -158.5t63 -158.5t174 -66.5z" />
<glyph unicode=":" horiz-adv-x="484" d="M242 659q-56 0 -96 40.5t-40 96.5t40 96t96 40t96.5 -40t40.5 -96t-40.5 -96.5t-96.5 -40.5zM242 -20q-56 0 -96 40t-40 96t40 96t96 40t96.5 -40t40.5 -96t-40.5 -96t-96.5 -40z" />
<glyph unicode=";" horiz-adv-x="470" d="M228 659q-56 0 -96 40.5t-40 96.5t40 96t96 40t96.5 -40t40.5 -96t-40.5 -96.5t-96.5 -40.5zM228 252q52 0 94.5 -36.5t42.5 -114.5q0 -97 -67 -210.5t-153 -168.5q-23 -12 -40 9l-10 12q-16 23 4 43q84 82 84 153q0 25 -9 39t-32 34q-50 43 -50 102q0 58 39.5 98 t96.5 40z" />
<glyph unicode="&#x3c;" horiz-adv-x="1073" d="M974 839q0 -9 -5.5 -16t-10 -9t-17.5 -8l-630 -271l630 -271q26 -12 31 -21q2 -5 2 -12v-140q0 -15 -9.5 -23t-23.5 -2l-808 358q-33 15 -33 40v143q0 24 33 39l808 358q14 6 23.5 -2t9.5 -23v-140z" />
<glyph unicode="=" horiz-adv-x="1073" d="M133 671q-15 0 -24 9.5t-9 24.5v105q0 15 9 24.5t24 9.5h808q15 0 24 -9.5t9 -24.5v-105q0 -15 -9 -24.5t-24 -9.5h-808zM133 271q-15 0 -24 9t-9 24v106q0 15 9 24t24 9h808q15 0 24 -9t9 -24v-106q0 -15 -9 -24t-24 -9h-808z" />
<glyph unicode="&#x3e;" horiz-adv-x="1073" d="M100 839v140q0 15 9.5 23t23.5 2l808 -358q33 -15 33 -39v-143q0 -25 -33 -40l-808 -358q-14 -6 -23.5 2t-9.5 23v140q0 9 5.5 16t9.5 9t18 8l629 271l-629 271q-26 12 -31 21q-2 5 -2 12z" />
<glyph unicode="?" horiz-adv-x="952" d="M688 912q0 163 -193 163q-84 0 -147.5 -30.5t-125.5 -85.5q-11 -9 -20 -9.5t-14.5 4t-14.5 15.5l-80 93q-4 4 -5 8.5t-1 7.5t3.5 8t5 7t7 7t6.5 6q170 165 418 165q187 0 293 -81t106 -231q0 -62 -18.5 -114t-47.5 -89t-65 -70t-71.5 -63.5t-65.5 -61.5t-49 -72.5 t-20 -89.5q-2 -27 -27 -27l-115 1q-26 0 -26 40q0 64 27.5 122.5t66.5 102.5t78.5 85.5t67 90t27.5 98.5zM505 -20q-56 0 -95.5 39.5t-39.5 95.5t39.5 96t95.5 40t96 -40t40 -96t-40 -95.5t-96 -39.5z" />
<glyph unicode="@" horiz-adv-x="1691" d="M1100 -289q-3 -22 -26 -27q-138 -23 -271 -23q-149 0 -271 37t-205.5 101t-141 152t-83.5 187.5t-26 209.5q0 146 45 276.5t126.5 231t191 174.5t243 112.5t277.5 38.5q306 0 480.5 -165t174.5 -450q0 -107 -26 -205.5t-74 -176t-122.5 -124t-164.5 -46.5 q-99 0 -156 37.5t-69 104.5q-51 -69 -122 -105.5t-143 -36.5q-121 0 -205.5 83.5t-84.5 242.5q0 221 136 365.5t349 144.5q132 0 253 -34q25 -7 23 -32l-46 -518q-10 -112 86 -112q50 0 88.5 36.5t60.5 96.5t33 128t11 139q0 477 -493 477q-202 0 -360.5 -83t-248 -237 t-89.5 -355q0 -90 16.5 -167t57.5 -149t104 -122t163 -80t229 -30q108 0 243 23q19 4 31.5 -8t11.5 -31zM771 144q91 0 162 75t82 216l21 263q-63 23 -128 23q-71 0 -127.5 -33.5t-89.5 -88t-50.5 -118t-17.5 -130.5q0 -104 42 -155.5t106 -51.5z" />
<glyph unicode="A" horiz-adv-x="1337" d="M1307 40q8 -19 1 -29.5t-25 -10.5h-203q-28 0 -38 25l-108 256h-549l-117 -256q-11 -25 -38 -25h-181q-19 0 -27 11t0 29l567 1202q11 25 38 25h97q27 0 38 -25zM467 461h390l-188 443z" />
<glyph unicode="B" horiz-adv-x="1282" d="M924 635q115 -16 193.5 -93.5t78.5 -203.5q0 -138 -125 -238t-334 -100h-464h-135q-13 0 -22.5 9.5t-9.5 22.5v1185q0 13 9.5 22.5t22.5 9.5h176h388q209 0 325 -94.5t116 -232.5q0 -113 -60.5 -184.5t-158.5 -102.5zM894 894q0 29 -9 54t-32.5 51t-74 41.5t-122.5 15.5 h-310v-333h283q265 0 265 171zM691 193q139 0 197 48.5t58 122.5q0 171 -273 171h-327v-342h345z" />
<glyph unicode="C" horiz-adv-x="1359" d="M1263 348q31 -14 15 -46q-163 -324 -535 -324q-127 0 -245 45.5t-209.5 127t-146.5 205t-55 269.5t55 269.5t146.5 204.5t209.5 126.5t245 45.5q372 0 535 -323q16 -32 -15 -46l-135 -64q-29 -14 -47 17q-110 215 -338 215q-180 0 -292.5 -124t-112.5 -321t112.5 -321.5 t292.5 -124.5q228 0 338 216q18 32 47 17z" />
<glyph unicode="D" horiz-adv-x="1381" d="M641 1249q134 0 252 -42t208 -119.5t142 -197t52 -265.5t-52 -265.5t-142 -197.5t-208 -120t-252 -42h-400h-103q-13 0 -22.5 9.5t-9.5 22.5v1185q0 13 9.5 22.5t22.5 9.5h176h327zM620 199q194 0 308.5 115t114.5 311t-114.5 311t-308.5 115h-274v-852h274z" />
<glyph unicode="E" horiz-adv-x="1188" d="M1071 199q14 0 23 -9.5t9 -23.5v-134q0 -14 -9 -23t-23 -9h-826h-107q-13 0 -22.5 9.5t-9.5 22.5v1185q0 13 9.5 22.5t22.5 9.5h176h736q14 0 23 -9t9 -23v-134q0 -14 -9 -23t-23 -9h-704v-316h622q14 0 23 -9t9 -23v-129q0 -15 -9 -23.5t-23 -8.5h-622v-343h725z" />
<glyph unicode="F" horiz-adv-x="1137" d="M1030 1249q14 0 23 -9t9 -23v-134q0 -14 -9 -23t-23 -9h-684v-377h643q14 0 23 -9t9 -23v-132q0 -14 -9 -23t-23 -9h-643v-446q0 -13 -9.5 -22.5t-22.5 -9.5h-176q-13 0 -22.5 9.5t-9.5 22.5v1185q0 13 9.5 22.5t22.5 9.5h176h716z" />
<glyph unicode="G" horiz-adv-x="1394" d="M1254 557q16 0 25 -9t9 -24v-376q-238 -170 -545 -170q-127 0 -245 45.5t-209.5 127t-146.5 205t-55 269.5t55 269.5t146.5 204.5t209.5 126.5t245 45.5q175 0 307.5 -67t225.5 -219q19 -30 -15 -47l-135 -64q-30 -13 -47 17q-117 179 -336 179q-180 0 -292.5 -124 t-112.5 -321t112.5 -321.5t292.5 -124.5q185 0 329 72v273q0 15 9 24t24 9h149z" />
<glyph unicode="H" horiz-adv-x="1385" d="M1248 1249q13 0 22.5 -9.5t9.5 -22.5v-1185q0 -13 -9.5 -22.5t-22.5 -9.5h-176q-13 0 -22.5 9.5t-9.5 22.5v508h-694v-508q0 -13 -9.5 -22.5t-22.5 -9.5h-176q-13 0 -22.5 9.5t-9.5 22.5v1185q0 13 9.5 22.5t22.5 9.5h176q13 0 22.5 -9.5t9.5 -22.5v-479h694v479 q0 13 9.5 22.5t22.5 9.5h176z" />
<glyph unicode="I" horiz-adv-x="451" d="M106 1217q0 13 9.5 22.5t22.5 9.5h176q13 0 22.5 -9.5t9.5 -22.5v-1185q0 -13 -9.5 -22.5t-22.5 -9.5h-176q-13 0 -22.5 9.5t-9.5 22.5v1185z" />
<glyph unicode="J" horiz-adv-x="1016" d="M877 1249q15 0 24 -9t9 -24v-804q0 -200 -125.5 -317t-331.5 -117q-147 0 -254.5 64.5t-154.5 159.5q-17 30 15 45l137 64q26 13 44 -15q34 -54 81.5 -87.5t127.5 -33.5q223 0 223 255v786q0 15 9.5 24t24.5 9h171z" />
<glyph unicode="K" horiz-adv-x="1311" d="M314 1249q13 0 22.5 -9.5t9.5 -22.5v-1185q0 -13 -9.5 -22.5t-22.5 -9.5h-176q-13 0 -22.5 9.5t-9.5 22.5v1185q0 13 9.5 22.5t22.5 9.5h176zM1258 40q13 -15 7 -27.5t-27 -12.5h-216q-24 0 -39 18l-526 617l521 596q15 18 40 18h199q22 0 28.5 -11.5t-7.5 -28.5 l-493 -562z" />
<glyph unicode="L" horiz-adv-x="1071" d="M1001 201q14 0 23 -9t9 -23v-137q0 -14 -9 -23t-23 -9h-756h-107q-13 0 -22.5 9.5t-9.5 22.5v1185q0 13 9.5 22.5t22.5 9.5h176q13 0 22.5 -9.5t9.5 -22.5v-1016h655z" />
<glyph unicode="M" horiz-adv-x="1587" d="M1340 1246q16 21 41 21h67q15 0 24.5 -9.5t9.5 -24.5v-1200q0 -15 -9.5 -24t-24.5 -9h-173q-15 0 -24 9t-9 24v728l-425 -580q-11 -14 -23.5 -13.5t-22.5 13.5l-425 580v-728q0 -15 -9.5 -24t-24.5 -9h-173q-15 0 -24 9t-9 24v1200q0 15 9 24.5t24 9.5h65q24 0 41 -21 l549 -719z" />
<glyph unicode="N" horiz-adv-x="1403" d="M1264 1249q15 0 24 -9t9 -24v-1200q0 -15 -9 -24.5t-24 -9.5h-25q-27 0 -42 15l-851 807v-771q0 -15 -9.5 -24t-24.5 -9h-173q-15 0 -24 9t-9 24v1200q0 15 9 24.5t24 9.5h26q27 0 42 -15l851 -807v771q0 15 9 24t24 9h173z" />
<glyph unicode="O" horiz-adv-x="1485" d="M743 1271q127 0 245 -45.5t209.5 -126.5t146.5 -204.5t55 -269.5t-55 -269.5t-146.5 -205t-209.5 -127t-245 -45.5q-128 0 -246 45.5t-209 127t-146 205t-55 269.5t55 269.5t146 204.5t209 126.5t246 45.5zM743 179q180 0 292 124.5t112 321.5t-112 321t-292 124 t-292.5 -124t-112.5 -321t112.5 -321.5t292.5 -124.5z" />
<glyph unicode="P" horiz-adv-x="1202" d="M654 1249q120 0 215.5 -32t156.5 -88.5t93 -131.5t32 -163t-32 -163t-93 -131.5t-156.5 -88.5t-215.5 -32h-308v-387q0 -13 -9.5 -22.5t-22.5 -9.5h-176q-13 0 -22.5 9.5t-9.5 22.5v1185q0 13 9.5 22.5t22.5 9.5h176h340zM608 615q156 0 224.5 59.5t68.5 159.5t-68.5 160 t-224.5 60h-262v-439h262z" />
<glyph unicode="Q" horiz-adv-x="1485" d="M1254 -91q32 0 32 -32v-151q0 -18 -8 -25t-27 -7q-130 0 -236 76t-153 218q-56 -10 -119 -10q-128 0 -246 45.5t-209 127t-146 205t-55 269.5t55 269.5t146 204.5t209 126.5t246 45.5q127 0 245 -45.5t209.5 -126.5t146.5 -204.5t55 -269.5q0 -203 -101 -355.5 t-266 -228.5q72 -131 222 -132zM338 625q0 -197 112.5 -321.5t292.5 -124.5t292 124.5t112 321.5t-112 321t-292 124t-292.5 -124t-112.5 -321z" />
<glyph unicode="R" horiz-adv-x="1220" d="M1125 66q15 -25 3.5 -45.5t-39.5 -20.5h-177q-16 0 -25 14l-271 425h-270v-407q0 -13 -9.5 -22.5t-22.5 -9.5h-176q-13 0 -22.5 9.5t-9.5 22.5v1185q0 13 9.5 22.5t22.5 9.5h176h321q237 0 367.5 -112.5t130.5 -292.5q0 -131 -71 -229t-205 -143zM346 634h242 q158 0 226 55t68 155t-68 155t-226 55h-242v-420z" />
<glyph unicode="S" horiz-adv-x="1159" d="M361 919q0 -39 24.5 -68.5t65.5 -49t94.5 -36.5t112.5 -33.5t118 -36t112.5 -48.5t94.5 -66.5t65.5 -94.5t24.5 -128q0 -94 -41.5 -168t-113.5 -119t-163 -68t-196 -23q-233 0 -453 128q-28 16 -15 44l56 124q16 31 44 15q119 -64 174 -83q92 -31 200 -31q255 0 255 152 q0 45 -24 78.5t-64.5 55.5t-93 40t-110 34t-115.5 34.5t-110.5 46t-93 63.5t-64.5 91.5t-24 125.5q0 162 129 267.5t359 105.5q95 0 180.5 -19.5t132 -39.5t103.5 -52q27 -16 15 -44l-58 -127q-14 -30 -50 -10q-169 103 -320 103q-127 0 -189 -48.5t-62 -114.5z" />
<glyph unicode="T" horiz-adv-x="1272" d="M1165 1249q13 0 22.5 -9.5t9.5 -22.5v-137q0 -13 -9.5 -22.5t-22.5 -9.5h-409v-1016q0 -13 -9.5 -22.5t-22.5 -9.5h-176q-13 0 -22.5 9.5t-9.5 22.5v1016h-409q-13 0 -22.5 9.5t-9.5 22.5v137q0 13 9.5 22.5t22.5 9.5h617h441z" />
<glyph unicode="U" horiz-adv-x="1364" d="M1227 1249q13 0 23 -9.5t10 -22.5v-685q0 -111 -29 -202.5t-80.5 -156t-124 -108.5t-159 -64.5t-185.5 -20.5q-124 0 -227.5 33.5t-182 99.5t-122.5 173t-44 246v685q0 13 9.5 22.5t22.5 9.5h176q13 0 22.5 -9.5t9.5 -22.5v-635q0 -401 336 -401q337 0 337 401v635 q0 13 10 22.5t23 9.5h175z" />
<glyph unicode="V" horiz-adv-x="1301" d="M1244 1249q19 0 27 -11t0 -29l-552 -1202q-11 -25 -38 -25h-72q-27 0 -38 25l-548 1202q-8 19 -1 29.5t25 10.5h207q28 0 38 -25l362 -864l368 864q11 25 39 25h183z" />
<glyph unicode="W" horiz-adv-x="1806" d="M1753 1249q38 0 24 -40l-433 -1202q-8 -25 -37 -25h-72q-27 0 -38 25l-298 758l-297 -758q-11 -25 -38 -25h-72q-29 0 -38 25l-432 1202q-14 40 24 40h194q28 0 38 -25l270 -809l281 727q10 25 39 25h64q29 0 38 -25l289 -727l266 809q8 25 38 25h190z" />
<glyph unicode="X" horiz-adv-x="1302" d="M1253 40q13 -16 6.5 -28t-26.5 -12h-218q-25 0 -40 20l-338 435l-325 -435q-15 -20 -40 -20h-199q-21 0 -27 11.5t6 28.5l453 585l-453 584q-13 17 -6.5 28.5t26.5 11.5h218q25 0 40 -20l329 -423l325 423q15 20 39 20h199q21 0 26.5 -11.5t-6.5 -28.5l-452 -572z" />
<glyph unicode="Y" horiz-adv-x="1263" d="M1204 1249q20 0 28.5 -11.5t-1.5 -28.5l-483 -779v-398q0 -13 -9.5 -22.5t-22.5 -9.5h-176q-13 0 -22.5 9.5t-9.5 22.5v390l-484 787q-9 17 -1.5 28.5t25.5 11.5h205q24 0 38 -25l343 -588l348 588q14 25 37 25h185z" />
<glyph unicode="Z" horiz-adv-x="1284" d="M93 0q-15 0 -24 9t-9 24v40q0 25 13 41l736 934h-666q-13 0 -22.5 9.5t-9.5 22.5v137q0 13 9.5 22.5t22.5 9.5h1003q15 0 24.5 -9t9.5 -24v-40q0 -21 -14 -40l-735 -935h745q13 0 22.5 -9.5t9.5 -22.5v-137q0 -13 -9.5 -22.5t-22.5 -9.5h-1083z" />
<glyph unicode="[" horiz-adv-x="593" d="M500 1178h-232v-1399h232q15 0 24.5 -9t9.5 -24v-74q0 -15 -9.5 -24t-24.5 -9h-314h-48q-13 0 -22.5 9.5t-9.5 22.5v1615q0 13 9.5 22t22.5 9h98h264q15 0 24.5 -9t9.5 -24v-73q0 -15 -9.5 -24t-24.5 -9z" />
<glyph unicode="\" horiz-adv-x="827" d="M167 1361l631 -1353q6 -12 1.5 -24.5t-16.5 -18.5l-89 -41q-11 -5 -24 0t-18 16l-631 1352q-5 12 -0.5 24.5t15.5 18.5l89 41q11 5 24 0.5t18 -15.5z" />
<glyph unicode="]" horiz-adv-x="593" d="M456 1317q13 0 22 -9t9 -22v-1615q0 -13 -9 -22.5t-22 -9.5h-98h-265q-15 0 -24.5 9t-9.5 24v74q0 15 9.5 24t24.5 9h233v1399h-233q-15 0 -24.5 9t-9.5 24v73q0 15 9.5 24t24.5 9h315h48z" />
<glyph unicode="^" horiz-adv-x="939" d="M903 951q17 -23 5 -45.5t-40 -22.5h-95q-15 0 -23 12l-285 412l-285 -412q-8 -12 -23 -12h-95q-28 0 -39.5 22.5t5.5 45.5l344 471q9 12 22 12h142q13 0 22 -12z" />
<glyph unicode="_" horiz-adv-x="778" d="M33 -173q-15 0 -24 9.5t-9 24.5v106q0 15 9 24t24 9h712q15 0 24.5 -9t9.5 -24v-106q0 -15 -9.5 -24.5t-24.5 -9.5h-712z" />
<glyph unicode="`" horiz-adv-x="497" d="M411 1016l-388 193q-13 6 -16.5 20t2.5 25l63 114q7 11 21 14.5t26 -2.5l364 -231q12 -8 16 -22t-2 -24l-39 -73q-7 -12 -21 -16.5t-26 2.5z" />
<glyph unicode="a" horiz-adv-x="971" d="M916 58q12 -35 -20 -46l-119 -38q-17 -5 -32 7q-19 16 -42.5 51.5t-38.5 78.5q-48 -62 -122 -97.5t-167 -35.5q-141 0 -225 78.5t-84 195.5q0 164 159.5 247.5t418.5 33.5v18q0 107 -41.5 147.5t-139.5 40.5q-112 0 -235 -53q-13 -5 -25.5 0t-18.5 18l-50 109 q-7 15 -2 26.5t18 17.5q162 77 346 77q203 0 288.5 -92.5t85.5 -267.5v-263q0 -82 10 -131.5t36 -121.5zM440 157q86 0 145 57.5t59 138.5v37q-98 19 -164.5 18.5t-107.5 -21t-59 -48.5t-18 -65q0 -57 42 -87t103 -30z" />
<glyph unicode="b" d="M608 934q191 0 324.5 -134t133.5 -344t-133.5 -344t-324.5 -134q-175 0 -274 132v-78q0 -14 -8.5 -23t-23.5 -9h-164q-14 0 -23 9t-9 23v1246q0 14 9 23.5t23 9.5h164q15 0 23.5 -9t8.5 -24v-475q98 131 274 131zM571 176q108 0 182.5 75.5t74.5 204.5t-74.5 205 t-182.5 76q-111 0 -183.5 -77.5t-72.5 -203.5t72.5 -203t183.5 -77z" />
<glyph unicode="c" horiz-adv-x="1056" d="M964 247q31 -15 16 -45q-30 -58 -80 -105.5t-137.5 -83t-193.5 -35.5q-208 0 -350.5 132t-142.5 346q0 142 67 252.5t178.5 168t247.5 57.5q155 0 259.5 -66t151.5 -158q15 -30 -16 -45l-134 -64q-26 -12 -45 15q-35 55 -82 88t-121 33q-121 0 -194 -74.5t-73 -206.5 t73 -206.5t194 -74.5q74 0 121 33t82 88q18 27 45 15z" />
<glyph unicode="d" d="M1005 1311q14 0 23 -9.5t9 -23.5v-1246q0 -14 -9 -23t-23 -9h-164q-15 0 -24 9t-9 23v78q-99 -132 -273 -132q-191 0 -325 134t-134 344t134 344t325 134q175 0 273 -131v475q0 14 9 23.5t24 9.5h164zM571 176q111 0 183.5 77t72.5 203t-72.5 203.5t-183.5 77.5 q-108 0 -182 -76t-74 -205t74 -204.5t182 -75.5z" />
<glyph unicode="e" horiz-adv-x="1098" d="M959 236q32 -14 15 -45q-54 -103 -163.5 -158t-250.5 -55q-135 0 -244.5 57.5t-174.5 167.5t-65 253q0 142 65 252t174 168t244 58q98 0 179 -28.5t146 -87t101.5 -160t36.5 -236.5h-712q11 -118 85 -184.5t175 -66.5q150 0 213 113q17 28 45 15zM558 755q-80 0 -143 -49 t-90 -135h445q-8 53 -30 90.5t-52.5 57t-62 28t-67.5 8.5z" />
<glyph unicode="f" horiz-adv-x="724" d="M755 1288q14 -11 16.5 -20.5t-4.5 -25.5l-46 -93q-13 -28 -47 -13q-72 39 -125 39q-147 0 -147 -196v-67h276q15 0 24.5 -9t9.5 -24v-129q0 -15 -9.5 -24.5t-24.5 -9.5h-276v-683q0 -15 -9.5 -24t-24.5 -9h-161q-15 0 -24 9t-9 24v683h-93q-15 0 -24 9.5t-9 24.5v129 q0 15 9 24t24 9h93v93q0 161 97 257t244 96q69 0 136 -20.5t104 -49.5z" />
<glyph unicode="g" horiz-adv-x="1071" d="M1015 963q27 0 27 -26v-144q0 -25 -25 -25q-71 0 -112 -50q16 -46 16 -93q0 -133 -109.5 -221t-283.5 -88h-142q-48 0 -73 -18t-25 -49t25 -49.5t73 -18.5h187q220 0 334 -75t114 -214q0 -135 -114.5 -223t-346.5 -88q-230 0 -345.5 75t-115.5 193q0 127 123 200 q-64 22 -97.5 67t-33.5 107q0 132 148 185q-105 86 -105 217q0 133 109.5 221t284.5 88q168 0 279 -85q38 56 93 85t115 29zM528 482q72 0 123 39t51 104t-51 104.5t-123 39.5t-123 -39.5t-51 -104.5t51 -104t123 -39zM810 -125q0 59 -62.5 97t-187.5 38t-187.5 -38.5 t-62.5 -96.5q0 -63 61.5 -100t188.5 -37t188.5 37t61.5 100z" />
<glyph unicode="h" horiz-adv-x="1104" d="M663 932q169 0 252 -93t83 -257v-550q0 -14 -9 -23t-23 -9h-164q-14 0 -23 9t-9 23v462q0 128 -47 184t-142 56q-105 0 -173 -69t-74 -188v-445q0 -14 -9 -23t-23 -9h-164q-14 0 -23 9t-9 23v1246q0 14 9 23.5t23 9.5h164q14 0 23 -9.5t9 -23.5v-509q54 77 138 120 t191 43z" />
<glyph unicode="i" horiz-adv-x="440" d="M221 1031q-56 0 -96 40t-40 96t40 96.5t96 40.5t96.5 -40.5t40.5 -96.5t-40.5 -96t-96.5 -40zM106 880q0 15 9 23.5t23 8.5h164q14 0 23 -8.5t9 -23.5v-848q0 -14 -9 -23t-23 -9h-164q-14 0 -23 9t-9 23v848z" />
<glyph unicode="j" horiz-adv-x="440" d="M221 1031q-56 0 -96.5 40t-40.5 96t40.5 96.5t96.5 40.5t96 -40.5t40 -96.5t-40 -96t-96 -40zM302 912q14 0 23 -8.5t9 -23.5v-882q0 -178 -98 -287.5t-266 -109.5q-36 0 -36 32v116q0 25 30 32q24 6 38 10.5t36.5 19.5t35 37t22 62.5t9.5 94.5v875q0 15 9 23.5t24 8.5 h164z" />
<glyph unicode="k" horiz-adv-x="1018" d="M106 1278q0 14 9 23.5t23 9.5h164q14 0 23 -9.5t9 -23.5v-1246q0 -14 -9 -23t-23 -9h-164q-14 0 -23 9t-9 23v1246zM764 0q-26 0 -40 20l-351 474l329 399q14 19 42 19h182q21 0 26 -12.5t-8 -27.5l-308 -368l334 -464q13 -17 7 -28.5t-26 -11.5h-187z" />
<glyph unicode="l" horiz-adv-x="440" d="M106 1278q0 14 9 23.5t23 9.5h164q14 0 23 -9.5t9 -23.5v-1246q0 -14 -9 -23t-23 -9h-164q-14 0 -23 9t-9 23v1246z" />
<glyph unicode="m" horiz-adv-x="1692" d="M1270 932q157 0 236.5 -94t79.5 -258v-547q0 -15 -9 -24t-24 -9h-162q-15 0 -24 9t-9 24v463q0 238 -171 238q-91 0 -159 -75.5t-68 -202.5v-423q0 -15 -9 -24t-24 -9h-162q-15 0 -24 9t-9 24v463q0 238 -171 238q-91 0 -159 -75.5t-68 -202.5v-424q0 -14 -9 -23t-23 -9 h-164q-14 0 -23 9t-9 23v848q0 15 9 23.5t23 8.5h164q14 0 23 -8.5t9 -23.5v-111q115 163 309 163q116 0 189.5 -51.5t104.5 -146.5q56 98 144.5 148t188.5 50z" />
<glyph unicode="n" horiz-adv-x="1104" d="M663 932q169 0 252 -93t83 -257v-550q0 -14 -9 -23t-23 -9h-164q-14 0 -23 9t-9 23v462q0 128 -47 184t-142 56q-105 0 -173 -69t-74 -188v-445q0 -14 -9 -23t-23 -9h-164q-14 0 -23 9t-9 23v848q0 15 9 23.5t23 8.5h164q14 0 23 -8.5t9 -23.5v-111q54 77 138 120t191 43 z" />
<glyph unicode="o" d="M571 934q135 0 247 -57.5t180 -168t68 -252.5t-68 -252.5t-180 -168t-247 -57.5t-247 57.5t-180 168t-68 252.5t68 252.5t180 168t247 57.5zM571 175q108 0 182 76t74 205t-74 205t-182 76t-182 -76t-74 -205t74 -205t182 -76z" />
<glyph unicode="p" d="M608 933q191 0 324.5 -133.5t133.5 -343.5t-133.5 -344t-324.5 -134q-176 0 -274 131v-476q0 -14 -8.5 -23t-23.5 -9h-164q-14 0 -23 9t-9 23v1247q0 14 9 23t23 9h164q15 0 23.5 -9t8.5 -23v-78q98 131 274 131zM571 175q108 0 182.5 76t74.5 205t-74.5 204.5 t-182.5 75.5q-111 0 -183.5 -77t-72.5 -203t72.5 -203.5t183.5 -77.5z" />
<glyph unicode="q" d="M1005 908q14 0 23 -9t9 -23v-1246q0 -14 -9 -23t-23 -9h-164q-15 0 -24 9t-9 23v475q-98 -131 -273 -131q-191 0 -325 134t-134 344t134 344t325 134q175 0 273 -131v77q0 14 9 23t24 9h164zM571 172q111 0 183.5 77t72.5 203t-72.5 203.5t-183.5 77.5q-108 0 -182 -76 t-74 -205t74 -204.5t182 -75.5z" />
<glyph unicode="r" horiz-adv-x="683" d="M609 930q19 0 27 -7t8 -25v-182q0 -25 -32 -31q-42 -8 -74.5 -18t-73 -32t-67 -52t-45 -80t-18.5 -114v-357q0 -14 -9 -23t-23 -9h-164q-14 0 -23 9t-9 23v848q0 15 9 23.5t23 8.5h164q14 0 23 -8.5t9 -23.5v-152q49 95 129.5 148.5t145.5 53.5z" />
<glyph unicode="s" horiz-adv-x="926" d="M331 663q0 -29 22.5 -50.5t58.5 -34t82.5 -26.5t95.5 -26.5t95.5 -34.5t82.5 -49.5t58.5 -73.5t22.5 -105q0 -139 -112.5 -212t-280.5 -73q-203 0 -360 99q-28 18 -16 44l50 108q6 15 18.5 20t26.5 -2q50 -29 83.5 -44.5t86.5 -29.5t107 -14q73 0 114.5 20.5t41.5 61.5 q0 28 -22 49.5t-57.5 34.5t-81 27.5t-93 27.5t-93 35.5t-81 50t-57.5 73.5t-22 105q0 134 105 212t280 78q159 0 302 -77q28 -15 15 -44l-49 -109q-13 -30 -43 -14q-117 66 -223 66q-71 0 -114 -25t-43 -68z" />
<glyph unicode="t" horiz-adv-x="852" d="M789 95q14 -29 -14 -46q-120 -71 -255 -71q-158 0 -234.5 90.5t-76.5 257.5v390h-128q-15 0 -24 9.5t-9 24.5v129q0 15 9 24t24 9h128v155q0 25 33 35l155 45q40 12 40 -25v-210h280q15 0 24 -9t9 -24v-129q0 -15 -9 -24.5t-24 -9.5h-280v-356q0 -95 27.5 -140.5 t100.5 -45.5q58 0 129 40q31 17 46 -14z" />
<glyph unicode="u" horiz-adv-x="1104" d="M966 912q14 0 23 -8.5t9 -23.5v-848q0 -14 -9 -23t-23 -9h-164q-14 0 -23 9t-9 23v111q-113 -163 -328 -163q-170 0 -253 93.5t-83 256.5v550q0 14 9 23t23 9h165q14 0 22.5 -9t8.5 -23v-462q0 -128 47.5 -184t142.5 -56q105 0 172.5 68.5t73.5 188.5v445q0 15 9 23.5 t23 8.5h164z" />
<glyph unicode="v" horiz-adv-x="998" d="M948 912q24 0 35.5 -18.5t0.5 -41.5l-434 -858q-5 -12 -22 -12h-56q-15 0 -22 12l-436 858q-11 22 0 41t37 19h181q20 0 28 -19l251 -537l243 537q8 19 29 19h165z" />
<glyph unicode="w" horiz-adv-x="1421" d="M1373 912q22 0 33 -17t3 -39l-337 -861q-6 -13 -21 -13h-49q-17 0 -22 12l-269 508l-271 -507q-7 -13 -21 -13h-48q-16 0 -22 13l-337 861q-8 21 2.5 38.5t33.5 17.5h174q20 0 27 -20l183 -503l232 445q7 16 22 16h50q15 0 22 -16l232 -445l186 503q7 20 27 20h170z" />
<glyph unicode="x" horiz-adv-x="1027" d="M978 40q13 -18 6 -29t-27 -11h-207q-25 0 -40 20l-208 270l-202 -270q-15 -20 -41 -20h-191q-21 0 -26.5 11.5t7.5 28.5l327 415l-320 417q-13 18 -6.5 29t26.5 11h205q25 0 40 -20l199 -259l195 258q14 21 40 21h193q21 0 27 -12t-7 -29l-321 -402z" />
<glyph unicode="y" horiz-adv-x="992" d="M943 912q24 0 35 -18.5t1 -41.5l-401 -828q-56 -116 -104 -190.5t-107 -129.5t-127.5 -79t-158.5 -24q-36 0 -36 32v116q0 28 29 32q90 10 160.5 85.5t168.5 273.5l-388 712q-12 23 -0.5 41.5t36.5 18.5h178q19 0 28 -19l260 -510l237 510q8 19 29 19h160z" />
<glyph unicode="z" horiz-adv-x="1033" d="M93 0q-15 0 -24 8t-9 22v7q0 23 13 40l477 638h-404q-13 0 -22.5 9.5t-9.5 22.5v133q0 13 9.5 22.5t22.5 9.5h750q33 0 33 -28v-9q0 -21 -14 -40l-481 -640h471q13 0 22.5 -10t9.5 -23v-130q0 -13 -9.5 -22.5t-22.5 -9.5h-812z" />
<glyph unicode="{" horiz-adv-x="501" d="M417 1187q-50 -8 -69 -35.5t-19 -79.5q0 -35 20.5 -161.5t20.5 -186.5q0 -206 -146 -246q146 -40 146 -246q0 -60 -20.5 -186t-20.5 -161q0 -52 19 -79.5t69 -35.5q25 -5 25 -28v-74q0 -13 -8 -21t-21 -7q-252 8 -252 232q0 39 20.5 167.5t20.5 187.5q0 97 -30 141.5 t-88 54.5q-24 5 -24 28v55q0 24 24 27q58 7 88 52.5t30 143.5q0 59 -20.5 187.5t-20.5 167.5q0 225 252 233q13 1 21 -7.5t8 -21.5v-74q0 -22 -25 -27z" />
<glyph unicode="|" horiz-adv-x="373" d="M106 1473q0 13 9.5 22.5t22.5 9.5h98q13 0 22.5 -9.5t9.5 -22.5v-1697q0 -13 -9.5 -22.5t-22.5 -9.5h-98q-13 0 -22.5 9.5t-9.5 22.5v1697z" />
<glyph unicode="}" horiz-adv-x="501" d="M417 533q25 -3 25 -27v-55q0 -23 -25 -28q-58 -10 -87.5 -54.5t-29.5 -141.5q0 -59 20.5 -187.5t20.5 -167.5q0 -224 -252 -232q-13 -1 -21 7t-8 21v74q0 23 25 28q50 8 69 35.5t19 79.5q0 35 -20.5 161t-20.5 186q0 206 146 246q-146 40 -146 246q0 60 20.5 186.5 t20.5 161.5q0 52 -19 79.5t-69 35.5q-25 5 -25 27v74q0 13 8 21.5t21 7.5q252 -8 252 -233q0 -39 -20.5 -167.5t-20.5 -187.5q0 -98 29.5 -143.5t87.5 -52.5z" />
<glyph unicode="~" horiz-adv-x="1161" d="M1046 671q22 -12 14 -37q-40 -115 -115.5 -172t-159.5 -57q-69 0 -130 18.5t-98 40t-85.5 40t-95.5 18.5q-99 0 -158 -100q-17 -29 -46 -14l-56 31q-22 12 -14 37q39 115 114.5 172t159.5 57q69 0 130 -18.5t98 -40t85.5 -40t95.5 -18.5q98 0 159 100q17 29 45 14z" />
<glyph unicode="&#xa1;" horiz-adv-x="484" d="M242 934q56 0 96 -40t40 -96t-40 -95.5t-96 -39.5t-95.5 39.5t-39.5 95.5t39.5 96t95.5 40zM128 -304l29 813q1 15 9.5 24t22.5 9h106q14 0 23 -9.5t10 -23.5l28 -813q1 -14 -8 -23t-23 -9h-165q-14 0 -23.5 9t-8.5 23z" />
<glyph unicode="&#xa2;" horiz-adv-x="1056" d="M964 247q31 -15 16 -45q-40 -79 -123.5 -140.5t-206.5 -78.5v-207q0 -13 -10 -22.5t-23 -9.5h-111q-13 0 -22 9.5t-9 22.5v210q-175 29 -287 155.5t-112 314.5t112 314.5t287 155.5v202q0 13 9 22.5t22 9.5h111q13 0 23 -9.5t10 -22.5v-199q122 -17 205.5 -78.5 t124.5 -140.5q15 -30 -16 -45l-134 -64q-26 -12 -45 15q-35 55 -82 88t-121 33q-121 0 -194 -74.5t-73 -206.5t73 -206.5t194 -74.5q74 0 121 33t82 88q18 27 45 15z" />
<glyph unicode="&#xa3;" horiz-adv-x="1162" d="M1052 187q20 5 34 -4.5t14 -29.5v-129q0 -25 -30 -31q-102 -22 -207.5 -22t-190.5 13t-166.5 25t-165 9.5t-157.5 -28.5q-13 -5 -25 -0.5t-16 16.5l-39 107q-4 12 6 25q100 131 124.5 211.5t5.5 162.5h-146q-14 0 -23.5 9.5t-9.5 23.5v96q0 14 9.5 23.5t23.5 9.5h102 q-26 110 -26 224q0 162 114 267.5t324 105.5q153 0 263.5 -51t205.5 -141q30 -27 13 -46l-85 -98q-8 -10 -13.5 -14.5t-15.5 -4.5t-21 9q-78 71 -151 109.5t-167 38.5q-104 0 -165.5 -52.5t-61.5 -146.5q0 -96 27 -200h337q14 0 23 -9.5t9 -23.5v-96q0 -14 -9 -23.5 t-23 -9.5h-296q14 -85 -16.5 -161.5t-134.5 -169.5q65 21 140 23.5t146 -7.5l142 -20t150 -9.5t148 19.5z" />
<glyph unicode="&#xa4;" horiz-adv-x="1481" d="M1364 53q13 -10 14.5 -25t-9.5 -26l-87 -88q-11 -12 -27 -11t-26 15l-138 185q-153 -123 -350 -123t-350 123l-139 -185q-10 -14 -25.5 -15t-26.5 11l-87 88q-11 11 -10 26t14 25l186 138q-122 152 -122 347q0 194 122 346l-186 138q-13 10 -14 25.5t10 26.5l87 88 q11 12 26.5 11t25.5 -15l139 -186q155 124 350 124t350 -124l138 186q10 14 26 15t27 -11l87 -88q11 -11 9.5 -26.5t-14.5 -25.5l-185 -138q122 -153 122 -346q0 -195 -122 -347zM741 165q153 0 253.5 104t100.5 269t-100.5 269t-253.5 104t-253.5 -104t-100.5 -269 t100.5 -269t253.5 -104z" />
<glyph unicode="&#xa5;" horiz-adv-x="1263" d="M1204 1249q20 0 28.5 -11.5t-1.5 -28.5l-389 -627h147q15 0 24 -9.5t9 -24.5v-71q0 -15 -9 -24.5t-24 -9.5h-232l-9 -13v-104h241q15 0 24 -9.5t9 -24.5v-71q0 -15 -9 -24.5t-24 -9.5h-241v-155q0 -13 -9.5 -22.5t-22.5 -9.5h-176q-13 0 -22.5 9.5t-9.5 22.5v155h-242 q-15 0 -24 9.5t-9 24.5v71q0 15 9 24.5t24 9.5h242v96l-13 21h-229q-15 0 -24 9.5t-9 24.5v71q0 15 9 24.5t24 9.5h144l-386 627q-9 17 -1.5 28.5t25.5 11.5h205q24 0 38 -25l343 -588l348 588q14 25 37 25h185z" />
<glyph unicode="&#xa6;" horiz-adv-x="373" d="M106 1473q0 13 9.5 22.5t22.5 9.5h98q13 0 22.5 -9.5t9.5 -22.5v-526q0 -13 -9.5 -22.5t-22.5 -9.5h-98q-13 0 -22.5 9.5t-9.5 22.5v526zM106 303q0 13 9.5 22t22.5 9h98q13 0 22.5 -9t9.5 -22v-527q0 -13 -9.5 -22.5t-22.5 -9.5h-98q-13 0 -22.5 9.5t-9.5 22.5v527z" />
<glyph unicode="&#xa7;" horiz-adv-x="1161" d="M974 136q101 -91 101 -225q0 -185 -137.5 -292.5t-351.5 -107.5q-208 0 -336.5 93.5t-162.5 266.5q-3 17 7 28.5t27 11.5h152q23 0 30 -23q26 -97 91.5 -147t191.5 -50q122 0 191.5 59t69.5 158q0 49 -34 89t-88.5 68.5t-124 55.5t-140 57t-136.5 66t-113.5 88.5t-71 119 t-8.5 163.5t73 216q-101 91 -101 226q0 184 135.5 290.5t348.5 106.5q196 0 322 -93.5t160 -263.5q3 -17 -7 -28.5t-27 -11.5h-153q-22 0 -29 23q-26 95 -89 144.5t-177 49.5q-122 0 -189 -58.5t-67 -158.5q0 -54 49.5 -101t95.5 -68.5t156 -65.5q108 -44 164 -70t136 -85.5 t104.5 -123.5t15 -170t-77.5 -237zM351 739q-20 -61 -20.5 -113.5t13.5 -90.5t45 -72.5t65.5 -58t85 -49t93 -42t99.5 -40.5t96 -43q19 62 19.5 114.5t-13.5 91t-45.5 73t-65.5 58t-84.5 48t-92.5 41.5t-99 40.5t-96 42.5z" />
<glyph unicode="&#xa8;" horiz-adv-x="698" d="M148 1037q-52 0 -89.5 37.5t-37.5 89.5q0 53 37 90.5t90 37.5t90.5 -37.5t37.5 -90.5t-37.5 -90t-90.5 -37zM551 1037q-53 0 -90 37.5t-37 89.5q0 53 37 90.5t90 37.5t90.5 -37.5t37.5 -90.5t-37.5 -90t-90.5 -37z" />
<glyph unicode="&#xa9;" horiz-adv-x="1443" d="M721 1260q173 0 319 -85t231 -231t85 -319t-85 -319t-231 -231t-319 -85q-129 0 -246.5 50t-202.5 135.5t-135 203t-50 246.5t50 246.5t135 203t202.5 135.5t246.5 50zM721 70q112 0 214.5 44t176.5 118t118 177t44 216t-44 216t-118 177t-176.5 118t-214.5 44 q-150 0 -277 -74t-201 -202t-74 -279t74 -279t201 -202t277 -74zM733 885q-106 0 -171.5 -72.5t-65.5 -188.5t66 -189t171 -73q134 0 199 126q11 18 27 11l79 -38q19 -9 10 -27q-95 -190 -315 -190q-100 0 -187 45t-142 133t-55 202q0 85 32 157.5t85.5 120.5t122.5 74.5 t144 26.5q219 0 315 -190q9 -19 -10 -27l-79 -37q-17 -8 -27 9q-65 127 -199 127z" />
<glyph unicode="&#xab;" horiz-adv-x="1050" d="M521 266q10 -7 10 -19v-88q0 -24 -19 -33.5t-39 4.5l-363 266q-10 7 -10 19v111q0 12 10 19l363 267q20 14 39 4t19 -35v-87q0 -12 -10 -19l-251 -204zM950 694q0 -12 -10 -19l-251 -204l251 -205q10 -7 10 -19v-88q0 -24 -19 -33.5t-39 4.5l-364 266q-9 6 -9 19v111 q0 13 9 19l364 267q20 14 39 4t19 -35v-87z" />
<glyph unicode="&#xac;" horiz-adv-x="1073" d="M941 646q15 0 24 -9.5t9 -24.5v-106v-225q0 -14 -9 -23t-23 -9h-122q-14 0 -23 9t-9 23v192h-655q-15 0 -24 9t-9 24v106q0 15 9 24.5t24 9.5h808z" />
<glyph unicode="&#xad;" horiz-adv-x="977" d="M133 403q-15 0 -24 9.5t-9 24.5v129q0 15 9 24.5t24 9.5h712q15 0 24.5 -9.5t9.5 -24.5v-129q0 -15 -9.5 -24.5t-24.5 -9.5h-712z" />
<glyph unicode="&#xae;" horiz-adv-x="1443" d="M721 1260q173 0 319 -85t231 -231t85 -319t-85 -319t-231 -231t-319 -85q-129 0 -246.5 50t-202.5 135.5t-135 203t-50 246.5t50 246.5t135 203t202.5 135.5t246.5 50zM721 70q112 0 214.5 44t176.5 118t118 177t44 216t-44 216t-118 177t-176.5 118t-214.5 44 q-150 0 -277 -74t-201 -202t-74 -279t74 -279t201 -202t277 -74zM891 534l158 -239q9 -14 2.5 -26t-23.5 -12h-104q-10 0 -15 8l-159 250h-158v-239q0 -8 -6 -13.5t-13 -5.5h-103q-8 0 -13.5 5.5t-5.5 13.5v695q0 7 5.5 13t13.5 6h103h188q139 0 215.5 -66t76.5 -172 q0 -77 -42 -134.5t-120 -83.5zM592 629h142q172 0 172 123q0 124 -172 124h-142v-247z" />
<glyph unicode="&#xaf;" horiz-adv-x="594" d="M-18 1211q0 13 10 23t24 10h564q14 0 23.5 -10t9.5 -23v-88q0 -13 -9.5 -23t-23.5 -10h-564q-14 0 -24 10t-10 23v88z" />
<glyph unicode="&#xb0;" horiz-adv-x="500" d="M246 881q-94 0 -161 66t-67 159q0 94 67 160.5t161 66.5t161 -66.5t67 -160.5q0 -93 -67 -159t-161 -66zM246 1028q33 0 55.5 23.5t22.5 54.5q0 33 -22.5 57t-55.5 24t-55 -23.5t-22 -57.5q0 -32 22 -55t55 -23z" />
<glyph unicode="&#xb1;" horiz-adv-x="1073" d="M941 747q15 0 24 -9t9 -24v-106q0 -15 -9 -24.5t-24 -9.5h-318v-317q0 -15 -9 -24t-24 -9h-106q-15 0 -24 9t-9 24v317h-318q-15 0 -24 9.5t-9 24.5v106q0 15 9 24t24 9h318v317q0 15 9 24.5t24 9.5h106q15 0 24 -9.5t9 -24.5v-317h318zM941 173q15 0 24 -9.5t9 -24.5 v-106q0 -15 -9 -24t-24 -9h-808q-15 0 -24 9t-9 24v106q0 15 9 24.5t24 9.5h808z" />
<glyph unicode="&#xb4;" horiz-adv-x="497" d="M86 1016q-12 -7 -26 -2.5t-21 16.5l-39 73q-6 10 -2 24t16 22l364 231q12 6 26 2.5t21 -14.5l63 -114q6 -11 3 -25t-16 -20z" />
<glyph unicode="&#xb6;" horiz-adv-x="1158" d="M1020 1249q13 0 22.5 -9.5t9.5 -22.5v-1441q0 -13 -9.5 -22.5t-22.5 -9.5h-30q-13 0 -23 9.5t-10 22.5v1383h-423v-1383q0 -13 -10 -22.5t-23 -9.5h-30q-13 0 -22.5 9.5t-9.5 22.5v707q-148 12 -250 121.5t-102 260.5q0 159 112.5 271.5t271.5 112.5h519h30z" />
<glyph unicode="&#xb7;" horiz-adv-x="484" d="M242 329q-56 0 -96 40t-40 96t40 96.5t96 40.5t96.5 -40.5t40.5 -96.5t-40.5 -96t-96.5 -40z" />
<glyph unicode="&#xb8;" horiz-adv-x="1228" d="M171 -451q-95 0 -156 42q-27 19 -14 47l13 30q14 31 47 16q57 -27 98 -27q43 0 72 20.5t29 62.5q0 32 -17 49t-48.5 20t-60 0.5t-67.5 -8.5q-7 -1 -11 -2q-22 -3 -31 5.5t-1 28.5l68 187h122l-43 -117q109 19 178 -22t69 -132q0 -93 -71.5 -146.5t-175.5 -53.5z" />
<glyph unicode="&#xbb;" horiz-adv-x="1050" d="M531 415q0 -13 -9 -19l-364 -266q-20 -14 -39 -4.5t-19 33.5v88q0 11 11 19l250 205l-250 204q-11 8 -11 19v87q0 25 19 35t39 -4l364 -267q9 -6 9 -19v-111zM941 545q9 -6 9 -19v-111q0 -13 -9 -19l-364 -266q-20 -14 -39 -4.5t-19 33.5v88q0 12 10 19l251 205l-251 204 q-10 7 -10 19v87q0 25 19 35t39 -4z" />
<glyph unicode="&#xbc;" horiz-adv-x="1886" d="M1128 1319q6 12 18.5 16.5t24.5 -0.5l75 -35q12 -5 16.5 -18t-0.5 -25l-631 -1352q-6 -11 -18.5 -16t-24.5 0l-75 35q-12 6 -16.5 19t0.5 24zM474 1227q8 0 14.5 -6.5t6.5 -14.5v-779q0 -8 -6.5 -14.5t-14.5 -6.5h-116q-8 0 -14.5 6.5t-6.5 14.5v646l-133 -66 q-18 -10 -29 10l-36 77q-9 19 10 28l197 99q10 6 26 6h102zM1804 297q22 0 22 -22v-80q0 -21 -22 -21h-103v-153q0 -8 -6.5 -14.5t-14.5 -6.5h-111q-8 0 -14.5 6.5t-6.5 14.5v153h-416q-21 0 -21 21v70q0 8 3 11l435 532q11 13 26 13h105q8 0 14.5 -6.5t6.5 -14.5v-503h103z M1289 297h259v317z" />
<glyph unicode="&#xbd;" horiz-adv-x="1889" d="M1246 1300q12 -5 16.5 -18t-0.5 -25l-631 -1352q-6 -11 -18.5 -16t-24.5 0l-75 35q-12 6 -16.5 19t0.5 24l631 1352q6 12 18.5 16.5t24.5 -0.5zM495 1206v-779q0 -8 -6.5 -14.5t-14.5 -6.5h-116q-8 0 -14.5 6.5t-6.5 14.5v646l-133 -66q-18 -10 -29 10l-36 77 q-9 19 10 28l197 99q10 6 26 6h102q8 0 14.5 -6.5t6.5 -14.5zM1809 124q8 0 14.5 -6t6.5 -15v-86q0 -8 -6.5 -14.5t-14.5 -6.5h-575q-22 0 -22 22v27q0 17 10 26q250 194 339.5 304.5t89.5 198.5q0 63 -35 95.5t-102 32.5q-62 0 -109.5 -25.5t-99.5 -72.5q-16 -14 -33 7 l-56 64q-10 12 9 31q62 59 135 93t173 34q137 0 206.5 -67.5t69.5 -175.5q0 -118 -76.5 -222t-250.5 -244h327z" />
<glyph unicode="&#xbe;" horiz-adv-x="2060" d="M1275 1319q6 12 18.5 16.5t24.5 -0.5l75 -35q12 -5 16.5 -18t-0.5 -25l-631 -1352q-6 -11 -18.5 -16t-24.5 0l-75 35q-12 6 -16.5 19t0.5 24zM564 829q168 -54 168 -201q0 -107 -86.5 -171.5t-235.5 -64.5q-110 0 -183.5 33t-136.5 93q-19 19 -9 30l59 71q9 11 15 12.5 t17 -6.5q32 -27 48.5 -39.5t46.5 -30.5t63.5 -25.5t73.5 -7.5q75 0 122 29t47 82q0 23 -10.5 44.5t-34 43t-72 35t-115.5 15.5q-23 2 -23 21v61q0 19 22 21q116 3 166 40.5t50 88.5q0 52 -37.5 80.5t-108.5 28.5q-61 0 -105 -20t-102 -62q-12 -7 -17.5 -6t-14.5 12l-53 63 q-11 15 9 31q131 112 305 112q138 0 208 -63t70 -153q0 -63 -37 -114t-109 -83zM1951 297q22 0 22 -22v-80q0 -21 -22 -21h-103v-153q0 -8 -6.5 -14.5t-14.5 -6.5h-111q-8 0 -14.5 6.5t-6.5 14.5v153h-416q-22 0 -22 21v70q0 7 4 11l435 532q11 13 26 13h105q8 0 14.5 -6.5 t6.5 -14.5v-503h103zM1436 297h259v317z" />
<glyph unicode="&#xbf;" horiz-adv-x="884" d="M439 934q56 0 95.5 -40t39.5 -96t-39.5 -95.5t-95.5 -39.5t-95.5 39.5t-39.5 95.5t39.5 96t95.5 40zM256 2q0 -164 193 -164q84 0 147.5 30.5t125.5 85.5q19 13 28 10t22 -19l79 -93q3 -3 4.5 -6.5t2 -6t-1 -6t-2 -5.5t-4 -6t-4.5 -5l-5 -5l-5 -5q-170 -165 -419 -165 q-187 0 -293 81t-106 231q0 62 18.5 114t47.5 89t65 70t71.5 63.5t65.5 62t49 73t20 89.5q2 26 27 26h115q26 0 26 -40q0 -64 -27.5 -122.5t-66.5 -102.5t-78.5 -85.5t-67 -90t-27.5 -98.5z" />
<glyph unicode="&#xc0;" horiz-adv-x="1337" d="M326 1546q-13 6 -16.5 20t2.5 25l63 114q7 11 21 14.5t26 -2.5l364 -230q12 -8 16 -22.5t-2 -24.5l-39 -72q-7 -12 -21 -16.5t-26 2.5zM1307 40q8 -19 1 -29.5t-25 -10.5h-203q-28 0 -38 25l-108 256h-549l-117 -256q-11 -25 -38 -25h-181q-19 0 -27 11t0 29l567 1202 q11 25 38 25h97q27 0 38 -25zM467 461h390l-188 443z" />
<glyph unicode="&#xc1;" horiz-adv-x="1337" d="M538 1368l-40 72q-5 10 -1 24.5t16 22.5l364 230q12 6 25.5 2.5t20.5 -14.5l64 -114q6 -11 2.5 -25t-16.5 -20l-389 -192q-12 -7 -25.5 -2.5t-20.5 16.5zM1307 40q8 -19 1 -29.5t-25 -10.5h-203q-28 0 -38 25l-108 256h-549l-117 -256q-11 -25 -38 -25h-181q-19 0 -27 11 t0 29l567 1202q11 25 38 25h97q27 0 38 -25zM467 461h390l-188 443z" />
<glyph unicode="&#xc2;" horiz-adv-x="1337" d="M382 1370q-22 0 -27.5 12.5t9.5 27.5l214 234q17 17 42 17h102q25 0 42 -17l214 -234q15 -15 10 -27.5t-27 -12.5h-155q-26 0 -42 20l-93 120l-93 -120q-16 -20 -42 -20h-154zM1307 40q8 -19 1 -29.5t-25 -10.5h-203q-28 0 -38 25l-108 256h-549l-117 -256 q-11 -25 -38 -25h-181q-19 0 -27 11t0 29l567 1202q11 25 38 25h97q27 0 38 -25zM467 461h390l-188 443z" />
<glyph unicode="&#xc3;" horiz-adv-x="1337" d="M371 1382q-16 0 -24.5 9t-7.5 26q8 114 64.5 171t137.5 57q50 0 90.5 -17t62 -37t50 -37t57.5 -17q71 0 82 75q6 33 36 33h52q15 0 24 -14.5t7 -40.5q-13 -105 -68 -156.5t-133 -51.5q-41 0 -75 11.5t-56 27.5t-41.5 32t-41.5 27.5t-46 11.5q-71 0 -82 -78 q-4 -32 -36 -32h-52zM1307 40q8 -19 1 -29.5t-25 -10.5h-203q-28 0 -38 25l-108 256h-549l-117 -256q-11 -25 -38 -25h-181q-19 0 -27 11t0 29l567 1202q11 25 38 25h97q27 0 38 -25zM467 461h390l-188 443z" />
<glyph unicode="&#xc4;" horiz-adv-x="1337" d="M470 1375q-52 0 -89.5 37.5t-37.5 89.5q0 53 37 90.5t90 37.5t90.5 -37.5t37.5 -90.5t-37.5 -90t-90.5 -37zM873 1375q-53 0 -90 37.5t-37 89.5q0 53 37 90.5t90 37.5t90.5 -37.5t37.5 -90.5t-37.5 -90t-90.5 -37zM1307 40q8 -19 1 -29.5t-25 -10.5h-203q-28 0 -38 25 l-108 256h-549l-117 -256q-11 -25 -38 -25h-181q-19 0 -27 11t0 29l567 1202q11 25 38 25h97q27 0 38 -25zM467 461h390l-188 443z" />
<glyph unicode="&#xc5;" horiz-adv-x="1335" d="M1307 40q8 -19 1 -29.5t-25 -10.5h-203q-28 0 -38 25l-108 256h-549l-117 -256q-11 -25 -38 -25h-181q-19 0 -27 11t0 29l550 1168q-57 28 -92.5 82.5t-35.5 120.5q0 94 67 160t161 66t161 -66t67 -160q0 -65 -33.5 -119t-89.5 -82zM672 1512q-41 0 -69 -30t-28 -71 t28 -70.5t69 -29.5q42 0 70 29.5t28 70.5t-28 71t-70 30zM467 461h390l-188 443z" />
<glyph unicode="&#xc6;" horiz-adv-x="1879" d="M1741 199q14 0 23.5 -9.5t9.5 -23.5v-134q0 -14 -9.5 -23t-23.5 -9h-825h-107q-13 0 -22.5 9.5t-9.5 22.5v249h-360l-144 -262q-11 -19 -39 -19h-186q-19 0 -28 13t1 32l671 1185q11 19 39 19h85h169h736q14 0 23 -9t9 -23v-134q0 -14 -9 -23t-23 -9h-704v-316h622 q14 0 23 -9t9 -23v-129q0 -15 -9 -23.5t-23 -8.5h-622v-343h724zM517 461h260v469z" />
<glyph unicode="&#xc7;" horiz-adv-x="1359" d="M1263 348q31 -14 15 -46q-151 -299 -478 -322l-28 -77q109 19 178 -22t69 -132q0 -93 -71.5 -146.5t-175.5 -53.5q-95 0 -156 42q-27 19 -14 47l13 30q14 31 47 16q57 -27 98 -27q43 0 72 20.5t29 62.5q0 32 -17 49t-48.5 20t-60 0.5t-67.5 -8.5q-7 -1 -11 -2 q-22 -3 -31 5.5t-1 28.5l54 148q-118 11 -224.5 61t-188.5 130.5t-130.5 198t-48.5 254.5q0 146 55 269.5t146.5 204.5t209.5 126.5t245 45.5q372 0 535 -323q16 -32 -15 -46l-135 -64q-29 -14 -47 17q-110 215 -338 215q-180 0 -292.5 -124t-112.5 -321t112.5 -321.5 t292.5 -124.5q228 0 338 216q18 32 47 17z" />
<glyph unicode="&#xc8;" horiz-adv-x="1188" d="M261 1546q-13 6 -16.5 20t2.5 25l64 114q7 11 20.5 14.5t25.5 -2.5l364 -230q12 -8 16 -22.5t-1 -24.5l-40 -72q-7 -12 -20.5 -16.5t-25.5 2.5zM1071 199q14 0 23 -9.5t9 -23.5v-134q0 -14 -9 -23t-23 -9h-826h-107q-13 0 -22.5 9.5t-9.5 22.5v1185q0 13 9.5 22.5 t22.5 9.5h176h736q14 0 23 -9t9 -23v-134q0 -14 -9 -23t-23 -9h-704v-316h622q14 0 23 -9t9 -23v-129q0 -15 -9 -23.5t-23 -8.5h-622v-343h725z" />
<glyph unicode="&#xc9;" horiz-adv-x="1188" d="M473 1368l-39 72q-6 10 -2 24.5t16 22.5l364 230q12 6 26 2.5t21 -14.5l63 -114q6 -11 2.5 -25t-16.5 -20l-388 -192q-12 -7 -26 -2.5t-21 16.5zM1071 199q14 0 23 -9.5t9 -23.5v-134q0 -14 -9 -23t-23 -9h-826h-107q-13 0 -22.5 9.5t-9.5 22.5v1185q0 13 9.5 22.5 t22.5 9.5h176h736q14 0 23 -9t9 -23v-134q0 -14 -9 -23t-23 -9h-704v-316h622q14 0 23 -9t9 -23v-129q0 -15 -9 -23.5t-23 -8.5h-622v-343h725z" />
<glyph unicode="&#xca;" horiz-adv-x="1188" d="M317 1370q-22 0 -27 12.5t10 27.5l213 234q17 17 43 17h102q25 0 42 -17l213 -234q15 -15 10 -27.5t-27 -12.5h-154q-26 0 -42 20l-93 120l-94 -120q-16 -20 -42 -20h-154zM1071 199q14 0 23 -9.5t9 -23.5v-134q0 -14 -9 -23t-23 -9h-826h-107q-13 0 -22.5 9.5t-9.5 22.5 v1185q0 13 9.5 22.5t22.5 9.5h176h736q14 0 23 -9t9 -23v-134q0 -14 -9 -23t-23 -9h-704v-316h622q14 0 23 -9t9 -23v-129q0 -15 -9 -23.5t-23 -8.5h-622v-343h725z" />
<glyph unicode="&#xcb;" horiz-adv-x="1188" d="M406 1375q-52 0 -89.5 37.5t-37.5 89.5q0 53 37 90.5t90 37.5t90.5 -37.5t37.5 -90.5t-37.5 -90t-90.5 -37zM809 1375q-53 0 -90 37.5t-37 89.5q0 53 37 90.5t90 37.5t90.5 -37.5t37.5 -90.5t-37.5 -90t-90.5 -37zM1071 199q14 0 23 -9.5t9 -23.5v-134q0 -14 -9 -23 t-23 -9h-826h-107q-13 0 -22.5 9.5t-9.5 22.5v1185q0 13 9.5 22.5t22.5 9.5h176h736q14 0 23 -9t9 -23v-134q0 -14 -9 -23t-23 -9h-704v-316h622q14 0 23 -9t9 -23v-129q0 -15 -9 -23.5t-23 -8.5h-622v-343h725z" />
<glyph unicode="&#xcc;" horiz-adv-x="451" d="M269 1354l-389 192q-13 6 -16.5 20t2.5 25l64 114q7 11 20.5 14.5t25.5 -2.5l364 -230q12 -8 16 -22.5t-1 -24.5l-40 -72q-7 -12 -20.5 -16.5t-25.5 2.5zM106 1217q0 13 9.5 22.5t22.5 9.5h176q13 0 22.5 -9.5t9.5 -22.5v-1185q0 -13 -9.5 -22.5t-22.5 -9.5h-176 q-13 0 -22.5 9.5t-9.5 22.5v1185z" />
<glyph unicode="&#xcd;" horiz-adv-x="451" d="M139 1354q-12 -7 -26 -2.5t-21 16.5l-39 72q-6 10 -2 24.5t16 22.5l364 230q12 6 26 2.5t21 -14.5l63 -114q6 -11 2.5 -25t-16.5 -20zM106 1217q0 13 9.5 22.5t22.5 9.5h176q13 0 22.5 -9.5t9.5 -22.5v-1185q0 -13 -9.5 -22.5t-22.5 -9.5h-176q-13 0 -22.5 9.5t-9.5 22.5 v1185z" />
<glyph unicode="&#xce;" horiz-adv-x="451" d="M319 1390l-93 120l-94 -120q-16 -20 -42 -20h-153q-22 0 -27.5 12.5t9.5 27.5l213 234q17 17 43 17h102q25 0 42 -17l213 -234q15 -15 10 -27.5t-27 -12.5h-154q-26 0 -42 20zM106 1217q0 13 9.5 22.5t22.5 9.5h176q13 0 22.5 -9.5t9.5 -22.5v-1185q0 -13 -9.5 -22.5 t-22.5 -9.5h-176q-13 0 -22.5 9.5t-9.5 22.5v1185z" />
<glyph unicode="&#xcf;" horiz-adv-x="451" d="M25 1375q-53 0 -90 37.5t-37 89.5q0 53 37 90.5t90 37.5t90.5 -37.5t37.5 -90.5t-37.5 -90t-90.5 -37zM428 1375q-52 0 -89.5 37.5t-37.5 89.5q0 53 37 90.5t90 37.5t90.5 -37.5t37.5 -90.5t-37.5 -90t-90.5 -37zM106 1217q0 13 9.5 22.5t22.5 9.5h176q13 0 22.5 -9.5 t9.5 -22.5v-1185q0 -13 -9.5 -22.5t-22.5 -9.5h-176q-13 0 -22.5 9.5t-9.5 22.5v1185z" />
<glyph unicode="&#xd0;" horiz-adv-x="1381" d="M641 1249q134 0 252 -42t208 -119.5t142 -197t52 -265.5t-52 -265.5t-142 -197.5t-208 -120t-252 -42h-400h-103q-13 0 -22.5 9.5t-9.5 22.5v504h-138q-15 0 -24.5 9t-9.5 24v100q0 15 9.5 24.5t24.5 9.5h138v514q0 13 9.5 22.5t22.5 9.5h176h327zM620 199 q194 0 308.5 115t114.5 311t-114.5 311t-308.5 115h-274v-348h318q15 0 24 -9.5t9 -24.5v-100q0 -15 -9 -24t-24 -9h-318v-337h274z" />
<glyph unicode="&#xd1;" horiz-adv-x="1403" d="M422 1382q-34 0 -31 35q8 114 64 171t137 57q50 0 90.5 -17t62 -37t50 -37t57.5 -17q71 0 82 75q6 33 36 33h52q16 0 25 -15t7 -40q-13 -105 -68.5 -156.5t-133.5 -51.5q-41 0 -75 11.5t-56 27.5t-41.5 32t-41.5 27.5t-46 11.5q-71 0 -82 -78q-4 -32 -36 -32h-52z M1264 1249q15 0 24 -9t9 -24v-1200q0 -15 -9 -24.5t-24 -9.5h-25q-27 0 -42 15l-851 807v-771q0 -15 -9.5 -24t-24.5 -9h-173q-15 0 -24 9t-9 24v1200q0 15 9 24.5t24 9.5h26q27 0 42 -15l851 -807v771q0 15 9 24t24 9h173z" />
<glyph unicode="&#xd2;" horiz-adv-x="1485" d="M786 1354l-389 192q-13 6 -16.5 20t2.5 25l64 114q7 11 21 14.5t26 -2.5l364 -230q12 -8 16 -22.5t-2 -24.5l-39 -72q-7 -12 -21 -16.5t-26 2.5zM743 1271q127 0 245 -45.5t209.5 -126.5t146.5 -204.5t55 -269.5t-55 -269.5t-146.5 -205t-209.5 -127t-245 -45.5 q-128 0 -246 45.5t-209 127t-146 205t-55 269.5t55 269.5t146 204.5t209 126.5t246 45.5zM743 179q180 0 292 124.5t112 321.5t-112 321t-292 124t-292.5 -124t-112.5 -321t112.5 -321.5t292.5 -124.5z" />
<glyph unicode="&#xd3;" horiz-adv-x="1485" d="M656 1354q-12 -7 -26 -2.5t-21 16.5l-39 72q-6 10 -2 24.5t16 22.5l364 230q12 6 26 2.5t21 -14.5l63 -114q6 -11 2.5 -25t-16.5 -20zM743 1271q127 0 245 -45.5t209.5 -126.5t146.5 -204.5t55 -269.5t-55 -269.5t-146.5 -205t-209.5 -127t-245 -45.5q-128 0 -246 45.5 t-209 127t-146 205t-55 269.5t55 269.5t146 204.5t209 126.5t246 45.5zM743 179q180 0 292 124.5t112 321.5t-112 321t-292 124t-292.5 -124t-112.5 -321t112.5 -321.5t292.5 -124.5z" />
<glyph unicode="&#xd4;" horiz-adv-x="1485" d="M836 1390l-93 120l-94 -120q-16 -20 -42 -20h-153q-22 0 -27.5 12.5t9.5 27.5l213 234q17 17 43 17h102q25 0 42 -17l214 -234q15 -15 9.5 -27.5t-27.5 -12.5h-154q-26 0 -42 20zM743 1271q127 0 245 -45.5t209.5 -126.5t146.5 -204.5t55 -269.5t-55 -269.5t-146.5 -205 t-209.5 -127t-245 -45.5q-128 0 -246 45.5t-209 127t-146 205t-55 269.5t55 269.5t146 204.5t209 126.5t246 45.5zM743 179q180 0 292 124.5t112 321.5t-112 321t-292 124t-292.5 -124t-112.5 -321t112.5 -321.5t292.5 -124.5z" />
<glyph unicode="&#xd5;" horiz-adv-x="1485" d="M443 1382q-16 0 -24.5 9t-7.5 26q8 114 64 171t137 57q50 0 91 -17t62.5 -37t50 -37t57.5 -17q71 0 82 75q6 33 36 33h51q16 0 25 -15t7 -40q-13 -105 -68 -156.5t-133 -51.5q-41 0 -75 11.5t-56 27.5t-41.5 32t-42 27.5t-46.5 11.5q-71 0 -82 -78q-4 -32 -35 -32h-52z M743 1271q127 0 245 -45.5t209.5 -126.5t146.5 -204.5t55 -269.5t-55 -269.5t-146.5 -205t-209.5 -127t-245 -45.5q-128 0 -246 45.5t-209 127t-146 205t-55 269.5t55 269.5t146 204.5t209 126.5t246 45.5zM743 179q180 0 292 124.5t112 321.5t-112 321t-292 124 t-292.5 -124t-112.5 -321t112.5 -321.5t292.5 -124.5z" />
<glyph unicode="&#xd6;" horiz-adv-x="1485" d="M542 1375q-52 0 -89.5 37.5t-37.5 89.5q0 53 37 90.5t90 37.5t90.5 -37.5t37.5 -90.5t-37.5 -90t-90.5 -37zM945 1375q-53 0 -90 37.5t-37 89.5q0 53 37 90.5t90 37.5t90.5 -37.5t37.5 -90.5t-37.5 -90t-90.5 -37zM743 1271q127 0 245 -45.5t209.5 -126.5t146.5 -204.5 t55 -269.5t-55 -269.5t-146.5 -205t-209.5 -127t-245 -45.5q-128 0 -246 45.5t-209 127t-146 205t-55 269.5t55 269.5t146 204.5t209 126.5t246 45.5zM743 179q180 0 292 124.5t112 321.5t-112 321t-292 124t-292.5 -124t-112.5 -321t112.5 -321.5t292.5 -124.5z" />
<glyph unicode="&#xd7;" horiz-adv-x="1059" d="M652 534l297 -297q23 -23 0 -47l-75 -75q-10 -11 -24 -11t-24 11l-296 297l-297 -297q-23 -23 -48 0l-74 75q-24 23 0 47l297 297l-297 296q-24 24 0 48l74 75q24 24 48 0l297 -297l296 297q24 23 47 0l76 -75q23 -23 0 -48z" />
<glyph unicode="&#xd8;" horiz-adv-x="1485" d="M1260 1033q139 -171 139 -408q0 -146 -55 -269.5t-146.5 -205t-209.5 -127t-245 -45.5q-229 0 -406 132l-90 -90q-25 -23 -48 0l-65 66q-23 23 0 47l88 88q-135 171 -135 404q0 146 55 269.5t146 204.5t209 126.5t246 45.5q225 0 401 -128l104 104q24 23 47 0l66 -66 q23 -23 -1 -47zM338 625q0 -131 53 -235l598 599q-103 81 -246 81q-180 0 -292.5 -124t-112.5 -321zM743 179q180 0 292 124.5t112 321.5q0 136 -55 240l-600 -600q105 -86 251 -86z" />
<glyph unicode="&#xd9;" horiz-adv-x="1364" d="M337 1546q-13 6 -16.5 20t2.5 25l64 114q7 11 20.5 14.5t25.5 -2.5l364 -230q12 -8 16 -22.5t-1 -24.5l-40 -72q-7 -12 -20.5 -16.5t-25.5 2.5zM1227 1249q13 0 23 -9.5t10 -22.5v-685q0 -111 -29 -202.5t-80.5 -156t-124 -108.5t-159 -64.5t-185.5 -20.5 q-124 0 -227.5 33.5t-182 99.5t-122.5 173t-44 246v685q0 13 9.5 22.5t22.5 9.5h176q13 0 22.5 -9.5t9.5 -22.5v-635q0 -401 336 -401q337 0 337 401v635q0 13 10 22.5t23 9.5h175z" />
<glyph unicode="&#xda;" horiz-adv-x="1364" d="M549 1368l-40 72q-5 10 -1 24.5t16 22.5l364 230q12 6 25.5 2.5t20.5 -14.5l64 -114q6 -11 2.5 -25t-16.5 -20l-389 -192q-12 -7 -25.5 -2.5t-20.5 16.5zM1227 1249q13 0 23 -9.5t10 -22.5v-685q0 -111 -29 -202.5t-80.5 -156t-124 -108.5t-159 -64.5t-185.5 -20.5 q-124 0 -227.5 33.5t-182 99.5t-122.5 173t-44 246v685q0 13 9.5 22.5t22.5 9.5h176q13 0 22.5 -9.5t9.5 -22.5v-635q0 -401 336 -401q337 0 337 401v635q0 13 10 22.5t23 9.5h175z" />
<glyph unicode="&#xdb;" horiz-adv-x="1364" d="M393 1370q-22 0 -27.5 12.5t9.5 27.5l214 234q17 17 42 17h103q25 0 42 -17l213 -234q15 -15 10 -27.5t-27 -12.5h-154q-26 0 -42 20l-94 120l-93 -120q-16 -20 -42 -20h-154zM1227 1249q13 0 23 -9.5t10 -22.5v-685q0 -111 -29 -202.5t-80.5 -156t-124 -108.5 t-159 -64.5t-185.5 -20.5q-124 0 -227.5 33.5t-182 99.5t-122.5 173t-44 246v685q0 13 9.5 22.5t22.5 9.5h176q13 0 22.5 -9.5t9.5 -22.5v-635q0 -401 336 -401q337 0 337 401v635q0 13 10 22.5t23 9.5h175z" />
<glyph unicode="&#xdc;" horiz-adv-x="1364" d="M481 1375q-53 0 -90 37.5t-37 89.5q0 53 37 90.5t90 37.5t90.5 -37.5t37.5 -90.5t-37.5 -90t-90.5 -37zM885 1375q-53 0 -90 37.5t-37 89.5q0 53 37 90.5t90 37.5t90.5 -37.5t37.5 -90.5t-37.5 -90t-90.5 -37zM1227 1249q13 0 23 -9.5t10 -22.5v-685q0 -111 -29 -202.5 t-80.5 -156t-124 -108.5t-159 -64.5t-185.5 -20.5q-124 0 -227.5 33.5t-182 99.5t-122.5 173t-44 246v685q0 13 9.5 22.5t22.5 9.5h176q13 0 22.5 -9.5t9.5 -22.5v-635q0 -401 336 -401q337 0 337 401v635q0 13 10 22.5t23 9.5h175z" />
<glyph unicode="&#xdd;" horiz-adv-x="1263" d="M500 1368l-40 72q-5 10 -1 24.5t16 22.5l364 230q12 6 25.5 2.5t20.5 -14.5l64 -114q6 -11 2.5 -25t-16.5 -20l-389 -192q-12 -7 -25.5 -2.5t-20.5 16.5zM1204 1249q20 0 28.5 -11.5t-1.5 -28.5l-483 -779v-398q0 -13 -9.5 -22.5t-22.5 -9.5h-176q-13 0 -22.5 9.5 t-9.5 22.5v390l-484 787q-9 17 -1.5 28.5t25.5 11.5h205q24 0 38 -25l343 -588l348 588q14 25 37 25h185z" />
<glyph unicode="&#xde;" horiz-adv-x="1202" d="M654 1040q120 0 215.5 -32t156.5 -88.5t93 -131.5t32 -163t-32 -163t-93 -132t-156.5 -89t-215.5 -32h-308v-177q0 -13 -9.5 -22.5t-22.5 -9.5h-176q-13 0 -22.5 9.5t-9.5 22.5v1185q0 13 9.5 22.5t22.5 9.5h176q13 0 22.5 -9.5t9.5 -22.5v-177h308zM608 406 q156 0 224.5 59.5t68.5 159.5t-68.5 159.5t-224.5 59.5h-262v-438h262z" />
<glyph unicode="&#xdf;" horiz-adv-x="1186" d="M803 690q0 -34 18.5 -60.5t48.5 -45t66 -36t71.5 -40t65.5 -51.5t48.5 -75.5t18.5 -106.5q0 -75 -28.5 -133.5t-77.5 -93.5t-109.5 -52.5t-129.5 -17.5q-87 0 -179 29.5t-150 70.5q-25 18 -14 45l44 108q14 34 40 17q48 -30 77 -45t75.5 -29.5t91.5 -14.5q71 0 108 29 t37 74q0 31 -19.5 55.5t-50.5 42t-69 34.5t-75.5 38.5t-68.5 48t-50.5 68.5t-19.5 96q0 48 16 92.5t36 74t36 74.5t16 94q0 88 -46.5 141.5t-124.5 53.5t-124.5 -54t-46.5 -142v-947q0 -14 -9 -23t-23 -9h-164q-14 0 -23 9t-9 23v966q0 160 114.5 260t284.5 100 q168 0 281 -97.5t113 -258.5q0 -55 -15 -104t-33 -78.5t-33 -64.5t-15 -65z" />
<glyph unicode="&#xe0;" horiz-adv-x="971" d="M146 1209q-13 6 -16 20t3 25l63 114q7 11 21 14.5t26 -2.5l364 -231q12 -8 16 -22t-2 -24l-39 -73q-7 -12 -21 -16.5t-26 2.5zM916 58q12 -35 -20 -46l-119 -38q-17 -5 -32 7q-19 16 -42.5 51.5t-38.5 78.5q-48 -62 -122 -97.5t-167 -35.5q-141 0 -225 78.5t-84 195.5 q0 164 159.5 247.5t418.5 33.5v18q0 107 -41.5 147.5t-139.5 40.5q-112 0 -235 -53q-13 -5 -25.5 0t-18.5 18l-50 109q-7 15 -2 26.5t18 17.5q162 77 346 77q203 0 288.5 -92.5t85.5 -267.5v-263q0 -82 10 -131.5t36 -121.5zM440 157q86 0 145 57.5t59 138.5v37 q-98 19 -164.5 18.5t-107.5 -21t-59 -48.5t-18 -65q0 -57 42 -87t103 -30z" />
<glyph unicode="&#xe1;" horiz-adv-x="971" d="M358 1030l-39 73q-6 10 -2 24t16 22l364 231q12 6 26 2.5t21 -14.5l63 -114q6 -11 3 -25t-16 -20l-389 -193q-12 -7 -26 -2.5t-21 16.5zM916 58q12 -35 -20 -46l-119 -38q-17 -5 -32 7q-19 16 -42.5 51.5t-38.5 78.5q-48 -62 -122 -97.5t-167 -35.5q-141 0 -225 78.5 t-84 195.5q0 164 159.5 247.5t418.5 33.5v18q0 107 -41.5 147.5t-139.5 40.5q-112 0 -235 -53q-13 -5 -25.5 0t-18.5 18l-50 109q-7 15 -2 26.5t18 17.5q162 77 346 77q203 0 288.5 -92.5t85.5 -267.5v-263q0 -82 10 -131.5t36 -121.5zM440 157q86 0 145 57.5t59 138.5v37 q-98 19 -164.5 18.5t-107.5 -21t-59 -48.5t-18 -65q0 -57 42 -87t103 -30z" />
<glyph unicode="&#xe2;" horiz-adv-x="971" d="M203 1032q-22 0 -27.5 12.5t9.5 27.5l213 235q17 17 43 17h102q25 0 42 -17l214 -235q15 -15 9.5 -27.5t-27.5 -12.5h-154q-25 0 -42 21l-93 120l-94 -120q-17 -21 -42 -21h-153zM916 58q12 -35 -20 -46l-119 -38q-17 -5 -32 7q-19 16 -42.5 51.5t-38.5 78.5 q-48 -62 -122 -97.5t-167 -35.5q-141 0 -225 78.5t-84 195.5q0 164 159.5 247.5t418.5 33.5v18q0 107 -41.5 147.5t-139.5 40.5q-112 0 -235 -53q-13 -5 -25.5 0t-18.5 18l-50 109q-7 15 -2 26.5t18 17.5q162 77 346 77q203 0 288.5 -92.5t85.5 -267.5v-263q0 -82 10 -131.5 t36 -121.5zM440 157q86 0 145 57.5t59 138.5v37q-98 19 -164.5 18.5t-107.5 -21t-59 -48.5t-18 -65q0 -57 42 -87t103 -30z" />
<glyph unicode="&#xe3;" horiz-adv-x="971" d="M192 1044q-15 0 -24 9.5t-8 26.5q8 114 64 170.5t137 56.5q50 0 91 -17t62.5 -37t50 -37t57.5 -17q71 0 82 76q6 32 36 32h52q16 0 24.5 -14.5t6.5 -40.5q-13 -105 -68 -156.5t-133 -51.5q-50 0 -91 17.5t-62.5 38t-50 38t-57.5 17.5q-70 0 -81 -78q-4 -33 -36 -33h-52z M916 58q12 -35 -20 -46l-119 -38q-17 -5 -32 7q-19 16 -42.5 51.5t-38.5 78.5q-48 -62 -122 -97.5t-167 -35.5q-141 0 -225 78.5t-84 195.5q0 164 159.5 247.5t418.5 33.5v18q0 107 -41.5 147.5t-139.5 40.5q-112 0 -235 -53q-13 -5 -25.5 0t-18.5 18l-50 109q-7 15 -2 26.5 t18 17.5q162 77 346 77q203 0 288.5 -92.5t85.5 -267.5v-263q0 -82 10 -131.5t36 -121.5zM440 157q86 0 145 57.5t59 138.5v37q-98 19 -164.5 18.5t-107.5 -21t-59 -48.5t-18 -65q0 -57 42 -87t103 -30z" />
<glyph unicode="&#xe4;" horiz-adv-x="971" d="M291 1037q-53 0 -90 37.5t-37 89.5q0 53 37 90.5t90 37.5t90.5 -37.5t37.5 -90.5t-37.5 -90t-90.5 -37zM694 1037q-52 0 -89.5 37.5t-37.5 89.5q0 53 37 90.5t90 37.5t90.5 -37.5t37.5 -90.5t-37.5 -90t-90.5 -37zM916 58q12 -35 -20 -46l-119 -38q-17 -5 -32 7 q-19 16 -42.5 51.5t-38.5 78.5q-48 -62 -122 -97.5t-167 -35.5q-141 0 -225 78.5t-84 195.5q0 164 159.5 247.5t418.5 33.5v18q0 107 -41.5 147.5t-139.5 40.5q-112 0 -235 -53q-13 -5 -25.5 0t-18.5 18l-50 109q-7 15 -2 26.5t18 17.5q162 77 346 77q203 0 288.5 -92.5 t85.5 -267.5v-263q0 -82 10 -131.5t36 -121.5zM440 157q86 0 145 57.5t59 138.5v37q-98 19 -164.5 18.5t-107.5 -21t-59 -48.5t-18 -65q0 -57 42 -87t103 -30z" />
<glyph unicode="&#xe5;" horiz-adv-x="971" d="M492 991q-94 0 -161 66t-67 160t67 160t161 66t161 -66t67 -160t-67 -160t-161 -66zM492 1318q-41 0 -69 -30t-28 -71q0 -40 28 -69.5t69 -29.5q42 0 69.5 29t27.5 70t-27.5 71t-69.5 30zM916 58q12 -35 -20 -46l-119 -38q-17 -5 -32 7q-19 16 -42.5 51.5t-38.5 78.5 q-48 -62 -122 -97.5t-167 -35.5q-141 0 -225 78.5t-84 195.5q0 164 159.5 247.5t418.5 33.5v18q0 107 -41.5 147.5t-139.5 40.5q-112 0 -235 -53q-13 -5 -25.5 0t-18.5 18l-50 109q-7 15 -2 26.5t18 17.5q162 77 346 77q203 0 288.5 -92.5t85.5 -267.5v-263q0 -82 10 -131.5 t36 -121.5zM440 157q86 0 145 57.5t59 138.5v37q-98 19 -164.5 18.5t-107.5 -21t-59 -48.5t-18 -65q0 -57 42 -87t103 -30z" />
<glyph unicode="&#xe6;" horiz-adv-x="1670" d="M1530 236q32 -14 15 -45q-54 -103 -164 -158t-251 -55q-124 0 -227.5 50t-168.5 142q-54 -86 -147.5 -139t-207.5 -53q-141 0 -222 78t-81 196q0 165 157 248t416 33v18q0 107 -42 147.5t-140 40.5q-111 0 -234 -53q-30 -12 -45 18l-49 109q-7 15 -2.5 27t17.5 17 q162 77 346 77q214 0 293 -125q136 125 337 125q98 0 179 -28.5t146 -87t101.5 -160t36.5 -236.5h-712q11 -118 85 -184.5t175 -66.5q150 0 213 113q17 28 45 15zM1128 755q-80 0 -143 -49t-90 -135h445q-8 53 -30 90.5t-52.5 57t-62 28t-67.5 8.5zM445 157q86 0 145 57.5 t59 138.5v37q-179 39 -262 1.5t-83 -117.5q0 -57 40.5 -87t100.5 -30z" />
<glyph unicode="&#xe7;" horiz-adv-x="1056" d="M964 247q31 -15 16 -45q-42 -82 -131 -145t-219 -76l-28 -78q109 19 177.5 -22t68.5 -132q0 -93 -71 -146.5t-175 -53.5q-96 0 -157 42q-26 18 -13 47l13 30q14 31 47 16q57 -27 97 -27q43 0 72 20.5t29 62.5q0 32 -17 49t-48.5 20t-60 0.5t-67.5 -8.5q-7 -1 -11 -2 q-22 -3 -30.5 5.5t-0.5 28.5l53 148q-187 20 -309.5 149t-122.5 326q0 142 67 252.5t178.5 168t247.5 57.5q155 0 259.5 -66t151.5 -158q15 -30 -16 -45l-134 -64q-26 -12 -45 15q-35 55 -82 88t-121 33q-121 0 -194 -74.5t-73 -206.5t73 -206.5t194 -74.5q74 0 121 33 t82 88q18 27 45 15z" />
<glyph unicode="&#xe8;" horiz-adv-x="1098" d="M200 1209q-13 6 -16.5 20t2.5 25l63 114q7 11 21 14.5t26 -2.5l364 -231q12 -8 16 -22t-2 -24l-39 -73q-7 -12 -21 -16.5t-26 2.5zM959 236q32 -14 15 -45q-54 -103 -163.5 -158t-250.5 -55q-135 0 -244.5 57.5t-174.5 167.5t-65 253q0 142 65 252t174 168t244 58 q98 0 179 -28.5t146 -87t101.5 -160t36.5 -236.5h-712q11 -118 85 -184.5t175 -66.5q150 0 213 113q17 28 45 15zM558 755q-80 0 -143 -49t-90 -135h445q-8 53 -30 90.5t-52.5 57t-62 28t-67.5 8.5z" />
<glyph unicode="&#xe9;" horiz-adv-x="1098" d="M412 1030l-40 73q-5 10 -1 24t16 22l364 231q12 6 25.5 2.5t20.5 -14.5l64 -114q6 -11 2.5 -25t-16.5 -20l-389 -193q-12 -7 -25.5 -2.5t-20.5 16.5zM959 236q32 -14 15 -45q-54 -103 -163.5 -158t-250.5 -55q-135 0 -244.5 57.5t-174.5 167.5t-65 253q0 142 65 252 t174 168t244 58q98 0 179 -28.5t146 -87t101.5 -160t36.5 -236.5h-712q11 -118 85 -184.5t175 -66.5q150 0 213 113q17 28 45 15zM558 755q-80 0 -143 -49t-90 -135h445q-8 53 -30 90.5t-52.5 57t-62 28t-67.5 8.5z" />
<glyph unicode="&#xea;" horiz-adv-x="1098" d="M256 1032q-22 0 -27.5 12.5t9.5 27.5l214 235q17 17 42 17h102q25 0 42 -17l214 -235q15 -15 10 -27.5t-27 -12.5h-155q-26 0 -42 21l-93 120l-93 -120q-16 -21 -42 -21h-154zM959 236q32 -14 15 -45q-54 -103 -163.5 -158t-250.5 -55q-135 0 -244.5 57.5t-174.5 167.5 t-65 253q0 142 65 252t174 168t244 58q98 0 179 -28.5t146 -87t101.5 -160t36.5 -236.5h-712q11 -118 85 -184.5t175 -66.5q150 0 213 113q17 28 45 15zM558 755q-80 0 -143 -49t-90 -135h445q-8 53 -30 90.5t-52.5 57t-62 28t-67.5 8.5z" />
<glyph unicode="&#xeb;" horiz-adv-x="1098" d="M344 1037q-52 0 -89.5 37.5t-37.5 89.5q0 53 37 90.5t90 37.5t90.5 -37.5t37.5 -90.5t-37.5 -90t-90.5 -37zM748 1037q-52 0 -89.5 37.5t-37.5 89.5q0 53 37 90.5t90 37.5t90.5 -37.5t37.5 -90.5t-37.5 -90t-90.5 -37zM959 236q32 -14 15 -45q-54 -103 -163.5 -158 t-250.5 -55q-135 0 -244.5 57.5t-174.5 167.5t-65 253q0 142 65 252t174 168t244 58q98 0 179 -28.5t146 -87t101.5 -160t36.5 -236.5h-712q11 -118 85 -184.5t175 -66.5q150 0 213 113q17 28 45 15zM558 755q-80 0 -143 -49t-90 -135h445q-8 53 -30 90.5t-52.5 57t-62 28 t-67.5 8.5z" />
<glyph unicode="&#xec;" horiz-adv-x="440" d="M264 1016l-388 193q-13 6 -16.5 20t2.5 25l63 114q7 11 21 14.5t26 -2.5l364 -231q12 -8 16 -22t-2 -24l-39 -73q-7 -12 -21 -16.5t-26 2.5zM106 880q0 15 9 23.5t23 8.5h164q14 0 23 -8.5t9 -23.5v-848q0 -14 -9 -23t-23 -9h-164q-14 0 -23 9t-9 23v848z" />
<glyph unicode="&#xed;" horiz-adv-x="440" d="M134 1016q-12 -7 -25.5 -2.5t-20.5 16.5l-40 73q-6 10 -2 24t16 22l364 231q12 6 26 2.5t21 -14.5l64 -114q6 -11 2.5 -25t-16.5 -20zM106 880q0 15 9 23.5t23 8.5h164q14 0 23 -8.5t9 -23.5v-848q0 -14 -9 -23t-23 -9h-164q-14 0 -23 9t-9 23v848z" />
<glyph unicode="&#xee;" horiz-adv-x="440" d="M314 1053l-93 120l-94 -120q-17 -21 -41 -21h-154q-22 0 -27.5 12.5t9.5 27.5l213 235q17 17 43 17h102q25 0 42 -17l214 -235q15 -15 9.5 -27.5t-27.5 -12.5h-154q-26 0 -42 21zM106 880q0 15 9 23.5t23 8.5h164q14 0 23 -8.5t9 -23.5v-848q0 -14 -9 -23t-23 -9h-164 q-14 0 -23 9t-9 23v848z" />
<glyph unicode="&#xef;" horiz-adv-x="440" d="M20 1037q-52 0 -89.5 37.5t-37.5 89.5q0 53 37 90.5t90 37.5t90.5 -37.5t37.5 -90.5t-37.5 -90t-90.5 -37zM423 1037q-53 0 -90 37.5t-37 89.5q0 53 37 90.5t90 37.5t90.5 -37.5t37.5 -90.5t-37.5 -90t-90.5 -37zM106 880q0 15 9 23.5t23 8.5h164q14 0 23 -8.5t9 -23.5 v-848q0 -14 -9 -23t-23 -9h-164q-14 0 -23 9t-9 23v848z" />
<glyph unicode="&#xf0;" horiz-adv-x="1087" d="M592 1253q89 -46 160 -110.5t115.5 -136.5t75 -144.5t45.5 -149.5t20.5 -135.5t5.5 -117.5q0 -146 -64 -257t-168.5 -167.5t-230.5 -56.5q-127 0 -235 56.5t-174 161t-66 234.5q0 131 59.5 235t161.5 160.5t225 56.5q128 0 220 -70q-67 188 -237 290l-57 -100 q-17 -28 -44 -12l-34 20q-28 17 -12 44l55 94q-57 22 -100 34q-17 5 -24 19t0 30l39 86q10 23 36 17q71 -16 133 -39l57 100q17 28 44 12l34 -19q29 -16 12 -45zM551 175q101 0 168 71t67 184t-67 184t-168 71t-168.5 -71t-67.5 -184t67.5 -184t168.5 -71z" />
<glyph unicode="&#xf1;" horiz-adv-x="1104" d="M275 1044q-15 0 -23.5 9.5t-7.5 26.5q8 114 64 170.5t137 56.5q50 0 91 -17t62.5 -37t50 -37t57.5 -17q70 0 81 76q6 32 36 32h52q16 0 25 -15t7 -40q-13 -105 -68 -156.5t-133 -51.5q-50 0 -91 17.5t-62.5 38t-50 38t-57.5 17.5q-71 0 -82 -78q-5 -33 -36 -33h-52z M663 932q169 0 252 -93t83 -257v-550q0 -14 -9 -23t-23 -9h-164q-14 0 -23 9t-9 23v462q0 128 -47 184t-142 56q-105 0 -173 -69t-74 -188v-445q0 -14 -9 -23t-23 -9h-164q-14 0 -23 9t-9 23v848q0 15 9 23.5t23 8.5h164q14 0 23 -8.5t9 -23.5v-111q54 77 138 120t191 43z " />
<glyph unicode="&#xf2;" d="M614 1016l-388 193q-13 6 -16.5 20t2.5 25l63 114q7 11 21 14.5t26 -2.5l364 -231q12 -8 16 -22t-2 -24l-39 -73q-7 -12 -21 -16.5t-26 2.5zM571 934q135 0 247 -57.5t180 -168t68 -252.5t-68 -252.5t-180 -168t-247 -57.5t-247 57.5t-180 168t-68 252.5t68 252.5 t180 168t247 57.5zM571 175q108 0 182 76t74 205t-74 205t-182 76t-182 -76t-74 -205t74 -205t182 -76z" />
<glyph unicode="&#xf3;" d="M484 1016q-12 -7 -25.5 -2.5t-20.5 16.5l-40 73q-5 10 -1 24t16 22l364 231q12 6 25.5 2.5t20.5 -14.5l64 -114q6 -11 2.5 -25t-16.5 -20zM571 934q135 0 247 -57.5t180 -168t68 -252.5t-68 -252.5t-180 -168t-247 -57.5t-247 57.5t-180 168t-68 252.5t68 252.5t180 168 t247 57.5zM571 175q108 0 182 76t74 205t-74 205t-182 76t-182 -76t-74 -205t74 -205t182 -76z" />
<glyph unicode="&#xf4;" d="M665 1053l-94 120l-93 -120q-16 -21 -42 -21h-154q-22 0 -27.5 12.5t9.5 27.5l214 235q17 17 42 17h103q25 0 42 -17l213 -235q15 -15 10 -27.5t-27 -12.5h-154q-25 0 -42 21zM571 934q135 0 247 -57.5t180 -168t68 -252.5t-68 -252.5t-180 -168t-247 -57.5t-247 57.5 t-180 168t-68 252.5t68 252.5t180 168t247 57.5zM571 175q108 0 182 76t74 205t-74 205t-182 76t-182 -76t-74 -205t74 -205t182 -76z" />
<glyph unicode="&#xf5;" d="M271 1044q-15 0 -23.5 9.5t-7.5 26.5q8 114 64 170.5t137 56.5q50 0 90.5 -17t62 -37t50 -37t57.5 -17q71 0 82 76q6 32 36 32h52q16 0 25 -15t7 -40q-13 -105 -68.5 -156.5t-133.5 -51.5q-50 0 -90.5 17.5t-62 38t-50 38t-57.5 17.5q-71 0 -82 -78q-5 -33 -36 -33h-52z M571 934q135 0 247 -57.5t180 -168t68 -252.5t-68 -252.5t-180 -168t-247 -57.5t-247 57.5t-180 168t-68 252.5t68 252.5t180 168t247 57.5zM571 175q108 0 182 76t74 205t-74 205t-182 76t-182 -76t-74 -205t74 -205t182 -76z" />
<glyph unicode="&#xf6;" d="M370 1037q-52 0 -89.5 37.5t-37.5 89.5q0 53 37 90.5t90 37.5t90.5 -37.5t37.5 -90.5t-37.5 -90t-90.5 -37zM774 1037q-52 0 -89.5 37.5t-37.5 89.5q0 53 37 90.5t90 37.5t90.5 -37.5t37.5 -90.5t-37.5 -90t-90.5 -37zM571 934q135 0 247 -57.5t180 -168t68 -252.5 t-68 -252.5t-180 -168t-247 -57.5t-247 57.5t-180 168t-68 252.5t68 252.5t180 168t247 57.5zM571 175q108 0 182 76t74 205t-74 205t-182 76t-182 -76t-74 -205t74 -205t182 -76z" />
<glyph unicode="&#xf7;" horiz-adv-x="1073" d="M941 646q15 0 24 -9.5t9 -24.5v-106q0 -15 -9 -24t-24 -9h-371q37 -10 61.5 -41.5t24.5 -70.5q0 -47 -34 -81t-82 -34q-47 0 -81.5 34t-34.5 81q0 39 24 70.5t61 41.5h-376q-15 0 -24 9t-9 24v106q0 15 9 24.5t24 9.5h391q-42 6 -71 38.5t-29 75.5q0 47 34.5 81.5 t81.5 34.5q48 0 82 -34.5t34 -81.5q0 -43 -29 -75.5t-72 -38.5h386z" />
<glyph unicode="&#xf8;" horiz-adv-x="1159" d="M1066 835l-88 -89q94 -123 94 -290q0 -142 -68 -252.5t-180 -168t-247 -57.5q-163 0 -287 81l-90 -90q-24 -23 -47 0l-66 66q-23 23 1 47l86 86q-92 124 -92 288q0 142 68 252.5t180 168t247 57.5q158 0 283 -79l93 93q23 24 47 0l66 -66q24 -24 0 -47zM314 456 q0 -68 22 -125l376 376q-60 36 -135 36q-110 0 -186.5 -77t-76.5 -210zM840 456q0 70 -24 129l-378 -378q62 -39 139 -39q111 0 187 77t76 211z" />
<glyph unicode="&#xf9;" horiz-adv-x="1104" d="M206 1209q-13 6 -16 20t3 25l63 114q7 11 21 14.5t26 -2.5l364 -231q12 -8 16 -22t-2 -24l-39 -73q-7 -12 -21 -16.5t-26 2.5zM966 912q14 0 23 -8.5t9 -23.5v-848q0 -14 -9 -23t-23 -9h-164q-14 0 -23 9t-9 23v111q-113 -163 -328 -163q-170 0 -253 93.5t-83 256.5v550 q0 14 9 23t23 9h165q14 0 22.5 -9t8.5 -23v-462q0 -128 47.5 -184t142.5 -56q105 0 172.5 68.5t73.5 188.5v445q0 15 9 23.5t23 8.5h164z" />
<glyph unicode="&#xfa;" horiz-adv-x="1104" d="M418 1030l-39 73q-6 10 -2 24t16 22l364 231q12 6 26 2.5t21 -14.5l63 -114q6 -11 3 -25t-16 -20l-389 -193q-12 -7 -26 -2.5t-21 16.5zM966 912q14 0 23 -8.5t9 -23.5v-848q0 -14 -9 -23t-23 -9h-164q-14 0 -23 9t-9 23v111q-113 -163 -328 -163q-170 0 -253 93.5 t-83 256.5v550q0 14 9 23t23 9h165q14 0 22.5 -9t8.5 -23v-462q0 -128 47.5 -184t142.5 -56q105 0 172.5 68.5t73.5 188.5v445q0 15 9 23.5t23 8.5h164z" />
<glyph unicode="&#xfb;" horiz-adv-x="1104" d="M263 1032q-22 0 -27.5 12.5t9.5 27.5l213 235q17 17 43 17h102q25 0 42 -17l214 -235q15 -15 9.5 -27.5t-27.5 -12.5h-154q-25 0 -42 21l-93 120l-94 -120q-17 -21 -42 -21h-153zM966 912q14 0 23 -8.5t9 -23.5v-848q0 -14 -9 -23t-23 -9h-164q-14 0 -23 9t-9 23v111 q-113 -163 -328 -163q-170 0 -253 93.5t-83 256.5v550q0 14 9 23t23 9h165q14 0 22.5 -9t8.5 -23v-462q0 -128 47.5 -184t142.5 -56q105 0 172.5 68.5t73.5 188.5v445q0 15 9 23.5t23 8.5h164z" />
<glyph unicode="&#xfc;" horiz-adv-x="1104" d="M351 1037q-53 0 -90 37.5t-37 89.5q0 53 37 90.5t90 37.5t90.5 -37.5t37.5 -90.5t-37.5 -90t-90.5 -37zM754 1037q-52 0 -89.5 37.5t-37.5 89.5q0 53 37 90.5t90 37.5t90.5 -37.5t37.5 -90.5t-37.5 -90t-90.5 -37zM966 912q14 0 23 -8.5t9 -23.5v-848q0 -14 -9 -23 t-23 -9h-164q-14 0 -23 9t-9 23v111q-113 -163 -328 -163q-170 0 -253 93.5t-83 256.5v550q0 14 9 23t23 9h165q14 0 22.5 -9t8.5 -23v-462q0 -128 47.5 -184t142.5 -56q105 0 172.5 68.5t73.5 188.5v445q0 15 9 23.5t23 8.5h164z" />
<glyph unicode="&#xfd;" horiz-adv-x="992" d="M360 1030l-39 73q-6 10 -2 24t16 22l364 231q12 6 26 2.5t21 -14.5l63 -114q6 -11 3 -25t-16 -20l-389 -193q-12 -7 -26 -2.5t-21 16.5zM943 912q24 0 35 -18.5t1 -41.5l-401 -828q-56 -116 -104 -190.5t-107 -129.5t-127.5 -79t-158.5 -24q-36 0 -36 32v116q0 28 29 32 q90 10 160.5 85.5t168.5 273.5l-388 712q-12 23 -0.5 41.5t36.5 18.5h178q19 0 28 -19l260 -510l237 510q8 19 29 19h160z" />
<glyph unicode="&#xfe;" d="M608 933q191 0 324.5 -133.5t133.5 -343.5t-133.5 -344t-324.5 -134q-176 0 -274 131v-476q0 -14 -8.5 -23t-23.5 -9h-164q-14 0 -23 9t-9 23v1247v398q0 14 9 23.5t23 9.5h164q14 0 23 -9.5t9 -23.5v-476q98 131 274 131zM571 175q108 0 182.5 76t74.5 205t-74.5 204.5 t-182.5 75.5q-111 0 -183.5 -77t-72.5 -203t72.5 -203.5t183.5 -77.5z" />
<glyph unicode="&#xff;" horiz-adv-x="992" d="M293 1037q-53 0 -90 37.5t-37 89.5q0 53 37 90.5t90 37.5t90.5 -37.5t37.5 -90.5t-37.5 -90t-90.5 -37zM696 1037q-52 0 -89.5 37.5t-37.5 89.5q0 53 37 90.5t90 37.5t90.5 -37.5t37.5 -90.5t-37.5 -90t-90.5 -37zM943 912q24 0 35 -18.5t1 -41.5l-401 -828 q-56 -116 -104 -190.5t-107 -129.5t-127.5 -79t-158.5 -24q-36 0 -36 32v116q0 28 29 32q90 10 160.5 85.5t168.5 273.5l-388 712q-12 23 -0.5 41.5t36.5 18.5h178q19 0 28 -19l260 -510l237 510q8 19 29 19h160z" />
<glyph unicode="&#x152;" horiz-adv-x="1955" d="M1863 199q14 0 23 -9.5t9 -23.5v-134q0 -14 -9 -23t-23 -9h-957q-80 -20 -163 -20q-127 0 -245 45.5t-209.5 127t-146.5 205t-55 269.5t55 269.5t146.5 204.5t209.5 126.5t245 45.5q93 0 179 -24h921q14 0 23 -9t9 -23v-134q0 -14 -9 -23t-23 -9h-617q108 -134 133 -316 h402q14 0 23 -9t9 -23v-129q0 -15 -9 -23.5t-23 -8.5h-400q-20 -200 -138 -343h640zM338 627q0 -197 112.5 -321.5t292.5 -124.5t292 124.5t112 321.5t-112 321t-292 124t-292.5 -124t-112.5 -321z" />
<glyph unicode="&#x153;" horiz-adv-x="1860" d="M1720 236q33 -14 16 -45q-54 -103 -164 -158t-251 -55q-112 0 -208.5 41.5t-163.5 118.5q-68 -77 -167 -118.5t-211 -41.5q-135 0 -247 57.5t-180 168t-68 252.5t68 252.5t180 168t247 57.5q112 0 210.5 -41.5t167.5 -117.5q66 76 162.5 117.5t208.5 41.5q98 0 179 -28.5 t146.5 -87t102 -160t36.5 -236.5h-713q11 -118 85 -184.5t175 -66.5q151 0 214 113q17 28 44 15zM1319 755q-80 0 -143 -49t-90 -135h445q-8 53 -30 90.5t-52.5 57t-62 28t-67.5 8.5zM571 175q108 0 182 76t74 205t-74 205t-182 76t-182 -76t-74 -205t74 -205t182 -76z" />
<glyph unicode="&#x178;" horiz-adv-x="1263" d="M432 1375q-52 0 -89.5 37.5t-37.5 89.5q0 53 37 90.5t90 37.5t90.5 -37.5t37.5 -90.5t-37.5 -90t-90.5 -37zM836 1375q-52 0 -89.5 37.5t-37.5 89.5q0 53 37 90.5t90 37.5t90.5 -37.5t37.5 -90.5t-37.5 -90t-90.5 -37zM1204 1249q20 0 28.5 -11.5t-1.5 -28.5l-483 -779 v-398q0 -13 -9.5 -22.5t-22.5 -9.5h-176q-13 0 -22.5 9.5t-9.5 22.5v390l-484 787q-9 17 -1.5 28.5t25.5 11.5h205q24 0 38 -25l343 -588l348 588q14 25 37 25h185z" />
<glyph unicode="&#x2c6;" horiz-adv-x="636" d="M412 1053l-94 120l-93 -120q-16 -21 -42 -21h-154q-22 0 -27.5 12.5t9.5 27.5l214 235q17 17 42 17h103q25 0 42 -17l213 -235q15 -15 10 -27.5t-27 -12.5h-154q-25 0 -42 21z" />
<glyph unicode="&#x2dc;" horiz-adv-x="1228" d="M684 1307q16 0 25 -15t7 -40q-13 -105 -68 -156.5t-133 -51.5q-50 0 -91 17.5t-62.5 38t-50 38t-57.5 17.5q-71 0 -82 -78q-4 -33 -36 -33h-52q-15 0 -23.5 9.5t-7.5 26.5q8 114 64 170.5t137 56.5q50 0 91 -17t62.5 -37t50 -37t57.5 -17q70 0 81 76q6 32 36 32h52z" />
<glyph unicode="&#x2000;" horiz-adv-x="860" />
<glyph unicode="&#x2001;" horiz-adv-x="1720" />
<glyph unicode="&#x2002;" horiz-adv-x="860" />
<glyph unicode="&#x2003;" horiz-adv-x="1720" />
<glyph unicode="&#x2004;" horiz-adv-x="573" />
<glyph unicode="&#x2005;" horiz-adv-x="430" />
<glyph unicode="&#x2006;" horiz-adv-x="286" />
<glyph unicode="&#x2007;" horiz-adv-x="286" />
<glyph unicode="&#x2008;" horiz-adv-x="215" />
<glyph unicode="&#x2009;" horiz-adv-x="344" />
<glyph unicode="&#x200a;" horiz-adv-x="95" />
<glyph unicode="&#x2010;" horiz-adv-x="977" d="M133 403q-15 0 -24 9.5t-9 24.5v129q0 15 9 24.5t24 9.5h712q15 0 24.5 -9.5t9.5 -24.5v-129q0 -15 -9.5 -24.5t-24.5 -9.5h-712z" />
<glyph unicode="&#x2011;" horiz-adv-x="977" d="M133 403q-15 0 -24 9.5t-9 24.5v129q0 15 9 24.5t24 9.5h712q15 0 24.5 -9.5t9.5 -24.5v-129q0 -15 -9.5 -24.5t-24.5 -9.5h-712z" />
<glyph unicode="&#x2012;" horiz-adv-x="977" d="M133 403q-15 0 -24 9.5t-9 24.5v129q0 15 9 24.5t24 9.5h712q15 0 24.5 -9.5t9.5 -24.5v-129q0 -15 -9.5 -24.5t-24.5 -9.5h-712z" />
<glyph unicode="&#x2013;" horiz-adv-x="1054" d="M69 415q-15 0 -24.5 9.5t-9.5 24.5v105q0 15 9.5 24.5t24.5 9.5h917q15 0 24 -9.5t9 -24.5v-105q0 -15 -9 -24.5t-24 -9.5h-917z" />
<glyph unicode="&#x2014;" horiz-adv-x="1669" d="M69 415q-15 0 -24.5 9.5t-9.5 24.5v105q0 15 9.5 24.5t24.5 9.5h1531q15 0 24 -9.5t9 -24.5v-105q0 -15 -9 -24.5t-24 -9.5h-1531z" />
<glyph unicode="&#x2018;" horiz-adv-x="470" d="M242 831q-23 0 -45.5 8t-44 24.5t-34.5 47.5t-13 72q0 97 67 210t153 168q23 12 40 -8l10 -12q16 -23 -4 -43q-84 -82 -84 -153q0 -25 9 -39t32 -34q50 -43 50 -102q0 -58 -40 -98.5t-96 -40.5z" />
<glyph unicode="&#x2019;" horiz-adv-x="470" d="M228 1333q52 0 94.5 -36.5t42.5 -114.5q0 -97 -67 -210.5t-153 -168.5q-23 -12 -40 9l-10 12q-16 23 4 43q84 82 84 153q0 25 -9 39t-32 34q-50 43 -50 101t40 98.5t96 40.5z" />
<glyph unicode="&#x201a;" horiz-adv-x="470" d="M228 252q52 0 94.5 -36.5t42.5 -114.5q0 -97 -67 -210.5t-153 -168.5q-23 -12 -40 9l-10 12q-16 23 4 43q84 82 84 153q0 25 -9 39t-32 34q-50 43 -50 102q0 58 39.5 98t96.5 40z" />
<glyph unicode="&#x201c;" horiz-adv-x="804" d="M242 831q-23 0 -45.5 8t-44 24.5t-34.5 47.5t-13 72q0 97 67 210t153 168q23 12 40 -8l10 -12q16 -23 -4 -43q-84 -82 -84 -153q0 -25 9 -39t32 -34q50 -43 50 -102q0 -58 -40 -98.5t-96 -40.5zM577 831q-23 0 -45.5 8t-44 24.5t-34.5 47.5t-13 72q0 97 66.5 210 t152.5 168q23 12 40 -8l11 -12q16 -23 -4 -43q-84 -82 -84 -153q0 -25 9 -39t32 -34q50 -43 50 -102q0 -58 -40 -98.5t-96 -40.5z" />
<glyph unicode="&#x201d;" horiz-adv-x="804" d="M228 1333q52 0 94.5 -36.5t42.5 -114.5q0 -97 -67 -210.5t-153 -168.5q-23 -12 -40 9l-10 12q-16 23 4 43q84 82 84 153q0 25 -9 39t-32 34q-50 43 -50 101t40 98.5t96 40.5zM563 1333q23 0 45 -7.5t43.5 -24t34.5 -47.5t13 -72q0 -97 -66.5 -210.5t-152.5 -168.5 q-23 -12 -40 9l-10 12q-16 23 4 43q84 82 84 153q0 25 -9 39t-32 34q-51 43 -51 101t40 98.5t97 40.5z" />
<glyph unicode="&#x201e;" horiz-adv-x="804" d="M228 252q52 0 94.5 -36.5t42.5 -114.5q0 -97 -67 -210.5t-153 -168.5q-23 -12 -40 9l-10 12q-16 23 4 43q84 82 84 153q0 25 -9 39t-32 34q-50 43 -50 102q0 58 39.5 98t96.5 40zM563 252q23 0 45 -7.5t43.5 -24t34.5 -47.5t13 -72q0 -97 -66.5 -210.5t-152.5 -168.5 q-23 -12 -40 9l-10 12q-16 23 4 43q84 82 84 153q0 25 -9 39t-32 34q-51 44 -51 102t40 98t97 40z" />
<glyph unicode="&#x2022;" horiz-adv-x="622" d="M312 261q-86 0 -146.5 60.5t-60.5 145.5q0 86 61 147t146 61t146 -61t61 -147q0 -85 -60.5 -145.5t-146.5 -60.5z" />
<glyph unicode="&#x2026;" horiz-adv-x="1312" d="M242 -20q-56 0 -96 40t-40 96t40 96t96 40t96.5 -40t40.5 -96t-40.5 -96t-96.5 -40zM656 -20q-56 0 -96 40t-40 96t40 96t96 40t96.5 -40t40.5 -96t-40.5 -96t-96.5 -40zM1071 -20q-56 0 -96.5 40t-40.5 96t40.5 96t96.5 40t96 -40t40 -96t-40 -96t-96 -40z" />
<glyph unicode="&#x202f;" horiz-adv-x="344" />
<glyph unicode="&#x2039;" horiz-adv-x="630" d="M531 694q0 -12 -10 -19l-251 -204l251 -205q10 -7 10 -19v-88q0 -24 -19 -33.5t-39 4.5l-363 266q-10 7 -10 19v111q0 12 10 19l363 267q20 14 39 4t19 -35v-87z" />
<glyph unicode="&#x203a;" horiz-adv-x="630" d="M521 545q10 -7 10 -19v-111q0 -12 -10 -19l-363 -266q-20 -14 -39 -4.5t-19 33.5v88q0 12 10 19l251 205l-251 204q-10 7 -10 19v87q0 25 19 35t39 -4z" />
<glyph unicode="&#x205f;" horiz-adv-x="430" />
<glyph unicode="&#x20ac;" horiz-adv-x="1475" d="M493 421q46 -113 142.5 -177.5t223.5 -64.5v-201q-213 0 -388 119.5t-239 323.5h-157v131h131q-3 24 -3 73q0 34 3 67h-131v132h156q41 137 138 240t223.5 155t266.5 52v-201q-129 0 -226 -65.5t-143 -180.5h499l-86 -132h-445q-4 -44 -4 -67q0 -41 4 -73h477l-84 -131 h-358zM1198 855q-110 215 -339 215v201q372 0 535 -323q16 -32 -15 -46l-135 -64q-28 -14 -46 17zM1379 348q31 -14 15 -46q-163 -324 -535 -324v201q229 0 339 216q18 31 46 17z" />
<glyph unicode="&#x2122;" horiz-adv-x="1812" d="M1687 1262q20 0 20 -21v-746q0 -20 -20 -20h-108q-21 0 -21 20v452l-264 -360q-14 -18 -29 0l-264 360v-452q0 -20 -20 -20h-108q-20 0 -20 20v746q0 21 20 21h40q15 0 26 -14l341 -446l339 446q11 14 26 14h42zM742 1250q8 0 14 -6t6 -14v-85q0 -8 -6 -14t-14 -6h-254 v-630q0 -8 -6 -14t-14 -6h-109q-8 0 -14 6t-6 14v630h-253q-8 0 -14 6t-6 14v85q0 8 6 14t14 6h382h274z" />
<glyph unicode="&#x25fc;" horiz-adv-x="911" d="M0 911h911v-911h-911v911z" />
</font>
</defs>
</svg>
