<?xml version="1.0" standalone="no"?>
<!DOCTYPE svg PUBLIC "-//W3C//DTD SVG 1.1//EN" "http://www.w3.org/Graphics/SVG/1.1/DTD/svg11.dtd" >
<svg xmlns="http://www.w3.org/2000/svg">
<metadata></metadata>
<defs>
<font id="migrena_grotesqueMdIt" horiz-adv-x="1491" >
<font-face units-per-em="2048" ascent="1638" descent="-410" />
<missing-glyph horiz-adv-x="376" />
<glyph horiz-adv-x="0" />
<glyph horiz-adv-x="682" />
<glyph unicode=" "  horiz-adv-x="376" />
<glyph unicode="&#x09;" horiz-adv-x="376" />
<glyph unicode="&#xa0;" horiz-adv-x="376" />
<glyph unicode="!" horiz-adv-x="485" d="M238 1217q2 14 11.5 23t24.5 9h164q14 0 22 -9t6 -23l-143 -813q-7 -32 -37 -32h-106q-14 0 -22 9t-6 23zM176 -20q-51 0 -85 34.5t-34 85.5q0 61 47.5 106t108.5 45q51 0 84.5 -34.5t33.5 -85.5q0 -61 -47 -106t-108 -45z" />
<glyph unicode="&#x22;" horiz-adv-x="713" d="M218 1253q1 14 11.5 23t24.5 9h133q14 0 22 -9t5 -23l-81 -409q-7 -31 -37 -31h-89q-31 0 -28 31zM523 1253q1 14 12 23t25 9h132q14 0 22 -9t5 -23l-81 -409q-7 -31 -36 -31h-90q-31 0 -28 31z" />
<glyph unicode="#" horiz-adv-x="1410" d="M1337 908q15 0 22 -9.5t4 -24.5l-28 -122q-8 -33 -41 -33h-167l-67 -281h159q15 0 22 -9t4 -24l-28 -122q-9 -34 -41 -34h-162l-52 -217q-7 -32 -39 -32h-157q-14 0 -21.5 9t-3.5 23l52 217h-297l-53 -217q-7 -32 -39 -32h-157q-14 0 -21.5 9t-3.5 23l52 217h-166 q-15 0 -23 9.5t-4 24.5l29 122q8 33 41 33h168l68 281h-161q-15 0 -22.5 9t-3.5 24l28 122q4 15 15.5 24.5t26.5 9.5h162l52 217q4 14 15 23t25 9h157q14 0 21.5 -9t3.5 -23l-53 -217h298l52 217q8 32 39 32h158q15 0 22 -9t3 -23l-53 -217h165zM838 438l68 281h-298 l-67 -281h297z" />
<glyph unicode="$" horiz-adv-x="1161" d="M695 1082q-135 0 -202.5 -51t-67.5 -126q0 -35 22 -62t58.5 -45.5t84.5 -34.5t101 -32.5t106 -35t101 -45.5t84.5 -62t58.5 -87.5t22 -117.5q0 -88 -37 -159.5t-102.5 -120t-148 -78t-179.5 -40.5l-29 -209q-2 -13 -13 -22.5t-24 -9.5h-111q-13 0 -21 9.5t-6 22.5l29 206 q-188 16 -364 126q-26 17 -9 44l74 124q19 31 46 15q56 -33 77.5 -44.5t71 -32.5t99 -29t111.5 -8q131 0 204 42.5t73 122.5q0 46 -27 81t-70.5 56t-100 42t-114.5 37.5t-114.5 43.5t-100 59.5t-70.5 86.5t-27 123q0 150 111.5 257.5t309.5 134.5l29 210q2 13 13 22.5 t24 9.5h111q13 0 21.5 -9.5t6.5 -22.5l-29 -203q79 -5 151.5 -25.5t109.5 -38.5t86 -46q26 -16 9 -44l-76 -127q-19 -30 -51 -10q-42 28 -73 45.5t-98.5 37.5t-139.5 20z" />
<glyph unicode="%" horiz-adv-x="1832" d="M1399 1278q11 -6 14 -18.5t-4 -24.5l-799 -1295q-8 -12 -20.5 -17t-24.5 1l-82 41q-11 6 -14 18.5t4 24.5l798 1296q7 12 21 16t25 -1zM800 874q-26 -180 -134.5 -288.5t-248.5 -108.5t-218.5 108.5t-53.5 288.5t134 288.5t249 108.5t218.5 -108.5t53.5 -288.5zM441 649 q69 0 111 60.5t56 164.5q15 105 -10 165.5t-94 60.5q-67 0 -109.5 -61t-57.5 -165q-14 -103 11.5 -164t92.5 -61zM1463 772q140 0 218.5 -108.5t52.5 -288.5q-25 -180 -133.5 -288.5t-248.5 -108.5t-218.5 108.5t-53.5 288.5q26 180 134.5 288.5t248.5 108.5zM1376 150 q69 0 110.5 60t56.5 165t-10 165.5t-94 60.5q-67 0 -109.5 -61t-57.5 -165q-14 -103 11.5 -164t92.5 -61z" />
<glyph unicode="&#x26;" horiz-adv-x="1242" d="M1170 660q13 -3 18.5 -13.5t1.5 -23.5q-71 -212 -193 -364l139 -184q18 -24 3 -49.5t-47 -25.5h-151q-23 0 -38 20l-67 85q-175 -125 -394 -125q-174 0 -279.5 85.5t-105.5 224.5t83 244.5t226 191.5q-57 98 -57 189q0 85 37 154.5t99.5 112.5t139.5 66t161 23 q146 0 267 -71q23 -15 8 -42l-64 -111q-8 -14 -22 -18.5t-27 3.5q-94 56 -181 56q-90 0 -136.5 -42.5t-46.5 -109.5q0 -28 8.5 -56.5t27.5 -60t31 -48.5t38 -51l229 -303q71 106 115 243q12 33 43 27zM482 176q130 0 240 77l-257 331q-90 -60 -126.5 -117t-36.5 -134 q0 -71 45 -114t135 -43z" />
<glyph unicode="'" horiz-adv-x="408" d="M218 1253q1 14 11.5 23t24.5 9h133q14 0 22 -9t5 -23l-81 -409q-7 -31 -37 -31h-89q-31 0 -28 31z" />
<glyph unicode="(" horiz-adv-x="562" d="M269 286q0 -146 25 -296.5t75 -266.5q5 -12 0 -23.5t-18 -17.5l-72 -33q-22 -10 -33 9q-71 131 -109.5 304t-38.5 347q0 507 379 989q14 19 35 9l63 -32q11 -6 13 -18t-6 -24q-313 -440 -313 -947z" />
<glyph unicode=")" horiz-adv-x="562" d="M323 1298q69 -137 107.5 -312t38.5 -348q0 -258 -99 -510t-278 -470q-16 -19 -35 -9l-64 33q-25 13 -6 41q313 440 313 947q0 145 -25 295.5t-76 267.5q-5 12 0.5 24t18.5 18l72 32q23 11 33 -9z" />
<glyph unicode="*" horiz-adv-x="914" d="M916 1228q2 -11 -4.5 -21.5t-18.5 -14.5l-216 -67l103 -176q6 -10 2.5 -21t-14.5 -18l-88 -58q-11 -7 -21.5 -5t-16.5 12l-103 175l-153 -175q-20 -23 -41 -7l-71 58q-9 7 -9.5 18t8.5 21l153 176l-197 67q-11 4 -14.5 14.5t1.5 21.5l43 93q5 11 16 16.5t22 1.5l198 -67 l30 218q2 12 11.5 20t21.5 8h98q12 0 19 -8t5 -20l-31 -218h1l216 67q12 4 21.5 -1.5t11.5 -16.5z" />
<glyph unicode="+" horiz-adv-x="1073" d="M968 646q15 0 22.5 -9.5t5.5 -24.5l-15 -106q-5 -33 -38 -33h-317l-45 -317q-2 -15 -12.5 -24.5t-25.5 -9.5h-106q-15 0 -22.5 9.5t-5.5 24.5l44 317h-317q-15 0 -23 9t-6 24l15 106q2 15 12.5 24.5t25.5 9.5h317l45 317q5 33 38 33h106q15 0 22.5 -9t5.5 -24l-44 -317 h318z" />
<glyph unicode="," horiz-adv-x="472" d="M200 252q45 0 81 -30.5t36 -95.5q0 -99 -86 -222.5t-189 -180.5q-24 -14 -38 8l-8 12q-14 22 10 43q49 42 77.5 80.5t28.5 84.5q0 29 -32 61q-37 37 -37 86q0 62 47.5 108t109.5 46z" />
<glyph unicode="-" horiz-adv-x="977" d="M126 403q-15 0 -23 9.5t-6 24.5l18 129q2 15 12.5 24.5t25.5 9.5h712q15 0 23 -9.5t6 -24.5l-18 -129q-2 -15 -12.5 -24.5t-25.5 -9.5h-712z" />
<glyph unicode="." horiz-adv-x="485" d="M176 -20q-51 0 -85 34.5t-34 85.5q0 61 48 106.5t109 45.5q51 0 85 -34.5t34 -85.5q0 -61 -48 -106.5t-109 -45.5z" />
<glyph unicode="/" horiz-adv-x="818" d="M778 1361q8 12 21.5 16.5t24.5 -1.5l82 -41q11 -6 13.5 -18.5t-4.5 -24.5l-820 -1352q-8 -11 -21 -16t-24 0l-83 41q-11 6 -13.5 18.5t4.5 24.5z" />
<glyph unicode="0" horiz-adv-x="1209" d="M719 1271q226 0 347 -175.5t80 -470.5q-21 -147 -77.5 -269.5t-137 -205t-182 -127.5t-211.5 -45q-225 0 -346.5 176t-80.5 471q27 196 116 344t216.5 225t275.5 77zM566 179q135 0 217.5 119.5t111.5 326.5q17 133 5.5 232t-65 156t-144.5 57q-133 0 -216.5 -120 t-112.5 -325t21 -325.5t183 -120.5z" />
<glyph unicode="1" horiz-adv-x="915" d="M761 1249q13 0 21 -9.5t6 -22.5l-166 -1185q-2 -13 -13 -22.5t-24 -9.5h-176q-13 0 -21 9.5t-6 22.5l138 982l-217 -100q-14 -6 -25.5 -1.5t-16.5 17.5l-38 117q-4 12 2 24.5t19 18.5l321 150q18 9 41 9h155z" />
<glyph unicode="2" horiz-adv-x="1111" d="M1056 903q-13 -93 -54.5 -177.5t-119.5 -171t-176.5 -170t-245.5 -189.5h496q13 0 22 -10t7 -23l-19 -130q-2 -13 -13 -22.5t-24 -9.5h-874q-15 0 -22.5 9t-5.5 24l5 40q4 30 20 41q219 154 365.5 271.5t230 207t120 155.5t45.5 131q13 96 -33 145t-148 49 q-94 0 -173 -38.5t-167 -109.5q-12 -9 -21.5 -9t-14.5 4.5t-12 14.5l-71 98q-9 7 -4.5 17t9 15t15.5 14q107 90 225 141t271 51q208 0 299 -102t68 -266z" />
<glyph unicode="3" horiz-adv-x="1151" d="M844 644q216 -74 216 -266q0 -179 -149 -289.5t-395 -110.5q-88 0 -160 14.5t-126.5 43.5t-93.5 60t-79 74q-26 27 -7 47l105 107q16 16 25 18.5t25 -9.5q36 -35 51 -48.5t50.5 -40t63.5 -37.5t72 -21t94 -10q123 0 203 50.5t80 139.5q0 33 -15 62.5t-49.5 58 t-101.5 46.5t-160 21q-14 1 -22.5 10.5t-6.5 22.5l13 93q2 13 13 22t25 10q102 3 175.5 24t110.5 53.5t53.5 67t16.5 72.5q0 68 -51 106t-149 38q-92 0 -164 -30.5t-169 -94.5q-20 -11 -28 -8.5t-19 18.5l-66 97q-14 20 20 46q221 170 486 170q98 0 173.5 -24t120 -65.5 t66.5 -92t22 -109.5q0 -107 -68.5 -194.5t-200.5 -141.5z" />
<glyph unicode="4" horiz-adv-x="1192" d="M1099 453q15 0 22.5 -9.5t5.5 -24.5l-16 -122q-5 -33 -38 -33h-157l-33 -232q-1 -13 -12 -22.5t-24 -9.5h-169q-13 0 -21.5 9.5t-6.5 22.5l32 232h-632q-15 0 -23 9t-6 24l15 106q1 9 8 17l775 809q20 20 43 20h160q13 0 21.5 -9.5t6.5 -22.5l-108 -764h157zM315 453h394 l68 481z" />
<glyph unicode="5" horiz-adv-x="1168" d="M1076 1249q13 0 21.5 -9.5t6.5 -22.5l-19 -132q-1 -13 -12 -22.5t-24 -9.5h-548l-78 -308q102 42 251 42q179 -6 290 -92t111 -251q0 -207 -152 -336.5t-400 -129.5q-161 0 -265.5 46.5t-191.5 135.5q-26 26 -8 46l105 106q17 17 26 19.5t25 -8.5q40 -37 67.5 -58 t68.5 -44.5t88 -34t104 -10.5q125 0 207 66t82 176q0 82 -59 136.5t-172 54.5q-156 0 -277 -65q-12 -8 -25 -2l-107 54q-18 8 -13 31l149 589q7 33 39 33h710z" />
<glyph unicode="6" horiz-adv-x="1144" d="M694 806q182 0 281 -119t75 -289q-24 -176 -176.5 -298t-361.5 -122q-220 0 -336.5 141.5t-82.5 380.5q51 364 293 566.5t608 204.5q14 0 22.5 -9.5t6.5 -23.5l-18 -128q-5 -31 -36 -33q-227 -6 -379 -102.5t-231 -310.5q135 142 335 142zM539 170q111 0 182.5 66 t84.5 159t-40 159t-164 66t-185.5 -66.5t-87.5 -158.5t43 -158.5t167 -66.5z" />
<glyph unicode="7" horiz-adv-x="1154" d="M249 0q-24 0 -32.5 17.5t5.5 39.5l614 991h-661q-13 0 -21 9.5t-6 22.5l19 137q1 13 12 22.5t24 9.5h934q15 0 22.5 -9t5.5 -24l-5 -40q-3 -20 -19 -40l-692 -1120q-11 -16 -28 -16h-172z" />
<glyph unicode="8" horiz-adv-x="1158" d="M861 665q89 -39 143 -114t54 -173q0 -171 -149 -285.5t-397 -114.5q-210 0 -327 90.5t-117 232.5q0 127 80.5 221t207.5 143q-75 33 -120.5 95.5t-45.5 148.5q0 150 138.5 256t365.5 106q194 0 302.5 -84.5t108.5 -210.5q0 -110 -68.5 -189.5t-175.5 -121.5zM669 1093 q-104 0 -175.5 -54t-71.5 -133q0 -67 55 -110t144 -43q104 0 175 54t71 133q0 67 -54.5 110t-143.5 43zM540 172q127 0 203 62t76 158q0 78 -59 126t-165 48q-128 0 -204 -62t-76 -158q0 -78 59.5 -126t165.5 -48z" />
<glyph unicode="9" horiz-adv-x="1144" d="M680 1271q220 0 336.5 -141.5t83.5 -380.5q-51 -362 -291 -555.5t-608 -193.5q-14 0 -22 9.5t-6 23.5l17 128q2 14 12.5 23t24.5 10q229 6 378 95t227 295q-137 -142 -333 -142q-121 0 -208.5 56.5t-126 149.5t-22.5 203q24 175 176.5 297.5t361.5 122.5zM591 629 q111 0 185 66.5t87 158.5t-42.5 158.5t-166.5 66.5t-183 -66.5t-85 -158.5q-13 -93 40.5 -159t164.5 -66z" />
<glyph unicode=":" horiz-adv-x="486" d="M272 659q-51 0 -84.5 35t-33.5 86q0 61 47.5 106.5t108.5 45.5q51 0 85 -34.5t34 -85.5q0 -61 -48 -107t-109 -46zM176 -20q-51 0 -85 34.5t-34 85.5q0 61 48 106.5t109 45.5q51 0 85 -34.5t34 -85.5q0 -61 -48 -106.5t-109 -45.5z" />
<glyph unicode=";" horiz-adv-x="472" d="M255 659q-51 0 -84.5 35t-33.5 86q0 61 47.5 106.5t108.5 45.5q51 0 85 -34.5t34 -85.5q0 -61 -48 -107t-109 -46zM200 252q45 0 81 -30.5t36 -95.5q0 -99 -86 -222.5t-189 -180.5q-24 -14 -38 8l-8 12q-14 22 10 43q49 42 77.5 80.5t28.5 84.5q0 29 -32 61 q-37 37 -37 86q0 62 47.5 108t109.5 46z" />
<glyph unicode="&#x3c;" horiz-adv-x="1074" d="M1028 839q-1 -9 -7.5 -16t-11.5 -9t-19 -8l-667 -271l591 -271q24 -11 28 -20q2 -5 1 -13l-20 -140q-2 -15 -13 -23t-24 -2l-757 358q-32 15 -28 40l20 143q4 24 39 39l858 358q14 6 23 -2t7 -23z" />
<glyph unicode="=" horiz-adv-x="1150" d="M187 671q-15 0 -22.5 9.5t-5.5 24.5l15 105q2 15 12.5 24.5t25.5 9.5h807q15 0 23 -9.5t6 -24.5l-15 -105q-2 -15 -12.5 -24.5t-25.5 -9.5h-808zM132 271q-15 0 -23.5 9t-6.5 24l15 106q2 15 13 24t26 9h807q15 0 23 -9t6 -24l-15 -106q-5 -33 -38 -33h-807z" />
<glyph unicode="&#x3e;" horiz-adv-x="1073" d="M154 839l19 140q2 15 13 23t24 2l757 -358q32 -15 28 -39l-20 -143q-4 -25 -39 -40l-858 -358q-15 -6 -23.5 2t-6.5 23l20 140q1 9 7.5 16t11.5 9t19 8l668 271l-592 271q-24 11 -27 21q-2 5 -1 12z" />
<glyph unicode="?" horiz-adv-x="946" d="M753 940q0 135 -173 135q-84 0 -152.5 -30.5t-137.5 -85.5q-12 -9 -21 -9.5t-13.5 3.5t-12.5 16l-67 93q-3 4 -4 7.5t0 7t2 6t5 6.5l5.5 5.5t7 6t6.5 5.5q194 165 433 165q168 0 267.5 -80t99.5 -213q0 -70 -21 -126.5t-55 -95t-76 -71t-85.5 -61.5t-81 -59.5t-65 -72.5 t-35.5 -93q-5 -27 -31 -27l-114 1q-22 0 -22 31q0 57 25.5 109.5t63 90t82 78.5t82 76.5t63 83t25.5 98.5zM444 -20q-51 0 -84.5 34.5t-33.5 85.5q0 61 47.5 106t108.5 45q51 0 84.5 -34.5t33.5 -85.5q0 -61 -47.5 -106t-108.5 -45z" />
<glyph unicode="@" horiz-adv-x="1677" d="M1094 -289q-3 -22 -26 -27q-138 -23 -271 -23q-149 0 -271 37t-205.5 101t-141 152t-83.5 187.5t-26 209.5q0 146 45 276.5t126.5 231t191 174.5t243 112.5t277.5 38.5q306 0 480.5 -165t174.5 -450q0 -107 -26 -205.5t-74 -176t-122.5 -124t-164.5 -46.5 q-99 0 -156 37.5t-69 104.5q-51 -69 -122 -105.5t-143 -36.5q-121 0 -205.5 83.5t-84.5 242.5q0 221 136 365.5t349 144.5q132 0 253 -34q25 -7 23 -32l-46 -518q-10 -112 86 -112q50 0 88.5 36.5t60.5 96.5t33 128t11 139q0 477 -493 477q-202 0 -360.5 -83t-248 -237 t-89.5 -355q0 -90 16.5 -167t57.5 -149t104 -122t163 -80t229 -30q108 0 243 23q19 4 31.5 -8t11.5 -31zM764 144q91 0 162.5 75t82.5 216l21 263q-63 23 -128 23q-71 0 -127.5 -33.5t-90 -88t-51 -118.5t-17.5 -130q0 -104 42 -155.5t106 -51.5z" />
<glyph unicode="A" horiz-adv-x="1328" d="M1248 40q6 -18 -2.5 -29t-27.5 -11h-202q-28 0 -34 25l-73 256h-539l-149 -256q-14 -25 -41 -25h-196q-19 0 -25 10.5t4 29.5l731 1202q14 25 41 25h103q27 0 35 -25zM474 461h384l-126 443z" />
<glyph unicode="B" horiz-adv-x="1273" d="M949 635q101 -14 167.5 -81.5t66.5 -176.5q0 -73 -36.5 -141t-101 -120.5t-161.5 -84t-211 -31.5h-463h-136q-13 0 -21 9.5t-6 22.5l166 1185q1 13 12.5 22.5t24.5 9.5h175h389q192 0 295 -84.5t103 -209.5q0 -124 -73.5 -204.5t-189.5 -115.5zM958 915q0 58 -48 99.5 t-169 41.5h-310l-48 -333h284q82 0 141.5 16t90.5 44t45 60.5t14 71.5zM654 193q82 0 140 17t87 47t41.5 61.5t12.5 68.5q0 148 -250 148h-328l-48 -342h345z" />
<glyph unicode="C" horiz-adv-x="1362" d="M1250 348q29 -15 9 -46q-209 -324 -580 -324q-116 0 -220 39.5t-182.5 111t-124.5 179t-46 235.5q0 162 66 301.5t173 231t242 143.5t274 52q373 0 489 -323q11 -31 -22 -47l-143 -64q-31 -13 -44 18q-80 215 -309 215q-202 0 -337.5 -146t-135.5 -366q0 -169 94.5 -274 t253.5 -105q228 0 369 216q20 31 49 17z" />
<glyph unicode="D" horiz-adv-x="1384" d="M752 1249q121 0 226 -36.5t182.5 -104t121.5 -170.5t44 -229q0 -163 -62 -299t-166.5 -224.5t-239 -137t-281.5 -48.5h-400h-103q-13 0 -21 9.5t-6 22.5l166 1185q1 13 12.5 22.5t24.5 9.5h175h327zM584 199q218 0 353.5 135.5t135.5 355.5q0 167 -98.5 264t-271.5 97 h-273l-120 -852h274z" />
<glyph unicode="E" horiz-adv-x="1188" d="M1162 1249q14 0 22 -9t6 -23l-19 -134q-2 -14 -12.5 -23t-24.5 -9h-704l-45 -316h623q14 0 21.5 -9t5.5 -23l-18 -129q-5 -32 -37 -32h-622l-48 -343h724q14 0 22 -9.5t6 -23.5l-19 -134q-5 -32 -36 -32h-826h-107q-13 0 -21 9.5t-6 22.5l166 1185q1 13 12.5 22.5 t24.5 9.5h175h737z" />
<glyph unicode="F" horiz-adv-x="1137" d="M1142 1249q30 0 27 -32l-19 -134q-5 -32 -36 -32h-684l-53 -377h642q14 0 22 -9t6 -23l-18 -132q-2 -14 -12.5 -23t-24.5 -9h-643l-63 -446q-2 -13 -12.5 -22.5t-23.5 -9.5h-176q-13 0 -21 9.5t-6 22.5l166 1185q1 13 12.5 22.5t24.5 9.5h175h717z" />
<glyph unicode="G" horiz-adv-x="1397" d="M1271 557q16 0 24 -9t6 -24l-53 -376q-262 -170 -569 -170q-116 0 -220 39.5t-182.5 111t-124.5 179t-46 235.5q0 162 66 301.5t173 231t242 143.5t274 52q175 0 298 -67t194 -219q14 -30 -21 -47l-144 -64q-33 -14 -44 17q-91 179 -312 179q-202 0 -337.5 -146 t-135.5 -366q0 -169 94.5 -274t253.5 -105q182 0 339 73l38 272q5 33 38 33h149z" />
<glyph unicode="H" horiz-adv-x="1385" d="M1359 1249q13 0 21.5 -9.5t6.5 -22.5l-167 -1185q-2 -13 -12.5 -22.5t-23.5 -9.5h-176q-13 0 -21.5 9.5t-6.5 22.5l72 508h-694l-72 -508q-2 -13 -12.5 -22.5t-23.5 -9.5h-176q-13 0 -21 9.5t-6 22.5l166 1185q1 13 12.5 22.5t24.5 9.5h175q13 0 21.5 -9.5t6.5 -22.5 l-67 -479h694l67 479q1 13 12.5 22.5t24.5 9.5h175z" />
<glyph unicode="I" horiz-adv-x="451" d="M213 1217q2 13 13 22.5t24 9.5h175q13 0 21.5 -9.5t6.5 -22.5l-167 -1185q-2 -13 -12.5 -22.5t-23.5 -9.5h-176q-13 0 -21 9.5t-6 22.5z" />
<glyph unicode="J" horiz-adv-x="1015" d="M989 1249q15 0 22.5 -9t5.5 -24l-113 -804q-28 -200 -170 -317t-348 -117q-147 0 -245 64.5t-133 159.5q-12 30 22 45l145 64q29 14 43 -15q26 -54 68.5 -87.5t122.5 -33.5q222 0 259 255l110 786q2 15 13 24t26 9h172z" />
<glyph unicode="K" horiz-adv-x="1311" d="M425 1249q13 0 21.5 -9.5t6.5 -22.5l-167 -1185q-1 -13 -12 -22.5t-24 -9.5h-176q-13 0 -21 9.5t-6 22.5l167 1185q1 13 12 22.5t24 9.5h175zM1200 40q11 -15 3.5 -27.5t-29.5 -12.5h-215q-24 0 -38 18l-439 617l605 596q18 18 43 18h199q22 0 26.5 -11.5t-12.5 -28.5 l-571 -562z" />
<glyph unicode="L" horiz-adv-x="1071" d="M966 201q14 0 21.5 -9t5.5 -23l-19 -137q-2 -14 -12.5 -23t-24.5 -9h-863q-13 0 -21 9.5t-6 22.5l167 1185q1 13 12 22.5t24 9.5h175q13 0 21.5 -9.5t6.5 -22.5l-143 -1016h656z" />
<glyph unicode="M" horiz-adv-x="1588" d="M1441 1246q19 21 44 21h78q15 0 22.5 -9.5t5.5 -24.5l-168 -1200q-2 -15 -13 -24t-26 -9h-173q-15 0 -22.5 9t-5.5 24l102 728l-506 -580q-27 -30 -47 0l-343 580l-102 -728q-5 -33 -38 -33h-174q-15 0 -22.5 9t-5.5 24l169 1200q5 34 37 34h65q24 0 38 -21l448 -727z " />
<glyph unicode="N" horiz-adv-x="1403" d="M1376 1249q15 0 22.5 -9t5.5 -24l-169 -1200q-5 -34 -37 -34h-26q-26 0 -40 15l-737 807l-108 -771q-5 -33 -38 -33h-174q-15 0 -22.5 9t-5.5 24l169 1200q5 34 37 34h26q26 0 40 -15l737 -807l108 771q2 15 13 24t26 9h173z" />
<glyph unicode="O" d="M861 1271q156 0 285 -67t208 -197t79 -300q0 -162 -66 -301.5t-173 -231.5t-241.5 -144t-273.5 -52q-116 0 -220 39.5t-182.5 111t-124.5 179t-46 235.5q0 162 66 301.5t173 231t242 143.5t274 52zM707 179q202 0 337.5 146.5t135.5 366.5q0 169 -94 273.5t-254 104.5 q-202 0 -337.5 -146t-135.5 -366q0 -169 94.5 -274t253.5 -105z" />
<glyph unicode="P" horiz-adv-x="1204" d="M766 1249q214 0 328.5 -101.5t114.5 -262.5q0 -96 -37.5 -180t-107 -148t-176.5 -101t-238 -37h-309l-55 -387q-2 -13 -12.5 -22.5t-23.5 -9.5h-176q-13 0 -21 9.5t-6 22.5l166 1185q1 13 12.5 22.5t24.5 9.5h175h341zM630 615q174 0 250.5 69.5t76.5 181.5 q0 86 -62.5 137t-202.5 51h-262l-62 -439h262z" />
<glyph unicode="Q" d="M1433 707q0 -118 -35.5 -225.5t-98 -191t-144 -147.5t-177.5 -104q54 -129 203 -130q32 0 27 -32l-22 -151q-3 -18 -11.5 -25t-27.5 -7q-129 0 -224.5 76t-122.5 218q-67 -10 -121 -10q-116 0 -220 39.5t-182.5 111t-124.5 179t-46 235.5q0 162 66 301.5t173 231 t242 143.5t274 52q156 0 285 -67t208 -197t79 -300zM707 179q202 0 337.5 146.5t135.5 366.5q0 169 -94 273.5t-254 104.5q-202 0 -337.5 -146t-135.5 -366q0 -169 94.5 -274t253.5 -105z" />
<glyph unicode="R" horiz-adv-x="1266" d="M860 471l210 -405q12 -25 -2.5 -45.5t-42.5 -20.5h-177q-16 0 -23 14l-211 425h-270l-58 -407q-2 -13 -12.5 -22.5t-23.5 -9.5h-176q-13 0 -21 9.5t-6 22.5l166 1185q1 13 12.5 22.5t24.5 9.5h175h323q215 0 329.5 -98t114.5 -257q0 -149 -86.5 -261.5t-245.5 -161.5z M430 1054l-59 -420h242q327 0 327 241q0 179 -268 179h-242z" />
<glyph unicode="S" horiz-adv-x="1163" d="M425 905q0 -35 22 -62t58.5 -45.5t84.5 -34.5t101 -32.5t106 -35t101 -45.5t84.5 -62t58.5 -87.5t22 -117.5q0 -99 -47.5 -177.5t-128 -127t-181.5 -73.5t-214 -25q-232 0 -435 128q-26 17 -9 44l74 124q19 31 46 15q56 -33 77.5 -44.5t71 -32.5t99 -29t111.5 -8 q131 0 204 42.5t73 122.5q0 46 -27 81t-70.5 56t-100 42t-114.5 37.5t-114.5 43.5t-100 59.5t-70.5 86.5t-27 123q0 173 146.5 286.5t399.5 113.5q93 0 176.5 -20t126.5 -40t95 -51q26 -16 9 -44l-76 -127q-19 -30 -51 -10q-42 28 -73 45.5t-98.5 37.5t-139.5 20 q-135 0 -202.5 -51t-67.5 -126z" />
<glyph unicode="T" horiz-adv-x="1272" d="M1276 1249q13 0 21.5 -9.5t7.5 -22.5l-20 -137q-2 -13 -12.5 -22.5t-23.5 -9.5h-409l-143 -1016q-2 -13 -13 -22.5t-24 -9.5h-176q-13 0 -21 9.5t-6 22.5l143 1016h-410q-13 0 -21 9.5t-6 22.5l19 137q1 13 12.5 22.5t24.5 9.5h617h440z" />
<glyph unicode="U" horiz-adv-x="1365" d="M1339 1249q13 0 21.5 -9.5t6.5 -22.5l-97 -685q-16 -111 -57.5 -202.5t-102 -156t-139 -108.5t-167.5 -64.5t-188 -20.5t-182.5 20.5t-149.5 64.5t-108.5 108.5t-58.5 156t0 202.5l96 685q1 13 12.5 22.5t24.5 9.5h175q13 0 21.5 -9.5t6.5 -22.5l-89 -635 q-56 -401 280 -401q337 0 393 401l89 635q1 13 12.5 22.5t24.5 9.5h176z" />
<glyph unicode="V" horiz-adv-x="1291" d="M1355 1249q19 0 25 -10.5t-4 -29.5l-703 -1202q-16 -25 -42 -25h-89q-27 0 -35 25l-379 1202q-6 18 2.5 29t27.5 11h208q27 0 34 -25l240 -864l479 864q14 25 42 25h194z" />
<glyph unicode="W" horiz-adv-x="1797" d="M1863 1249q38 0 19 -40l-601 -1202q-13 -25 -42 -25h-72q-28 0 -34 25l-191 758l-400 -758q-12 -25 -41 -25h-77q-27 0 -33 25l-264 1202q-5 19 3 29.5t27 10.5h194q29 0 35 -25l156 -809l379 727q12 25 42 25h69q28 0 34 -25l187 -727l380 809q13 25 41 25h189z" />
<glyph unicode="X" horiz-adv-x="1460" d="M1394 1249q21 0 25 -11.5t-11 -28.5l-532 -572l379 -597q11 -16 3.5 -28t-28.5 -12h-218q-25 0 -38 20l-277 435l-385 -435q-17 -20 -43 -20h-199q-21 0 -25.5 11.5t10.5 28.5l535 585l-371 584q-10 17 -2.5 28.5t27.5 11.5h218q25 0 38 -20l269 -424l384 424 q19 20 43 20h198z" />
<glyph unicode="Y" horiz-adv-x="1253" d="M1315 1249q19 0 26 -11.5t-5 -28.5l-593 -779l-55 -398q-1 -13 -12.5 -22.5t-24.5 -9.5h-176q-13 0 -21.5 9.5t-6.5 22.5l56 391l-374 786q-7 16 2 28t28 12h201q22 0 34 -25l260 -588l430 588q18 25 42 25h189z" />
<glyph unicode="Z" horiz-adv-x="1309" d="M55 0q-15 0 -23 9t-6 24l6 40q3 25 19 41l868 934h-667q-13 0 -21.5 9.5t-6.5 22.5l20 137q1 13 12 22.5t24 9.5h1004q15 0 22.5 -9t5.5 -24l-5 -40q-5 -25 -19 -40l-867 -935h744q13 0 21.5 -9.5t6.5 -22.5l-19 -137q-2 -13 -13 -22.5t-24 -9.5h-1082z" />
<glyph unicode="[" horiz-adv-x="619" d="M602 1178h-233l-197 -1399h233q15 0 23 -9t6 -24l-11 -74q-5 -33 -37 -33h-363q-13 0 -21 9.5t-6 22.5l227 1615q1 13 12 22t24 9h363q15 0 22.5 -9t5.5 -24l-10 -73q-5 -33 -38 -33z" />
<glyph unicode="\" horiz-adv-x="1189" d="M280 1361l821 -1353q7 -12 4 -24.5t-14 -18.5l-82 -41q-11 -5 -24 0t-21 16l-821 1352q-7 12 -4 24.5t14 18.5l81 41q11 6 24.5 1.5t21.5 -16.5z" />
<glyph unicode="]" horiz-adv-x="619" d="M603 1317q13 0 21 -9t6 -22l-227 -1615q-2 -13 -12.5 -22.5t-23.5 -9.5h-362q-15 0 -23.5 9t-6.5 24l11 74q5 33 38 33h233l196 1399h-232q-15 0 -23 9t-6 24l10 73q5 33 38 33h363z" />
<glyph unicode="^" horiz-adv-x="929" d="M972 951q13 -23 -1.5 -45.5t-42.5 -22.5h-95q-15 0 -21 12l-228 412l-342 -412q-11 -12 -25 -12h-96q-28 0 -36 22.5t12 45.5l410 471q12 12 24 12h142q12 0 21 -12z" />
<glyph unicode="_" horiz-adv-x="799" d="M32 -173q-15 0 -23 9.5t-6 24.5l14 106q2 15 13 24t26 9h711q15 0 23 -9t6 -24l-15 -106q-2 -15 -12.5 -24.5t-25.5 -9.5h-711z" />
<glyph unicode="`" horiz-adv-x="480" d="M380 1016l-361 193q-12 6 -13.5 20t5.5 25l80 114q8 11 22.5 14.5t25.5 -2.5l332 -231q10 -8 12 -22t-5 -24l-49 -73q-8 -12 -23 -16.5t-26 2.5z" />
<glyph unicode="a" horiz-adv-x="1130" d="M1089 880l-80 -569q-8 -57 -8 -102.5t4 -73t14 -77.5q6 -35 -27 -46l-124 -38q-17 -5 -31 7q-19 18 -39 59.5t-28 90.5q-120 -153 -310 -153q-171 0 -284 115t-113 298q0 117 44.5 219.5t118.5 172.5t170 110.5t198 40.5q176 0 255 -131l11 77q5 32 37 32h164 q15 0 22.5 -8.5t5.5 -23.5zM524 175q125 0 212.5 90.5t87.5 232.5q0 108 -61 173.5t-160 65.5q-121 0 -210 -88.5t-89 -235.5q0 -110 62 -174t158 -64z" />
<glyph unicode="b" horiz-adv-x="1145" d="M675 934q171 0 284 -115t113 -298q0 -117 -44.5 -219.5t-118.5 -172.5t-170 -110.5t-198 -40.5q-176 0 -255 131l-11 -77q-5 -32 -36 -32h-165q-14 0 -21.5 9t-5.5 23l175 1246q2 14 12 23.5t24 9.5h164q14 0 22 -9.5t6 -23.5l-67 -475q117 131 292 131zM532 175 q121 0 210 89t89 235q0 110 -62.5 174t-157.5 64q-125 0 -212.5 -90.5t-87.5 -232.5q0 -108 61 -173.5t160 -65.5z" />
<glyph unicode="c" horiz-adv-x="1058" d="M937 247q29 -14 10 -45q-61 -92 -174.5 -158t-268.5 -66q-188 0 -309.5 114t-121.5 302q0 119 47 221.5t125 171.5t180.5 108t213.5 39q154 0 249 -66t130 -158q12 -30 -22 -45l-144 -64q-19 -6 -26.5 -2.5t-15.5 17.5q-62 121 -190 121q-137 0 -222 -88t-85 -239 q0 -111 62.5 -173t169.5 -62q126 0 220 121q21 28 47 15z" />
<glyph unicode="d" horiz-adv-x="1144" d="M1127 1311q14 0 22 -9.5t6 -23.5l-176 -1246q-5 -32 -36 -32h-164q-14 0 -22 9t-6 23l11 77q-117 -131 -292 -131q-171 0 -284 115t-113 298q0 117 44.5 219.5t118.5 172.5t170 110.5t198 40.5q177 0 256 -131l66 475q2 14 12.5 23.5t24.5 9.5h164zM535 175 q124 0 211.5 90.5t87.5 232.5q0 108 -61 173.5t-160 65.5q-121 0 -210 -88.5t-89 -235.5q0 -110 62.5 -174t158.5 -64z" />
<glyph unicode="e" horiz-adv-x="1101" d="M1020 422h-713v-7q0 -114 64 -179t161 -65q149 0 229 113q20 28 47 15l123 -63q29 -15 9 -45q-68 -103 -186 -158t-259 -55q-185 0 -303.5 113.5t-118.5 300.5q0 159 77.5 284.5t203.5 191.5t274 66q77 0 142 -17.5t119.5 -55.5t87.5 -98t46.5 -144.5t-3.5 -196.5z M602 755q-83 0 -154.5 -49.5t-109.5 -134.5h450q-1 53 -17 90.5t-44 57t-58.5 28t-66.5 8.5z" />
<glyph unicode="f" horiz-adv-x="724" d="M871 1288q13 -11 14.5 -20t-7.5 -26l-60 -93q-18 -28 -48 -13q-67 39 -120 39q-149 0 -175 -196l-9 -67h276q15 0 23 -9t6 -24l-18 -129q-2 -15 -12.5 -24.5t-25.5 -9.5h-277l-96 -683q-5 -33 -38 -33h-161q-15 0 -23 9t-6 24l96 683h-92q-15 0 -23 9.5t-6 24.5l18 129 q5 33 38 33h92l13 93q23 161 134 257t258 96q69 0 132.5 -20.5t96.5 -49.5z" />
<glyph unicode="g" horiz-adv-x="1082" d="M1087 963q28 0 24 -26l-21 -144q-3 -25 -28 -25q-72 0 -118 -51q5 -28 5 -60q0 -144 -126 -242.5t-314 -98.5h-142q-53 0 -80.5 -21t-27.5 -54q0 -27 22.5 -43.5t66.5 -16.5h187q201 0 306 -70t105 -193q0 -69 -29 -128.5t-87.5 -107t-157.5 -74.5t-230 -27 q-214 0 -322 67.5t-108 174.5q0 141 156 226q-54 19 -83 58.5t-29 92.5q0 147 177 208q-77 71 -77 185q0 144 125.5 242.5t313.5 98.5q171 0 268 -87q95 116 224 116zM532 482q78 0 137 44t59 115q0 58 -45 93t-111 35q-78 0 -136.5 -44.5t-58.5 -115.5q0 -58 44.5 -92.5 t110.5 -34.5zM731 -113q0 54 -57.5 88.5t-175.5 34.5q-133 0 -201.5 -43t-68.5 -106q0 -57 57.5 -90t174.5 -33q137 0 204 41t67 108z" />
<glyph unicode="h" horiz-adv-x="1104" d="M730 932q170 0 239.5 -93.5t46.5 -256.5l-77 -550q-5 -32 -36 -32h-165q-14 0 -21.5 9t-5.5 23l65 462q18 128 -21.5 184t-134.5 56q-109 0 -188.5 -74.5t-97.5 -203.5l-59 -424q-5 -32 -36 -32h-165q-14 0 -21.5 9t-5.5 23l175 1246q2 14 12 23.5t24 9.5h164 q14 0 22 -9.5t6 -23.5l-72 -509q136 163 352 163z" />
<glyph unicode="i" horiz-adv-x="485" d="M324 1031q-51 0 -85 35t-34 86q0 61 47.5 106.5t109.5 45.5q51 0 84.5 -35t33.5 -86q0 -61 -47.5 -106.5t-108.5 -45.5zM187 880q5 32 37 32h164q15 0 22.5 -8.5t5.5 -23.5l-120 -848q-5 -32 -36 -32h-164q-14 0 -22 9t-6 23z" />
<glyph unicode="j" horiz-adv-x="463" d="M302 1031q-51 0 -85 35t-34 86q0 61 48 106.5t109 45.5q51 0 85 -35t34 -86q0 -61 -48 -106.5t-109 -45.5zM-153 -399q-36 0 -31 32l16 116q3 25 34 32q21 5 33 8.5t33 13t35 24.5t30 38t27.5 58.5t17.5 81.5l123 875q5 32 37 32h164q15 0 22.5 -8.5t5.5 -23.5l-124 -882 q-25 -178 -140 -287.5t-283 -109.5z" />
<glyph unicode="k" horiz-adv-x="1018" d="M222 1278q2 14 12 23.5t24 9.5h164q14 0 22 -9.5t6 -23.5l-175 -1246q-5 -32 -36 -32h-165q-14 0 -21.5 9t-5.5 23zM700 0q-26 0 -37 20l-285 474l381 399q18 19 44 19h187q21 0 24.5 -12.5t-11.5 -27.5l-369 -381l278 -451q10 -17 3 -28.5t-27 -11.5h-188z" />
<glyph unicode="l" horiz-adv-x="440" d="M222 1278q2 14 12.5 23.5t24.5 9.5h164q14 0 21.5 -9.5t5.5 -23.5l-175 -1246q-5 -32 -36 -32h-165q-14 0 -21.5 9t-5.5 23z" />
<glyph unicode="m" horiz-adv-x="1692" d="M1337 932q157 0 223.5 -94t43.5 -258l-77 -547q-5 -33 -38 -33h-161q-15 0 -23.5 9t-6.5 24l65 463q35 238 -137 238q-91 0 -169 -75.5t-96 -202.5l-60 -423q-5 -33 -38 -33h-162q-15 0 -22.5 9t-5.5 24l65 463q33 238 -137 238q-92 0 -170.5 -75.5t-96.5 -202.5 l-59 -424q-5 -32 -36 -32h-165q-14 0 -21.5 9t-5.5 23l119 848q5 32 36 32h165q14 0 21.5 -8.5t5.5 -23.5l-16 -111q137 163 333 163q115 0 181.5 -51.5t84.5 -146.5q69 98 164.5 148t195.5 50z" />
<glyph unicode="n" horiz-adv-x="1104" d="M730 932q170 0 239.5 -93.5t46.5 -256.5l-77 -550q-5 -32 -36 -32h-165q-14 0 -21.5 9t-5.5 23l65 462q18 128 -21.5 184t-134.5 56q-109 0 -188.5 -74.5t-97.5 -203.5l-59 -424q-5 -32 -36 -32h-165q-14 0 -21.5 9t-5.5 23l119 848q5 32 36 32h165q14 0 21.5 -8.5 t5.5 -23.5l-16 -111q136 163 352 163z" />
<glyph unicode="o" horiz-adv-x="1147" d="M641 934q187 0 310 -114.5t123 -302.5q0 -158 -81 -283t-210 -190.5t-277 -65.5q-187 0 -310 114.5t-123 302.5q0 158 81 283t210 190.5t277 65.5zM534 175q121 0 210.5 89t89.5 235q0 110 -63 174t-158 64q-121 0 -210 -88.5t-89 -235.5q0 -110 62.5 -174t157.5 -64z " />
<glyph unicode="p" horiz-adv-x="1144" d="M675 934q171 0 284 -115t113 -298q0 -117 -44.5 -219.5t-118.5 -172.5t-170 -110.5t-198 -40.5q-177 0 -256 131l-66 -476q-2 -14 -12.5 -23t-24.5 -9h-164q-14 0 -22 9t-6 23l175 1247q5 32 37 32h164q15 0 22.5 -8.5t5.5 -23.5l-11 -77q117 131 292 131zM531 175 q121 0 210.5 89t89.5 235q0 110 -62.5 174t-158.5 64q-124 0 -211.5 -90.5t-87.5 -232.5q0 -108 60.5 -173.5t159.5 -65.5z" />
<glyph unicode="q" horiz-adv-x="1145" d="M1071 908q14 0 22 -8.5t6 -22.5l-176 -1247q-2 -14 -12.5 -23t-24.5 -9h-164q-14 0 -21.5 9t-5.5 23l67 476q-117 -131 -292 -131q-171 0 -284 115t-113 298q0 155 76 281t197 193.5t258 67.5q176 0 256 -131l10 78q5 31 37 31h164zM534 172q124 0 212 91t88 232 q0 107 -61 172.5t-160 65.5q-121 0 -210.5 -88.5t-89.5 -234.5q0 -110 63 -174t158 -64z" />
<glyph unicode="r" horiz-adv-x="683" d="M675 930q19 0 26.5 -7t4.5 -25l-26 -182q-4 -26 -35 -31q-43 -8 -77 -18t-77.5 -32t-74.5 -52t-56.5 -80t-34.5 -114l-50 -357q-5 -32 -36 -32h-165q-14 0 -21.5 9t-5.5 23l119 848q5 32 36 32h165q14 0 21.5 -8.5t5.5 -23.5l-21 -152q62 95 149.5 148.5t152.5 53.5z" />
<glyph unicode="s" horiz-adv-x="927" d="M359 655q0 -33 34.5 -57t86.5 -37.5t112 -33.5t112 -44.5t86.5 -72.5t34.5 -115q0 -104 -61 -177.5t-155.5 -106.5t-211.5 -33q-207 0 -354 99q-25 17 -10 44l65 108q20 34 47 18q47 -29 78 -44.5t82 -29.5t105 -14q78 0 123.5 22.5t45.5 67.5q0 29 -25 50.5t-65 37 t-89 30.5t-97.5 36t-88.5 48t-65 71.5t-25 102.5q0 146 114 227.5t306 81.5q173 0 300 -77q27 -16 10 -44l-66 -109q-18 -30 -44 -14q-106 66 -214 66q-76 0 -123.5 -27.5t-47.5 -73.5z" />
<glyph unicode="t" horiz-adv-x="852" d="M780 912q15 0 23 -9t6 -24l-18 -129q-2 -15 -12.5 -24.5t-25.5 -9.5h-279l-50 -356q-14 -95 7 -140.5t94 -45.5q56 0 134 40q34 17 45 -14l34 -105q10 -30 -20 -46q-128 -71 -266 -71q-158 0 -221.5 90.5t-40.5 257.5l55 390h-127q-15 0 -23 9.5t-6 24.5l18 129 q5 33 38 33h128l22 155q4 25 38 35l161 45q22 6 30.5 -1t6.5 -24l-30 -210h279z" />
<glyph unicode="u" horiz-adv-x="1104" d="M1030 912q15 0 22.5 -8.5t5.5 -23.5l-119 -848q-2 -14 -12.5 -23t-24.5 -9h-164q-14 0 -21.5 9t-5.5 23l16 111q-136 -163 -353 -163q-169 0 -239 93t-47 257l77 550q5 32 37 32h164q15 0 22.5 -8.5t5.5 -23.5l-65 -462q-18 -128 21 -184t134 -56q109 0 188.5 74.5 t97.5 203.5l59 424q5 32 37 32h164z" />
<glyph unicode="v" horiz-adv-x="998" d="M1012 912q24 0 33 -18.5t-5 -41.5l-555 -858q-8 -12 -23 -12h-56q-16 0 -20 12l-316 858q-8 22 6 41t39 19h182q18 0 24 -19l168 -537l318 537q11 19 32 19h173z" />
<glyph unicode="w" horiz-adv-x="1420" d="M1438 912q22 0 30 -17t-3 -39l-457 -861q-7 -13 -24 -13h-48q-16 0 -20 12l-199 508l-341 -507q-8 -13 -24 -13h-47q-16 0 -21 13l-215 861q-5 21 8 38.5t36 17.5h174q19 0 24 -20l111 -503l295 445q9 16 24 16h50q17 0 21 -16l168 -445l257 503q11 20 30 20h171z" />
<glyph unicode="x" horiz-adv-x="1027" d="M1012 912q21 0 25.5 -12t-10.5 -29l-378 -402l271 -429q10 -18 1.5 -29t-28.5 -11h-207q-26 0 -38 20l-169 270l-236 -270q-17 -20 -43 -20h-197q-20 0 -24 11.5t12 28.5l385 415l-262 417q-10 18 -2 29t28 11h205q25 0 37 -20l163 -258l227 257q18 21 43 21h197z" />
<glyph unicode="y" horiz-adv-x="1001" d="M1016 912q24 0 32.5 -18.5t-5.5 -41.5l-513 -828q-140 -227 -267 -325t-302 -98q-37 0 -32 32l16 116q3 28 35 32q91 10 172 85.5t207 274.5l-288 711q-10 23 4.5 41.5t39.5 18.5h179q16 0 24 -19l189 -510l308 510q11 19 32 19h169z" />
<glyph unicode="z" horiz-adv-x="1033" d="M29 0q-15 0 -23 8.5t-6 21.5l1 7q3 20 19 40l566 638h-404q-13 0 -21 9.5t-6 22.5l18 133q2 13 13 22.5t24 9.5h750q15 0 23 -7.5t6 -20.5l-1 -9q-4 -24 -19 -40l-572 -640h471q13 0 21 -10t6 -23l-18 -130q-1 -13 -12 -22.5t-24 -9.5h-812z" />
<glyph unicode="{" horiz-adv-x="527" d="M520 1187q-57 -9 -82.5 -48.5t-25.5 -133.5q0 -23 1 -89.5t1 -93.5q0 -150 -44 -233.5t-143 -110.5q117 -34 117 -189q0 -78 -49 -234.5t-49 -196.5q0 -38 17 -60t57 -28q12 -2 18 -10t4 -18l-11 -74q-2 -13 -11 -21t-22 -7q-223 8 -223 194q0 51 50 212t50 234 q0 129 -95 143q-24 5 -21 28l8 55q5 24 28 27q77 9 114.5 79t37.5 229q0 27 -1 90t-1 83q0 294 289 303q12 1 19.5 -7.5t5.5 -21.5l-10 -74q-5 -22 -29 -27z" />
<glyph unicode="|" horiz-adv-x="373" d="M249 1473q2 13 13 22.5t24 9.5h97q13 0 21.5 -9.5t6.5 -22.5l-239 -1697q-2 -13 -12.5 -22.5t-23.5 -9.5h-98q-13 0 -21.5 9.5t-6.5 22.5z" />
<glyph unicode="}" horiz-adv-x="527" d="M454 533q11 -2 16.5 -9.5t4.5 -17.5l-8 -55q-3 -23 -28 -28q-51 -8 -83 -36.5t-50.5 -95t-18.5 -175.5q0 -27 1 -90.5t1 -83.5q0 -151 -73 -224t-215 -78q-13 -1 -20.5 7t-5.5 21l11 74q3 23 29 28q57 9 82 48t25 133q0 23 -1 89.5t-1 93.5q0 151 44 234t143 110 q-117 34 -117 190q0 78 49 234.5t49 196.5q0 38 -17 60t-57 28q-24 5 -21 27l10 74q2 13 11.5 21.5t21.5 7.5q223 -8 223 -195q0 -51 -50 -212t-50 -234q0 -130 95 -143z" />
<glyph unicode="~" horiz-adv-x="1160" d="M1076 671q20 -12 8 -37q-56 -115 -139 -172t-167 -57q-69 0 -127.5 18.5t-92.5 40t-80 40t-93 18.5q-100 0 -173 -100q-22 -28 -47 -14l-52 31q-21 12 -9 37q56 115 139.5 172t167.5 57q69 0 127.5 -18.5t92 -40t79.5 -40t93 -18.5q100 0 173 100q20 29 47 14z" />
<glyph unicode="&#xa1;" horiz-adv-x="485" d="M310 934q51 0 85 -34.5t34 -85.5q0 -61 -47.5 -106t-108.5 -45q-51 0 -84.5 34.5t-33.5 85.5q0 61 47 106t108 45zM248 -304q-2 -14 -12 -23t-25 -9h-163q-14 0 -22 9t-6 23l143 813q7 33 37 33h106q14 0 22 -9.5t6 -23.5z" />
<glyph unicode="&#xa2;" horiz-adv-x="1058" d="M1018 710q12 -30 -22 -45l-144 -64q-19 -6 -26.5 -2.5t-15.5 17.5q-62 121 -190 121q-137 0 -222 -88t-85 -239q0 -111 62.5 -173t169.5 -62q126 0 220 121q21 28 47 15l125 -64q29 -14 10 -45q-51 -79 -144.5 -140.5t-220.5 -78.5l-30 -207q-2 -13 -12.5 -22.5 t-23.5 -9.5h-111q-13 0 -21.5 9.5t-6.5 22.5l30 211q-150 28 -242 136.5t-92 270.5q0 210 134 354.5t332 177.5l28 202q2 13 13 22.5t24 9.5h111q13 0 21.5 -9.5t6.5 -22.5l-28 -199q121 -17 196.5 -78t106.5 -141z" />
<glyph unicode="&#xa3;" horiz-adv-x="1213" d="M1189 1079q26 -28 7 -46l-99 -98q-9 -10 -15.5 -14.5t-16.5 -4.5t-19 9q-69 71 -136 109.5t-161 38.5q-104 0 -173.5 -52.5t-82.5 -146.5q-13 -92 0 -200h336q14 0 22 -9.5t6 -23.5l-14 -96q-2 -14 -12.5 -23.5t-24.5 -9.5h-296q2 -85 -39 -161.5t-158 -169.5 q68 21 143.5 23.5t145 -7.5l139 -20t148.5 -9.5t151 19.5q21 5 33.5 -4.5t9.5 -29.5l-18 -129q-3 -24 -35 -31q-106 -22 -211.5 -22t-188.5 13t-162.5 25t-163.5 9.5t-162 -28.5q-13 -5 -24.5 -0.5t-13.5 16.5l-23 107q-3 12 9 25q118 131 153.5 211.5t28.5 162.5h-146 q-14 0 -22 9.5t-6 23.5l13 96q2 14 12.5 23.5t24.5 9.5h102q-10 101 7 224q23 162 151.5 267.5t338.5 105.5q153 0 256.5 -51t185.5 -141z" />
<glyph unicode="&#xa4;" horiz-adv-x="1449" d="M1439 1074q10 -12 6.5 -27t-17.5 -25l-205 -138q101 -152 74 -346q-27 -195 -171 -347l166 -138q12 -10 11 -24.5t-14 -26.5l-100 -88q-13 -12 -28 -11t-23 15l-112 186q-172 -124 -368 -124t-333 123l-164 -185q-12 -14 -27.5 -15t-25.5 11l-75 88q-10 12 -6 26.5 t18 24.5l205 138q-101 152 -74 347q27 194 171 346l-166 138q-11 10 -10.5 25t13.5 27l99 88q14 12 29 11t23 -15l112 -186q172 124 368 124q195 0 333 -124l164 186q12 14 27 15t26 -11zM684 165q153 0 268 104t138 269t-62.5 269t-238.5 104t-268.5 -104t-138.5 -269 t63 -269t239 -104z" />
<glyph unicode="&#xa5;" horiz-adv-x="1253" d="M1315 1249q19 0 26 -11.5t-5 -28.5l-477 -627h143q15 0 23.5 -9.5t6.5 -24.5l-11 -71q-2 -15 -12.5 -24.5t-25.5 -9.5h-229l-11 -13l-14 -104h238q15 0 23 -9.5t6 -24.5l-11 -71q-2 -15 -12.5 -24.5t-25.5 -9.5h-237l-22 -155q-1 -13 -12.5 -22.5t-24.5 -9.5h-176 q-13 0 -21.5 9.5t-6.5 22.5l23 155h-245q-15 0 -23 9.5t-6 24.5l10 71q2 15 12.5 24.5t25.5 9.5h245l14 97l-10 20h-232q-15 0 -23 9.5t-6 24.5l10 71q2 15 12.5 24.5t25.5 9.5h148l-299 627q-7 16 2 28t28 12h201q22 0 34 -25l260 -588l430 588q18 25 42 25h189z" />
<glyph unicode="&#xa6;" horiz-adv-x="373" d="M249 1473q2 13 13 22.5t24 9.5h97q13 0 21.5 -9.5t6.5 -22.5l-74 -526q-2 -13 -12.5 -22.5t-23.5 -9.5h-98q-13 0 -21.5 9.5t-6.5 22.5zM84 303q2 13 13 22t24 9h98q13 0 21 -9t6 -22l-74 -527q-2 -13 -12.5 -22.5t-23.5 -9.5h-98q-13 0 -21.5 9.5t-6.5 22.5z" />
<glyph unicode="&#xa7;" horiz-adv-x="1159" d="M1158 1097q1 -17 -10.5 -28.5t-28.5 -11.5h-153q-23 0 -26 23q-13 94 -69 144t-169 50q-122 0 -197.5 -58.5t-89.5 -158.5q-6 -42 10 -75t65.5 -64.5t81.5 -47t111 -48.5q102 -43 154.5 -69t124 -86t87 -123.5t-8.5 -169.5t-111 -237q88 -90 69 -226q-18 -123 -95.5 -215 t-194 -138.5t-255.5 -46.5q-208 0 -324 93.5t-124 266.5q-1 17 10.5 28.5t28.5 11.5h153q23 0 26 -23q13 -97 71.5 -147t184.5 -50q122 0 199.5 59t91.5 158q6 44 -16 81.5t-65 63t-98 52.5t-116 49.5t-118.5 54.5t-106 67.5t-78 88.5t-35.5 116t24 153t97 197 q-90 92 -71 226q26 184 177 290.5t364 106.5q197 0 309.5 -93.5t120.5 -263.5zM797 230q28 62 35.5 114.5t-1 91t-34.5 73t-57 58t-78 48t-87 41.5t-94 40.5t-90 42.5q-28 -61 -36 -113.5t0.5 -90.5t35 -72.5t57.5 -58t78 -49t87 -42t94 -40.5t90 -43z" />
<glyph unicode="&#xa8;" horiz-adv-x="700" d="M131 1037q-47 0 -78 32t-31 79q0 57 43.5 99t100.5 42q47 0 78.5 -32t31.5 -79q0 -57 -44 -99t-101 -42zM534 1037q-47 0 -78 32t-31 79q0 57 43.5 99t100.5 42q47 0 78.5 -32t31.5 -79q0 -57 -44 -99t-101 -42z" />
<glyph unicode="&#xa9;" horiz-adv-x="1447" d="M837 1260q157 0 284 -75t197.5 -203.5t70.5 -283.5q0 -141 -61 -272.5t-161 -226.5t-234 -152t-275 -57q-157 0 -284 74.5t-197.5 202.5t-70.5 284q0 141 61 272.5t161 227t234 152.5t275 57zM670 70q163 0 310 83.5t237 227.5t90 308q0 207 -137 349t-344 142 q-163 0 -310 -83.5t-237 -227.5t-90 -308q0 -207 137 -349t344 -142zM1053 461q17 -8 5 -27q-123 -190 -340 -190q-141 0 -238.5 91t-97.5 240q0 126 66 226t166 151t210 51q221 0 288 -190q7 -18 -13 -27l-84 -38q-19 -8 -26 10q-47 127 -182 127q-119 0 -198 -85.5 t-79 -215.5q0 -99 55 -160.5t149 -61.5q133 0 217 126q13 19 29 11z" />
<glyph unicode="&#xab;" horiz-adv-x="1050" d="M495 266q8 -7 7 -19l-13 -88q-4 -24 -24 -33.5t-38 4.5l-326 266q-8 7 -7 19l16 111q3 13 12 19l401 267q22 14 40 4t15 -35l-13 -87q-1 -11 -13 -19l-280 -204zM942 812q22 14 40 4t14 -35l-12 -87q-1 -11 -13 -19l-280 -204l223 -205q10 -8 7 -19l-12 -88 q-4 -24 -24.5 -33.5t-38.5 4.5l-325 266q-10 8 -7 19l7 56l8 55q1 11 13 19z" />
<glyph unicode="&#xac;" horiz-adv-x="1092" d="M986 646q15 0 23 -9.5t6 -24.5l-42 -295q-2 -14 -12.5 -23t-24.5 -9h-121q-14 0 -22 9t-6 23l22 156h-673q-15 0 -23 9t-6 24l15 106q2 15 12.5 24.5t25.5 9.5h826z" />
<glyph unicode="&#xad;" horiz-adv-x="977" d="M126 403q-15 0 -23 9.5t-6 24.5l18 129q2 15 12.5 24.5t25.5 9.5h712q15 0 23 -9.5t6 -24.5l-18 -129q-2 -15 -12.5 -24.5t-25.5 -9.5h-712z" />
<glyph unicode="&#xae;" horiz-adv-x="1447" d="M837 1260q157 0 284 -75t197.5 -203.5t70.5 -283.5q0 -141 -61 -272.5t-161 -226.5t-234 -152t-275 -57q-157 0 -284 74.5t-197.5 202.5t-70.5 284q0 141 61 272.5t161 227t234 152.5t275 57zM670 70q163 0 310 83.5t237 227.5t90 308q0 207 -137 349t-344 142 q-163 0 -310 -83.5t-237 -227.5t-90 -308q0 -207 137 -349t344 -142zM1084 782q0 -87 -51 -153.5t-144 -95.5l123 -238q7 -14 -1 -26t-25 -12h-104q-9 0 -14 8l-124 250h-158l-34 -239q-4 -19 -21 -19h-103q-8 0 -12.5 6t-3.5 13l97 695q1 7 7.5 13t14.5 6h103h189 q126 0 193.5 -57.5t67.5 -150.5zM744 629q192 0 192 142q0 105 -157 105h-142l-35 -247h142z" />
<glyph unicode="&#xaf;" horiz-adv-x="612" d="M-3 1211q2 14 13.5 23.5t24.5 9.5h564q14 0 22.5 -10t6.5 -23l-13 -88q-1 -13 -12 -23t-25 -10h-564q-14 0 -22.5 10t-6.5 23z" />
<glyph unicode="&#xb0;" horiz-adv-x="493" d="M306 881q-86 0 -142 57.5t-56 142.5q0 102 79.5 177t182.5 75q85 0 141.5 -58t56.5 -143q0 -102 -79.5 -176.5t-182.5 -74.5zM327 1028q36 0 62.5 26.5t26.5 61.5q0 30 -18.5 50.5t-48.5 20.5q-36 0 -62 -27t-26 -63q0 -29 18 -49t48 -20z" />
<glyph unicode="&#xb1;" horiz-adv-x="1073" d="M982 747q15 0 22.5 -9t5.5 -24l-15 -106q-2 -15 -12.5 -24.5t-25.5 -9.5h-317l-45 -317q-5 -33 -38 -33h-105q-15 0 -23 9t-6 24l44 317h-317q-15 0 -23 9.5t-6 24.5l15 106q2 15 13 24t26 9h317l45 317q5 34 37 34h106q15 0 23 -9.5t6 -24.5l-44 -317h317zM901 173 q15 0 22.5 -9.5t5.5 -24.5l-14 -106q-5 -33 -38 -33h-807q-15 0 -23.5 9t-6.5 24l15 106q2 15 13 24.5t26 9.5h807z" />
<glyph unicode="&#xb4;" horiz-adv-x="514" d="M72 1016q-14 -7 -26.5 -2.5t-17.5 16.5l-30 73q-4 11 2 24.5t19 21.5l397 231q13 7 26 3t18 -15l48 -114q4 -12 -1.5 -25.5t-19.5 -19.5z" />
<glyph unicode="&#xb6;" horiz-adv-x="1123" d="M1097 1249q13 0 21.5 -9.5t6.5 -22.5l-203 -1441q-2 -13 -12.5 -22.5t-23.5 -9.5h-31q-13 0 -21.5 9.5t-6.5 22.5l194 1383h-423l-195 -1383q-2 -13 -12.5 -22.5t-23.5 -9.5h-31q-13 0 -21 9.5t-6 22.5l99 707q-132 11 -217 107t-85 231q0 114 62 213t164 157t216 58h518 h31z" />
<glyph unicode="&#xb7;" horiz-adv-x="485" d="M225 329q-51 0 -85 35t-34 86q0 61 48 106.5t109 45.5q51 0 84.5 -35t33.5 -86q0 -61 -47.5 -106.5t-108.5 -45.5z" />
<glyph unicode="&#xb8;" horiz-adv-x="1248" d="M161 -451q-94 0 -150 42q-23 18 -7 47l17 30q17 31 49 16q54 -27 94 -27q48 0 81 24t33 71q0 52 -63.5 58.5t-124.5 -10.5q-6 -1 -9 -1q-22 -3 -29 4.5t2 29.5l95 187h121l-59 -117q102 18 164.5 -17.5t62.5 -114.5q0 -102 -82 -162t-195 -60z" />
<glyph unicode="&#xbb;" horiz-adv-x="1050" d="M526 415q-3 -12 -13 -19l-401 -266q-22 -14 -39.5 -4.5t-14.5 33.5l12 88q3 12 13 19l281 205l-223 204q-9 8 -8 19l12 87q4 25 24.5 35t38.5 -4l326 -267q8 -7 7 -19zM953 545q10 -8 7 -19l-7 -55l-8 -56q-1 -11 -13 -19l-401 -266q-22 -14 -40 -4.5t-14 33.5l12 88 q1 11 13 19l280 205l-222 204q-9 8 -8 19l13 87q3 25 23.5 35t38.5 -4z" />
<glyph unicode="&#xbc;" horiz-adv-x="1886" d="M1258 1319q7 12 20.5 16.5t24.5 -0.5l71 -35q11 -5 14.5 -18t-3.5 -25l-796 -1352q-7 -11 -20.5 -16t-24.5 0l-71 35q-11 6 -14.5 19t3.5 24zM582 1227q8 0 14 -6.5t5 -14.5l-110 -779q-2 -8 -9 -14.5t-15 -6.5h-116q-8 0 -13.5 6.5t-4.5 14.5l91 646l-143 -66 q-21 -10 -28 10l-25 77q-3 8 1.5 16t12.5 12l211 99q11 6 27 6h102zM1782 297q22 0 19 -22l-11 -80q-3 -21 -25 -21h-103l-22 -153q-1 -8 -8 -14.5t-15 -6.5h-111q-9 0 -15 6.5t-4 14.5l21 153h-415q-22 0 -19 21l9 70q2 7 6 11l509 532q13 13 29 13h105q9 0 14.5 -6.5 t3.5 -14.5l-71 -503h103zM1267 297h259l44 317z" />
<glyph unicode="&#xbd;" horiz-adv-x="1915" d="M1374 1300q11 -5 14.5 -18t-3.5 -25l-796 -1352q-7 -11 -20.5 -16t-24.5 0l-71 35q-11 6 -14.5 19t3.5 24l796 1352q7 12 20.5 16.5t24.5 -0.5zM491 427q-2 -8 -9 -14.5t-15 -6.5h-116q-8 0 -13.5 6.5t-4.5 14.5l91 646l-143 -66q-21 -10 -28 10l-25 77q-3 8 1.5 16 t12.5 12l211 99q11 6 27 6h102q8 0 14 -6.5t5 -14.5zM1825 590q-17 -119 -108 -223t-284 -243h327q9 0 14 -6t4 -15l-12 -86q-2 -8 -9 -14.5t-15 -6.5h-575q-22 0 -19 22l4 27q4 19 13 26q277 194 382.5 304.5t117.5 198.5q18 128 -119 128q-62 0 -113.5 -25.5t-109.5 -72.5 q-18 -14 -31 7l-47 64q-9 13 13 31q71 60 148 93.5t178 33.5q137 0 196.5 -67.5t44.5 -175.5z" />
<glyph unicode="&#xbe;" horiz-adv-x="2050" d="M1405 1319q7 12 20.5 16.5t24.5 -0.5l71 -35q11 -5 14.5 -18t-3.5 -25l-796 -1352q-7 -11 -20.5 -16t-24.5 0l-71 35q-11 6 -14.5 19t3.5 24zM616 829q143 -50 143 -174q0 -118 -98 -190.5t-260 -72.5q-110 0 -178.5 33t-123.5 93q-17 18 -5 30l69 71q11 11 17 12.5 t17 -6.5q27 -27 42 -39.5t42.5 -30.5t60 -25.5t72.5 -7.5q81 0 133.5 33.5t52.5 91.5q0 48 -49 84.5t-165 39.5q-22 2 -19 21l8 61q3 19 25 21q67 2 115.5 16t73 35.5t35 44t10.5 47.5q0 45 -34 70t-98 25q-60 0 -107 -20t-111 -62q-13 -8 -19 -6t-13 12l-43 63q-9 13 13 31 q147 112 320 112q126 0 188.5 -55t62.5 -137q0 -71 -45 -128t-132 -93zM1929 297q22 0 19 -22l-11 -80q-3 -21 -25 -21h-103l-22 -153q-1 -8 -8 -14.5t-15 -6.5h-111q-9 0 -15 6.5t-4 14.5l21 153h-415q-22 0 -19 21l9 70q2 7 6 11l509 532q13 13 29 13h105q9 0 14.5 -6.5 t3.5 -14.5l-71 -503h103zM1414 297h259l44 317z" />
<glyph unicode="&#xbf;" horiz-adv-x="880" d="M505 934q51 0 84.5 -34.5t33.5 -85.5q0 -61 -47.5 -106t-108.5 -45q-51 0 -84.5 34.5t-33.5 85.5q0 61 47.5 106t108.5 45zM197 -27q0 -135 172 -135q84 0 152.5 30.5t137.5 85.5q12 10 21 10.5t14 -4t13 -15.5l67 -93q2 -3 3 -6t1 -5.5t-0.5 -5t-2.5 -5.5t-3.5 -5 t-4.5 -5t-4.5 -4t-5.5 -4.5t-5 -4.5q-194 -165 -434 -165q-168 0 -267.5 80t-99.5 213q0 70 21 126.5t55 95t76 71t85.5 62t81 60t65 72.5t35.5 93q5 26 31 26h115q22 0 22 -32q0 -57 -25.5 -109.5t-63 -90t-82 -78.5t-82 -76.5t-63 -83t-25.5 -98.5z" />
<glyph unicode="&#xc0;" horiz-adv-x="1328" d="M479 1546q-12 6 -13.5 20t6.5 25l79 114q8 11 23 15t26 -3l331 -230q10 -8 12 -22.5t-5 -24.5l-49 -72q-8 -12 -22.5 -16.5t-25.5 2.5zM1248 40q6 -18 -2.5 -29t-27.5 -11h-202q-28 0 -34 25l-73 256h-539l-149 -256q-14 -25 -41 -25h-196q-19 0 -25 10.5t4 29.5 l731 1202q14 25 41 25h103q27 0 35 -25zM474 461h384l-126 443z" />
<glyph unicode="&#xc1;" horiz-adv-x="1328" d="M666 1368l-30 72q-4 11 2 25t19 22l397 230q13 7 26 3t18 -15l48 -114q4 -12 -1 -25.5t-19 -19.5l-415 -192q-14 -7 -27 -2.5t-18 16.5zM1248 40q6 -18 -2.5 -29t-27.5 -11h-202q-28 0 -34 25l-73 256h-539l-149 -256q-14 -25 -41 -25h-196q-19 0 -25 10.5t4 29.5 l731 1202q14 25 41 25h103q27 0 35 -25zM474 461h384l-126 443z" />
<glyph unicode="&#xc2;" horiz-adv-x="1328" d="M510 1370q-22 0 -25.5 12.5t13.5 28.5l247 233q18 17 45 17h102q25 0 40 -17l181 -233q12 -16 5 -28.5t-29 -12.5h-154q-27 0 -38 20l-77 120l-111 -120q-17 -20 -44 -20h-155zM1248 40q6 -18 -2.5 -29t-27.5 -11h-202q-28 0 -34 25l-73 256h-539l-149 -256 q-14 -25 -41 -25h-196q-19 0 -25 10.5t4 29.5l731 1202q14 25 41 25h103q27 0 35 -25zM474 461h384l-126 443z" />
<glyph unicode="&#xc3;" horiz-adv-x="1328" d="M502 1382q-16 0 -23.5 9t-3.5 26q24 114 88.5 171t145.5 57q50 0 88 -17t56.5 -37t44.5 -37t55 -17q73 0 93 75q10 33 40 33h53q16 0 22.5 -14.5t-0.5 -40.5q-26 -105 -88.5 -156.5t-140.5 -51.5q-41 0 -73.5 11.5t-52 27.5t-37 32t-38 27.5t-44.5 11.5q-73 0 -93 -78 q-9 -32 -41 -32h-51zM1248 40q6 -18 -2.5 -29t-27.5 -11h-202q-28 0 -34 25l-73 256h-539l-149 -256q-14 -25 -41 -25h-196q-19 0 -25 10.5t4 29.5l731 1202q14 25 41 25h103q27 0 35 -25zM474 461h384l-126 443z" />
<glyph unicode="&#xc4;" horiz-adv-x="1328" d="M599 1374q-47 0 -78.5 32.5t-31.5 79.5q0 56 44 98.5t101 42.5q47 0 78 -32.5t31 -79.5q0 -57 -43.5 -99t-100.5 -42zM1001 1374q-47 0 -78 32.5t-31 79.5q0 56 44 98.5t101 42.5q47 0 78.5 -32.5t31.5 -79.5q0 -57 -44.5 -99t-101.5 -42zM1248 40q6 -18 -2.5 -29 t-27.5 -11h-202q-28 0 -34 25l-73 256h-539l-149 -256q-14 -25 -41 -25h-196q-19 0 -25 10.5t4 29.5l731 1202q14 25 41 25h103q27 0 35 -25zM474 461h384l-126 443z" />
<glyph unicode="&#xc5;" horiz-adv-x="1328" d="M1248 40q6 -18 -2.5 -29t-27.5 -11h-202q-28 0 -34 25l-73 256h-539l-149 -256q-14 -25 -41 -25h-196q-19 0 -25 10.5t4 29.5l712 1171q-45 26 -70.5 72t-25.5 102q0 102 79.5 177t182.5 75q85 0 141.5 -58t56.5 -143q0 -73 -43.5 -135t-111.5 -93zM823 1512 q-45 0 -78.5 -34t-33.5 -79q0 -37 23 -62.5t61 -25.5q45 0 78.5 34t33.5 78q0 38 -23 63.5t-61 25.5zM474 461h384l-126 443z" />
<glyph unicode="&#xc6;" horiz-adv-x="1866" d="M1841 1249q30 0 27 -32l-19 -134q-2 -14 -12.5 -23t-24.5 -9h-704l-45 -316h623q14 0 22 -9t6 -23l-18 -129q-5 -32 -37 -32h-623l-48 -343h725q14 0 22 -9.5t6 -23.5l-19 -134q-5 -32 -36 -32h-826h-107q-13 0 -21.5 9.5t-6.5 22.5l35 249h-365l-181 -262 q-14 -19 -42 -19h-186q-19 0 -26 13t5 32l838 1185q13 19 41 19h86h174h737zM520 461h265l67 478z" />
<glyph unicode="&#xc7;" horiz-adv-x="1362" d="M1350 948q11 -31 -22 -47l-143 -64q-31 -13 -44 18q-80 215 -309 215q-202 0 -337.5 -146t-135.5 -366q0 -169 94.5 -274t253.5 -105q228 0 369 216q20 31 49 17l125 -64q29 -15 9 -46q-193 -299 -523 -322l-39 -77q102 18 164.5 -17.5t62.5 -114.5q0 -102 -82 -162 t-195 -60q-94 0 -150 42q-24 19 -8 47l18 30q17 31 49 16q54 -27 94 -27q48 0 80.5 24t32.5 71q0 51 -62.5 58t-124.5 -10q-6 -1 -9 -1q-22 -3 -29 4.5t2 29.5l75 148q-106 11 -198.5 54.5t-161.5 114.5t-109 172.5t-40 220.5q0 162 66 301.5t173 231t242 143.5t274 52 q373 0 489 -323z" />
<glyph unicode="&#xc8;" horiz-adv-x="1188" d="M415 1546q-12 6 -13.5 20t5.5 25l80 114q8 11 22.5 14.5t25.5 -2.5l331 -230q10 -8 12.5 -22.5t-4.5 -24.5l-49 -72q-8 -12 -23 -16.5t-26 2.5zM1162 1249q14 0 22 -9t6 -23l-19 -134q-2 -14 -12.5 -23t-24.5 -9h-704l-45 -316h623q14 0 21.5 -9t5.5 -23l-18 -129 q-5 -32 -37 -32h-622l-48 -343h724q14 0 22 -9.5t6 -23.5l-19 -134q-5 -32 -36 -32h-826h-107q-13 0 -21 9.5t-6 22.5l166 1185q1 13 12.5 22.5t24.5 9.5h175h737z" />
<glyph unicode="&#xc9;" horiz-adv-x="1188" d="M602 1368l-30 72q-4 11 2 25t19 22l397 230q13 7 26 3t18 -15l48 -114q4 -12 -1.5 -25.5t-19.5 -19.5l-415 -192q-14 -7 -26.5 -2.5t-17.5 16.5zM1162 1249q14 0 22 -9t6 -23l-19 -134q-2 -14 -12.5 -23t-24.5 -9h-704l-45 -316h623q14 0 21.5 -9t5.5 -23l-18 -129 q-5 -32 -37 -32h-622l-48 -343h724q14 0 22 -9.5t6 -23.5l-19 -134q-5 -32 -36 -32h-826h-107q-13 0 -21 9.5t-6 22.5l166 1185q1 13 12.5 22.5t24.5 9.5h175h737z" />
<glyph unicode="&#xca;" horiz-adv-x="1188" d="M446 1370q-22 0 -25.5 12.5t13.5 28.5l247 233q18 17 44 17h102q25 0 40 -17l182 -233q12 -16 5 -28.5t-29 -12.5h-154q-28 0 -39 20l-77 120l-110 -120q-17 -20 -45 -20h-154zM1162 1249q14 0 22 -9t6 -23l-19 -134q-2 -14 -12.5 -23t-24.5 -9h-704l-45 -316h623 q14 0 21.5 -9t5.5 -23l-18 -129q-5 -32 -37 -32h-622l-48 -343h724q14 0 22 -9.5t6 -23.5l-19 -134q-5 -32 -36 -32h-826h-107q-13 0 -21 9.5t-6 22.5l166 1185q1 13 12.5 22.5t24.5 9.5h175h737z" />
<glyph unicode="&#xcb;" horiz-adv-x="1188" d="M534 1374q-47 0 -78 32.5t-31 79.5q0 57 43.5 99t100.5 42q47 0 78.5 -32.5t31.5 -79.5q0 -57 -44 -99t-101 -42zM937 1374q-47 0 -78 32.5t-31 79.5q0 57 43.5 99t100.5 42q47 0 78.5 -32.5t31.5 -79.5q0 -57 -44 -99t-101 -42zM1162 1249q14 0 22 -9t6 -23l-19 -134 q-2 -14 -12.5 -23t-24.5 -9h-704l-45 -316h623q14 0 21.5 -9t5.5 -23l-18 -129q-5 -32 -37 -32h-622l-48 -343h724q14 0 22 -9.5t6 -23.5l-19 -134q-5 -32 -36 -32h-826h-107q-13 0 -21 9.5t-6 22.5l166 1185q1 13 12.5 22.5t24.5 9.5h175h737z" />
<glyph unicode="&#xcc;" horiz-adv-x="451" d="M396 1354l-362 192q-12 6 -13.5 20t6.5 25l79 114q8 11 23 15t26 -3l331 -230q10 -8 12.5 -22.5t-4.5 -24.5l-50 -72q-8 -12 -22.5 -16.5t-25.5 2.5zM213 1217q2 13 13 22.5t24 9.5h175q13 0 21.5 -9.5t6.5 -22.5l-167 -1185q-2 -13 -12.5 -22.5t-23.5 -9.5h-176 q-13 0 -21 9.5t-6 22.5z" />
<glyph unicode="&#xcd;" horiz-adv-x="451" d="M266 1354q-14 -7 -27 -2.5t-18 16.5l-30 72q-4 11 2 25t19 22l397 230q13 7 26 3t18 -15l48 -114q4 -12 -1 -25.5t-19 -19.5zM213 1217q2 13 13 22.5t24 9.5h175q13 0 21.5 -9.5t6.5 -22.5l-167 -1185q-2 -13 -12.5 -22.5t-23.5 -9.5h-176q-13 0 -21 9.5t-6 22.5z" />
<glyph unicode="&#xce;" horiz-adv-x="451" d="M452 1390l-77 120l-111 -120q-17 -20 -44 -20h-154q-22 0 -26 12.5t13 28.5l248 233q18 17 44 17h102q25 0 40 -17l181 -233q12 -16 5 -28.5t-29 -12.5h-154q-27 0 -38 20zM213 1217q2 13 13 22.5t24 9.5h175q13 0 21.5 -9.5t6.5 -22.5l-167 -1185q-2 -13 -12.5 -22.5 t-23.5 -9.5h-176q-13 0 -21 9.5t-6 22.5z" />
<glyph unicode="&#xcf;" horiz-adv-x="451" d="M154 1374q-47 0 -78 32.5t-31 79.5q0 57 43.5 99t100.5 42q47 0 78 -32.5t31 -79.5q0 -57 -43.5 -99t-100.5 -42zM557 1374q-47 0 -78.5 32.5t-31.5 79.5q0 56 44 98.5t101 42.5q47 0 78.5 -32.5t31.5 -79.5q0 -57 -44 -99t-101 -42zM213 1217q2 13 13 22.5t24 9.5h175 q13 0 21.5 -9.5t6.5 -22.5l-167 -1185q-2 -13 -12.5 -22.5t-23.5 -9.5h-176q-13 0 -21 9.5t-6 22.5z" />
<glyph unicode="&#xd0;" horiz-adv-x="1384" d="M752 1249q121 0 226 -36.5t182.5 -104t121.5 -170.5t44 -229q0 -163 -62 -299t-166.5 -224.5t-239 -137t-281.5 -48.5h-400h-103q-13 0 -21 9.5t-6 22.5l70 504h-137q-15 0 -23 9t-6 24l14 100q2 15 12.5 24.5t25.5 9.5h138l72 514q1 13 12.5 22.5t24.5 9.5h175h327z M584 199q218 0 353.5 135.5t135.5 355.5q0 167 -98.5 264t-271.5 97h-273l-49 -348h318q15 0 22.5 -9.5t5.5 -24.5l-14 -100q-5 -33 -38 -33h-318l-47 -337h274z" />
<glyph unicode="&#xd1;" horiz-adv-x="1403" d="M553 1382q-16 0 -23.5 9t-3.5 26q24 114 88.5 171t145.5 57q41 0 73.5 -11t52 -27t37 -32t38 -27t44.5 -11q72 0 92 75q11 33 41 33h52q16 0 22.5 -14.5t-0.5 -40.5q-26 -105 -88.5 -156.5t-140.5 -51.5q-41 0 -73.5 11.5t-52 27.5t-37 32t-38 27.5t-44.5 11.5 q-73 0 -93 -78q-9 -32 -40 -32h-52zM1376 1249q15 0 22.5 -9t5.5 -24l-169 -1200q-5 -34 -37 -34h-26q-26 0 -40 15l-737 807l-108 -771q-5 -33 -38 -33h-174q-15 0 -22.5 9t-5.5 24l169 1200q5 34 37 34h26q26 0 40 -15l737 -807l108 771q2 15 13 24t26 9h173z" />
<glyph unicode="&#xd2;" d="M915 1354l-362 192q-12 6 -13.5 20t6.5 25l80 114q8 11 22.5 14.5t25.5 -2.5l331 -230q10 -8 12.5 -22.5t-4.5 -24.5l-49 -72q-8 -12 -23 -16.5t-26 2.5zM861 1271q156 0 285 -67t208 -197t79 -300q0 -162 -66 -301.5t-173 -231.5t-241.5 -144t-273.5 -52 q-116 0 -220 39.5t-182.5 111t-124.5 179t-46 235.5q0 162 66 301.5t173 231t242 143.5t274 52zM707 179q202 0 337.5 146.5t135.5 366.5q0 169 -94 273.5t-254 104.5q-202 0 -337.5 -146t-135.5 -366q0 -169 94.5 -274t253.5 -105z" />
<glyph unicode="&#xd3;" d="M785 1354q-14 -7 -27 -2.5t-18 16.5l-29 72q-4 11 2 25t19 22l396 230q13 7 26 3t18 -15l49 -114q4 -12 -1.5 -25.5t-19.5 -19.5zM861 1271q156 0 285 -67t208 -197t79 -300q0 -162 -66 -301.5t-173 -231.5t-241.5 -144t-273.5 -52q-116 0 -220 39.5t-182.5 111 t-124.5 179t-46 235.5q0 162 66 301.5t173 231t242 143.5t274 52zM707 179q202 0 337.5 146.5t135.5 366.5q0 169 -94 273.5t-254 104.5q-202 0 -337.5 -146t-135.5 -366q0 -169 94.5 -274t253.5 -105z" />
<glyph unicode="&#xd4;" d="M971 1390l-77 120l-111 -120q-17 -20 -44 -20h-154q-22 0 -26 12.5t13 28.5l248 233q18 17 44 17h102q25 0 40 -17l181 -233q12 -16 5 -28.5t-29 -12.5h-153q-28 0 -39 20zM861 1271q156 0 285 -67t208 -197t79 -300q0 -162 -66 -301.5t-173 -231.5t-241.5 -144 t-273.5 -52q-116 0 -220 39.5t-182.5 111t-124.5 179t-46 235.5q0 162 66 301.5t173 231t242 143.5t274 52zM707 179q202 0 337.5 146.5t135.5 366.5q0 169 -94 273.5t-254 104.5q-202 0 -337.5 -146t-135.5 -366q0 -169 94.5 -274t253.5 -105z" />
<glyph unicode="&#xd5;" d="M576 1382q-16 0 -23.5 9t-3.5 26q24 114 88.5 171t145.5 57q41 0 73.5 -11t52 -27t37 -32t38 -27t44.5 -11q72 0 92 75q10 33 41 33h52q16 0 22.5 -14.5t-0.5 -40.5q-26 -105 -88.5 -156.5t-140.5 -51.5q-41 0 -73.5 11.5t-52 27.5t-37 32t-38 27.5t-44.5 11.5 q-73 0 -93 -78q-9 -32 -40 -32h-52zM861 1271q156 0 285 -67t208 -197t79 -300q0 -162 -66 -301.5t-173 -231.5t-241.5 -144t-273.5 -52q-116 0 -220 39.5t-182.5 111t-124.5 179t-46 235.5q0 162 66 301.5t173 231t242 143.5t274 52zM707 179q202 0 337.5 146.5 t135.5 366.5q0 169 -94 273.5t-254 104.5q-202 0 -337.5 -146t-135.5 -366q0 -169 94.5 -274t253.5 -105z" />
<glyph unicode="&#xd6;" d="M673 1374q-47 0 -78 32.5t-31 79.5q0 57 43.5 99t100.5 42q47 0 78.5 -32.5t31.5 -79.5q0 -57 -44 -99t-101 -42zM1076 1374q-47 0 -78 32.5t-31 79.5q0 57 43.5 99t100.5 42q47 0 78.5 -32.5t31.5 -79.5q0 -57 -44 -99t-101 -42zM861 1271q156 0 285 -67t208 -197 t79 -300q0 -162 -66 -301.5t-173 -231.5t-241.5 -144t-273.5 -52q-116 0 -220 39.5t-182.5 111t-124.5 179t-46 235.5q0 162 66 301.5t173 231t242 143.5t274 52zM707 179q202 0 337.5 146.5t135.5 366.5q0 169 -94 273.5t-254 104.5q-202 0 -337.5 -146t-135.5 -366 q0 -169 94.5 -274t253.5 -105z" />
<glyph unicode="&#xd7;" horiz-adv-x="1059" d="M1008 878q21 -23 -7 -48l-338 -296l255 -297q21 -23 -7 -47l-85 -75q-26 -23 -48 0l-255 297l-338 -297q-26 -23 -48 0l-64 75q-20 23 7 47l338 297l-254 296q-21 24 6 48l85 75q27 24 48 0l255 -297l339 297q12 11 25 11t22 -11z" />
<glyph unicode="&#xd8;" d="M1471 1181q20 -24 -6 -47l-123 -108q91 -139 91 -319q0 -162 -66 -301.5t-173 -231.5t-241.5 -144t-273.5 -52q-223 0 -381 133l-103 -91q-28 -23 -48 0l-56 66q-20 24 6 47l101 89q-92 138 -92 321q0 162 66 301.5t173 231t242 143.5t274 52q224 0 382 -133l125 109 q27 24 47 0zM359 558q0 -90 30 -169l679 595q-91 86 -236 86q-202 0 -337.5 -146t-135.5 -366zM1180 692q0 90 -30 167l-677 -595q91 -85 234 -85q202 0 337.5 146.5t135.5 366.5z" />
<glyph unicode="&#xd9;" horiz-adv-x="1365" d="M852 1354l-361 192q-12 6 -13.5 20t5.5 25l80 114q8 11 22.5 14.5t25.5 -2.5l332 -230q10 -8 12 -22.5t-5 -24.5l-49 -72q-8 -12 -23 -16.5t-26 2.5zM1339 1249q13 0 21.5 -9.5t6.5 -22.5l-97 -685q-16 -111 -57.5 -202.5t-102 -156t-139 -108.5t-167.5 -64.5t-188 -20.5 t-182.5 20.5t-149.5 64.5t-108.5 108.5t-58.5 156t0 202.5l96 685q1 13 12.5 22.5t24.5 9.5h175q13 0 21.5 -9.5t6.5 -22.5l-89 -635q-56 -401 280 -401q337 0 393 401l89 635q1 13 12.5 22.5t24.5 9.5h176z" />
<glyph unicode="&#xda;" horiz-adv-x="1365" d="M722 1354q-14 -7 -26.5 -2.5t-17.5 16.5l-30 72q-4 11 2 25t19 22l397 230q13 7 26 3t18 -15l48 -114q4 -12 -1 -25.5t-19 -19.5zM1339 1249q13 0 21.5 -9.5t6.5 -22.5l-97 -685q-16 -111 -57.5 -202.5t-102 -156t-139 -108.5t-167.5 -64.5t-188 -20.5t-182.5 20.5 t-149.5 64.5t-108.5 108.5t-58.5 156t0 202.5l96 685q1 13 12.5 22.5t24.5 9.5h175q13 0 21.5 -9.5t6.5 -22.5l-89 -635q-56 -401 280 -401q337 0 393 401l89 635q1 13 12.5 22.5t24.5 9.5h176z" />
<glyph unicode="&#xdb;" horiz-adv-x="1365" d="M908 1390l-77 120l-110 -120q-17 -20 -45 -20h-154q-22 0 -25.5 12.5t13.5 28.5l247 233q18 17 44 17h103q25 0 40 -17l181 -233q12 -16 5 -28.5t-29 -12.5h-154q-28 0 -39 20zM1339 1249q13 0 21.5 -9.5t6.5 -22.5l-97 -685q-16 -111 -57.5 -202.5t-102 -156 t-139 -108.5t-167.5 -64.5t-188 -20.5t-182.5 20.5t-149.5 64.5t-108.5 108.5t-58.5 156t0 202.5l96 685q1 13 12.5 22.5t24.5 9.5h175q13 0 21.5 -9.5t6.5 -22.5l-89 -635q-56 -401 280 -401q337 0 393 401l89 635q1 13 12.5 22.5t24.5 9.5h176z" />
<glyph unicode="&#xdc;" horiz-adv-x="1365" d="M610 1374q-47 0 -78 32.5t-31 79.5q0 56 44 98.5t101 42.5q47 0 78 -32.5t31 -79.5q0 -57 -44 -99t-101 -42zM1013 1374q-47 0 -78 32.5t-31 79.5q0 56 44 98.5t101 42.5q47 0 78.5 -32.5t31.5 -79.5q0 -57 -44.5 -99t-101.5 -42zM1339 1249q13 0 21.5 -9.5t6.5 -22.5 l-97 -685q-16 -111 -57.5 -202.5t-102 -156t-139 -108.5t-167.5 -64.5t-188 -20.5t-182.5 20.5t-149.5 64.5t-108.5 108.5t-58.5 156t0 202.5l96 685q1 13 12.5 22.5t24.5 9.5h175q13 0 21.5 -9.5t6.5 -22.5l-89 -635q-56 -401 280 -401q337 0 393 401l89 635 q1 13 12.5 22.5t24.5 9.5h176z" />
<glyph unicode="&#xdd;" horiz-adv-x="1253" d="M628 1368l-30 72q-4 11 2 25t19 22l397 230q13 7 26 3t18 -15l48 -114q4 -12 -1.5 -25.5t-19.5 -19.5l-415 -192q-14 -7 -26.5 -2.5t-17.5 16.5zM1315 1249q19 0 26 -11.5t-5 -28.5l-593 -779l-55 -398q-1 -13 -12.5 -22.5t-24.5 -9.5h-176q-13 0 -21.5 9.5t-6.5 22.5 l56 391l-374 786q-7 16 2 28t28 12h201q22 0 34 -25l260 -588l430 588q18 25 42 25h189z" />
<glyph unicode="&#xde;" horiz-adv-x="1204" d="M737 1040q214 0 328.5 -101.5t114.5 -262.5q0 -96 -37.5 -180.5t-107 -148.5t-177 -101t-238.5 -37h-309l-25 -177q-1 -13 -12 -22.5t-24 -9.5h-176q-13 0 -21 9.5t-6 22.5l167 1185q1 13 12 22.5t24 9.5h175q13 0 21.5 -9.5t6.5 -22.5l-25 -177h309zM602 406 q174 0 250 69t76 181q0 86 -63 137t-202 51h-263l-61 -438h263z" />
<glyph unicode="&#xdf;" horiz-adv-x="1188" d="M835 677q0 -35 21 -62t52.5 -43.5t68 -39t68 -48t52.5 -72t21 -107.5q0 -104 -58 -180.5t-143.5 -111.5t-183.5 -35q-90 0 -178.5 29.5t-141.5 70.5q-22 18 -8 45l59 108q20 34 43 17q44 -30 71.5 -45.5t71 -29.5t89.5 -14q77 0 118.5 33t41.5 80q0 38 -31 66t-75.5 49.5 t-89.5 47t-76 72.5t-31 113q0 46 16 87.5t39 73t46.5 63.5t39.5 74.5t16 90.5q0 77 -39 121.5t-108 44.5q-78 0 -132 -54t-66 -142l-133 -947q-5 -32 -36 -32h-165q-14 0 -21.5 9t-5.5 23l135 966q16 118 83 201t158.5 121t199.5 38q160 0 258 -84.5t98 -231.5 q0 -67 -22.5 -125t-49.5 -91.5t-49.5 -73.5t-22.5 -75z" />
<glyph unicode="&#xe0;" horiz-adv-x="1130" d="M374 1209q-12 6 -13.5 20t5.5 25l80 114q8 11 22.5 14.5t25.5 -2.5l331 -231q10 -8 12.5 -22t-4.5 -24l-49 -73q-8 -12 -23 -16.5t-26 2.5zM1089 880l-80 -569q-8 -57 -8 -102.5t4 -73t14 -77.5q6 -35 -27 -46l-124 -38q-17 -5 -31 7q-19 18 -39 59.5t-28 90.5 q-120 -153 -310 -153q-171 0 -284 115t-113 298q0 117 44.5 219.5t118.5 172.5t170 110.5t198 40.5q176 0 255 -131l11 77q5 32 37 32h164q15 0 22.5 -8.5t5.5 -23.5zM524 175q125 0 212.5 90.5t87.5 232.5q0 108 -61 173.5t-160 65.5q-121 0 -210 -88.5t-89 -235.5 q0 -110 62 -174t158 -64z" />
<glyph unicode="&#xe1;" horiz-adv-x="1130" d="M561 1030l-30 73q-4 11 2 24.5t19 21.5l397 231q13 7 26 3t18 -15l48 -114q4 -12 -1.5 -25.5t-19.5 -19.5l-415 -193q-14 -7 -26.5 -2.5t-17.5 16.5zM1089 880l-80 -569q-8 -57 -8 -102.5t4 -73t14 -77.5q6 -35 -27 -46l-124 -38q-17 -5 -31 7q-19 18 -39 59.5t-28 90.5 q-120 -153 -310 -153q-171 0 -284 115t-113 298q0 117 44.5 219.5t118.5 172.5t170 110.5t198 40.5q176 0 255 -131l11 77q5 32 37 32h164q15 0 22.5 -8.5t5.5 -23.5zM524 175q125 0 212.5 90.5t87.5 232.5q0 108 -61 173.5t-160 65.5q-121 0 -210 -88.5t-89 -235.5 q0 -110 62 -174t158 -64z" />
<glyph unicode="&#xe2;" horiz-adv-x="1130" d="M405 1032q-22 0 -25.5 12.5t13.5 28.5l247 234q18 17 44 17h102q25 0 40 -17l182 -234q12 -16 5 -28.5t-29 -12.5h-154q-27 0 -39 21l-77 120l-110 -120q-18 -21 -45 -21h-154zM1089 880l-80 -569q-8 -57 -8 -102.5t4 -73t14 -77.5q6 -35 -27 -46l-124 -38q-17 -5 -31 7 q-19 18 -39 59.5t-28 90.5q-120 -153 -310 -153q-171 0 -284 115t-113 298q0 117 44.5 219.5t118.5 172.5t170 110.5t198 40.5q176 0 255 -131l11 77q5 32 37 32h164q15 0 22.5 -8.5t5.5 -23.5zM524 175q125 0 212.5 90.5t87.5 232.5q0 108 -61 173.5t-160 65.5 q-121 0 -210 -88.5t-89 -235.5q0 -110 62 -174t158 -64z" />
<glyph unicode="&#xe3;" horiz-adv-x="1130" d="M396 1044q-15 0 -23 9.5t-4 26.5q24 114 88 170.5t146 56.5q41 0 73.5 -11t52 -27t37 -32t38 -27t44.5 -11q73 0 93 76q10 32 40 32h52q16 0 22.5 -14.5t-0.5 -40.5q-26 -105 -88.5 -156.5t-140.5 -51.5q-41 0 -73.5 11.5t-52 28t-37 32.5t-38 27.5t-44.5 11.5 q-73 0 -93 -78q-9 -33 -40 -33h-52zM1089 880l-80 -569q-8 -57 -8 -102.5t4 -73t14 -77.5q6 -35 -27 -46l-124 -38q-17 -5 -31 7q-19 18 -39 59.5t-28 90.5q-120 -153 -310 -153q-171 0 -284 115t-113 298q0 117 44.5 219.5t118.5 172.5t170 110.5t198 40.5q176 0 255 -131 l11 77q5 32 37 32h164q15 0 22.5 -8.5t5.5 -23.5zM524 175q125 0 212.5 90.5t87.5 232.5q0 108 -61 173.5t-160 65.5q-121 0 -210 -88.5t-89 -235.5q0 -110 62 -174t158 -64z" />
<glyph unicode="&#xe4;" horiz-adv-x="1130" d="M493 1037q-47 0 -78 32t-31 79q0 57 43.5 99t100.5 42q47 0 78.5 -32t31.5 -79q0 -57 -44 -99t-101 -42zM896 1037q-47 0 -78 32t-31 79q0 57 43.5 99t100.5 42q47 0 78.5 -32t31.5 -79q0 -57 -44 -99t-101 -42zM1089 880l-80 -569q-8 -57 -8 -102.5t4 -73t14 -77.5 q6 -35 -27 -46l-124 -38q-17 -5 -31 7q-19 18 -39 59.5t-28 90.5q-120 -153 -310 -153q-171 0 -284 115t-113 298q0 117 44.5 219.5t118.5 172.5t170 110.5t198 40.5q176 0 255 -131l11 77q5 32 37 32h164q15 0 22.5 -8.5t5.5 -23.5zM524 175q125 0 212.5 90.5t87.5 232.5 q0 108 -61 173.5t-160 65.5q-121 0 -210 -88.5t-89 -235.5q0 -110 62 -174t158 -64z" />
<glyph unicode="&#xe5;" horiz-adv-x="1130" d="M689 1005q-86 0 -142.5 57.5t-56.5 142.5q0 102 79.5 177t182.5 75q85 0 141.5 -58t56.5 -143q0 -102 -79 -176.5t-182 -74.5zM734 1332q-45 0 -78.5 -34t-33.5 -79q0 -36 23.5 -62t61.5 -26q45 0 78 34t33 78q0 38 -23 63.5t-61 25.5zM1089 880l-80 -569 q-8 -57 -8 -102.5t4 -73t14 -77.5q6 -35 -27 -46l-124 -38q-17 -5 -31 7q-19 18 -39 59.5t-28 90.5q-120 -153 -310 -153q-171 0 -284 115t-113 298q0 117 44.5 219.5t118.5 172.5t170 110.5t198 40.5q176 0 255 -131l11 77q5 32 37 32h164q15 0 22.5 -8.5t5.5 -23.5z M524 175q125 0 212.5 90.5t87.5 232.5q0 108 -61 173.5t-160 65.5q-121 0 -210 -88.5t-89 -235.5q0 -110 62 -174t158 -64z" />
<glyph unicode="&#xe6;" horiz-adv-x="1671" d="M1590 422h-713v-7q0 -114 64 -179t161 -65q149 0 229 113q20 28 47 15l123 -63q29 -15 9 -45q-68 -103 -186 -158t-259 -55q-125 0 -222.5 53t-149.5 150q-65 -90 -169 -146.5t-221 -56.5q-127 0 -197 67.5t-70 172.5q0 116 76.5 200.5t213 117t324.5 -2.5l-12 -89 l15 107q15 107 -21 147.5t-134 40.5q-112 0 -241 -53q-13 -5 -25.5 0t-16.5 18l-35 109q-11 31 22 44q172 77 357 77q214 0 276 -127q155 127 363 127q77 0 142 -17.5t119.5 -55.5t87.5 -98t46.5 -144.5t-3.5 -196.5zM1172 755q-83 0 -154.5 -49.5t-109.5 -134.5h450 q-1 53 -17 90.5t-44 57t-58.5 28t-66.5 8.5zM394 157q86 0 153 57.5t78 138.5l5 37q-102 21 -171 19.5t-111 -25.5t-60.5 -55t-18.5 -70q0 -50 35 -76t90 -26z" />
<glyph unicode="&#xe7;" horiz-adv-x="1058" d="M1018 710q12 -30 -22 -45l-144 -64q-19 -6 -26.5 -2.5t-15.5 17.5q-62 121 -190 121q-137 0 -222 -88t-85 -239q0 -111 62.5 -173t169.5 -62q126 0 220 121q21 28 47 15l125 -64q29 -14 10 -45q-53 -82 -151.5 -145t-230.5 -76l-39 -78q102 18 164.5 -17.5t62.5 -114.5 q0 -102 -82 -162t-195 -60q-94 0 -150 42q-24 19 -8 47l18 30q17 31 49 16q54 -27 94 -27q48 0 80.5 24t32.5 71q0 51 -62.5 58t-124.5 -10q-6 -1 -9 -1q-22 -3 -29 4.5t2 29.5l75 148q-165 19 -268 130t-103 283q0 119 47 221.5t125 171.5t180.5 108t213.5 39 q154 0 249 -66t130 -158z" />
<glyph unicode="&#xe8;" horiz-adv-x="1101" d="M308 1209q-12 6 -13.5 20t6.5 25l79 114q8 11 23 15t26 -3l331 -231q10 -8 12 -22t-5 -24l-49 -73q-8 -12 -22.5 -16.5t-25.5 2.5zM1020 422h-713v-7q0 -114 64 -179t161 -65q149 0 229 113q20 28 47 15l123 -63q29 -15 9 -45q-68 -103 -186 -158t-259 -55 q-185 0 -303.5 113.5t-118.5 300.5q0 159 77.5 284.5t203.5 191.5t274 66q77 0 142 -17.5t119.5 -55.5t87.5 -98t46.5 -144.5t-3.5 -196.5zM602 755q-83 0 -154.5 -49.5t-109.5 -134.5h450q-1 53 -17 90.5t-44 57t-58.5 28t-66.5 8.5z" />
<glyph unicode="&#xe9;" horiz-adv-x="1101" d="M495 1030l-30 73q-4 11 2 24.5t19 21.5l397 231q13 7 26 3t18 -15l48 -114q4 -12 -1 -25.5t-19 -19.5l-415 -193q-14 -7 -27 -2.5t-18 16.5zM1020 422h-713v-7q0 -114 64 -179t161 -65q149 0 229 113q20 28 47 15l123 -63q29 -15 9 -45q-68 -103 -186 -158t-259 -55 q-185 0 -303.5 113.5t-118.5 300.5q0 159 77.5 284.5t203.5 191.5t274 66q77 0 142 -17.5t119.5 -55.5t87.5 -98t46.5 -144.5t-3.5 -196.5zM602 755q-83 0 -154.5 -49.5t-109.5 -134.5h450q-1 53 -17 90.5t-44 57t-58.5 28t-66.5 8.5z" />
<glyph unicode="&#xea;" horiz-adv-x="1101" d="M339 1032q-22 0 -25.5 12.5t13.5 28.5l247 234q18 17 44 17h103q25 0 40 -17l181 -234q12 -16 5 -28.5t-29 -12.5h-154q-26 0 -38 21l-77 120l-111 -120q-18 -21 -44 -21h-155zM1020 422h-713v-7q0 -114 64 -179t161 -65q149 0 229 113q20 28 47 15l123 -63q29 -15 9 -45 q-68 -103 -186 -158t-259 -55q-185 0 -303.5 113.5t-118.5 300.5q0 159 77.5 284.5t203.5 191.5t274 66q77 0 142 -17.5t119.5 -55.5t87.5 -98t46.5 -144.5t-3.5 -196.5zM602 755q-83 0 -154.5 -49.5t-109.5 -134.5h450q-1 53 -17 90.5t-44 57t-58.5 28t-66.5 8.5z" />
<glyph unicode="&#xeb;" horiz-adv-x="1101" d="M428 1037q-47 0 -78.5 32t-31.5 79q0 56 44 98.5t101 42.5q47 0 78 -32t31 -79q0 -57 -43.5 -99t-100.5 -42zM830 1037q-47 0 -78 32t-31 79q0 56 44 98.5t101 42.5q47 0 78.5 -32t31.5 -79q0 -57 -44.5 -99t-101.5 -42zM1020 422h-713v-7q0 -114 64 -179t161 -65 q149 0 229 113q20 28 47 15l123 -63q29 -15 9 -45q-68 -103 -186 -158t-259 -55q-185 0 -303.5 113.5t-118.5 300.5q0 159 77.5 284.5t203.5 191.5t274 66q77 0 142 -17.5t119.5 -55.5t87.5 -98t46.5 -144.5t-3.5 -196.5zM602 755q-83 0 -154.5 -49.5t-109.5 -134.5h450 q-1 53 -17 90.5t-44 57t-58.5 28t-66.5 8.5z" />
<glyph unicode="&#xec;" horiz-adv-x="440" d="M343 1016l-361 193q-12 6 -13.5 20t5.5 25l80 114q8 11 22.5 14.5t25.5 -2.5l331 -231q10 -8 12.5 -22t-4.5 -24l-49 -73q-8 -12 -23 -16.5t-26 2.5zM166 880q5 32 36 32h165q14 0 21.5 -8.5t5.5 -23.5l-119 -848q-5 -32 -36 -32h-165q-14 0 -21.5 9t-5.5 23z" />
<glyph unicode="&#xed;" horiz-adv-x="440" d="M213 1016q-14 -7 -27 -2.5t-18 16.5l-29 73q-4 11 2 24.5t19 21.5l397 231q13 7 26 3t18 -15l48 -114q4 -12 -1.5 -25.5t-19.5 -19.5zM166 880q5 32 36 32h165q14 0 21.5 -8.5t5.5 -23.5l-119 -848q-5 -32 -36 -32h-165q-14 0 -21.5 9t-5.5 23z" />
<glyph unicode="&#xee;" horiz-adv-x="440" d="M399 1053l-77 120l-111 -120q-18 -21 -44 -21h-154q-22 0 -25.5 12.5t13.5 28.5l247 234q18 17 44 17h102q25 0 40 -17l181 -234q12 -16 5 -28.5t-29 -12.5h-153q-27 0 -39 21zM166 880q5 32 36 32h165q14 0 21.5 -8.5t5.5 -23.5l-119 -848q-5 -32 -36 -32h-165 q-14 0 -21.5 9t-5.5 23z" />
<glyph unicode="&#xef;" horiz-adv-x="440" d="M101 1037q-47 0 -78 32t-31 79q0 57 43.5 99t100.5 42q47 0 78.5 -32t31.5 -79q0 -57 -44 -99t-101 -42zM504 1037q-47 0 -78 32t-31 79q0 57 43.5 99t100.5 42q47 0 78.5 -32t31.5 -79q0 -57 -44 -99t-101 -42zM166 880q5 32 36 32h165q14 0 21.5 -8.5t5.5 -23.5 l-119 -848q-5 -32 -36 -32h-165q-14 0 -21.5 9t-5.5 23z" />
<glyph unicode="&#xf0;" horiz-adv-x="1109" d="M703 1253q72 -40 127.5 -94.5t90.5 -111.5t58.5 -123.5t33.5 -126.5t12.5 -125t-1 -114t-10.5 -99q-20 -146 -100 -257t-192.5 -167.5t-238.5 -56.5q-95 0 -176.5 33.5t-138 92t-83 143.5t-12.5 183q18 131 92 235t183.5 160.5t232.5 56.5q132 0 211 -70 q-42 189 -197 290l-71 -100q-20 -27 -45 -12l-32 20q-25 16 -5 44l67 94q-53 22 -94 34q-17 5 -22 19t4 30l51 86q13 24 38 17q61 -13 128 -39l72 100q20 28 45 12l31 -19q12 -7 13.5 -19.5t-7.5 -25.5zM511 175q101 0 178.5 71t93.5 184t-41.5 184t-158.5 71t-178.5 -71 t-93.5 -184t41.5 -184t158.5 -71z" />
<glyph unicode="&#xf1;" horiz-adv-x="1104" d="M358 1044q-15 0 -23 9.5t-4 26.5q24 114 88 170.5t146 56.5q41 0 73.5 -11t52 -27t37 -32t38 -27t44.5 -11q73 0 93 76q10 32 40 32h52q16 0 22.5 -14.5t-0.5 -40.5q-26 -105 -88.5 -156.5t-140.5 -51.5q-41 0 -73.5 11.5t-52 28t-37 32.5t-38 27.5t-44.5 11.5 q-72 0 -92 -78q-9 -33 -41 -33h-52zM730 932q170 0 239.5 -93.5t46.5 -256.5l-77 -550q-5 -32 -36 -32h-165q-14 0 -21.5 9t-5.5 23l65 462q18 128 -21.5 184t-134.5 56q-109 0 -188.5 -74.5t-97.5 -203.5l-59 -424q-5 -32 -36 -32h-165q-14 0 -21.5 9t-5.5 23l119 848 q5 32 36 32h165q14 0 21.5 -8.5t5.5 -23.5l-16 -111q136 163 352 163z" />
<glyph unicode="&#xf2;" horiz-adv-x="1147" d="M696 1016l-362 193q-12 6 -13.5 20t6.5 25l80 114q8 11 22.5 14.5t25.5 -2.5l331 -231q10 -8 12.5 -22t-4.5 -24l-50 -73q-8 -12 -22.5 -16.5t-25.5 2.5zM641 934q187 0 310 -114.5t123 -302.5q0 -158 -81 -283t-210 -190.5t-277 -65.5q-187 0 -310 114.5t-123 302.5 q0 158 81 283t210 190.5t277 65.5zM534 175q121 0 210.5 89t89.5 235q0 110 -63 174t-158 64q-121 0 -210 -88.5t-89 -235.5q0 -110 62.5 -174t157.5 -64z" />
<glyph unicode="&#xf3;" horiz-adv-x="1147" d="M566 1016q-14 -7 -27 -2.5t-18 16.5l-29 73q-4 11 2 24.5t19 21.5l396 231q13 7 26 3t18 -15l48 -114q4 -12 -1 -25.5t-19 -19.5zM641 934q187 0 310 -114.5t123 -302.5q0 -158 -81 -283t-210 -190.5t-277 -65.5q-187 0 -310 114.5t-123 302.5q0 158 81 283t210 190.5 t277 65.5zM534 175q121 0 210.5 89t89.5 235q0 110 -63 174t-158 64q-121 0 -210 -88.5t-89 -235.5q0 -110 62.5 -174t157.5 -64z" />
<glyph unicode="&#xf4;" horiz-adv-x="1147" d="M752 1053l-77 120l-111 -120q-18 -21 -44 -21h-154q-22 0 -26 12.5t13 28.5l248 234q18 17 44 17h102q25 0 40 -17l181 -234q12 -16 5 -28.5t-29 -12.5h-153q-27 0 -39 21zM641 934q187 0 310 -114.5t123 -302.5q0 -158 -81 -283t-210 -190.5t-277 -65.5 q-187 0 -310 114.5t-123 302.5q0 158 81 283t210 190.5t277 65.5zM534 175q121 0 210.5 89t89.5 235q0 110 -63 174t-158 64q-121 0 -210 -88.5t-89 -235.5q0 -110 62.5 -174t157.5 -64z" />
<glyph unicode="&#xf5;" horiz-adv-x="1147" d="M357 1044q-15 0 -23 9.5t-4 26.5q24 114 88 170.5t146 56.5q50 0 88 -17t56.5 -37t44.5 -37t55 -17q73 0 93 76q10 32 41 32h52q16 0 22.5 -14.5t-0.5 -40.5q-26 -105 -88.5 -156.5t-140.5 -51.5q-41 0 -73.5 11.5t-52 28t-37 32.5t-38 27.5t-44.5 11.5q-73 0 -93 -78 q-9 -33 -40 -33h-52zM641 934q187 0 310 -114.5t123 -302.5q0 -158 -81 -283t-210 -190.5t-277 -65.5q-187 0 -310 114.5t-123 302.5q0 158 81 283t210 190.5t277 65.5zM534 175q121 0 210.5 89t89.5 235q0 110 -63 174t-158 64q-121 0 -210 -88.5t-89 -235.5 q0 -110 62.5 -174t157.5 -64z" />
<glyph unicode="&#xf6;" horiz-adv-x="1147" d="M454 1037q-47 0 -78 32t-31 79q0 57 43.5 99t100.5 42q47 0 78.5 -32t31.5 -79q0 -57 -44 -99t-101 -42zM857 1037q-47 0 -78 32t-31 79q0 57 43.5 99t100.5 42q47 0 78.5 -32t31.5 -79q0 -57 -44 -99t-101 -42zM641 934q187 0 310 -114.5t123 -302.5q0 -158 -81 -283 t-210 -190.5t-277 -65.5q-187 0 -310 114.5t-123 302.5q0 158 81 283t210 190.5t277 65.5zM534 175q121 0 210.5 89t89.5 235q0 110 -63 174t-158 64q-121 0 -210 -88.5t-89 -235.5q0 -110 62.5 -174t157.5 -64z" />
<glyph unicode="&#xf7;" horiz-adv-x="1073" d="M968 646q15 0 22.5 -9.5t5.5 -24.5l-15 -106q-5 -33 -38 -33h-408q31 -6 50 -30t19 -57q0 -55 -46.5 -97.5t-103.5 -42.5q-38 0 -62.5 25.5t-24.5 63.5q0 50 39.5 90t91.5 48h-362q-15 0 -23 9t-6 24l15 106q2 15 12.5 24.5t25.5 9.5h336q-33 5 -53 29t-20 59q0 55 47 97 t104 42q38 0 62 -25t24 -63q0 -51 -41 -91.5t-93 -47.5h442z" />
<glyph unicode="&#xf8;" horiz-adv-x="1160" d="M1126 882q20 -23 -7 -47l-103 -91q61 -97 61 -227q0 -158 -81 -283t-210 -190.5t-277 -65.5q-158 0 -272 83l-105 -92q-27 -23 -47 0l-57 66q-20 23 7 47l101 88q-59 96 -59 225q0 158 81 283t209.5 190.5t276.5 65.5q156 0 270 -81l108 95q27 24 47 0zM310 412 q0 -46 10 -80l427 374q-55 37 -130 37q-125 0 -216 -89.5t-91 -241.5zM844 500q0 45 -11 84l-429 -376q57 -40 133 -40q124 0 215.5 90t91.5 242z" />
<glyph unicode="&#xf9;" horiz-adv-x="1104" d="M674 1016l-362 193q-12 6 -13.5 20t6.5 25l80 114q8 11 22.5 14.5t25.5 -2.5l331 -231q10 -8 12.5 -22t-4.5 -24l-50 -73q-8 -12 -22.5 -16.5t-25.5 2.5zM1030 912q15 0 22.5 -8.5t5.5 -23.5l-119 -848q-2 -14 -12.5 -23t-24.5 -9h-164q-14 0 -21.5 9t-5.5 23l16 111 q-136 -163 -353 -163q-169 0 -239 93t-47 257l77 550q5 32 37 32h164q15 0 22.5 -8.5t5.5 -23.5l-65 -462q-18 -128 21 -184t134 -56q109 0 188.5 74.5t97.5 203.5l59 424q5 32 37 32h164z" />
<glyph unicode="&#xfa;" horiz-adv-x="1104" d="M544 1016q-14 -7 -27 -2.5t-18 16.5l-29 73q-4 11 2 24.5t18 21.5l397 231q13 7 26 3t18 -15l48 -114q4 -12 -1 -25.5t-19 -19.5zM1030 912q15 0 22.5 -8.5t5.5 -23.5l-119 -848q-2 -14 -12.5 -23t-24.5 -9h-164q-14 0 -21.5 9t-5.5 23l16 111q-136 -163 -353 -163 q-169 0 -239 93t-47 257l77 550q5 32 37 32h164q15 0 22.5 -8.5t5.5 -23.5l-65 -462q-18 -128 21 -184t134 -56q109 0 188.5 74.5t97.5 203.5l59 424q5 32 37 32h164z" />
<glyph unicode="&#xfb;" horiz-adv-x="1104" d="M730 1053l-77 120l-111 -120q-18 -21 -44 -21h-154q-22 0 -26 12.5t13 28.5l248 234q18 17 44 17h102q25 0 40 -17l181 -234q12 -16 5 -28.5t-29 -12.5h-153q-27 0 -39 21zM1030 912q15 0 22.5 -8.5t5.5 -23.5l-119 -848q-2 -14 -12.5 -23t-24.5 -9h-164q-14 0 -21.5 9 t-5.5 23l16 111q-136 -163 -353 -163q-169 0 -239 93t-47 257l77 550q5 32 37 32h164q15 0 22.5 -8.5t5.5 -23.5l-65 -462q-18 -128 21 -184t134 -56q109 0 188.5 74.5t97.5 203.5l59 424q5 32 37 32h164z" />
<glyph unicode="&#xfc;" horiz-adv-x="1104" d="M432 1037q-47 0 -78 32t-31 79q0 57 43.5 99t100.5 42q47 0 78.5 -32t31.5 -79q0 -57 -44 -99t-101 -42zM835 1037q-47 0 -78 32t-31 79q0 57 43.5 99t100.5 42q47 0 78.5 -32t31.5 -79q0 -57 -44 -99t-101 -42zM1030 912q15 0 22.5 -8.5t5.5 -23.5l-119 -848 q-2 -14 -12.5 -23t-24.5 -9h-164q-14 0 -21.5 9t-5.5 23l16 111q-136 -163 -353 -163q-169 0 -239 93t-47 257l77 550q5 32 37 32h164q15 0 22.5 -8.5t5.5 -23.5l-65 -462q-18 -128 21 -184t134 -56q109 0 188.5 74.5t97.5 203.5l59 424q5 32 37 32h164z" />
<glyph unicode="&#xfd;" horiz-adv-x="1001" d="M441 1030l-29 73q-4 11 2 24.5t19 21.5l396 231q13 7 26 3t18 -15l49 -114q4 -12 -1.5 -25.5t-19.5 -19.5l-415 -193q-14 -7 -27 -2.5t-18 16.5zM1016 912q24 0 32.5 -18.5t-5.5 -41.5l-513 -828q-140 -227 -267 -325t-302 -98q-37 0 -32 32l16 116q3 28 35 32 q91 10 172 85.5t207 274.5l-288 711q-10 23 4.5 41.5t39.5 18.5h179q16 0 24 -19l189 -510l308 510q11 19 32 19h169z" />
<glyph unicode="&#xfe;" horiz-adv-x="1145" d="M676 934q171 0 284 -115t113 -298q0 -117 -44.5 -219.5t-118.5 -172.5t-170 -110.5t-198 -40.5q-177 0 -256 131l-67 -476q-5 -32 -36 -32h-164q-14 0 -22 9t-6 23l231 1645q2 14 12 23.5t24 9.5h164q14 0 22 -9.5t6 -23.5l-67 -475q117 131 293 131zM812 471 q8 101 -44.5 167.5t-142.5 80.5q-115 9 -201 -70t-92 -207q-8 -99 43 -166.5t144 -81.5q112 -9 199.5 67.5t93.5 209.5z" />
<glyph unicode="&#xff;" horiz-adv-x="1001" d="M374 1037q-47 0 -78 32t-31 79q0 57 43.5 99t100.5 42q47 0 78.5 -32t31.5 -79q0 -57 -44 -99t-101 -42zM777 1037q-47 0 -78 32t-31 79q0 57 43.5 99t100.5 42q47 0 78.5 -32t31.5 -79q0 -57 -44 -99t-101 -42zM1016 912q24 0 32.5 -18.5t-5.5 -41.5l-513 -828 q-140 -227 -267 -325t-302 -98q-37 0 -32 32l16 116q3 28 35 32q91 10 172 85.5t207 274.5l-288 711q-10 23 4.5 41.5t39.5 18.5h179q16 0 24 -19l189 -510l308 510q11 19 32 19h169z" />
<glyph unicode="&#x152;" horiz-adv-x="1980" d="M1954 1249q14 0 22 -9t6 -23l-19 -134q-2 -14 -12.5 -23t-24.5 -9h-616q89 -134 88 -316h402q14 0 21.5 -9t5.5 -23l-18 -129q-5 -32 -36 -32h-399q-50 -201 -187 -343h640q14 0 21.5 -9.5t5.5 -23.5l-18 -134q-2 -14 -12.5 -23t-24.5 -9h-957q-83 -20 -166 -20 q-127 0 -238.5 45.5t-191.5 127t-117.5 205t-17.5 269.5t92.5 269.5t175.5 204.5t227 126.5t252 45.5q93 0 175 -24h921zM362 627q-28 -197 67 -321.5t275 -124.5t309.5 124.5t157.5 321.5t-67 321t-275 124t-309.5 -124t-157.5 -321z" />
<glyph unicode="&#x153;" horiz-adv-x="1867" d="M1786 422h-712v-7q0 -114 64 -179t161 -65q149 0 229 113q20 28 47 15l122 -63q29 -15 9 -45q-68 -104 -185.5 -158.5t-258.5 -54.5q-110 0 -200 42t-146 119q-79 -77 -186.5 -119t-223.5 -42q-187 0 -310 114.5t-123 302.5q0 158 81 283t210 190.5t277 65.5 q110 0 201.5 -42t150.5 -119q78 77 182.5 119t219.5 42q98 0 175 -28.5t133.5 -87t79 -160t3.5 -236.5zM1369 755q-83 0 -154.5 -49.5t-109.5 -134.5h450q-1 53 -17 90.5t-44 57t-58.5 28t-66.5 8.5zM534 175q121 0 210.5 89t89.5 235q0 110 -63 174t-158 64 q-121 0 -210 -88.5t-89 -235.5q0 -110 62.5 -174t157.5 -64z" />
<glyph unicode="&#x178;" horiz-adv-x="1253" d="M560 1374q-47 0 -78 32.5t-31 79.5q0 57 43.5 99t100.5 42q47 0 78.5 -32.5t31.5 -79.5q0 -57 -44 -99t-101 -42zM963 1374q-47 0 -78 32.5t-31 79.5q0 57 43.5 99t100.5 42q47 0 78.5 -32.5t31.5 -79.5q0 -57 -44 -99t-101 -42zM1315 1249q19 0 26 -11.5t-5 -28.5 l-593 -779l-55 -398q-1 -13 -12.5 -22.5t-24.5 -9.5h-176q-13 0 -21.5 9.5t-6.5 22.5l56 391l-374 786q-7 16 2 28t28 12h201q22 0 34 -25l260 -588l430 588q18 25 42 25h189z" />
<glyph unicode="&#x2c6;" horiz-adv-x="636" d="M412 1053l-77 120l-110 -120q-18 -21 -45 -21h-154q-22 0 -25.5 12.5t13.5 28.5l247 234q18 17 44 17h103q24 0 39 -17l182 -234q12 -16 5 -28.5t-29 -12.5h-154q-27 0 -39 21z" />
<glyph unicode="&#x2dc;" horiz-adv-x="1261" d="M719 1307q16 0 22.5 -14.5t-0.5 -40.5q-26 -105 -88 -156.5t-140 -51.5q-50 0 -88.5 17.5t-57.5 38t-45 38t-55 17.5q-72 0 -92 -78q-9 -33 -41 -33h-52q-15 0 -23 9.5t-4 26.5q24 114 88 170.5t146 56.5q41 0 73.5 -11t52 -27t37 -32t38 -27t44.5 -11q73 0 93 76 q10 32 40 32h52z" />
<glyph unicode="&#x2000;" horiz-adv-x="860" />
<glyph unicode="&#x2001;" horiz-adv-x="1721" />
<glyph unicode="&#x2002;" horiz-adv-x="860" />
<glyph unicode="&#x2003;" horiz-adv-x="1721" />
<glyph unicode="&#x2004;" horiz-adv-x="573" />
<glyph unicode="&#x2005;" horiz-adv-x="430" />
<glyph unicode="&#x2006;" horiz-adv-x="286" />
<glyph unicode="&#x2007;" horiz-adv-x="286" />
<glyph unicode="&#x2008;" horiz-adv-x="215" />
<glyph unicode="&#x2009;" horiz-adv-x="344" />
<glyph unicode="&#x200a;" horiz-adv-x="95" />
<glyph unicode="&#x2010;" horiz-adv-x="977" d="M126 403q-15 0 -23 9.5t-6 24.5l18 129q2 15 12.5 24.5t25.5 9.5h712q15 0 23 -9.5t6 -24.5l-18 -129q-2 -15 -12.5 -24.5t-25.5 -9.5h-712z" />
<glyph unicode="&#x2011;" horiz-adv-x="977" d="M126 403q-15 0 -23 9.5t-6 24.5l18 129q2 15 12.5 24.5t25.5 9.5h712q15 0 23 -9.5t6 -24.5l-18 -129q-2 -15 -12.5 -24.5t-25.5 -9.5h-712z" />
<glyph unicode="&#x2012;" horiz-adv-x="977" d="M126 403q-15 0 -23 9.5t-6 24.5l18 129q2 15 12.5 24.5t25.5 9.5h712q15 0 23 -9.5t6 -24.5l-18 -129q-2 -15 -12.5 -24.5t-25.5 -9.5h-712z" />
<glyph unicode="&#x2013;" horiz-adv-x="1075" d="M67 415q-15 0 -23 9.5t-6 24.5l15 105q2 15 13 24.5t26 9.5h916q15 0 23 -9.5t6 -24.5l-15 -105q-2 -15 -12.5 -24.5t-25.5 -9.5h-917z" />
<glyph unicode="&#x2014;" horiz-adv-x="1689" d="M67 415q-15 0 -23 9.5t-6 24.5l15 105q2 15 13 24.5t26 9.5h1531q15 0 22.5 -9.5t5.5 -24.5l-15 -105q-2 -15 -12.5 -24.5t-25.5 -9.5h-1531z" />
<glyph unicode="&#x2018;" horiz-adv-x="471" d="M296 831q-45 0 -81 30.5t-36 95.5q0 99 86 223t189 181q25 14 39 -8l7 -12q14 -22 -10 -43q-49 -42 -77.5 -80.5t-28.5 -84.5q0 -29 32 -61q37 -37 37 -86q0 -62 -47.5 -108.5t-109.5 -46.5z" />
<glyph unicode="&#x2019;" horiz-adv-x="471" d="M352 1333q45 0 81 -30.5t36 -95.5q0 -99 -86 -222.5t-189 -180.5q-25 -14 -39 8l-8 12q-14 22 10 43q31 27 51 47.5t38 53t18 64.5q0 29 -32 61q-37 37 -37 86q0 62 47.5 108t109.5 46z" />
<glyph unicode="&#x201a;" horiz-adv-x="472" d="M200 252q45 0 81 -30.5t36 -95.5q0 -99 -86 -222.5t-189 -180.5q-24 -14 -38 8l-8 12q-14 22 10 43q49 42 77.5 80.5t28.5 84.5q0 29 -32 61q-37 37 -37 86q0 62 47.5 108t109.5 46z" />
<glyph unicode="&#x201c;" horiz-adv-x="805" d="M296 831q-45 0 -81 30.5t-36 95.5q0 99 86 223t189 181q25 14 39 -8l7 -12q14 -22 -10 -43q-49 -42 -77.5 -80.5t-28.5 -84.5q0 -29 32 -61q37 -37 37 -86q0 -62 -47.5 -108.5t-109.5 -46.5zM630 831q-45 0 -81 30.5t-36 95.5q0 99 85.5 223t188.5 181q25 14 39 -8l8 -12 q14 -22 -10 -43q-49 -42 -77.5 -80.5t-28.5 -84.5q0 -29 32 -61q37 -37 37 -86q0 -62 -47.5 -108.5t-109.5 -46.5z" />
<glyph unicode="&#x201d;" horiz-adv-x="805" d="M352 1333q45 0 81 -30.5t36 -95.5q0 -99 -86 -222.5t-189 -180.5q-25 -14 -39 8l-8 12q-14 22 10 43q31 27 51 47.5t38 53t18 64.5q0 29 -32 61q-37 37 -37 86q0 62 47.5 108t109.5 46zM686 1333q45 0 81 -30.5t36 -95.5q0 -99 -86 -222.5t-189 -180.5q-25 -14 -39 8 l-7 12q-14 22 10 43q49 42 77.5 80.5t28.5 84.5q0 29 -32 61q-37 37 -37 86q0 62 47.5 108t109.5 46z" />
<glyph unicode="&#x201e;" horiz-adv-x="806" d="M200 252q45 0 81 -30.5t36 -95.5q0 -99 -86 -222.5t-189 -180.5q-24 -14 -38 8l-8 12q-14 22 10 43q49 42 77.5 80.5t28.5 84.5q0 29 -32 61q-37 37 -37 86q0 62 47.5 108t109.5 46zM535 252q45 0 81 -30.5t36 -95.5q0 -99 -86 -222.5t-189 -180.5q-25 -14 -39 8l-8 12 q-14 22 10 43q49 42 77.5 80.5t28.5 84.5q0 30 -31 61q-38 38 -38 86q0 62 48 108t110 46z" />
<glyph unicode="&#x2022;" horiz-adv-x="624" d="M286 261q-78 0 -129.5 53t-51.5 130q0 93 72.5 162t166.5 69q77 0 128.5 -53t51.5 -130q0 -93 -72 -162t-166 -69z" />
<glyph unicode="&#x2026;" horiz-adv-x="1314" d="M176 -20q-51 0 -85 34.5t-34 85.5q0 61 48 106.5t109 45.5q51 0 85 -34.5t34 -85.5q0 -61 -48 -106.5t-109 -45.5zM590 -20q-51 0 -84.5 34.5t-33.5 85.5q0 61 47.5 106.5t108.5 45.5q51 0 85 -34.5t34 -85.5q0 -61 -48 -106.5t-109 -45.5zM1005 -20q-51 0 -85 34.5 t-34 85.5q0 61 47.5 106.5t108.5 45.5q51 0 85 -34.5t34 -85.5q0 -61 -47.5 -106.5t-108.5 -45.5z" />
<glyph unicode="&#x202f;" horiz-adv-x="344" />
<glyph unicode="&#x2039;" horiz-adv-x="631" d="M523 812q22 14 40 4t15 -35l-13 -87q-1 -11 -13 -19l-280 -204l223 -205q8 -7 7 -19l-13 -88q-4 -24 -24 -33.5t-38 4.5l-326 266q-8 7 -7 19l16 111q3 13 12 19z" />
<glyph unicode="&#x203a;" horiz-adv-x="631" d="M534 545q8 -7 7 -19l-15 -111q-3 -12 -13 -19l-401 -266q-22 -14 -39.5 -4.5t-14.5 33.5l12 88q3 12 13 19l281 205l-223 204q-9 8 -8 19l12 87q4 25 24.5 35t38.5 -4z" />
<glyph unicode="&#x205f;" horiz-adv-x="430" />
<glyph unicode="&#x20ac;" horiz-adv-x="1490" d="M1479 948q11 -31 -22 -47l-144 -64q-31 -13 -44 18q-80 215 -309 215q-132 0 -240 -65.5t-169 -180.5h489l-104 -132h-434q-15 -63 -15 -134v-6h462l-102 -131h-341q34 -112 119.5 -177t209.5 -65q228 0 369 216q20 31 49 17l125 -64q29 -16 10 -46q-209 -324 -581 -324 q-209 0 -365.5 119.5t-195.5 323.5h-175l18 131h145q1 72 15 140h-140l18 132h164q58 137 169.5 239.5t248.5 155t280 52.5q374 0 490 -323z" />
<glyph unicode="&#x2122;" horiz-adv-x="1822" d="M1809 1262q21 0 18 -21l-105 -746q-3 -20 -23 -20h-108q-21 0 -18 20l64 452l-315 -360q-16 -19 -28 0l-214 360l-63 -452q-3 -20 -23 -20h-108q-21 0 -18 20l105 746q3 21 23 21h41q14 0 23 -14l278 -451l396 451q12 14 27 14h48zM881 1230l-13 -85q-4 -20 -22 -20h-254 l-89 -630q-4 -20 -22 -20h-110q-8 0 -13 6t-4 14l89 630h-254q-8 0 -13 6t-4 14l12 85q4 20 22 20h383h274q8 0 13.5 -6t4.5 -14z" />
<glyph unicode="&#x25fc;" horiz-adv-x="911" d="M0 911h911v-911h-911v911z" />
</font>
</defs>
</svg>
