<?xml version="1.0" standalone="no"?>
<!DOCTYPE svg PUBLIC "-//W3C//DTD SVG 1.1//EN" "http://www.w3.org/Graphics/SVG/1.1/DTD/svg11.dtd" >
<svg xmlns="http://www.w3.org/2000/svg">
<metadata></metadata>
<defs>
<font id="migrena_grotesqueXLtIt" horiz-adv-x="1443" >
<font-face units-per-em="2048" ascent="1638" descent="-410" />
<missing-glyph horiz-adv-x="384" />
<glyph horiz-adv-x="0" />
<glyph horiz-adv-x="682" />
<glyph unicode=" "  horiz-adv-x="384" />
<glyph unicode="&#x09;" horiz-adv-x="384" />
<glyph unicode="&#xa0;" horiz-adv-x="384" />
<glyph unicode="!" horiz-adv-x="321" d="M258 1243q2 6 7 6h22q7 0 5 -6l-137 -949q-1 -6 -8 -6h-13q-6 0 -5 6zM101 -11q-13 0 -23 10.5t-10 24.5q0 17 13.5 29.5t30.5 12.5q14 0 23.5 -10.5t9.5 -24.5q0 -17 -13.5 -29.5t-30.5 -12.5z" />
<glyph unicode="&#x22;" horiz-adv-x="544" d="M248 1279q0 6 7 6h20q8 0 6 -6l-54 -359q-2 -7 -8 -7h-12q-7 0 -5 7zM506 1279q0 6 8 6h20q7 0 5 -6l-54 -359q-2 -7 -8 -7h-12q-7 0 -5 7z" />
<glyph unicode="#" horiz-adv-x="1262" d="M1184 805q8 0 6 -6l-5 -19q-1 -6 -7 -6h-231l-94 -391h222q7 0 5 -6l-4 -19q-2 -6 -8 -6h-222l-83 -346q-2 -6 -8 -6h-23q-6 0 -4 6l83 346h-421l-83 -346q-2 -6 -8 -6h-23q-6 0 -4 6l83 346h-231q-7 0 -5 6l4 19q1 6 8 6h231l94 391h-223q-5 0 -4 6l4 19q2 6 8 6h222 l83 346q2 6 8 6h23q6 0 4 -6l-83 -346h421l83 346q2 6 8 6h22q7 0 5 -6l-83 -346h230zM818 383l94 391h-421l-94 -391h421z" />
<glyph unicode="$" horiz-adv-x="1106" d="M1057 1148q8 -5 2 -12l-10 -15q-5 -7 -12 -2q-155 110 -353 110q-202 0 -317 -86t-115 -229q0 -70 40.5 -119t105 -75t142.5 -46t156 -42t142.5 -52.5t105 -88t40.5 -138.5q0 -93 -39.5 -164t-107 -113t-148 -63.5t-172.5 -23.5l-29 -203q-2 -7 -7 -7h-16q-2 0 -4.5 2.5 t-1.5 4.5l29 203q-256 3 -411 141q-8 6 -3 13l9 14q7 8 13 2q80 -67 173.5 -103t229.5 -36q87 0 164.5 18.5t142 56t102.5 102t38 148.5q0 77 -40.5 131t-104.5 82.5t-142 49.5l-156 42t-142 49.5t-104.5 82t-40.5 130.5q0 156 120 250.5t331 98.5l25 180q2 5 6 5h18 q7 0 5 -5l-25 -180q204 -4 361 -113z" />
<glyph unicode="%" horiz-adv-x="1593" d="M1230 1278q5 -2 1 -8l-776 -1305q-6 -6 -10 -3l-15 8q-4 3 -2 8l777 1305q4 6 9 3zM723 870q-25 -179 -114.5 -284.5t-213.5 -105.5q-125 0 -185 105.5t-35 284.5q25 178 115 284.5t214 106.5t184 -106.5t35 -284.5zM398 509q113 0 191.5 96.5t101.5 264.5 q23 167 -28 264t-163 97q-113 0 -191 -97t-101 -264q-24 -167 27 -264t163 -97zM1258 770q124 0 184.5 -106.5t35.5 -284.5q-25 -179 -115 -284.5t-214 -105.5t-184.5 105.5t-35.5 284.5q25 178 115 284.5t214 106.5zM1153 18q112 0 190.5 97t101.5 264q23 168 -28 264.5 t-163 96.5q-113 0 -191 -96.5t-101 -264.5t28 -264.5t163 -96.5z" />
<glyph unicode="&#x26;" horiz-adv-x="1143" d="M1040 585q5 -2 3 -7q-81 -212 -192 -352l174 -211q4 -5 1.5 -10t-8.5 -5h-20q-4 0 -7 4l-162 196q-186 -220 -430 -220q-144 0 -230.5 75t-86.5 200q0 136 89.5 240.5t258.5 191.5q-98 129 -98 262q0 148 98 230t251 82q72 0 130.5 -24t124.5 -76q5 -4 0 -9l-13 -16 q-4 -6 -9 -1q-102 95 -239 95t-222 -72t-85 -204q0 -138 113 -276l350 -427q107 137 184 333q3 6 9 5zM404 11q226 0 406 213l-362 440q-168 -87 -248 -181.5t-80 -221.5q0 -114 76.5 -182t207.5 -68z" />
<glyph unicode="'" horiz-adv-x="286" d="M248 1279q0 6 7 6h20q8 0 6 -6l-54 -359q-2 -7 -8 -7h-12q-7 0 -5 7z" />
<glyph unicode="(" horiz-adv-x="515" d="M160 319q0 -161 39 -320t109 -291q3 -5 -3 -9l-13 -7q-5 -3 -8 1q-77 127 -116 292.5t-39 339.5q0 273 97 513.5t284 467.5q5 5 9 2l11 -8q5 -4 0 -9q-185 -228 -277.5 -463.5t-92.5 -508.5z" />
<glyph unicode=")" horiz-adv-x="516" d="M256 1306q74 -137 114 -304.5t40 -339.5q0 -269 -93.5 -516.5t-287.5 -452.5q-4 -4 -9 -1l-11 7q-5 4 0 9q369 420 369 958q0 346 -147 625q-4 6 3 9l14 8q5 3 8 -2z" />
<glyph unicode="*" horiz-adv-x="838" d="M836 1296q2 -5 -6 -7l-276 -86l132 -225q4 -4 -2 -8l-17 -11q-5 -3 -8 2l-132 224l-194 -224q-3 -5 -8 -2l-14 11q-6 4 0 8l194 225l-252 86q-5 2 -2 7l8 18q4 5 8 4l252 -86l39 277q2 7 7 7h18q7 0 5 -7l-39 -277l-18 -21l19 21l275 86q6 2 8 -4z" />
<glyph unicode="+" horiz-adv-x="1043" d="M936 550q7 0 5 -6l-2 -17q-2 -6 -8 -6h-379l-53 -380q-2 -6 -8 -6h-17q-7 0 -5 6l53 380h-380q-7 0 -5 6l2 17q2 6 7 6h380l54 380q2 6 7 6h17q7 0 5 -6l-53 -380h380z" />
<glyph unicode="," horiz-adv-x="330" d="M120 66q32 0 32 -40q0 -48 -31.5 -115.5t-89.5 -117.5q-5 -4 -10 1l-4 4q-3 5 1 9q39 34 64 80.5t25 84.5q0 13 -15 21q-17 9 -17 29q0 18 13.5 31t31.5 13z" />
<glyph unicode="-" horiz-adv-x="848" d="M136 468q-6 0 -6 7l3 19q1 6 7 6h593q7 0 5 -6l-2 -19q-2 -7 -7 -7h-593z" />
<glyph unicode="." horiz-adv-x="321" d="M101 -11q-13 0 -23 10.5t-10 24.5q0 17 13.5 29.5t30.5 12.5q14 0 23.5 -10.5t9.5 -24.5q0 -17 -13.5 -29.5t-30.5 -12.5z" />
<glyph unicode="/" horiz-adv-x="741" d="M802 1335q4 7 10 3l15 -8q4 -1 2 -8l-823 -1357q-4 -7 -10 -3l-15 8q-6 2 -2 8z" />
<glyph unicode="0" horiz-adv-x="1112" d="M675 1261q202 0 300 -172.5t57 -463.5t-187 -463.5t-348 -172.5t-299.5 172.5t-56.5 463.5t186.5 463.5t347.5 172.5zM501 20q186 0 320.5 165t173.5 440t-49.5 439.5t-274.5 164.5q-185 0 -320 -164.5t-174 -439.5q-38 -275 50 -440t274 -165z" />
<glyph unicode="1" horiz-adv-x="732" d="M589 1249q7 0 5 -6l-173 -1237q-2 -6 -7 -6h-24q-7 0 -5 6l169 1206l-286 -140q-5 -3 -9 3l-6 17q-2 5 5 8l302 147q4 2 12 2h17z" />
<glyph unicode="2" horiz-adv-x="1044" d="M964 938q-13 -97 -71 -196.5t-169 -212.5t-254 -230t-352 -268h760q7 0 5 -6l-2 -19q-2 -6 -8 -6h-814q-7 0 -5 6l1 10q0 6 4 9q428 306 636 520t233 392q19 135 -50 213.5t-228 78.5q-208 0 -399 -189q-6 -6 -11 1l-10 12q-4 4 5 11q199 197 426 197q170 0 247 -88.5 t56 -234.5z" />
<glyph unicode="3" horiz-adv-x="1051" d="M620 645q162 -20 241 -93t79 -192q0 -174 -126.5 -272.5t-334.5 -98.5q-263 0 -406 196q-5 7 -1 11l13 13q7 6 12 1q61 -84 157.5 -137t224.5 -53q194 0 309 88.5t115 248.5q0 271 -421 272q-7 0 -5 6l2 14q0 6 7 6q218 1 340.5 99t122.5 247q0 110 -70.5 169t-214.5 59 q-216 0 -398 -178q-7 -5 -12 2l-8 11q-4 5 5 12q189 185 424 185q154 0 232 -67t78 -188q0 -137 -95 -234t-270 -127z" />
<glyph unicode="4" horiz-adv-x="1105" d="M1011 360q7 0 5 -6l-2 -19q-2 -6 -8 -6h-222l-45 -323q-2 -6 -7 -6h-24q-7 0 -5 6l46 323h-690q-7 0 -5 6l2 17q0 3 2 5l820 889q2 3 12 3h17q5 0 5 -6l-124 -883h223zM104 360h649l116 831z" />
<glyph unicode="5" horiz-adv-x="1071" d="M1006 1249q7 0 5 -6l-3 -19q-2 -6 -7 -6h-611l-144 -568q162 85 326 85q168 -1 275.5 -86.5t107.5 -241.5q0 -100 -39.5 -180.5t-107 -131.5t-154 -78.5t-184.5 -27.5q-139 0 -231 48.5t-157 137.5q-5 7 -1 11l13 13q7 5 11 1q129 -180 365 -180q91 0 171 24.5 t142.5 70.5t99 120t36.5 167q0 143 -99 223t-255 80q-159 0 -332 -90q-3 -2 -5 0l-20 9q-4 4 -3 6l156 613q0 6 7 6h638z" />
<glyph unicode="6" horiz-adv-x="1050" d="M589 776q177 0 273.5 -109.5t72.5 -281.5t-157 -284t-313 -112q-181 0 -281.5 113t-75.5 291q38 266 139 458.5t273.5 301t401.5 108.5q7 0 5 -7l-2 -19q-1 -6 -7 -6q-298 -1 -488 -187t-264 -521q59 113 173.5 184t249.5 71zM469 20q163 0 285.5 104.5t144.5 260.5 q22 158 -66 258.5t-252 100.5q-162 0 -289.5 -108.5t-147.5 -250.5q-22 -156 70.5 -260.5t254.5 -104.5z" />
<glyph unicode="7" horiz-adv-x="1038" d="M265 0q-12 0 -5 11l732 1207h-792q-7 0 -5 6l2 19q0 6 7 6h829q8 0 6 -6l-1 -10q-1 -5 -5 -9l-739 -1221q-2 -3 -5 -3h-24z" />
<glyph unicode="8" horiz-adv-x="1064" d="M669 654q42 -7 80.5 -21.5t74.5 -39t62 -56t41.5 -75.5t15.5 -95q0 -172 -130.5 -275t-339.5 -103q-174 0 -275 79.5t-101 216.5q0 67 22 124.5t58 98t84.5 71t98.5 48.5t103 27q-100 20 -171.5 85t-71.5 173q0 146 122 247.5t310 101.5q158 0 250 -79.5t92 -201.5 q0 -58 -20 -108.5t-52.5 -86t-76 -63t-87 -43.5t-89.5 -25zM255 915q0 -109 87.5 -177t225.5 -68q163 0 276.5 85.5t113.5 219.5q0 110 -84 182.5t-227 72.5q-169 0 -280.5 -92t-111.5 -223zM477 20q188 0 309.5 96.5t121.5 248.5q0 123 -93 197.5t-251 74.5 q-189 0 -309.5 -96t-120.5 -248q0 -123 93 -198t250 -75z" />
<glyph unicode="9" horiz-adv-x="1021" d="M631 1261q173 0 270 -113.5t72 -291.5q-21 -146 -63 -272.5t-109.5 -235t-156.5 -185t-208.5 -120t-260.5 -43.5q-6 0 -6 6l3 19q2 6 7 6q151 0 275.5 52t213.5 147t150 219t96 277q-59 -112 -169.5 -182.5t-238.5 -70.5q-170 0 -262.5 110t-68.5 281q24 172 153.5 284.5 t302.5 112.5zM515 504q155 0 278.5 109t143.5 251q22 156 -67 260.5t-244 104.5t-274 -104.5t-141 -260.5q-23 -158 61.5 -259t242.5 -101z" />
<glyph unicode=":" horiz-adv-x="321" d="M209 760q-13 0 -23 10.5t-10 24.5q0 17 13.5 29.5t30.5 12.5q14 0 24 -10t10 -24q0 -17 -14 -30t-31 -13zM101 -11q-13 0 -23 10.5t-10 24.5q0 17 13.5 29.5t30.5 12.5q14 0 23.5 -10.5t9.5 -24.5q0 -17 -13.5 -29.5t-30.5 -12.5z" />
<glyph unicode=";" horiz-adv-x="330" d="M218 760q-14 0 -24 10.5t-10 24.5q0 17 13.5 29.5t30.5 12.5q14 0 24 -10t10 -24q0 -17 -13.5 -30t-30.5 -13zM120 66q32 0 32 -40q0 -48 -31.5 -115.5t-89.5 -117.5q-5 -4 -10 1l-4 4q-3 5 1 9q39 34 64 80.5t25 84.5q0 13 -15 21q-17 9 -17 29q0 18 13.5 31t31.5 13z " />
<glyph unicode="&#x3c;" horiz-adv-x="1043" d="M989 881q-1 -3 -8 -7l-808 -343l711 -344q7 -4 6 -7l-3 -22q-2 -8 -7 -5l-739 358q-6 4 -5 8l3 24q1 3 7 7l840 359q3 1 4.5 -1t1.5 -5z" />
<glyph unicode="=" horiz-adv-x="1098" d="M178 701q-7 0 -5 7l2 16q2 7 7 7h789q8 0 6 -7l-3 -16q-2 -7 -7 -7h-789zM127 340q-6 0 -6 6l3 17q2 7 8 7h789q7 0 5 -7l-2 -17q0 -6 -8 -6h-789z" />
<glyph unicode="&#x3e;" horiz-adv-x="1044" d="M187 881l3 22q1 3 3.5 5t4.5 1l738 -359q7 -3 6 -7l-4 -24q0 -5 -7 -8l-839 -358q-6 -3 -6 5l3 22q1 3 8 7l808 344l-712 343q-7 4 -6 7z" />
<glyph unicode="?" horiz-adv-x="852" d="M856 1000q0 109 -68 169t-199 60q-192 0 -361 -145q-7 -6 -11 2l-9 13q-3 6 5 12q90 72 181.5 111t205.5 39q140 0 216 -69t76 -190q0 -69 -20.5 -126t-54.5 -99t-75.5 -80.5t-87.5 -78.5t-87 -83t-76 -105.5t-53 -135.5q-2 -6 -7 -6h-19q-6 0 -4 6q17 74 51.5 137.5 t75 108.5t85.5 86t86.5 79t75.5 79.5t54 96t20 119.5zM389 -11q-14 0 -24 10.5t-10 24.5q0 17 13.5 29.5t30.5 12.5q14 0 24 -10.5t10 -24.5q0 -17 -13.5 -29.5t-30.5 -12.5z" />
<glyph unicode="@" horiz-adv-x="1625" d="M1022 -272q0 -6 -5 -6q-165 -38 -297 -38q-128 0 -233 34t-177 92.5t-121 139t-71.5 171t-22.5 190.5q0 170 64.5 317t174.5 249t260 159.5t318 57.5q281 -1 450 -146.5t169 -425.5q0 -94 -20.5 -185t-58 -167t-98 -123t-134.5 -47q-58 0 -96.5 22.5t-55 60t-23 87 t0.5 103.5q-8 -38 -35 -83t-67.5 -88.5t-99.5 -72.5t-121 -29q-118 0 -190.5 73t-72.5 232q0 213 120 356.5t308 142.5q75 -1 229 -40q4 -1 4 -6l-46 -463q-12 -131 19.5 -199t126.5 -68q67 0 121.5 44.5t88 117t51 158t17.5 173.5q0 138 -43 243.5t-122 170.5t-185 97.5 t-238 32.5q-160 0 -303.5 -55.5t-249.5 -153.5t-168.5 -239.5t-62.5 -304.5q0 -95 21 -181.5t67.5 -163t114.5 -132.5t168 -89t223 -34q122 -1 293 38q4 1 6.5 -1t1.5 -6v-15zM728 29q122 0 217 108t111 274l33 330q-119 36 -203 36q-173 0 -283.5 -135t-110.5 -336 q0 -147 65 -212t171 -65z" />
<glyph unicode="A" horiz-adv-x="1221" d="M1124 7q2 -7 -6 -7h-26q-7 0 -8 6l-134 462h-656l-269 -462q-4 -6 -10 -6h-27q-10 0 -5 7l738 1257q4 6 9 6h13q6 0 8 -6zM311 498h630l-210 721z" />
<glyph unicode="B" horiz-adv-x="1143" d="M723 644q137 -2 223.5 -75.5t86.5 -199.5q0 -162 -122 -265.5t-360 -103.5h-462h-14q-7 0 -5 6l173 1237q0 6 7 6h23h414q198 0 294 -70.5t96 -196.5q0 -155 -103.5 -244t-250.5 -94zM275 1218l-78 -560h439q202 0 303 86t101 234q0 240 -361 240h-404zM552 31 q117 0 204.5 26.5t138.5 73.5t76 106.5t25 131.5q0 119 -89 189.5t-272 70.5h-442l-84 -598h443z" />
<glyph unicode="C" horiz-adv-x="1326" d="M1209 323q5 -5 2 -10q-208 -324 -548 -324q-111 0 -207 39t-167 109t-111.5 173.5t-40.5 226.5q0 128 38.5 243t105.5 201.5t156 150t192.5 96.5t211.5 33q338 0 457 -325q2 -6 -4 -9l-19 -8q-6 -3 -8 3q-110 307 -430 307q-127 0 -246.5 -50.5t-212 -138.5t-148.5 -218 t-56 -280q0 -233 140 -377.5t353 -144.5q317 0 516 308q5 8 10 3z" />
<glyph unicode="D" horiz-adv-x="1258" d="M635 1249q242 0 394 -142.5t152 -391.5q0 -164 -58.5 -301t-158 -226.5t-230 -138.5t-275.5 -49h-371h-13q-7 0 -5 6l173 1237q0 6 7 6h23h362zM462 31q137 0 260.5 47t217 132.5t149 215t55.5 284.5q0 236 -143.5 372t-371.5 136h-354l-166 -1187h353z" />
<glyph unicode="E" horiz-adv-x="1065" d="M1050 1249q6 0 6 -6l-3 -19q-1 -6 -7 -6h-771l-76 -547h688q7 0 5 -6l-2 -19q-2 -7 -7 -7h-688l-86 -608h791q6 0 5 -6l-2 -19q-2 -6 -8 -6h-804h-16q-7 0 -5 6l173 1237q0 6 7 6h23h777z" />
<glyph unicode="F" horiz-adv-x="1014" d="M1030 1249q5 0 5 -6l-3 -19q-2 -6 -7 -6h-750l-85 -609h709q7 0 5 -6l-2 -19q-2 -6 -8 -6h-708l-81 -572q-2 -6 -7 -6h-23q-7 0 -5 6l173 1237q0 6 7 6h23h757z" />
<glyph unicode="G" horiz-adv-x="1349" d="M1235 544q7 0 5 -7l-56 -397q-135 -83 -254.5 -117t-266.5 -34q-111 0 -207 39t-167 109t-111.5 173.5t-40.5 226.5q0 128 38.5 243t105.5 201.5t156 150t192.5 96.5t211.5 33q168 0 274 -70t180 -219q2 -3 -4 -9l-19 -9q-5 -2 -8 4q-68 141 -169 206t-258 65 q-127 0 -246.5 -50.5t-212 -138.5t-148.5 -218t-56 -280q0 -233 140 -377.5t353 -144.5q133 0 244.5 30t240.5 104l54 383q0 7 8 7h21z" />
<glyph unicode="H" horiz-adv-x="1250" d="M1234 1249q6 0 6 -6l-174 -1237q-2 -6 -7 -6h-23q-7 0 -5 6l89 633h-925l-90 -633q-2 -6 -7 -6h-23q-7 0 -5 6l173 1237q0 6 7 6h23q6 0 6 -6l-80 -572h925l80 572q0 6 7 6h23z" />
<glyph unicode="I" horiz-adv-x="289" d="M243 1243q0 6 7 6h23q6 0 6 -6l-174 -1237q-2 -6 -7 -6h-23q-7 0 -5 6z" />
<glyph unicode="J" horiz-adv-x="887" d="M872 1249q7 0 5 -6l-122 -871q-27 -189 -133 -286t-279 -97q-230 0 -314 228q-3 7 4 10l20 8q6 3 9 -4q75 -211 283 -211q325 0 374 354l122 869q2 6 7 6h24z" />
<glyph unicode="K" horiz-adv-x="1115" d="M274 1249q8 0 6 -6l-174 -1237q0 -6 -7 -6h-23q-6 0 -6 6l174 1237q2 6 7 6h23zM967 9q4 -4 2.5 -6.5t-6.5 -2.5h-29q-8 0 -12 5l-538 631l711 608q6 5 14 5h27q9 0 1 -8l-707 -606z" />
<glyph unicode="L" horiz-adv-x="966" d="M852 31q6 0 5 -6l-2 -19q-2 -6 -7 -6h-772q-6 0 -6 6l174 1237q2 6 7 6h23q8 0 6 -6l-171 -1212h743z" />
<glyph unicode="M" horiz-adv-x="1455" d="M1424 1263q5 7 12 7h6q6 0 6 -6l-177 -1258q-2 -6 -7 -6h-23q-8 0 -6 6l165 1175l-686 -908q-8 -10 -12 0l-432 908l-165 -1175q-2 -6 -7 -6h-23q-7 0 -5 6l176 1258q0 6 7 6h6q6 0 10 -7l446 -937z" />
<glyph unicode="N" horiz-adv-x="1270" d="M1255 1249q6 0 6 -6l-177 -1257q-2 -6 -7 -6h-3q-7 0 -10 4l-792 1209l-167 -1187q-2 -6 -7 -6h-23q-7 0 -5 6l176 1258q0 6 7 6h3q5 0 9 -5l793 -1209l167 1187q0 6 7 6h23z" />
<glyph unicode="O" d="M841 1261q148 0 267 -66.5t189 -192.5t70 -290q0 -128 -38.5 -243t-105.5 -201.5t-156 -150t-192.5 -96t-211.5 -32.5q-111 0 -207 39t-167 109t-111.5 173.5t-40.5 226.5q0 128 38.5 243t105.5 201.5t156 150t192.5 96.5t211.5 33zM667 20q127 0 246.5 50.5t212 138.5 t148.5 218.5t56 280.5q0 233 -140 377t-353 144q-127 0 -246.5 -50.5t-212 -138.5t-148.5 -218t-56 -280q0 -233 140 -377.5t353 -144.5z" />
<glyph unicode="P" horiz-adv-x="1077" d="M664 1249q105 0 185.5 -26t127.5 -72t70 -103t23 -124q0 -81 -30 -154t-89.5 -133t-160.5 -96t-230 -36h-384l-71 -499q-2 -6 -7 -6h-23q-7 0 -5 6l173 1237q0 6 7 6h23h391zM561 537q123 0 217 33t148 89t80.5 122t26.5 140q0 61 -20.5 112.5t-63.5 94t-118 66.5 t-175 24h-381l-95 -681h381z" />
<glyph unicode="Q" d="M1367 712q0 -134 -42 -253t-114.5 -207.5t-168 -150.5t-205.5 -90q12 -110 87 -169t168 -59q6 0 5 -6l-2 -21q-1 -6 -8 -6q-66 0 -125 27t-102.5 86t-51.5 141q-72 -15 -145 -15q-111 0 -207 39t-167 109t-111.5 173.5t-40.5 226.5q0 128 38.5 243t105.5 201.5t156 150 t192.5 96.5t211.5 33q148 0 267 -66.5t189 -192.5t70 -290zM667 20q127 0 246.5 50.5t212 138.5t148.5 218.5t56 280.5q0 233 -140 377t-353 144q-127 0 -246.5 -50.5t-212 -138.5t-148.5 -218t-56 -280q0 -233 140 -377.5t353 -144.5z" />
<glyph unicode="R" horiz-adv-x="1150" d="M1051 933q0 -149 -100 -261t-296 -139l272 -520q2 -4 -0.5 -8.5t-8.5 -4.5h-21q-4 0 -9 7l-272 522q-36 -3 -74 -3h-364l-73 -520q-2 -6 -7 -6h-23q-7 0 -5 6l173 1237q0 6 7 6h23h371q106 0 186 -25t127.5 -69.5t70.5 -100t23 -121.5zM543 557q123 0 217 31t147.5 85 t80 118.5t26.5 138.5q0 126 -92.5 207t-286.5 81h-360l-92 -661h360z" />
<glyph unicode="S" horiz-adv-x="1107" d="M252 914q0 -70 40.5 -119t105 -75t142.5 -46t156 -42t142.5 -52.5t105 -88t40.5 -138.5q0 -96 -42 -168.5t-113 -114t-155 -61.5t-179 -20q-258 0 -418 141q-8 6 -3 13l9 14q7 8 13 2q80 -67 173.5 -103t229.5 -36q87 0 164.5 18.5t142 56t102.5 102t38 148.5 q0 77 -40.5 131t-104.5 82.5t-142 49.5l-156 42t-142 49.5t-104.5 82t-40.5 130.5q0 159 125 254t343 95q210 0 373 -113q8 -5 2 -12l-10 -15q-5 -7 -12 -2q-155 110 -353 110q-202 0 -317 -86t-115 -229z" />
<glyph unicode="T" horiz-adv-x="1204" d="M1219 1249q6 0 6 -6l-3 -19q-2 -6 -8 -6h-481l-170 -1212q-2 -6 -7 -6h-24q-7 0 -5 6l170 1212h-482q-7 0 -5 6l2 19q0 6 8 6h511h488z" />
<glyph unicode="U" horiz-adv-x="1229" d="M1214 1249q6 0 6 -6l-103 -729q-36 -255 -184 -394.5t-380 -139.5t-340 139.5t-72 394.5l102 729q0 6 7 6h23q6 0 6 -6l-102 -726q-34 -243 64 -374.5t317 -131.5t354 131.5t170 374.5l102 726q0 6 7 6h23z" />
<glyph unicode="V" horiz-adv-x="1178" d="M1250 1249q8 0 5 -7l-705 -1257q-3 -5 -9 -5h-14q-6 0 -7 5l-363 1258q-2 6 6 6h26q6 0 8 -5l344 -1213l675 1213q3 5 9 5h25z" />
<glyph unicode="W" horiz-adv-x="1632" d="M1704 1249q8 0 6 -6l-566 -1258q-3 -5 -8 -5h-12q-6 0 -7 5l-202 1133l-516 -1133q-3 -5 -9 -5h-12q-6 0 -7 5l-215 1257q-1 7 7 7h23q7 0 8 -5l199 -1203l517 1140q3 5 9 5h11q6 0 7 -5l201 -1140l535 1203q3 5 8 5h23z" />
<glyph unicode="X" horiz-adv-x="1326" d="M1256 1249q10 0 2 -8l-572 -612l408 -620q6 -9 -4 -9h-26q-7 0 -11 5l-393 597l-560 -598q-4 -4 -9 -4h-22q-12 0 -2 11l577 616l-402 612q-7 10 7 10h21q8 0 13 -7l387 -588l550 590q5 5 13 5h23z" />
<glyph unicode="Y" horiz-adv-x="1138" d="M1209 1249q10 0 5 -6l-617 -788l-62 -449q-2 -6 -7 -6h-24q-7 0 -5 6l63 450l-405 787q-4 6 6 6h26q5 0 8 -5l387 -756l592 756q4 5 9 5h24z" />
<glyph unicode="Z" horiz-adv-x="1183" d="M54 0q-7 0 -5 6l2 10q0 6 3 9l1079 1193h-875q-8 0 -6 6l3 19q2 6 7 6h920q7 0 5 -6l-1 -10q-2 -7 -5 -9l-1078 -1193h919q2 0 4.5 -2t1.5 -4l-2 -19q-2 -6 -8 -6h-964z" />
<glyph unicode="[" horiz-adv-x="439" d="M450 1283h-169l-220 -1567h168q7 0 5 -6l-2 -15q0 -6 -7 -6h-193q-6 0 -6 6l226 1610q2 6 8 6h194q7 0 5 -6l-2 -16q0 -6 -7 -6z" />
<glyph unicode="\" horiz-adv-x="1120" d="M195 1335l823 -1357q4 -6 -2 -8l-15 -8q-5 -3 -9 3l-824 1357q-2 7 2 8l16 8q6 4 9 -3z" />
<glyph unicode="]" horiz-adv-x="440" d="M433 1311q7 0 5 -6l-226 -1610q-2 -6 -7 -6h-194q-6 0 -6 6l2 15q1 6 8 6h169l220 1567h-169q-7 0 -5 6l1 16q2 6 8 6h194z" />
<glyph unicode="^" horiz-adv-x="815" d="M850 950q3 -4 0 -8.5t-9 -4.5h-18q-3 0 -4 3l-271 470l-404 -470q-2 -3 -4 -3h-19q-5 0 -7 4.5t2 8.5l416 481q3 3 5 3h29q2 0 3 -3z" />
<glyph unicode="_" horiz-adv-x="702" d="M6 -30q-7 0 -5 6l2 18q2 6 7 6h687q7 0 5 -6l-2 -18q-2 -6 -7 -6h-687z" />
<glyph unicode="`" horiz-adv-x="305" d="M280 957l-251 234q-5 5 0 9l13 15q5 5 10 0l248 -237q4 -5 0 -9l-11 -11q-5 -5 -9 -1z" />
<glyph unicode="a" horiz-adv-x="1049" d="M978 820l-72 -513q-12 -62 -9 -122.5t9 -91.5t20 -82q1 -7 -5 -10l-13 -6q-6 -3 -9 2q-48 127 -36 251q-60 -117 -172 -188t-244 -71q-154 0 -256.5 102t-102.5 266q0 104 40.5 195t107 152.5t153 97t177.5 35.5q132 0 223.5 -77t117.5 -202l37 262q2 6 7 6h22q7 0 5 -6z M453 20q178 0 308.5 129.5t130.5 310.5q0 151 -91 248.5t-237 97.5q-85 0 -164.5 -32.5t-140.5 -89.5t-98 -141.5t-37 -182.5q0 -153 93.5 -246.5t235.5 -93.5z" />
<glyph unicode="b" horiz-adv-x="1058" d="M601 837q154 0 256.5 -102t102.5 -267q0 -138 -69 -249.5t-177.5 -170.5t-231.5 -59q-132 0 -223.5 77t-117.5 202l-37 -262q-2 -6 -7 -6h-22q-7 0 -5 6l182 1299q2 6 7 6h23q7 0 5 -6l-102 -728q60 118 172 189t244 71zM485 20q114 0 213.5 54.5t162.5 158t63 233.5 q0 153 -93.5 246.5t-235.5 93.5q-116 0 -217 -58.5t-161.5 -160.5t-60.5 -221q0 -150 91.5 -248t237.5 -98z" />
<glyph unicode="c" horiz-adv-x="963" d="M837 227q6 -3 2 -9q-132 -229 -378 -229q-158 0 -260.5 101t-102.5 266q0 139 68 250.5t178 171t236 59.5q124 0 203 -60t111 -169q1 -6 -5 -9l-19 -8q-6 -3 -8 3q-30 103 -102 157.5t-182 54.5q-181 0 -312.5 -126t-131.5 -321q0 -153 93.5 -246t239.5 -93 q218 0 343 212q4 6 10 3z" />
<glyph unicode="d" horiz-adv-x="1058" d="M1052 1311q7 0 5 -6l-183 -1299q-2 -6 -7 -6h-22q-6 0 -6 6l34 242q-60 -117 -172 -188t-244 -71q-154 0 -256.5 102t-102.5 266q0 104 40.5 195t107.5 152.5t153.5 97t177.5 35.5q132 0 223 -77t117 -202l105 747q2 6 7 6h23zM463 20q178 0 308.5 129.5t130.5 310.5 q0 151 -91 248.5t-237 97.5q-85 0 -164.5 -32.5t-140.5 -89.5t-98 -141.5t-37 -182.5q0 -153 93.5 -246.5t235.5 -93.5z" />
<glyph unicode="e" horiz-adv-x="974" d="M879 446h-738q-7 -39 -7 -86q0 -153 93.5 -246.5t235.5 -93.5q221 0 344 211q3 6 10 3l17 -8q6 -3 2 -9q-132 -228 -378 -228q-156 0 -258 101.5t-102 266.5q0 138 66 249.5t173 171t231 59.5q164 0 250 -106.5t61 -284.5zM564 806q-147 0 -264 -91t-153 -240h698 q14 151 -62.5 241t-218.5 90z" />
<glyph unicode="f" horiz-adv-x="697" d="M791 1251q7 -7 1 -12l-11 -13q-6 -6 -14 1q-68 66 -167 66q-111 0 -171.5 -69.5t-75.5 -184.5l-29 -213h374q5 0 5 -6l-2 -19q-2 -6 -7 -6h-375l-111 -789q-2 -6 -7 -6h-23q-6 0 -4 6l110 789h-173q-7 0 -5 6l2 19q2 6 7 6h173l30 215q18 126 90 204.5t194 78.5 q110 0 189 -73z" />
<glyph unicode="g" horiz-adv-x="928" d="M925 858q8 0 6 -7l-3 -19q-2 -6 -6 -6q-55 0 -100 -28t-64 -77q43 -58 43 -142q0 -128 -107 -223.5t-257 -95.5h-98q-118 0 -176.5 -40t-58.5 -102q0 -104 200 -104h128q165 0 253.5 -59.5t88.5 -162.5q0 -125 -109.5 -201.5t-303.5 -76.5q-165 0 -254 59.5t-89 160.5 q0 90 72.5 156.5t184.5 96.5q-112 4 -158 36.5t-46 88.5q0 70 61 118t180 54q-75 28 -118 92t-43 142q0 128 107.5 223.5t258.5 95.5q142 0 224 -92q26 51 76.5 82t107.5 31zM439 290q135 0 231 86t96 201q0 100 -69.5 165t-183.5 65q-134 0 -230.5 -87t-96.5 -199 q0 -98 69 -164.5t184 -66.5zM740 -212q0 91 -80.5 143.5t-231.5 52.5q-94 0 -179 -29t-140.5 -86.5t-55.5 -129.5q0 -91 80.5 -144t231.5 -53q177 0 276 67t99 179z" />
<glyph unicode="h" horiz-adv-x="987" d="M612 846q157 0 220 -93t40 -255l-68 -492q-2 -6 -7 -6h-23q-6 0 -6 6l69 486q22 153 -34.5 238t-200.5 85q-140 0 -263.5 -92.5t-163.5 -220.5l-70 -496q0 -6 -7 -6h-22q-6 0 -6 6l182 1299q2 6 8 6h22q7 0 5 -6l-100 -711q23 41 62 83t92.5 81t125 63.5t145.5 24.5z" />
<glyph unicode="i" horiz-adv-x="330" d="M253 1037q-13 0 -23 10.5t-10 24.5q0 17 13.5 29.5t30.5 12.5q14 0 23.5 -10t9.5 -24q0 -17 -13.5 -30t-30.5 -13zM205 820q0 6 7 6h22q6 0 6 -6l-114 -814q-2 -6 -8 -6h-22q-7 0 -5 6z" />
<glyph unicode="j" horiz-adv-x="329" d="M251 1037q-14 0 -23.5 10.5t-9.5 24.5q0 17 13.5 29.5t30.5 12.5q14 0 24 -10t10 -24q0 -17 -14 -30t-31 -13zM-153 -485q-6 0 -6 7l2 17q1 4 8 6q94 1 143 66t68 200l142 1009q2 6 7 6h23q6 0 5 -6l-142 -1009q-20 -143 -78.5 -219.5t-171.5 -76.5z" />
<glyph unicode="k" horiz-adv-x="829" d="M252 1305q0 6 7 6h23q7 0 5 -6l-183 -1299q-2 -6 -7 -6h-22q-7 0 -5 6zM684 0q-6 0 -11 5l-385 449l477 369q4 3 9 3h32q9 0 2 -7l-475 -367l378 -443q7 -9 -5 -9h-22z" />
<glyph unicode="l" horiz-adv-x="288" d="M252 1305q0 6 8 6h22q7 0 5 -6l-183 -1299q0 -6 -6 -6h-23q-5 0 -5 6z" />
<glyph unicode="m" horiz-adv-x="1575" d="M1211 846q154 0 213.5 -93t36.5 -257l-69 -490q-2 -6 -7 -6h-23q-5 0 -5 6l68 484q45 325 -223 325q-139 0 -254.5 -110t-135.5 -252l-63 -447q0 -6 -8 -6h-22q-7 0 -5 6l67 484q47 325 -222 325q-139 0 -255 -110t-136 -252l-63 -447q0 -6 -7 -6h-22q-6 0 -6 6l114 814 q2 6 8 6h22q6 0 5 -6l-34 -239q21 43 54 85.5t80.5 84.5t113 68.5t135.5 26.5q136 0 198 -73.5t57 -204.5q21 48 57 95t84.5 89t113 68t133.5 26z" />
<glyph unicode="n" horiz-adv-x="992" d="M616 846q157 0 220.5 -93t40.5 -255l-69 -492q-2 -6 -7 -6h-22q-6 0 -6 6l68 486q22 153 -34 238t-200 85q-156 0 -287.5 -110.5t-151.5 -251.5l-63 -447q0 -6 -7 -6h-22q-6 0 -6 6l114 814q2 6 8 6h22q6 0 5 -6l-34 -239q21 41 59 85t92.5 85.5t128 68t151.5 26.5z" />
<glyph unicode="o" horiz-adv-x="1037" d="M578 837q156 0 258.5 -102t102.5 -267q0 -138 -69 -249.5t-178 -170.5t-233 -59q-156 0 -258.5 101.5t-102.5 266.5q0 104 40.5 195t107.5 152.5t153.5 97t178.5 35.5zM463 20q83 0 162 32.5t141 89.5t99.5 142t37.5 182q0 153 -93.5 246.5t-235.5 93.5 q-112 0 -212 -54.5t-164 -158.5t-64 -233q0 -153 93.5 -246.5t235.5 -93.5z" />
<glyph unicode="p" horiz-adv-x="1058" d="M602 837q154 0 256.5 -102t102.5 -267q0 -138 -69 -249.5t-178 -170.5t-232 -59q-132 0 -223.5 77t-117.5 203l-105 -747q-2 -7 -7 -7h-22q-5 0 -5 7l182 1298q0 6 7 6h23q6 0 5 -6l-35 -245q59 118 172 190t246 72zM485 20q85 0 164.5 32.5t140.5 89.5t98 141.5 t37 182.5q0 153 -94 246.5t-236 93.5q-178 0 -308.5 -129.5t-130.5 -310.5q0 -150 91.5 -248t237.5 -98z" />
<glyph unicode="q" horiz-adv-x="1058" d="M983 826q8 0 6 -7l-183 -1298q0 -6 -7 -6h-22q-7 0 -6 6l102 727q-60 -117 -172 -188t-244 -71q-154 0 -256.5 102t-102.5 266q0 104 40.5 195.5t107.5 153t153.5 96.5t177.5 35q132 0 223 -77t117 -203l37 262q0 7 7 7h22zM463 20q178 0 308.5 129.5t130.5 309.5 q0 151 -91 248.5t-237 97.5q-114 0 -214 -54.5t-163 -158t-63 -232.5q0 -153 93.5 -246.5t235.5 -93.5z" />
<glyph unicode="r" horiz-adv-x="539" d="M534 846q8 0 6 -6l-3 -22q-1 -4 -8 -6q-106 -2 -224 -111.5t-136 -233.5l-64 -461q-2 -6 -7 -6h-22q-6 0 -6 6l114 814q2 6 8 6h22q6 0 5 -6l-34 -248q34 94 144.5 184t204.5 90z" />
<glyph unicode="s" horiz-adv-x="813" d="M189 606q0 -46 27.5 -77.5t71 -49t96.5 -31t106 -28t96.5 -35.5t71 -59.5t27.5 -92.5q0 -55 -20.5 -98.5t-52.5 -70.5t-76 -44.5t-87.5 -24t-90.5 -6.5q-156 0 -300 93q-6 3 -2 9l11 15q5 6 10 3q132 -90 284 -90q51 0 96.5 9t91 30.5t72.5 65t27 103.5q0 50 -27.5 84.5 t-71 53.5t-96.5 33t-105.5 28t-96 33.5t-71 55t-27.5 86.5q0 109 88 172.5t226 63.5q144 0 269 -91q5 -3 1 -10l-9 -15q-4 -6 -10 -3q-122 88 -254 88q-122 0 -198.5 -54.5t-76.5 -145.5z" />
<glyph unicode="t" horiz-adv-x="739" d="M701 826q6 0 6 -6l-2 -19q-2 -6 -8 -6h-374l-74 -522q-9 -46 -4.5 -91.5t18 -81.5t49 -58t89.5 -22q101 0 193 73q7 5 11 -1l6 -13q3 -6 -6 -13q-104 -77 -211 -77q-218 0 -180 282l73 524h-176q-7 0 -5 6l2 19q2 6 7 6h177l30 212q1 6 7 8l23 6q6 2 6 -5l-31 -221h374z " />
<glyph unicode="u" horiz-adv-x="992" d="M917 826q7 0 5 -6l-114 -814q-2 -6 -7 -6h-23q-5 0 -5 6l33 239q-21 -41 -59 -85t-92 -85.5t-128 -68t-151 -26.5q-157 0 -220.5 93t-40.5 255l69 492q0 6 7 6h23q6 0 5 -6l-68 -486q-22 -153 34 -238t200 -85q156 0 288 111t152 252l62 446q1 6 7 6h23z" />
<glyph unicode="v" horiz-adv-x="784" d="M826 826q11 0 3 -12l-486 -830q-2 -4 -8 -4h-7q-4 0 -6 4l-254 830q-4 12 7 12h21q7 0 9 -7l234 -782l454 782q6 7 11 7h22z" />
<glyph unicode="w" horiz-adv-x="1296" d="M1338 826q11 0 3 -12l-421 -830q-2 -4 -8 -4h-7q-5 0 -7 4l-214 682l-406 -682q-2 -4 -8 -4h-7q-4 0 -6 4l-189 830q-4 12 6 12h22q5 0 8 -7l174 -780l400 674q5 8 10 8h6q6 0 8 -8l211 -674l392 780q6 7 11 7h22z" />
<glyph unicode="x" horiz-adv-x="855" d="M833 826q10 0 1 -9l-390 -397l292 -411q6 -9 -3 -9h-28q-5 0 -8 4l-277 390l-374 -389q-5 -5 -14 -5h-24q-2 0 -4 1t-2 3.5t4 6.5l396 408l-282 398q-5 9 3 9h26q7 0 11 -5l267 -377l365 377q4 5 11 5h30z" />
<glyph unicode="y" horiz-adv-x="787" d="M829 826q11 0 3 -12l-474 -820q-151 -263 -248.5 -371t-211.5 -108q-8 0 -6 7l3 17q2 6 7 6q50 0 95.5 25.5t97 85.5t103.5 139.5t126 206.5l-255 812q-6 12 6 12h22q5 0 8 -7l242 -779l448 779q4 7 13 7h21z" />
<glyph unicode="z" horiz-adv-x="915" d="M30 0q-6 0 -6 6l1 6q2 6 4 8l759 775h-614q-2 0 -4.5 2t-1.5 4l2 19q2 6 8 6h663q7 0 5 -6l-1 -6q0 -6 -3 -9l-760 -774h658q7 0 5 -6l-3 -19q0 -6 -7 -6h-705z" />
<glyph unicode="{" horiz-adv-x="504" d="M515 1282q-88 -4 -143 -53.5t-70 -162.5q-6 -42 -8 -170t-7 -162q-13 -97 -48.5 -153t-97.5 -81q86 -41 86 -174q0 -55 -45 -223.5t-45 -219.5q0 -159 158 -166q7 -2 6 -6l-3 -11q0 -6 -6 -6q-187 2 -187 188q0 55 45 221.5t45 217.5q0 135 -99 164q-6 2 -4 7l2 16 q2 4 6 6q132 29 155 221q4 33 6.5 161t8.5 172q31 236 248 238q8 0 6 -7l-2 -11q0 -6 -7 -6z" />
<glyph unicode="|" horiz-adv-x="285" d="M280 1499q0 6 6 6h19q6 0 6 -6l-239 -1702q-2 -6 -7 -6h-19q-8 0 -6 6z" />
<glyph unicode="}" horiz-adv-x="505" d="M434 514q4 -1 4 -6l-2 -16q-2 -6 -6 -7q-132 -30 -155 -221q-5 -34 -7 -161.5t-8 -170.5q-31 -236 -249 -238q-5 0 -4 6l1 11q2 5 6 6q89 4 144 53.5t70 162.5q6 42 8 170.5t7 162.5q13 96 48.5 152t97.5 82q-87 42 -87 173q0 55 45.5 223.5t45.5 219.5q0 85 -41 123.5 t-118 42.5q-6 0 -4 6l1 11q2 7 7 7q186 -2 186 -188q0 -55 -44.5 -222t-44.5 -218q0 -141 99 -164z" />
<glyph unicode="~" horiz-adv-x="1108" d="M1011 602q4 -3 1 -7q-31 -66 -101 -116t-150 -50q-49 0 -91.5 16.5t-75 40.5t-64 47.5t-71.5 40t-84 16.5q-68 0 -132 -43.5t-92 -100.5q-5 -7 -12 -4l-10 6q-5 3 -2 7q32 66 102.5 116t149.5 50q49 0 91.5 -16.5t75 -40.5t64 -48t71.5 -40.5t84 -16.5q68 0 132.5 44 t92.5 101q4 6 10 3z" />
<glyph unicode="&#xa1;" horiz-adv-x="321" d="M221 837q13 0 23 -10.5t10 -24.5q0 -17 -13.5 -29.5t-30.5 -12.5q-14 0 -24 10.5t-10 24.5q0 17 13.5 29.5t31.5 12.5zM64 -417q-2 -6 -7 -6h-23q-7 0 -5 6l138 948q2 7 7 7h13q8 0 6 -7z" />
<glyph unicode="&#xa2;" horiz-adv-x="963" d="M894 608q1 -6 -5 -9l-19 -8q-6 -3 -8 3q-30 103 -102 157.5t-182 54.5q-181 0 -312.5 -126t-131.5 -321q0 -153 93.5 -246t239.5 -93q218 0 343 212q4 6 10 3l17 -8q6 -3 2 -9q-61 -108 -155 -167.5t-215 -61.5l-29 -203q-2 -7 -7 -7h-16q-8 0 -6 7l28 203 q-151 8 -246 108t-95 259q0 102 38 191t101 151t147 98.5t175 40.5l25 180q2 5 7 5h17q7 0 5 -5l-25 -180q120 -2 197.5 -61.5t108.5 -167.5z" />
<glyph unicode="&#xa3;" horiz-adv-x="1142" d="M1106 1064q5 -7 1 -11l-12 -12q-7 -7 -12 -1q-135 189 -346 189q-160 0 -259 -79.5t-117 -213.5q-7 -34 -5.5 -82.5t5 -76t9.5 -73.5t8 -76h452q6 0 6 -6l-3 -17q-2 -6 -7 -6h-446q4 -114 -37 -247t-158 -322q79 27 163 28.5t157.5 -12.5t147 -26.5t158 -8.5t164.5 36 q5 2 7.5 -0.5t1.5 -6.5l-2 -17q-2 -5 -6 -6q-87 -32 -174 -36.5t-160.5 8.5t-146.5 27t-158.5 12.5t-168.5 -28.5q-5 -2 -7 2l-11 16q-1 4 1 7q119 194 158.5 327t34.5 247h-205q-8 0 -6 6l3 17q0 6 7 6h199q-2 29 -8 75t-9 74t-4.5 77t5.5 84q20 145 128.5 234t279.5 89 q229 0 372 -197z" />
<glyph unicode="&#xa4;" horiz-adv-x="1400" d="M1378 1055q4 -6 -2 -10l-231 -197q111 -148 84 -344q-28 -198 -180 -343l175 -197q4 -4 -1 -10l-16 -14q-5 -4 -9 0l-170 201q-81 -72 -181.5 -112t-205.5 -40t-194 40t-150 112l-227 -201q-5 -5 -10 0l-11 14q-5 5 1 10l231 197q-110 145 -83 343q28 197 179 343 l-175 198q-4 5 1 10l16 14q5 5 10 0l170 -202q81 72 181.5 112.5t205.5 40.5t193.5 -40t149.5 -112l227 201q6 5 11 0zM1194 504q14 97 -12 186.5t-81.5 154.5t-139 103.5t-180.5 38.5q-129 0 -249 -65t-201 -176.5t-99 -241.5t31 -241t151 -176t231 -65q197 0 359 142 t190 340z" />
<glyph unicode="&#xa5;" horiz-adv-x="1138" d="M1209 1249q10 0 5 -6l-590 -754h228q2 0 4.5 -2t1.5 -4l-2 -15q-2 -7 -8 -7h-246l-5 -6l-24 -175h250q7 0 5 -7l-2 -14q-2 -7 -7 -7h-250l-34 -246q-2 -6 -7 -6h-24q-7 0 -5 6l34 246h-250q-8 0 -6 7l3 14q2 7 7 7h250l25 176l-3 5h-247q-8 0 -6 7l3 15q2 6 7 6h228 l-387 754q-4 6 6 6h26q5 0 8 -5l387 -755h1l591 755q4 5 9 5h24z" />
<glyph unicode="&#xa6;" horiz-adv-x="285" d="M280 1499q0 6 6 6h19q6 0 6 -6l-80 -571q-2 -6 -8 -6h-19q-7 0 -5 6zM121 368q0 7 6 7h19q8 0 6 -7l-80 -571q-2 -6 -7 -6h-19q-8 0 -6 6z" />
<glyph unicode="&#xa7;" horiz-adv-x="1125" d="M719 1454q377 0 379 -377q0 -12 -8 -12h-22q-5 0 -5 8q-3 350 -348 350q-186 0 -305 -93.5t-142 -255.5q-11 -78 10.5 -135t85.5 -98t109.5 -60t143.5 -51q73 -24 109 -37.5t95.5 -43t84.5 -57t51.5 -75t23 -102t-27.5 -133t-76 -172.5q84 -84 65 -221 q-24 -176 -159 -278.5t-347 -102.5q-196 0 -297 98t-102 280q0 12 8 12h22q5 0 5 -8q1 -170 93 -260.5t275 -90.5q199 0 321 93.5t145 256.5q9 63 -8.5 114.5t-44 83t-85.5 62t-97 45t-115 39.5q-57 19 -85.5 29t-78.5 31t-74 38t-58 46.5t-45 59.5t-20.5 74t1 93t34 113.5 t64.5 138.5q-81 84 -62 218q24 175 155.5 277.5t331.5 102.5zM856 130q51 96 72.5 173.5t14 132t-33 96t-70.5 71t-96 51.5t-112 42t-115.5 38t-109.5 44.5t-91 57.5q-58 -107 -78 -191.5t-6.5 -140t52 -99t92 -69.5t120.5 -51t129.5 -43.5t126.5 -48t105 -63.5z" />
<glyph unicode="&#xa8;" horiz-adv-x="412" d="M34 1038q-13 0 -22.5 10t-9.5 24q0 17 13 29.5t30 12.5q13 0 23 -10.5t10 -24.5q0 -16 -13.5 -28.5t-30.5 -12.5zM367 1038q-13 0 -23 10t-10 24q0 16 13.5 29t30.5 13q13 0 23 -10.5t10 -24.5q0 -16 -13.5 -28.5t-30.5 -12.5z" />
<glyph unicode="&#xa9;" horiz-adv-x="1496" d="M867 1260q157 0 284 -75t197.5 -203.5t70.5 -283.5q0 -188 -102.5 -352.5t-271 -260t-356.5 -95.5q-157 0 -284 74.5t-197.5 202.5t-70.5 284q0 188 102.5 352.5t271 260.5t356.5 96zM691 6q136 0 266.5 55.5t227.5 148t156.5 220.5t59.5 266q0 152 -68.5 277t-191.5 198 t-276 73q-182 0 -346 -93.5t-264 -254t-100 -343.5q0 -152 68.5 -277t191.5 -197.5t276 -72.5zM1083 436q3 -3 1 -5q-130 -203 -341 -203q-141 0 -234 93.5t-93 247.5q0 99 37 184.5t98 143t140.5 90t163.5 32.5q210 0 284 -201q1 -6 -3 -6l-12 -5q-4 -4 -5 2 q-69 191 -268 191q-106 0 -200 -53t-153 -152.5t-59 -222.5q0 -145 87 -234.5t220 -89.5q197 0 321 191q3 5 6 2z" />
<glyph unicode="&#xab;" horiz-adv-x="904" d="M432 183q2 -2 2 -5l-2 -14q-1 -4 -5.5 -5.5t-8.5 1.5l-294 252q-2 1 -2 4l1 9l1 9q0 2 3 4l367 252q5 3 8.5 1.5t2.5 -5.5l-2 -14q0 -2 -3 -5l-350 -242zM809 690q5 3 9 1.5t3 -5.5l-2 -14q0 -3 -3 -5l-351 -242l283 -242q2 -2 2 -5l-2 -14q-1 -4 -5.5 -5.5t-8.5 1.5 l-294 252q-3 3 -3 4l3 18q0 2 3 4z" />
<glyph unicode="&#xac;" horiz-adv-x="1047" d="M938 550q8 0 6 -6l-32 -227q-2 -6 -7 -6h-20q-7 0 -6 6l29 204h-766q-7 0 -5 6l2 17q2 6 7 6h792z" />
<glyph unicode="&#xad;" horiz-adv-x="848" d="M136 468q-6 0 -6 7l3 19q1 6 7 6h593q7 0 5 -6l-2 -19q-2 -7 -7 -7h-593z" />
<glyph unicode="&#xae;" horiz-adv-x="1496" d="M867 1260q157 0 284 -75t197.5 -203.5t70.5 -283.5q0 -188 -102.5 -352.5t-271 -260t-356.5 -95.5q-157 0 -284 74.5t-197.5 202.5t-70.5 284q0 188 102.5 352.5t271 260.5t356.5 96zM691 6q136 0 266.5 55.5t227.5 148t156.5 220.5t59.5 266q0 152 -68.5 277t-191.5 198 t-276 73q-182 0 -346 -93.5t-264 -254t-100 -343.5q0 -152 68.5 -277t191.5 -197.5t276 -72.5zM839 1013q128 0 190.5 -55.5t62.5 -141.5q0 -93 -62 -162.5t-184 -86.5l169 -323q2 -8 -5 -8h-14q-3 0 -5 4l-169 325q-15 -2 -46 -2h-226l-46 -324q0 -3 -4 -3h-15q-5 0 -3 3 l108 770q0 4 4 4h15h230zM776 582q149 0 221.5 67t72.5 165q0 79 -57.5 129t-178.5 50h-224l-58 -411h224z" />
<glyph unicode="&#xaf;" horiz-adv-x="501" d="M1 1080q0 6 7 6h489q6 0 6 -6l-2 -17q-2 -6 -8 -6h-489q-7 0 -5 6z" />
<glyph unicode="&#xb0;" horiz-adv-x="457" d="M296 890q-71 0 -117.5 47.5t-46.5 117.5q0 85 66 148t151 63q71 0 117.5 -48.5t46.5 -119.5q0 -85 -65.5 -146.5t-151.5 -61.5zM300 918q74 0 128.5 53t54.5 125q0 61 -38.5 101.5t-99.5 40.5q-74 0 -129 -53t-55 -127q0 -59 39 -99.5t100 -40.5z" />
<glyph unicode="&#xb1;" horiz-adv-x="1044" d="M937 557q8 0 6 -7l-3 -16q0 -7 -7 -7h-380l-53 -380q-2 -6 -7 -6h-17q-6 0 -5 6l53 380h-380q-6 0 -6 7l3 16q2 7 7 7h380l53 379q2 7 8 7h17q7 0 5 -7l-53 -379h379zM863 30q7 0 5 -6l-2 -18q0 -6 -7 -6h-789q-6 0 -6 6l3 18q2 6 7 6h789z" />
<glyph unicode="&#xb4;" horiz-adv-x="369" d="M22 957q-4 -4 -9 1l-8 11q-2 4 3 9l315 237q6 5 9 0l8 -15q4 -4 -2 -9z" />
<glyph unicode="&#xb6;" horiz-adv-x="1072" d="M1057 1249q5 0 5 -6l-203 -1446q-2 -6 -7 -6h-14q-7 0 -5 6l200 1428h-439l-200 -1428q-2 -6 -7 -6h-14q-7 0 -5 6l96 684q-141 2 -234.5 100.5t-93.5 239.5q0 114 62 213t164 157t216 58h465h14z" />
<glyph unicode="&#xb7;" horiz-adv-x="321" d="M158 394q-14 0 -24 10.5t-10 24.5q0 17 13.5 29.5t30.5 12.5q14 0 24 -10t10 -24q0 -17 -13.5 -30t-30.5 -13z" />
<glyph unicode="&#xb8;" horiz-adv-x="448" d="M163 -413q-87 0 -159 43q-4 4 -1 9l6 10q4 6 10 3q75 -40 147 -40q64 0 104.5 37t40.5 96q0 68 -63.5 89.5t-163.5 -9.5q-11 -3 -5 9l86 173h28l-75 -152q91 26 157.5 -2t66.5 -105q0 -71 -51.5 -116t-127.5 -45z" />
<glyph unicode="&#xbb;" horiz-adv-x="904" d="M467 416q0 -2 -3 -4l-366 -252q-5 -3 -8.5 -1.5t-2.5 5.5l1 14q0 2 4 5l350 242l-282 242q-2 2 -2 5l2 14q1 4 5 5.5t8 -1.5l295 -252q2 -2 2 -4zM783 438q2 -2 2 -4l-1 -9l-1 -9q0 -2 -3 -4l-366 -252q-5 -3 -9 -1.5t-3 5.5l2 14q0 2 3 5l351 242l-282 242q-2 2 -2 5 l2 14q2 12 12 4z" />
<glyph unicode="&#xbc;" horiz-adv-x="1790" d="M479 1227q5 0 3 -4l-114 -813q0 -4 -5 -4h-15q-4 0 -4 4l112 793l-189 -92q-3 -1 -5 2l-4 11q-1 3 3 5l198 97q1 1 8 1h12zM1235 1207q4 6 9 3l10 -5q6 -4 3 -8l-823 -1357q-4 -7 -10 -3l-10 5q-5 3 -2 8zM1681 237q5 0 3 -4l-1 -12q-2 -4 -5 -4h-146l-30 -213 q-2 -4 -4 -4h-16q-5 0 -3 4l29 213h-453q-5 0 -3 4l1 10q0 1 2 3l539 585q1 2 8 2h10q4 0 4 -4l-81 -580h146zM1085 237h426l77 546z" />
<glyph unicode="&#xbd;" horiz-adv-x="1825" d="M479 1227q5 0 3 -4l-114 -813q0 -4 -5 -4h-15q-4 0 -4 4l112 793l-189 -92q-3 -1 -5 2l-4 11q-1 3 3 5l198 97q1 1 8 1h12zM1254 1205q6 -4 3 -8l-823 -1357q-4 -7 -10 -3l-10 5q-5 3 -2 8l823 1357q4 6 9 3zM1716 613q-17 -123 -149 -260t-407 -336h500q5 0 3 -4l-1 -12 q-2 -5 -5 -5h-536q-5 0 -3 5l1 6q0 5 2 6q281 201 417.5 341.5t153.5 257.5q12 89 -33 140.5t-149 51.5q-137 0 -263 -124q-3 -3 -7 1l-6 8q-2 2 3 7q131 129 280 129q112 0 162.5 -58t36.5 -154z" />
<glyph unicode="&#xbe;" horiz-adv-x="1916" d="M479 830q106 -12 158.5 -60.5t52.5 -126.5q0 -114 -83 -179t-220 -65q-173 0 -267 128q-4 5 -1 8l8 8q5 5 8 1q90 -125 252 -125q128 0 203.5 58.5t75.5 163.5q0 178 -277 179q-5 0 -3 4l1 9q0 4 5 4q143 1 223.5 65t80.5 162q0 150 -188 150q-142 0 -261 -117 q-4 -4 -8 1l-6 8q-1 2 4 7q124 122 279 122q101 0 152 -44.5t51 -123.5q0 -90 -62.5 -153.5t-177.5 -83.5zM1341 1207q4 6 9 3l11 -5q5 -3 2 -8l-823 -1357q-4 -6 -9 -3l-11 5q-5 3 -2 8zM1787 237q5 0 3 -4l-1 -12q-2 -4 -5 -4h-146l-29 -213q-2 -4 -5 -4h-16q-5 0 -3 4 l30 213h-453q-5 0 -3 4l1 10q0 2 1 3l539 585q1 2 8 2h11q4 0 4 -4l-82 -580h146zM1191 237h427l76 546z" />
<glyph unicode="&#xbf;" horiz-adv-x="781" d="M464 837q14 0 24 -10.5t10 -24.5q0 -17 -13.5 -29.5t-30.5 -12.5q-14 0 -24 10.5t-10 24.5q0 17 13.5 29.5t30.5 12.5zM-3 -174q0 -109 68 -169t199 -60q193 0 361 144q7 6 11 -1l9 -13q3 -6 -5 -12q-90 -72 -181.5 -111t-205.5 -39q-140 0 -216 69t-76 190 q0 69 20.5 126t54.5 99t75.5 80.5t87.5 78.5t87 83t76 105.5t53 135.5q1 6 7 6h19q6 0 4 -6q-17 -74 -51.5 -137.5t-75 -108.5t-85.5 -86t-86.5 -79t-75.5 -79.5t-54 -96t-20 -119.5z" />
<glyph unicode="&#xc0;" horiz-adv-x="1221" d="M529 1615q-5 5 0 9l13 14q5 5 9 1l248 -237q4 -5 0 -9l-11 -12q-4 -5 -8 -1zM1124 7q2 -7 -6 -7h-26q-7 0 -8 6l-134 462h-656l-269 -462q-4 -6 -10 -6h-27q-10 0 -5 7l738 1257q4 6 9 6h13q6 0 8 -6zM311 498h630l-210 721z" />
<glyph unicode="&#xc1;" horiz-adv-x="1221" d="M720 1381l-8 12q-2 4 3 9l315 237q6 4 9 -1l9 -14q4 -4 -3 -9l-316 -235q-4 -4 -9 1zM1124 7q2 -7 -6 -7h-26q-7 0 -8 6l-134 462h-656l-269 -462q-4 -6 -10 -6h-27q-10 0 -5 7l738 1257q4 6 9 6h13q6 0 8 -6zM311 498h630l-210 721z" />
<glyph unicode="&#xc2;" horiz-adv-x="1221" d="M516 1372q-9 0 -2 7l253 241q4 4 11 4h15q7 0 10 -4l185 -241q5 -7 -4 -7h-21q-8 0 -11 4l-170 222l-233 -222q-4 -4 -9 -4h-24zM1124 7q2 -7 -6 -7h-26q-7 0 -8 6l-134 462h-656l-269 -462q-4 -6 -10 -6h-27q-10 0 -5 7l738 1257q4 6 9 6h13q6 0 8 -6zM311 498h630 l-210 721z" />
<glyph unicode="&#xc3;" horiz-adv-x="1221" d="M495 1400q-7 0 -5 6q2 85 49.5 134.5t119.5 49.5q42 0 72.5 -25.5t46 -55.5t43 -55.5t63.5 -25.5q108 0 141 155q2 7 7 7h12q6 0 5 -9q-2 -84 -50.5 -132.5t-118.5 -48.5q-34 0 -60 16.5t-42.5 40t-32 47.5t-38 40.5t-52.5 16.5q-108 0 -141 -155q-2 -6 -7 -6h-12z M1124 7q2 -7 -6 -7h-26q-7 0 -8 6l-134 462h-656l-269 -462q-4 -6 -10 -6h-27q-10 0 -5 7l738 1257q4 6 9 6h13q6 0 8 -6zM311 498h630l-210 721z" />
<glyph unicode="&#xc4;" horiz-adv-x="1221" d="M598 1461q-13 0 -23 10t-10 24q0 16 13.5 29t30.5 13q13 0 23 -10t10 -24q0 -16 -13.5 -29t-30.5 -13zM931 1461q-13 0 -23 10t-10 24q0 16 13.5 29t30.5 13q13 0 22.5 -10t9.5 -24q0 -17 -13 -29.5t-30 -12.5zM1124 7q2 -7 -6 -7h-26q-7 0 -8 6l-134 462h-656l-269 -462 q-4 -6 -10 -6h-27q-10 0 -5 7l738 1257q4 6 9 6h13q6 0 8 -6zM311 498h630l-210 721z" />
<glyph unicode="&#xc5;" horiz-adv-x="1221" d="M1124 7q2 -7 -6 -7h-26q-7 0 -8 6l-134 462h-656l-269 -462q-4 -6 -10 -6h-27q-10 0 -5 7l734 1250q-61 9 -100 54.5t-39 108.5q0 85 65.5 147.5t151.5 62.5q71 0 117.5 -48.5t46.5 -118.5q0 -81 -61.5 -142t-143.5 -66zM603 1422q0 -61 40 -103t102 -42q76 0 132.5 55 t56.5 130q0 62 -40 104t-102 42q-77 0 -133 -55t-56 -131zM311 498h630l-210 721z" />
<glyph unicode="&#xc6;" horiz-adv-x="1736" d="M1720 1249q6 0 6 -6l-3 -19q-1 -6 -7 -6h-770l-77 -547h688q8 0 6 -6l-3 -19q-2 -7 -7 -7h-688l-86 -608h791q6 0 5 -6l-2 -19q-2 -6 -8 -6h-804h-16q-7 0 -5 6l65 462h-439l-342 -463q-4 -5 -9 -5h-26q-11 0 -6 8l917 1237q3 4 9 4h10h2h23h776zM389 498h420l99 703z " />
<glyph unicode="&#xc7;" horiz-adv-x="1326" d="M1298 936q2 -6 -4 -9l-19 -8q-6 -3 -8 3q-110 307 -430 307q-127 0 -246.5 -50.5t-212 -138.5t-148.5 -218t-56 -280q0 -233 140 -377.5t353 -144.5q317 0 516 308q5 8 10 3l16 -8q5 -5 2 -10q-205 -319 -540 -324l-67 -134q91 26 157.5 -2t66.5 -105q0 -71 -51 -116 t-127 -45q-88 0 -160 43q-4 4 -1 9l7 10q3 6 9 3q75 -40 148 -40q64 0 104 37t40 96q0 68 -63.5 89.5t-163.5 -9.5q-6 -1 -6.5 1t2.5 8l77 155q-220 7 -363 156.5t-143 391.5q0 128 38.5 243t105.5 201.5t156 150t192.5 96.5t211.5 33q338 0 457 -325z" />
<glyph unicode="&#xc8;" horiz-adv-x="1065" d="M457 1615q-5 5 0 9l13 14q5 5 9 1l248 -237q4 -5 0 -9l-11 -12q-4 -5 -8 -1zM1050 1249q6 0 6 -6l-3 -19q-1 -6 -7 -6h-771l-76 -547h688q7 0 5 -6l-2 -19q-2 -7 -7 -7h-688l-86 -608h791q6 0 5 -6l-2 -19q-2 -6 -8 -6h-804h-16q-7 0 -5 6l173 1237q0 6 7 6h23h777z" />
<glyph unicode="&#xc9;" horiz-adv-x="1065" d="M648 1381l-8 12q-2 4 3 9l314 237q6 5 10 -1l8 -14q4 -4 -2 -9l-317 -235q-4 -4 -8 1zM1050 1249q6 0 6 -6l-3 -19q-1 -6 -7 -6h-771l-76 -547h688q7 0 5 -6l-2 -19q-2 -7 -7 -7h-688l-86 -608h791q6 0 5 -6l-2 -19q-2 -6 -8 -6h-804h-16q-7 0 -5 6l173 1237q0 6 7 6h23 h777z" />
<glyph unicode="&#xca;" horiz-adv-x="1065" d="M444 1372q-9 0 -2 7l253 241q4 4 11 4h15q7 0 10 -4l185 -241q5 -7 -4 -7h-22q-7 0 -10 4l-170 222l-233 -222q-4 -4 -10 -4h-23zM1050 1249q6 0 6 -6l-3 -19q-1 -6 -7 -6h-771l-76 -547h688q7 0 5 -6l-2 -19q-2 -7 -7 -7h-688l-86 -608h791q6 0 5 -6l-2 -19q-2 -6 -8 -6 h-804h-16q-7 0 -5 6l173 1237q0 6 7 6h23h777z" />
<glyph unicode="&#xcb;" horiz-adv-x="1065" d="M526 1461q-13 0 -23 10t-10 24q0 16 13.5 29t30.5 13q13 0 22.5 -10t9.5 -24q0 -16 -13 -29t-30 -13zM859 1461q-13 0 -23 10t-10 24q0 17 13 29.5t30 12.5q13 0 23 -10t10 -24q0 -17 -13 -29.5t-30 -12.5zM1050 1249q6 0 6 -6l-3 -19q-1 -6 -7 -6h-771l-76 -547h688 q7 0 5 -6l-2 -19q-2 -7 -7 -7h-688l-86 -608h791q6 0 5 -6l-2 -19q-2 -6 -8 -6h-804h-16q-7 0 -5 6l173 1237q0 6 7 6h23h777z" />
<glyph unicode="&#xcc;" horiz-adv-x="289" d="M307 1380l-251 235q-4 5 0 9l13 14q5 6 10 1l248 -237q4 -5 0 -9l-11 -12q-5 -5 -9 -1zM243 1243q0 6 7 6h23q6 0 6 -6l-174 -1237q-2 -6 -7 -6h-23q-7 0 -5 6z" />
<glyph unicode="&#xcd;" horiz-adv-x="289" d="M256 1380q-4 -4 -9 1l-7 12q-3 4 2 9l315 237q6 4 9 -1l9 -14q4 -4 -3 -9zM243 1243q0 6 7 6h23q6 0 6 -6l-174 -1237q-2 -6 -7 -6h-23q-7 0 -5 6z" />
<glyph unicode="&#xce;" horiz-adv-x="289" d="M480 1376l-171 222l-233 -222q-4 -4 -9 -4h-23q-10 0 -3 7l253 241q4 4 11 4h16q7 0 10 -4l185 -241q5 -7 -5 -7h-21q-7 0 -10 4zM243 1243q0 6 7 6h23q6 0 6 -6l-174 -1237q-2 -6 -7 -6h-23q-7 0 -5 6z" />
<glyph unicode="&#xcf;" horiz-adv-x="289" d="M125 1461q-13 0 -22.5 10t-9.5 24q0 17 13 29.5t30 12.5q13 0 23 -10t10 -24q0 -16 -13.5 -29t-30.5 -13zM458 1461q-13 0 -23 10t-10 24q0 16 13.5 29t30.5 13q13 0 23 -10t10 -24q0 -16 -13.5 -29t-30.5 -13zM243 1243q0 6 7 6h23q6 0 6 -6l-174 -1237q-2 -6 -7 -6h-23 q-7 0 -5 6z" />
<glyph unicode="&#xd0;" horiz-adv-x="1258" d="M635 1249q242 0 394 -142.5t152 -391.5q0 -164 -58.5 -301t-158 -226.5t-230 -138.5t-275.5 -49h-371h-13q-7 0 -5 6l85 604h-163q-6 0 -5 6l2 17q0 7 7 7h163l84 603q0 6 7 6h23h362zM462 31q137 0 260.5 47t217 132.5t149 215t55.5 284.5q0 236 -143.5 372t-371.5 136 h-354l-80 -578h338q6 0 6 -7l-2 -17q-1 -6 -8 -6h-339l-81 -579h353z" />
<glyph unicode="&#xd1;" horiz-adv-x="1270" d="M534 1400q-8 0 -6 6q2 85 50 134.5t120 49.5q34 0 60 -16.5t42 -40.5t31.5 -48t38 -40.5t52.5 -16.5q108 0 141 155q2 7 8 7h11q6 0 5 -9q-2 -84 -50.5 -132.5t-118.5 -48.5q-34 0 -60 16.5t-42.5 40t-32 47.5t-38 40.5t-52.5 16.5q-108 0 -141 -155q-2 -6 -7 -6h-11z M1255 1249q6 0 6 -6l-177 -1257q-2 -6 -7 -6h-3q-7 0 -10 4l-792 1209l-167 -1187q-2 -6 -7 -6h-23q-7 0 -5 6l176 1258q0 6 7 6h3q5 0 9 -5l793 -1209l167 1187q0 6 7 6h23z" />
<glyph unicode="&#xd2;" d="M885 1380l-251 235q-4 5 0 9l13 14q5 5 9 1l248 -237q4 -5 0 -9l-11 -12q-5 -5 -8 -1zM841 1261q148 0 267 -66.5t189 -192.5t70 -290q0 -128 -38.5 -243t-105.5 -201.5t-156 -150t-192.5 -96t-211.5 -32.5q-111 0 -207 39t-167 109t-111.5 173.5t-40.5 226.5 q0 128 38.5 243t105.5 201.5t156 150t192.5 96.5t211.5 33zM667 20q127 0 246.5 50.5t212 138.5t148.5 218.5t56 280.5q0 233 -140 377t-353 144q-127 0 -246.5 -50.5t-212 -138.5t-148.5 -218t-56 -280q0 -233 140 -377.5t353 -144.5z" />
<glyph unicode="&#xd3;" d="M834 1380q-4 -4 -9 1l-8 12q-2 4 3 9l315 237q6 4 9 -1l9 -14q4 -4 -3 -9zM841 1261q148 0 267 -66.5t189 -192.5t70 -290q0 -128 -38.5 -243t-105.5 -201.5t-156 -150t-192.5 -96t-211.5 -32.5q-111 0 -207 39t-167 109t-111.5 173.5t-40.5 226.5q0 128 38.5 243 t105.5 201.5t156 150t192.5 96.5t211.5 33zM667 20q127 0 246.5 50.5t212 138.5t148.5 218.5t56 280.5q0 233 -140 377t-353 144q-127 0 -246.5 -50.5t-212 -138.5t-148.5 -218t-56 -280q0 -233 140 -377.5t353 -144.5z" />
<glyph unicode="&#xd4;" d="M1057 1376l-170 222l-233 -222q-4 -4 -9 -4h-24q-9 0 -2 7l253 241q4 4 11 4h15q7 0 10 -4l185 -241q5 -7 -4 -7h-21q-8 0 -11 4zM841 1261q148 0 267 -66.5t189 -192.5t70 -290q0 -128 -38.5 -243t-105.5 -201.5t-156 -150t-192.5 -96t-211.5 -32.5q-111 0 -207 39 t-167 109t-111.5 173.5t-40.5 226.5q0 128 38.5 243t105.5 201.5t156 150t192.5 96.5t211.5 33zM667 20q127 0 246.5 50.5t212 138.5t148.5 218.5t56 280.5q0 233 -140 377t-353 144q-127 0 -246.5 -50.5t-212 -138.5t-148.5 -218t-56 -280q0 -233 140 -377.5t353 -144.5z " />
<glyph unicode="&#xd5;" d="M600 1400q-7 0 -5 6q2 85 49.5 134.5t119.5 49.5q42 0 72.5 -25.5t46 -55.5t43 -55.5t63.5 -25.5q107 0 140 155q2 7 8 7h12q7 0 5 -9q-2 -84 -50.5 -132.5t-118.5 -48.5q-34 0 -60 16.5t-42.5 40t-32 47.5t-38 40.5t-52.5 16.5q-108 0 -141 -155q-1 -6 -7 -6h-12z M841 1261q148 0 267 -66.5t189 -192.5t70 -290q0 -128 -38.5 -243t-105.5 -201.5t-156 -150t-192.5 -96t-211.5 -32.5q-111 0 -207 39t-167 109t-111.5 173.5t-40.5 226.5q0 128 38.5 243t105.5 201.5t156 150t192.5 96.5t211.5 33zM667 20q127 0 246.5 50.5t212 138.5 t148.5 218.5t56 280.5q0 233 -140 377t-353 144q-127 0 -246.5 -50.5t-212 -138.5t-148.5 -218t-56 -280q0 -233 140 -377.5t353 -144.5z" />
<glyph unicode="&#xd6;" d="M703 1461q-13 0 -23 10t-10 24q0 16 13.5 29t30.5 13q13 0 22.5 -10t9.5 -24q0 -16 -13 -29t-30 -13zM1036 1461q-13 0 -23 10t-10 24q0 16 13.5 29t30.5 13q13 0 22.5 -10t9.5 -24q0 -17 -13 -29.5t-30 -12.5zM841 1261q148 0 267 -66.5t189 -192.5t70 -290 q0 -128 -38.5 -243t-105.5 -201.5t-156 -150t-192.5 -96t-211.5 -32.5q-111 0 -207 39t-167 109t-111.5 173.5t-40.5 226.5q0 128 38.5 243t105.5 201.5t156 150t192.5 96.5t211.5 33zM667 20q127 0 246.5 50.5t212 138.5t148.5 218.5t56 280.5q0 233 -140 377t-353 144 q-127 0 -246.5 -50.5t-212 -138.5t-148.5 -218t-56 -280q0 -233 140 -377.5t353 -144.5z" />
<glyph unicode="&#xd7;" horiz-adv-x="969" d="M910 860q4 -4 -2 -9l-388 -341l293 -341q4 -5 -2 -9l-13 -12q-6 -4 -10 0l-292 341l-389 -341q-5 -4 -9 0l-10 12q-2 1 -1.5 4.5t2.5 4.5l388 341l-293 341q-2 1 -1 4.5t3 4.5l14 12q6 4 8 0l293 -341l389 341q4 4 9 0z" />
<glyph unicode="&#xd8;" d="M1379 1170q3 -4 -1 -8l-117 -103q106 -142 106 -347q0 -128 -38.5 -243t-105.5 -201.5t-156 -150t-192.5 -96t-211.5 -32.5q-125 0 -231.5 49t-177.5 138l-132 -116q-4 -4 -9 0l-11 13q-2 5 2 9l133 117q-100 141 -100 338q0 128 38.5 243t105.5 201.5t156 150 t192.5 96.5t211.5 33q123 0 227 -46.5t176 -133.5l116 102q5 4 9 0zM174 542q0 -185 92 -318l949 832q-67 83 -164.5 128t-213.5 45q-127 0 -246.5 -50.5t-212 -138.5t-148.5 -218t-56 -280zM1330 708q0 188 -98 326l-949 -833q67 -87 166.5 -134t217.5 -47 q127 0 246.5 50.5t212 138.5t148.5 218.5t56 280.5z" />
<glyph unicode="&#xd9;" horiz-adv-x="1229" d="M777 1380l-251 235q-4 5 0 9l13 14q5 6 10 1l248 -237q4 -5 0 -9l-11 -12q-5 -5 -9 -1zM1214 1249q6 0 6 -6l-103 -729q-36 -255 -184 -394.5t-380 -139.5t-340 139.5t-72 394.5l102 729q0 6 7 6h23q6 0 6 -6l-102 -726q-34 -243 64 -374.5t317 -131.5t354 131.5 t170 374.5l102 726q0 6 7 6h23z" />
<glyph unicode="&#xda;" horiz-adv-x="1229" d="M726 1380q-4 -4 -9 1l-7 12q-3 4 2 9l315 237q6 4 9 -1l9 -14q4 -4 -3 -9zM1214 1249q6 0 6 -6l-103 -729q-36 -255 -184 -394.5t-380 -139.5t-340 139.5t-72 394.5l102 729q0 6 7 6h23q6 0 6 -6l-102 -726q-34 -243 64 -374.5t317 -131.5t354 131.5t170 374.5l102 726 q0 6 7 6h23z" />
<glyph unicode="&#xdb;" horiz-adv-x="1229" d="M950 1376l-171 222l-233 -222q-4 -4 -9 -4h-23q-10 0 -3 7l253 241q4 4 11 4h16q7 0 10 -4l185 -241q5 -7 -4 -7h-22q-7 0 -10 4zM1214 1249q6 0 6 -6l-103 -729q-36 -255 -184 -394.5t-380 -139.5t-340 139.5t-72 394.5l102 729q0 6 7 6h23q6 0 6 -6l-102 -726 q-34 -243 64 -374.5t317 -131.5t354 131.5t170 374.5l102 726q0 6 7 6h23z" />
<glyph unicode="&#xdc;" horiz-adv-x="1229" d="M595 1461q-13 0 -22.5 10t-9.5 24q0 17 13 29.5t30 12.5q13 0 23 -10t10 -24q0 -16 -13.5 -29t-30.5 -13zM928 1461q-13 0 -23 10t-10 24q0 16 13.5 29t30.5 13q13 0 23 -10t10 -24q0 -16 -13.5 -29t-30.5 -13zM1214 1249q6 0 6 -6l-103 -729q-36 -255 -184 -394.5 t-380 -139.5t-340 139.5t-72 394.5l102 729q0 6 7 6h23q6 0 6 -6l-102 -726q-34 -243 64 -374.5t317 -131.5t354 131.5t170 374.5l102 726q0 6 7 6h23z" />
<glyph unicode="&#xdd;" horiz-adv-x="1138" d="M677 1381l-8 12q-2 4 3 9l315 237q6 4 9 -1l9 -14q4 -4 -3 -9l-316 -235q-4 -4 -9 1zM1209 1249q10 0 5 -6l-617 -788l-62 -449q-2 -6 -7 -6h-24q-7 0 -5 6l63 450l-405 787q-4 6 6 6h26q5 0 8 -5l387 -756l592 756q4 5 9 5h24z" />
<glyph unicode="&#xde;" horiz-adv-x="1078" d="M630 1006q106 0 186 -26.5t127 -72.5t70 -103t23 -124q0 -64 -18.5 -123.5t-58.5 -113.5t-98.5 -94t-144.5 -63.5t-190 -23.5h-384l-36 -256q0 -6 -7 -6h-23q-6 0 -6 6l174 1237q2 6 7 6h23q8 0 6 -6l-34 -237h384zM527 293q123 0 217 33t148 89.5t80.5 122.5t26.5 140 q0 61 -20.5 112.5t-63.5 94t-117.5 66.5t-174.5 24h-381l-96 -682h381z" />
<glyph unicode="&#xdf;" horiz-adv-x="967" d="M588 647q0 -50 15.5 -86t40.5 -57.5t55.5 -38.5t60.5 -33.5t55 -38t40.5 -57.5t15.5 -86q0 -58 -21 -104.5t-54 -75t-76.5 -47.5t-84.5 -26.5t-81 -7.5q-143 0 -241 93q-5 5 -2 10l10 14q6 6 9 3q107 -90 228 -90q44 0 88.5 10.5t89 34t72.5 70t28 110.5q0 46 -15.5 80 t-41 53.5t-55.5 35.5t-60.5 33t-56 39.5t-41 62t-15.5 92.5q0 57 18 102t44 76t52 62.5t44 79.5t18 110q0 105 -52 164t-153 59q-114 0 -185 -71.5t-87 -182.5l-145 -1033q0 -6 -7 -6h-22q-6 0 -6 6l146 1035q17 124 100.5 203.5t209.5 79.5q114 0 175 -67.5t61 -185.5 q0 -62 -18 -111.5t-43.5 -81.5t-51 -63t-43.5 -73.5t-18 -94.5z" />
<glyph unicode="&#xe0;" horiz-adv-x="1049" d="M366 1191q-4 5 0 9l13 15q5 5 10 0l247 -237q4 -5 0 -9l-10 -11q-5 -5 -9 -1zM978 820l-72 -513q-12 -62 -9 -122.5t9 -91.5t20 -82q1 -7 -5 -10l-13 -6q-6 -3 -9 2q-48 127 -36 251q-60 -117 -172 -188t-244 -71q-154 0 -256.5 102t-102.5 266q0 104 40.5 195t107 152.5 t153 97t177.5 35.5q132 0 223.5 -77t117.5 -202l37 262q2 6 7 6h22q7 0 5 -6zM453 20q178 0 308.5 129.5t130.5 310.5q0 151 -91 248.5t-237 97.5q-85 0 -164.5 -32.5t-140.5 -89.5t-98 -141.5t-37 -182.5q0 -153 93.5 -246.5t235.5 -93.5z" />
<glyph unicode="&#xe1;" horiz-adv-x="1049" d="M557 958l-8 11q-2 4 3 9l315 237q6 5 9 0l9 -15q4 -4 -3 -9l-316 -234q-4 -4 -9 1zM978 820l-72 -513q-12 -62 -9 -122.5t9 -91.5t20 -82q1 -7 -5 -10l-13 -6q-6 -3 -9 2q-48 127 -36 251q-60 -117 -172 -188t-244 -71q-154 0 -256.5 102t-102.5 266q0 104 40.5 195 t107 152.5t153 97t177.5 35.5q132 0 223.5 -77t117.5 -202l37 262q2 6 7 6h22q7 0 5 -6zM453 20q178 0 308.5 129.5t130.5 310.5q0 151 -91 248.5t-237 97.5q-85 0 -164.5 -32.5t-140.5 -89.5t-98 -141.5t-37 -182.5q0 -153 93.5 -246.5t235.5 -93.5z" />
<glyph unicode="&#xe2;" horiz-adv-x="1049" d="M353 949q-9 0 -2 7l253 241q3 3 11 3h15q9 0 11 -3l184 -241q5 -7 -4 -7h-21q-8 0 -10 3l-171 223l-233 -223q-3 -3 -9 -3h-24zM978 820l-72 -513q-12 -62 -9 -122.5t9 -91.5t20 -82q1 -7 -5 -10l-13 -6q-6 -3 -9 2q-48 127 -36 251q-60 -117 -172 -188t-244 -71 q-154 0 -256.5 102t-102.5 266q0 104 40.5 195t107 152.5t153 97t177.5 35.5q132 0 223.5 -77t117.5 -202l37 262q2 6 7 6h22q7 0 5 -6zM453 20q178 0 308.5 129.5t130.5 310.5q0 151 -91 248.5t-237 97.5q-85 0 -164.5 -32.5t-140.5 -89.5t-98 -141.5t-37 -182.5 q0 -153 93.5 -246.5t235.5 -93.5z" />
<glyph unicode="&#xe3;" horiz-adv-x="1049" d="M332 976q-7 0 -5 7q2 85 50 134t120 49q34 0 60 -16.5t42 -40t31.5 -47.5t38 -40.5t52.5 -16.5q108 0 141 155q2 6 7 6h12q7 0 5 -9q-2 -84 -50.5 -132.5t-118.5 -48.5q-42 0 -72.5 25.5t-46 55.5t-43 55.5t-63.5 25.5q-108 0 -141 -155q-2 -7 -7 -7h-12zM978 820 l-72 -513q-12 -62 -9 -122.5t9 -91.5t20 -82q1 -7 -5 -10l-13 -6q-6 -3 -9 2q-48 127 -36 251q-60 -117 -172 -188t-244 -71q-154 0 -256.5 102t-102.5 266q0 104 40.5 195t107 152.5t153 97t177.5 35.5q132 0 223.5 -77t117.5 -202l37 262q2 6 7 6h22q7 0 5 -6zM453 20 q178 0 308.5 129.5t130.5 310.5q0 151 -91 248.5t-237 97.5q-85 0 -164.5 -32.5t-140.5 -89.5t-98 -141.5t-37 -182.5q0 -153 93.5 -246.5t235.5 -93.5z" />
<glyph unicode="&#xe4;" horiz-adv-x="1049" d="M435 1038q-13 0 -23 10t-10 24q0 16 13.5 29t30.5 13q13 0 23 -10.5t10 -24.5q0 -16 -13.5 -28.5t-30.5 -12.5zM768 1038q-13 0 -23 10t-10 24q0 16 13.5 29t30.5 13q13 0 23 -10.5t10 -24.5q0 -16 -13.5 -28.5t-30.5 -12.5zM978 820l-72 -513q-12 -62 -9 -122.5t9 -91.5 t20 -82q1 -7 -5 -10l-13 -6q-6 -3 -9 2q-48 127 -36 251q-60 -117 -172 -188t-244 -71q-154 0 -256.5 102t-102.5 266q0 104 40.5 195t107 152.5t153 97t177.5 35.5q132 0 223.5 -77t117.5 -202l37 262q2 6 7 6h22q7 0 5 -6zM453 20q178 0 308.5 129.5t130.5 310.5 q0 151 -91 248.5t-237 97.5q-85 0 -164.5 -32.5t-140.5 -89.5t-98 -141.5t-37 -182.5q0 -153 93.5 -246.5t235.5 -93.5z" />
<glyph unicode="&#xe5;" horiz-adv-x="1049" d="M585 916q-71 0 -118 48t-47 118q0 85 65.5 147.5t151.5 62.5q71 0 117.5 -48.5t46.5 -119.5q0 -85 -65 -146.5t-151 -61.5zM634 1269q-77 0 -133 -55t-56 -131q0 -61 40.5 -102.5t102.5 -41.5q76 0 132.5 54.5t56.5 129.5q0 62 -40.5 104t-102.5 42zM978 820l-72 -513 q-12 -62 -9 -122.5t9 -91.5t20 -82q1 -7 -5 -10l-13 -6q-6 -3 -9 2q-48 127 -36 251q-60 -117 -172 -188t-244 -71q-154 0 -256.5 102t-102.5 266q0 104 40.5 195t107 152.5t153 97t177.5 35.5q132 0 223.5 -77t117.5 -202l37 262q2 6 7 6h22q7 0 5 -6zM453 20 q178 0 308.5 129.5t130.5 310.5q0 151 -91 248.5t-237 97.5q-85 0 -164.5 -32.5t-140.5 -89.5t-98 -141.5t-37 -182.5q0 -153 93.5 -246.5t235.5 -93.5z" />
<glyph unicode="&#xe6;" horiz-adv-x="1569" d="M1474 446h-738q-7 -39 -7 -86q0 -153 93.5 -246.5t235.5 -93.5q221 0 344 211q3 6 10 3l16 -8q6 -3 2 -9q-132 -228 -377 -228q-138 0 -235.5 81.5t-119.5 217.5q-39 -121 -156.5 -210t-251.5 -89q-105 0 -166.5 58.5t-61.5 148.5q0 104 75.5 179.5t216.5 101.5t344 -26 l12 81q11 61 6 111.5t-25 86.5t-66.5 56t-119.5 20q-78 0 -143 -21t-157 -67q-6 -3 -9 4l-5 16q-2 5 5 9q95 47 164.5 68.5t151.5 21.5q140 0 191.5 -65t42.5 -187q60 116 172.5 184t243.5 68q164 0 250.5 -106.5t61.5 -284.5zM1158 806q-147 0 -263.5 -91t-152.5 -240h698 q14 151 -63 241t-219 90zM299 19q142 0 254.5 101t129.5 221l11 82q-193 51 -325.5 29t-201.5 -90t-69 -165q0 -79 54 -128.5t147 -49.5z" />
<glyph unicode="&#xe7;" horiz-adv-x="963" d="M894 608q1 -6 -5 -9l-19 -8q-6 -3 -8 3q-30 103 -102 157.5t-182 54.5q-181 0 -312.5 -126t-131.5 -321q0 -153 93.5 -246t239.5 -93q218 0 343 212q4 6 10 3l17 -8q6 -3 2 -9q-132 -229 -378 -229h-9l-66 -134q91 26 157.5 -2t66.5 -105q0 -71 -51.5 -116t-127.5 -45 q-87 0 -159 43q-5 5 -2 9l7 10q4 6 10 3q75 -40 147 -40q64 0 104.5 37t40.5 96q0 68 -63.5 89.5t-163.5 -9.5q-11 -3 -5 9l78 156q-145 11 -236 111t-91 255q0 139 68 250.5t178 171t236 59.5q124 0 203 -60t111 -169z" />
<glyph unicode="&#xe8;" horiz-adv-x="974" d="M337 1191q-5 5 0 9l13 15q4 5 9 0l248 -237q4 -5 0 -9l-11 -11q-4 -4 -8 -1zM879 446h-738q-7 -39 -7 -86q0 -153 93.5 -246.5t235.5 -93.5q221 0 344 211q3 6 10 3l17 -8q6 -3 2 -9q-132 -228 -378 -228q-156 0 -258 101.5t-102 266.5q0 138 66 249.5t173 171t231 59.5 q164 0 250 -106.5t61 -284.5zM564 806q-147 0 -264 -91t-153 -240h698q14 151 -62.5 241t-218.5 90z" />
<glyph unicode="&#xe9;" horiz-adv-x="974" d="M528 958l-8 11q-2 4 3 9l315 237q6 5 9 0l9 -15q4 -4 -3 -9l-316 -234q-4 -4 -9 1zM879 446h-738q-7 -39 -7 -86q0 -153 93.5 -246.5t235.5 -93.5q221 0 344 211q3 6 10 3l17 -8q6 -3 2 -9q-132 -228 -378 -228q-156 0 -258 101.5t-102 266.5q0 138 66 249.5t173 171 t231 59.5q164 0 250 -106.5t61 -284.5zM564 806q-147 0 -264 -91t-153 -240h698q14 151 -62.5 241t-218.5 90z" />
<glyph unicode="&#xea;" horiz-adv-x="974" d="M324 949q-9 0 -2 7l253 241q3 3 11 3h15q8 0 10 -3l185 -241q5 -7 -4 -7h-21q-9 0 -11 3l-170 223l-233 -223q-3 -3 -9 -3h-24zM879 446h-738q-7 -39 -7 -86q0 -153 93.5 -246.5t235.5 -93.5q221 0 344 211q3 6 10 3l17 -8q6 -3 2 -9q-132 -228 -378 -228 q-156 0 -258 101.5t-102 266.5q0 138 66 249.5t173 171t231 59.5q164 0 250 -106.5t61 -284.5zM564 806q-147 0 -264 -91t-153 -240h698q14 151 -62.5 241t-218.5 90z" />
<glyph unicode="&#xeb;" horiz-adv-x="974" d="M406 1038q-13 0 -23 10t-10 24q0 16 13.5 29t30.5 13q13 0 23 -10.5t10 -24.5q0 -16 -13.5 -28.5t-30.5 -12.5zM739 1038q-13 0 -23 10t-10 24q0 16 13.5 29t30.5 13q13 0 22.5 -10.5t9.5 -24.5q0 -16 -13 -28.5t-30 -12.5zM879 446h-738q-7 -39 -7 -86 q0 -153 93.5 -246.5t235.5 -93.5q221 0 344 211q3 6 10 3l17 -8q6 -3 2 -9q-132 -228 -378 -228q-156 0 -258 101.5t-102 266.5q0 138 66 249.5t173 171t231 59.5q164 0 250 -106.5t61 -284.5zM564 806q-147 0 -264 -91t-153 -240h698q14 151 -62.5 241t-218.5 90z" />
<glyph unicode="&#xec;" horiz-adv-x="288" d="M248 957l-251 234q-5 5 0 9l13 15q4 5 9 0l248 -237q4 -5 0 -9l-10 -11q-5 -5 -9 -1zM184 820q0 6 7 6h23q6 0 5 -6l-115 -814q0 -6 -6 -6h-23q-5 0 -5 6z" />
<glyph unicode="&#xed;" horiz-adv-x="288" d="M197 957q-4 -4 -9 1l-8 11q-2 4 3 9l315 237q6 5 9 0l9 -15q4 -4 -3 -9zM184 820q0 6 7 6h23q6 0 5 -6l-115 -814q0 -6 -6 -6h-23q-5 0 -5 6z" />
<glyph unicode="&#xee;" horiz-adv-x="288" d="M420 952l-170 223l-233 -223q-3 -3 -9 -3h-24q-9 0 -2 7l253 241q3 3 11 3h15q8 0 10 -3l185 -241q5 -7 -4 -7h-21q-9 0 -11 3zM184 820q0 6 7 6h23q6 0 5 -6l-115 -814q0 -6 -6 -6h-23q-5 0 -5 6z" />
<glyph unicode="&#xef;" horiz-adv-x="288" d="M66 1038q-13 0 -23 10t-10 24q0 16 13.5 29t30.5 13q13 0 23 -10.5t10 -24.5q0 -16 -13.5 -28.5t-30.5 -12.5zM399 1038q-13 0 -23 10t-10 24q0 16 13.5 29t30.5 13q13 0 22.5 -10.5t9.5 -24.5q0 -16 -13 -28.5t-30 -12.5zM184 820q0 6 7 6h23q6 0 5 -6l-115 -814 q0 -6 -6 -6h-23q-5 0 -5 6z" />
<glyph unicode="&#xf0;" horiz-adv-x="1043" d="M649 1234q86 -52 146.5 -133t90.5 -167t43.5 -185t11.5 -179.5t-13 -156.5q-17 -125 -88 -223t-172 -149.5t-213 -51.5q-83 0 -154 30.5t-120 85t-71.5 134t-9.5 172.5q18 124 88 221.5t170.5 149.5t212.5 52q120 0 210 -61.5t124 -168.5q-1 88 -14 169t-42.5 163.5 t-85 153.5t-132.5 119l-124 -172q-4 -7 -8 -3l-10 6q-5 3 -1 9l124 172q-84 47 -184 65q-9 3 -4 11l6 10q5 5 10 4q106 -19 189 -65l107 149q4 6 9 2l10 -6q4 -3 1 -9zM459 20q158 0 283.5 109t149.5 282q24 174 -70.5 282.5t-252.5 108.5t-283.5 -108.5t-149.5 -282.5 t70.5 -282.5t252.5 -108.5z" />
<glyph unicode="&#xf1;" horiz-adv-x="992" d="M885 1166q7 0 5 -9q-2 -84 -50.5 -132.5t-118.5 -48.5q-42 0 -72.5 25.5t-46 55.5t-43 55.5t-63.5 25.5q-108 0 -141 -155q-2 -7 -7 -7h-12q-7 0 -5 7q2 85 50 134t120 49q34 0 60 -16.5t42 -40t31.5 -47.5t38 -40.5t52.5 -16.5q108 0 141 155q2 6 7 6h12zM616 846 q157 0 220.5 -93t40.5 -255l-69 -492q-2 -6 -7 -6h-22q-6 0 -6 6l68 486q22 153 -34 238t-200 85q-156 0 -287.5 -110.5t-151.5 -251.5l-63 -447q0 -6 -7 -6h-22q-6 0 -6 6l114 814q2 6 8 6h22q6 0 5 -6l-34 -239q21 41 59 85t92.5 85.5t128 68t151.5 26.5z" />
<glyph unicode="&#xf2;" horiz-adv-x="1037" d="M622 957l-251 234q-5 5 0 9l12 15q5 5 10 0l248 -237q4 -5 0 -9l-11 -11q-4 -4 -8 -1zM578 837q156 0 258.5 -102t102.5 -267q0 -138 -69 -249.5t-178 -170.5t-233 -59q-156 0 -258.5 101.5t-102.5 266.5q0 104 40.5 195t107.5 152.5t153.5 97t178.5 35.5zM463 20 q83 0 162 32.5t141 89.5t99.5 142t37.5 182q0 153 -93.5 246.5t-235.5 93.5q-112 0 -212 -54.5t-164 -158.5t-64 -233q0 -153 93.5 -246.5t235.5 -93.5z" />
<glyph unicode="&#xf3;" horiz-adv-x="1037" d="M570 957q-4 -3 -8 1l-8 11q-2 4 3 9l314 237q7 5 10 0l8 -15q4 -4 -2 -9zM578 837q156 0 258.5 -102t102.5 -267q0 -138 -69 -249.5t-178 -170.5t-233 -59q-156 0 -258.5 101.5t-102.5 266.5q0 104 40.5 195t107.5 152.5t153.5 97t178.5 35.5zM463 20q83 0 162 32.5 t141 89.5t99.5 142t37.5 182q0 153 -93.5 246.5t-235.5 93.5q-112 0 -212 -54.5t-164 -158.5t-64 -233q0 -153 93.5 -246.5t235.5 -93.5z" />
<glyph unicode="&#xf4;" horiz-adv-x="1037" d="M794 952l-170 223l-233 -223q-3 -3 -10 -3h-23q-9 0 -2 7l253 241q3 3 11 3h15q8 0 10 -3l185 -241q5 -7 -4 -7h-22q-8 0 -10 3zM578 837q156 0 258.5 -102t102.5 -267q0 -138 -69 -249.5t-178 -170.5t-233 -59q-156 0 -258.5 101.5t-102.5 266.5q0 104 40.5 195 t107.5 152.5t153.5 97t178.5 35.5zM463 20q83 0 162 32.5t141 89.5t99.5 142t37.5 182q0 153 -93.5 246.5t-235.5 93.5q-112 0 -212 -54.5t-164 -158.5t-64 -233q0 -153 93.5 -246.5t235.5 -93.5z" />
<glyph unicode="&#xf5;" horiz-adv-x="1037" d="M337 976q-7 0 -5 7q2 85 49.5 134t119.5 49q34 0 60 -16.5t42.5 -40t32 -47.5t38 -40.5t52.5 -16.5q107 0 140 155q2 6 8 6h12q6 0 4 -9q-2 -84 -50.5 -132.5t-118.5 -48.5q-34 0 -60 16.5t-42 40.5t-31.5 48t-38 40.5t-52.5 16.5q-108 0 -141 -155q-2 -7 -7 -7h-12z M578 837q156 0 258.5 -102t102.5 -267q0 -138 -69 -249.5t-178 -170.5t-233 -59q-156 0 -258.5 101.5t-102.5 266.5q0 104 40.5 195t107.5 152.5t153.5 97t178.5 35.5zM463 20q83 0 162 32.5t141 89.5t99.5 142t37.5 182q0 153 -93.5 246.5t-235.5 93.5q-112 0 -212 -54.5 t-164 -158.5t-64 -233q0 -153 93.5 -246.5t235.5 -93.5z" />
<glyph unicode="&#xf6;" horiz-adv-x="1037" d="M440 1038q-13 0 -23 10t-10 24q0 16 13.5 29t30.5 13q13 0 22.5 -10.5t9.5 -24.5q0 -16 -13 -28.5t-30 -12.5zM773 1038q-13 0 -23 10t-10 24q0 17 13 29.5t30 12.5q13 0 23 -10.5t10 -24.5q0 -16 -13 -28.5t-30 -12.5zM578 837q156 0 258.5 -102t102.5 -267 q0 -138 -69 -249.5t-178 -170.5t-233 -59q-156 0 -258.5 101.5t-102.5 266.5q0 104 40.5 195t107.5 152.5t153.5 97t178.5 35.5zM463 20q83 0 162 32.5t141 89.5t99.5 142t37.5 182q0 153 -93.5 246.5t-235.5 93.5q-112 0 -212 -54.5t-164 -158.5t-64 -233 q0 -153 93.5 -246.5t235.5 -93.5z" />
<glyph unicode="&#xf7;" horiz-adv-x="1043" d="M502 746q-12 0 -20 9t-8 21q0 18 15.5 31.5t33.5 13.5q12 0 19.5 -8.5t7.5 -20.5q0 -18 -15 -32t-33 -14zM142 521q-7 0 -5 6l2 17q2 6 7 6h790q7 0 5 -6l-2 -17q-2 -6 -8 -6h-789zM432 250q-12 0 -20 9t-8 21q0 18 15.5 31.5t33.5 13.5q12 0 20 -9t8 -21 q0 -18 -15.5 -31.5t-33.5 -13.5z" />
<glyph unicode="&#xf8;" horiz-adv-x="1038" d="M974 799q3 -4 -2 -9l-104 -91q72 -98 72 -231q0 -104 -40.5 -195t-107.5 -152.5t-154 -96.5t-179 -35q-167 0 -270 114l-108 -94q-5 -5 -8 0l-11 11q-4 4 1 10l109 94q-74 98 -74 233q0 104 40.5 195t107.5 152.5t154 97t179 35.5q169 0 272 -117l103 90q4 4 9 0z M134 360q0 -123 65 -212l625 548q-93 110 -250 110q-85 0 -164.5 -32.5t-140.5 -89.5t-98 -141.5t-37 -182.5zM903 466q0 122 -62 209l-625 -548q94 -107 247 -107q85 0 164.5 32.5t140.5 89.5t98 141.5t37 182.5z" />
<glyph unicode="&#xf9;" horiz-adv-x="992" d="M600 957l-251 234q-5 5 0 9l13 15q5 5 10 0l248 -237q4 -5 0 -9l-11 -11q-5 -5 -9 -1zM917 826q7 0 5 -6l-114 -814q-2 -6 -7 -6h-23q-5 0 -5 6l33 239q-21 -41 -59 -85t-92 -85.5t-128 -68t-151 -26.5q-157 0 -220.5 93t-40.5 255l69 492q0 6 7 6h23q6 0 5 -6l-68 -486 q-22 -153 34 -238t200 -85q156 0 288 111t152 252l62 446q1 6 7 6h23z" />
<glyph unicode="&#xfa;" horiz-adv-x="992" d="M549 957q-4 -4 -9 1l-8 11q-2 4 3 9l315 237q6 5 9 0l9 -15q4 -4 -3 -9zM917 826q7 0 5 -6l-114 -814q-2 -6 -7 -6h-23q-5 0 -5 6l33 239q-21 -41 -59 -85t-92 -85.5t-128 -68t-151 -26.5q-157 0 -220.5 93t-40.5 255l69 492q0 6 7 6h23q6 0 5 -6l-68 -486 q-22 -153 34 -238t200 -85q156 0 288 111t152 252l62 446q1 6 7 6h23z" />
<glyph unicode="&#xfb;" horiz-adv-x="992" d="M773 952l-171 223l-233 -223q-3 -3 -9 -3h-24q-9 0 -2 7l253 241q3 3 11 3h15q9 0 11 -3l184 -241q5 -7 -4 -7h-21q-8 0 -10 3zM917 826q7 0 5 -6l-114 -814q-2 -6 -7 -6h-23q-5 0 -5 6l33 239q-21 -41 -59 -85t-92 -85.5t-128 -68t-151 -26.5q-157 0 -220.5 93 t-40.5 255l69 492q0 6 7 6h23q6 0 5 -6l-68 -486q-22 -153 34 -238t200 -85q156 0 288 111t152 252l62 446q1 6 7 6h23z" />
<glyph unicode="&#xfc;" horiz-adv-x="992" d="M418 1038q-13 0 -22.5 10t-9.5 24q0 17 13 29.5t30 12.5q13 0 23 -10.5t10 -24.5q0 -16 -13.5 -28.5t-30.5 -12.5zM751 1038q-13 0 -23 10t-10 24q0 16 13.5 29t30.5 13q13 0 23 -10.5t10 -24.5q0 -16 -13.5 -28.5t-30.5 -12.5zM917 826q7 0 5 -6l-114 -814q-2 -6 -7 -6 h-23q-5 0 -5 6l33 239q-21 -41 -59 -85t-92 -85.5t-128 -68t-151 -26.5q-157 0 -220.5 93t-40.5 255l69 492q0 6 7 6h23q6 0 5 -6l-68 -486q-22 -153 34 -238t200 -85q156 0 288 111t152 252l62 446q1 6 7 6h23z" />
<glyph unicode="&#xfd;" horiz-adv-x="787" d="M436 958l-8 11q-2 4 3 9l314 237q7 5 10 0l8 -15q4 -4 -2 -9l-317 -234q-4 -3 -8 1zM829 826q11 0 3 -12l-474 -820q-151 -263 -248.5 -371t-211.5 -108q-8 0 -6 7l3 17q2 6 7 6q50 0 95.5 25.5t97 85.5t103.5 139.5t126 206.5l-255 812q-6 12 6 12h22q5 0 8 -7l242 -779 l448 779q4 7 13 7h21z" />
<glyph unicode="&#xfe;" horiz-adv-x="1058" d="M602 837q154 0 256.5 -102t102.5 -267q0 -138 -69 -249.5t-178 -170.5t-232 -59q-132 0 -223.5 77.5t-117.5 202.5l-104 -747q-2 -7 -7 -7h-23q-5 0 -5 7l250 1783q0 6 8 6h22q7 0 5 -6l-102 -728q60 118 172 189t245 71zM485 20q85 0 164.5 32.5t140.5 89.5t98 141.5 t37 182.5q0 153 -94 246.5t-236 93.5q-178 0 -308 -129.5t-130 -310.5q0 -150 91 -248t237 -98z" />
<glyph unicode="&#xff;" horiz-adv-x="787" d="M314 1038q-13 0 -23 10t-10 24q0 16 13.5 29t30.5 13q13 0 22.5 -10.5t9.5 -24.5q0 -16 -13 -28.5t-30 -12.5zM647 1038q-13 0 -23 10t-10 24q0 17 13 29.5t30 12.5q13 0 23 -10.5t10 -24.5q0 -16 -13 -28.5t-30 -12.5zM829 826q11 0 3 -12l-474 -820 q-151 -263 -248.5 -371t-211.5 -108q-8 0 -6 7l3 17q2 6 7 6q50 0 95.5 25.5t97 85.5t103.5 139.5t126 206.5l-255 812q-6 12 6 12h22q5 0 8 -7l242 -779l448 779q4 7 13 7h21z" />
<glyph unicode="&#x152;" horiz-adv-x="1972" d="M1956 1249q8 0 6 -6l-3 -19q0 -6 -7 -6h-887q150 -64 230.5 -207t63.5 -340h434q8 0 6 -6l-3 -19q-2 -7 -7 -7h-433l-2 -12q-31 -216 -158 -373t-308 -223h918q6 0 5 -6l-3 -19q0 -6 -7 -6h-1031q-54 -9 -111 -9q-123 0 -227 45t-175.5 126t-103.5 201.5t-12 263.5 q27 189 131.5 336t253 223.5t313.5 76.5q66 0 128 -14h989zM1319 627q19 134 -10.5 248.5t-96.5 191.5t-164.5 120.5t-213.5 43.5q-155 0 -294.5 -73.5t-238 -213t-123.5 -317.5q-19 -134 11 -248.5t97 -191.5t164.5 -120.5t213.5 -43.5q115 0 225 43.5t199 120.5 t150.5 191.5t80.5 248.5z" />
<glyph unicode="&#x153;" horiz-adv-x="1776" d="M1681 446h-738q-7 -39 -7 -86q0 -153 93.5 -246.5t235.5 -93.5q221 0 344 211q3 6 10 3l17 -8q5 -2 1 -9q-132 -228 -377 -228q-138 0 -235.5 81.5t-119.5 218.5q-54 -137 -177.5 -218.5t-268.5 -81.5q-156 0 -258.5 101.5t-102.5 266.5q0 104 40.5 195t107.5 152.5 t153.5 97t178.5 35.5q137 0 235 -80.5t120 -216.5q53 135 173 216t264 81q164 0 250 -106.5t61 -284.5zM1366 806q-147 0 -264 -91t-153 -240h698q14 151 -62.5 241t-218.5 90zM463 20q83 0 162 32.5t141 89.5t99.5 142t37.5 182q0 153 -93.5 246.5t-235.5 93.5 q-112 0 -212 -54.5t-164 -158.5t-64 -233q0 -153 93.5 -246.5t235.5 -93.5z" />
<glyph unicode="&#x178;" horiz-adv-x="1138" d="M555 1461q-13 0 -23 10t-10 24q0 16 13.5 29t30.5 13q13 0 23 -10t10 -24q0 -16 -13.5 -29t-30.5 -13zM888 1461q-13 0 -23 10t-10 24q0 16 13.5 29t30.5 13q13 0 22.5 -10t9.5 -24q0 -17 -13 -29.5t-30 -12.5zM1209 1249q10 0 5 -6l-617 -788l-62 -449q-2 -6 -7 -6h-24 q-7 0 -5 6l63 450l-405 787q-4 6 6 6h26q5 0 8 -5l387 -756l592 756q4 5 9 5h24z" />
<glyph unicode="&#x2c6;" horiz-adv-x="479" d="M442 952l-171 223l-233 -223q-3 -3 -9 -3h-23q-9 0 -2 7l253 241q3 3 10 3h16q8 0 10 -3l185 -241q5 -7 -4 -7h-22q-8 0 -10 3z" />
<glyph unicode="&#x2dc;" horiz-adv-x="608" d="M559 1166q7 0 5 -9q-2 -84 -50.5 -132.5t-118.5 -48.5q-42 0 -72.5 25.5t-46 55.5t-43 55.5t-63.5 25.5q-108 0 -141 -155q-2 -7 -7 -7h-12q-7 0 -5 7q2 85 50 134t120 49q34 0 60 -16.5t42 -40t31.5 -47.5t38 -40.5t52.5 -16.5q108 0 141 155q2 6 7 6h12z" />
<glyph unicode="&#x2000;" horiz-adv-x="820" />
<glyph unicode="&#x2001;" horiz-adv-x="1641" />
<glyph unicode="&#x2002;" horiz-adv-x="820" />
<glyph unicode="&#x2003;" horiz-adv-x="1641" />
<glyph unicode="&#x2004;" horiz-adv-x="547" />
<glyph unicode="&#x2005;" horiz-adv-x="410" />
<glyph unicode="&#x2006;" horiz-adv-x="273" />
<glyph unicode="&#x2007;" horiz-adv-x="273" />
<glyph unicode="&#x2008;" horiz-adv-x="205" />
<glyph unicode="&#x2009;" horiz-adv-x="328" />
<glyph unicode="&#x200a;" horiz-adv-x="91" />
<glyph unicode="&#x2010;" horiz-adv-x="848" d="M136 468q-6 0 -6 7l3 19q1 6 7 6h593q7 0 5 -6l-2 -19q-2 -7 -7 -7h-593z" />
<glyph unicode="&#x2011;" horiz-adv-x="848" d="M136 468q-6 0 -6 7l3 19q1 6 7 6h593q7 0 5 -6l-2 -19q-2 -7 -7 -7h-593z" />
<glyph unicode="&#x2012;" horiz-adv-x="848" d="M136 468q-6 0 -6 7l3 19q1 6 7 6h593q7 0 5 -6l-2 -19q-2 -7 -7 -7h-593z" />
<glyph unicode="&#x2013;" horiz-adv-x="914" d="M10 470q-6 0 -6 6l2 17q2 6 8 6h891q7 0 5 -6l-2 -17q0 -6 -7 -6h-891z" />
<glyph unicode="&#x2014;" horiz-adv-x="1528" d="M10 470q-6 0 -6 6l2 17q2 6 8 6h1506q7 0 5 -6l-2 -17q0 -6 -7 -6h-1506z" />
<glyph unicode="&#x2018;" horiz-adv-x="330" d="M253 1068q-32 0 -32 39q0 48 31.5 115.5t89.5 117.5q5 5 10 0l4 -5q3 -5 -1 -9q-39 -34 -64 -80t-25 -84q0 -13 16 -22q16 -8 16 -28q0 -18 -13.5 -31t-31.5 -13z" />
<glyph unicode="&#x2019;" horiz-adv-x="330" d="M296 1321q33 0 33 -39q0 -48 -31.5 -115.5t-89.5 -117.5q-5 -4 -10 1l-4 4q-3 5 1 9q39 34 64 80.5t25 84.5q0 12 -16 21q-16 8 -16 28q0 18 13 31t31 13z" />
<glyph unicode="&#x201a;" horiz-adv-x="330" d="M120 66q32 0 32 -40q0 -48 -31.5 -115.5t-89.5 -117.5q-5 -4 -10 1l-4 4q-3 5 1 9q39 34 64 80.5t25 84.5q0 13 -15 21q-17 9 -17 29q0 18 13.5 31t31.5 13z" />
<glyph unicode="&#x201c;" horiz-adv-x="500" d="M253 1068q-32 0 -32 39q0 48 31.5 115.5t89.5 117.5q5 5 10 0l4 -5q3 -5 -1 -9q-39 -34 -64 -80t-25 -84q0 -13 16 -22q16 -8 16 -28q0 -18 -13.5 -31t-31.5 -13zM423 1068q-32 0 -32 39q0 48 31.5 115.5t89.5 117.5q5 5 10 0l4 -5q3 -5 -1 -9q-39 -34 -64 -80t-25 -84 q0 -13 16 -22q16 -8 16 -28q0 -18 -13.5 -31t-31.5 -13z" />
<glyph unicode="&#x201d;" horiz-adv-x="500" d="M296 1321q33 0 33 -39q0 -48 -31.5 -115.5t-89.5 -117.5q-5 -4 -10 1l-4 4q-3 5 1 9q39 34 64 80.5t25 84.5q0 12 -16 21q-16 8 -16 28q0 18 13 31t31 13zM467 1321q32 0 32 -39q0 -48 -31.5 -115.5t-89.5 -117.5q-5 -4 -10 1l-4 4q-3 4 2 9q38 34 63 80.5t25 84.5 q0 13 -15 21q-17 9 -17 28q0 18 13.5 31t31.5 13z" />
<glyph unicode="&#x201e;" horiz-adv-x="500" d="M120 66q32 0 32 -40q0 -48 -31.5 -115.5t-89.5 -117.5q-5 -4 -10 1l-4 4q-3 5 1 9q39 34 64 80.5t25 84.5q0 13 -15 21q-17 9 -17 29q0 18 13.5 31t31.5 13zM290 66q32 0 32 -40q0 -48 -31.5 -115.5t-89.5 -117.5q-5 -4 -10 1l-4 4q-3 5 1 9q39 34 64 80.5t25 84.5 q0 13 -15 21q-17 9 -17 29q0 18 13.5 31t31.5 13z" />
<glyph unicode="&#x2022;" horiz-adv-x="437" d="M215 334q-38 0 -65 28.5t-27 67.5q0 46 37.5 80.5t84.5 34.5q39 0 65.5 -27.5t26.5 -66.5q0 -46 -37.5 -81.5t-84.5 -35.5z" />
<glyph unicode="&#x2026;" horiz-adv-x="838" d="M101 -11q-13 0 -23 10.5t-10 24.5q0 17 13.5 29.5t30.5 12.5q14 0 23.5 -10.5t9.5 -24.5q0 -17 -13.5 -29.5t-30.5 -12.5zM359 -11q-13 0 -23 10.5t-10 24.5q0 17 13.5 29.5t30.5 12.5q14 0 24 -10.5t10 -24.5q0 -17 -13.5 -29.5t-31.5 -12.5zM618 -11q-13 0 -23 10.5 t-10 24.5q0 17 13.5 29.5t30.5 12.5q14 0 24 -10.5t10 -24.5q0 -17 -13.5 -29.5t-31.5 -12.5z" />
<glyph unicode="&#x202f;" horiz-adv-x="328" />
<glyph unicode="&#x2039;" horiz-adv-x="588" d="M494 690q5 3 8.5 1.5t2.5 -5.5l-2 -14q0 -2 -3 -5l-350 -242l282 -242q2 -2 2 -5l-2 -14q-1 -4 -5.5 -5.5t-8.5 1.5l-294 252q-2 1 -2 4l1 9l1 9q0 2 3 4z" />
<glyph unicode="&#x203a;" horiz-adv-x="588" d="M468 438q2 -2 2 -4l-3 -18q0 -2 -3 -4l-366 -252q-5 -3 -8.5 -1.5t-2.5 5.5l1 14q0 2 4 5l350 242l-282 242q-2 2 -2 5l2 14q1 4 5 5.5t8 -1.5z" />
<glyph unicode="&#x205f;" horiz-adv-x="410" />
<glyph unicode="&#x20ac;" horiz-adv-x="1537" d="M1509 936q1 -4 -3 -9l-19 -8q-7 -3 -9 3q-59 159 -166 233t-264 74q-203 0 -375.5 -120.5t-244.5 -321.5h691l-30 -29h-671q-32 -102 -32 -216q0 -32 1 -48h637l-30 -28h-604q24 -203 159.5 -324.5t329.5 -121.5q323 0 516 308q5 7 9 3l17 -8q5 -5 1 -10 q-202 -324 -548 -324q-209 0 -354.5 129.5t-167.5 347.5h-249l5 28h242q-2 28 -2 43q0 112 32 221h-235l4 29h240q49 143 152 252t235.5 165.5t276.5 56.5q335 0 456 -325z" />
<glyph unicode="&#x2122;" horiz-adv-x="1726" d="M1715 1263q4 0 4 -4l-110 -781q-1 -3 -5 -3h-14q-3 0 -3 3l102 730l-426 -564q-4 -6 -8 0l-267 564l-103 -730q-1 -3 -4 -3h-15q-3 0 -3 3l110 781q0 4 4 4h3q4 0 7 -5l277 -581l440 581q4 5 7 5h4zM838 1250q4 0 4 -3l-2 -12q-2 -4 -4 -4h-299l-106 -753q-1 -3 -5 -3 h-14q-4 0 -3 3l105 753h-299q-5 0 -3 4l2 12q0 3 4 3h318h302z" />
<glyph unicode="&#x25fc;" horiz-adv-x="826" d="M0 827h827v-827h-827v827z" />
</font>
</defs>
</svg>
